<?xml version="1.0" encoding="UTF-8"?>
<svg id="Layer_1" data-name="Layer 1" xmlns="http://www.w3.org/2000/svg" xmlns:xlink="http://www.w3.org/1999/xlink" version="1.1" viewBox="0 0 583 349">
  <defs>
    <style>
      .cls-1 {
        clip-path: url(#clippath);
      }

      .cls-2 {
        fill: none;
      }

      .cls-2, .cls-3, .cls-4, .cls-5, .cls-6, .cls-7, .cls-8 {
        stroke-width: 0px;
      }

      .cls-3 {
        fill: #fef7e5;
      }

      .cls-3, .cls-6, .cls-8 {
        fill-rule: evenodd;
      }

      .cls-4 {
        fill: #ea0029;
      }

      .cls-9, .cls-10, .cls-11 {
        fill: #231f20;
      }

      .cls-9, .cls-10, .cls-11, .cls-12, .cls-13, .cls-14, .cls-15, .cls-16, .cls-17 {
        isolation: isolate;
      }

      .cls-9, .cls-10, .cls-11, .cls-12, .cls-13, .cls-17 {
        font-size: 183.5px;
      }

      .cls-9, .cls-16 {
        font-family: Timegates-Contour, 'Timegates Contour';
      }

      .cls-10, .cls-13 {
        font-family: Timegates-InnerShadow, 'Timegates Inner Shadow';
      }

      .cls-11 {
        font-family: Timegates-Inline, 'Timegates Inline';
      }

      .cls-12, .cls-14 {
        fill: #fdf6e4;
        font-family: Timegates, Timegates;
      }

      .cls-5 {
        fill: #8b1a22;
      }

      .cls-13 {
        fill: #676767;
      }

      .cls-18 {
        opacity: .5;
      }

      .cls-6 {
        fill: #bbaa72;
      }

      .cls-7 {
        fill: #ec3027;
      }

      .cls-14, .cls-16 {
        font-size: 47.9px;
      }

      .cls-16 {
        fill: #000;
      }

      .cls-8 {
        fill: #b9a872;
      }

      .cls-17 {
        fill: #baa972;
        font-family: Timegates-DropShadow, 'Timegates Drop Shadow';
      }
    </style>
    <clipPath id="clippath">
      <path class="cls-2" d="M440.7,94.4c-7.7,1.1-18.5,3.4-24.7,8.3-3.6-3-9.9-5-14.2-5.3l-219.7,16.7h-.8l-3.7.3h.1l-2.2.3c-5.9-2.9-12.3-4.9-19.1-5.9-2.9,1.8-6.3,2.8-9.9,2.8s-7-1-9.9-2.8c-14.8,2.2-28.1,9.3-38.2,19.7-12.3,12.6-19.9,30.1-19.9,49.3s7.6,36.7,19.9,49.3c10.1,10.4,23.3,17.5,38.1,19.7,2.9-1.8,6.3-2.8,9.9-2.8s7,1,9.9,2.8c14.8-2.2,28.1-9.3,38.1-19.7.2-.2.5-.5.7-.7-.4,0-.8-.3-.8-.7s.2-.8.6-.9c11.1-1.6,16.3-6.4,16.4-6.5.2-.2.5-.2.7-.2s.4.3.5.5c0,.2,1.6,3.3,10,2.6l258.1-19.1c17.2-1.3,29.4-2.9,36.3-22.3,0,0,4.9-18.4-10.4-20.4,0,0-1.7.2-2.1-1-.3-.7,0-1.5.7-1.8.1,0,.2,0,.4-.2.6-.3,1.3-.6,2.2-.7.9,0,1.9,0,2.9.4.5.2,1,.5,1.5.8.5.4,1,.7,1.5,1.2.9.9,1.8,2,2.6,3.3.8,1.2,1.4,2.6,1.9,4.1.3.7.5,1.5.7,2.2.2.8.3,1.5.4,2.3.2,1.6.2,3.1.2,4.7s-.3,3.1-.6,4.5-.7,2.8-1.2,4.1-1,2.4-1.6,3.5c0,.3-.3.5-.4.8,0,.2-.3.5-.4.7-.3.5-.5.9-.8,1.3-.3.4-.5.8-.8,1.1-.3.3-.5.6-.7.9-.4.5-.8.9-1.1,1.2-.2.3-.4.4-.4.4,0,0,.1,0,.4-.4.2-.3.6-.6,1.1-1.2.2-.3.5-.6.7-.9.3-.3.5-.7.8-1.1.3-.4.6-.8.9-1.3,0-.2.3-.5.4-.7,0-.2.3-.5.4-.8.6-1,1.1-2.2,1.6-3.5s.9-2.7,1.2-4.1c.3-1.5.5-3,.6-4.6v-4.8c0-.8-.2-1.6-.4-2.4-.2-.8-.4-1.5-.6-2.3-.5-1.5-1.2-2.9-1.9-4.2-.8-1.3-1.6-2.5-2.6-3.4-.5-.5-1-.9-1.5-1.3s-1.1-.7-1.7-.9c-1.1-.4-2.3-.6-3.3-.4-1,0-1.8.4-2.5.7-5.2,2.5-8.3-2.3-3.7-4.6,0,0-6-.6-10.2,6.1-1.8,3.1-.7,10,3.6,11,1.8.4,3.7-.8,4.2-2.6.6-2-1.5-4.6-3.4-3.4,1.7-1,3.9,1.3,3.2,3.3-.5,1.6-2.2,2.7-3.8,2.2-3.2-.9-4.4-5.2-2-7.7,2.1-2.2,5.6-2.6,7.9-.6.8.7,1.5,1.7,1.9,3.2.4,1.8.1,3.6-.7,5.3-1.3,2.6-4.2,6.1-10.3,4.7,0,0-3.9,0-8-7.5,0,0-5.4,4.6-7.4-2.9,2.2,1.8,2.8-.3,3.6-2.7,3.2-5.5,7.6-8.9,12.3-10.5-14-3-28.7-19.2-15.2-42.6,6.2-8.6,13.8-11.8,20-12.8-2.9-1.5-8.3-4.5-8.6-4.4-11.1,1.6-16.3,6.4-16.4,6.5-.2.2-.5.2-.7.2s-.4-.3-.5-.5c0-.2-1.6-3.3-10-2.6l-20.3,1.5.3.2h-.1Z"/>
    </clipPath>
  </defs>
  <path class="cls-8" d="M490.6,233.2c3.6.8,7.4-.6,9.8-3.4,3.6-3.9,4.1-9.4,4.7-14.4.5-3.3.9-7.9,5.1-6.3-1.5-3.2-4.2-2.3-5.8-1.2-1.8,1.1-3.1,3.5-2.8,7.8.7,5.1.3,11.1-3.8,14.7,2-3.2,1.9-7.4,0-10.6-1.3-2.3-3.8-3.9-6.5-3.9-3.1-.1-3.8,2.9-2,4.7,4.6-5.1,10.1,3.8,7.8,8.1-1.1,3.1-5.2,4.8-8,2.7-5-3.2-.4-10,2-6.5-.8.7-1.9,1.4-1.8,2.6-.2,2.1,2.7,3.1,4.1,1.6,2.2-1.7,1.1-5.4-1.4-6.2-1.3-.6-2.6,0-3.8.5,0-1.6-1.2-2.8-2.6-3.3,1.7,2.4.6,4.7.3,6.7-.2,2.9,1.9,5.8,4.7,6.4h0Z"/>
  <path class="cls-6" d="M268.2,258.5l194-12.7c4.4-1.2,5.3-4,5.4-4.9,1.3,1.1.7,3.3-.1,4.4l-.3.3c.3-.2,2.5-1.8,2.6-1.9,0-.2.3-.3.5-.2,1.5.5,9.9,1.7,9.9,1.8,0,.2-8.2,2.4-9.6,3.1-.2,0-.4,0-.5-.1,0-.1-2.5-1.4-2.8-1.6l.3.3c1,1,1.8,3.1.7,4.3-.3-.9-1.5-3.6-6-4.1l-194.1,12.7"/>
  <g>
    <path class="cls-3" d="M147.2,111.5c5.2,0,9.9-2.1,13.3-5.5,3.4-3.4,5.5-8.1,5.5-13.3s-2.1-9.9-5.5-13.3-8.1-5.5-13.3-5.5-9.9,2.1-13.3,5.5c-3.4,3.4-5.5,8.1-5.5,13.3s2.1,9.9,5.5,13.3,8.1,5.5,13.3,5.5h0ZM161.1,106.5c-3.6,3.6-8.5,5.8-13.9,5.8s-10.3-2.2-13.9-5.8c-3.6-3.6-5.8-8.5-5.8-13.9s2.2-10.3,5.8-13.9,8.5-5.8,13.9-5.8,10.3,2.2,13.9,5.8c3.6,3.6,5.8,8.5,5.8,13.9s-2.2,10.3-5.8,13.9Z"/>
    <path class="cls-8" d="M164.9,92.6c0,9.8-7.9,17.7-17.7,17.7s-17.7-7.9-17.7-17.7,7.9-17.7,17.7-17.7,17.7,7.9,17.7,17.7h0ZM134.6,102.1h0l-1.2.9c.3.4.5.7.8,1l1.1-1c-.3-.3-.5-.6-.7-.9h0ZM134.3,101.7h0c-.2-.3-.4-.6-.6-1l-1.3.7c.2.4.5.7.7,1.1l1.2-.9h0ZM133.5,100.3h0c-.2-.3-.4-.7-.5-1l-1.4.6c.2.4.4.8.6,1.2l1.3-.7h0ZM132.7,98.8h0c-.2-.4-.3-.7-.4-1.1l-1.4.5c.1.4.3.8.5,1.2l1.4-.6h-.1ZM132.2,97.3h0c-.1-.4-.2-.7-.3-1.1l-1.5.3c0,.4.2.9.3,1.3l1.4-.5s.1,0,.1,0ZM131.8,95.7h0c0-.4-.1-.8-.2-1.2l-1.5.2c0,.4.1.9.2,1.3l1.5-.3h0ZM131.5,94h0v-1.2h-1.5v1.3l1.5-.2h0ZM131.5,92.4h0v-1.2l-1.5-.2v1.3h1.5ZM131.6,90.7h0c0-.4.1-.8.2-1.2l-1.5-.3c0,.4-.2.9-.2,1.3l1.5.2h0ZM131.9,89.1h0c0-.4.2-.8.3-1.1l-1.4-.5c-.1.4-.2.8-.3,1.3l1.5.3s-.1,0-.1,0ZM132.3,87.5h0c.1-.4.3-.7.4-1.1l-1.4-.6c-.2.4-.3.8-.5,1.2l1.4.5h.1ZM132.9,86h0c.2-.4.3-.7.5-1l-1.3-.7c-.2.4-.4.8-.6,1.2l1.4.6h0ZM133.7,84.5h0c.2-.3.4-.7.6-1l-1.2-.9c-.3.4-.5.7-.7,1.1l1.3.7h0ZM134.6,83.2h0c.2-.3.5-.6.7-.9l-1.1-1c-.3.3-.6.7-.8,1l1.2.9h0ZM132.7,92.6h0c0,8,6.5,14.5,14.5,14.5s14.5-6.5,14.5-14.5-6.5-14.5-14.5-14.5-14.5,6.5-14.5,14.5h0ZM156.6,105.2h0l.9,1.2c.4-.3.7-.5,1-.8l-1-1.1c-.3.3-.6.5-.9.7h0ZM156.2,105.5h0c-.3.2-.6.4-1,.6l.7,1.3c.4-.2.7-.5,1.1-.7l-.9-1.2h0ZM154.9,106.4h0c-.3.2-.7.4-1,.5l.6,1.4,1.2-.6-.7-1.3h-.1ZM153.4,107.1h0c-.4.2-.7.3-1.1.4l.5,1.4c.4,0,.8-.3,1.2-.5l-.6-1.4h0ZM151.8,107.7h0c-.4,0-.7.2-1.1.3l.3,1.5c.4,0,.9-.2,1.3-.3l-.5-1.4h0ZM150.2,108.1h0c-.4,0-.8,0-1.2.2l.2,1.5c.4,0,.9,0,1.3-.2l-.3-1.5h0ZM148.6,108.3h-1.2v1.5h1.3l-.2-1.5h0ZM147,108.3h-1.2l-.2,1.5h1.3v-1.5h0ZM145.3,108.2h0c-.4,0-.8,0-1.2-.2l-.3,1.5c.4,0,.9.2,1.3.2l.2-1.5h0ZM143.7,108h0c-.4,0-.8-.2-1.1-.3l-.5,1.4c.4,0,.8.2,1.3.3l.3-1.5h0ZM142.1,107.5h0c-.4,0-.7-.3-1.1-.4l-.6,1.4c.4.2.8.3,1.2.5l.5-1.4h0ZM140.6,106.9h0c-.4-.2-.7-.3-1-.5l-.7,1.3,1.2.6.6-1.4h-.1ZM139.1,106.1h0c-.3-.2-.7-.4-1-.6l-.9,1.2c.4.3.7.5,1.1.7l.7-1.3h0ZM137.8,105.2h0c-.3-.2-.6-.5-.9-.7l-1,1.1c.3.3.7.6,1,.8l.9-1.2h0ZM159.8,83.2h0l1.2-.9c-.3-.4-.5-.7-.8-1l-1.1,1c.3.3.5.6.7.9h0ZM160.1,83.6h0c.2.3.4.6.6,1l1.3-.7c-.2-.4-.5-.7-.7-1.1l-1.2.9h0ZM160.9,85h0c.2.3.4.7.5,1l1.4-.6c-.2-.4-.4-.8-.6-1.2l-1.3.7h0ZM161.7,86.4h0c.2.4.3.7.4,1.1l1.4-.5c-.1-.4-.3-.8-.5-1.2l-1.4.6h.1ZM162.2,88h0c.1.4.2.7.3,1.1l1.5-.3c0-.4-.2-.9-.3-1.3l-1.4.5s-.1,0-.1,0ZM162.6,89.6h0c0,.4.1.8.2,1.2l1.5-.2c0-.4-.1-.9-.2-1.3l-1.5.3h0ZM162.9,91.2h0v1.2h1.5v-1.3l-1.5.2h0ZM162.9,92.9h0v1.2l1.5.2v-1.3h-1.5ZM162.8,94.5h0c0,.4-.1.8-.2,1.2l1.5.3c0-.4.2-.9.2-1.3l-1.5-.2h0ZM162.5,96.1h0c0,.4-.2.8-.3,1.1l1.4.5c.1-.4.2-.8.3-1.3l-1.5-.3s.1,0,.1,0ZM162.1,97.7h0c-.1.4-.3.7-.4,1.1l1.4.6c.2-.4.3-.8.5-1.2l-1.4-.5h-.1ZM161.5,99.2h0c-.2.4-.3.7-.5,1l1.3.7c.2-.4.4-.8.6-1.2l-1.4-.6h0ZM160.7,100.7h0c-.2.3-.4.7-.6,1l1.2.9c.3-.4.5-.7.7-1.1l-1.3-.7h0ZM159.8,102.1h0c-.2.3-.5.6-.7.9l1.1,1c.3-.3.6-.7.8-1l-1.2-.9h0ZM150.2,77.2h0l.3-1.5c-.4,0-.9-.2-1.3-.2l-.2,1.5c.4,0,.8,0,1.2.2h0ZM150.7,77.3h0c.4,0,.8.2,1.1.3l.5-1.4c-.4,0-.8-.2-1.3-.3l-.3,1.5h0ZM152.3,77.7h0c.4,0,.7.3,1.1.4l.6-1.4c-.4-.2-.8-.3-1.2-.5l-.5,1.4h0ZM153.8,78.3h0c.4.2.7.3,1,.5l.7-1.3-1.2-.6-.6,1.4h.1ZM155.3,79.1h0c.3.2.7.4,1,.6l.9-1.2c-.4-.3-.7-.5-1.1-.7l-.7,1.3h0ZM156.6,80h0c.3.2.6.5.9.7l1-1.1c-.3-.3-.7-.6-1-.8l-.9,1.2h0ZM137.8,80h0l-.9-1.2c-.4.3-.7.5-1,.8l1,1.1c.3-.3.6-.5.9-.7h0ZM138.1,79.8h0c.3-.2.6-.4,1-.6l-.7-1.3c-.4.2-.7.5-1.1.7l.9,1.2h0ZM139.5,78.9h0c.3-.2.7-.4,1-.5l-.6-1.4-1.2.6.7,1.3h.1ZM141,78.1h0c.4-.2.7-.3,1.1-.4l-.5-1.4c-.4,0-.8.3-1.2.5l.6,1.4h0ZM142.6,77.6h0c.4,0,.7-.2,1.1-.3l-.3-1.5c-.4,0-.9.2-1.3.3l.5,1.4h0ZM144.2,77.2h0c.4,0,.8,0,1.2-.2l-.2-1.5c-.4,0-.9,0-1.3.2l.3,1.5h0ZM145.8,76.9h1.2v-1.5h-1.3l.2,1.5h0ZM147.4,76.9h1.2l.2-1.5h-1.3v1.5h0ZM158.9,80h0l-1,1.1c.3.3.6.5.8.8l1.1-1c-.3-.3-.6-.6-.9-.9h0ZM159.8,104.3h0l-1.1-1c-.3.3-.5.6-.8.8l1,1.1c.3-.3.6-.6.9-.9h0ZM135.5,105.3h0l1-1.1c-.3-.3-.6-.5-.8-.8l-1.1,1c.3.3.6.6.9.9h0ZM134.6,80.9h0l1.1,1c.3-.3.5-.6.8-.8l-1-1.1c-.3.3-.6.6-.9.9h0Z"/>
  </g>
  <g class="cls-18">
    <g class="cls-1">
      <g>
        <polygon class="cls-3" points="-13.1 122.6 559 79.2 559.1 80.7 -13 124.1 -13.1 122.6"/>
        <polygon class="cls-3" points="-11.7 127.2 560.4 83.8 560.5 85.3 -11.6 128.7 -11.7 127.2"/>
        <polygon class="cls-3" points="-10.3 131.8 561.8 88.4 561.9 89.9 -10.2 133.3 -10.3 131.8"/>
        <polygon class="cls-3" points="-8.9 136.4 563.1 93 563.2 94.5 -8.8 137.9 -8.9 136.4"/>
        <polygon class="cls-3" points="-7.6 141 564.5 97.6 564.6 99.1 -7.4 142.5 -7.6 141"/>
        <polygon class="cls-3" points="-6.2 145.6 565.9 102.2 566 103.7 -6.1 147.1 -6.2 145.6"/>
        <polygon class="cls-3" points="-4.8 150.2 567.3 106.8 567.4 108.3 -4.7 151.7 -4.8 150.2"/>
        <polygon class="cls-3" points="-3.4 154.8 568.7 111.4 568.8 112.9 -3.3 156.3 -3.4 154.8"/>
        <polygon class="cls-3" points="-2 159.4 570 116 570.1 117.5 -1.9 160.9 -2 159.4"/>
        <polygon class="cls-3" points="-.6 164 571.4 120.6 571.5 122.1 -.5 165.5 -.6 164"/>
        <polygon class="cls-3" points=".7 168.6 572.8 125.2 572.9 126.7 .9 170.1 .7 168.6"/>
        <polygon class="cls-3" points="2.1 173.2 574.2 129.8 574.3 131.2 2.2 174.6 2.1 173.2"/>
        <polygon class="cls-3" points="3.5 177.8 575.6 134.4 575.7 135.8 3.6 179.2 3.5 177.8"/>
        <polygon class="cls-3" points="4.9 182.4 576.9 139 577 140.4 5 183.8 4.9 182.4"/>
        <polygon class="cls-3" points="6.3 187 578.3 143.6 578.4 145 6.4 188.4 6.3 187"/>
        <polygon class="cls-3" points="7.6 191.6 579.7 148.2 579.8 149.6 7.7 193 7.6 191.6"/>
        <polygon class="cls-3" points="9 196.2 581.1 152.8 581.2 154.2 9.1 197.6 9 196.2"/>
        <polygon class="cls-3" points="10.4 200.8 582.5 157.4 582.6 158.8 10.5 202.2 10.4 200.8"/>
        <polygon class="cls-3" points="11.8 205.3 583.9 161.9 584 163.4 11.9 206.8 11.8 205.3"/>
        <polygon class="cls-3" points="13.2 209.9 585.2 166.5 585.3 168 13.3 211.4 13.2 209.9"/>
        <polygon class="cls-3" points="14.5 214.5 586.6 171.1 586.7 172.6 14.6 216 14.5 214.5"/>
        <polygon class="cls-3" points="15.9 219.1 588 175.7 588.1 177.2 16 220.6 15.9 219.1"/>
        <polygon class="cls-3" points="17.3 223.7 589.4 180.3 589.5 181.8 17.4 225.2 17.3 223.7"/>
        <polygon class="cls-3" points="18.7 228.3 590.8 184.9 590.9 186.4 18.8 229.8 18.7 228.3"/>
        <polygon class="cls-3" points="20.1 232.9 592.1 189.5 592.2 191 20.2 234.4 20.1 232.9"/>
        <polygon class="cls-3" points="21.4 237.5 593.5 194.1 593.6 195.6 21.5 239 21.4 237.5"/>
        <polygon class="cls-3" points="22.8 242.1 594.9 198.7 595 200.2 22.9 243.6 22.8 242.1"/>
        <polygon class="cls-3" points="24.2 246.7 596.3 203.3 596.4 204.8 24.3 248.2 24.2 246.7"/>
        <polygon class="cls-3" points="25.6 251.3 597.7 207.9 597.8 209.4 25.7 252.8 25.6 251.3"/>
        <polygon class="cls-3" points="27 255.9 599 212.5 599.1 214 27.1 257.4 27 255.9"/>
      </g>
    </g>
  </g>
  <g>
    <g>
      <path class="cls-8" d="M255.2,87.7c1,0,1.7,1.1,1.8,2.1.5,5.8-6.7,9.4-11.4,10.3-4,.7-8.2.6-12-.6.5,1.1,0,2.6-1.4,2.7.2-2.9-2.3-2.9-3.7-5.9,2.8,1.8,6.1,3.1,9.5,3.2,2.2,0,4.4-.5,6.4-1.4.9-.5,1.9-1,2.3-2,.3-.6-.3-1.1-.6-1.6.6-.2,1.2-.6,1.9-.5.8,0,1.4,1.1,1.1,1.9-.4,1.4-1.7,2.3-2.9,2.9,5.3-.7,10.7-7.7,5.2-9.6.9-1,2.3-1.7,3.7-1.5h0Z"/>
      <path class="cls-8" d="M235.7,96.8c.9.2,1.6.5,1.6.5-3.6-2.5-6.5-8.9-3.7-10.4-3,.4-2.4,3.8-1.5,5.6-.8-1.5-1.5-4-.1-5.4.2-.2.4-.3.6-.4.2,0,.4-.2.6-.2h.6c-.9-.7-2.2.3-2.2.3-3.9,2.8-.5,8,3,9.4-2.4-.8-4-2.4-4.9-4.7-1-2.7-4.7,3,6,5.5v-.2h0Z"/>
    </g>
    <path class="cls-8" d="M229.8,106.7l191.1-14.2c.3,0,.5-.2.5-.5s-.2-.5-.5-.5c-7,0-10.6-2.6-10.7-2.6s-.3,0-.5,0c-.1,0-.3.2-.3.3s-.7,2.1-6,2.4l-161.6,12.3c-3,.2-6.3.8-9.3.2-8.8-1.7-17.9-11-25.9-15.5-14.8-8.3-30.7-10.3-30.7-10.3,17.3,4.2,36.4,14.7,47.2,28.7l4.6-.2h2.1,0Z"/>
    <g>
      <g>
        <path class="cls-3" d="M219.6,221.7h-1.2c.6,2.4,1.7,5.2,1.9,7.9.8,7.5-7.5,10.6-12.2,5.9-2.3-2.3-2.3-6,0-8.2,1.8-1.8,4.7-1.8,6.4,0,1.4,1.4,1.4,3.6,0,5s-2.8,1.1-3.8,0c-.5-.5-.6-1.1-.6-1.7,0,0,.2.1.3.2,1.2.4,2.2-.8,1.6-1.9-.4-.6-1.5-.9-2.1-.3h0c-1.1,1.4-1.1,3.3.1,4.5,1.5,1.5,4,1.5,5.5,0s1.8-4.8,0-6.6-5.8-2.2-8.1,0c-2.7,2.7-2.7,7.2,0,9.9,5.5,5.5,15.1,1.8,14.2-6.9-.3-2.7-1.3-5.4-1.9-7.6h0v-.2h0ZM211.4,112.2c.4-1.1.5-2.4,1-3.4l3,3h-.2l-3.8.3h0ZM196.1,96.3c.3.3.5.6.7.9.4.7.5,1.4.3,2.2-.2.6-.9,1.2-1.9,1.3.5-.6.9-1.3,1-2.2,0-.8-.2-1.7-.7-2.6-1.3-.8-2.6-1.5-4-2.3h0c3,1.4,4,3.3,3.9,4.8,0,1.1-.8,2.1-1.8,2.2-.2,0-.4.2-.4.4s.1.4.3.5c2.1.6,4.1-.5,4.5-1.9.2-.8.2-1.5,0-2.2-.6-.4-1.2-.8-1.8-1.1,0,0-.1,0-.1,0ZM172,85.9c1,1.2,1.7,3.1,1.2,4.5,0,.2,0,.3.1.5.1,0,.3.2.5,0,0,0,4.7-1.5,9.7-1.1-.8-.3-1.6-.6-2.4-.9-3.1,0-5.7.7-6.9,1,.1-1.2-.3-2.5-.9-3.6-.4,0-.9-.2-1.3-.4h0ZM191.9,97.2c.1,1.3-.2,2.7-1,3.9-1.5,2.2-4.5,2.7-6.7,1.1-1.8-1.3-2.2-3.8-.9-5.5,1.1-1.5,3.1-1.8,4.6-.8,1.3.9,1.5,2.6.7,3.9-.2.3-.6.4-.9.2-.3-.2-.4-.6-.2-.9.5-.6.3-1.5-.3-2-.9-.6-2.1-.4-2.7.5-.8,1.2-.6,2.8.6,3.6,1.5,1.1,3.7.7,4.8-.8,1.3-1.9,1-4.4-.7-5.9-.2,0-.4-.3-.6-.4-6.3-4.2-16.1,5.2-21.9,6.9-.9.3-1.8.4-2.7.4.2-.4.5-.9.6-1.4.5,0,1-.2,1.5-.3,6.3-1.7,16.1-11.9,23.2-6.8h0c.1,0,2.1,1.6,2.5,4.4h0ZM168.4,85c-1.2-.3-2.4-.5-3.7-.8.6.2,1.2.5,1.8.9,2.4,1.7,2.9,5,1.2,7.4-.4.6-1,1.1-1.7,1.4,0,.5,0,1-.2,1.5,1.1-.3,2.2-1,2.9-2.1,1.8-2.6,1.6-6.1-.5-8.3h.2ZM165.4,87.5c.2.6.3,1.3.4,2,.3-.6.2-1.5-.4-1.9h0ZM192.5,113.9h-.9c0-1.4,0-3.1.6-3.9-1.7.3-8.4.2-11.8-1.6.6.4,1.3.8,1.9,1.1-2.3-1.2-4.8-2.3-7.2-3.3-1.5-1.3-2.3-2.9-1.5-5.5.2-.6.6-1.2,1.1-1.7,1.6-1.6,4.2-1.6,5.8,0,1.3,1.3,1.3,3.5,0,4.8-1.1,1.1-2.9,1.1-4,0-.9-.9-.9-2.4,0-3.4.2-.2.6-.2.8,0s.2.6,0,.8c-.5.5-.5,1.3,0,1.7.7.7,1.7.7,2.4,0,.9-.9.9-2.3,0-3.2-1.1-1.1-3-1.1-4.2,0s-1.5,3.6-.3,5.1c.1,0,.3.3.4.4,2.4,2.2,11.9.2,15.7-.6,2.3-.5,5.3-1.7,8.2-2,6.6-.7,10.3,4.7,9.4,9.7h-1.2c1.1-4.3-2.1-9.2-7.9-8.6-2.8.3-5.8,1.5-8.2,2-1.7.4-8.6,2-10.3,2.1,3.6,1.5,11.9.9,12,.9.2,0,.3,0,.4.3,0,.2,0,.3-.1.5-.9.9-1.1,2.6-1,4.3h0ZM196.2,113.6c-.2-1.4.2-2.9,1.3-3.9,1.4-1.4,3.6-1.4,5,0,.9.9,1,2.3.4,3.3h1.3c.5-1.5.2-3.1-.9-4.2-1.8-1.8-4.8-1.8-6.6,0s-1.9,3.1-1.6,4.8h1.2,0ZM201,113.1c0-.9-1.1-1.5-2-1-.4.2-.6.7-.6,1.2l2.6-.2h0ZM83.5,113.3h0c-1.3-.9-3.1-.8-4.5-1.5l3-3c.7,1.4.6,3.2,1.5,4.5h0ZM66.5,128.1c.3-.3.6-.5.9-.7.7-.4,1.4-.5,2.2-.3.6.2,1.2.9,1.3,1.9-.6-.5-1.3-.9-2.2-1-.8,0-1.7.2-2.6.7-.3.4-.5.9-.8,1.3h.6c.9-.8,1.9-1.1,2.8-1.1s2.1.8,2.2,1.8c0,0,0,.2.2.3h.2c.2,0,.4,0,.5-.3.6-2.1-.5-4.1-1.9-4.5-.8-.2-1.5-.2-2.2,0-.4.6-.8,1.2-1.1,1.8h0ZM98.3,96.3c-.3.3-.5.6-.7.9-.4.7-.5,1.4-.3,2.2.2.6.9,1.2,1.9,1.3-.5-.6-.9-1.3-1-2.2,0-.8.2-1.7.7-2.6,1.3-.8,2.6-1.5,4-2.3h0c-3,1.4-4,3.3-3.9,4.8,0,1.1.8,2.1,1.8,2.2.2,0,.4.2.4.4s0,.4-.3.5c-2.1.6-4.1-.5-4.5-1.9-.2-.8-.2-1.5,0-2.2.6-.4,1.2-.8,1.8-1.1h0ZM122.4,85.9c-1,1.2-1.7,3.1-1.2,4.5v.5c0,0-.3.2-.5,0,0,0-4.7-1.5-9.7-1.1.8-.3,1.6-.6,2.4-.9,3.1,0,5.7.7,6.9,1,0-1.2.3-2.5.9-3.6.4,0,.9-.2,1.3-.4h-.1ZM102.4,97.2c0,1.3.2,2.7,1,3.9,1.5,2.2,4.5,2.7,6.7,1.1,1.8-1.3,2.2-3.8.9-5.5-1.1-1.5-3.1-1.8-4.6-.8-1.3.9-1.5,2.6-.7,3.9.2.3.6.4.9.2s.4-.6.2-.9c-.5-.6-.3-1.5.3-2,.9-.6,2.1-.4,2.7.5.8,1.2.6,2.8-.6,3.6-1.5,1.1-3.7.7-4.8-.8-1.3-1.9-1-4.4.7-5.9.2,0,.4-.3.6-.4,6.3-4.2,16.1,5.2,21.9,6.9.9.3,1.8.4,2.7.4-.2-.4-.5-.9-.6-1.4-.5,0-1-.2-1.5-.3-6.3-1.7-16.1-11.9-23.2-6.8h0s-2.1,1.6-2.5,4.4h0ZM126,85c1.2-.3,2.4-.5,3.7-.8-.6.2-1.2.5-1.8.9-2.4,1.7-2.9,5-1.2,7.4.4.6,1,1.1,1.7,1.4,0,.5,0,1,.2,1.5-1.1-.3-2.2-1-2.9-2.1-1.8-2.6-1.6-6.1.5-8.3,0,0-.2,0-.2,0ZM129,87.5c-.2.6-.3,1.3-.4,2-.3-.6-.2-1.5.4-1.9h0ZM120.8,100.7c-.2-.6-.6-1.2-1.1-1.7-1.6-1.6-4.2-1.6-5.8,0-1.3,1.3-1.3,3.5,0,4.8s2.9,1.1,4,0,.9-2.4,0-3.4c-.2-.2-.6-.2-.8,0-.2.2-.2.6,0,.8.5.5.5,1.3,0,1.7-.7.7-1.7.7-2.4,0-.9-.9-.9-2.3,0-3.2s3-1.1,4.2,0c1.4,1.4,1.5,3.6.3,5.1l-.4.4c-2.4,2.2-11.9.2-15.7-.6-2.3-.5-5.3-1.7-8.2-2-8.7-1-12.4,8.7-6.9,14.2s7.2,2.7,9.9,0c2.2-2.2,2.2-5.8,0-8.1s-4.8-1.8-6.6,0c-1.5,1.5-1.5,4,0,5.5s3.1,1.2,4.4,0h0c.6-.7.3-1.8-.3-2.1-1.1-.6-2.3.5-1.9,1.6,0,0,0,.2.2.3-.6,0-1.2,0-1.7-.6-1.1-1.1-1.1-2.8,0-3.8s3.6-1.4,5,0,1.8,4.7,0,6.4c-2.3,2.3-6,2.3-8.2,0-4.7-4.7-1.6-13,5.9-12.2,2.8.3,5.8,1.5,8.2,2,1.7.4,8.6,2,10.3,2.1-3.6,1.5-11.9.9-12,.9-.2,0-.3,0-.4.3v.5c1.3,1.3,1.2,4.7.6,6.5.4-.3.8-.6,1.3-.9.2-1.7.2-4.1-.5-5.3,1.7.3,8.4.2,11.8-1.6-.6.4-1.3.8-1.9,1.1,2.3-1.2,4.8-2.3,7.2-3.3,1.5-1.3,2.3-2.9,1.5-5.5h-.2.2ZM86.4,131.3c-1.8.6-5.2.7-6.5-.6,0,0-.3-.2-.5,0-.2,0-.3.2-.3.4,0,0,.3,3.9,0,7.6v.3h0v.3c0,.4.3.8.4,1.2.7-3.3.7-7.1.5-8.3,1.2.7,3.6.8,5.3.5.3-.4.6-.8.9-1.3h.2ZM76.5,134.7c-.2-.9-.4-1.7-.5-2.1-.6-2.4-1.8-5.4-2-8.2-.8-7.5,7.5-10.6,12.2-5.9s2.3,6,0,8.2c-2.3,2.2-4.7,1.8-6.4,0-1.4-1.4-1.4-3.6,0-5s2.8-1.1,3.8,0c.5.5.6,1.1.6,1.7,0,0-.2,0-.3-.2-1.2-.4-2.2.8-1.6,1.9.4.6,1.5.9,2.1.3h0c1.1-1.4,1.1-3.3,0-4.5-1.5-1.5-4-1.5-5.5,0s-1.8,4.8,0,6.6c2.2,2.2,5.8,2.2,8.1,0,2.7-2.7,2.7-7.2,0-9.9-5.5-5.5-15.1-1.8-14.2,6.9.3,2.9,1.5,5.9,2,8.2v.4c.6.4,1.1.9,1.6,1.5h.2,0ZM79,242.2l3,3c.7-1.4.6-3.2,1.5-4.5h0c-1.3.9-3.1.8-4.5,1.5h0ZM96.4,256.6c.6.4,1.2.8,1.8,1.1-.3-.3-.5-.6-.7-.9-.4-.7-.5-1.4-.3-2.2.2-.6.9-1.2,1.9-1.3-.5.5-.9,1.3-1,2.2,0,.8.2,1.7.7,2.6,1.3.8,2.6,1.5,4,2.3h0c-3-1.4-4-3.3-3.9-4.8,0-1.1.8-2.1,1.8-2.2.2,0,.4-.2.4-.4s0-.4-.3-.5c-2.1-.6-4.1.5-4.5,1.9-.2.8-.2,1.5,0,2.2h0ZM110.9,264.1c.8.3,1.6.6,2.4.9,3.1,0,5.7-.7,6.9-1,0,1.2.3,2.5.9,3.6.4.1.9.2,1.3.4-1-1.2-1.7-3.1-1.2-4.5v-.5c0-.1-.3-.2-.5-.1,0,0-4.7,1.5-9.7,1.1h-.1ZM71.2,223h-.2c0,.1-.2.3-.2.4,0,.9-1,1.7-2.2,1.8-.9,0-1.9-.3-2.8-1.1h-.5c.3.4.5.9.8,1.3.9.6,1.8.8,2.6.7.9,0,1.7-.4,2.2-1-.2,1-.8,1.7-1.3,1.9-.8.2-1.5.1-2.2-.3-.3-.2-.6-.4-.9-.7.4.6.8,1.2,1.1,1.8.7.3,1.5.3,2.2,0,1.4-.4,2.5-2.4,1.9-4.5,0-.2-.3-.3-.5-.3h0ZM126,269c1.2.3,2.4.5,3.7.8-.6-.2-1.2-.5-1.8-.9-2.4-1.7-2.9-5-1.2-7.4.4-.6,1-1.1,1.6-1.4,0-.5,0-1,.2-1.5-1.1.3-2.2,1-2.9,2.1-1.8,2.6-1.6,6.1.5,8.3h0ZM128.5,264.6c0,.7.3,1.3.4,1.9h0c-.6-.5-.7-1.3-.4-1.9h0ZM130.4,252.6c-.2.4-.5.9-.6,1.4-.5,0-1,.2-1.5.3-6.3,1.7-16.1,11.9-23.2,6.8h0s-2.1-1.6-2.5-4.4c0-1.3.2-2.8,1-3.9,1.5-2.2,4.5-2.7,6.7-1.1,1.8,1.3,2.2,3.8.9,5.5-1.1,1.5-3.1,1.8-4.6.8-1.3-.9-1.5-2.6-.7-3.9.2-.3.6-.4.9-.2s.4.6.2.9c-.5.6-.3,1.5.3,2,.9.6,2.1.4,2.7-.5.8-1.2.6-2.8-.6-3.7-1.5-1.1-3.7-.7-4.8.8-1.3,1.9-1,4.4.7,5.9.2.1.4.3.6.4,6.3,4.2,16.1-5.2,21.9-6.9.9-.3,1.8-.4,2.6-.4h0v.2h0ZM119.3,247.8c1.5,1.3,2.3,2.9,1.5,5.5-.2.6-.6,1.2-1.1,1.7-1.6,1.6-4.2,1.6-5.8,0s-1.3-3.5,0-4.8c1.1-1.1,2.9-1.1,4,0,.9.9.9,2.4,0,3.4-.2.2-.6.2-.8,0-.2-.2-.2-.6,0-.8.5-.5.5-1.3,0-1.7-.7-.7-1.7-.7-2.4,0-.9.9-.9,2.3,0,3.2,1.1,1.1,3,1.1,4.2,0,1.4-1.4,1.5-3.6.3-5.1,0-.1-.3-.3-.4-.4-2.4-2.2-11.9-.2-15.7.6-2.3.5-5.3,1.7-8.2,2-8.7,1-12.4-8.7-6.9-14.2s7.2-2.7,9.9,0c2.2,2.2,2.2,5.8,0,8.1-1.8,1.8-4.8,1.8-6.6,0-1.5-1.5-1.5-4,0-5.5s3.1-1.2,4.4-.1h0c.6.7.3,1.8-.3,2.1-1.1.6-2.3-.5-1.9-1.6,0-.1,0-.2.2-.3-.6,0-1.2.1-1.7.6-1.1,1.1-1.1,2.8,0,3.8,1.4,1.4,3.6,1.4,5,0,1.8-1.8,1.8-4.7,0-6.4-2.3-2.3-6-2.3-8.2,0-4.7,4.7-1.6,13,5.9,12.2,2.8-.3,5.8-1.5,8.2-2,1.7-.4,8.6-2,10.3-2.1-3.6-1.5-11.9-.9-12-.9-.2,0-.3-.1-.4-.3v-.5c1.3-1.3,1.2-4.7.6-6.5.4.3.8.6,1.3.9.2,1.6.2,4.1-.5,5.3,1.7-.3,8.4-.2,11.8,1.6-.6-.4-1.3-.8-1.9-1.1,2.3,1.2,4.8,2.3,7.2,3.3h-.2.2ZM86.4,222.7c-.3-.4-.6-.8-.9-1.3-1.7-.2-4.1-.2-5.3.5.2-1.2.2-5-.5-8.3,0,.4-.2.8-.4,1.2h0v.6c.3,3.6,0,7.5,0,7.6,0,.2,0,.3.3.4.2,0,.3,0,.5-.1,1.3-1.3,4.8-1.2,6.5-.6h-.2ZM76.5,219.3c-.2.9-.4,1.7-.5,2.1-.6,2.4-1.8,5.4-2,8.2-.8,7.5,7.5,10.6,12.2,5.9,2.3-2.3,2.3-6,0-8.2-1.8-1.8-4.7-1.8-6.4,0-1.4,1.4-1.4,3.6,0,5,1.1,1.1,2.8,1.1,3.8,0,.5-.5.6-1.1.6-1.7,0,0-.2.1-.3.2-1.2.4-2.2-.8-1.6-1.9.4-.6,1.5-.9,2.1-.3h0c1.1,1.4,1.1,3.3,0,4.5s-4,1.5-5.5,0-1.8-4.8,0-6.6,5.8-2.2,8.1,0c2.7,2.7,2.7,7.2,0,9.9-5.5,5.5-15.1,1.8-14.2-6.9.3-2.9,1.5-5.9,2-8.2v-.4c.6-.4,1.1-.9,1.6-1.5h.2,0ZM212.4,245.2c-.7-1.4-.6-3.2-1.5-4.5h0c1.3.9,3.1.8,4.5,1.5l-3,3h0ZM226.8,227.8c-.7.3-1.5.3-2.2,0-1.4-.4-2.5-2.4-1.9-4.5,0-.2.3-.3.5-.3h.2c.1,0,.2.2.2.3.1.9,1,1.7,2.2,1.8.9,0,1.9-.3,2.8-1.1h.5c-.3.4-.5.9-.8,1.3-.9.6-1.8.8-2.6.7-.9,0-1.7-.4-2.2-1,.2,1,.8,1.7,1.3,1.9.8.2,1.5.1,2.2-.3.3-.2.6-.4.9-.7-.4.6-.8,1.2-1.1,1.8h0ZM191.5,260.3c1.4-.7,2.7-1.5,4-2.3.6-.9.8-1.8.7-2.6,0-.9-.4-1.7-1-2.2,1,.2,1.7.8,1.9,1.3.2.8.1,1.5-.3,2.2-.2.3-.4.6-.7.9.6-.4,1.2-.8,1.8-1.1.3-.7.3-1.5,0-2.2-.4-1.4-2.4-2.5-4.5-1.9-.2,0-.3.3-.3.5s.2.4.4.4c.9.1,1.7,1,1.8,2.2,0,1.5-.9,3.4-3.9,4.7h.1ZM172,268.1c.4-.1.9-.2,1.3-.4.6-1.1,1.1-2.5.9-3.6,1.2.3,3.9.9,6.9,1,.8-.3,1.6-.6,2.4-.9-5,.3-9.7-1.1-9.7-1.1-.2,0-.3,0-.5.1-.1.1-.2.3-.1.5.5,1.4-.3,3.3-1.2,4.5h0ZM164.7,254c-.2-.5-.4-.9-.6-1.4.8,0,1.7.2,2.6.4,5.8,1.6,15.6,11,21.9,6.9.2-.1.4-.3.6-.4,1.7-1.5,2-4.1.7-5.9-1.1-1.5-3.3-1.9-4.8-.8-1.2.8-1.4,2.5-.6,3.7.6.9,1.9,1.1,2.7.5.6-.5.8-1.4.3-2-.2-.3-.1-.7.2-.9s.7-.1.9.2c.9,1.3.6,3-.7,3.9-1.5,1.1-3.6.7-4.6-.8-1.3-1.8-.9-4.3.9-5.5,2.2-1.5,5.2-1,6.7,1.1.8,1.2,1.2,2.6,1,3.9-.5,2.7-2.4,4.3-2.5,4.4h0c-7.1,5.1-17-5.1-23.2-6.8-.5-.1-1-.2-1.5-.3h0v-.2h0ZM164.7,269.8c1.2-.2,2.4-.5,3.7-.8,2-2.3,2.3-5.7.5-8.3-.7-1-1.8-1.7-2.9-2.1,0,.5.1,1,.2,1.5.6.3,1.2.7,1.6,1.4,1.7,2.4,1.1,5.7-1.2,7.4-.6.4-1.2.7-1.8.9h-.1ZM165.4,266.5h0c.6-.5.7-1.3.4-1.9-.1.7-.3,1.3-.4,1.9h0ZM215.3,222.1v1c0,.2-.1.3-.3.4-.2,0-.3,0-.5-.1-.6-.6-1.7-.9-2.8-1l3.5-.3h.1ZM208.6,222.6c-.2,0-.4,0-.5.2h0c0-.1.4-.2.4-.2h.1ZM192.9,237.8c-.6,1.8-.7,5.2.6,6.5s.2.3.1.5c0,.2-.2.3-.4.3,0,0-8.4-.6-12,.9,1.7.1,8.6,1.7,10.3,2.1,2.4.6,5.4,1.8,8.2,2,7.5.8,10.6-7.5,5.9-12.2-2.3-2.3-6-2.3-8.2,0-1.8,1.8-1.8,4.7,0,6.4,1.4,1.4,3.6,1.4,5,0s1.1-2.8,0-3.8c-.5-.5-1.1-.6-1.7-.6,0,0,.1.2.2.3.4,1.2-.8,2.2-1.9,1.6-.6-.4-.9-1.5-.3-2.1h.1c1.3-1.1,3.2-1.1,4.4.1,1.5,1.5,1.5,4,0,5.5s-4.8,1.8-6.6,0-2.2-5.8,0-8.1c2.7-2.7,7.2-2.7,9.9,0,5.5,5.5,1.8,15.1-6.9,14.2-2.9-.3-5.9-1.5-8.2-2-3.7-.9-13.2-2.9-15.6-.6l-.4.4c-1.2,1.5-1.1,3.7.3,5.1s3,1.1,4.2,0c.9-.9.9-2.3,0-3.2s-1.7-.7-2.4,0-.5,1.3,0,1.7c.2.2.2.6,0,.8s-.6.2-.8,0c-.9-.9-.9-2.4,0-3.4,1.1-1.1,2.9-1.1,4,0s1.3,3.5,0,4.8-4.2,1.6-5.8,0-.9-1.1-1.1-1.7c-.9-2.5,0-4.2,1.5-5.5,2.5-1,4.9-2.1,7.3-3.3-.6.4-1.3.8-1.9,1.2,3.4-1.8,10.1-2,11.8-1.6-.7-1.1-.8-3.6-.5-5.3.4-.3.8-.6,1.3-.9h-.4Z"/>
        <path class="cls-8" d="M80.9,144.7c0-1.9-.4-3.9-1.1-5.8v-.3c-1.4-2.8-3.3-5.1-5.6-6.6-2.1-1.4-4.5-2.3-7-2.5s-5,0-7.3,1.1c-.4.2-.8.4-1.2.6,4.7-9.1,10.8-17.3,18-24.5,15.3-15.3,35.5-25.6,58.1-28.4.5-.4,1.1-.9,1.6-1.3-23.5,2.5-44.6,13.1-60.5,28.9-7.7,7.7-14.1,16.6-19,26.4h0c-.2.4-.4.8-.6,1.3h0c-.3.6-.5,1.1-.8,1.6,1.4-1.6,3-2.8,4.8-3.6,2.1-.9,4.4-1.3,6.7-1,2.3.2,4.5,1,6.4,2.3,2.1,1.4,3.9,3.5,5,6.1v.3c1,2.4,1.3,4.8,1,7.2,0,.5,0,.9-.2,1.4.5-1.1.9-2.1,1.5-3.2,0,0,.2,0,.2,0ZM159.5,78.2c22.6,2.8,42.8,13.1,58.1,28.4s3,3.1,4.4,4.7h1.3c-1.6-1.9-3.2-3.7-4.9-5.4-15.8-15.8-36.9-26.4-60.5-28.9.6.4,1.1.8,1.6,1.3h0ZM57,221.6h0c4.9,9.9,11.3,18.8,19,26.5,15.8,15.8,36.9,26.4,60.4,28.9-.6-.4-1.1-.8-1.6-1.3-22.6-2.8-42.8-13.1-58-28.4-7.2-7.2-13.3-15.5-18-24.6.4.2.8.4,1.2.6,2.3,1,4.9,1.4,7.4,1.1,2.5-.2,4.9-1.1,7-2.6,2.2-1.5,4.1-3.7,5.3-6.5v-.3c.7-1.9,1.1-3.9,1.1-5.8-.5-1-1-2.1-1.5-3.2,0,.5.2.9.2,1.4.2,2.4,0,4.8-.9,7.2v.3c-1.2,2.6-3,4.6-5,6-1.9,1.3-4.2,2.1-6.5,2.4-2.3.2-4.6-.1-6.8-1-1.8-.8-3.4-2-4.8-3.6.4,1,.9,1.9,1.4,2.9h.1ZM157.9,277c23.5-2.5,44.6-13.1,60.4-28.9s14.1-16.6,19-26.5h0c.2-.4.4-.9.7-1.3h-.9c-1,.9-2.1,1.5-3.2,2-2.2.9-4.5,1.3-6.8,1-1.9-.2-3.9-.8-5.6-1.8h-1.9c.1.2.2.3.4.4,2.1,1.5,4.5,2.3,7,2.6,2.5.2,5-.1,7.4-1.1.4-.2.8-.4,1.2-.6-4.7,9.1-10.8,17.4-18,24.6-15.3,15.3-35.5,25.6-58,28.4-.5.4-1.1.9-1.6,1.3h0ZM130.5,271.7c.6.1,1.1.7,1,1.4-.1.6-.7,1.1-1.4,1-.6-.1-1.1-.7-1-1.4.1-.6.7-1.1,1.4-1h0ZM126.9,271c.5,0,.8.5.7,1,0,.5-.5.8-1,.7-.5,0-.8-.5-.7-1,0-.5.5-.8,1-.7h0ZM123.7,270.3c.3,0,.6.4.5.7,0,.3-.4.6-.7.5-.3,0-.6-.4-.5-.7,0-.3.4-.6.7-.5h0ZM114.3,267.3c.6.2.9.9.7,1.5-.2.6-.9.9-1.5.7s-.9-.9-.7-1.5c.2-.6.9-.9,1.5-.7h0ZM110.9,266.1c.4.2.7.7.5,1.1s-.7.7-1.1.5-.7-.7-.5-1.1c.2-.5.7-.7,1.1-.5h0ZM107.9,264.8c.3.1.5.5.4.8s-.5.5-.8.4-.5-.5-.4-.8.5-.5.8-.4h0ZM117.7,268.6c.5.2.7.7.5,1.1-.2.5-.7.7-1.1.5s-.7-.7-.5-1.1c.2-.5.7-.7,1.1-.5h0ZM120.9,269.5c.3.1.5.5.4.8s-.5.5-.8.4-.5-.5-.4-.8.5-.5.8-.4h0ZM99.1,260.2c.6.3.8,1.1.4,1.6-.3.6-1.1.8-1.6.4-.6-.3-.8-1.1-.4-1.6.3-.6,1.1-.8,1.6-.4h0ZM96,258.4c.4.2.6.8.3,1.2-.2.4-.8.6-1.2.3-.4-.2-.6-.8-.3-1.2.2-.4.8-.6,1.2-.3h0ZM93.2,256.7c.3.2.4.5.2.8-.2.3-.5.4-.8.2s-.4-.5-.2-.8c.2-.3.5-.4.8-.2h0ZM102.3,262c.4.2.6.8.3,1.2-.2.4-.8.6-1.2.3-.4-.2-.6-.8-.3-1.2.2-.4.8-.6,1.2-.3h0ZM105.2,263.6c.3.2.4.5.2.8-.2.3-.5.4-.8.2s-.4-.5-.2-.8c.2-.3.5-.4.8-.2h0ZM85.4,250.6c.5.4.6,1.2,0,1.7-.4.5-1.2.6-1.7.1-.5-.4-.6-1.2,0-1.7.4-.5,1.2-.6,1.7-.1h0ZM82.6,248.3c.4.3.4.9,0,1.2-.3.4-.9.4-1.2.1-.4-.3-.4-.9,0-1.2.3-.4.9-.4,1.2-.1h0ZM80.2,246.1c.3.2.3.6,0,.9-.2.3-.6.3-.9,0-.3-.2-.3-.6,0-.9.2-.3.6-.3.9,0h0ZM88.2,253c.4.3.4.9,0,1.2-.3.4-.9.4-1.2.1-.4-.3-.4-.9,0-1.2.3-.4.9-.4,1.2-.1h0ZM90.8,255c.3.2.3.6,0,.9-.2.3-.6.3-.9,0-.3-.2-.3-.6,0-.9.2-.3.6-.3.9,0h0ZM73.6,238.8c.4.5.4,1.2,0,1.7-.5.4-1.3.4-1.7-.1-.4-.5-.4-1.2,0-1.7.5-.4,1.2-.4,1.7.1h0ZM71.2,236c.3.4.3.9,0,1.2s-.9.3-1.2-.1c-.3-.4-.3-.9,0-1.2s.9-.3,1.2.1h0ZM69.2,233.4c.2.3.2.6,0,.9-.3.2-.6.2-.9,0-.2-.3-.2-.6,0-.9.3-.2.6-.2.9,0h0ZM75.9,241.6c.3.4.3.9,0,1.2s-.9.3-1.2-.1c-.3-.4-.3-.9,0-1.2s.9-.3,1.2.1h0ZM78.1,244c.2.3.2.6,0,.9-.3.2-.6.2-.9,0-.2-.3-.2-.6,0-.9.3-.2.6-.2.9,0h0ZM62.3,224.6c.6-.3,1.3-.1,1.6.4.3.6,0,1.3-.4,1.6-.6.3-1.3.1-1.6-.4-.3-.6,0-1.3.4-1.6h0ZM64.6,227.9c.4-.2.9,0,1.2.3.2.4,0,.9-.3,1.2-.4.2-.9,0-1.2-.3-.2-.4,0-.9.3-1.2h0ZM66.7,230.7c.3-.2.7,0,.8.2.2.3,0,.7-.2.8-.3.2-.7,0-.8-.2-.2-.3,0-.7.2-.8h0ZM62.3,129.4c-.6-.3-.8-1.1-.4-1.6.3-.6,1.1-.8,1.6-.4.6.3.8,1.1.4,1.6-.3.6-1,.8-1.6.4h0ZM64.6,126.1c-.4-.2-.6-.8-.3-1.2.2-.4.8-.6,1.2-.3.4.2.6.8.3,1.2-.2.4-.8.6-1.2.3h0ZM66.7,123.2c-.3-.2-.4-.5-.2-.8.2-.3.5-.4.8-.2s.4.5.2.8c-.2.3-.5.4-.8.2h0ZM71.9,115.4c-.5-.4-.6-1.2,0-1.7.4-.5,1.2-.6,1.7,0,.5.4.6,1.2,0,1.7-.4.5-1.2.6-1.7,0h0ZM74.7,112.6c-.4-.3-.4-.9,0-1.2.3-.4.9-.4,1.2,0,.4.3.4.9,0,1.2-.3.4-.9.4-1.2,0h0ZM77.3,110.1c-.3-.2-.3-.6,0-.9.2-.3.6-.3.9,0,.3.2.3.6,0,.9-.2.3-.6.3-.9,0h0ZM70,118.1c-.4-.3-.4-.9,0-1.2.3-.4.9-.4,1.2,0,.4.3.4.9,0,1.2-.3.4-.9.4-1.2,0h0ZM68.4,120.7c-.3-.2-.3-.6,0-.9.2-.3.6-.3.9,0,.3.2.3.6,0,.9-.2.3-.6.3-.9,0h0ZM83.7,103.2c-.4-.5-.4-1.2,0-1.7.5-.4,1.3-.4,1.7,0,.4.5.4,1.2,0,1.7-.5.4-1.2.4-1.7,0h0ZM87,100.9c-.3-.4-.3-.9,0-1.2s.9-.3,1.2,0c.3.4.3.9,0,1.2s-.9.3-1.2,0h0ZM89.9,99c-.2-.3-.2-.6,0-.9.3-.2.6-.2.9,0,.2.3.2.6,0,.9-.3.2-.6.2-.9,0h0ZM81.4,105.6c-.3-.4-.3-.9,0-1.2s.9-.3,1.2,0c.3.4.3.9,0,1.2s-.9.3-1.2,0h0ZM79.4,107.9c-.2-.3-.2-.6,0-.9.3-.2.6-.2.9,0,.2.3.2.6,0,.9-.3.2-.6.2-.9,0h0ZM99.1,93.8c-.6.3-1.3,0-1.6-.4-.3-.6,0-1.3.4-1.6.6-.3,1.3,0,1.6.4.3.6,0,1.3-.4,1.6h0ZM102.3,92c-.4.2-.9,0-1.2-.3-.2-.4,0-.9.3-1.2.4-.2.9,0,1.2.3.2.4,0,.9-.3,1.2h0ZM105.2,90.4c-.3.2-.7,0-.8-.2-.2-.3,0-.7.2-.8.3-.2.7,0,.8.2.2.3,0,.7-.2.8h0ZM96,95.6c-.4.2-.9,0-1.2-.3-.2-.4,0-.9.3-1.2.4-.2.9,0,1.2.3.2.4,0,.9-.3,1.2h0ZM93.2,97.3c-.3.2-.7,0-.8-.2-.2-.3,0-.7.2-.8.3-.2.7,0,.8.2.2.3,0,.7-.2.8h0ZM114.3,86.7c-.6.2-1.3,0-1.5-.7-.2-.6,0-1.3.7-1.5.6-.2,1.3,0,1.5.7.2.6,0,1.3-.7,1.5h0ZM117.7,85.4c-.4.2-.9,0-1.1-.5-.2-.4,0-.9.5-1.1s.9,0,1.1.5,0,.9-.5,1.1h0ZM120.9,84.5c-.3,0-.7,0-.8-.4,0-.3,0-.7.4-.8.3,0,.7,0,.8.4,0,.3,0,.7-.4.8h0ZM110.9,87.9c-.5.2-.9,0-1.1-.5s0-1,.5-1.1c.4-.2.9,0,1.1.5.2.4,0,.9-.5,1.1h0ZM107.9,89.2c-.3,0-.7,0-.8-.4,0-.3,0-.7.4-.8.3,0,.7,0,.8.4,0,.3,0,.7-.4.8h0ZM130.5,82.3c-.6,0-1.3-.3-1.4-1-.1-.6.3-1.3,1-1.4.6,0,1.3.3,1.4,1,.1.6-.3,1.3-1,1.4h0ZM126.9,83c-.5,0-.9-.2-1-.7,0-.5.2-.9.7-1,.5,0,.9.2,1,.7,0,.5-.2.9-.7,1h0ZM123.7,83.7c-.3,0-.6-.2-.7-.5,0-.3.2-.6.5-.7.3,0,.6.2.7.5,0,.3-.2.7-.5.7h0ZM163.9,271.7c.6-.1,1.3.3,1.4,1,.1.6-.3,1.3-1,1.4-.6.1-1.3-.3-1.4-1-.1-.6.3-1.3,1-1.4h0ZM167.4,271c.5,0,.9.2,1,.7,0,.5-.2.9-.7,1-.5,0-.9-.2-1-.7,0-.5.2-.9.7-1h0ZM170.7,270.3c.3,0,.6.2.7.5,0,.3-.2.6-.5.7-.3,0-.6-.2-.7-.5,0-.3.2-.6.5-.7h0ZM180.1,267.3c.6-.2,1.3,0,1.5.7.2.6,0,1.3-.7,1.5-.6.2-1.3,0-1.5-.7-.2-.6,0-1.3.7-1.5h0ZM183.5,266.1c.5-.2.9,0,1.1.5.2.5,0,.9-.5,1.1s-.9,0-1.1-.5c-.2-.5,0-.9.5-1.1h0ZM186.5,264.8c.3-.1.7,0,.8.4.1.3,0,.7-.4.8-.3.1-.7,0-.8-.4-.1-.3,0-.7.4-.8h0ZM176.7,268.6c.4-.2.9,0,1.1.5.2.5,0,.9-.5,1.1s-.9,0-1.1-.5c-.2-.5,0-.9.5-1.1h0ZM173.5,269.5c.3-.1.7,0,.8.4.1.3,0,.7-.4.8-.3.1-.7,0-.8-.4-.1-.3,0-.7.4-.8h0ZM195.3,260.2c.6-.3,1.3-.1,1.6.4.3.6.1,1.3-.4,1.6-.6.3-1.3.1-1.6-.4-.3-.6-.1-1.3.4-1.6h0ZM198.4,258.4c.4-.2.9,0,1.2.3.2.4,0,.9-.3,1.2-.4.2-.9,0-1.2-.3-.2-.4,0-.9.3-1.2h0ZM201.2,256.7c.3-.2.7,0,.8.2.2.3,0,.7-.2.8-.3.2-.7,0-.8-.2-.2-.3,0-.7.2-.8h0ZM192.1,262c.4-.2.9,0,1.2.3.2.4,0,.9-.3,1.2-.4.2-.9,0-1.2-.3-.2-.4,0-.9.3-1.2h0ZM189.2,263.6c.3-.2.7,0,.8.2.2.3,0,.7-.2.8-.3.2-.7,0-.8-.2-.2-.3,0-.7.2-.8h0ZM209,250.6c.5-.4,1.3-.4,1.7.1s.4,1.2-.1,1.7c-.5.4-1.2.4-1.7-.1-.4-.5-.4-1.2.1-1.7h0ZM211.7,248.3c.4-.3.9-.3,1.2.1.3.4.3.9-.1,1.2-.4.3-.9.3-1.2-.1-.3-.4-.3-.9.1-1.2h0ZM214.2,246.1c.3-.2.6-.2.9,0,.2.3.2.6,0,.9-.3.2-.6.2-.9,0-.2-.3-.2-.6,0-.9h0ZM206.2,253c.4-.3.9-.3,1.2.1.3.4.3.9-.1,1.2-.4.3-.9.3-1.2-.1-.3-.4-.3-.9.1-1.2h0ZM203.6,255c.3-.2.6-.2.9,0,.2.3.2.6,0,.9-.3.2-.6.2-.9,0-.2-.3-.2-.6,0-.9h0ZM220.8,238.8c.4-.5,1.2-.6,1.7-.1.5.4.6,1.2.1,1.7-.4.5-1.2.6-1.7.1-.5-.4-.6-1.2-.1-1.7h0ZM223.1,236c.3-.4.9-.4,1.2-.1.4.3.4.9.1,1.2-.3.4-.9.4-1.2.1-.4-.3-.4-.9-.1-1.2h0ZM225.2,233.4c.2-.3.6-.3.9,0,.3.2.3.6,0,.9-.2.3-.6.3-.9,0-.3-.2-.3-.6,0-.9h0ZM218.5,241.6c.3-.4.9-.4,1.2-.1.4.3.4.9.1,1.2-.3.4-.9.4-1.2.1-.4-.3-.4-.9-.1-1.2h0ZM216.3,244c.2-.3.6-.3.9,0,.3.2.3.6,0,.9-.2.3-.6.3-.9,0-.3-.2-.3-.6,0-.9h0ZM232.1,224.6c.6.3.8,1.1.4,1.6-.3.6-1.1.8-1.6.4-.6-.3-.8-1.1-.4-1.6.3-.6,1.1-.8,1.6-.4h0ZM229.8,227.9c.4.2.6.8.3,1.2-.2.4-.8.6-1.2.3-.4-.2-.6-.8-.3-1.2.2-.4.8-.6,1.2-.3h0ZM227.7,230.7c.3.2.4.5.2.8s-.5.4-.8.2-.4-.5-.2-.8.5-.4.8-.2h0ZM219.9,111.5h-1.6s.1,0,.3-.2c.4-.3.9-.3,1.2,0h.1v.2ZM217.1,110.1c-.3.2-.6.2-.9,0-.2-.3-.2-.6,0-.9.3-.2.6-.2.9,0,.2.3.2.6,0,.9h0ZM210.6,103.2c-.4.5-1.2.6-1.7,0-.5-.4-.6-1.2-.1-1.7.4-.5,1.2-.6,1.7,0,.5.4.6,1.2.1,1.7h0ZM207.4,100.9c-.3.4-.9.4-1.2,0-.4-.3-.4-.9-.1-1.2.3-.4.9-.4,1.2,0,.4.3.4.9.1,1.2h0ZM204.4,99c-.2.3-.6.3-.9,0-.3-.2-.3-.6,0-.9.2-.3.6-.3.9,0,.3.2.3.6,0,.9h0ZM213,105.6c-.3.4-.9.4-1.2,0-.4-.3-.4-.9-.1-1.2.3-.4.9-.4,1.2,0,.4.3.4.9.1,1.2h0ZM215,107.9c-.2.3-.6.3-.9,0-.3-.2-.3-.6,0-.9.2-.3.6-.3.9,0,.3.2.3.6,0,.9h0ZM195.3,93.8c-.6-.3-.8-1.1-.4-1.6.3-.6,1.1-.8,1.6-.4.6.3.8,1.1.4,1.6-.3.6-1.1.8-1.6.4h0ZM192.1,92c-.4-.2-.6-.8-.3-1.2.2-.4.8-.6,1.2-.3.4.2.6.8.3,1.2-.2.4-.8.6-1.2.3h0ZM189.2,90.4c-.3-.2-.4-.5-.2-.8s.5-.4.8-.2c.3.2.4.5.2.8s-.5.4-.8.2h0ZM198.4,95.6c-.4-.2-.6-.8-.3-1.2.2-.4.8-.6,1.2-.3.4.2.6.8.3,1.2-.2.4-.8.6-1.2.3h0ZM201.2,97.3c-.3-.2-.4-.5-.2-.8s.5-.4.8-.2.4.5.2.8-.5.4-.8.2h0ZM180.1,86.7c-.6-.2-.9-.9-.7-1.5s.9-.9,1.5-.7c.6.2.9.9.7,1.5s-.9.9-1.5.7h0ZM176.7,85.4c-.5-.2-.7-.7-.5-1.1.2-.5.7-.7,1.1-.5.4.2.7.7.5,1.1-.2.5-.7.7-1.1.5h0ZM173.5,84.5c-.3,0-.5-.5-.4-.8s.5-.5.8-.4.5.5.4.8-.5.5-.8.4h0ZM183.5,87.9c-.5-.2-.7-.7-.5-1.1.2-.5.7-.7,1.1-.5.5.2.7.7.5,1.1s-.7.7-1.1.5h0ZM186.5,89.2c-.3,0-.5-.5-.4-.8s.5-.5.8-.4.5.5.4.8-.5.5-.8.4h0ZM163.9,82.3c-.6,0-1.1-.7-1-1.4.1-.6.7-1.1,1.4-1,.6,0,1.1.7,1,1.4-.1.6-.7,1.1-1.4,1h0ZM167.4,83c-.5,0-.8-.5-.7-1,0-.5.5-.8,1-.7.5,0,.8.5.7,1,0,.5-.5.8-1,.7h0ZM170.7,83.7c-.3,0-.6-.4-.5-.7,0-.3.4-.6.7-.5.3,0,.6.4.5.7,0,.3-.4.6-.7.5Z"/>
        <path class="cls-8" d="M130,269.4c-10.7-2-20.8-5.8-29.8-11-14.1-8.2-25.9-19.9-34.2-34,2.7,0,5.5-.8,7.8-2.3,2.4-1.5,4.4-3.8,5.7-6.7v-.3c0-.4.3-.8.4-1.2v-.2c6.6,11.9,16.2,21.9,27.8,28.9,7,4.2,14.8,7.4,23,9.1.1-.2.3-.5.4-.7-8.3-1.8-16-4.9-23.1-9.1-11.8-7.1-21.5-17.3-27.9-29.5h-.7c0,.5-.2.9-.3,1.2,0,.4-.2.7-.4,1.1v.3c-1.3,2.8-3.2,4.9-5.5,6.4-2.4,1.5-5.2,2.3-8.1,2.2h-.7l.4.6c8.3,14.5,20.4,26.5,34.8,34.9,9.3,5.4,19.7,9.3,30.7,11.2-.2-.3-.3-.6-.4-.9h.1ZM163.5,251.8c8.3-1.8,16-4.9,23-9.1,8.6-5.2,16.1-12,22.1-20h-1c-5.8,7.8-13.1,14.4-21.5,19.4-7,4.2-14.8,7.3-23.1,9.1.2.2.3.5.4.7h.1ZM163.9,270.3c.2-.3.3-.6.4-.9,10.7-2,20.8-5.8,29.8-11,14.1-8.2,25.9-19.9,34.2-34-2.7,0-5.5-.8-7.8-2.3-.2-.1-.4-.3-.6-.4h1.3c2.4,1.4,5.1,2,7.8,1.9h.7l-.4.6c-8.3,14.5-20.4,26.5-34.8,34.9-9.3,5.4-19.7,9.3-30.7,11.2h.1ZM163.5,102.2c8.3,1.8,16,4.9,23,9.1,1.4.8,2.8,1.7,4.1,2.7h-1.2c-1.1-.6-2.2-1.3-3.3-2-7-4.2-14.8-7.3-23.1-9.1.2-.2.3-.5.4-.7h.1ZM131.3,102.9c-8.3,1.8-16,4.9-23.1,9.1-11.8,7.1-21.5,17.3-27.9,29.5h-.7c0-.5-.2-.9-.3-1.2,0-.4-.2-.7-.4-1.1v-.3c-1.3-2.8-3.2-4.9-5.5-6.4-2.4-1.5-5.2-2.3-8.1-2.2h-.7l.4-.6c8.3-14.5,20.4-26.5,34.8-34.9,9.3-5.4,19.7-9.3,30.7-11.2-.2.3-.3.6-.4.9-10.7,2-20.7,5.8-29.8,11-14.1,8.2-25.9,19.9-34.2,34,2.7,0,5.4.8,7.8,2.3s4.4,3.8,5.7,6.7v.3c0,.4.3.8.4,1.2v.2c6.6-11.9,16.2-21.9,27.8-28.9,7-4.2,14.8-7.4,23-9.1.1.2.3.5.4.7h.1ZM163.9,83.7c.2.3.3.6.4.9,10.7,2,20.7,5.8,29.8,11,7.7,4.4,14.7,10,20.8,16.3h1c-6.3-6.7-13.5-12.4-21.4-17-9.3-5.4-19.7-9.3-30.7-11.2h0Z"/>
        <path class="cls-8" d="M159.4,246.4c-.2,0-.3,0-.4.2.4.4.9.7,1.3,1.1.1-.2.2-.4.1-.6,0-.5-.5-.8-1-.7h0ZM162,245.9c-.3,0-.6.4-.5.7,0,.3.4.6.7.5.3,0,.6-.4.5-.7,0-.3-.4-.6-.7-.5h0ZM164.4,245.4c-.2,0-.4.3-.4.5s.3.4.5.4.4-.3.4-.5-.3-.4-.5-.4h0ZM171.3,243.2c-.4.2-.7.7-.5,1.1.2.5.7.7,1.1.5.5-.2.7-.7.5-1.1-.2-.5-.7-.7-1.1-.5h0ZM173.8,242.3c-.3.1-.5.5-.4.8s.5.5.8.4.5-.5.4-.8-.5-.5-.8-.4h0ZM176,241.4c-.2,0-.4.3-.3.6,0,.2.3.4.6.3.2,0,.4-.3.3-.6,0-.2-.3-.4-.6-.3h0ZM168.8,244.1c-.3.1-.5.5-.4.8s.5.5.8.4.5-.5.4-.8-.5-.5-.8-.4h0ZM166.5,244.8c-.2,0-.3.3-.3.6s.3.4.6.3c.2,0,.3-.3.3-.6s-.3-.4-.6-.3h0ZM182.4,238c-.4.2-.6.8-.3,1.2.2.4.8.6,1.2.3.4-.2.6-.8.3-1.2-.2-.4-.8-.6-1.2-.3h0ZM184.7,236.7c-.3.2-.4.6-.2.9.2.3.6.4.9.2.3-.2.4-.6.2-.9-.2-.3-.6-.4-.9-.2h0ZM186.8,235.4c-.2.1-.3.4-.2.6.1.2.4.3.6.2.2-.1.3-.4.2-.6-.1-.2-.4-.3-.6-.2h0ZM180.1,239.3c-.3.2-.4.6-.2.9.2.3.6.4.9.2.3-.2.4-.6.2-.9-.2-.3-.6-.4-.9-.2h0ZM178,240.5c-.2.1-.3.4-.2.6.1.2.4.3.6.2.2-.1.3-.4.2-.6-.1-.2-.4-.3-.6-.2h0ZM192.5,231c-.4.3-.4.9-.1,1.2.3.4.9.4,1.2.1.4-.3.4-.9.1-1.2-.3-.4-.9-.4-1.2-.1h0ZM194.5,229.3c-.3.2-.3.6,0,.9.2.3.6.3.9,0,.3-.2.3-.6,0-.9-.2-.3-.6-.3-.9,0h0ZM196.3,227.6c-.2.2-.2.4,0,.6.2.2.4.2.6,0,.2-.2.2-.4,0-.6-.2-.2-.4-.2-.6,0h0ZM190.5,232.7c-.3.2-.3.6,0,.9.2.3.6.3.9,0,.3-.2.3-.6,0-.9-.2-.3-.6-.3-.9,0h0ZM188.5,234.2c-.2.2-.2.4,0,.6.2.2.4.2.6,0,.2-.2.2-.4,0-.6-.2-.2-.4-.2-.6,0h0ZM201,223.2c0,.1.1.3.3.4.4.3.9.3,1.2-.1,0-.1.2-.2.2-.4h-1.7ZM199.5,224.3c-.2.3-.2.7,0,.9.3.2.7.2.9,0,.2-.3.2-.7,0-.9-.3-.2-.7-.2-.9,0h0ZM197.8,226.1c-.2.2-.1.5,0,.6.2.2.5.1.6,0,.2-.2.1-.5,0-.6-.2-.2-.5-.1-.6,0h0ZM183.5,114.7s-.1-.2-.2-.2c-.4-.2-.9,0-1.2.3h1.4ZM180.1,114.7c.3.2.7,0,.9-.2.2-.3,0-.7-.2-.9-.3-.2-.7,0-.9.2-.2.3,0,.7.2.9h0ZM178,113.5c.2,0,.5,0,.6-.2s0-.5-.2-.6-.5,0-.6.2,0,.5.2.6h0ZM171.3,110.8c.4.2.9,0,1.1-.5.2-.5,0-1-.5-1.1-.5-.2-1,0-1.1.5-.2.5,0,.9.5,1.1h0ZM168.8,109.9c.3,0,.7,0,.8-.4.1-.3,0-.7-.4-.8-.3,0-.7,0-.8.4-.1.3,0,.7.4.8h0ZM166.5,109.2c.2,0,.5,0,.6-.3,0-.2,0-.5-.3-.6-.2,0-.5,0-.6.3,0,.2,0,.5.3.6h0ZM173.8,111.7c.3,0,.7,0,.8-.4.1-.3,0-.7-.4-.8-.3,0-.7,0-.8.4-.1.3,0,.7.4.8h0ZM176,112.6c.2,0,.5,0,.6-.3,0-.2,0-.5-.3-.6-.2,0-.5,0-.6.3,0,.2,0,.5.3.6h0ZM159.4,107.6c.5,0,.9-.2,1-.7,0-.2,0-.4-.1-.6-.4.4-.8.8-1.3,1.1.1,0,.2.2.4.2h0ZM162,108.1c.3,0,.7-.2.7-.5s-.2-.7-.5-.7-.7.2-.7.5.2.7.5.7h0ZM164.4,108.6c.2,0,.5,0,.5-.4s-.1-.5-.4-.5-.5,0-.5.4.1.5.4.5h0ZM205,222.9c-1.8,2.2-3.6,4.3-5.6,6.3-10.1,10.1-23,17.2-37.5,20.2-.2-.2-.4-.5-.6-.7,14.5-2.8,27.5-10,37.6-20,1.8-1.8,3.5-3.7,5.1-5.7h1.1-.1ZM132.6,249.3c-14.5-2.9-27.5-10.1-37.5-20.2-13.3-13.3-21.6-31.8-21.6-52.1s8.3-38.8,21.6-52.1,23-17.2,37.5-20.2c.2.2.4.5.6.7-14.5,2.8-27.5,10-37.6,20-13.2,13.2-21.4,31.4-21.4,51.6s8.2,38.4,21.4,51.6c10.1,10.1,23,17.2,37.6,20-.2.2-.4.4-.6.7h0ZM161.8,104.7c8.8,1.8,17.1,5.1,24.5,9.7h-1.3c-7.2-4.2-15.2-7.4-23.8-9.1.2-.2.4-.4.6-.7h0ZM77.9,177c0,19.1,7.8,36.5,20.3,49,10.2,10.2,23.6,17.3,38.6,19.5.5-.3,1.1-.7,1.6-1-15.3-2-29-9-39.4-19.4-12.3-12.3-20-29.4-20-48.2s7.6-35.9,20-48.2c10.4-10.4,24.1-17.4,39.4-19.4-.6-.3-1.1-.6-1.6-1-15,2.3-28.4,9.3-38.6,19.5-12.5,12.5-20.3,29.9-20.3,49h0v.2h0ZM157.6,245.6c-.5-.3-1.1-.7-1.6-1,15.3-2,29-9,39.4-19.4s1.1-1.2,1.7-1.7h1.7l-2.6,2.6c-10.2,10.2-23.6,17.3-38.6,19.5h0ZM156,109.4c.6-.3,1.1-.6,1.6-1,7.4,1.1,14.4,3.4,20.9,6.7l-2.3.2c-6.3-3-13.1-5-20.3-5.9,0,0,.1,0,.1,0ZM135,246.4c.2,0,.3,0,.4.2-.4.4-.9.7-1.3,1.1-.1-.2-.2-.4-.1-.6,0-.5.5-.8,1-.7h0ZM132.3,245.9c-.3,0-.7.2-.7.5s.2.7.5.7.7-.2.7-.5-.2-.7-.5-.7h0ZM130,245.4c-.2,0-.5.1-.5.4s.1.5.4.5.5-.1.5-.4-.1-.5-.4-.5h0ZM123.1,243.2c-.5-.2-1,0-1.1.5-.2.5,0,1,.5,1.1.5.2.9,0,1.1-.5s0-1-.5-1.1h0ZM120.6,242.3c-.3-.1-.7,0-.8.4,0,.3,0,.7.4.8.3.1.7,0,.8-.4,0-.3,0-.7-.4-.8h0ZM118.4,241.4c-.2,0-.5,0-.6.3,0,.2,0,.5.3.6.2,0,.5,0,.6-.3,0-.2,0-.5-.3-.6h0ZM125.6,244.1c-.3-.1-.7,0-.8.4,0,.3,0,.7.4.8.3.1.7,0,.8-.4,0-.3,0-.7-.4-.8h0ZM127.9,244.8c-.2,0-.5,0-.6.3,0,.2,0,.5.3.6.2,0,.5,0,.6-.3,0-.2,0-.5-.3-.6h0ZM112,238c-.4-.2-.9,0-1.2.3-.2.4,0,.9.3,1.2.4.2.9,0,1.2-.3.2-.4,0-.9-.3-1.2h0ZM109.7,236.7c-.3-.2-.7,0-.9.2-.2.3,0,.7.2.9.3.2.7,0,.9-.2.2-.3,0-.7-.2-.9h0ZM107.6,235.4c-.2-.1-.5,0-.6.2s0,.5.2.6.5,0,.6-.2,0-.5-.2-.6h0ZM114.3,239.3c-.3-.2-.7,0-.9.2-.2.3,0,.7.2.9.3.2.7,0,.9-.2.2-.3,0-.7-.2-.9h0ZM116.4,240.5c-.2-.1-.5,0-.6.2s0,.5.2.6.5,0,.6-.2,0-.5-.2-.6h0ZM101.9,231c-.4-.3-.9-.3-1.2.1-.3.4-.3.9,0,1.2s.9.3,1.2-.1c.3-.4.3-.9,0-1.2h0ZM99.9,229.3c-.3-.2-.7-.2-.9,0-.2.3-.2.7,0,.9.3.2.7.2.9,0,.2-.3.2-.7,0-.9h0ZM98.1,227.6c-.2-.2-.5-.1-.6,0-.2.2,0,.5,0,.6.2.2.5.1.6,0,.2-.2,0-.5,0-.6h0ZM103.9,232.7c-.3-.2-.7-.2-.9,0-.2.3-.2.7,0,.9.3.2.7.2.9,0,.2-.3.2-.7,0-.9h0ZM105.9,234.2c-.2-.2-.5-.1-.6,0-.2.2,0,.5,0,.6.2.2.5.1.6,0,.2-.2,0-.5,0-.6h0ZM93.2,222.3c-.3-.4-.9-.4-1.2-.1-.4.3-.4.9,0,1.2.3.4.9.4,1.2.1.4-.3.4-.9,0-1.2h0ZM91.5,220.3c-.2-.3-.6-.3-.9,0-.3.2-.3.6,0,.9.2.3.6.3.9,0,.3-.2.3-.6,0-.9h0ZM90,218.3c-.2-.2-.4-.2-.6,0s-.2.4,0,.6c.2.2.4.2.6,0s.2-.4,0-.6h0ZM94.9,224.3c-.2-.3-.6-.3-.9,0-.3.2-.3.6,0,.9.2.3.6.3.9,0,.3-.2.3-.6,0-.9h0ZM96.6,226.1c-.2-.2-.4-.2-.6,0s-.2.4,0,.6c.2.2.4.2.6,0s.2-.4,0-.6h0ZM85,211.9c-.4.2-.6.8-.3,1.2.2.4.8.6,1.2.3.4-.2.6-.8.3-1.2-.2-.4-.8-.6-1.2-.3h0ZM84,209.7c-.3.2-.4.6-.2.9.2.3.6.4.9.2s.4-.6.2-.9c-.2-.3-.6-.4-.9-.2h0ZM83.1,207.6c-.2.1-.3.4-.2.6s.4.3.6.2.3-.4.2-.6-.4-.3-.6-.2h0ZM86.6,214.3c-.3.2-.4.6-.2.9.2.3.6.4.9.2s.4-.6.2-.9c-.2-.3-.6-.4-.9-.2h0ZM88.2,216.4c-.2.1-.3.4-.2.6s.4.3.6.2.3-.4.2-.6-.4-.3-.6-.2h0ZM79.9,200.6c-.5.2-.7.7-.5,1.1.2.5.7.7,1.1.5.5-.2.7-.7.5-1.1-.2-.5-.7-.7-1.1-.5h0ZM79.3,198.2c-.3.1-.5.5-.4.8s.5.5.8.4.5-.5.4-.8-.5-.5-.8-.4h0ZM78.8,196c-.2,0-.4.3-.3.6,0,.2.3.4.6.3.2,0,.4-.3.3-.6,0-.2-.3-.4-.6-.3h0ZM81.1,203.2c-.3.1-.5.5-.4.8s.5.5.8.4.5-.5.4-.8-.5-.5-.8-.4h0ZM82.2,205.6c-.2,0-.4.3-.3.6,0,.2.3.4.6.3.2,0,.4-.3.3-.6,0-.2-.3-.4-.6-.3h0ZM76.8,188.5c-.5,0-.8.5-.7,1,0,.5.5.8,1,.7.5,0,.8-.5.7-1,0-.5-.5-.8-1-.7h0ZM76.8,187.4c.3,0,.6-.4.5-.7,0-.3-.4-.6-.7-.5-.3,0-.6.4-.5.7,0,.3.4.6.7.5h0ZM76.5,183.9c-.2,0-.4.3-.4.5s.3.4.5.4.4-.3.4-.5-.3-.4-.5-.4h0ZM77.5,191.3c-.3,0-.6.4-.5.7,0,.3.4.6.7.5.3,0,.6-.4.5-.7,0-.3-.4-.6-.7-.5h0ZM78.3,193.8c-.2,0-.4.3-.4.5s.3.4.5.4.4-.3.4-.5-.3-.4-.5-.4h0ZM75.9,176.1c-.5,0-.9.4-.9.9s.4.9.9.9.9-.4.9-.9-.4-.9-.9-.9h0ZM76.7,174.3c0-.4-.3-.6-.6-.6s-.6.3-.6.6.3.6.6.6.6-.3.6-.6h0ZM76.4,171.5c-.2,0-.4.2-.4.4s.2.4.4.4.4-.2.4-.4-.2-.4-.4-.4h0ZM76.1,179c-.4,0-.6.3-.6.6s.3.6.6.6.6-.3.6-.6-.3-.6-.6-.6h0ZM76.4,181.6c-.2,0-.4.2-.4.4s.2.4.4.4.4-.2.4-.4-.2-.4-.4-.4h0ZM77.8,164.8c0-.5-.2-.9-.7-1-.5,0-.9.2-1,.7,0,.5.2.9.7,1,.5,0,.9-.2,1-.7h0ZM78.3,162.2c0-.3-.2-.7-.5-.7s-.7.2-.7.5.2.7.5.7.7-.2.7-.5h0ZM78.8,159.8c0-.2,0-.5-.4-.5s-.5,0-.5.4,0,.5.4.5.5,0,.5-.4h0ZM76.6,167.9c.3,0,.7-.2.7-.5s-.2-.7-.5-.7-.7.2-.7.5.2.7.5.7h0ZM76.2,169.6c0,.2,0,.5.4.5s.5,0,.5-.4,0-.5-.4-.5-.5,0-.5.4h0ZM81,152.9c.2-.5,0-1-.5-1.1-.5-.2-1,0-1.1.5-.2.4,0,.9.5,1.1s1,0,1.1-.5h0ZM81.1,150.8c.3,0,.7,0,.8-.4,0-.3,0-.7-.4-.8-.3,0-.7,0-.8.4,0,.3,0,.7.4.8h0ZM82.2,148.4c.2,0,.5,0,.6-.3,0-.2,0-.5-.3-.6-.2,0-.5,0-.6.3,0,.2,0,.5.3.6h0ZM79.7,154.6c-.3,0-.7,0-.8.4,0,.3,0,.7.4.8.3,0,.7,0,.8-.4,0-.3,0-.7-.4-.8h0ZM79.1,157.1c-.2,0-.5,0-.6.3,0,.2,0,.5.3.6.2,0,.5,0,.6-.3,0-.2,0-.5-.3-.6h0ZM85,142.1c.4.2.9,0,1.2-.3.2-.4,0-.9-.3-1.2-.4-.2-.9,0-1.2.3-.2.4,0,.9.3,1.2h0ZM86.6,139.7c.3.2.7,0,.9-.2.2-.3,0-.7-.2-.9-.3-.2-.7,0-.9.2-.2.3,0,.7.2.9h0ZM88.2,137.6c.2,0,.5,0,.6-.2s0-.5-.2-.6-.5,0-.6.2,0,.5.2.6h0ZM84.9,144.1c.2-.3,0-.7-.2-.9-.3-.2-.7,0-.9.2-.2.3,0,.7.2.9.3.2.7,0,.9-.2h0ZM83.7,146.2c0-.2,0-.5-.2-.6s-.5,0-.6.2,0,.5.2.6.5,0,.6-.2h0ZM92,131.8c.4.3.9.3,1.2,0,.3-.4.3-.9,0-1.2-.4-.3-.9-.3-1.2,0-.3.4-.3.9,0,1.2h0ZM94,129.8c.3.2.7.2.9,0,.2-.3.2-.7,0-.9-.3-.2-.7-.2-.9,0-.2.3-.2.7,0,.9h0ZM95.9,127.9c.2.2.5,0,.6,0,.2-.2,0-.5,0-.6-.2-.2-.5,0-.6,0-.2.2,0,.5,0,.6h0ZM90.6,133.8c.3.2.7.2.9,0,.2-.3.2-.7,0-.9-.3-.2-.7-.2-.9,0-.2.3-.2.7,0,.9h0ZM89.4,135.7c.2.2.5,0,.6,0s0-.5,0-.6c-.2-.2-.5,0-.6,0-.2.2,0,.5,0,.6h0ZM100.7,122.9c.3.4.9.4,1.2,0,.4-.3.4-.9,0-1.2-.3-.4-.9-.4-1.2,0-.4.3-.4.9,0,1.2h0ZM103,121.2c.2.3.6.3.9,0,.3-.2.3-.6,0-.9-.2-.3-.6-.3-.9,0-.3.2-.3.6,0,.9h0ZM105.2,119.8c.2.2.4.2.6,0s.2-.4,0-.6-.4-.2-.6,0-.2.4,0,.6h0ZM99,124.6c.2.3.6.3.9,0,.3-.2.3-.6,0-.9-.2-.3-.6-.3-.9,0-.3.2-.3.6,0,.9h0ZM97.5,126.3c.2.2.4.2.6,0s.2-.4,0-.6-.4-.2-.6,0-.2.4,0,.6h0ZM112,116c.4-.2.6-.8.3-1.2-.2-.4-.8-.6-1.2-.3-.4.2-.6.8-.3,1.2.2.4.8.6,1.2.3h0ZM114.3,114.7c.3-.2.4-.6.2-.9-.2-.3-.6-.4-.9-.2s-.4.6-.2.9c.2.3.6.4.9.2h0ZM116.4,113.5c.2,0,.3-.4.2-.6,0-.2-.4-.3-.6-.2s-.3.4-.2.6c0,.2.4.3.6.2h0ZM109.7,117.3c.3-.2.4-.6.2-.9-.2-.3-.6-.4-.9-.2s-.4.6-.2.9c.2.3.6.4.9.2h0ZM107.6,118.6c.2,0,.3-.4.2-.6,0-.2-.4-.3-.6-.2s-.3.4-.2.6c0,.2.4.3.6.2h0ZM123.1,110.8c.5-.2.7-.7.5-1.1-.2-.5-.7-.7-1.1-.5s-.7.7-.5,1.1c.2.5.7.7,1.1.5h0ZM125.6,109.9c.3,0,.5-.5.4-.8s-.5-.5-.8-.4-.5.5-.4.8.5.5.8.4h0ZM127.9,109.2c.2,0,.3-.3.3-.6s-.3-.4-.6-.3c-.2,0-.4.3-.3.6,0,.2.3.4.6.3h0ZM120.6,111.7c.3,0,.5-.5.4-.8s-.5-.5-.8-.4-.5.5-.4.8.5.5.8.4h0ZM118.4,112.6c.2,0,.4-.3.3-.6,0-.2-.3-.4-.6-.3-.2,0-.4.3-.3.6,0,.2.3.4.6.3h0ZM135,107.6c-.5,0-.9-.2-1-.7,0-.2,0-.4.1-.6.4.4.8.8,1.3,1.1-.1,0-.2.2-.4.2h0ZM132.4,108.1c.3,0,.6-.4.5-.7,0-.3-.4-.6-.7-.5-.3,0-.6.4-.5.7,0,.3.4.6.7.5h0ZM130,108.6c.2,0,.4-.3.4-.5s-.3-.4-.5-.4-.4.3-.4.5.3.4.5.4Z"/>
      </g>
      <g>
        <path class="cls-8" d="M49.1,177c0,.2-.2.4-.4.4-7,0-8.4,3.7-8.7,4.8-1.2-1.2-.5-3.3.4-4.4l.3-.3c-.3.2-2.6,1.6-2.7,1.8s-.3.2-.5.2c-1.5-.6-9.8-2.3-9.8-2.4s8.3-1.9,9.8-2.4c.2,0,.4,0,.5.2,0,0,2.4,1.5,2.7,1.8l-.3-.3c-.9-1.1-1.6-3.2-.4-4.4.2,1.1,1.7,4.8,8.7,4.8s.4.2.4.4v-.2h0Z"/>
        <g>
          <path class="cls-8" d="M68,198.1c-.6,0-1.5-.4-1.6-1.1-.4-1.6,2.3-1.4,2.8-2.7-1.1.2-1-.5-1-.5,0-.7.8-.8.8-.8,5.4-2.1,4.5-10.6-1-12.7,6.4,2.8,3.6,13.1,0,10.9-1.5-.9-.4-1.8-.4-1.8,4.3-2.7,2.4-5.9,1.4-7.2-.3-.4-.7-.7-1.2-.9-3.8-1.9-5.6,3.9-1.8,4,.7,0,1.2-.7.9-1.4-.2-.4-.5-.6-.9-.5.4,0,.7,0,.9.5.2.6-.3,1.1-.9,1.2-1.4-.2-1.4-2.4,0-2.5.9,0,1.4.4,1.7.8.4.7.4,1.5-.2,2.1-.9,1-2.5.4-2.5.4-2.1-.9-2.5-2.3-2.5-3.4s.4-1.8,1-2.5c.4-.5.9-.9,1.4-1.1-2.7-.2-5.9.3-9.4,2.1,0,0-7.9,5.3-2.6,11.5,0,0,.7.5.5,1.2,0,.4-.5.5-.9.5-1.7-.5-2.6-1.9-2.7-3.9-.5-6.7,6.2-11.8,12.5-12.3-3,.2-5.3.8-7.8,2.6-.6.4-1.3.9-1.8,1.5-2,1.9-4,5.5-3.8,8.6,0,1.6,1.1,3.8,2.6,4.2,2.9.9,2.7,3.5,0,2.7,0,0,2.2,2.4,6.2,1.3,1.8-.5,3.8-3.6,2.4-5.5-.6-.8-1.7-1-2.6-.5-.9.5-1,2.3,0,2.5-1-.2-1.1-1.9,0-2.4.8-.4,1.8-.2,2.3.5.9,1.5,0,3.5-1.9,3.7-1.6.1-3.1-1-3.3-2.6,0-.6,0-1.2.4-1.9.5-.8,1.2-1.4,2.1-1.8,1.4-.5,3.8-.8,5.7,1.9,0,0,1.5,1.5.5,5.7,0,0,3.7.2,1.9,3.7-.2-1.5-1.2-.9-2.4-.3-10.3,3.1-17.5-6.7-15-15.2,1.1-3.1,3.6-7.4,9.6-9.4,20.1-4.8,21.7,20.8,10.6,20.5v.3h0Z"/>
          <path class="cls-8" d="M52.2,178.5c-3.7.5-6.5,2.7-7.6,4.3.8-2.9,4.3-4.3,5.7-4.6h0c-4.6,0-7.1,1.6-8.2,3-1.5,2,.7,3.7,1.6,3.7-.7,3.9.8,6.7,2.3,7.5-1.1-3.9,1-11.3,6.2-13.7h0v-.2Z"/>
          <path class="cls-8" d="M66.5,200.2c2.6,1,5.4,3.1,7.3,7.4,0,0,2.4,7.4-3.9,8.5,0,0-.7,0-.9.5,0,.3,0,.6.3.7h.2c.2.1.6.2.9.2s.8,0,1.2-.2c.2,0,.4-.2.6-.4s.4-.3.6-.5c.4-.4.7-.9,1-1.4s.5-1.1.7-1.7c0-.3.2-.6.2-.9v-2.9c0-.6-.2-1.2-.3-1.8-.2-.6-.3-1.1-.6-1.6-.2-.5-.5-1-.7-1.4,0-.1,0-.2-.2-.3,0,0,0-.2-.2-.3,0-.2-.2-.4-.4-.5,0-.2-.2-.3-.4-.4,0-.1-.2-.2-.3-.3-.2-.2-.4-.4-.5-.5s-.2-.2-.2-.2l.2.2c0,.1.3.2.5.5,0,.1.2.2.3.3,0,.1.2.3.4.4,0,.1.3.3.4.5,0,0,0,.2.2.3,0,0,0,.2.2.3.3.4.5.9.8,1.4.2.5.4,1.1.6,1.6.2.6.3,1.2.4,1.8v2.9c0,.3,0,.6-.2.9-.2.6-.4,1.2-.7,1.7-.3.5-.6,1-1,1.5-.2.2-.4.4-.6.6-.2.2-.4.3-.7.4-.5.2-.9.3-1.4.3s-.8-.1-1-.2c-2.2-.9-3.4,1.1-1.5,2,0,0-2.5.4-4.4-2.3-.8-1.2-.5-4.1,1.3-4.6.7-.2,1.5.3,1.8,1,.3.8-.6,1.9-1.4,1.5.7.4,1.6-.6,1.3-1.4-.3-.6-1-1-1.7-.8-1.3.4-1.7,2.2-.7,3.2.9.9,2.4.9,3.3,0,.3-.3.6-.7.7-1.3,0-.7,0-1.5-.4-2.1-.6-1-1.9-2.4-4.4-1.7,0,0-1.6.1-3.2,3.2,0,0-2.4-1.8-3,1.3.9-.8,1.2,0,1.6,1,4.7,7,14,4.7,16.8-1.7.9-2.4,1.5-6.3-1.1-10.6,0,0-3.3-4.9-8.8-5.9.6.5.9,1.1.9,1.7h0,0Z"/>
          <path class="cls-8" d="M68,155.9c-.6,0-1.5.4-1.6,1.1-.4,1.6,2.3,1.4,2.8,2.7-1.1-.2-1,.5-1,.5,0,.7.8.8.8.8,5.4,2.1,4.5,10.6-1,12.7,6.4-2.8,3.6-13.1,0-10.9-1.5.9-.4,1.8-.4,1.8,4.3,2.7,2.4,5.9,1.4,7.2-.3.4-.7.7-1.2.9-3.8,1.9-5.6-3.9-1.8-4,.7,0,1.2.7.9,1.4-.2.4-.5.6-.9.5.4,0,.7,0,.9-.5.2-.6-.3-1.1-.9-1.2-1.4.2-1.4,2.4,0,2.5.9,0,1.4-.4,1.7-.8.4-.7.4-1.5-.2-2.1-.9-1-2.5-.4-2.5-.4-2.1.9-2.5,2.3-2.5,3.4s.4,1.8,1,2.5c.4.5.9.9,1.4,1.1-2.7.2-5.9-.3-9.4-2.1,0,0-7.9-5.3-2.6-11.5,0,0,.7-.5.5-1.2,0-.4-.5-.5-.9-.5-1.7.5-2.6,1.9-2.7,3.9-.5,6.7,6.2,11.8,12.5,12.3-3-.2-5.3-.8-7.8-2.6-.6-.4-1.3-.9-1.8-1.5-2-1.9-4-5.5-3.8-8.6,0-1.6,1.1-3.8,2.6-4.2,2.9-.9,2.7-3.5,0-2.7,0,0,2.2-2.4,6.2-1.3,1.8.5,3.8,3.6,2.4,5.5-.6.8-1.7,1-2.6.5-.9-.5-1-2.3,0-2.5-1,.2-1.1,1.9,0,2.4.8.4,1.8.2,2.3-.5.9-1.5,0-3.5-1.9-3.7-1.6,0-3.1,1-3.3,2.6,0,.6,0,1.2.4,1.9.5.8,1.2,1.4,2.1,1.8,1.4.5,3.8.8,5.7-1.9,0,0,1.5-1.5.5-5.7,0,0,3.7-.2,1.9-3.7-.2,1.5-1.2.9-2.4.3-10.3-3.1-17.5,6.7-15,15.2,1.1,3.1,3.6,7.4,9.6,9.4,20.1,4.8,21.7-20.8,10.6-20.5v-.3h0Z"/>
          <path class="cls-8" d="M52.2,175.5c-3.7-.5-6.5-2.7-7.6-4.3.8,2.9,4.3,4.3,5.7,4.6h0c-4.6,0-7.1-1.6-8.2-3-1.5-2,.7-3.7,1.6-3.7-.7-3.9.8-6.7,2.3-7.5-1.1,3.9,1,11.3,6.2,13.7h0v.2Z"/>
          <path class="cls-8" d="M66.5,153.8c2.6-1,5.4-3.1,7.3-7.4,0,0,2.4-7.4-3.9-8.5,0,0-.7,0-.9-.5,0-.3,0-.6.3-.7h.2c.2,0,.6-.2.9-.2s.8,0,1.2.2c.2,0,.4.2.6.4s.4.3.6.5c.4.4.7.9,1,1.4s.5,1.1.7,1.7c0,.3.2.6.2.9v2.8c0,.6-.2,1.2-.3,1.8-.2.6-.3,1.1-.6,1.6-.2.5-.5,1-.7,1.4,0,0,0,.2-.2.3,0,0,0,.2-.2.3,0,.2-.2.4-.4.5,0,.2-.2.3-.4.4l-.3.3-.5.5-.2.2.2-.2.5-.5.3-.3c.1-.1.2-.3.4-.4,0,0,.3-.3.4-.5,0,0,0-.2.2-.3,0,0,0-.2.2-.3.3-.4.5-.9.8-1.4.2-.5.4-1.1.6-1.6.2-.6.3-1.2.4-1.8v-2.9c0-.3,0-.6-.2-.9-.2-.6-.4-1.2-.7-1.7-.3-.5-.6-1-1-1.5l-.6-.6c-.2-.2-.4-.3-.7-.4-.5-.2-.9-.3-1.4-.3s-.8,0-1,.2c-2.2.9-3.4-1.1-1.5-2,0,0-2.5-.4-4.4,2.3-.8,1.2-.5,4.1,1.3,4.6.7.2,1.5-.3,1.8-1,.3-.8-.6-1.9-1.4-1.5.7-.4,1.6.6,1.3,1.4-.3.6-1,1-1.7.8-1.3-.4-1.7-2.2-.7-3.2,1-1,2.4-.9,3.3,0s.6.7.7,1.3c0,.7,0,1.5-.4,2.1-.6,1-1.9,2.4-4.4,1.7,0,0-1.6,0-3.2-3.2,0,0-2.4,1.8-3-1.3.9.8,1.2,0,1.6-1,4.7-7,14-4.7,16.8,1.7.9,2.4,1.5,6.3-1.1,10.6,0,0-3.3,4.9-8.8,5.9.6-.5.9-1.1.9-1.7,0,0,0,0,0,0Z"/>
        </g>
        <g>
          <path class="cls-8" d="M60.1,211.9c-.2.8-.2,1.5-.2,1.5-.6-3.9-4.7-8.8-7-7.1,1.5-2.3,4-.5,5.1.9-.9-1.2-2.7-2.8-4.4-2.2-.2,0-.4.2-.6.3-.2.1-.3.3-.4.4,0,.2-.2.3-.3.5-.2-1,1.1-1.7,1.1-1.7,3.8-2.1,6.7,2.7,6.4,6.1.3-2.3-.4-4.2-1.9-5.8-1.8-1.9,4.3-2.6,2.1,7h.1Z"/>
          <path class="cls-8" d="M60.1,142.1c-.2-.8-.2-1.5-.2-1.5-.6,3.9-4.7,8.8-7,7.1,1.5,2.3,4,.5,5.1-.9-.9,1.2-2.7,2.8-4.4,2.2-.2,0-.4-.2-.6-.3-.2,0-.3-.3-.4-.4,0-.2-.2-.4-.3-.5-.2,1,1.1,1.7,1.1,1.7,3.8,2.1,6.7-2.7,6.4-6.1.3,2.3-.4,4.2-1.9,5.8-1.8,1.9,4.3,2.6,2.1-7h.1Z"/>
        </g>
      </g>
      <path class="cls-3" d="M147.2,280.3c5.2,0,9.9-2.1,13.4-5.5,3.4-3.4,5.5-8.1,5.5-13.4s-2.1-9.9-5.5-13.3c-3.4-3.4-8.1-5.5-13.4-5.5s-9.9,2.1-13.3,5.5c-3.4,3.4-5.5,8.1-5.5,13.3s2.1,9.9,5.5,13.4c3.4,3.4,8.1,5.5,13.3,5.5h0ZM161.1,275.3c-3.6,3.6-8.5,5.8-13.9,5.8s-10.3-2.2-13.9-5.8c-3.6-3.6-5.8-8.5-5.8-13.9s2.2-10.3,5.8-13.9c3.6-3.6,8.5-5.8,13.9-5.8s10.3,2.2,13.9,5.8c3.6,3.6,5.8,8.5,5.8,13.9s-2.2,10.3-5.8,13.9Z"/>
      <path class="cls-8" d="M164.9,261.4c0,9.8-7.9,17.7-17.7,17.7s-17.7-7.9-17.7-17.7,7.9-17.7,17.7-17.7,17.7,7.9,17.7,17.7h0ZM134.6,270.8h0l-1.2.9c.3.4.5.7.8,1l1.1-1c-.3-.3-.5-.6-.7-.9h0ZM134.3,270.4h0c-.2-.3-.4-.6-.6-1l-1.3.7c.2.4.5.7.7,1.1l1.2-.9h0ZM133.4,269h0c-.2-.3-.4-.7-.5-1l-1.4.6.6,1.2,1.3-.7h0ZM132.7,267.6h0c-.2-.4-.3-.7-.4-1.1l-1.4.5c.1.4.3.8.5,1.2l1.4-.6h-.1ZM132.1,266h0c-.1-.4-.2-.7-.3-1.1l-1.5.3c0,.4.2.9.3,1.3l1.4-.5h.1ZM131.7,264.4h0c0-.4-.1-.8-.2-1.2l-1.5.2c0,.4.1.9.2,1.3l1.5-.3h0ZM131.5,262.8h0v-1.2h-1.5v1.3l1.5-.2h0ZM131.5,261.1h0v-1.2l-1.5-.2v1.3h1.5ZM131.6,259.5h0c0-.4.1-.8.2-1.2l-1.5-.3c0,.4-.2.9-.2,1.3l1.5.2h0ZM131.8,257.9h0c0-.4.2-.8.3-1.1l-1.4-.5c-.1.4-.2.8-.3,1.3l1.5.3h-.1ZM132.3,256.3h0c.1-.4.3-.7.4-1.1l-1.4-.6c-.2.4-.3.8-.5,1.2l1.4.5h.1ZM132.9,254.8h0c.2-.4.3-.7.5-1l-1.3-.7c-.2.4-.4.8-.6,1.2l1.4.6h0ZM133.7,253.3h0c.2-.3.4-.7.6-1l-1.2-.9c-.3.4-.5.7-.7,1.1l1.3.7h0ZM134.6,251.9h0c.2-.3.5-.6.7-.9l-1.1-1c-.3.3-.6.7-.8,1l1.2.9h0ZM132.7,261.4h0c0,8,6.5,14.5,14.5,14.5s14.5-6.5,14.5-14.5-6.5-14.5-14.5-14.5-14.5,6.5-14.5,14.5h0ZM156.6,274h0l.9,1.2c.4-.3.7-.5,1-.8l-1-1.1c-.3.3-.6.5-.9.7h0ZM156.2,274.3h0c-.3.2-.6.4-1,.6l.7,1.3c.4-.2.7-.5,1.1-.7l-.9-1.2h0ZM154.9,275.1h0c-.3.2-.7.4-1,.5l.6,1.4c.4-.2.8-.4,1.2-.6l-.7-1.3h-.1ZM153.4,275.9h0c-.4.2-.7.3-1.1.4l.5,1.4c.4-.1.8-.3,1.2-.5l-.6-1.4h0ZM151.8,276.4h0c-.4.1-.7.2-1.1.3l.3,1.5c.4,0,.9-.2,1.3-.3l-.5-1.4h0ZM150.2,276.8h0c-.4,0-.8.1-1.2.2l.2,1.5c.4,0,.9-.1,1.3-.2l-.3-1.5h0ZM148.6,277.1h-1.2v1.5h1.3l-.2-1.5h0ZM147,277.1h-1.2l-.2,1.5h1.3v-1.5h0ZM145.3,277h0c-.4,0-.8-.1-1.2-.2l-.3,1.5c.4,0,.9.2,1.3.2l.2-1.5h0ZM143.7,276.7h0c-.4,0-.8-.2-1.1-.3l-.5,1.4c.4.1.8.2,1.3.3l.3-1.5h0ZM142.1,276.3h0c-.4-.1-.7-.3-1.1-.4l-.6,1.4c.4.2.8.3,1.2.5l.5-1.4h0ZM140.6,275.7h0c-.4-.2-.7-.3-1-.5l-.7,1.3c.4.2.8.4,1.2.6l.6-1.4h-.1ZM139.1,274.9h0c-.3-.2-.7-.4-1-.6l-.9,1.2c.4.3.7.5,1.1.7l.7-1.3h0ZM137.8,274h0c-.3-.2-.6-.5-.9-.7l-1,1.1c.3.3.7.6,1,.8l.9-1.2h0ZM159.8,251.9h0l1.2-.9c-.3-.4-.5-.7-.8-1l-1.1,1c.3.3.5.6.7.9h0ZM160.1,252.3h0c.2.3.4.6.6,1l1.3-.7c-.2-.4-.5-.7-.7-1.1l-1.2.9h0ZM160.9,253.7h0c.2.3.4.7.5,1l1.4-.6c-.2-.4-.4-.8-.6-1.2l-1.3.7h0ZM161.7,255.2h0c.2.4.3.7.4,1.1l1.4-.5c-.1-.4-.3-.8-.5-1.2l-1.4.6h.1ZM162.2,256.7h0c.1.4.2.7.3,1.1l1.5-.3c0-.4-.2-.9-.3-1.3l-1.4.5h-.1ZM162.6,258.3h0c0,.4.1.8.2,1.2l1.5-.2c0-.4-.1-.9-.2-1.3l-1.5.3h0ZM162.9,260h0v1.2h1.5v-1.3l-1.5.2h0ZM162.9,261.6h0v1.2l1.5.2v-1.3h-1.5ZM162.8,263.3h0c0,.4-.1.8-.2,1.2l1.5.3c0-.4.2-.9.2-1.3l-1.5-.2h0ZM162.5,264.9h0c0,.4-.2.8-.3,1.1l1.4.5c.1-.4.2-.8.3-1.3l-1.5-.3h.1ZM162.1,266.5h0c-.1.4-.3.7-.4,1.1l1.4.6c.2-.4.3-.8.5-1.2l-1.4-.5h-.1ZM161.5,268h0c-.2.4-.3.7-.5,1l1.3.7.6-1.2-1.4-.6h0ZM160.7,269.5h0c-.2.3-.4.7-.6,1l1.2.9c.3-.4.5-.7.7-1.1l-1.3-.7h0ZM159.8,270.8h0c-.2.3-.5.6-.7.9l1.1,1c.3-.3.6-.7.8-1l-1.2-.9h0ZM150.2,245.9h0l.3-1.5c-.4,0-.9-.2-1.3-.2l-.2,1.5c.4,0,.8.1,1.2.2h0ZM150.7,246h0c.4,0,.8.2,1.1.3l.5-1.4c-.4-.1-.8-.2-1.3-.3l-.3,1.5h0ZM152.3,246.5h0c.4.1.7.3,1.1.4l.6-1.4c-.4-.2-.8-.3-1.2-.5l-.5,1.4h0ZM153.8,247.1h0c.4.2.7.3,1,.5l.7-1.3c-.4-.2-.8-.4-1.2-.6l-.6,1.4h.1ZM155.3,247.9h0c.3.2.7.4,1,.6l.9-1.2c-.4-.3-.7-.5-1.1-.7l-.7,1.3h0ZM156.6,248.8h0c.3.2.6.5.9.7l1-1.1c-.3-.3-.7-.6-1-.8l-.9,1.2h0ZM137.8,248.8h0l-.9-1.2c-.4.3-.7.5-1,.8l1,1.1c.3-.3.6-.5.9-.7h0ZM138.1,248.5h0c.3-.2.6-.4,1-.6l-.7-1.3c-.4.2-.7.5-1.1.7l.9,1.2h0ZM139.5,247.6h0c.3-.2.7-.4,1-.5l-.6-1.4c-.4.2-.8.4-1.2.6l.7,1.3h.1ZM141,246.9h0c.4-.2.7-.3,1.1-.4l-.5-1.4c-.4.1-.8.3-1.2.5l.6,1.4h0ZM142.6,246.3h0c.4-.1.7-.2,1.1-.3l-.3-1.5c-.4,0-.9.2-1.3.3l.5,1.4h0ZM144.2,245.9h0c.4,0,.8-.1,1.2-.2l-.2-1.5c-.4,0-.9.1-1.3.2l.3,1.5h0ZM145.8,245.7h1.2v-1.5h-1.3l.2,1.5h0ZM147.4,245.6h1.2l.2-1.5h-1.3v1.5h0ZM158.9,248.7h0l-1,1.1c.3.3.6.5.8.8l1.1-1-.9-.9h0ZM159.8,273.1h0l-1.1-1c-.3.3-.5.6-.8.8l1,1.1.9-.9h0ZM135.5,274h0l1-1.1c-.3-.3-.6-.5-.8-.8l-1.1,1,.9.9h0ZM134.6,249.7h0l1.1,1c.3-.3.5-.6.8-.8l-1-1.1-.9.9h0Z"/>
    </g>
    <path class="cls-8" d="M224.4,101.4c1.3.7,2.2,1.4,2.2,1.4-4.6-5.3-6.4-16.2-1.6-17.3-4.7-.6-5.2,4.8-4.5,7.9-.6-2.6-.7-6.7,2-8.3.3-.2.7-.3,1.1-.4h1c.4,0,.7,0,1,.2-1-1.4-3.5-.5-3.5-.5-7.1,2.7-3.9,12.1.9,15.5-3.4-2.2-5.2-5.3-5.6-9.2-.5-4.6-8.4,2.8,7,10.7h0Z"/>
    <path class="cls-8" d="M490,89.1c.4,0,.8.3.8.7s-.2.8-.6.8c-11.1,1.6-16.4,6.3-16.4,6.3-.2.2-.5.2-.7.2s-.5-.2-.5-.5-1.6-3.2-10-2.6c-95.1,7-190.3,14.1-285,21.1-1.7-1.1-4.5-2.1-5.7-2.5,106.1-7.8,212.1-15.7,318.2-23.5h-.1,0Z"/>
    <path class="cls-8" d="M518.7,179.2s4.9-18-10.4-19.9c0,0-1.7.2-2.2-1-.3-.7,0-1.4.7-1.8.1,0,.2,0,.4-.2.6-.3,1.3-.6,2.2-.7.9,0,1.9,0,3,.3.5.2,1,.5,1.5.8s1,.7,1.5,1.2c.9.9,1.8,2,2.6,3.2s1.4,2.5,2,4c.3.7.5,1.4.7,2.2.2.7.3,1.5.4,2.3.2,1.5.3,3.1.2,4.6,0,1.5-.3,3-.6,4.4s-.7,2.8-1.2,4-1,2.4-1.6,3.4c0,.3-.3.5-.4.7,0,.2-.3.5-.4.7-.3.4-.6.9-.8,1.2-.3.4-.5.7-.8,1.1-.3.3-.5.6-.7.9-.4.5-.8.9-1.1,1.2-.2.3-.4.4-.4.4,0,0,0-.1.4-.4.2-.3.6-.6,1.1-1.2.2-.3.5-.5.7-.9.3-.3.5-.7.8-1,.3-.4.6-.8.9-1.2,0-.2.3-.4.4-.7,0-.2.3-.5.4-.7.6-1,1.1-2.2,1.6-3.4s.9-2.6,1.2-4,.5-2.9.6-4.5v-4.6c0-.8-.2-1.5-.4-2.3s-.4-1.5-.6-2.2c-.5-1.5-1.2-2.8-1.9-4.1-.8-1.2-1.6-2.4-2.6-3.4s-1-.9-1.5-1.3-1.1-.7-1.7-.9c-1.1-.4-2.3-.6-3.3-.4-1,0-1.8.4-2.5.7-5.2,2.5-8.3-2.3-3.7-4.5,0,0-6.1-.6-10.2,6-1.9,3.1-.7,9.8,3.6,10.7,1.8.4,3.7-.8,4.2-2.5.6-1.9-1.6-4.5-3.4-3.3,1.7-.9,3.9,1.3,3.2,3.2-.5,1.5-2.2,2.6-3.8,2.2-3.2-.9-4.4-5-2-7.5,2.1-2.2,5.6-2.5,7.9-.6.8.7,1.6,1.7,1.9,3.1.4,1.7.1,3.6-.7,5.2-1.3,2.5-4.2,5.9-10.3,4.6,0,0-3.9,0-8-7.3,0,0-5.4,4.5-7.4-2.8,2.2,1.7,2.8-.3,3.6-2.7,10.4-17.4,32.8-13,40.3,2,2.4,5.6,4.3,14.9-1.4,25.4-7.8,13-19.1,15.7-33.1,16.7l-291.4,21c-.4,0-.8-.3-.8-.7s.2-.8.6-.8c11.1-1.6,16.4-6.3,16.4-6.3.2-.2.5-.2.7-.2s.5.3.5.5,1.6,3.2,10,2.6l258.7-18.6c17.2-1.3,29.5-2.8,36.4-21.8h0Z"/>
    <path class="cls-8" d="M239.5,241.7s.6,1.2,0,1.9c-.4.4-1.1.4-1.5,0,0,0-.2-.1-.2-.2-.4-.3-.8-.8-1.1-1.4-.3-.6-.6-1.4-.6-2.3s0-.9.1-1.4.2-.9.4-1.4c.4-1,.9-1.9,1.6-2.8.7-.9,1.4-1.8,2.3-2.6.4-.4.9-.8,1.4-1.1s1-.7,1.5-1c1.4-.8,3.6-1.7,4.7-2.1-1.7.4-3.3,1-4.9,1.9-.5.3-1.1.6-1.6,1s-1,.7-1.4,1.1c-.9.8-1.7,1.7-2.4,2.6-.7.9-1.3,1.9-1.7,2.9s-.4,1-.5,1.5-.2,1-.2,1.5c0,1,.3,1.8.6,2.5.4.7.8,1.2,1.2,1.6,3.3,3.1.7,6.8-2.2,4,0,0,1.4,4.6,7.4,5.7,2.8.5,7.4-2.3,6.8-5.8-.2-1.4-1.7-2.4-3.1-2.3-1.6.1-2.8,2.4-1.4,3.5-1.2-1-.2-3.2,1.5-3.3,1.3,0,2.6.9,2.7,2.2.3,2.6-2.4,4.7-4.9,3.6-2.2-.9-3.5-3.4-2.7-5.6.3-.8.8-1.6,1.7-2.3,1.1-.8,2.6-1.1,4-1,2.2.2,5.6,1.4,6.4,6.2,0,0,1.1,2.9-3,8,0,0,4.9,2.7,0,6.2.6-2.1-1.1-2-3-1.9-15.8-2.5-19.1-20.2-10.3-30,4.2-4.2,8.8-6.1,14.7-6.5,8.4-.6,16.8-1.2,25.2-1.8,2,2,3,4.8,1.8,8.3-.5,1.5-1.5,2.8-2.8,3.6-1.6,1-4,1.6-7.1-.8,0,0-2.1-1.8-1.5-4,.4-1.3,1.6-2.1,2.9-2,.9,0,2,.4,2.6,1.8.9,2.1-2.2,3.9-3.7,2-.5-1-.1-2.1,1-2.3.7-.2,1.2.2,1.5.8-.2-.7-.8-1-1.5-.9-1.3.2-1.7,1.5-1.2,2.5,3.4,5.5,10.3-1.9,4.4-5.9-.2-.2-.5-.3-.7-.5l-15.2,1.1c1.3,1.5,3.6,2,5,.5,0,0,.2-.4.5-.2,0,0,.3.1,0,.6.7,0,1.2-1.3,1.9-.8.3.2.3.7.2,1-.8,1.9-3.1,2.4-5.3,1.7,2.6,2.1,4.1,5.1,2.9,8-.2.6-.9,1.2-1.6,1.1-1.6-.3-.5-2.6-1.5-3.6-.2,1-.8.8-.8.8-.7-.2-.4-1.1-.4-1.1,0-10.7-22.5-6.4-18.9,7.4v-.2h0Z"/>
    <path class="cls-8" d="M512.1,140.4c.3-1.2,0-3.1-1.1-3.7-2.9-1.6-4,3.6-6.8,3.8.9-1.9-.3-2.2-.3-2.2-1.3-.6-2,1.2-2,1.2-7.2,9.1-23.1,2.3-24.1-9.5,1.7,14.1,23.1,14.9,21.2,6.4-.9-3.5-3.2-1.8-3.2-1.8-7.8,6.8-12.9,1.1-14.7-1.6-.6-.9-1-1.9-1.1-2.9-1.3-8.5,10.9-8.6,8.8-1-.6,1.3-2.1,1.9-3.3,1-.7-.6-.9-1.3-.4-2.1-.4.8-.2,1.5.5,2,1.1.8,2.4,0,2.8-1,.5-2.9-3.7-4.2-4.8-1.6-.7,1.7-.2,2.9.6,3.8,1,1.2,2.8,1.6,4.2.9,2.5-1.2,2.3-4.6,2.3-4.6-.5-4.6-3-6.3-5.2-6.9-1.8-.5-3.7-.2-5.4.5-1.2.5-2.2,1.2-3,2,1.2-5.4,4.1-11.3,9.7-17,0,0,15-12.2,23.9,1.9,0,0,.6,1.7,1.9,1.6.8,0,1.4-.7,1.4-1.5,0-3.6-2.2-6.2-5.9-7.7-12.7-5-26.6,5-31.4,16.9,2.2-5.6,4.8-9.8,9.7-13.6,1.2-1,2.6-1.9,4-2.7,4.9-2.7,13.1-4.5,19-2.1,2.9,1.2,6.6,4.5,6.6,7.6,0,6.2,5.1,7.2,5.2,1.8,0,0,3.3,5.6-1.1,12.7-2.1,3.2-9.2,5.2-12.1,1.4-1.2-1.6-.9-3.9.6-5.3,1.6-1.5,5.1-.5,4.8,1.8.2-2.1-3-3.2-4.6-1.6-1.2,1.2-1.5,3.4-.3,4.7,2.3,2.7,6.9,2,8.2-1.5,1.2-3.1,0-6.6-3.1-8-1-.5-2.3-.7-3.9-.4-1.9.4-3.5,1.5-4.7,3.1-1.8,2.4-3.8,6.8.2,12.1,0,0,1.9,3.8,10.8,4.4,0,0-1.9,7.3,6.1,5.9-2.7-1.3-1-2.9.9-4.7,12.2-18.1-2.4-37.8-20.4-38.2-6.6.3-16.5,2.6-24.1,12.9-21.4,36,27.3,54.5,33.3,32.9h.3,0Z"/>
    <path class="cls-8" d="M442.1,95.6c-7.8,1.1-18.5,3.3-24.7,8.1-3.6-3-9.9-4.9-14.2-5.2,9.3-1.9,29.7-3,39-2.9h0Z"/>
    <path class="cls-8" d="M197.1,84s6.3,6.7,15.3,1.7c0,0,6.3-4.3,2.1-9,0,0-.6-.4-.4-.9,0-.3.4-.4.7-.4h.2c.3,0,.6.2.9.4.3.2.6.5.8.9.1.2.2.4.3.7,0,.2.1.5.1.8v1.7c0,.6-.2,1.2-.5,1.7-.1.3-.2.6-.4.9-.1.3-.3.6-.5.8-.3.5-.7,1-1.2,1.5-.4.5-.9.9-1.4,1.2-.5.4-.9.7-1.4.9-.5.3-.9.5-1.4.6-.1,0-.2,0-.3,0h-.3c-.2,0-.4,0-.6.2-.2,0-.4,0-.5,0h-1.3,1.3c.2,0,.3,0,.5,0,.2,0,.4,0,.6-.2h.3c.1,0,.2,0,.3,0,.5-.2.9-.4,1.4-.6.5-.3,1-.6,1.5-.9.5-.4.9-.8,1.4-1.2.4-.5.9-.9,1.2-1.5.2-.3.3-.5.5-.8.1-.3.3-.6.4-.9.2-.6.4-1.2.5-1.8,0-.6.1-1.2,0-1.7,0-.3,0-.5-.1-.8,0-.3-.2-.5-.3-.7-.2-.4-.6-.8-.9-1-.3-.2-.7-.4-1-.4-2.3-.6-2-2.9,0-2.4,0,0-1.7-1.8-4.8-.9-1.4.5-2.8,2.8-1.7,4.3.5.6,1.4.7,2,.3.7-.4.7-1.8-.2-1.9.8.2.9,1.4.1,1.8-.6.3-1.4.2-1.8-.4-.8-1.1,0-2.7,1.4-2.9,1.2,0,2.4.7,2.6,1.9,0,.4,0,.9-.2,1.5-.3.7-.9,1.1-1.6,1.4-1.1.4-2.9.7-4.4-1.3,0,0-1.2-1.1-.5-4.4,0,0-2.9,0-1.5-2.8.2,1.1,1,.6,1.8,0,7.9-2.6,13.6,4.7,11.9,11.3-.8,2.4-2.6,5.8-7.2,7.5,0,0-8.5,2.8-13.7-3.4-.2-.2-.3-.4-.3-.7s0-.3.1-.4l.2.2h0Z"/>
    <path class="cls-8" d="M500.3,113.8c3.6,3.6-.7,7.8-4.1,6.5,5.8-3.5,1-7.1-1.4-3.8-2.3,3.1-.8,6.2,1.4,7.6,3.9,2.7,9.3-.8,10.5-1.8-2.4,3.3-8,5-11.6,2.9-4.1-2.5-4.3-6.3-3.1-9.3,1.5-3.9-2.6-5.8-3.1-4.4,1.3.4.8,2.4-.3,2.7-1.7.5-2.7-.6-3.2-1.9-.7-1.8,1.4-4.6,3.9-4.4,2.4,0,5.1,2.3,4.6,6,1.4-1.3,4-2.4,6.4-.2h0Z"/>
    <path class="cls-8" d="M246.2,236c-2.1,2.2.4,4.7,2.4,3.9-3.5-2.1-.6-4.2.9-2.3,1.4,1.9.5,3.7-.9,4.6-2.3,1.6-5.6-.5-6.3-1.1,1.4,2,4.8,3,7,1.7,2.5-1.5,2.6-3.8,1.8-5.6-.9-2.3,1.6-3.5,1.9-2.7-.8.3-.5,1.4.2,1.6,1,.3,1.6-.3,1.9-1.2.4-1.1-.8-2.7-2.3-2.7s-3.1,1.4-2.8,3.6c-.8-.8-2.4-1.4-3.9,0v.2h.1Z"/>
    <path class="cls-8" d="M244.6,231.6c1.7,0,3.1,1,4.2,2.3-1.2-.6-2.5-1.5-3.9-1.2-.4,0-1.7.7-1.9-.2-.1-.7.9-1,1.6-1h0Z"/>
    <path class="cls-8" d="M215.7,250.2s5.2-5.5,12.5-1.4c0,0,5.2,3.5,1.7,7.3,0,0-.5.3-.3.7,0,.2.3.3.6.3h.1c.2,0,.5-.1.7-.3s.5-.4.7-.7c0-.2.2-.3.2-.5s0-.4.1-.6v-1.4c0-.5-.2-1-.4-1.4,0-.2-.2-.5-.3-.7s-.2-.4-.4-.7c-.3-.4-.6-.8-1-1.2-.3-.4-.7-.7-1.1-1-.4-.3-.8-.5-1.2-.8-.4-.2-.8-.4-1.1-.5h-.6c-.2,0-.3-.1-.5-.1h-1.5,1.5c.2,0,.3,0,.5.1h.6c.4.1.8.3,1.1.5.4.2.8.5,1.2.7.4.3.8.6,1.1,1,.4.4.7.8,1,1.2.1.2.3.4.4.7.1.2.2.5.3.7.2.5.3,1,.4,1.5,0,.5.1,1,0,1.4,0,.2,0,.4-.1.7,0,.2-.1.4-.2.6-.2.4-.5.6-.7.8-.3.2-.5.3-.8.4-1.9.5-1.6,2.4,0,1.9,0,0-1.4,1.5-3.9.7-1.1-.4-2.3-2.3-1.4-3.5.4-.5,1.1-.6,1.6-.3.6.4.6,1.5-.1,1.6.6-.1.7-1.2,0-1.5-.5-.3-1.1-.2-1.4.3-.6.9,0,2.2,1.1,2.3,1,0,2-.6,2.1-1.6,0-.4,0-.8-.2-1.2-.3-.5-.7-.9-1.3-1.1-.9-.3-2.4-.6-3.6,1.1,0,0-1,.9-.4,3.6,0,0-2.3,0-1.2,2.3.2-.9.8-.5,1.5-.1,6.4,2.1,11.1-3.9,9.7-9.3-.6-1.9-2.1-4.7-5.9-6.1,0,0-7-2.3-11.2,2.8-.1.2-.2.4-.2.6s0,.3.1.4l.2-.2h0Z"/>
  </g>
  <g>
    <polygon class="cls-7" points="145.9 100.8 145.8 100.8 145.1 104.4 145.2 104.4 145.9 100.8"/>
    <polygon class="cls-7" points="150.3 79.4 150.2 79.4 149.5 82.9 149.6 82.9 150.3 79.4"/>
    <polygon class="cls-7" points="140.4 102.5 140.5 102.5 142.6 99.5 142.5 99.4 140.4 102.5"/>
    <polygon class="cls-7" points="152.8 84.3 152.9 84.3 155 81.3 154.9 81.2 152.8 84.3"/>
    <polygon class="cls-7" points="136.9 99 140 97 139.9 96.9 136.8 99 136.9 99"/>
    <polygon class="cls-7" points="158.5 84.7 155.4 86.8 155.5 86.8 158.6 84.8 158.5 84.7"/>
    <polygon class="cls-7" points="134.9 94.5 138.5 93.7 138.5 93.7 134.9 94.4 134.9 94.5"/>
    <polygon class="cls-7" points="156.9 90 156.9 90.1 160.5 89.4 160.6 89.4 160.6 89.3 160.5 89.3 160.5 89.3 156.9 90"/>
    <polygon class="cls-7" points="138.5 90.2 138.5 90.1 134.9 89.4 134.8 89.5 138.5 90.2"/>
    <polygon class="cls-7" points="156.9 93.5 156.9 93.6 160.5 94.3 160.6 94.2 156.9 93.5"/>
    <polygon class="cls-7" points="136.8 84.8 136.7 84.9 139.9 86.9 139.9 86.8 136.8 84.8"/>
    <polygon class="cls-7" points="155.5 96.8 155.5 96.9 158.6 98.9 158.7 98.8 155.5 96.8"/>
    <polygon class="cls-7" points="140.3 81.4 142.4 84.4 142.5 84.3 140.4 81.3 140.3 81.4"/>
    <polygon class="cls-7" points="153 99.4 152.9 99.4 155 102.4 155.1 102.4 153 99.4"/>
    <rect class="cls-7" x="147.7" y="101" height="9.1"/>
    <rect class="cls-7" x="147.7" y="73.6" height="9.1"/>
    <polygon class="cls-7" points="144.2 100.3 144.1 100.3 140.5 108.7 140.6 108.8 144.2 100.3"/>
    <polygon class="cls-7" points="151.2 83.4 151.3 83.5 154.9 75 154.8 75 151.2 83.4"/>
    <polygon class="cls-7" points="141.1 98.3 134.5 104.8 134.5 104.8 141.1 98.4 141.1 98.3"/>
    <polygon class="cls-7" points="154.3 85.4 154.3 85.4 160.9 79 160.9 78.9 154.3 85.4"/>
    <polygon class="cls-7" points="139.1 95.4 139.1 95.4 130.4 98.9 130.4 99 139.1 95.4"/>
    <polygon class="cls-7" points="156.3 88.3 156.3 88.4 159.8 87 165 84.9 165 84.8 162.6 85.7 156.3 88.3"/>
    <polygon class="cls-7" points="128.9 92 138.3 92 138.3 92 128.9 92"/>
    <polygon class="cls-7" points="156.9 92 166.3 91.9 166.3 91.9 156.9 92"/>
    <polygon class="cls-7" points="130.4 85 130.3 85.1 132.7 86 135.6 87.1 139 88.5 139 88.4 135.6 87 132.7 85.9 130.4 85"/>
    <polygon class="cls-7" points="165.1 98.7 156.4 95.3 156.3 95.3 165 98.8 165.1 98.7"/>
    <polygon class="cls-7" points="134.3 79.1 141 85.5 141.1 85.5 134.4 79.1 134.3 79.1"/>
    <polygon class="cls-7" points="161.1 104.6 154.4 98.2 154.3 98.3 161 104.7 161.1 104.6"/>
    <polygon class="cls-7" points="140.3 75.1 144 83.5 144.1 83.5 140.4 75.1 140.3 75.1"/>
    <polygon class="cls-7" points="155.1 108.6 151.4 100.2 151.3 100.3 155 108.7 155.1 108.6"/>
    <polygon class="cls-7" points="145 79.4 145.7 83 145.8 83 145 79.4 145 79.4"/>
    <polygon class="cls-7" points="144.3 108.9 144.8 106.6 144.7 106.5 144.2 108.9 144.3 108.9"/>
    <polygon class="cls-7" points="151.1 74.9 150.6 77.2 150.7 77.2 151.2 74.9 151.1 74.9"/>
    <polygon class="cls-7" points="139.2 104.3 137.8 106.3 137.9 106.3 139.2 104.4 139.2 104.3"/>
    <polygon class="cls-7" points="157.5 77.4 156.2 79.4 156.2 79.4 157.6 77.5 157.5 77.4"/>
    <polygon class="cls-7" points="133 101.6 135 100.3 134.9 100.2 132.9 101.5 133 101.6"/>
    <polygon class="cls-7" points="160.4 83.5 160.5 83.6 162.5 82.2 162.4 82.2 160.4 83.5"/>
    <polygon class="cls-7" points="132.7 94.9 132.6 94.8 130.3 95.3 130.3 95.4 132.7 94.9"/>
    <polygon class="cls-7" points="165.1 88.4 162.7 88.8 162.8 88.9 165.1 88.4 165.1 88.4"/>
    <polygon class="cls-7" points="130.2 88.7 132.6 89.1 132.6 89 130.2 88.6 130.2 88.7"/>
    <polygon class="cls-7" points="165.2 95.1 162.8 94.7 162.8 94.7 165.2 95.2 165.2 95.1"/>
    <polygon class="cls-7" points="132.8 82.4 134.8 83.7 134.9 83.6 132.8 82.3 132.8 82.4"/>
    <polygon class="cls-7" points="162.6 101.3 160.6 100 160.5 100.1 162.6 101.4 162.6 101.3"/>
    <polygon class="cls-7" points="137.6 77.6 139 79.5 139.1 79.5 137.7 77.5 137.6 77.6"/>
    <polygon class="cls-7" points="157.8 106.2 156.4 104.2 156.3 104.3 157.7 106.2 157.8 106.2"/>
    <polygon class="cls-7" points="144.1 74.9 144 74.9 144.5 77.2 144.6 77.2 144.1 74.9"/>
    <polygon class="cls-7" points="151.3 108.8 151.4 108.8 150.9 106.5 150.8 106.5 151.3 108.8"/>
    <polygon class="cls-7" points="150.4 104.3 149.7 100.8 149.6 100.8 150.4 104.4 150.4 104.3"/>
    <polygon class="cls-7" points="152.2 106 150 98.9 149.9 98.9 152.2 106 152.2 106"/>
    <polygon class="cls-7" points="143.2 77.8 145.4 84.8 145.5 84.8 143.2 77.7 143.2 77.8"/>
    <polygon class="cls-7" points="146.4 106.6 147.1 99.2 147 99.2 146.3 106.6 146.4 106.6"/>
    <polygon class="cls-7" points="149 77.2 148.3 84.5 148.4 84.5 149.1 77.2 149 77.2"/>
    <polygon class="cls-7" points="140.7 105 144.2 98.4 144.2 98.4 140.6 105 140.7 105"/>
    <polygon class="cls-7" points="154.7 78.8 151.2 85.3 151.2 85.4 154.8 78.8 154.7 78.8"/>
    <polygon class="cls-7" points="141.9 96.6 136.1 101.3 136.1 101.4 141.9 96.7 141.9 96.6"/>
    <polygon class="cls-7" points="153.5 87.1 153.5 87.2 159.3 82.4 159.3 82.3 153.5 87.1"/>
    <polygon class="cls-7" points="140.5 94.1 140.5 94.1 133.2 96.3 133.2 96.4 140.5 94.1"/>
    <polygon class="cls-7" points="162.1 87.4 154.9 89.6 154.9 89.7 162.2 87.4 162.1 87.4"/>
    <polygon class="cls-7" points="132.6 90.7 137.1 91.1 140.1 91.3 140.2 91.2 132.6 90.6 132.6 90.7"/>
    <polygon class="cls-7" points="162.8 93.1 155.2 92.5 155.2 92.5 162.8 93.2 162.8 93.1"/>
    <polygon class="cls-7" points="134.2 85.2 140.9 88.5 141 88.5 134.2 85.1 134.2 85.2"/>
    <polygon class="cls-7" points="161.2 98.6 154.4 95.2 154.4 95.3 161.2 98.7 161.2 98.6"/>
    <polygon class="cls-7" points="137.8 80.6 142.8 86.3 142.8 86.2 137.9 80.6 137.8 80.6"/>
    <polygon class="cls-7" points="157.5 103.1 152.6 97.5 152.6 97.5 157.5 103.2 157.5 103.1"/>
    <polygon class="cls-7" points="139.8 87 136.2 80.5 136.1 80.5 139.7 87 139.8 87"/>
    <polygon class="cls-7" points="144.1 85.4 140.5 78.8 140.5 78.9 144.1 85.4 144.1 85.4"/>
    <polygon class="cls-7" points="149.3 106.6 148.5 99.2 148.4 99.2 149.2 106.6 149.3 106.6"/>
    <polygon class="cls-7" points="146.1 77.2 146.9 84.5 147 84.5 146.2 77.2 146.1 77.2"/>
    <polygon class="cls-7" points="145.5 98.9 143.3 106 143.4 106.1 145.6 99 145.5 98.9"/>
    <polygon class="cls-7" points="149.9 84.8 152.1 77.7 152 77.7 149.8 84.8 149.9 84.8"/>
    <polygon class="cls-7" points="142.9 97.6 138.1 103.3 138.2 103.4 143 97.6 142.9 97.6"/>
    <polygon class="cls-7" points="152.5 86.2 157.3 80.4 157.2 80.4 152.4 86.1 152.5 86.2"/>
    <polygon class="cls-7" points="141 95.4 134.4 98.9 134.4 99 141.1 95.4 141 95.4"/>
    <polygon class="cls-7" points="154.4 88.4 161 84.8 161 84.8 154.3 88.3 154.4 88.4"/>
    <polygon class="cls-7" points="132.6 93.5 137.2 93 140.2 92.7 140.2 92.6 132.6 93.4 132.6 93.5"/>
    <polygon class="cls-7" points="162.8 90.2 155.2 91 155.2 91.1 162.8 90.3 162.8 90.2"/>
    <polygon class="cls-7" points="140.4 89.8 133.1 87.7 133.1 87.8 140.4 89.9 140.4 89.8"/>
    <polygon class="cls-7" points="162.3 96 155 93.9 155 94 162.3 96 162.3 96"/>
    <polygon class="cls-7" points="141.8 87.2 135.9 82.6 135.8 82.7 141.8 87.3 141.8 87.2"/>
    <polygon class="cls-7" points="159.6 101.1 153.6 96.4 153.6 96.5 159.5 101.1 159.6 101.1"/>
    <polygon class="cls-7" points="145.2 270.8 145.1 270.8 144.3 274.5 144.4 274.6 145.2 270.8"/>
    <polygon class="cls-7" points="149.8 248.3 149.7 248.3 148.9 252 149 252.1 149.8 248.3"/>
    <polygon class="cls-7" points="139.4 272.5 139.5 272.6 141.6 269.4 141.6 269.4 139.4 272.5"/>
    <polygon class="cls-7" points="152.4 253.4 152.5 253.5 154.7 250.3 154.6 250.3 152.4 253.4"/>
    <polygon class="cls-7" points="135.7 268.9 138.9 266.8 138.9 266.7 135.6 268.9 135.7 268.9"/>
    <polygon class="cls-7" points="158.4 253.9 155.2 256.1 155.2 256.1 158.4 254 158.4 253.9"/>
    <polygon class="cls-7" points="133.6 264.2 137.4 263.4 137.4 263.3 133.6 264.1 133.6 264.2"/>
    <polygon class="cls-7" points="156.6 259.5 156.7 259.6 160.5 258.8 160.5 258.8 160.5 258.7 160.5 258.7 160.5 258.7 156.6 259.5"/>
    <polygon class="cls-7" points="137.4 259.7 137.4 259.6 133.6 258.9 133.5 259 137.4 259.7"/>
    <polygon class="cls-7" points="156.7 263.2 156.7 263.3 160.5 264 160.5 263.9 156.7 263.2"/>
    <polygon class="cls-7" points="135.6 254.1 135.5 254.1 138.8 256.2 138.9 256.2 135.6 254.1"/>
    <polygon class="cls-7" points="155.3 266.6 155.2 266.7 158.5 268.8 158.5 268.7 155.3 266.6"/>
    <polygon class="cls-7" points="139.3 250.4 141.5 253.6 141.5 253.5 139.3 250.4 139.3 250.4"/>
    <polygon class="cls-7" points="152.6 269.3 152.5 269.4 154.7 272.5 154.8 272.5 152.6 269.3"/>
    <rect class="cls-7" x="147" y="271" height="9.6"/>
    <rect class="cls-7" x="147" y="242.3" height="9.6"/>
    <polygon class="cls-7" points="143.3 270.3 143.3 270.2 139.5 279.1 139.6 279.1 143.3 270.3"/>
    <polygon class="cls-7" points="150.7 252.6 150.8 252.6 154.6 243.8 154.5 243.7 150.7 252.6"/>
    <polygon class="cls-7" points="140.1 268.2 133.2 275 133.2 275 140.2 268.2 140.1 268.2"/>
    <polygon class="cls-7" points="153.9 254.6 154 254.7 160.9 247.9 160.9 247.8 153.9 254.6"/>
    <polygon class="cls-7" points="138 265.2 138 265.1 128.9 268.8 128.9 268.9 138 265.2"/>
    <polygon class="cls-7" points="156.1 257.7 156.1 257.8 159.7 256.3 165.2 254.1 165.2 254 162.7 255 156.1 257.7"/>
    <polygon class="cls-7" points="127.2 261.6 137 261.6 137 261.6 127.2 261.6"/>
    <polygon class="cls-7" points="156.7 261.5 166.5 261.4 166.5 261.4 156.7 261.5"/>
    <polygon class="cls-7" points="128.8 254.2 128.8 254.3 131.3 255.3 134.3 256.4 137.9 257.9 138 257.8 134.3 256.4 131.3 255.2 128.8 254.2"/>
    <polygon class="cls-7" points="165.3 268.6 156.1 265 156.1 265.1 165.2 268.7 165.3 268.6"/>
    <polygon class="cls-7" points="133 248.1 140 254.8 140.1 254.7 133 248 133 248.1"/>
    <polygon class="cls-7" points="161.1 274.8 154.1 268.1 154 268.2 161 274.9 161.1 274.8"/>
    <polygon class="cls-7" points="139.3 243.8 143.2 252.7 143.2 252.6 139.4 243.8 139.3 243.8"/>
    <polygon class="cls-7" points="154.8 279 150.9 270.2 150.9 270.2 154.7 279.1 154.8 279"/>
    <polygon class="cls-7" points="144.2 248.4 145 252.1 145.1 252.1 144.2 248.3 144.2 248.4"/>
    <polygon class="cls-7" points="143.5 279.3 144 276.8 143.9 276.8 143.4 279.3 143.5 279.3"/>
    <polygon class="cls-7" points="150.6 243.6 150.1 246 150.2 246 150.7 243.6 150.6 243.6"/>
    <polygon class="cls-7" points="138.1 274.5 136.7 276.6 136.7 276.6 138.2 274.5 138.1 274.5"/>
    <polygon class="cls-7" points="157.3 246.3 155.9 248.3 156 248.4 157.4 246.3 157.3 246.3"/>
    <polygon class="cls-7" points="131.6 271.6 133.7 270.2 133.7 270.2 131.5 271.6 131.6 271.6"/>
    <polygon class="cls-7" points="160.4 252.6 160.4 252.7 162.5 251.3 162.5 251.2 160.4 252.6"/>
    <polygon class="cls-7" points="131.3 264.6 131.2 264.5 128.7 265 128.8 265.1 131.3 264.6"/>
    <polygon class="cls-7" points="165.3 257.7 162.8 258.2 162.8 258.3 165.3 257.8 165.3 257.7"/>
    <polygon class="cls-7" points="128.7 258 131.2 258.5 131.2 258.4 128.7 258 128.7 258"/>
    <polygon class="cls-7" points="165.4 264.8 162.9 264.3 162.9 264.4 165.4 264.9 165.4 264.8"/>
    <polygon class="cls-7" points="131.4 251.5 133.5 252.9 133.6 252.8 131.5 251.4 131.4 251.5"/>
    <polygon class="cls-7" points="162.7 271.4 160.5 270 160.5 270.1 162.6 271.4 162.7 271.4"/>
    <polygon class="cls-7" points="136.5 246.4 137.9 248.5 138 248.4 136.5 246.4 136.5 246.4"/>
    <polygon class="cls-7" points="157.6 276.4 156.2 274.4 156.1 274.4 157.5 276.5 157.6 276.4"/>
    <polygon class="cls-7" points="143.2 243.6 143.2 243.6 143.7 246.1 143.8 246.1 143.2 243.6"/>
    <polygon class="cls-7" points="150.9 279.2 150.9 279.2 150.4 276.8 150.3 276.8 150.9 279.2"/>
    <polygon class="cls-7" points="149.9 274.5 149.1 270.8 149 270.8 149.8 274.5 149.9 274.5"/>
    <polygon class="cls-7" points="151.8 276.2 149.4 268.8 149.4 268.8 151.7 276.3 151.8 276.2"/>
    <polygon class="cls-7" points="142.3 246.6 144.6 254.1 144.7 254 142.4 246.6 142.3 246.6"/>
    <polygon class="cls-7" points="145.6 276.9 146.4 269.1 146.3 269.1 145.6 276.9 145.6 276.9"/>
    <polygon class="cls-7" points="148.4 246 147.7 253.7 147.8 253.7 148.5 246 148.4 246"/>
    <polygon class="cls-7" points="139.7 275.2 143.4 268.3 143.3 268.3 139.6 275.2 139.7 275.2"/>
    <polygon class="cls-7" points="154.4 247.7 150.7 254.5 150.8 254.6 154.4 247.7 154.4 247.7"/>
    <polygon class="cls-7" points="140.9 266.4 134.8 271.4 134.9 271.4 141 266.4 140.9 266.4"/>
    <polygon class="cls-7" points="153.1 256.4 153.2 256.5 159.3 251.5 159.2 251.4 153.1 256.4"/>
    <polygon class="cls-7" points="139.5 263.8 139.5 263.7 131.9 266.1 131.9 266.2 139.5 263.8"/>
    <polygon class="cls-7" points="162.2 256.7 154.6 259 154.6 259.1 162.2 256.8 162.2 256.7"/>
    <polygon class="cls-7" points="131.2 260.2 136 260.6 139.1 260.8 139.1 260.7 131.2 260.1 131.2 260.2"/>
    <polygon class="cls-7" points="162.9 262.7 155 262 155 262.1 162.9 262.8 162.9 262.7"/>
    <polygon class="cls-7" points="132.9 254.4 140 257.9 140 257.8 132.9 254.3 132.9 254.4"/>
    <polygon class="cls-7" points="161.2 268.5 154.1 264.9 154.1 265 161.2 268.6 161.2 268.5"/>
    <polygon class="cls-7" points="136.7 249.6 141.9 255.6 141.9 255.5 136.8 249.6 136.7 249.6"/>
    <polygon class="cls-7" points="157.4 273.2 152.2 267.3 152.2 267.4 157.3 273.3 157.4 273.2"/>
    <polygon class="cls-7" points="154.6 275.1 150.8 268.2 150.8 268.3 154.5 275.1 154.6 275.1"/>
    <polygon class="cls-7" points="143.3 254.6 139.5 247.7 139.5 247.8 143.2 254.6 143.3 254.6"/>
    <polygon class="cls-7" points="148.7 276.9 147.9 269.1 147.8 269.1 148.6 276.9 148.7 276.9"/>
    <polygon class="cls-7" points="145.4 246 146.2 253.7 146.3 253.7 145.5 246 145.4 246"/>
    <polygon class="cls-7" points="144.7 268.8 142.5 276.3 142.5 276.3 144.8 268.9 144.7 268.8"/>
    <polygon class="cls-7" points="149.3 254 151.6 246.6 151.5 246.6 149.3 254 149.3 254"/>
    <polygon class="cls-7" points="142 267.4 137 273.5 137.1 273.5 142.1 267.5 142 267.4"/>
    <polygon class="cls-7" points="152.1 255.4 157.1 249.4 157 249.3 152 255.4 152.1 255.4"/>
    <polygon class="cls-7" points="140 265.1 133 268.8 133.1 268.9 140.1 265.2 140 265.1"/>
    <polygon class="cls-7" points="154 257.8 161 254 161 254 154 257.7 154 257.8"/>
    <polygon class="cls-7" points="131.2 263.1 136 262.6 139.1 262.3 139.1 262.2 131.2 263.1 131.2 263.1"/>
    <polygon class="cls-7" points="162.9 259.7 154.9 260.6 154.9 260.6 162.9 259.8 162.9 259.7"/>
    <polygon class="cls-7" points="139.4 259.2 131.8 257.1 131.7 257.1 139.4 259.3 139.4 259.2"/>
    <polygon class="cls-7" points="162.3 265.7 154.7 263.6 154.7 263.6 162.3 265.8 162.3 265.7"/>
    <polygon class="cls-7" points="140.9 256.6 134.6 251.7 134.6 251.8 140.8 256.6 140.9 256.6"/>
    <polygon class="cls-7" points="159.5 271.1 153.3 266.2 153.2 266.3 159.5 271.2 159.5 271.1"/>
    <path class="cls-4" d="M144.6,264c.1.2.3.5.5.6.8.5,1.5,1.1,2.3,1.5.1,0,.2,0,.3-.1,1-.7,1.9-1.5,2.9-2.2,0,0,.1-.2.2-.3v-1.9c0-.3,0-.7-.2-1-.4-1-1-1.9-1.9-2.5-.4-.3-.7-.5-1.1-.7-.2-.1-.4-.2-.7,0-.5.4-1,.8-1.6,1.2-.4.3-.9.7-1.3,1,0,0-.2.2-.2.3,0,.9,0,1.9.2,2.8,0,.5.3.9.5,1.3h.1Z"/>
    <path class="cls-4" d="M147.5,256.7c.7.5,2.9,2,3.5,2.3.7-.3,1.4-.7,2.1-1h0v-.2c-.4-.4-.8-.8-1.2-1.1-1.1-1-2.2-1.9-3.4-2.8-.3-.2-.6-.4-.9-.6-.1,0-.3,0-.3.2v3.3h.2Z"/>
    <path class="cls-5" d="M144.1,259.1c.9-.7,1.8-1.5,2.8-2.2.2-.1.3-.3.3-.5v-1.4h0v-1.1c0-.2,0-.5-.2-.5s-.4.2-.5.3c-.2.2-.4.3-.5.5-1.3,1.2-2.6,2.5-3.9,3.7-.6.6-.7.6.2.9.5.1.9.4,1.3.5h.6v-.2Z"/>
    <path class="cls-5" d="M147.4,269.9v-1.6h0v-1.4c0-.2-.1-.4-.3-.5-.9-.6-1.9-1.3-2.8-1.9,0,0-.1,0-.2-.1h-.3c-.2.1-.5.3-.7.4-.3.2-.5.5-.6.8s0,.6.2.9h.1c1.3,1.3,2.7,2.4,4.1,3.4,0,0,.2.1.3.1h.2Z"/>
    <path class="cls-4" d="M149.4,265.1c-.5.4-.9.7-1.4,1.1-.2.2-.3.4-.3.6v1.3h0v1.6s.1.1.2,0c.2,0,.3-.2.4-.3,1.3-1.1,2.5-2.2,3.7-3.3h.1c.4-.5.4-.9.1-1.4-.1-.2-.2-.3-.4-.4s-.4-.2-.6-.3h-.6c-.4.3-.9.7-1.3,1h.1Z"/>
    <path class="cls-4" d="M153.4,264.5s.1,0,.1-.1v-5.5c-.2-.3-.8-.4-1.1-.3-.4.2-.8.4-1.2.7v4.1s.1.1.2.2c.6.4,1.2.6,1.9.9h.2,0Z"/>
    <path class="cls-5" d="M141.4,264.7h0c0,.2.2.3.3.3.6-.2,1.2-.6,1.7-.9.2-.1.3-.3.3-.6v-2.8c0-1.1.1-1-1.1-1.5h-.6c-.7.2-.9.5-.9,1.2v1.4c0,1,.1,1.9.2,2.9h.1Z"/>
    <path class="cls-4" d="M144.6,94.3c.1.2.3.5.5.6.8.5,1.5,1.1,2.3,1.5.1,0,.2,0,.3,0,1-.7,1.9-1.5,2.9-2.2,0,0,.1-.2.2-.3v-1.9c0-.3,0-.7-.2-1-.4-1-1-1.9-1.9-2.5-.4-.3-.7-.5-1.1-.7-.2,0-.4-.2-.7,0-.5.4-1,.8-1.6,1.2-.4.3-.9.7-1.3,1,0,0-.2.2-.2.3,0,.9,0,1.9.2,2.8,0,.5.3.9.5,1.3h.1Z"/>
    <path class="cls-4" d="M147.5,87c.7.5,2.9,2,3.5,2.3.7-.3,1.4-.7,2.1-1h0v-.2c-.4-.4-.8-.8-1.2-1.1-1.1-1-2.2-1.9-3.4-2.8-.3-.2-.6-.4-.9-.6-.1,0-.3,0-.3.2v3.3h.2Z"/>
    <path class="cls-5" d="M144.1,89.5c.9-.7,1.8-1.5,2.8-2.2.2,0,.3-.3.3-.5v-1.4h0v-1.1c0-.2,0-.5-.2-.5s-.4.2-.5.3c-.2.2-.4.3-.5.5-1.3,1.2-2.6,2.5-3.9,3.7-.6.6-.7.6.2.9.5,0,.9.4,1.3.5h.6v-.2Z"/>
    <path class="cls-5" d="M147.4,100.3v-1.6h0v-1.4c0-.2-.1-.4-.3-.5-.9-.6-1.9-1.3-2.8-1.9,0,0-.1,0-.2,0h-.3c-.2,0-.5.3-.7.4-.3.2-.5.5-.6.8s0,.6.2.9h.1c1.3,1.3,2.7,2.4,4.1,3.4,0,0,.2,0,.3,0h.2Z"/>
    <path class="cls-4" d="M149.4,95.5c-.5.4-.9.7-1.4,1.1-.2.2-.3.4-.3.6v1.3h0v1.6s.1,0,.2,0c.2,0,.3-.2.4-.3,1.3-1.1,2.5-2.2,3.7-3.3h.1c.4-.5.4-.9.1-1.4-.1-.2-.2-.3-.4-.4l-.6-.3h-.6c-.4.3-.9.7-1.3,1h.1Z"/>
    <path class="cls-4" d="M153.4,94.9s.1,0,.1,0v-5.5c-.2-.3-.8-.4-1.1-.3-.4.2-.8.4-1.2.7v4.1s.1,0,.2.2c.6.4,1.2.6,1.9.9h.2,0Z"/>
    <path class="cls-5" d="M141.4,95.1h0c0,.2.2.3.3.3.6-.2,1.2-.6,1.7-.9.2,0,.3-.3.3-.6v-2.8c0-1.1.1-1-1.1-1.5h-.6c-.7.2-.9.5-.9,1.2v1.4c0,1,.1,1.9.2,2.9h.1Z"/>
  </g>
  <g>
    <g class="cls-15">
      <text class="cls-9" transform="translate(92.1 252.7) rotate(-5) skewX(-5)"><tspan x="0" y="0">Yorden</tspan></text>
    </g>
    <g class="cls-15">
      <text class="cls-12" transform="translate(92.1 252.7) rotate(-5) skewX(-5)"><tspan x="0" y="0">Yorden</tspan></text>
    </g>
    <g class="cls-15">
      <text class="cls-11" transform="translate(92.1 252.7) rotate(-5) skewX(-5)"><tspan x="0" y="0">Yorden</tspan></text>
    </g>
    <g>
      <g class="cls-15">
        <text class="cls-13" transform="translate(92.1 252.7) rotate(-5) skewX(-5)"><tspan x="0" y="0">Yorden</tspan></text>
      </g>
      <g class="cls-15">
        <text class="cls-10" transform="translate(92.1 252.7) rotate(-5) skewX(-5)"><tspan x="0" y="0">Yorden</tspan></text>
      </g>
    </g>
    <g class="cls-15">
      <text class="cls-17" transform="translate(92.1 252.7) rotate(-5) skewX(-5)"><tspan x="0" y="0">Yorden</tspan></text>
    </g>
  </g>
  <g>
    <g class="cls-15">
      <text class="cls-16" transform="translate(283.9 259) rotate(-4.7) skewX(-4.7)"><tspan x="0" y="0">Professional</tspan></text>
    </g>
    <g class="cls-15">
      <text class="cls-14" transform="translate(283.9 259) rotate(-4.7) skewX(-4.7)"><tspan x="0" y="0">Professional</tspan></text>
    </g>
  </g>
</svg>