<?xml version="1.0" encoding="UTF-8"?>
<svg id="Layer_1" data-name="Layer 1" xmlns="http://www.w3.org/2000/svg" version="1.1" viewBox="0 0 133.1 66.9">
  <defs>
    <style>
      .cls-1 {
        fill: #2d4473;
        fill-rule: evenodd;
        stroke-width: 0px;
      }
    </style>
  </defs>
  <path class="cls-1" d="M27.2,22.1h0c-1.4-1-3.1-1.6-4.9-1.6-3.5,0-6.9,1.2-9.5,3.7-2.6,2.4-4,5.7-4.1,9.3-.1,5.1,1.6,9.7,5.1,13.2,4.8,4.9,12.5,7.5,22.4,7.5h66.9c8.2,0,9.5-4.4,9.5-4.6,0-.2.2-.4.5-.5.2,0,.5,0,.7.1,0,0,5.5,4.2,16.5,5,.4,0,.7.4.7.8,0,.4-.3.7-.7.7H36.3c-10.3,0-18.4-2.7-23.5-7.9-5.6-5.7-6-12.6-5.5-19.9.9-12.6,14.9-22,26.8-13.6.4.1.6.5.5.9,0,.4-.5.6-.9.5-8.8-5.1-22.9-1.1-24.7,11.4.7-1.4,1.7-2.8,2.9-3.9,2.8-2.7,6.6-4.2,10.5-4.1,1.9,0,3.6.6,5.2,1.6h0c3.9,2.1,5.8,5.9,5.8,5.9,1.9,4.2.9,7.8-.2,9.9-2.2,3.6-6.7,5.3-10.5,4.1-2.7-.8-4.9-3.5-3.9-6.4.9-2.8,6-4.3,7.5-.7.3.6.3,1.4.1,2-.2.5-.5.9-.8,1.1-1,.7-2.3.5-3.1-.5-.9-1-.3-2.6,1-2.9.6-.1,1.3.3,1.4,1,.2.8-.7,1.6-1.3,1.2.7.5,1.6-.4,1.4-1.2-.2-.7-.8-1.2-1.6-1.1-1.7.2-2.4,2.8-1.7,4.1,1.4,2.7,3.8,2.6,3.8,2.6-1.7-1-.4-2.7,1.6-1.6,2.4,1.4,5.7-4.6,5.4-7.8-.3-3.3-2.4-6.3-5.3-8.2h0ZM72.5,38.7c1.8-2.4,6.3-3.2,9.2-.8.8.6,1.1,1.2.6-.5-2-6.2-9.5-7.8-12.9,0-1.3,3.6-3.3,7.3-6.5,9.4h0s0,0,0,0c-1,.7-2.2,1.2-3.5,1.5.1,0,0,0-.4,0h-1.8c-.3,0-.6,0-.9,0h-1.9c1.3-.5,2.5-1.2,3.5-2.1,1.3-1.2,2-2.7,2-4.5s-2.7-5-6.3-5-.7.3-.7.6c0,.3.1.7.4.8,1.4.6,2.2,2.4,1.8,4.2-.6,2.9-4.1,6-12.1,5.9,0,0-.1,0-.2,0h-1.2c10-2.9,9.6-17.1,3.2-20.7-2.8-1.6-7.9-1.8-7.6,2.3,0-.2,0-.4.2-.7,0-.2.2-.4.4-.6,1.7-2.1,5-.4,6.6.9-1.8-1.5-5.4-2.9-6.5.3,6.1-7.1,18.2,18.4-3.8,18.6-8.5,0-15.7-3.5-18.5-8.7-1.7-3.2-1.4-6.6,1.5-9,.7-.7,4-2.4,2.5-4-1.2-1.2-3.3.3-4.3,1.8-2.2,2.9-3,6.8-1.8,10.2,2.4,6.5,10.7,11,20.3,11.2,0,0,0,0,0,0,0,0,.1,0,.2,0,.1,0,.3,0,.4,0h9.7c.2,0,.3,0,.5,0s.3,0,.4,0h40.8c.4,0,.7-.3.7-.7,0-.4-.3-.7-.7-.8-2.6-.3-9.8-1.7-12-3.6-.2-.1-.4-.2-.6-.2-.2,0-.4.2-.5.3,0,.1-2.3,3.5-6.8,3.5h-1.4s-1.4,0-1.4,0c4.1-2,6.7-6.1,9.2-9.7Z"/>
</svg>