<?xml version="1.0" encoding="UTF-8"?>
<svg id="Layer_1" data-name="Layer 1" xmlns="http://www.w3.org/2000/svg" version="1.1" viewBox="0 0 133.1 66.9">
  <defs>
    <style>
      .cls-1 {
        fill: #2d4473;
        fill-rule: evenodd;
        stroke-width: 0px;
      }
    </style>
  </defs>
  <path class="cls-1" d="M105.1,22.1c-2.8,1.9-5,4.9-5.3,8.2-.3,3.3,3.1,9.2,5.4,7.8,2-1.1,3.3.6,1.6,1.6,0,0,2.4,0,3.8-2.6.6-1.2,0-3.8-1.7-4.1-.7-.1-1.4.4-1.6,1.1-.2.8.7,1.7,1.4,1.2-.6.4-1.5-.4-1.3-1.2.2-.6.8-1.1,1.4-1,1.3.2,1.9,1.8,1,2.9-.8.9-2.1,1.1-3.1.5-.3-.2-.7-.6-.8-1.1-.2-.7-.2-1.4.1-2,1.5-3.6,6.6-2.1,7.5.7,1,2.9-1.1,5.6-3.9,6.4-3.8,1.2-8.3-.5-10.5-4.1-1.1-2.1-2.1-5.6-.2-9.9,0,0,1.9-3.9,5.8-5.9h0c1.5-1.1,3.3-1.6,5.2-1.6,3.9,0,7.7,1.4,10.5,4.1,1.2,1.2,2.2,2.5,2.9,3.9-1.8-12.5-15.9-16.5-24.7-11.4-.4,0-.8-.2-.9-.5,0-.4.1-.8.5-.9,11.9-8.3,25.9,1,26.8,13.6.5,7.3,0,14.2-5.5,19.9-5.1,5.2-13.2,7.9-23.5,7.9H2c-.4,0-.7-.3-.7-.7,0-.4.3-.7.7-.8,11-.8,16.4-4.9,16.5-5,.2-.2.5-.2.7-.1.2,0,.4.3.5.5,0,.2,1.3,4.6,9.5,4.6h66.9c9.9,0,17.6-2.6,22.4-7.5,3.4-3.5,5.2-8.1,5.1-13.2,0-3.5-1.5-6.8-4.1-9.3-2.6-2.4-5.9-3.7-9.5-3.7-1.8,0-3.5.6-4.9,1.7h0ZM69,48.4h-2.7c-4.5,0-6.7-3.3-6.8-3.5-.1-.2-.3-.3-.5-.3-.2,0-.4,0-.6.2-2.2,2-9.4,3.3-12,3.6-.4,0-.7.4-.7.8,0,.4.4.7.7.7h40.8c.1,0,.3,0,.4,0s.3,0,.5,0h9.7c.1,0,.3,0,.4,0,0,0,.1,0,.2,0s0,0,0,0c9.6-.2,17.9-4.7,20.3-11.2,1.2-3.4.5-7.4-1.8-10.2-1-1.4-3.1-3-4.3-1.8-1.5,1.6,1.8,3.3,2.5,4,3,2.4,3.3,5.8,1.5,9-2.8,5.2-10.1,8.6-18.5,8.7-22-.2-9.9-25.6-3.8-18.6-1.2-3.2-4.8-1.7-6.5-.3,1.6-1.4,4.9-3,6.6-.9.2.2.3.4.4.6.1.3.2.5.2.7.4-4.1-4.8-3.9-7.6-2.3-6.4,3.6-6.8,17.9,3.2,20.7h-1.2c0,0-.1,0-.2,0-7.9.2-11.4-2.9-12.1-5.9-.4-1.8.4-3.6,1.8-4.2.3-.1.5-.5.4-.8,0-.3-.4-.6-.7-.6-3.5,0-6.3,2.7-6.3,5s.7,3.3,2,4.5c.9.9,2.2,1.5,3.5,2.1h-1.9c-.3,0-.6,0-.9,0h0s-1.8,0-1.8,0c-.3,0-.5-.1-.4,0-1.3-.3-2.4-.8-3.5-1.5h0c-3.2-2.2-5.2-5.9-6.5-9.4-3.4-7.8-10.9-6.2-12.9,0-.5,1.7-.2,1.2.6.5,2.9-2.4,7.4-1.6,9.2.8,2.5,3.6,5.1,7.7,9.2,9.7Z"/>
</svg>