<?xml version="1.0" encoding="UTF-8"?>
<svg id="Layer_1" data-name="Layer 1" xmlns="http://www.w3.org/2000/svg" version="1.1" viewBox="0 0 890.7 1094.5">
  <defs>
    <style>
      .cls-1 {
        fill: #fef7e5;
        stroke-width: 0px;
      }
    </style>
  </defs>
  <path class="cls-1" d="M450.6,425.4v2.4c-.5.1-1.1.3-1.6.4-4.1.4-7,2.6-8.9,6.2-1.8,3.2-3.5,6.4-5.2,9.6-2.4,4.5-5.5,8.5-8.5,12.5-.4.5-.8,1-1.2,1.6.4.5.6,1,1,1.4,2.3,2.4,4.5,4.9,7.4,6.7,2.9,1.8,6,2.9,9.4,2.8,3.5,0,6.3-1.4,8.6-4,.6-.7,1.3-1.4,2-2.3.6.5,1.2.9,2,1.5-.6,1.1-1.1,2.2-1.8,3.2-1.8,2.8-3.7,5.4-6.5,7.2-5.9,3.8-12.1,4.1-18.5,1.1-3.8-1.8-6.8-4.6-9.8-7.3-.4-.4-.9-.8-1.4-1.2-1.2,1-2.4,2-3.6,2.9-8.6,6.7-18.3,9.4-29,6.9-7.8-1.8-12.8-8.2-13.2-16.2-.3-6.8,1.9-12.7,6.6-17.7,3.5-3.7,7.6-6.7,12-9.3,1.4-.8,2.7-1.6,4.2-2.5-.6-1.6-1.2-3.1-1.7-4.5-1.6-4.4-2.6-8.9-2.3-13.5.3-4.8,2-9,5.4-12.4,4.1-4.3,9.2-5.6,14.9-4.9,3.8.4,7.2,1.8,9.9,4.6,1.7,1.7,2.8,3.7,3.2,6,.9,4.6.3,9-2.4,13-1.6,2.3-3.7,4.1-6,5.6-2.8,1.9-5.8,3.7-8.9,5.7,4.4,8.2,9.1,16.3,15.3,23.8.8-1,1.5-2,2.3-2.9,3-4.1,5.8-8.3,7.2-13.3.5-1.6.9-3.4.9-5.1.1-2.7-1.2-4.1-3.8-4.7-1.1-.2-2.1-.4-3.4-.6,0-.7-.1-1.5-.2-2.5h25.5,0ZM414.4,463.6c-.6-.8-1.1-1.5-1.6-2.1-3.8-4.9-7.2-9.9-10.3-15.3-1.7-3-3.4-6-5.1-9-.3-.5-.6-.9-.9-1.4-3.5,1.8-6.4,4.1-8.8,6.9-5,5.9-6.3,12.6-3.1,19.6,3,6.6,8.2,9.7,15.3,8.7,5.6-.8,10.4-3.4,14.6-7.5h0ZM404.7,426.6c3.9-2.3,7.6-4.7,10.3-8.3.6-.8,1.1-1.6,1.5-2.5,1.5-3,1.9-6.2.9-9.5-1.2-4-4.4-6.6-9.1-6.5-4.8.1-7.4,3.4-8,7.4-.3,2-.3,4.2,0,6.3.6,4.6,2.3,8.9,4.4,13.2h0Z"/>
  <g>
    <path class="cls-1" d="M174.3,235.4c-1.8,3.6-4.7,3.7-7.9,3.4-2.8-.3-5.7-.3-8.8-.4-.3-1.1-.6-2.3-1-3.7,2.1-1,4.4-1.9,4-4.8-.3-2.3-2-3.1-4.2-3.2,0-2.1,1.9-2.2,2.8-3.5-4.1-16.7-6.3-33.9-9.5-50.9-.4,2.7-.9,5.3-1.3,8-1.5,9.8-3,19.7-4.5,29.5-.4,2.7.2,4.7,2.8,5.9.2,0,.3.3.5.5-1.4,1.2-2.7,2.3-3.9,3.5-1.6,1.5-2.6,3.4-3.1,5.6-1.4,6.4-3,12.8-4.2,19.2-.5,2.8-.4,5.7-.2,8.5.1,2.4,1.2,4.5,3.6,5.2,1-.9,1.9-1.8,2.9-2.4,1.6-1,3.3-.8,4.3.3,1,1,1.2,3.5.1,4.8-1.7,2.2-3.9,3.7-6.8,3.8-4.4.1-8.6-1-12.6-2.7-4.9-2.1-9.5-4.9-13.3-8.7-.3-.3-.7-.6-1.1-.9-3.3,1.8-6.6,2.6-10.2,0,.8-.4,1.2-.7,1.7-.9,3-1,4.4-3.3,5-6.1.1-.7-.1-1.5-.5-2.2-2.8-5.5-7.1-6.9-12.6-5.8-3.5.7-6.2,2.8-8.1,5.8-2.2,3.4-1.1,7.1,2.5,9,.7.4,1.3.7,2.2,1.2-.3.6-.5,1.2-.9,1.6-4.2,4.3-9.5,3.5-12.4.5-3.7-3.7-4.3-8.3-2.7-13.1,2.4-7.1,7.8-11.2,14.8-13.1,4.9-1.3,9.8-1.1,14.4,1.6.2.1.4.1.9.3-.4-2.9-.9-5.8-1.3-8.5-2.6-15.9-5.8-31.8-9.2-47.6,0-.3-.2-.6-.2-.9-.8-4.1-2.6-7.4-6.9-9,.2-.4.3-.7.5-.8,2.9-2.1,3.4-5,2.8-8.3-2.5-12.5-5-25-7.5-37.5-1.4-6.8-2.6-13.7-4-20.5-.3-1.4-.8-2.8-1.4-4.2-.4-.8-1-1.6-1.6-2.2-1.5-1.6-3.6-2.1-5.3-1.3-2,.9-2.7,2.7-2.8,4.7,0,1.6,1,3,2.4,3.2,1.2.2,1.8-.3,2.6-2.1,0-.2.2-.4.3-.6,0,0,.1,0,.2-.1,2.3,1.6,3,4.7,1.2,7-1.9,2.6-4.5,3.9-7.8,3.4-6.7-1.1-10.2-6.8-7.8-13.2.9-2.5,2.3-4.6,4.4-6.1,3-2.2,4.1-4.9,3.2-8.5,0-.4,0-.9,0-1.6,4.1,4,9,3.8,13.8,3,6.4-1.1,12.7-2.7,19-4.1,2.7-.6,5.4-1.1,8.4-1.6.3,1.6.5,3.1.7,4.5-6,2.4-7.4,4.3-7.2,10.2.2,5.6,3.9,7.6,9.1,7.9-1.2,3-3.8,3.8-6.1,5.1,0,.5,0,1,.1,1.5,2.7,14.5,5.5,28.9,8.2,43.4,2.4,12.5,4.7,25,7.1,37.5,1.6,7.9,3.3,15.9,5,23.8.1.7.4,1.3.9,2,.2-1.5.5-3,.8-4.5,2.1-13.5,4.3-27,6.4-40.5,2.2-14.2,4.4-28.4,6.7-42.6.6-3.8,1.3-7.6,2.9-11.2.3-.6.5-1.1.8-1.7,4-7.4,13-9.2,19.6-3.9.3.3.6.7,1.1,1.3h-1.6c-1.1,0-1.8.6-1.9,1.6-.2,1.1-.4,2.3-.2,3.4,1.7,10.1,3.4,20.2,5.2,30.3,1.6,9.2,3.1,18.4,4.7,27.6,1.7,10,3.5,19.9,5.2,29.9,0,.5.3,1,.8,1.5.6-3.1,1.2-6.2,1.8-9.2,3.4-17.9,6.7-35.8,10.1-53.8,1.2-6.5,2.4-13.1,3.6-19.6.9-4.8-.9-8.1-5.4-10-.3-.1-.5-.3-.9-.5,2.2-3.2,5.7-3.2,9-4,.6-3.2,1.3-6.5,1.9-9.8,1-5.2,1.9-10.5,2.7-15.8.3-2,.3-4,.2-6-.2-2.5-.9-3-3.4-3.6-1.9-.4-3.9-1.1-5.7-1.8-1.8-.8-2.8-2.4-3.2-4.3-.3-1.5.4-3.2,1.7-4,1.1-.7,2.2-.7,3,0,.8.8.9,1.7.2,2.9-.2.3-.5.6-.8,1,1.4.9,2.8.8,4.2.7,3.8-.2,7.2-1.6,10.6-3.1.8-.4,1.7-.8,2.7-1.2.2,2.1.3,4.1,2.9,4.2,1.9,0,3.7-1.1,4.3-2.9.6-1.7,0-2.8-2.2-4.3.1-.2.2-.4.4-.6,3.8-3.5,7.5-6.9,11.3-10.3,2.3-2.1,4.5-4.3,6.9-6.1,3.8-2.9,8.1-4.4,13-4,3.5.3,6.2,1.8,7.7,5.1,1.4,3.2,1.1,6.3-1.1,9.1-1.3,1.6-2.9,2.7-5.1,2.9-.3-2.7-.8-5.3-3.6-6.2-3.1-1-6-.3-8.4,1.9-3.3,3-4.1,6.8-2.6,11,.3.7.5,1.4.8,2-.2.2-.4.3-.5.3-5.6.6-10.4,4.9-11.5,10.4-.6,2.8,0,4.5,2.7,7.1-1.6,2.2-4,2.3-6.6,2.4-.2,1-.4,2.1-.6,3.1-2.9,14.8-5.9,29.6-8.9,44.5-2.9,14.4-5.7,28.9-8.6,43.3-2.8,13.8-5.6,27.7-8.4,41.5-.4,2.2-1,4.4-1.4,6.6-1,5.5.1,10.8,2.6,15.7,1.1,2.2,3.1,3.4,5.9,3.1-.3,1.8-.6,3.4-.8,4.9-5.1.8-10,.9-14.9-.3-3.9-1-7.1-3-9.1-6.6-.1-.3-.4-.5-.8-1.1h0Z"/>
    <path class="cls-1" d="M548.8,332.9c5.7-14.4,11.4-28.9,17.1-43.3.9,0,1.7-.1,2.4-.1,26.5,0,53.1,0,79.6,0,1.7,0,2.6.5,3.5,1.9,8.1,13.2,16.4,26.4,24.6,39.5,2,3.3,4,6.6,6.1,9.9.3.5.6.9,1,1.4.7-.8.4-1.6.4-2.2,0-11.6,0-23.2,0-34.8s0-4.8,0-7.2c0-3.4-.9-4.7-4.2-5.8-.4-.1-.7-.3-1.1-.5v-2.2h69.3v15.4c-1,0-2,.1-3,.2-.2-1.1-.4-2.1-.5-3.1-.5-4.5-3.3-7.2-7.3-8.7-3.5-1.4-7.2-1.4-11.2-1.4,0,.7-.2,1.4-.2,2.1,0,16.4,0,32.8,0,49.2,0,2,.9,3.4,2.7,4.2.9.4,1.9.7,2.9,1.1,0,.6,0,1.2.2,2.1h-24.2v-2.2c.5-.2,1-.4,1.5-.5,2.1-.6,3.9-2.1,3.9-5.3,0-12.7,0-25.4,0-38.1v-12.4c-.7,0-1.3-.2-1.9-.2-2.8.3-5.8.3-8.5,1-4.6,1.1-8.4,5-8.5,10.6,0,.4-.2.9-.3,1.4h-3v-12.4c-2.8.9-3.7,2-3.8,4.5,0,3.6,0,7.1,0,10.7,0,11.4,0,22.8,0,34.1,0,4,1.6,5.6,4.7,6.4.3,0,.6.2.9.4v2.3h-4.5c-3.7,0-7.4,0-11.1,0-1.8,0-2.8-.5-3.7-2-6.7-10.8-13.4-21.5-20.1-32.3-3.7-5.9-7.4-11.8-11.1-17.7-.3-.4-.6-.9-1.2-1.7,0,.9,0,1.3,0,1.7,0,14.1,0,28.2-.2,42.2v1.2c0,3.4,1,4.7,4.2,5.7.3.1.6.2,1,.4,0,.7,0,1.4.1,2.2h-84.3c0-.6-.1-1.4-.2-2.2.8-.3,1.5-.4,2.1-.7,2-.9,3.3-2.3,3.3-4.6,0-14.6,0-29.2,0-43.9,0,0,0-.1-.3-.6-7.2,17.4-13.7,34.8-20.7,52h-3.4c-6.8-17.2-13.6-34.4-20.5-51.6-.1,0-.3,0-.4,0v1.3c0,13.9,0,27.7-.1,41.5,0,4,.8,5.1,4.8,6.3.2,0,.4.2.7.3v2.1h-13.6c0-.4-.2-.7-.2-1.1s0-.8.1-1c.2-.1.3-.3.5-.3,4.5-1.5,4.9-2,4.9-6.7,0-14.2,0-28.3,0-42.5,0-4.9-.4-5.4-4.9-7.1-.1,0-.3-.2-.5-.3,0-.3,0-.7,0-1.1s0-.6.2-1h18.7c5.8,14.5,11.5,28.9,17.2,43.4.2,0,.3,0,.5,0h0ZM631.7,347.9c3.7-.1,5.5-2.1,5.4-5.6,0-3,0-6.1,0-9.1,0-5,0-9.9,0-14.9,0-3.3,0-6.6,0-9.9,0-3.9.1-7.7,0-11.6,0-2.8-1.9-4.3-5.2-4.4v12.6h-2.8c-.2-2.8-.6-5.4-2.3-7.5-2.3-2.8-5.2-4.7-8.8-5-4.7-.4-9.4-.4-14.1-.5-.6,0-1.2,0-1.9.1v24.2c3.1,0,6,.1,8.9,0,2.1-.1,4.3-.5,6.4-1,3.3-.9,5.6-2.9,5.8-6.6,0-.1.2-.2.3-.4.3,0,.7,0,1,0,.4,0,.9,0,1.3.1.4,3.6.3,17.2-.2,18.8h-2.5c-.2-4.2-2.8-6.1-6.4-7.1-1.8-.5-3.8-.8-5.7-.9-3-.1-6,0-9,0v29.5c3.2,0,6.3,0,9.4,0,2.4,0,4.8-.1,7.2-.5,5.7-.8,9.9-5.3,10.5-11,0-.4,0-.9.1-1.5.5,0,1-.1,1.4-.1s.7,0,1.4.2v12.4h0ZM578.3,320.4c0,7.5,0,15,0,22.5,0,2.6,1.2,4.2,3.4,5,2.1.7,4.7-.1,6.1-1.9.9-1.2.9-2.6.9-4v-43.6c0-.6,0-1.2,0-1.9-.4-2.9-3.4-5-6.3-4.3-2.7.6-4,2.3-4,5.2,0,7.7,0,15.3,0,23Z"/>
    <path class="cls-1" d="M236.1,292.1v12.9h-2.9c0-.8-.1-1.5-.2-2.1-.9-5.4-4.7-9.3-10.2-10.3-5.5-1-11.1-.4-16.8-.6v24.3c3.2,0,6.2,0,9.3,0,1.7,0,3.4-.4,5-.8,3.8-.9,6.6-2.7,6.7-7.2h2.5c.4,1.5.6,14.7.2,18.8-.8,0-1.6,0-2.3.1-.2-.2-.4-.3-.4-.4-.3-3.8-2.8-5.7-6.1-6.8-2.9-.9-11.2-1.5-15.1-.8v29c.3.1.4.3.6.3,5.2-.1,10.5,0,15.8-.5,3.9-.3,7.1-2.4,9.1-5.8,1.1-1.9,1.5-4.3,2.3-6.7h2.2v15.4c-16.1.1-32.2,0-48.5,0,0-.5-.2-.9-.2-1.2,0-.4,0-.8.1-1.2.6-.2,1.2-.3,1.8-.5,2.6-.8,3.8-2.3,3.9-5.1,0-1.9,0-3.9,0-5.8v-38.1c0-4.7-.6-5.5-5.1-7-.2,0-.4-.2-.7-.3v-2.1h70.9v2.2c-.3.1-.6.2-.8.3-1.8.8-2.2,1.6-1.6,3.5,1,2.8,2,5.5,3.1,8.2,3.5,9,7.1,18.1,10.6,27.1.3.7.6,1.4,1,2.4,1.3-3.2,2.5-6,3.6-8.9,3.6-9,7.2-17.9,10.8-26.9,1.3-3.1.8-4.4-2.1-6.1v-2h83c0,.8,0,1.4,0,2-.2.2-.3.4-.5.4-4.3,1.1-5.2,2.3-5.3,6.6,0,14.3,0,28.6,0,42.9,0,1.1,0,2.4.4,3.4.9,2.1,2.6,3.4,4.9,3.4,5.2.2,10.4,0,15.4-1.4,5.6-1.6,9.8-4.9,11.8-10.5.6-1.8.9-1.8,3.5-1.1-1.5,5.1-3,10.1-4.6,15.3h-98.5v-2.2c.4-.2.9-.4,1.3-.5,3.2-.8,4.4-2.3,4.4-5.6,0-8,0-15.9,0-23.9s0-13.9,0-20.9c0-2.8-1.1-4.4-3.4-5.2-1.9-.7-4-.1-5.4,1.6-.7.9-1.3,2-1.7,3-2.9,7.1-5.7,14.2-8.5,21.3-4.1,10.3-8.2,20.7-12.3,31-.2.4-.4.8-.6,1.3h-3c-.8-1.8-1.5-3.6-2.3-5.4-6.3-15.7-12.6-31.4-18.9-47.1-.4-1.1-.9-2.2-1.4-3.2-1.1-1.8-2.6-3-5.3-3h0ZM341.9,347.9c3.5,0,5.3-1.6,5.4-4.5,0-3.3,0-6.6,0-10,0-11.9,0-23.8,0-35.7,0-3.5-1.8-5.3-5.5-5.3v12.8c-1.1,0-1.9,0-2.7-.1-.3-2.7-.5-5.2-2.1-7.2-2.3-3.1-5.4-5-9.1-5.4-4.7-.4-9.4-.4-14.1-.5-.6,0-1.2,0-1.9.1v24.2c2.9,0,5.7.1,8.5,0,2.3-.1,4.6-.5,6.8-1.1,3.3-.9,5.6-2.9,5.8-6.6,0-.1.2-.2.4-.5.7,0,1.5,0,2.3.1.4,3.5.3,17.2-.1,18.8h-2.5c-.2-2.5-1.1-4.5-3.2-5.7-1.1-.6-2.2-1.2-3.4-1.4-1.8-.4-3.6-.8-5.5-.8-3-.1-6,0-9,0v29.5c2.7,0,5.2,0,7.8,0,2.9,0,5.7-.1,8.5-.5,5.6-.7,9.7-4.8,10.6-10.4.1-.7.1-1.4.2-2.1h2.8v12.4h0Z"/>
    <path class="cls-1" d="M337.8,136.1c-.7.3-1.2.4-1.7.6-1.5.6-2.4,1.7-3.1,3.2-2.5,5.2,1,13.8,4.8,16.2,1.9,1.2,3.9,2,6.1,1.9,5.4-.2,9.8-2.2,13.1-6.6,3.5-4.6,3.7-9.8,3.1-15.2-.4-3.8-1.8-7.1-4-10.2-3-4.3-7.1-7.5-11-10.8-6-5.2-13-9.1-18.6-14.9-3.6-3.8-7.1-7.6-8.4-12.8-.2-1.1-.8-2-1-3.1-.2-.9-.2-1.9-.2-2.9,0-.5.2-.9.1-1.4-.8-5.3,1.9-9.2,5.4-12.6,3.1-3.1,7.1-5,11.3-6.2,3.1-.9,6.3-1.7,9.4-2.3,2.2-.4,4.5-.5,6.7-.5,6.3,0,12.7-.3,19,.7,1.1.2,2.3.4,3.4.7,1.6.5,2.1,1.4,1.5,3-1.1,3.4-2.2,6.8-3.5,10.1-1.6,4.1-3.3,8.1-5,12.2-.6,1.4-.8,2.8-.5,4.6.6-.4,1.1-.7,1.5-1,2.4-1.6,5.4-1.5,7.2.4,1.1,1.2,1.2,2.4.2,3.7-2.4,3.1-7.7,4.7-11.5,3.3-5-1.8-7.1-5-6.5-10.3.2-2.3.6-4.5,1.4-6.8.8-2.4,1.1-5,1.3-7.5.2-2.2-1.1-3.8-3-4.6-5.2-2-10.4-2.6-15.2,1.8-.7.6-1.4,1.3-1.8,2.1-2.8,5.5-3.5,12.4.6,18.1,2.8,3.8,5.9,7.3,9.6,10.3,5.6,4.5,11.2,8.9,16.5,13.7,3.8,3.5,7.4,7.5,10.5,11.7,2.7,3.7,4.3,8.2,4.2,13,0,2-.1,4-.4,6-.1,1-.6,2.1-1,3.1-3.7,9.4-11,14.7-20.5,17-3.9.9-7.9,1-11.9,1.4-8.7.9-16.5-1.7-23.4-7-4.4-3.4-7.2-7.8-7.4-13.6,0-.4,0-.8-.1-1.1-1-6.9,2.5-12,9.3-13.4,2.9-.6,5.8-.3,8.7.6,2.7.9,3.9,2.8,4.6,5.6h0ZM363.4,67.1c.5,1.1.9,1.7,1.3,2.5.8-.3,1.5-.6,2.2-.9,0-.2,0-.4,0-.6-1-.3-2-.6-3.4-1h0ZM329.5,73.5l.2-.4c-3.9-1.9-4-1.9-4.8-.4.7-.1,1.5-.5,2.3-.3.8.2,1.5.8,2.3,1.2h0ZM333,68.9c-.7-.4-1.5-.9-2.4-1.5,0,.7,0,1.3.1,2,.9-.2,1.7-.4,2.3-.6ZM368.9,65.7c-.9-1-1.7-.8-2.7,0,1,.5,1.7.8,2.7,0ZM338.8,98.9c1.4.8,2.2.9,3.1,0h-3.1ZM320.6,83c1.4.4,2.2.6,3.1.8-.8-.5-1.4-1.5-3.1-.8ZM340.1,102.8v.5c.5,0,1-.2,1.6-.3,0-.2,0-.3,0-.5-.5,0-1,.1-1.5.2h0ZM365.7,130.8c-.4-.8-1-1.1-1.8-.9.7.4,1.1.6,1.8.9ZM331.1,75.1c.7.2,1.2.3,1.8.4-.4-1.2-.9-1.2-1.8-.4ZM356.3,115.1c-.1.3-.2.5-.3.8,0,0,.3.2.4.2.2-.2.3-.5.5-.7-.1,0-.2-.2-.5-.3Z"/>
    <path class="cls-1" d="M300.9,167.1c-.2,1.3-.4,2.4-.5,3.4-1.9.6-64.3,1-69.6.5-.2-1.1-.5-2.1-.7-3.4,1.2-.3,2.2-.4,3.2-.8,2.2-.6,3.1-1.8,3.1-4.1,0-9.7,0-19.3-.1-29,0-2.8-1.1-4.9-3.6-6.3-.3-.1-.5-.3-.9-.7.4-.3.7-.6,1.1-.8,2.5-1.5,3.5-3.8,3.4-6.7,0-4.6,0-9.3-.1-13.9,0-4.6,0-9.1,0-13.7,0-3.9-1-5-5-5.5-.3,0-.6,0-1.2-.2.2-1.2.3-2.4.5-3.8h63.6c-1.5,5.5-3.1,10.9-4.7,16.6-1.3.2-2.7.4-4.2.7,0-1.2.2-2.2.2-3.1,0-1.6-.9-2.5-2.5-2.8-.3,0-.6,0-.9,0h-31c.4.5.6.8.8.9,2,1.3,2.7,3.2,2.6,5.6,0,5.4,0,10.8,0,16.2v2.7c4.9,1.1,9.7,2.5,14.7,1.4,1-.2,1.9-.7,2.7-1.2,1.7-1.2,1.6-3.3-.1-4.5-.5-.4-1.2-.7-2.1-1.1,2.1-1.3,4-1.5,6-.6,1.8.8,2.9,2.1,2.9,4.3.1,3.6-1.9,6.1-4.2,8.4-2.4,2.4-5,4.6-7.5,6.9-.9.8-1.7,1.8-2.6,2.8-2.5-3-5.3-5.6-9.6-6.1,0,1.6-.2,2.9-.2,4.1,0,5.2.2,10.5.3,15.8,0,.8,0,1.6.2,2.3.4,1.9,1.8,2.8,3.6,3-.3,1.5-1.9,3.1-4.6,4.9.8,0,1.4.2,1.9.2,4,0,8.1,0,12.1-.1,1.2,0,2.5-.4,3.5-.9,2.9-1.3,5.2-3.3,7.2-5.7,1.9-2.3,3.6-4.8,5.5-7.2,1.4-1.7,2.8-3.3,4.3-4.8,2.4-2.2,5.3-2.8,8.4-2.5.7,0,1.4.2,1.5,1.1.1.9,0,1.8-1.1,2.1-3.5.9-4.7,3.8-5.4,6.8-.9,3.9-.6,7.7.7,11.4,1.4,3.9,3.7,7,8.5,7.2h0Z"/>
    <path class="cls-1" d="M460.2,240.4v29.5c0,4.7,1.3,6.4,5.9,7.8.3,0,.6.2,1,.3v3.2c-10.1.3-20.2.1-30.5.1v-3.4c1.1-.4,2.2-.7,3.2-1.1,2.4-1,3.8-2.9,3.9-5.5,0-.6,0-1.2,0-1.9v-62c.2-3.9-.6-6.6-6.2-8.1-.3,0-.6-.2-1-.3v-3.2c.7,0,1.3-.2,2-.2,12.6,0,25.2,0,37.8,0,6.7,0,13.2,1.5,19.1,4.9,3.8,2.1,6.9,4.9,9,8.8,4.2,7.5,2.6,16.4-3.9,22.6-2.6,2.4-5.6,4.1-8.9,5.4-.6.2-1.3.5-2.2.8.9,1.9,1.8,3.6,2.7,5.4,4.5,8.8,9.1,17.5,13.6,26.3,1.9,3.8,4.5,6.8,8.8,8.1v3.2h-31v-3.2c1-.4,1.9-.7,2.8-1.1,2.7-1.4,3.4-3.2,2-5.9-2.8-5.5-5.7-11-8.5-16.5-2.2-4.2-4.4-8.3-6.5-12.6-.6-1.2-1.3-1.7-2.7-1.6-3.4.1-6.8,0-10.5,0h0ZM460.3,237c4.8,0,9.2,0,13.7,0,5.9,0,10.2-2.6,13.1-7.6,3.5-6,4.2-12.4,2.2-19-1.8-6.2-6.7-11-14.5-11-4.2,0-8.5,0-12.8,0s-1.2.1-1.8.2v37.4h0Z"/>
    <path class="cls-1" d="M354.3,281.4v-3.3c.5-.1,1-.3,1.5-.5,4.2-1.2,5.7-3.1,5.7-7.5,0-8.4,0-16.7,0-25.1v-36.7c0-6-1.1-7.4-6.8-9,0,0-.1,0-.4-.2v-3.2c.9,0,1.6-.1,2.4-.1,12.2,0,24.5,0,36.7,0,6.2,0,12.2,1.1,17.8,3.6,4.7,2.1,8.6,5,11.2,9.6,3.2,5.6,2.7,12.3-1.3,17.4-2.7,3.4-6.2,5.8-10.2,7.4-.6.3-1.3.5-1.9.8-.1,0-.2.2-.3.3,2.8,1,5.7,1.9,8.4,3.1,4.6,2,8.6,4.8,11.7,8.8,5.2,6.9,4.9,16-1.5,22.9-4.9,5.2-11.1,8-17.8,9.8-4.9,1.3-9.9,1.9-14.9,2-12.7.1-25.4,0-38.1,0s-1.4,0-2.3-.1h0ZM378.1,277.9c.6,0,1,.2,1.4.2,5.2,0,10.4,0,15.5-.2,3.3,0,6.4-1,9.3-2.5,7.1-3.6,11.2-9.4,11.3-17.5.1-8.2-3.8-14.1-10.9-18.1-3-1.7-6.3-2.6-9.7-2.7-5.2-.1-10.5-.1-15.8-.1-.4,0-.7.1-1.1.2v40.6h0ZM378.2,233.1c.4.1.6.2.8.2,4.7,0,9.4,0,14.2,0,3.3,0,6.3-1.3,8.9-3.5,2.8-2.4,4.6-5.4,5.5-8.9,1.4-5.1,1.1-10-1.8-14.5-3-4.6-7.6-6.7-13-6.8-4.3-.1-8.7,0-13,0-.5,0-1,.1-1.5.2v33.4h0Z"/>
    <path class="cls-1" d="M683.1,281.5v-3.4c.8-.3,1.7-.5,2.6-.8,2.9-1.1,4.6-3,4.6-6.2s0-1.9,0-2.8v-59.6c0-.6,0-1.2,0-1.9,0-3.2-.8-5.4-5.2-6.9-.6-.2-1.2-.3-1.9-.5v-3.3c.8,0,1.6-.1,2.4-.1,12.2,0,24.5,0,36.7,0,5.4,0,10.6,1,15.6,3.2,10.6,4.8,17.5,12.9,21.1,23.9,2.2,6.7,2.9,13.6,2.2,20.6-.9,9.7-4.1,18.5-10.8,25.8-6.5,7-14.4,11-23.9,11.8-3.3.3-6.6.3-10,.3-10.1,0-20.1,0-30.2,0h-3.1ZM706.9,277.9c.6,0,1,.2,1.5.2,4.5,0,9,0,13.5,0,4.5,0,8.2-1.8,11.4-4.9,3.8-3.6,6.2-8.1,7.9-13,4.2-12.3,4.5-24.9,1.5-37.5-1.3-5.6-3.5-10.9-7.2-15.4-4.1-5.1-9.3-8-16-7.8-3.6.1-7.1,0-10.7,0s-1.2.1-1.9.2v78.3h0Z"/>
    <path class="cls-1" d="M601.8,199.3v-3.3c.9,0,1.8-.1,2.6-.1,6.3,0,12.7.1,19,.1,1.4,0,2.2.5,2.9,1.8,6.7,11.9,13.5,23.8,20.2,35.7,6.7,11.8,13.4,23.6,20.1,35.5.2.4.5.7,1.1,1.5v-62.6c0-4.9-1.3-6.7-5.9-8.1-.2,0-.4-.1-.8-.3v-3.3c5.6-.4,11.2,0,17,0v3.2c-.4.1-.9.3-1.4.5-3.8,1.1-5.5,3.3-5.5,7.2v32.7c0,9.9.1,19.8,0,29.7,0,5.2,2,7.5,6.9,8.6v3.2c-.7,0-1.3.1-1.9.1-6.2,0-12.4,0-18.6.1-1.7,0-2.6-.6-3.5-2.1-5.7-10.1-11.5-20.1-17.2-30.2-7.7-13.5-15.4-27-23.1-40.5-.4-.6-.8-1.2-1.2-1.8-.2,0-.3,0-.5.1v8.9c0,17.9,0,35.7,0,53.6,0,5.2,1.2,6.8,6.2,8.3.1,0,.3.1.5.2v3.2c-5.6.2-11.2.2-17,.1v-3.3c.1-.1.2-.2.4-.3,5-1.6,6.2-3.1,6.2-8.4,0-20.6,0-41.3,0-62,0-5-1.1-6.4-6-8-.2,0-.3-.1-.6-.3h0Z"/>
    <path class="cls-1" d="M536.9,278.2v3.1h-14.8v-3.2c4.7-.3,6.8-3.5,8.2-7.4,1.6-4.4,3.2-8.9,4.8-13.3,3.7-10.1,7.3-20.2,11-30.3,3.1-8.7,6.3-17.4,9.4-26.2.2-.6.4-1.2.6-1.7.9-2.3,2.6-3.3,5.3-3.1.8,2.1,1.7,4.3,2.5,6.5,4.5,12.3,9,24.6,13.4,37,3.7,10.2,7.4,20.5,11.1,30.7.5,1.2.9,2.5,1.5,3.6,1.3,2.2,3.1,3.9,5.9,4,.4,0,.7.2,1.2.4v3h-28.7v-2.9c0,0,.2-.2.3-.3,2.9-1,3.5-2,3.2-5,0-.1,0-.3,0-.5-2-5.9-4.1-11.8-6.1-17.7h-25.5c-.5,1.6-1.1,3.3-1.7,4.9-1.3,3.7-2.6,7.4-3.9,11.1-.2.7-.5,1.5-.6,2.2-.5,2.8.3,4.1,3.1,5h0ZM564.1,251.4c-3.8-10.4-7.6-20.6-11.4-31-1.6,3-10.9,29.3-11,31h22.4Z"/>
    <path class="cls-1" d="M127.7,350.7c0-.7,0-1.4-.1-2.2.7-.2,1.4-.4,2-.6,2.2-.8,3.7-2.3,3.7-5,0-15.2,0-30.3,0-45.5,0-2.7-1.1-4.2-3.6-5-.6-.2-1.3-.4-2-.6v-2.2c.8,0,1.5-.1,2.2-.1,9.8,0,19.5-.1,29.2,0,9.4.2,17.5,3.6,23.5,11,3.8,4.7,5.8,10.2,6.4,16.1.8,7.4-.7,14.5-4.8,20.8-5.6,8.6-13.9,12.9-24,13.2-10.4.3-20.9,0-31.3.1-.4,0-.8,0-1.2-.1h0ZM146.6,291.9c-.6,3.1-.4,54.7.1,56.5,3.9,0,7.9.1,11.8,0,3.2-.1,6-1.3,8.4-3.4,2.5-2.2,4.3-4.8,5.6-7.9,3.5-8.1,4.1-16.6,2.6-25.2-.8-4.4-2.2-8.5-4.7-12.2-2.4-3.5-5.4-6.2-9.6-7.1-4.7-1.1-9.5-.4-14.2-.5h0Z"/>
    <path class="cls-1" d="M427.1,350.8c-5.6,0-11.1-.9-16.1-3.5-7.3-3.7-12.2-9.4-14.6-17.1-2.5-7.7-2.2-15.3,1-22.7,4.4-10.2,12.4-15.7,23.1-17.5,6-1,12-.8,17.9,1,12.1,3.7,19.5,13,21.2,25.3,1,7.6-.6,14.7-4.8,21-5.9,9-14.8,13-25.3,13.5-.8,0-1.5,0-2.3,0h0ZM408.2,320.8c.1,1.6.3,3.9.6,6.2.8,5.4,2.5,10.5,5.9,14.9,6.7,9,18.5,8.1,24.6.6,2.1-2.5,3.6-5.4,4.6-8.5,2.7-8,3-16,1-24.2-1.1-4.6-2.9-9-6.1-12.6-4-4.4-9-6.2-14.9-5-4.8.9-8.1,4-10.6,8-3.8,6.1-5,12.9-5.2,20.6h0Z"/>
    <path class="cls-1" d="M558.6,93.2c.7-.3,1-.5,1.3-.5,5.8,0,11.7,0,18,0-.5.7-.7,1.2-1,1.4-1.2.8-1.5,1.8-1.2,3.2.1.6.2,1.2.2,1.8,0,2.3.4,4.6.9,6.8,1.1,4.8,1.9,9.7,2.8,14.5,1.1,5.6,2.3,11.2,3.5,16.9,1.6-1.3,0-2.6.3-3.8,2.8-.2,4.8,1.1,5.5,3.7.5,1.6.2,3.4-.8,4.6-.8,1.2-2.3,1.9-3.7,3,.3,3.2,1.2,6.6,2.4,10,.5,1.4,1.1,2.7,2.8,3.1.2,0,.4.4.7.7-.8,1.1-1.9.7-2.8.7-2.2,0-4.3-.3-6.5-.4-2.4,0-4.8.2-7.1.3-.6,0-1.2-.2-1.9-.2,0-.5,0-.7.1-.8,1.8-.7,2.1-2.3,2.1-3.9,0-1.2,0-2.5-.3-3.7-.3-1.9-.8-3.8-1.1-5.7-.2-1.2-.8-1.9-2-2.2-3-.8-6-.9-9.1.1-2.9,1-4.5,3.2-5.5,5.9-.7,1.9-.9,4-1.2,6.1-.2,1.4,0,2.7,1.6,3.2.2,0,.2.4.3.6-1.9.9-11.8.9-13.9.1,0-.1,0-.4,0-.4,3.4-1.9,4.3-5.3,5.2-8.6,1.4-5.6,2.6-11.3,4-16.9.6-2.5,1.4-4.9,2-7.4,1-4.1,1.9-8.3,2.8-12.4.8-3.2,1.7-6.4,2.4-9.6.5-2.4.8-4.9,1.2-7.3.1-.8-.1-1.3-.8-1.8-.5-.3-.8-.8-1.5-1.3h0ZM558.3,139.5c2.3-.6,4.4-1.5,6.4-1.7,2.2-.2,4.4.1,6.7.3-1.9-9.9-3.7-19.6-5.6-29.2-2.5,10.2-5,20.3-7.6,30.6h0ZM575,127.8c.7-1.8.4-2-1.7-1.8.5.6,1,1.1,1.7,1.8ZM571.9,103.8c0-.2,0-.4,0-.6-.8,0-1.6-.1-2.3-.2,0,.2,0,.3,0,.5.8.1,1.5.2,2.3.3ZM572.8,105.7c0,.2,0,.4,0,.7.7.3,1.3.8,2.3-.4-1-.1-1.6-.2-2.3-.3h0ZM571.1,100.2c0-.1.1-.3.2-.4-.5-.2-1-.4-1.4-.7,0,.1-.1.3-.2.4.5.2,1,.5,1.4.7ZM573,108.8c0,.2,0,.4.1.6.5-.2.9-.3,1.4-.4,0-.1,0-.3-.1-.4-.5,0-.9.2-1.4.3Z"/>
    <path class="cls-1" d="M402.4,140.6c0,3.6,0,7.2,0,10.8,0,1.2.2,2.4.4,3.7.1,1.6.5,3.1,2.3,3.6.3,0,.5.5.8.9-2,1.4-4.2.3-6.2.6-1.9.4-4,.2-6,0-2-.2-4.1.5-6-.3,0-.4,0-.5,0-.5,2.8-1.8,2.7-4.8,3-7.5.3-2.3,0-4.6,0-6.9,0-3-.2-6-.2-9,0-5.8.1-11.6.1-17.4,0-3.9-.1-7.9-.3-11.8,0-2.6-.2-5.2-.4-7.8-.1-1.8-.6-3.5-2.5-4.3-.1,0-.1-.4-.3-.8.5-.2,1-.4,1.5-.4,1.8,0,3.6,0,5.3,0,4.9,0,9.7.1,14.6.1s6.4.7,9.3,2.3c1.9,1.1,3.8,2,5.6,3.2,5,3.2,7.1,8.4,8.6,13.8.6,2.4.4,5.2,0,7.8-.7,4.4-2.5,8.4-5.5,11.8-3.9,4.3-8.7,7.2-14.5,7.8-3.2.4-6.4.4-9.8.6h0ZM396,100.3h3.2c-1.1-.8-2.1-1.1-3.2,0-.9-.1-1.9-.4-2.7.2,0,.2,0,.3.1.5.9-.2,1.7-.5,2.6-.7ZM402.1,136.3c.7,0,1,.2,1.2.1,6.4-.9,11.8-3.4,15-9.2,1.2-2.3,2.3-4.8,2.8-7.3.7-3.9,0-7.7-1.5-11.3-1.8-4.6-5.3-7.6-9.5-9.7-2.4-1.2-5-1.8-7.9-1.2v38.8h0ZM426.5,103.9c-1.5,0-2.7,0-3.8,0-.8,0-1.5.4-1.1,1.7,1.6-.2,3.4.3,4.9-1.7ZM395,97.1c.8-.4,1.6,1.7,2.4.1.5.5.9,1,1.5,1.7.4-.7.6-1.1.9-1.5-1.5-1.8-3.1-1.4-4.7-.3h0ZM424.5,118.4v.5c.8,0,1.6.2,2.4.1.9,0,1.5,1.3,2.5.2-1.4-2.1-3.3-.8-4.9-.9h0ZM397.2,103.5c-.5,3.2-2.1.7-3.2,1,1.4,1.4,2.2,1.5,4.3.3-.3-.3-.5-.7-1.1-1.3h0ZM397.7,132.4c-1.1-.3-1.7,0-1.8.9.6-.3,1.2-.6,1.8-.9ZM419.4,131.6c0,.2.1.5.2.7l2.9-.9c0-.2-.1-.3-.1-.5-1,.2-2,.5-2.9.7h0ZM393.4,128.6c.7.1,1.4.3,2.4.5-.7-1.3-1.5-1.1-2.4-.5ZM393.2,116.4c.9-.4,1.5-.7,2.3-1.1-1.2-.3-2-.5-2.3,1.1ZM395,107.3c0-.2.1-.3.2-.4-.5-.2-.9-.3-1.4-.4-.1,0-.3.3-.5.5.7.2,1.2.3,1.7.4h0ZM426,115.3c0,.2,0,.4.1.6.8-.2,1.6-.3,2.4-.5,0-.2,0-.4-.1-.6-.8.2-1.6.3-2.4.5h0ZM392.6,114c1.1-.3,1.2-.7.6-1.3-.1-.1-.4-.1-.6-.2v1.5ZM430.1,115.7c-.1-1-.5-1.8-1.9-1.6.8.6,1.3,1.1,1.9,1.6ZM398.7,118c0-.2,0-.3,0-.5-.5,0-1,0-1.8-.1.5,1.2,1.2.9,1.8.6h0ZM428.5,124.9c-.4-.2-.6-.4-.8-.5-.2.3-.4.6-.5.8.2.1.5.4.7.4.2,0,.3-.4.6-.7ZM399,150.5l-.3-.3c-.3.3-.7.7-1,1,.1.1.2.2.3.3l1-1h0Z"/>
    <path class="cls-1" d="M476.1,321.4v2.9c0,5.6,0,11.1,0,16.7,0,4.3.6,6.1,5.3,7.3.1,0,.3.1.5.3v2.1h-24v-2.3c.8-.2,1.4-.3,2.1-.6,2.5-1,3.5-2.7,3.5-4.9,0-15.2,0-30.3,0-45.5,0-2.8-1.6-4.4-3.8-5.1-.6-.2-1.1-.4-1.8-.6,0-.5-.1-.8-.1-1.2,0-.3.1-.6.2-1,.6,0,1.1-.1,1.6-.1,10.1,0,20.1,0,30.2,0,5.8,0,11.3,1.5,16.3,4.6,2.4,1.5,4.2,3.5,5.6,6,3,5.5,1.1,11-2.6,14.6-4.4,4.2-9.9,5.9-15.8,6.3-4.6.4-9.3.3-13.9.4-.9,0-1.8,0-3.2,0h0ZM476.3,291.7v26.7c.4.1.6.2.8.2,3.8,0,7.6.1,11.4,0,4.1-.2,7.3-2.2,9.5-5.7,2.1-3.4,2.7-7.1,2-10.9-.9-5.3-4.3-9-9.5-9.6-4.6-.6-9.2-.4-14.1-.6h0Z"/>
    <path class="cls-1" d="M658.2,158.8c7.7-20.9,15.3-41.8,23.1-62.8-.5,0-.9-.2-1.3-.2-1.9,0-3.9.2-5.8,0-4-.2-6.1,2.2-5.6,6.2.4,3.1.9,6.3,1,9.4,0,1.7-.3,3.4-.9,5-.7,1.9-2.5,2.7-4.5,2.9-2,.2-3.7-.3-4.9-2-.8-1-.8-2.2-.2-3.3.6-1.1,1.8-1.4,2.8-1,.8.3,1.4,1.1,2.1,1.6.3-.9,0-4-.6-5.7-1.5-4.6-3-9.2-4.5-13.9-.3-.8-.2-1.8-.3-3,2.4,0,4.5,0,6.7,0,3.2,0,6.5-.1,9.7-.1,4.1,0,8.2,0,12.3,0,1.8,0,3.7-.2,5.5-.2.5,0,1,.1,1.5.2-2.1,5.6-4,11-6,16.4-2.1,5.8-4.3,11.6-6.4,17.4-1.1,3-2.1,6.1-3.2,9.2-1.4,3.9-3,7.8-4.4,11.7-.7,1.7-1.2,3.5-1.9,5.2-.3.9-.8,1.8-1.1,2.8,0,.1.2.4.2.4,3.4.1,6.8.6,9.7-1.7.6-.5,1.3-.9,1.7-1.6,2.1-3.2,3.7-6.6,3.9-10.5,0-1.4.2-2.8.5-4.1.4-1.9,2.1-2.5,5-1.8-3,7.8-1.5,15.6,0,23.7h-34.1ZM667.9,144.6c-.8.2-1.3.3-2.4.6,1.2.5,1.9.6,2.4-.6Z"/>
    <path class="cls-1" d="M735.5,92c-.4,1.9-.5,3.2-.9,4.6-1.4,5.1-2.9,10.1-4.3,15.1-.3.9-.2,1.9-.3,3.2.8-.8,1.3-1.3,1.9-1.8.9-.7,1.9-.4,2.8.1.9.6,1.2,1.5.9,2.4-.3.8-.7,1.8-1.4,2.3-1.7,1.5-3.8,2.1-5.8,1.1-2.1-1-3.6-2.9-3.6-5.3,0-3.5.3-6.9.8-10.4.3-2,.2-3.8-.9-5.6-.5-.8-1.2-1.4-2.2-1.4-2.2-.1-4.3-.3-6.5-.4-1.2,0-1.6.5-1.5,1.8.7,10.3.4,20.7.3,31,0,1.4.1,2.7.2,4.2,2.4.4,4.7.1,6.9-.4.5-.1,1-.9,1.4-1.4.5-.7.5-.8,2.1-.8-.2,3.4.5,6.7-.7,10.4-.5-.6-.8-.9-1-1.2-.2-.3-.4-.8-.7-.8-2.5-.8-5-1.7-8-1.2v4.2c0,.2.2.4.2.7,0,3.4-.1,6.9-.2,10.3,0,.5-.1.9-.1,1.4,0,.9.5,1.2,1.3,1.1,1.8-.1,3.7-.3,5.5-.4,2.8-.2,4.6-2.1,6.1-4.2,2-2.8,2.9-5.9,3.2-9.3,0-1.1.2-2.3.4-3.4.3-2.9,1.5-3.6,4.6-2.6-.3,2.6-.5,5.1-.9,7.7-.7,4.3-.2,8.4.8,12.6.2,1,.4,2,.6,3.3h-36.1c.2-.6.3-1.2.5-1.3,2-.7,2.4-2.4,2.5-4.1.2-5.7.1-11.4.2-17.2,0-2.6,0-5.2,0-7.9,0-4.8-.1-9.6-.2-14.3,0-5,0-10-.2-15,0-.6,0-1.2-.1-1.8-.4-1.9-.6-2.3-3-4.4,1-1,2.3-.8,3.4-.8,2,0,4,0,6,0,1.5,0,3.1.2,4.6.2,3.8,0,7.7-.1,11.6-.2,3.1,0,6.3,0,9.9,0h0ZM712.8,109.2c-1.2-.8-2.2-.3-3.4,0-1,.3-2.1-.7-3.2,0,.9.7,1.7,1.3,2.5,1.9.9-1.1,2.2-1.1,3.5-.6.2-.6.4-1,.6-1.3h0ZM707,127.2c1.1,1.5,1.9,0,2.8-.1.5.9,1.3,1.1,2.4.5-1.6-1.9-3.3-1.5-5.2-.4h0ZM727.9,154.8c1.1.3,2.2.6,3.4.8.3,0,.6-.6,1-1-2.8-1-3.1-1.1-4.3.1h0ZM711.2,133.9l-.2.4c-.4,0-.7.2-1.1.2v.4c1,.1,2,.3,3.1.5-.8-2.1-1.1-2.2-3.6-2.2.6.2,1.2.4,1.7.6h0ZM706.6,155.5c1.1,0,1.7.1,2.5.2-.2-1,.9-2.1-.4-2.5-.7.7-1.2,1.3-2.1,2.3ZM706.3,122.9c-.3,1-.4,1.5-.6,2,.6,0,1,0,1.5.2.4,0,.7.3,1.1.4.1-.1.2-.3.3-.4-.7-.7-1.3-1.3-2.3-2.2h0ZM706.7,132.1c0,.1.2.3.3.4.6-.4,1.2-.7,1.7-1.2.4-.5,1.4-.8,1.2-2.2-1.2,1.1-2.2,2.1-3.1,3h0ZM710,95.2c-2.3-1-2.8-.9-3.2.5,1-.2,2-.3,3.2-.5ZM726.2,95.9c.2,1.2,1.2,1.4,3,.5-1.2-.2-1.9-.3-3-.5ZM713.3,97.2c-.9-.7-1.4-1-2-1.4-.4.7-.7,1.2-1.2,2.1,1.1-.2,1.9-.4,3.2-.6h0ZM707.9,98.7c0-.1.1-.3.2-.4-.8-.3-1.5-.6-2.7-1.1.6,1.8,1.7,1.3,2.5,1.5ZM712.2,103.9c-.7-1.8-.9-1.8-2.8-.9.9.3,1.7.5,2.8.9ZM712.4,149.9h-2.9c1.1.6,1.8,1.6,2.9,0ZM707.3,113.4c-1.4-.3-2-.1-1.8,1.3.6-.4,1-.7,1.8-1.3ZM728.1,103.1c.3,1.5.8,1.8,1.6,1.5.2,0,.2-.6.4-.9-.5-.2-1.1-.3-1.9-.6h0ZM707.1,116.9c.4-.5.6-.8,1-1.3h-1.8c.2.3.5.8.8,1.3ZM710.1,111.3c.7.5,1.4.6,2.2.1-1,0-1.6,0-2.2-.1ZM711.6,130.6c-.2-.1-.3-.3-.5-.4-.4.5-.9,1.1-1.3,1.6,0,.1.2.2.3.3.5-.5,1-1,1.5-1.5h0ZM708.5,102.7c0-.1,0-.3,0-.4-.8,0-1.6.2-2.4.3,0,0,0,0,0,.1h2.5ZM706.2,146.1c0,0,0,.2-.1.2.2.2.4.4.6.5.2,0,.4,0,.6,0v-.3l-1.1-.3h0ZM707.4,101v-.3c-.5.1-1,.2-1.4.3,0,.1,0,.2,0,.3l1.3-.3ZM706.4,136.2c.1,0,.2-.1.4-.2l-.6-1.2c-.1,0-.2,0-.3.1.2.4.3.8.5,1.3h0Z"/>
    <path class="cls-1" d="M473.6,93.1c-.4,1.8-.5,3.2-.9,4.5-1.4,5.1-2.9,10.1-4.3,15.1-.2.9-.2,1.9-.3,3,.9-.7,1.5-1.3,2.2-1.7,1.6-.9,3.4.2,3.4,2s-.2,1.4-.5,2c-1.5,2.6-5.8,3.2-7.9,1.2-1.5-1.4-2.6-3.1-2.4-5.3.3-3.3.6-6.6.9-9.9,0-1.2,0-2.5-.2-3.6-.5-1.9-1.7-3.1-3.8-3.1-1.9,0-3.7-.2-5.6-.3-1.3,0-1.6.4-1.6,1.7.1,6.5.3,12.9.3,19.4,0,5.2,0,10.5,0,15.8,2.5.4,4.8.2,7.1-.4.5-.1,1-.9,1.4-1.4.5-.7.9-1.2,2.1-.7,0,3.3.4,6.6-.6,9.9-.4,0-.6,0-.6,0-2.2-3.4-5.7-2.5-8.8-3.1-.6,1.7-.4,3.2-.3,4.6,0,1,0,2,0,3,0,.9,0,1.9,0,2.8,0,1.8,0,3.5,0,5.3-.1,2.2,0,2.4,2.2,2.1,1-.1,2-.3,3-.2,3.5.3,5.9-1.5,7.7-4.2,1.9-2.8,2.9-5.9,3.2-9.3.1-1.2.2-2.5.4-3.7.3-2.6,1.5-3.3,4.4-2.4,0,1.1-.2,2.2-.3,3.3-.3,3-.8,6-.8,9,0,2.7.7,5.5,1.1,8.2.1,1,.3,1.9.4,3.1h-36.1c.2-.6.3-1.2.5-1.3,2.1-.7,2.4-2.6,2.5-4.3.2-5.3.2-10.7.2-16,0-2.9,0-5.9,0-8.8,0-4.8-.1-9.6-.2-14.3,0-5,0-10-.2-15,0-.9-.2-1.8-.4-2.7-.3-1.3-.8-2.5-2.3-2.9-.2,0-.2-.4-.4-.6,1-1,2.3-.7,3.5-.8,2,0,4,0,6,0,1.5,0,3.1.2,4.6.2,3.9,0,7.7-.1,11.6-.2,3.1,0,6.3,0,9.9.1h0ZM444.4,109.9c0,.1,0,.2,0,.3.8.6,1.6,1.2,2.4,1.9,1.4-1.1,1.6-1.1,3.5-.7.2-.4.4-.9.5-1.4-1.2-.6-2.1-.2-3.2,0-1,.3-2.1-.1-3.2-.2h0ZM465.8,155.3c2.4,1.5,3.5,1.6,4.5.3-1.5-.3-2.7-1.5-4.5-.3ZM450.5,128.7c-2.4-1.9-2.9-2-5.2-.5,1,1.4,1.8-.2,2.7-.2.5,1.8,1.5,1.1,2.5.7h0ZM447.5,134.2c.5.5,1.6-.2,1.6,1-.4.1-.8.2-1.1.3,0,.1,0,.3,0,.4,1,.1,1.9.3,3.1.4-.8-2.1-1.1-2.2-3.6-2.1ZM444.4,123.7c-.3,1.1-.4,1.6-.5,2,1,.3,1.8.5,2.5.7,0-.1.2-.3.3-.4-.6-.6-1.2-1.3-2.3-2.3ZM447,154.3c-.8.6-1.3.9-1.7,1.3-.2.2-.1.5-.2.9.8,0,1.3,0,2.2.1-.4-.9.9-1.8-.2-2.4ZM448,130.6c-1.4.4-2.2,1.6-3.4,2.8,2.1-.2,2.6-1.6,3.4-2.8ZM444.8,96.7c1.2-.2,2.1-.3,3.2-.5-1.9-1.1-2.6-1-3.2.5ZM464.1,96.9c.3,1.2.4,1.9,1.4,1.6.5-.2,1-.5,1.9-1.1-1.3-.2-2.1-.3-3.3-.5h0ZM449.5,96.7c-.5.8-.8,1.3-1.3,2.1,1.1-.2,1.9-.4,3-.6-.7-.6-1.1-1-1.8-1.5h0ZM444,98.3c-.1.2-.2.4-.3.6.6,1,1.5.7,2.5.4-.7-.3-1.5-.7-2.2-1ZM450.3,104.8c-.5-1.2-1.4-1.5-2.8-.8.9.3,1.7.5,2.8.8ZM450.6,150.8h-2.9c1,.6,1.7,1.6,2.9,0ZM466.2,104.6c.4,1.1,1,1.2,2,.8-.3-1.4-.9-1.4-2-.8ZM445.5,114.2c-1.2,0-1.7.5-1.7,1.3.5-.4.9-.7,1.7-1.3ZM446.3,116.6h-2.5c.5.5.9.9,1.3,1.3.4-.4.6-.7,1.2-1.3ZM447.9,132.7c.9,0,1.5-.5,1.4-1.6-.5.5-.9,1.1-1.4,1.6ZM446.6,103.6c0-.1,0-.3,0-.4-.8,0-1.6.2-2.5.3,0,0,0,.2,0,.3.8,0,1.6-.1,2.5-.2h0ZM447.9,112.4c.9.5,1.6.5,2.3,0h-2.3ZM444.1,101.9c0,.1,0,.2,0,.4.4-.1.9-.2,1.3-.3v-.3c-.5,0-.9.2-1.4.3h0ZM444.5,137.1c.1,0,.2-.1.4-.2l-.6-1.2c-.1,0-.2.1-.3.1.2.4.4.8.6,1.2h0ZM444.3,147c0,.1-.1.2-.1.3.4.2.8.3,1.2.5,0-.1.1-.2.1-.3-.4-.2-.8-.3-1.2-.5h0Z"/>
    <path class="cls-1" d="M503.8,139.3c1.2-2.9,4.1-3.9,7.1-2.8,2.1.8,3.7,2.1,4.2,4.3.8,2.9,1,6,0,8.9-1.1,3.3-3.2,5.9-6.3,7.7-2,1.2-4.1,1.9-6.3,2.1-3.4.2-6.8.3-10.1-.8-5-1.6-9-4.6-11.1-9.5-.8-1.7-1.1-3.7-1.2-5.6-.1-3.6.1-7.3,0-10.9,0-5.9-.2-11.7-.3-17.6,0-2.8,0-5.6.4-8.3.6-4.4,3.2-7.6,6.8-10.1,3.7-2.5,7.9-3.6,12.3-3.7,4.4-.1,8.8-.3,13.2-.4.5,0,.9,0,1.6.1,0,1.3,0,2.7-.3,3.8-1.1,3.8-2.4,7.6-3.6,11.4-.5,1.8-1,3.6-1.4,5.4-.2.7,0,1.5,0,2.6.6-.7,1-1,1.3-1.4,1.1-1,2.8-1.1,3.8-.2,1,.9,1,2.8-.1,4-2.5,2.7-7,2.3-9-.8-1.5-2.3-1.7-4.9-1.5-7.6.1-1.8.7-3.5.7-5.3,0-1.9-.2-3.8-.5-5.7-.2-1.4-1.3-2-2.6-2.2-3.1-.3-6.1,1.7-7.4,4.8-1.7,4.1-2.2,8.3-1.6,12.7.3,2.3,0,4.8,0,7.2s0,4.3,0,6.4,0,.6,0,.9c0,4.5,0,9.1,0,13.6,0,3.1.7,6,2.2,8.6,2.3,4,6.2,4.2,9.6,2.2,2.5-1.5,3.8-4.2,3.8-7.3,0-2.9-.8-5.3-3.6-6.8h0ZM483.3,110.8c1.8-.5,0-1.6.7-2.4h2.5c0,0,0-.2,0-.3-.9-.3-1.8-.7-2.7-1-1,1.1-1.1,2.3-.6,3.8h0ZM510.5,95.9c-.8,0-1.5.1-2.3.2.9.7,1.6,1,2.3-.2ZM484.3,105.4c0,.2,0,.4,0,.5.6,0,1.2-.2,1.8-.2,0-.1,0-.3,0-.4h-1.7q0,.1,0,.1ZM485.8,151.9c0,.2.2.4.2.7.5-.2.9-.4,1.3-.6,0-.2-.1-.3-.2-.5-.5.2-.9.3-1.4.5ZM507.3,100.4c0,.2,0,.4,0,.6.7,0,1.5.4,2.1-.1,0-.2,0-.4,0-.6-.7,0-1.3,0-2,0ZM509,98.1c0-.2,0-.3,0-.5-.8,0-1.7.1-2.5.2v.3h2.5ZM487.4,149.1c0,.2-.1.4-.2.6.4.1.8.3,1.2.4,0-.1.1-.3.1-.4-.4-.2-.8-.4-1.2-.6h0Z"/>
    <path class="cls-1" d="M301.4,238.5v-2.4c0-9.4,0-18.9,0-28.3,0-1.9-.4-3.8-.7-5.7-.4-2.3-1.9-3.6-4.2-4-.5,0-1.1-.2-1.6-.4-1-.3-.9-.9-.5-1.7h17.5c.3.9.5,1.6-.5,1.8-.1,0-.3,0-.5.1-4.5,1.2-5.6,2.5-5.7,7.4-.2,16.2-.2,32.3-.3,48.5v2.9c-1.5.9-1.9-.3-2.4-1.1-4.1-6-8.1-12.1-12.2-18.1-6.1-9.1-12.1-18.1-18.2-27.2-.4-.6-.8-1.1-1.5-2,0,1-.1,1.6-.1,2.2,0,11.2,0,22.4,0,33.6,0,1.8.3,3.7.6,5.5.4,2.3,1.9,3.6,4.1,4.1.7.1,1.3.3,2,.5v1.7c-.5,0-.8.1-1.2.1-5,0-9.9,0-14.9-.1-.1,0-.3,0-.5,0-.4-.2-.8-.5-1.2-.8.3-.4.5-.9.9-1.1.4-.3,1-.3,1.6-.4,2.4-.6,4-1.9,4.3-4.5.2-1.7.5-3.4.5-5.1,0-13.3,0-26.6-.1-39.9,0-2.5-2.4-5.5-4.8-6.1-.7-.2-1.5-.4-2.2-.6-.3-1,0-1.6,1-1.6,3.8,0,7.6,0,11.4.2.6,0,1.3.8,1.7,1.4,2.3,3.4,4.5,6.8,6.8,10.2,6.7,10.1,13.5,20.2,20.2,30.2,0,.1.2.2.7.6h0Z"/>
    <path class="cls-1" d="M631.9,159.2h-36.1c.4-.7.5-1.3.8-1.4,2.1-.9,2.4-2.8,2.4-4.6.1-5.8,0-11.6,0-17.4s0-10.3,0-15.5c0-3.3,0-6.6,0-10,0-3.6,0-7.2-.2-10.9,0-1.4-.5-2.9-1.1-4.2-.3-.8-1.2-1.4-1.9-2.1,1.6-.8,15.8-1,18-.3.2.8-.3,1.1-1,1.2-.9.2-1.3.9-1.5,1.8-.5,2.7-1,5.3-1,8,.1,3.8,0,7.7,0,11.6,0,3.1.2,6.3.3,9.4,0,3.1,0,6.1,0,9.2,0,5.1-.1,10.1-.2,15.2,0,1.9,0,3.8,0,5.9.5,0,1,.2,1.5.2,1.2,0,2.5-.2,3.7-.2,4.4,0,6.9-2.6,8.7-6.2,1.6-3.1,2.2-6.6,2.6-10,.4-3.3,1.2-3.9,4.6-3.5-.5,3.9-1.3,7.9-1.3,11.8,0,3.9,1,7.7,1.7,11.8h0ZM606.6,106.7c-1.2.1-2.3-.2-3.7.5,1.6.5,2.8,1,3.5,2.4.7-.9.8-1.9.2-2.9h0ZM607.1,97.9c.6-.8.9-1.3,1.5-2.1-1-.1-1.6-.2-2.6-.4.5,1,.7,1.5,1.1,2.5h0ZM600.9,103.1c0,.2.1.3.2.4,1.1-.4,2.2-.9,3.5-1.4-1.8-1.1-2.5.6-3.7.9h0ZM602.8,123.5c-.6-1.1-1.4-1.3-2.4-.6.9.2,1.5.4,2.4.6ZM607.2,156.1c-.4-.6-.7-1.1-1.2-1.7-.3,1.2-.5,2,1.2,1.7ZM601.4,112.2c.8-.3,1.2-.5,1.7-.7-.4-.5-.7-.8-1.2-1.5-.2.9-.3,1.4-.5,2.2h0ZM605.7,141.7c0,.1,0,.3,0,.4h1.7c0-.1,0-.3,0-.4h-1.7,0ZM601.7,138.1c-.2.4-.4.7-.4.9,0,.2.4.4.6.4.2,0,.5-.4.4-.6,0-.2-.3-.4-.7-.7h0ZM607.7,102.4c0-.2,0-.4-.2-.6-.5.1-.9.3-1.4.4l.2.6c.5-.1.9-.2,1.4-.3h0ZM606.3,104.8c0-.2,0-.3,0-.5h-1.2v.4c.4,0,.8,0,1.2,0h0Z"/>
    <path class="cls-1" d="M520.1,93.3c.5-.2.8-.6,1.1-.6,5.8,0,11.6,0,17.6,0-.1,1.2-.8,1.4-1.5,1.8-.5.3-1.1.9-1.2,1.5-.4,2.5-.9,5-1,7.5,0,3,.3,5.9.3,8.9,0,3.1-.2,6.1-.2,9.2,0,1.7,0,3.4,0,5.1,0,3.2,0,6.4,0,9.6,0,4.1.2,8.3.3,12.4,0,2.1.3,4.3.6,6.4.2,1.4.6,2.7,2.3,3.1.2,0,.4.4.7.9-.6.2-1,.4-1.4.4-5,0-10,.2-15,.2-.6,0-1.2-.1-2-.2.3-.7.4-1.4.8-1.5,2.3-.9,2.4-2.9,2.5-4.8.2-3.2.1-6.3,0-9.5,0-9.6-.2-19.1-.2-28.7,0-4.8,0-9.6,0-14.3,0-1-.2-2-.3-3-.2-1.6-.7-3-2.5-3.5-.3,0-.5-.5-.8-.9h0ZM527.8,106.8c0,.2-.1.4-.2.6.9.3,1.9.7,3.1,1.1-.7-1.5-1.5-2.3-2.9-1.7ZM527.1,129.4c0,.2,0,.4,0,.6h2.8c-1.2-1.4-2-.1-2.8-.6ZM529.1,98c-.7-.7-1.5-1-2.3,0h2.3ZM528.9,119.5c0,0,0-.2,0-.3-.5,0-1.1.2-1.6.3,0,.1,0,.3,0,.4.5-.1,1-.3,1.6-.4h0ZM528.6,152.6v.5h1.2c0-.1,0-.2,0-.4h-1.2c0-.1,0-.1,0-.1Z"/>
    <path class="cls-1" d="M634.4,92.8c.4-.2.6-.5.9-.5,5.7,0,11.4,0,17.1,0,.2,0,.3.3.8.6-.5.4-.9.9-1.4,1.1-.9.3-1.4.9-1.5,1.9-.3,2.4-.8,4.7-.8,7.1,0,3.1.2,6.1.3,9.2,0,1.4-.2,2.8-.2,4.2,0,3.8,0,7.5,0,11.3,0,.9,0,1.8,0,2.8,0,4.9-.2,9.8-.2,14.7,0,2.8.3,5.7.7,8.5.2,2,.3,4.3,3,4.7-.1,1.2-.8,1.1-1.4,1.1-3.9,0-7.9,0-11.8,0-.8,0-1.7.1-2.5.2-.7,0-1.5,0-2.6,0,.4-.9.5-1.6.8-1.7,2.2-.9,2.3-2.9,2.4-4.8.2-3.2.1-6.3,0-9.5,0-9.6-.2-19.2-.2-28.7,0-4.8,0-9.6,0-14.4,0-1-.2-2-.3-3-.2-1.6-.7-3-2.6-3.4-.3,0-.4-.6-.7-.9h0ZM642,106.5c0,.2,0,.3-.1.5.9.4,1.9.7,2.9,1.1-.6-1.3-1.5-1.8-2.8-1.6ZM644,129.2c-1.1-.7-1.9,0-2.7.1.8.5,1.6.9,2.7-.1ZM640.8,97.1c.8.5,1.7.5,2.8,0h-2.8ZM641.4,119.1c0,.1,0,.3,0,.4.5-.2,1-.3,1.6-.4,0,0,0-.2,0-.3-.5.1-1.1.2-1.6.3ZM644,152.7v-.4h-1.2v.4h1.2Z"/>
    <path class="cls-1" d="M257.2,197.6c-1.1.2-2.1.3-3.1.5-2.5.6-3.6,1.7-3.8,4.2-.2,2.1-.3,4.3-.4,6.5,0,11.5,0,23.1,0,34.6,0,2.1.2,4.2.4,6.2.2,2.5,1.1,3.4,3.5,4,.9.2,1.8.3,2.7.5,1,.2.8.9.6,1.7h-22.1c0-.5,0-1-.1-1.6,1-.2,1.9-.4,2.8-.6,3.1-.6,4-1.5,4.2-4.6.1-1.3.2-2.6.2-3.9,0-12.8,0-25.7,0-38.5,0-1.5,0-2.9-.2-4.4-.3-2.5-1.3-3.5-3.8-4.1-1-.2-2-.4-3-.5-.4-1.1-.2-1.7,1-1.7,1.7,0,3.4,0,5.1,0,4.8,0,9.6,0,14.4.1.9,0,2-.2,1.6,1.6h0Z"/>
  </g>
  <g>
    <path class="cls-1" d="M183.6,746l8.7-5.7c1.5-.8,2.6-1.8,3.2-3.1.6-1.3,1.1-2.1,1.6-2.6,1.7-1.3,2.9-2.8,3.6-4.5s1.4-3.5,2.2-5.4c.8-2.2,1.1-4.2.9-5.9l-.7-4.7c-.3-1.9-1-3.5-2.1-5-1.2-1.7-2.5-3.1-3.9-4.1-1.4-1-2.9-1.9-4.6-2.7-.8-.3-1.5-.7-2.3-1.2s-1.6-.6-2.5-.5c0,.8,0,1.7-.1,2.6,0,1-.1,1.8-.1,2.6.5,3.2.1,6.1-.9,8.8-.5,1.4-1,2.8-1.5,4.3-.5,1.4-1.2,2.8-1.9,4-1.1,1.7-2.2,3.3-3.3,4.7s-2.4,2.7-3.8,3.8c-1.7,1.4-3.5,2.6-5.4,3.7-1.9,1-3.9,2-5.9,3-2,1.1-4.2,1.7-6.7,1.7-3.1.3-6.1.5-9,.5s-5.9-.3-9-1c-1.8-.3-3.7-.7-5.5-1.1-1.8-.4-3.6-1.2-5.3-2.2-.8-.5-1.6-1-2.4-1.4-.8-.5-1.7-.9-2.4-1.2-2.6-1.3-5-2.6-7.1-4.1-2.2-1.5-4-3.4-5.5-5.8-.3-.3-.6-.6-.9-1s-.6-.6-.9-1c-1.2-1.3-2.3-2.7-3.3-4.3-1-1.6-1.9-3.2-2.6-5-.9-2-1.8-4-2.6-5.9-.8-1.9-1.7-3.9-2.4-5.9-2.2-5.8-3.5-11.5-4.1-17-.3-2-.6-4.1-.8-6-.2-2-.3-4-.1-6,0-.3,0-.7-.2-1.1-.2-.4-.3-.8-.5-1.1,0-.5,0-.9-.1-1.3,0-.4-.1-.8-.1-1.3.2-1.9.3-3.8.3-5.8,0-2,.3-4.1.6-6.3,0-.5,0-1.1-.1-2s0-1.8.1-2.7v-2.7c0-.9.2-1.7.5-2.5l2.8-13.5c.3-1.1.6-2.2.8-3.2.2-1,.5-2.1.8-3.2,1.2-4.1,2.7-8.1,4.4-12,1.7-3.9,3.5-7.7,5.5-11.5.8-1.4,1.5-2.9,2.2-4.4s1.4-3,2.2-4.4c.3-.8.7-1.5,1.2-2s.8-1.1,1.2-1.8c.8-1.3,1.6-2.4,2.5-3.4.9-1,1.8-2.2,2.5-3.4,2.4-4.4,5.2-8,8.3-10.9,3.5-3.5,7.1-6.8,10.7-9.9,3.6-3.2,7.4-6.2,11.4-9l1.8-1.4,4.1-3.3c2.4-1.7,5-3.2,7.7-4.5,2.7-1.3,5.3-2.5,7.9-3.8,2.6-1.3,5.2-2.2,7.9-3,2.7-.7,5.5-1.2,8.4-1.5,2.9-.3,5.8-.4,8.7-.3,2.9,0,5.7,1,8.3,2.7.1.2.3.2.5.2,3.8,1.7,6.9,4.1,9.1,7.1,2.2,3,3.9,6.5,4.9,10.7.5,1.7.5,3.6.1,5.7s-1.1,4-2.1,5.8c-1,1.8-2.3,3.4-3.8,4.7-1.5,1.3-3.3,2.2-5.3,2.7-3.2,1-6.7,1-10.3.2-7.7-1.4-12.6-5.7-14.7-12.8-.5-1.3-.8-2.6-1.1-4-.3-1.4-.3-2.9,0-4.5,0-.3,0-.6-.1-1,0-.3-.3-.5-.6-.5h-.9c-.3,0-.6.2-.9.5-1.2,1.1-2.4,2.2-3.4,3.4-1.1,1.2-2.1,2.4-3.2,3.7-.9.8-1.6,1.7-2.1,2.6-.5,1-.8,2-1.1,3.3-.8,2.7-1,5.3-.8,7.9s.6,5.2,1.3,7.9c.1.8.7,1.8,1.6,3.1,7.5,8.7,16.8,13.5,27.8,14.4,7.8.6,14.9-1.3,21.1-5.9,2.6-1.7,5-3.7,7.1-5.9,2.1-2.2,4.4-4.4,6.7-6.6.8-.8,1.1-1.4,1.1-1.9.6-2.2,1.7-4.7,3.2-7.3.5-1,.7-2,.7-3.1l.7-9.5c.3-4.7-.8-9-3.4-12.8-1.5-2.5-3.1-4.9-4.8-7.1-1.7-2.2-3.6-4.3-5.7-6.4-.5-.3-.9-.7-1.4-1.2s-1-.9-1.6-1.2c-3.7-2-7.4-3.8-11.3-5.2-3.8-1.4-7.9-2.4-12.2-2.8l-7.8-1c-2.4-.3-4.8-.3-7.1,0-1.4.2-2.7.4-4,.7-1.3.3-2.6.5-4,.5s-3.7.2-5.5.7c-1.8.5-3.7,1.1-5.5,1.9-.9.3-1.9.6-2.9.8-1,.2-2,.5-3.1.8-1.7.5-3.4,1-5.1,1.4-1.7.5-3.2,1.3-4.6,2.6-.8.5-1.7.9-2.8,1.2-1.2.3-2.3.7-3.2,1.2s-1.8,1.1-2.8,1.9c-2.8,1.7-5.5,3.5-8.3,5.4-2.8,1.9-5.6,3.7-8.5,5.4l-1.8,1.7-7.6,7.1-2.5,2.1-7.3,7.8-4.8,5.4c-1.4,1.7-2.7,3.5-4,5.4-1.3,1.9-2.6,3.8-4,5.7-2.2,2.8-4,5.8-5.6,8.9s-3.3,6.1-5.2,9.1l-.7,1.7c-.8,1.4-1.5,2.8-2.1,4.3s-1.2,2.8-1.8,4.3c-.6,1.4-1.2,2.8-1.8,4.3-.6,1.4-1.2,2.8-1.6,4.3-.8,2.2-1.5,4.5-2.2,6.9-.7,2.4-1.4,4.7-2.2,7.1-.3,1.3-.6,2.6-.8,4s-.5,2.8-.8,4l-.5,5.2c-.6,3.2-.9,6.3-.9,9.5v9.5c.2,3.5.4,6.9.7,10.3.3,3.4.8,6.8,1.6,10.1,2,10.1,5.6,19.9,10.8,29.3l3.4,6.2c.9,1.6,1.8,3.1,2.8,4.5s2.1,2.7,3.7,3.8l2.1,2.4c1.5,1.4,3,2.8,4.4,4.3,1.4,1.4,2.9,2.8,4.6,4,6.7,4.7,13.9,8.3,21.6,10.7,4.9,1.4,9.8,2.6,14.7,3.5,4.4,1.1,8.8,1.5,13,1.2,4.2-.3,8.5-.5,13-.7.3,0,.6,0,1-.1s.7-.1,1-.1l10.6-2.6c2.8-.6,5.3-1.8,7.6-3.5h0ZM191.4,724.2c0,.2,0,.2-.2,0-.1,0-.2,0-.2-.2l.7-1.7.9.5-1.1,1.4h0ZM189.8,717.6c.6-.2,1.3-.2,2.1-.2,1.1.2,1.8.1,2.1-.1.3-.2.9-.8,1.8-1.5.5-.5.9-.5,1.4,0,.3.8.4,1.3.2,1.7-.3.3-.6.6-.8.8s-.5.5-.8.8c-.5.5-.9.6-1.3.4-.4-.2-.7-.4-1-.6h-3.7c-.1,0-.2,0-.2-.2l-.2-.2c0-.5.1-.7.5-.7h0ZM185.7,583.6c-.1,0-.2,0-.2.1s0,.1-.2.1v-.5h.5v.2h0ZM190.5,586.2h-.2l.5-.5c0,.2,0,.3-.2.5h0ZM212.4,584.8l-3.7-.5c-.1,0-.4-.2-.7-.5.3-.3.7-.5,1.1-.5s.5,0,.7.1c.1,0,.3.1.5.1.9,0,1.6,0,2.1.2l.9.5-.9.5h0ZM234.6,563h.2c.1,0,.2,0,.2.2h-.5v-.2h0ZM219.2,574.6c0,.2,0,.3.1.4,0,0,.1.2.1.3h-.7l-.2-.5c.1-.2.4-.2.7-.2ZM215.8,586.7c-.3-.3-.5-.6-.5-1,.1,0,.3,0,.4-.1s.2-.1.3-.1l1.8.7-2.1.5h0ZM216,582.5c-.1,0-.2-.2-.2-.7s.1-.5.5-.5c.8.5,1.3.5,1.7.1s.9-.8,1.5-1.1c-.6,2-1.8,2.8-3.4,2.1h0ZM222,585.8l-.5-1c.1-.3.5-.6,1.1-1l.7.7-1.4,1.2h0ZM226.5,578.9c0,0-.1,0-.1.2v.2c-.6,0-1.1,0-1.4-.2l-.5-1c.3,0,.5,0,.6-.1,0,0,.3-.1.6-.1l.9.7c0,.2,0,.2-.1.2h0ZM228.4,573c-.3-.3-.5-.6-.5-1,.1,0,.3,0,.4-.1s.2-.1.3-.1.3,0,.3.2c0,.2.3.3.6.5-.6.3-1,.5-1.1.5h0ZM227.5,569.2l-.2-.7c.6-1.1,1.5-1.5,2.8-1.2l.5,1-3,1h0ZM232.3,557.6c.1,0,.2,0,.2.1s0,.1.2.1l-.2.2c-.1.2-.5.2-1.1.2l.7-1c0,.2,0,.2.2.2h0ZM230.3,553.1h.7l.9.5.2.2c0,.5,0,.7-.2.7l-1.6.5c-.5,0-1,.1-1.5.4-.5.2-.9,0-1-.8-.1-.6.1-1,.8-1.1s1.3-.2,1.7-.4h0ZM227.7,547.9l.7.7c-.3,0-.6,0-.8.1s-.5.1-.8.1-.5-.2-.5-.5c.6-.3,1.1-.5,1.4-.5h0ZM227.7,550.3c0,.2,0,.2.2.2l.5.2-1.4.7c-.1,0-.4-.2-.7-.5l1.4-.7h0ZM225.7,562.1c1.1-1.1,1.1-2.2.2-3.3,0-.3,0-.5.2-.7.5-.5.7-.5.7,0,.8,1,1.5,1.4,2.2,1.3.7,0,1.4-.3,2.2-.6-.5,1.1-.9,1.9-1.3,2.2-.4.4-1.3,1.2-2.9,2.2-.1.2-.2.3-.1.6,0,.2.1.5.1.8s0,.5-.2.5h-.7c-.3-.5-.6-1-.8-1.5-.2-.5-.1-1.1.3-1.5h0ZM223.4,543.2c.1,0,.2,0,.2.2v.2h-.5c.1-.2.2-.3.2-.5h0ZM222.2,572.5c.1-.2.6-.2,1.4-.2.1.2.3.3.6.4.2,0,.5.3.8.6.3.3.2.6-.3.8-.5.2-1.2.3-1.9.1-.3,0-.5,0-.7-.2l-.7-1c.3-.3.6-.5.9-.5h0ZM220.4,579.6c-.3.3-.5.5-.7.5l-1.1-.7-.7-.5.5-.5c.1,0,.3,0,.3-.1,0,0,.3-.1.6-.1.6,0,1.1,0,1.4.2-.1.2-.2.5-.2,1.2h0ZM132.9,555.5c.3-.2.9-.2,1.8-.2l.5,1c-.3,0-.6,0-.8.1s-.5.1-.8.1-.3,0-.5-.1c-.1,0-.4-.1-.7-.1.5-.5.6-.7.5-.7h0ZM106.5,576.3l.7-.5,3.2-1.2,3.2,1.9v1c-.2.3-.3.5-.5.5s-.3,0-.5.2h-.5c-1.8-1.6-3.4-1.7-4.8-.2,0,.2-.2.2-.5,0s-.5-.3-.7-.5,0-.5.2-1.2h0ZM101.4,592.9c.3,0,.6,0,.8.2s.5.3.8.5l-.7,1.4-1.4,1c-.2,0-.4.2-.7.5l-.2-.2c.2,0,.3,0,.5-.1s.3-.1.5-.1c-1.1-1.9-.9-2.9.5-3.1h0ZM96.3,593.8c.2,0,.2,0,.2-.2l.2.2c0,.2-.2.2-.5.2,0,0,0-.2,0-.2ZM73.8,667.7v-.2l.2-.2c0,.2,0,.3.1.4,0,0,.1.2.1.3-.2,0-.3,0-.5-.2h0ZM89.5,605.7c0,.2,0,.3.1.3,0,0,.1.3.1.6l-.9.5c-.2-.2-.2-.3-.2-.5.2-.5.5-.8.9-1h0ZM84.9,618.8c.2,0,.3-.1.5-.1l.7.7c-.5.2-1,.2-1.6.2l-.2-.7c.3,0,.5,0,.7-.1ZM86.7,655.1l1.2,1.7c-.5.5-.8.6-.9.5-.5,0-1-.3-1.6-1,.3-.2.5-.3.7-.5.2-.2.4-.4.7-.7h0ZM78.9,647.4c.2,0,.3-.1.5-.1s.2.2.2.7c-.2.2-.5.2-.9.2.2,0,0-.2-.5-.7.3,0,.5,0,.7-.1ZM77.5,664c-.3,0-.6.1-.9.1l-.2-.5,1.8-.7v.2c0,.3,0,.5.2.7-.3,0-.6,0-.9.1h0ZM81.5,699c0,0-.2.1-.3.1l-.5-.7h.7c.3,0,.5.2.5.5-.2,0-.3,0-.3.1h0ZM81,674.5l.2-.2.2.2h-.5ZM82.1,661.5l-1.2,1c-.6,0-.9-.4-.9-1.2-.2-.3-.2-.6-.1-.8s.1-.5.1-.8h-.9l-2.3,1.4c-.3.2-.6.3-.8.5-.2.2-.4,0-.6-.7-.2-.2-.1-.4.1-.8.2-.4.5-.6.8-.6.6-.2,1.5,0,2.8.2l.7-1.4c1.2-.8,2-.5,2.3.7v2.6h0ZM82.6,646.6l1.2-.7c.3,0,.7,0,1.2-.1s.7,0,.7.1c.3.6.3,1-.1,1s-.7,0-1,.2l-1.4.7-.5-.5v-.7h0ZM85.3,682.5c0,0,0-.1-.2-.1.2,0,.3,0,.3-.1s.2-.1.3-.1l.2.2c-.2,0-.3,0-.5.2-.2,0-.2,0-.2-.1ZM86,696.5c-.2-.2-.2-.4-.2-.7,0-.5.2-.7.7-.7s.7.2,1.2.7l-.9,1.4c-.3-.3-.5-.5-.7-.7h0ZM87.6,707.7l-.5-.5h.5l.2.2-.2.2h0ZM88.5,671.1c-.3.4-.5.8-.5,1.1-.5.8-1,1.1-1.6,1l-3.2-1.7-.2-.5.5-.2c1.1.5,2.3,0,3.7-1.4h.7l.7.5c.3.5.3.9,0,1.3h0ZM88.9,641.4c-.2.2-.5.2-.8.2l-.7-.7c.3-.6.6-1,.9-1.2.2,0,.7.3,1.6,1-.5.3-.8.5-1,.7h0ZM89.6,632c0,0-.2.1-.3.1s-.3,0-.3-.1c0,0-.2-.1-.3-.1.3-.3.5-.5.7-.5s.4.2.7.5c-.2,0-.3,0-.3.1h0ZM89,610.6c-.3,0-.6-.2-.9-.5l1.4-.7.9.7c-.6.3-1.1.5-1.4.5ZM91.5,707.7h-.7v-.2h.7v.2ZM93.1,591.2h.2l.5.7c-.2,0-.3,0-.3.1,0,0-.2.1-.3.1l-.5-.7s.5-.2.5-.2ZM93.1,616.3l.5-.2c.2.2.2.5.2,1s-.2.3-.7.5c0-.3,0-.5-.1-.6,0,0,0-.3.1-.6h0ZM95.9,719c-.2.2-.4,0-.7-.2l1.2-1c.3.3.5.5.5.7-.3.3-.6.5-.9.5h0Z"/>
    <path class="cls-1" d="M248.9,559c.1.8.5,1.4,1.1,1.9.6.8,1.2,1.6,1.7,2.4.5.8,1.2,1.6,1.9,2.4,2.9,3.2,6.4,5.8,10.6,7.8,2.9,1.4,5.8,2.6,8.7,3.7,2.9,1,5.9,1.9,9,2.5,3.8.8,7.6,1.5,11.3,2.1,3.7.6,7.4,1,11.3,1,3.1.2,6,.2,9,.1s5.8-.1,8.7-.1,1.1,0,1.6-.1.9-.1,1.4-.1l6.2-1.2c1.8-.3,3.7-.6,5.6-.8,1.9-.2,3.8-.6,5.6-1.1,1.2-.3,2.4-.7,3.5-1.1,1.1-.4,2.2-.6,3.5-.6s1.5,0,2.1-.2c.6-.2,1.3-.3,2.1-.5,4.1-1,7.9-2.2,11.3-3.8,1.7-.8,2.8-1,3.2-.7.5.3,1.1,1.4,1.8,3.3.6,1.1,1,2.2,1.1,3.3.1,1.3.3,2.5.3,3.5,0,1.1.3,2.3.6,3.5.8,2.7,1.1,5.2,1,7.7,0,2.5-.2,4.9-.3,7.5-.3,2-.7,4-1.3,5.7-.5,1.7-1.2,3.5-2,5.2l-.5.5-.5-.5c-.3-1.6-1-2.8-2.2-3.5s-2.1-1.7-2.9-2.8c-.8-1-1.7-1.7-2.8-2.2-1.1-.5-2.2-1-3.5-1.3-2.6-.8-5.1-1.1-7.6-.8-2.5.2-4.9.8-7.4,1.5-1.7.3-3.2,1-4.6,1.9-1.4,1-2.8,1.8-4.4,2.6l-1.8,1.7c-2.3,2.7-4,5.6-5.2,8.8-1.1,3.2-2,6.5-2.6,9.9,0,.3,0,.5,0,.8-1.5,0-2.8.6-3.6,1.8l-6.9,9-5.4,6.8c-1,0-2,0-3,.2-1.6.2-3.1.9-4.5,2-1.7,1.4-3.2,2.9-4.5,4.5-1.3,1.6-2.3,3.5-2.9,5.7-.5,1.4-.7,2.8-.7,4v2.8c-.4.5-.9,1-1.3,1.5-.8,1-1.8,1.9-2.9,2.7-1.5,1.3-3,2.5-4.2,3.8-1.3,1.3-2.6,2.6-3.8,4-1.5,1.7-3.3,3.2-5.3,4.4-2,1.2-4.1,2.2-6.2,3-2.1.8-3.2,0-3.2-2.1.1-1.3.3-2.5.3-3.8,0-1.3.3-2.5.8-3.8.9-2.4,1.8-4.7,2.6-7.1.8-2.4,1.9-4.7,3.1-6.9,1.7-2.8,3.4-5.7,5-8.5s3.4-5.7,5-8.5c1.5-2.7,3.2-5.2,5.2-7.6,1.9-2.4,3.7-4.8,5.4-7.3,1.4-1.9,2.7-3.8,4-5.6s2.8-3.6,4.5-5.3c1.7-1.7,3.2-3.5,4.6-5.3,1.4-1.8,2.9-3.6,4.6-5.3.6-.6,1.1-1.3,1.5-1.9s.8-1.3,1.3-1.9c-.8-.8-1.6-1.1-2.5-1-.9.2-1.8.2-2.5.2s-.9,0-1.3.1-.7.1-1,.1c-2.3.2-4.6.3-6.9.3-2.3,0-4.6-.3-6.9-1.1-1.5-.5-2.8,0-3.9,1.7-.5.6-.9,1.3-1.3,1.9s-.7,1.3-1,1.9c-1.7,2.5-3.5,5-5.3,7.3-1.8,2.4-3.5,4.9-4.8,7.6-.1.6-.6,1.2-1.4,1.7-1.4,1.3-2.6,3-3.7,5.2-.5,1.1-1.1,2.2-1.8,3.3-2.3,3.2-4.5,6.4-6.7,9.7-2.1,3.3-4.1,6.8-6,10.4-.6,1-1.2,1.9-1.7,2.8-.5,1-1.2,1.9-1.9,2.8-1.7,2.2-3.4,4.3-5.1,6.4-1.7,2-3.4,4.2-5.1,6.4-1.7,2.4-3.6,4.4-5.9,6s-4.6,3.1-7,4.4c-3.1,1.9-5.8,1.7-8.3-.5-1.2-1.1-2.1-2.5-2.8-4-.6-1.6-.8-3.2-.5-5,.6-2.7,1.3-5.4,2.1-8.2.8-2.8,2-5.4,3.7-7.9.9-1.4,1.8-2.9,2.6-4.4s1.5-3.1,1.9-4.8c.1-.3.3-.7.6-1.1.2-.4.5-.8.8-1.1,2.6-2.8,4.8-5.9,6.6-9.2,1.8-3.3,3.9-6.5,6.6-9.5.3-.3.5-.7.5-1.2.8-2.2,2.1-4,3.9-5.4.5-.3.8-.8,1.1-1.3s.6-1,.9-1.3l3.9-5.2c.9-1.3,1.8-2.5,2.8-3.7.9-1.2,1.8-2.4,2.5-3.7,1.1-1.3.7-2-1.1-2.4h-16.8c-2.6-.2-4.6.9-6,3.1l-1.1,1.4c-.9,2.2-2.4,4.3-4.4,6.2-.6.6-1,1.3-1.1,1.9-1.1,3-2.7,5.6-4.8,7.8-2.1,2.2-3.8,4.8-5.1,7.8-.1.3-.7,1-1.6,1.9s-1.5,1.7-1.8,2.4c-2,3.3-3.9,6.7-5.7,10.1-1.8,3.4-3.8,6.8-5.7,10.3-.5.8-.9,1.7-1.4,2.6-.5,1-.8,1.9-1.1,2.8-.5,2.2-.9,4.5-1.3,6.9-.4,2.4-.7,4.7-1,7.1-.5,3.6,0,7,1.3,9.9,1.3,3,3.3,5.8,5.9,8.3.3.3.6.6,1,.8s.8.4,1.3.4c1.7.3,3.3.6,4.9,1s3.3.4,4.9.2c2.4-.2,4.9-.5,7.2-1.1,2.4-.5,4.6-1.7,6.6-3.4.8-.8,1.6-1.4,2.4-1.9.8-.5,1.7-1,2.6-1.4,2.8-1.7,5.2-4.1,7.4-7.1l2.1-2.6c.1-.2.6-.5,1.4-1v1.4c.1,1.4.2,2.9.2,4.4v4.6c.1.8.3,1.5.5,2.1.1.6.5,1.3,1.1,1.9,1.5,1.6,3.1,2.9,4.6,4,1.5,1.1,3.5,1.3,6,.5h1.1c3.1.3,5.9-.1,8.6-1.3s5.1-2.8,7.2-4.8c3.1-2.7,6-5.4,8.8-8,2.5-2.3,4.8-4.8,7.1-7.4.6,6.8,3.6,12,8.9,15.7,3.1,2.2,6.3,3.9,9.6,5s7,1.4,11,1c1.4-.3,2.8-.6,4.1-1,1.4-.3,2.7-.6,3.9-1,3.1-1,5.9-2.2,8.4-3.7,2.5-1.5,4.9-3.4,7-5.8,1.7-2,3.6-3.8,5.7-5.2,2.1-1.3,4.1-3.2,5.7-5.7.9-1.1,1.9-2.2,2.8-3.3-.2.8-.5,1.7-.7,2.6-.1.6-.2,1.3-.2,1.9s-.1,1.3-.5,1.9c-.9,2.7-1.2,5.3-.8,7.8.4,2.5,1.2,5,2.4,7.6.8,1.7,1.8,2.7,3.2,2.8,2,.5,4,1,6,1.5,2,.5,4.1.2,6.2-1.1.1-.2.4-.2.7-.2,2.9-.3,5.4-1.2,7.6-2.7,2.1-1.5,4.3-3.1,6.4-4.8,1.8-1.6,3.6-3.2,5.3-5,1.7-1.7,3.4-3.5,5-5.2,3.4-4,6.8-7.9,10.2-11.7-.3,1.4-.5,2.8-.8,4.2-.1.8-.2,1.5-.1,2.2,0,.7.2,1.5.3,2.2,0,.5,0,1,.2,1.5.1.5.2,1.2.2,1.8-.3,3.2.5,5.8,2.5,8,.3.3.5.6.6,1,0,.3.3.6.6,1,1.5,3,3.5,5.1,5.9,6.3,2.4,1.2,5,1.9,7.9,2.2,2.8-.3,5.4-.7,7.9-1.1s5-1.2,7.5-2.5c4.8-2.4,9.2-5.1,13.4-8.2,4.2-3.1,8.1-6.7,11.6-10.8.8-.8,1.5-1.6,2.2-2.4s1.3-1.6,2-2.4c2-2.5,3.9-5,5.9-7.3,1.9-2.4,3.7-4.8,5.4-7.3,1.4-1.9,2.6-3.8,3.6-5.8,1-2,2.1-4,3.3-6,.3-.6.5-1,.5-1.2.3-1.7.8-3.5,1.4-5.2.6-1.7,1.2-3.4,1.8-5.1.6-1.7,1.1-3.3,1.5-5s.5-3.4.3-5.3c0-.2,0-.3.1-.3,0,0,.1-.2.1-.4.8-3.9.2-7.5-1.7-10.7-1.9-3.2-4.6-5.2-8.2-6.2-2.6-.8-5.2-1.3-7.8-1.4-2.6-.2-5.2.4-7.8,1.7-1.2.3-2.1.5-2.5.5-3.4,1-6.6,2.1-9.8,3.4-3.1,1.3-6.1,3.1-8.8,5.3-.6.5-1.2.9-1.8,1.3-.6.4-1.2.8-1.8,1.1-2,1-3.7,2.2-5,3.8-.5.6-1.3,1.4-2.5,2.4l-9.2,9c-.3.3-.6.7-.9,1.1-.3.4-.6.8-.9,1.3-.9,1.3-1.8,2.5-2.8,3.7s-1.9,2.4-3,3.7c-1.2,1.4-2.3,3-3.2,4.6-.8,1.5-1.6,3-2.3,4.6l-10.1,12.8c-.5.6-1.3,1.4-2.5,2.4-.3.3-.6.6-1,1s-.7.7-1,1.2c-1.1,1.7-2.3,3.2-3.7,4.4s-2.8,2.4-4.1,3.7c-3.7,3.2-7.3,6.2-10.8,9-1.2,1-2.6,1.7-4.1,2.1-1.5.5-2.5-.2-2.8-2.1v-2.1c0-.6,0-1.3.2-1.9.8-3.2,1.7-6.3,2.8-9.3,1.1-3.1,2.5-6,4.1-8.6.8-1.3,1.5-2.6,2.3-3.9.8-1.3,1.5-2.6,2.3-3.9.5-.8.8-1.5,1.1-2.1s.6-1.3.9-2.1c.8-1.4,1.7-2.7,2.8-3.9,1.1-1.2,2-2.5,2.8-3.9.8-1.6,1.6-3.2,2.6-4.7,1-1.6,2-3.2,3.1-4.7,1.2-1.7,2.4-3.6,3.6-5.6s2.3-3.8,3.6-5.6c.9-1.4,1.9-2.8,2.9-4,1-1.3,1.8-2.7,2.4-4.3.1-.5.3-.9.6-1.2s.5-.6.8-1c1.1-1.4,2.1-2.8,3.2-4.1,1.1-1.3,2.1-2.7,3-4.1,1.4-1.9,3.1-2.8,5-2.8.8.2,1.5.3,2.1.3.6,0,1.3.1,2.1.1,1.5.3,2.6.4,3.2.2.8-.2,1.2-.6,1.4-1.3.1-.7,0-1.3-.5-1.8-.6-.6-1.5-1.1-2.5-1.4-.5-.2-1-.2-1.5-.1-.5,0-1,.1-1.5.1h-2.5l1.4-2.6,3.9-6.6c.3-.3.5-.8.7-1.3.1-.5.5-1,.9-1.3,1.4-1.1,2.5-2.4,3.2-4,.8-1.6,1.7-3.1,2.8-4.5.9-1.6.6-2.2-.9-1.9-2.5,0-4.8,0-7.1.2s-4.7,0-7.1-.5c-2.1-.3-3.9,0-5.2.8-1.3.9-2.5,2.1-3.6,3.7l-1.4,2.8-5.7,9c-.3.3-.6.7-1,1.1-.4.4-.6.8-.8,1.3-.8,2.2-1.8,3.5-3.1,3.9-1.3.4-2.9.3-4.7-.1-.8-.3-1.5-.4-2.3-.3s-1.5.2-2.3.3c-1.5.3-2.1,1.1-1.8,2.4.6,1.4,1.5,2.1,2.5,2.1.9-.3,1.6-.5,2.1-.5.8,0,1.5,0,2.1-.2.6-.2,1.2,0,1.8.5-.3.6-.6,1.3-.8,1.9-.2.6-.5,1.3-.8,1.9-.6.8-1.2,1.5-1.8,2.2s-1.1,1.5-1.6,2.2c-.8,1.6-1.6,3-2.5,4.4s-1.9,2.8-3,4.4l-7.1,11.1c-.9,1.3-1.7,2.5-2.4,3.8-.7,1.3-1.6,2.5-2.9,3.5-.3.3-.6.8-.8,1.3-.2.5-.5,1.1-.8,1.5-.5.8-.9,1.5-1.3,2.1-.3.5-.6,1.1-.8,1.7-1.6,2.3-3.2,4.6-4.8,6.8-.9,1.3-1.8,2.5-2.6,3.5-.8,1.1-1.7,2.2-2.6,3.3-1.5,1.7-3,3.4-4.5,5-1.5,1.6-2.8,3.3-4,5.2-.1.3-.5.8-1.1,1.4-.5.3-1,.7-1.5,1.2-.5.5-1,.6-1.3.5-.8-.3-1.1-.8-.9-1.4s.2-1.3.2-1.9c-.1-2.2-.4-4.3-.8-6.2-.4-1.9-1.2-3.7-2.4-5.4-.9-1.3-1.7-2.6-2.3-4-.6-1.4-1.3-2.8-2.1-4.3-1.2-2.8-2.3-5.8-3.2-8.8s-1.4-6.1-1.4-9.2c-.3-4.1.2-7.8,1.6-11.1,1.7-4.6,5-7.3,9.9-8.3,2.3-.5,4.5-.2,6.7.8,2.1,1,3.8,2.6,4.8,4.6.8,1.4.5,2-.9,1.7-1.4,0-2.5.4-3.5,1.1s-1.8,1.5-2.5,2.5c-.8,1.1-1.1,2.2-1.1,3.3s.1,2.2.5,3.3c.5,1.3,1.1,2.1,2,2.5.8.4,1.9.7,3.1.8.5,0,.9,0,1.4-.1s.8,0,1.1.1c3.4,0,5.4-1.4,6.2-4.3.5-1.6,1.1-3,2-4.1.8-1.2,1.6-2.4,2.4-3.7,8.6-12.3,10.5-25.8,5.7-40.5l-1.6-4.5c-.3-.8-.3-1.3-.1-1.7.2-.3.7-.6,1.5-1l10.6-4c2.9-1.3,5.9-2.3,9-3.2,3.1-.9,5.9-2.2,8.5-3.9.3-.3.6-.5.8-.5s.5,0,.8-.2c2.6-.2,5-1,7.1-2.6l2.1-.7c4-1.3,7.8-2.8,11.5-4.6,3.7-1.8,7.5-3.3,11.5-4.6,1.5-.3,3-.8,4.2-1.4s2.6-1.3,4-1.9c3.7-1.6,7.3-3.2,10.9-4.7,3.6-1.6,7.2-3.2,10.7-5,1.8-.8,3.7-1.5,5.6-2.2,1.9-.7,3.9-1.2,6.1-1.5.3-.2.7-.3,1.1-.4.5,0,.8-.3,1.1-.6,1.7-.5,3.4-1,5.2-1.5,1.8-.5,3.5-1.1,5.2-1.8l7.8-2.4c2.1-.6,4.4-1.3,6.7-2,2.3-.7,4.5-1.2,6.7-1.5,2.3-.3,4.5-.8,6.8-1.3,2.2-.5,4.6-.9,7-1.1,3.2-.2,6.5-.4,9.8-.8,3.3-.4,6.5-.8,9.8-1.1,2,.2,3.7.3,5,.5,1.4.2,2.8.4,4.4.6,1.5.2,3.2.5,4.9,1s3.9.9,6.5,1.5c1.7.3,3.4.7,5,1.2s3.2,1.3,4.6,2.6c.3.3.6.5.9.6s.6.2.9.4c5.7,2.5,10.3,6.4,14,11.6,1.4,2.2,2.5,4.5,3.3,6.8s1.6,4.7,2.2,7.2c.5,2.8.3,5.4-.5,7.8l-1.2,4.3c-1.8,6.5-5.6,11.2-11.3,14.2-2.8,1.6-5.3,1.9-7.6,1-.6-.3-1.2-.5-1.8-.6-.6,0-1.2-.2-1.8-.4-2.5-.3-4.5-1.4-6.2-3.2-1.7-1.8-2.7-4-3-6.5-.5-3.6.7-6.6,3.5-8.9s6-3,9.9-2c.5.3,1,.6,1.5,1,.5.3,1,.2,1.5-.5.3-.5.5-1,.5-1.7v-1.7c.2-1.4-.5-2.8-1.8-4.3-3.8-3.5-8.4-4.7-13.8-3.8-1.8.3-3.7,1.2-5.5,2.6s-3.4,3.1-4.6,5.1c-1.2,2-2,4.1-2.4,6.4-.4,2.3-.1,4.6.8,7,.3.6.5,1.2.5,1.8s0,1.1.2,1.5c.2,1.3.5,2.4.9,3.3.5,1,1.1,1.8,1.8,2.6,2.1,2.7,4.7,4.7,7.6,6.2,2.9,1.4,6,2.5,9.2,3.1,2.9.5,5.8.7,8.6.6,2.8,0,5.7-.8,8.6-2,1.7-.8,3.3-1.5,4.8-2.1s3.1-1.5,4.6-2.6c3.1-2.2,5.7-4.7,7.9-7.5,2.2-2.8,3.9-6,5.2-9.8,1.2-3.9,1.9-7.8,2.1-11.6.2-3.8-.2-7.7-.9-11.6l-1.2-2.4-1.6-2.8c-.8-2.2-1.8-4-3.2-5.4-1.4-1.4-2.9-2.8-4.6-4-1.8-1.6-3.7-3-5.6-4.1s-3.9-2.4-6.1-3.7c-2.8-1.6-5.5-2.9-8.4-4-2.8-1.1-5.9-1.7-9.1-1.7s-1.2,0-1.7-.2c-.5-.2-1.1-.2-1.7-.2-2.6-.3-5.2-.7-7.8-1.1-2.6-.4-5.3-.2-8,.6-.5.2-.9.2-1.4.1-.5,0-1-.1-1.6-.1-2.9-.2-5.8-.2-8.7,0s-5.8.6-8.7,1.4l-6.7,1.2c-2.8.5-5.5,1-8.2,1.4s-5.3,1-7.9,1.7c-4.3.8-8.5,1.9-12.5,3.2s-8.2,2.6-12.3,3.9l-6.4,1.9c-1.4.5-2.8,1-4.1,1.7-1.4.6-2.8,1.2-4.1,1.7-2.9.8-5.7,1.7-8.4,2.8-2.7,1.1-5.4,2.3-8.2,3.5-1.8.8-3.7,1.6-5.5,2.5s-3.8,1.6-5.7,2.2c-5.2,1.4-10.4,3.5-15.6,6.4-.9.6-1.8,1-2.8,1-1.5.3-3,.8-4.4,1.3-1.4.5-2.8,1.2-4.1,2-2,1-3.9,1.8-5.9,2.6-1.9.8-3.9,1.5-6.1,2.1-1.4.3-2.8.8-4.1,1.3-1.4.5-2.8,1.2-4.1,1.8-1.5.6-3,1.3-4.4,1.9-1.4.6-2.9,1-4.6,1.2-.8.2-1.4.4-2,.6-.5.2-1.1.5-1.7.8l-4.8,2.4c-1.7.5-3.3,1-4.8,1.4-1.5.5-3.1,1-4.8,1.7-.9.2-1.6-.2-2.1-1.2-.9-1.3-1.8-2.6-2.8-3.9-.9-1.3-1.8-2.6-2.5-3.9-1.2-2.2-2.8-4.1-4.8-5.7-2-1.6-3.8-3.5-5.3-5.7l-19.3-12.5c-.3-.3-.7-.5-1.1-.6s-.8-.2-1.1-.3c-2.1-.6-4.2-1.2-6.2-1.7-2-.5-4-1.1-6-1.9-6.9-2.4-13.9-3.5-21.1-3.5h-1.8c-.6,0-1.2,0-1.8-.2-3.7-.6-7.4-.8-11-.6-3.7.2-7.3.7-10.8,1.3-2.5.2-4.9.8-7.4,1.9-2.6,1.1-5.1,2.2-7.6,3.4-2.5,1.2-4.8,2.9-6.9,5.1-3.4,3.5-5.7,7.5-7.1,12.1-.6,2.4-.6,4.7.1,6.9.7,2.2,1.3,4.4,1.7,6.6h0ZM270.5,647.8c0-.3.2-.6.6-1,.4-.3.7-.5,1-.5s.6.2.9.6c.3.4.7.8,1.1,1.1-.5.3-.8.6-1.1.8s-.6.3-.9.3-.7,0-1.1-.2-.6-.5-.5-1.2h0ZM229.1,629.1v.2l-.2.2c0-.2,0-.2-.1-.2s-.1,0-.1-.2h.5,0ZM211.9,655.1c0,.3.1.6.5,1l-1.1.5-.5-1c.5,0,.8-.2,1.1-.5ZM206.8,666.2h.2v.5h-.5c.1-.2.2-.3.2-.5h0ZM206.8,672.6c-.5-.5-.5-.7-.2-.7l1.4-1.9c.1-.2.4-.2.7,0,.1,0,.2.2.2.7l-1.6,1.9h-.5ZM207.9,677c0,0-.1-.2-.1-.4.1-.2.4-.2.7-.2,0,.2,0,.3.1.3,0,0,.1.2.1.4-.3,0-.5,0-.7.2,0-.2,0-.3-.1-.3ZM211.4,682.3l-2.1.7-1.1-.7c.5-.5.8-.7.9-.7.6-.3,1.3-.5,2.1-.5,0,.2,0,.2.2.2l.2.2c0,.5,0,.7-.2.7h0ZM210.3,674.1l.5-.7.5.5c0,.2-.1.4-.5.7l-.5-.5ZM213.3,671.2c-.6.5-1.2.5-1.8.2-.3,0-.5-.2-.5-.5,0-1.7.8-2.4,2.5-2.1l.7.7c0,.6-.3,1.2-.9,1.7h0ZM213.5,658.7c-.6,1.1-1.6,1.6-3,1.4-.6,0-1.1,0-1.6-.2-.3,0-.5-.2-.5-.7l.5-.5c1.4.5,2.7.2,3.9-1,.6-.3,1.1-.6,1.4-1l-.7,1.9h0ZM215.8,650.2c0-.2,0-.3-.1-.3,0,0-.1-.2-.1-.4s.2-.2.7-.2c0,.2,0,.3.2.5-.3.3-.5.5-.7.5h0ZM253.2,675.5l-.7-.5.7-.7.5.2h.2l-.7,1h0ZM255.3,684.5l-.9-.7c.1,0,.3,0,.3-.1,0,0,.2-.1.4-.1s.4.2.7.5l-.5.5h0ZM256.2,676.4c-.1.2-.3.2-.5,0-.1-.2-.3-.2-.5-.2.1-.2.3-.3.4-.5s.3-.3.6-.5c0,.2,0,.2.2.2s.2,0,.2.1,0,.1.2.1l-.7.7h0ZM264.7,659.6h-.9c.5-.5.6-.7.5-.7.1-.2.4,0,.7.2,0,.2,0,.3-.2.5h0ZM333.6,670.7c0,1.1,0,2.1-.2,3.1-.1,1-.2,2-.2,3.1s-.3,1.7-.8,2.7c-.5,1-1.2,2-2,3-.8,1-1.6,1.8-2.5,2.6-.9.8-1.7,1.3-2.3,1.4-.3.2-.8.2-1.6.2-1.5.3-3,.3-4.2-.1-1.3-.4-2.6-1-3.8-1.8-3.2-1.6-5-4.3-5.5-8-.1-1-.3-1.8-.4-2.7,0-.9-.1-1.7-.1-2.5.1-2.7.5-5.3.9-7.9.5-2.6,1.8-4.8,4.1-6.8.5-.5.8-1.1,1.1-1.9.3-1.7-.2-3.6-1.6-5.6-.3-.4-.5-.7-.8-1,1.9-2.6,3.7-5.2,5.6-7.9l4.1-5c0,0,0-.1.1-.2.1,1.3.3,2.6.5,3.9.8,3.7,1.8,7.4,3,11,.9,2.7,1.9,5.4,2.9,8.3,1,2.8,2,5.6,3.1,8.3.3.6.5,1.3.5,1.9v1.9h0ZM420.7,659.4c-.3,0-.6-.2-.9-.5.3-.3.6-.5.9-.5s.5,0,.7.1.4.2.7.4l-1.4.5h0ZM422.2,666.5c.5.2.8.4.8.7-.1.5-.4.7-.8.7h-1.3c-.1-.2-.3-.2-.5-.2s-.4,0-.7-.2v.2c-.6,0-1.5-.2-2.8-.5.3-.8.7-1.1,1.3-1.1.5,0,1,0,1.5-.1.5-.3.8-.3,1.1,0,.3.2.7.3,1.3.5h0ZM420.9,677.6c-.6.5-1.1.7-1.6.7s-1,0-1.6-.2c-.1,0-.4-.2-.7-.5l-.9-1.2.9-.5h1.1c.6.2,1.5.5,2.8,1.2v.5h0ZM423.7,671.9c-.3.3-.6.8-1,1.4s-.8,1-1.3,1c-.8.2-1.5.2-2.3.1-.8,0-1.4-.5-1.8-1.3-.1-.2-.2-.4-.1-.7,0-.3.2-.5.3-.7l5.3-1c.3,0,.5,0,.6.2,0,.2.2.2.3.2v.7h0ZM423.9,655.6c-.3,0-.6,0-.8-.1-.2,0-.6-.1-1-.1.6-.6,1.1-1,1.4-1.2.3,0,.6.2.9.5,0,.3-.1.6-.5,1h0ZM429.2,686.8l-.5-.5,1.4-1.4.9,1.2-1.8.7h0ZM444.4,633.3c.9-1.1,1.8-2.3,2.5-3.5.8-1.3,1.7-2.4,2.8-3.5,1.2-1.3,2.5-2.4,3.9-3.3,1.4-1,2.7-2,3.9-3.3,2.5-2.2,5.1-3.9,8-5.1,2.9-1.2,5.8-2.4,8.7-3.7,1.7-.8,3.4-1.1,5.2-.8s3.6.4,5.4.6c1.1.3,1.8,1,2.3,2.1.5.8.8,1.6.9,2.5.1.9.4,1.7.7,2.5.6,1.3.1,1.6-1.4,1-3.7-1.3-6.5-.4-8.5,2.6-1.5,2-1.6,4.2-.2,6.4l2.8,3.8c1.2,1.9,1.6,4.1,1.1,6.6-1.1,4.1-2.6,7.8-4.7,11.1-2.1,3.3-4.4,6.5-7,9.7-1.2,1.3-2.4,2.6-3.5,3.9-1.1,1.3-2.1,2.6-3.2,3.9-4.6,5.5-9.6,9.9-15.2,13-2.6,1.6-5.7,2.6-9.2,3.1-2.6.3-4.8-.4-6.7-2-1.8-1.7-2.9-3.9-3.2-6.8,0-1.1,0-2-.2-2.6.3-2.7.7-5.4,1.1-8,.5-2.7,1.1-5.4,1.8-8l1.4-2.6,1.6-3.3c1.5-5.8,4.4-11.2,8.7-16.1h0ZM419.1,591c.1,0,.2,0,.2-.2.3.3.5.5.5.7-.1,0-.4.2-.7.5,0-.2,0-.3-.1-.3,0,0-.1-.2-.1-.4s0-.2.2-.2h0ZM410.7,609.2c0,.2-.2.2-.3.2-.1.2-.3.2-.5.1s-.4,0-.7.1c-.3-.3-.7-.5-1.1-.5-.1-.2-.2-.3-.2-.5s0-.3.1-.4c0,0,.1-.2.1-.3h2.3c.1,0,.5.2.9.7-.3.2-.5.3-.6.5h0ZM407.8,599.5c.8-1.4,1.8-1.6,3.2-.5.3.2.5.4.5.6s.1.5.5.8l-1.6.5h-.7c-.1,0-.7-.2-1.6-.5-.1,0-.3-.1-.3-.3,0-.2,0-.4.1-.6h0ZM406.1,613.3c0,0,.3.1.6.1-.3.3-.5.6-.7.8s-.4.4-.7.6c-.1.2-.5,0-1.1-.2v-.7l1.6-.7c.1,0,.3,0,.4.1ZM405.3,609.2c0,.2,0,.2.1.2s.1,0,.1.2,0,.3-.1.4c0,0-.1,0-.1-.1-.1,0-.2,0-.2-.1s0-.1-.2-.1c0-.3.1-.5.5-.5h0ZM403.8,606.7c0,0,.2-.1.3-.1,0,.2,0,.3.1.3,0,0,.1.2.1.4-.1.2-.4.2-.7.2s-.2-.2-.2-.7c.1,0,.3,0,.4-.1h0ZM403.5,617.5l-.2.5c-.6.3-1,.3-1.3-.1-.2-.4-.5-.7-.8-.8,1.1-.3,1.8-.2,2.3.5h0ZM400,615.1h.2c.1,0,.7.2,1.6.5-.3.3-.6.8-.9,1.4l-.9-.7c-.3,0-.6-.2-.9-.5l.9-.7h0ZM370.2,674.3c-.3,0-.5-.1-.6-.3,0-.2-.3-.4-.6-.6.3-.2.5-.3.7-.5s.4-.2.7-.2.6.4,1.4,1.2c-1.2.3-1.8.5-1.6.5h0ZM341,659.2l.7-.5v.5c0,.2,0,.2.2.2l-.7.5-.2-.5v-.2ZM608.6,550.7c-.3.3-.8.2-1.4-.2-.6-.5-.9-.9-.9-1.2l.7-.5c.3.2.6.3.9.5.3.2.6.4.9.7,0,.5,0,.7-.2.7h0ZM608.1,538.1c.6-.4,1.3-.8,2.1-1.1.6-.5.9-.2.9.7.2,1.3.1,2-.1,2.1-.2.2-1,.4-2.2.7-.8.2-1.5.2-2.2.2s-1.4-.3-2.2-1c-.3-.6-.5-1-.5-1.2.3-.3.7-.5,1.2-.5h.7c.9.3,1.7.3,2.3-.1h0ZM605.8,533.2c.6,1,.5,1.4-.2,1.4-.6.2-1.2.2-1.8,0-.6-.2-1.2-.3-1.8-.5-.8-.3-1.2-.8-1.2-1.4-.2-.3,0-.8.5-1.3s.9-.8,1.4-.8c1.2-.3,2.3.5,3.2,2.6h0ZM600.6,525.9c.9-.3,1.6-.5,2.1-.5l.5.2v.2l-2.8.7-.2-.2.5-.5h0ZM268.5,550.3c.2-2.8,1.4-5.6,3.6-8.3,4.4-5.4,9.9-8.4,16.3-9,1.5-.2,3.1-.3,4.6-.6,1.5-.2,3.1-.5,4.6-.8.5,0,.9,0,1.3-.1s.8-.1,1.3-.1v.2l12.2,1c5.5.5,11.3,1.8,17.2,4,1.2.3,2.4.8,3.5,1.4,1.1.6,2.2,1.1,3.5,1.4,2.3.8,4.4,1.9,6.3,3.3,1.9,1.4,3.9,2.8,5.9,4,1.2.8,2.3,1.6,3.2,2.5s1.8,1.9,2.8,3c1.2,1.3,2.5,2.6,3.7,4.1,1.2,1.5,2.5,3,3.7,4.4l1.4,1.7c1.2,2,1.8,3.2,1.6,3.5-.1.3-1.3.7-3.5,1.2-2.3.6-4.6,1.3-6.9,2s-4.6,1.5-6.9,2.2c-1.7.5-3.4.9-5,1.3-1.7.4-3.4.8-5,1.1-2.3.5-4.6.9-6.9,1.2-2.3.3-4.6.6-6.9,1-1.8.3-3.7.5-5.6.7-1.9.2-3.8.3-5.6.5h-.5c-3.4-.8-6.8-1.1-10.2-1.1-3.5,0-6.8-.6-10-2-2.5-1.1-4.9-2.2-7.4-3.3s-4.9-2.3-7.4-3.5c-1.7-.8-3.1-1.8-4.4-3.1-1.2-1.3-2.2-2.9-3-5-1.1-3-1.5-5.9-1.3-8.8h0ZM253.7,549.3h.9l1.4,1.7v.7c-.6.3-.9.5-.9.7l-1.8-1.4c-.3-.5-.1-1,.5-1.7h0Z"/>
    <path class="cls-1" d="M610,605.8c-1.7.7-3.4,1.5-5,2.2-.3.2-.8.5-1.4,1.2-2.9,2.5-5.7,5-8.5,7.6-2.8,2.5-5.6,5.1-8.5,7.8l-1.2.7v-1.2c.8-1.7,1.2-3.5,1.3-5.3,0-1.8.1-3.6.1-5.3,0-4.6-2-7.6-6-9-2.6-1-5.3-1.6-8-1.9-2.8-.3-5.4,0-8,.7-1.1.3-2,.7-2.9,1.1-.8.4-1.7.8-2.6,1.3-.5.3-.9.6-1.4.8s-1,.4-1.6.6c-1.4.5-2.6,1.1-3.8,1.9-1.2.8-2.3,1.6-3.3,2.4-.5.3-1.2.6-2.1,1l.9-1.9c1.2-1,2.3-2,3.2-3.3l3.9-3.8c-.9-.8-1.8-1-2.8-.7-.9.3-1.8.5-2.8.7-2.6.3-5.2.5-7.8.6-2.6,0-5.2-.2-7.8-.8-1.1-.3-1.8-.4-2.3-.1-.5.2-1.1.8-1.8,1.8l-6.2,8.8c-.5.5-1,1.2-1.6,2.1l-12.9,19.2c-.3.6-.6,1.2-.8,1.7-.2.5-.5,1-.8,1.4-1.5,2.8-3,5.7-4.4,8.5-1.4,2.8-2.8,5.6-4.4,8.3l-12.9,24.4c-1.2,2.4-2.3,4.8-3.2,7.2-.9,2.5-1.8,4.8-2.8,7.2-.6,1.6-.2,2.4,1.1,2.4h16.1c1.1,0,1.8-.6,2.1-1.9.3-1,.5-1.9.7-3,.1-1,.5-2,.9-3,1.2-2.5,2.5-5,3.8-7.3,1.3-2.4,2.6-4.8,3.8-7.3l.5-.5,3-5c.9-1.9,1.8-3.8,2.6-5.6.8-1.8,2-3.4,3.6-4.8.3-.2.5-.4.5-.6s.2-.5.5-.8c1.7-2.7,3.3-5.3,4.9-7.8s3.2-5.1,4.9-7.8c2.3-3.6,5-6.8,8-9.5,3.1-2.7,5.8-5.8,8.3-9.2l.7-.5,14.2-9.5c1.2-.8,2.5-1.2,3.7-1.3s2.5,0,3.7.1c1.2.2,2.2.9,3,2.1,1.2,1.7,1.4,3.5.5,5.2-.5,1.1-1,2.1-1.5,3.1-.5,1-1,1.9-1.5,2.8-1.4,2.7-2.9,5.2-4.6,7.5-1.7,2.3-3.1,4.8-4.1,7.7l-.7,1.2c-2.3,3.2-4.5,6.4-6.7,9.8-2.2,3.4-3.9,7.1-5.3,11l-.7,1c-1.4,1.7-2.4,3.5-3,5.3s-1.2,3.8-1.8,5.8c-.2.6-.3,1.3-.5,1.9s-.4,1.3-.7,1.9c-1.1,2.5-1.4,4.9-.9,7.1.2.8.2,1.5.1,2.1,0,.6,0,1.3.1,2.1.3,1.4.8,2.8,1.4,4,.6,1.3,1.6,2.1,3,2.6,2,.8,3.9,1.3,5.9,1.5,1.9.2,3.9,0,6.1-.8.9-.3,1.5-.7,1.7-1.1.2-.4.2-1.1-.1-2-1.5-4.1-1.4-8.2.5-12.3,1.2-2.4,2.4-4.8,3.4-7.2,1.1-2.4,2.2-4.9,3.5-7.5.3-.5.6-.9.8-1.2s.5-.6.8-1l4.8-7.6c.8-1.3,1.5-2.5,2.3-3.7.8-1.2,1.6-2.3,2.5-3.4,1.2-2,2.6-4,4-5.9,1.5-1.9,2.9-3.8,4.2-5.7l2.5-2.8c1.2-1.4,2.5-2.8,3.9-4.1,1.4-1.3,2.6-2.9,3.7-4.6.2-.6.7-1.3,1.6-1.9l13.5-10.2c.8-.6,1.6-1.1,2.5-1.4.9-.3,1.8-.6,2.5-1,1.7-.6,3.6-.5,5.7.2,1.8.8,2.5,1.9,2.1,3.3-.3,1.3-.6,2.4-.8,3.4-.2,1-.6,2.1-1,3.2-.8,1.7-1.5,3.4-2.3,5-.8,1.6-1.7,3.1-2.8,4.5-1.8,3-3.7,6-5.6,9-1.9,3-3.6,6.1-5.2,9.2-.2.3-.3.5-.5.7-.2.2-.3.4-.5.7-1.2,1.7-2.4,3.5-3.6,5.3s-2.2,3.7-3.1,5.6c-2.2,5-3.8,10.1-5,15.3-1.2,5.1-2,10.4-2.3,15.7-.3,6,.8,11.6,3.5,16.8l2.1,5.2c.2,1-.2,1.5-.9,1.7-1.2.6-2.5,1.3-3.9,2-1.4.7-2.8,1.2-4.1,1.5-2.8.8-5.5,1.7-8.3,2.6-2.8,1-5.4,2-8,3.1-6.4,2.7-12.9,5.2-19.3,7.6-6.4,2.4-12.7,5.2-18.8,8.5-.3.3-.7.5-1.2.6s-.8.2-1.2.4c-1.7.6-3.3,1.2-4.8,1.8-1.5.5-3.1,1.2-4.6,2l-6,2.4c-3.1,1.1-6,2.2-9,3.3s-5.7,2.4-8.5,4c-.3.3-.7.5-1.1.5s-.9,0-1.4.2l-4.4,1.2c-2,.6-3.9,1.5-5.7,2.5-1.8,1-3.9,1.5-6.2,1.3-.3,0-.6.1-1,.4s-.8.5-1.3.8c-1.2.6-2.2,1-3,1.2-4.4,1.3-8.8,2.4-13.2,3.3-4.4,1-8.8,1.5-13.2,1.7-.8,0-1.4,0-1.8.2-3.7,1-7.4,1.5-11.1,1.7s-7.5,0-11.4-.2c-4.6-.3-9.1-1-13.7-2.1-4.5-1.1-9-2.2-13.4-3.3-.9-.3-1.5-.6-1.8-1-2.3-1.4-4.5-2.9-6.7-4.5-2.1-1.6-4.1-3.5-5.7-5.9l-3.7-4.7c-.3-.3-.6-.7-.8-1.2-.2-.5-.4-1-.6-1.4-.8-2.7-1.4-5.4-1.8-8.2s-.5-5.6,0-8.4c.3-2.8.9-5.5,1.8-8,.9-2.5,2.5-4.8,4.6-6.9,1.8-1.9,3.9-3.3,6.1-4.3s4.7-1,7.5-.2c.9.3,1.6.5,2.1.5,2.1-.2,3.9.3,5.2,1.3,1.3,1,2.6,2.2,3.8,3.7,1.2,1.7,1.8,3.9,1.8,6.6s-.6,4.9-1.8,6.6c-.8,1-1.8,1.7-3.2,2.4-3.1,1.1-5.8,1.2-8.3.2-1.2-.3-2-.4-2.4-.1s-.6,1.1-.8,2.5c-.1,1.9.4,3.5,1.6,4.7,1.4,1.3,2.8,2.3,4.4,3.1,1.5.8,3.2,1,5,.7,2.6-.2,5.2-.6,7.8-1.4,3.7-1,6.1-3.5,7.4-7.6l1.1-5.2c.5-2,.5-4.2.2-6.4s-.9-4.3-1.8-6.2c-.9-1.9-2.1-3.6-3.6-5.1-1.5-1.5-3-2.6-4.7-3.4-2.1-1-4.2-2-6.3-3.2-2.1-1.2-4.4-1.5-7-.8-.5,0-.8,0-.9-.2-5.8-1.3-11.4-.4-16.8,2.6l-2.5,1.4c-9.2,4.4-15,11.4-17.5,21.1-.5,1.7-.8,3.4-1,5.1-.2,1.7-.5,3.3-.8,5.1-.1.8-.2,1.5-.1,2,0,.5.2,1.2.4,2,.3,1.4.7,2.8,1.1,4.3s.8,2.9,1.1,4.5c.5,3,1.7,5.5,3.7,7.6.9,1.3,1.9,2.4,3,3.3,1.1,1,2.2,1.9,3.5,2.8,1.1,1,2.2,1.8,3.3,2.6s2.3,1.7,3.3,2.6c.9.8,1.8,1.5,2.6,2,.8.5,1.8,1,2.9,1.3.8.2,1.4.3,2,.6.5.2,1.2.5,2,.8l11.7,3.8c.3.2.7.2,1.1.1s.9-.1,1.4-.1c.8.2,1.6.2,2.4.2h2.6c2,.2,3.9.3,5.9.4,1.9,0,3.9.1,5.9.1,4.6,0,9.2-.2,13.8-.7,2.5-.3,4.9-.6,7.2-1s4.7-.6,7-1l5.3-1.2,5-1c1.2-.3,2.4-.5,3.6-.7,1.1-.2,2.3-.4,3.6-.7l17.7-5c.5-.2,1.1-.4,1.6-.5v142.1c0,.3,0,1.2-.1,2.9,0,1.7-.2,3.4-.4,5.3-.2,1.9-.6,3.5-1.1,5-.5,1.5-1.2,2.2-2.1,2.2-1.6,0-2.5.5-2.8,1.6-.3.5-.4,1-.2,1.4h35.5c0-.4,0-.9-.2-1.4-.3-.4-.6-.8-1-1.1-.4-.3-1-.5-1.8-.5s-1.5-.8-2.1-2.3c-.5-1.5-.9-3.2-1.2-5.1-.3-1.9-.5-3.6-.5-5.2s-.1-2.5-.1-2.8v-149.8c.4,0,.9-.2,1.3-.2.5,0,.9-.1,1.3-.4s.8-.5,1.3-.8l3.2-1.4c4.1-1.7,8.3-3.4,12.4-5.1,4.1-1.7,8.3-3.3,12.6-5.1,2-.8,4-1.6,6-2.4s4.1-1.6,6.2-2.4c1.1-.5,2.1-1,3.1-1.4,1-.5,2-.9,3.1-1.2,2.6-1.1,5.2-2.1,7.9-3,2.7-.9,5.3-1.9,7.9-3.2,2.3-1.1,4.7-2.1,7.1-3s4.9-1.7,7.3-2.5c2.6-.8,5.1-1.6,7.5-2.5,2.4-.9,4.8-1.8,7.2-2.7,1.4-.5,2.3-.7,2.6-.6.4,0,1.1.7,2.2,1.8l.7,1c1.1,1.9,2.3,3.6,3.7,5.1s2.8,3,4.1,4.4c3.5,3.6,7.2,6.5,11,8.8,1.2.8,2.5,1.6,3.7,2.5s2.5,1.7,3.7,2.5l4.4,2.6c2.1.8,4.2,1.5,6.2,2.2s4.1,1.5,6.2,2.2c.8.3,1.5.6,2.3,1,.8.3,1.5.5,2.3.7l16.3,2.1c1.1.2,2.1.2,3.2.2s2.1.2,3.2.5c4.3.8,8.5.9,12.8.2s8.4-1.7,12.5-3.1c.6-.3,1.3-.5,2-.5s1.3-.2,2-.5c1.4-.3,2.8-.7,4.1-1.1,1.4-.4,2.7-1,3.9-1.8,1.5-.8,3-1.7,4.5-2.7,1.5-1,3-1.9,4.5-2.7,2.5-1.6,4.4-3.7,5.7-6.4.8-1.7,1.5-3.9,2.1-6.4.9-3.6.5-7.1-1.4-10.4-1.1-1.9-2.2-3.7-3.2-5.3-1.1-1.7-2.6-3-4.6-4.1l-.2-.2c-1.2-1.4-2.6-2.5-4.1-3.3-1.5-.8-3.1-1.6-4.8-2.4-1.5-.6-3-1.2-4.5-1.8-1.5-.5-3-1-4.7-1.3-2.2-.6-4.4-1.2-6.7-1.8-2.3-.5-4.6-1-6.9-1.3-4.3-.6-8.5-1-12.8-1.1s-8.5,0-12.8.4c-1.5,0-3,0-4.5.2-1.5.2-3,.2-4.5.2s-3.4,0-5,.2c-1.7.2-3.4.4-5,.7-4.6.8-9.2,1.7-13.8,2.8-4.6,1.1-9.1,2.4-13.5,3.8-1.4.5-2.2,0-2.5-1.2-.8-2.2-1.5-4.5-2.3-6.8-.8-2.3-1.2-4.8-1.4-7.5,0-2.5,0-5,.2-7.3.2-2.4.5-4.7,1.2-7.1,1.5-6.6,4.4-12.9,8.5-18.9.9-1.4,1.8-2.9,2.6-4.4s1.6-3,2.4-4.6c.3-.3.5-.7.7-1.1.2-.4.4-.8.7-1.1,1.4-1.3,2.5-2.7,3.3-4.3s1.6-3.2,2.4-4.7c.9-2,1.9-4.1,3-6,1.1-2,2.1-4,3-6,.6-1.4,1.2-2.9,1.7-4.4.5-1.5,1-3,1.3-4.6.9-3.3.8-6.5-.5-9.7-.9-3.5-3-5.7-6.2-6.6-5.7-1.7-11-1.7-16.1,0-1.7.6-3.4,1.3-5,2h0ZM543.8,615.8l-1.4,1.4-.2-.5v-.2c.5-.6,1-1.2,1.6-1.7v1h0ZM570.2,639.5l-.2-.5h.5l-.2.5h0ZM369.2,747c-.1,0-.2,0-.2.2-.9-.3-1.6-.6-2.1-1l-.2-.2.7-.7,1.8,1c.1,0,.2.2.2.5s0,.2-.2.2h0ZM717.9,727.3h.5c-.2,0-.2,0-.1.1,0,0,0,.1-.1.1h-.2v-.2h0ZM714.3,739.2h.5v.2h-.5v-.2ZM712.9,733.5c-.6.3-1,.5-1.2.5l-.9-1,1.2-.7.9,1.2h0ZM710.6,728.3c.2-.2.5-.2,1.2-.2l.5.2h.2c0,.6-.2,1-.5,1-.2.2-.3.2-.5.2s-.4,0-.7.2c-.2,0-.2,0-.2-.1s0-.1-.2-.1-.2,0-.2-.2c0-.3.2-.6.5-1h0ZM710.6,738.4c.3,0,.5,0,.7.2l-.5.5c-.2,0-.3,0-.3-.1,0,0-.2-.1-.3-.1l.5-.5h0ZM614.1,716.9c.2-.3.9-.6,2.3-1,1.2-.5,2.5-.8,3.9-1.1,1.4-.2,2.7-.5,3.9-.8,2.5-.8,4.6-1.4,6.4-1.9.3-.3.7-.5,1.2-.6s.8-.2,1.2-.4c2.5-.5,4.8-1,7.1-1.5s4.6-1,6.9-1.3c1.2-.3,2.4-.4,3.6-.3,1.2,0,2.3.1,3.6.1s1.2,0,1.6.1c.5,0,.9.1,1.4.1v-.5c3.1.3,6.1.5,9.1.6,3,0,6,.2,9.1.3h.7c2.6.8,5.2,1.5,7.7,2.2s5.1,1.5,7.7,2.5c2.6,1.1,4.9,2.6,6.9,4.5,2,1.9,3.8,3.9,5.5,6.2.6,1,.9,1.7.9,2.1.3,1.7.4,3.5.3,5.3,0,1.8-.5,3.6-1.3,5.3-1.5,3.6-3.5,6.6-5.7,9-1.7,1.7-3.6,3-5.6,3.9s-4.2,1.6-6.3,2.2l-3.2.5c-3.5,1.1-7,1.6-10.6,1.5s-7-.5-10.6-1.3c-2.5-.6-4.9-1.2-7.2-1.7-2.4-.5-4.8-1-7.2-1.4-1.8-.5-3.6-1-5.3-1.7-1.7-.6-3.2-1.7-4.6-3.1l-.9-.7c-3.1-1.6-5.7-3.6-7.9-6-2.2-2.5-4.5-4.9-6.8-7.5-1.1-1.1-1.9-2.3-2.5-3.7-.6-1.3-1.3-2.6-2.1-3.9-.5-.8-.8-1.5-1.2-2s-.6-1.2-.9-2c-.8-1.3-1.1-2-.9-2.4h0Z"/>
    <path class="cls-1" d="M440.1,883.8c-1.6-.3-3-.3-4.3,0-1.1.3-2.1.8-3,1.7-.9.9-1.3,2.4-1.3,4.7s-.2,4.1-.6,7.6-1.3,7-2.5,10.6c-1.2,3.6-3,6.8-5.2,9.5-2.2,2.7-5.1,4.2-8.7,4.3h-27v-33.9c.5,0,1.5,0,3.1,0,1.5,0,3.2.2,4.8.5,1.7.3,3.2.6,4.5,1.1s2,1.1,2,1.9c0,1.3.4,2.1,1.3,2.4.5.1,1,.2,1.5.2v-20c-.5,0-1,0-1.5.2-.9.3-1.3,1.1-1.3,2.4s-.6,1.4-2,1.9c-1.3.5-2.8.8-4.5,1.1-1.7.3-3.3.4-4.8.5s-2.6,0-3.1,0v-71.9h6.1c3,.1,25.7,1,26.8,2.6,1.1,1.6,1.7,3.6,1.9,6.1.1,2.5,0,5.3-.6,8.4-.6,3.1-1,6.3-1.2,9.4-.2,3.1-.2,6.1.2,9,.4,2.9,1.5,5.2,3.5,7.1,1.4,1.5,2.9,2.3,4.6,2.4,1.7.1,3.3,0,4.6-.6,1.6-.7,2.9-1.6,3.8-2.9s1.4-2.6,1.4-4.1-.4-2.5-1.3-3.4c-.9-.9-1.9-1.4-3-1.4s-2.3.5-3.2,1.4c-.9.9-1.3,2.1-1.3,3.4v.4c-1-.5-1.4-1.6-1.1-3.2.1-2.3.7-5.3,1.7-9,1-3.7,2-7.6,3.2-11.7,1.1-4.1,2.1-8,3.1-11.9s1.4-7,1.4-9.4h-75.1c-.1.5,0,1.1.2,1.6.2.9,1,1.4,2.4,1.4s1.3.7,1.8,2.2c.4,1.5.7,3.1.9,5,.2,1.9.3,3.6.4,5.3,0,1.7,0,2.6,0,2.9v91.4c0,.3,0,1.2,0,2.9,0,1.7-.2,3.4-.4,5.3-.2,1.9-.5,3.5-.9,5-.4,1.5-1,2.2-1.8,2.2-1.4,0-2.2.5-2.4,1.6-.2.5-.3,1-.2,1.4h77.2c-1.7-7.2-2.7-13.6-2.8-19.3-.1-5.7,0-10.4.4-14.3.5-4.5,1.3-8.6,2.4-12.2h0Z"/>
    <path class="cls-1" d="M566.6,924.9c-1.3,0-2.2.5-2.4,1.6-.1.5,0,1,.2,1.4h32.9c0-.4-.1-.9-.4-1.4-.5-1.1-1.5-1.6-2.8-1.6s-1.6-.8-2.4-2.3c-.8-1.5-1.5-3.3-2-5.2-.5-1.9-1-3.7-1.3-5.3-.3-1.6-.5-2.5-.5-2.6l-1.8-10c3.4-.9,5.7-2.6,7.1-5,1.3-2.4,1.8-4.9,1.5-7.4-.3-2.5-1.5-4.8-3.3-6.7-1.9-1.9-4.4-2.9-7.7-2.9.8,1.2,1.4,2.3,1.8,3.4.3.9.4,1.9.3,3,0,1.1-.7,2-1.9,2.8l-12.3-68.7c0-.1,0-1-.3-2.6s-.4-3.3-.5-5.2c-.1-1.9,0-3.6,0-5.2.2-1.6.7-2.4,1.5-2.4s1.3-.1,1.6-.4c.3-.3.5-.6.6-1,.1-.5.1-1.1,0-1.6h-33.7c-.3.5-.3,1.1-.2,1.6.1.4.3.7.6,1,.3.3.8.4,1.6.4s1.3.8,1.4,2.3c.1,1.5,0,3.2,0,5.1-.2,1.9-.5,3.6-.8,5.3-.3,1.7-.5,2.6-.5,2.7l-21.2,91.4c0,.3-.2,1.2-.7,2.8-.5,1.6-1,3.3-1.7,5.2-.7,1.9-1.5,3.6-2.3,5.1-.9,1.5-1.7,2.3-2.5,2.3-1.3,0-2.3.5-2.8,1.6-.3.5-.5,1-.6,1.4h25.8c.1-.4.1-.9,0-1.4-.1-.4-.3-.8-.6-1.1-.3-.3-.8-.5-1.6-.5s-1.1-.6-1.2-1.9c-.1-1.3-.1-2.7,0-4.4.1-1.7.3-3.3.6-4.9.3-1.6.5-2.8.6-3.6.4-1.6,1.2-3.5,2.3-5.8,1.1-2.3,2.9-4.3,5.2-6,2.3-1.7,5.3-2.8,9.1-3.3,3.8-.5,8.5.2,14.1,2.1l2.2,12.4c0,.3.1,1.2.4,2.8.3,1.6.4,3.3.5,5.2,0,1.9,0,3.6-.2,5.1s-.7,2.3-1.5,2.3h0ZM552.5,886.8c-3.9.1-8.4,1.5-13.5,4l14.1-60.9,10.3,57.7c-3.4-.7-7-.9-10.9-.8h0Z"/>
    <path class="cls-1" d="M641.2,810.5c.3-1.9.6-3.6,1-5.3.4-1.7,1.1-2.5,2.1-2.5s1.4-.1,1.8-.4c.3-.3.7-.6.9-1,.1-.5.2-1.1.2-1.6h-34.4c-.1.5,0,1.1.2,1.6.3.9,1.2,1.4,2.7,1.4s1.5.8,2,2.3c.5,1.5.8,3.2,1,5.1.2,1.9.3,3.6.4,5.3,0,1.7,0,2.6,0,2.7v91.4c0,.3,0,1.2,0,2.8,0,1.6-.2,3.3-.4,5.2-.2,1.9-.6,3.6-1,5.1s-1.2,2.3-2,2.3c-1.5,0-2.5.5-2.7,1.6-.3.5-.3,1-.2,1.4h34.4c0-.4,0-.9-.2-1.4-.3-.4-.6-.8-.9-1.1-.3-.3-1-.5-1.8-.5s-1.7-.8-2.1-2.4c-.4-1.6-.8-3.3-1-5.2-.3-2.3-.5-4.9-.6-7.8v-91.2c.1-2.8.3-5.4.6-7.8h0Z"/>
    <path class="cls-1" d="M728.7,882.2c-1.8-.3-3.4-.3-4.8,0-1.3.3-2.4.8-3.4,1.7s-1.5,2.4-1.5,4.7-.2,4.1-.7,7.6c-.5,3.5-1.4,7-2.8,10.6-1.4,3.6-3.4,6.8-5.9,9.5-2.5,2.7-5.8,4.2-9.9,4.3h-11.3v-102.6c0-.5,0-1.6.2-3.3s.3-3.4.6-5.2.6-3.4,1-4.7,1-2,1.9-2c1.3,0,2.2-.5,2.7-1.4.3-.5.3-1.1.2-1.6h-34.4c-.1.5,0,1.1.2,1.6.3.9,1.2,1.4,2.7,1.4s1.5.8,2,2.5.9,3.4,1.2,5.3c.3,2.4.4,5,.4,7.8v91.2c0,2.9-.1,5.5-.4,7.8-.3,1.9-.7,3.6-1.2,5.2-.5,1.6-1.2,2.4-2,2.4-1.5,0-2.5.5-2.7,1.6-.3.5-.3,1-.2,1.4h68c-2-7.2-3-13.6-3.2-19.3-.1-5.7,0-10.4.4-14.3.6-4.5,1.5-8.6,2.7-12.2h0Z"/>
    <path class="cls-1" d="M376.5,990.9c3.9-.2,7.4-.8,10.6-2,3.2-1.1,5.7-2.4,7.2-3.9,2-1.7,3.3-3.5,4-5.5.7-1.9,1-3.7.8-5.2-.2-2-1-3.5-2.4-4.6-1.4-1.1-3.1-1.5-5-1.1-1.9.4-3.3,1.3-4.4,2.9-1.1,1.6-1.5,3.3-1.4,5.3,0,0,0,.2,0,.3-3.5.6-7-.9-10.5-4.5-3.5-3.7-7.1-8.4-10.7-14.3-3.7-5.9-7.5-12.3-11.5-19.3-4-7-8.2-13.7-12.5-20.1-4.4-6.4-9-12-13.9-16.7-4.9-4.8-10.2-7.8-15.9-9.3,7-2.4,13.4-6.1,19.1-11.2,5.8-5.1,10.7-11.3,14.7-18.5s6.9-15.4,8.6-24.4c1.8-9,2.1-18.4,1-28.2-1.8-17-7.4-30.5-16.2-41-8.8-10.5-19.2-18.3-31.2-24.9-10.4-5.5-20.9-9.2-31.8-11-11-1.8-21.4-2.1-31.8-.4-10.4,1.7-20.5,5.2-30.5,10.4-10,5.2-18.9,11.8-26.3,20.2-8.1,9.2-13.7,18.3-16.1,28.1-2.4,9.8-2.8,19.3-.9,28.4,1.9,9,5.5,17.3,10.6,24.4,5.2,7.1,10.7,12.1,16.4,14.9,5.3,2.7,11.5,4.7,18.6,5.8s13.3.4,18.8-2c3.9-1.7,7.2-4.1,10-7.2,2.8-3.1,4.9-6.7,6.2-10.5,1.3-3.8,1.7-7.9,1.2-12.3-.5-4.3-2.1-8.7-4.8-13-.8,2.4-2.4,4.8-4.8,7.3s-5.5,4.4-9.3,5.6c-3.8,1.2-8,1.6-12.6,1.1-4.6-.5-9.4-2.6-14.1-6.3-6.1-4.6-9.8-10.5-11.1-17.5-1.2-7-.6-13.8,1.6-20.7,2.2-6.8,5.8-13.2,10.3-19.1,4.5-6,9.6-10.7,15-14.1,8.1-4.9,16-8,23.9-9.4,7.9-1.4,15.5-1.4,23,0,7.5,1.3,14.7,3.9,21.7,7.7,7,3.8,13.4,8.4,19.2,14,5.8,5.7,10.7,12.3,14.7,20.2,4,7.9,6.4,17,7.2,27.4.7,8.8,0,17.2-2,25.3-2.1,8.1-5.1,15.2-9.1,21.4-4,6.2-8.8,11.2-14.2,15-5.4,3.8-11.1,5.9-16.9,6.3-.8,0-1.6,0-2.4.2-.9-29.8-1.4-59.5-1.7-89.8,0-.2,0-1.5,0-3.8,0-2.3.2-4.9.5-7.5.3-2.7.7-5.1,1.2-7.3.5-2.2,1.2-3.3,2.1-3.4,1.4,0,2.4-.8,2.9-2.2.3-.8.3-1.5.2-2.3-12.4.9-24.9.7-37.4-.4-.2.8-.2,1.5.1,2.3.2,1.4,1.2,2.1,2.9,2.3.9,0,1.6,1.2,2.1,3.3.5,2.2.8,4.6.9,7.2.1,2.7.2,5.2.2,7.6,0,2.4,0,3.8,0,4.1-1.5,48.5-1.9,95,.2,143.5,0,.4,0,1.8,0,4.1,0,2.4,0,4.9-.2,7.6s-.5,5.1-1,7.2c-.5,2.1-1.3,3.2-2.5,3.2-2,0-3.2.8-3.5,2.3-.3.8-.4,1.5-.1,2,15.2.1,30.2-.6,45.1-2,.1-.6,0-1.2-.4-2-.8-1.5-2-2.1-3.7-2-1.1,0-2-.9-2.8-3.1s-1.4-4.5-1.9-7.1c-.5-2.6-.9-5-1.1-7.3-.2-2.2-.3-3.5-.3-3.9-.7-14.2-1.2-28.4-1.7-42.4,2.5.6,5.5,2.7,9,6.3,3.5,3.6,7.1,8.1,11,13.6,3.9,5.5,7.9,11.4,12.2,17.8,4.3,6.4,8.4,12.7,12.5,18.9,4,6.2,7.9,12,11.6,17.4,3.7,5.3,7,9.5,10,12.5,3.6,3.8,7.5,6.4,11.6,7.8,4.1,1.3,8.1,1.9,11.9,1.8h0Z"/>
    <path class="cls-1" d="M707.9,964.5c0,1.1.9,2.1,2,2.1s2-.9,2-2.1-.9-2.1-2-2.1-2,.8-2,2.1Z"/>
    <path class="cls-1" d="M743.3,966.6c1.1,0,2-.9,2-2.1s-.9-2.1-2-2.1-2,.8-2,2.1.9,2.1,2,2.1Z"/>
    <g>
      <path class="cls-1" d="M534.2,974.6c1.3-.6,2.1-.7,2.7-.7s.7,0,.7,0c0,0-.5-.7-1.7-.7-.4,0-.8,0-1.5.3-.7.2-1.2.3-1.6.3-1,0-1.5-.5-2.7-.9-1-.3-2.3-.9-3.9-.9-1.2,0-2.6.4-4.4,1.4-3.3,2.1-7.4,6.3-7.8,6.3,0-.4,6-7.3,6-8.6h0c-.7-2-3.5-3.7-5.3-3.6-.4,0-.7,0-1,.3-2.5,1.6-4.9,6-7.4,9.6-.6.9-1.3,2-2.1,3.2-2.5,1.3-20.2,10.6-21.5,10.6-.5,0-.9-.3-.9-1,0-1.1,1.3-3.5,5.8-8.9,0,0,8.6-.4,10.2-4.8,0-.4.2-.7.2-1,0-1.8-1.7-3.3-4.4-3.3-3.1,0-7.5,2.1-12.2,7.9-3.6,4.6-4.9,8-4.9,10.2s1.7,3.7,3.5,3.7,1.1,0,1.6-.3c3-1.2,16.4-8.8,21.8-11.9-1.8,3.1-3.6,6.6-3.6,8.5s0,.7.2.8c.5,1.2,1.8,1.8,3.1,1.8s2.4-.4,3.3-1c1.9-1.4,13-15.5,17.6-17.2,1.2-.5,2.3-.6,3.2-.6,2.3,0,4,.8,5.5.7.5,0,.9,0,1.4-.3h0ZM494,975.1c.2,0,.4,0,.5,0,.5,0,.8.4.8.8,0,1-1.5,2.8-6,2.9,0,0,2.5-3,4.7-3.7h0Z"/>
      <path class="cls-1" d="M704.9,961.6c2.9-3.2,10.3-12.3,11.6-13,1.5-.8,2.3-1.1,2.3-1.1,0,0-4.3-4.7-8.2-4.7h-.2c-4,0-6.2,5.5-9.6,9.6-3.5,4.1-9.1,12.7-11.2,15.5-2,2.8-5.5,10.2-5.5,10.2l-1.2,1.9c-.9-1.3-2.9-3.4-6.2-3.4s-2.7.3-4.5,1.1c-2.5,1.2-4.5,2.9-5.9,4.7-1,.6-2.4,1.5-4,2.5-3.9,2.6-6.5,3.8-7.5,3.8s-.4,0-.5-.2h0c0-.9,6.5-9.3,6.5-12.4,0-.2,0-.4,0-.6-.6-1.2-1.6-2-3.1-2-1.6,0-3.7.8-6.5,2.8-5.2,3.8-10,7.6-10,7.6,0,0,7.1-8.2,7.1-10.3v-.2c-.4-.8-2-1.3-3.7-1.3s-3.5.5-4.3,1.8c0,0-5.9,8.6-8.2,13.7-4.7,4.4-10.6,9.7-17.6,14,2.3-6.3,15.2-24.5,15.2-24.6v-.7c0-2.2-1.2-4-2.8-4-1,0-2.1.7-3.1,2.2,0,0-.6.9-1.6,2.3-1.5,1.2-3.3,2.6-5.1,4-.8-2.5-2.3-5.6-4.4-7h0c-.9-.7-2-1-3.4-1s-1.6,0-2.6.4c-3.4,1-6.3,4.5-8.2,8.2-3.7,2.3-10.9,6.5-12.8,6.5s-.3,0-.4,0c-.3-.2-.4-.6-.4-1,0-1.7,1-4.7,1-6.9,0-1.4-.4-2.5-1.5-2.8-.8-.3-1.7-.4-2.6-.4-2.8,0-6.1,1.4-11.1,5-6.3,4.3-16.1,9.1-17.7,9.1h-.2c0-1.3,16.8-22,18.2-23.7,2.8-3.1,5.6-6.6,10.6-12.3,3.8-4.3,5.4-4.7,6.4-4.7h.7c.4,0,.7,0,1.1,0,1.2,0,2.1-.6,2.4-3,0-.3,0-.7,0-.9,0-2.6-1.2-5.4-3.3-5.4s-.8,0-1.2.3c-3.2,1.3-10.1,6.8-15.5,14.2-3.5,4.7-13.1,17.1-20,26.3-3.6,2.5-11.6,7.9-13.8,7.9s-.2,0-.3,0c-.3,0-.5-.4-.5-.8,0-2.2,5-8.5,7.2-9.8.7-.4,1.2-.6,1.5-.6h.3c0,.3.2.5.2.8,0,.8-.7,1.7-1.6,2.1,0,0,.5.2,1.3.2s2.1-.3,2.5-1.8c.2-.6.2-1.1.2-1.6,0-2.4-1.6-3.8-4-3.8s-7.2,2.2-10.7,7.1c-1.5,2.2-2.3,4.1-2.3,5.7,0,2.9,2.2,4.6,4.9,4.6h.3c2.7-.1,9-4.5,13.2-7.7-3,4.1-5.2,7.3-5.6,8.2-.2.6-.3,1-.3,1.5,0,2.2,1.6,3.9,3.3,3.9s.4,0,.5,0c2.4-.6,24.2-14.6,26.7-16.2.5-.3.9-.5,1.3-.5,1,0,1.4,1.3,1.4,3.7,0,.8,0,1.6,0,2.5,0,.7,0,1.3,0,1.9,0,2.7.6,4,2.6,4s1.4,0,2.2-.4c2.9-.8,10.5-6,15.2-9.4-1.1,2.5-1.7,4.9-1.7,6.5v.2c0,3.8,2.7,5.2,4.6,5.2h.5c2-.4,9.3-6.1,13.8-9.9l2.2-1.8c0,.3.2.6.3.9-5.2,7.9-11.7,18.5-11.7,22.8s.2,1.2.5,1.5c.4.2.7.3,1.2.3,4.6,0,15.7-10,23.8-18h0c0,.4,0,.6.3.7,1.6,1.2,3.4,1.3,3.9,1.3h.3s14.6-13.5,16.3-14.2h.2s0,0,0,0c0,.9-4.2,6.9-4.2,10.7,0,.8.2,1.5.6,2.1.4.4.8.5,1.5.5,3.4,0,10.4-4.4,14.9-7.6-.8,1.5-1.3,3-1.3,4.2s.7,2.5,2.3,2.5c4.1,0,11.1-3.4,13-4.3-2.3,4.1-5.6,9.8-7.3,11.9-2.7,3.2-2.9,10.1-4.3,11.6-.2.2-.4.5-.4.7,0,.5.5.9,1.3.9,1.2,0,3-.9,4.7-4,3.5-5.9,22.6-35.3,26-38.6,3.5-3.3,2.7-4.2,5.6-7.4h0ZM605.4,989.7h0c-.2,0-.3-.3-.3-.7,0-1.5,1.6-5.1,4.4-8.2,1.5-1.6,2.8-2.1,4-2.1s.7,0,1,0c.7.4,1.5,1,2.2,2.5-5.1,4.1-10.3,8.2-11.2,8.2h0ZM619.1,981.5c-.4.7-.8,1.3-1.3,2,0-.2,0-.5-.2-.8l1.5-1.2Z"/>
      <path class="cls-1" d="M858.6,998.2c-.9-.3-2-.3-3.1-.3-1.8,0-3.5.2-3.5.2l-47.8,1.1c6.5-8.1,12.8-16.4,14.2-19.4.7-1.4,1-2.6,1-3.8,0-3.9-3.1-6.7-4.5-7.6-.7-.5-1.5-.7-2.1-.7-1,0-1.8.5-2.1.7-.4.3-2.1,1.7-4.5,2.9-1.1.6-5.5,4.1-10,7.7-.8-2.5-2.3-5.6-4.4-7h0c-.9-.7-2-1-3.4-1s-1.6,0-2.6.4c-4.4,1.3-7.8,6.5-9.5,11-1,.6-2.3,1.4-3.9,2.5-3.9,2.6-6.5,3.8-7.5,3.8s-.4,0-.5-.2h0c0-.9,6.5-9.3,6.5-12.4,0-.2,0-.4,0-.6-.6-1.2-1.6-2-3.1-2-1.6,0-3.7.8-6.5,2.8-5.2,3.8-10,7.6-10,7.6,0,0,7.1-8.2,7.1-10.3v-.2c-.4-.8-2-1.3-3.7-1.3s-3.5.5-4.3,1.8c0,0-2.2,3.2-4.5,6.9h-.2c0,0-17.2,12.2-18.4,12.7,0,0,0,0,0,0,0-1,12-16,12.9-17.1,1-1.1,1.7-1.8,1.7-1.8,0,0-1.4-3.8-4.1-3.7-.5,0-1.2.2-1.8.6,0,0-3.7,4.5-7.6,9.8l-9.3,3.8c-1.1-2.2-3.6-2.2-3.6-5.4v-.2c0-1.9.8-2.4,1.8-2.4s2.9,1.1,2.9,1.1c1.4-.8,2.5-3.4,2.5-5.4s-.5-2.6-1.7-2.8h-.6c-3.1,0-8.5,2.5-9.5,7.2,0,.4,0,.8,0,1.1,0,1.1.4,2.2.9,3.2-3.4,2.4-16.5,11.7-17.6,12.1,0,0,0,0,0,0,0-1,12-16,12.9-17.1,1-1.1,1.7-1.8,1.7-1.8,0,0-1.4-3.8-4.1-3.7-.5,0-1.2.2-1.8.6,0,0-16.4,20.1-16.4,25.9s0,.8.4,1.1c.3.3.6.4,1.1.4,4.7,0,19.4-12.4,24.3-16.7,1.6,2.5,4.1,4.2,4.1,4.2,0,0-2.6.5-7,3.6-2.4,1.7-3.4,3.3-3.4,4.3s.6,1.2,1.5,1.2h.5c2.6-.4,11.2-1.1,11.8-7v-.8c0-.7,0-1.2-.2-1.6l8.4-3.8c-4.1,5.7-8.2,12.2-8.2,15.1s0,.8.4,1.1.6.4,1.1.4c4.7,0,19.2-12.3,24.2-16.7-2,3.4-3.9,6.9-3.9,8.5s0,.6.3.7c1.6,1.2,3.4,1.3,3.9,1.3h.3s14.6-13.5,16.3-14.2h.2s0,0,0,0c0,.9-4.2,6.9-4.2,10.7s.2,1.5.6,2.1c.4.4.8.5,1.5.5,3.5,0,11.1-4.8,15.6-8-.5,1.5-.7,2.9-.7,3.9v.2c0,3.8,2.6,5.1,4.6,5h.5c2-.4,9.3-6.1,13.8-9.9l2.2-1.8c.2.7.4,1.3.5,2.2l.5-.2s-.2-.9-.5-2.3c4-3.3,8.5-6.8,10.9-8.2,1.6-.9,2.8-1.3,3.6-1.3s.9.2,1.1.6h0c0,1.1-5.8,8-14,19.8-1.7,2.4-3.7,5.2-5.9,8.1h-2.5c0,0-1.4,0-1.4,0-3.5,0-10.5.3-23,1.4-19.7,1.9-32.9,2.5-51.6,10.5-18.6,8.1-28.9,22.1-28.9,34.6,0,12.4,7,20.1,16.4,21.8,1.4.3,2.9.4,4.5.4,8.7,0,18.8-3.7,21-4.5,2.5-.9,13.2-6.6,20.2-10.1,6.9-3.6,17.7-12.6,18.3-13,.6-.6,2-1.9,2.9-2.2s2.8-2.2,5.2-4,6.1-6.6,7.1-7.9c1-1.3,2.1-2,2.9-2.5.8-.7,2.9-3.3,6.3-7.1,1.5-1.8,7.3-8.7,13.2-16.1,10.6-.2,24.5-.4,29.3-.6h1.4c6.8,0,8.1,1.4,10,2.1,1.3.6,5.4,1.1,9.1,1.1s4.5-.3,5.6-.8c1.5-.8,2.2-1.6,2.2-2.4s-.7-1.5-1.9-1.9h0ZM784.6,987.7h0c-.2,0-.4-.4-.4-.8,0-1.5,1.7-5,4.5-8.1,1.4-1.5,2.7-2.1,3.8-2.1s.7,0,1.1.2c.7.3,1.5.9,2.3,2.4-5.2,4.2-10.3,8.2-11.2,8.2h0ZM768,1029.3c-7.3,8.1-33.9,28.2-45.1,33.4-4.8,2.2-9.5,3.1-13.7,3.1s-10.4-1.6-13.5-4c-3.4-2.6-5-8.2-5-14s.6-7.5,1.9-10.5c3.4-7.8,14.7-21.1,36-28.2,19.6-6.6,56-7.9,61.4-8.1h1.7c-8.2,10.6-18.1,22.3-23.6,28.4h0Z"/>
      <path class="cls-1" d="M458.1,1033.7h-.1c-.1,0-.7,0-1.3-.8-.8-.9-2-3.1-1.2-8.4,1.3-9.3,12.5-37.3,27.1-59.8,13.8-21.5,16.9-24.1,17-24.1l.2-.2c.7-.7,1.2-2.4,0-3.9-1.2-1.3-3.4-2.4-3.6-2.5-.2,0-.6-.3-1.3-.2-.4,0-.9.4-1.3,1.1v.2c-.4.7-4,6.9-9.2,14.3-4.8,7.2-26,35.4-30.5,40.1-.5.5-1.1,1.2-1.8,2-5.1,5.5-20.4,22-26.1,19.2-2.6-1.3-3.6-7.3-2.9-16.6.7-8.4,2.6-17.7,4.3-23.2,1.4-4.7,2.7-7.7,3.6-9.6,1.2-2.7,1.9-4.4.3-6-1.5-1.7-2-2-2.2-2.2-.3-.2-1-.5-1.8-.3-.5.1-1.2.5-1.7,1.6-.8,1.4-1.3,4.3-1.5,5.1-.6,1.2-4.1,8.9-7.2,15.8-4,8.9-28.5,58.1-38.2,68.6-9.2,9.9-11.8,9.6-12.8,9.5h-.1c-.8-.2-1.4.2-1.6.6-.6,1.1.4,2,1.2,2.7l.2.2c.7.7,2,2,4.2,2s.2,0,.4,0c3.5-.2,7.8-3.8,13.3-10.9,9-11.7,26.3-43.5,33.4-56.8-.3,6.4,0,15.6,4.1,20,2.1,2.3,5.1,4.9,9.3,4.9h0c5.3,0,11.4-3.9,19.8-12.8,3.7-3.8,6.5-6.9,8.8-9.4-5.2,11.2-11.7,28.1-8.7,37,.1.3,2.7,6.5,11.2,8.4h.3c.5,0,1.1-.2,1.5-.8.5-.7.5-1.6,0-2.8-1-2.7-3.7-2.5-4.9-2.4h0Z"/>
    </g>
  </g>
</svg>