<?xml version="1.0" encoding="UTF-8"?>
<svg id="Layer_1" data-name="Layer 1" xmlns="http://www.w3.org/2000/svg" version="1.1" viewBox="0 0 890.72 1094.52">
  <defs>
    <style>
      .cls-1 {
        fill: #fff2ea;
        stroke-width: 0px;
      }
    </style>
  </defs>
  <path class="cls-1" d="M450.56,425.39v2.36c-.53.12-1.07.29-1.62.35-4.1.44-7,2.61-8.94,6.16-1.76,3.2-3.52,6.4-5.24,9.61-2.39,4.48-5.49,8.48-8.51,12.54-.38.51-.76,1.03-1.19,1.62.35.48.63.98,1.01,1.38,2.3,2.4,4.54,4.88,7.41,6.67,2.89,1.8,5.97,2.87,9.44,2.82,3.49-.05,6.34-1.35,8.59-4,.62-.73,1.26-1.44,2.01-2.31.64.49,1.22.93,1.96,1.5-.61,1.13-1.11,2.23-1.76,3.23-1.77,2.76-3.67,5.43-6.48,7.25-5.93,3.84-12.11,4.12-18.46,1.11-3.76-1.79-6.79-4.58-9.83-7.33-.42-.38-.85-.75-1.35-1.19-1.25,1.01-2.43,1.97-3.63,2.91-8.63,6.74-18.3,9.36-29.05,6.93-7.8-1.77-12.82-8.23-13.18-16.22-.31-6.83,1.88-12.7,6.59-17.67,3.52-3.71,7.59-6.68,11.99-9.26,1.38-.81,2.74-1.63,4.21-2.5-.6-1.58-1.16-3.06-1.71-4.55-1.59-4.37-2.59-8.85-2.27-13.55.32-4.78,2.02-8.98,5.36-12.44,4.1-4.26,9.21-5.58,14.94-4.92,3.8.43,7.16,1.78,9.91,4.58,1.68,1.71,2.78,3.73,3.24,5.99.94,4.61.34,9.03-2.37,13.02-1.57,2.32-3.71,4.08-5.98,5.63-2.84,1.94-5.8,3.71-8.89,5.67,4.35,8.2,9.08,16.34,15.32,23.77.8-1.04,1.54-1.98,2.26-2.94,3.03-4.08,5.77-8.34,7.23-13.27.49-1.64.85-3.37.92-5.07.11-2.67-1.19-4.12-3.83-4.71-1.06-.24-2.14-.38-3.44-.61-.05-.74-.1-1.52-.17-2.53h25.51ZM414.36,463.65c-.63-.83-1.12-1.49-1.63-2.15-3.77-4.86-7.25-9.93-10.26-15.3-1.69-3.02-3.38-6.03-5.09-9.03-.27-.47-.61-.9-.92-1.36-3.49,1.82-6.44,4.08-8.84,6.94-4.97,5.88-6.31,12.56-3.13,19.65,2.99,6.65,8.19,9.69,15.26,8.74,5.62-.75,10.38-3.41,14.61-7.49ZM404.7,426.57c3.93-2.34,7.64-4.69,10.31-8.34.56-.77,1.07-1.6,1.49-2.46,1.49-3.05,1.9-6.25.93-9.52-1.18-3.95-4.39-6.61-9.12-6.47-4.81.14-7.38,3.41-8.02,7.35-.33,2.04-.29,4.21-.02,6.27.6,4.6,2.34,8.86,4.44,13.17Z"/>
  <g>
    <path class="cls-1" d="M174.28,235.44c-1.83,3.59-4.73,3.69-7.92,3.36-2.82-.29-5.67-.27-8.75-.4-.28-1.08-.6-2.32-.96-3.68,2.14-1.02,4.37-1.94,3.98-4.78-.31-2.29-2-3.13-4.17-3.2-.02-2.06,1.94-2.21,2.79-3.51-4.09-16.7-6.26-33.87-9.53-50.92-.43,2.67-.88,5.33-1.29,8-1.5,9.83-2.96,19.68-4.51,29.5-.43,2.69.25,4.7,2.78,5.93.19.09.32.29.53.48-1.35,1.19-2.68,2.32-3.95,3.51-1.61,1.52-2.65,3.41-3.13,5.57-1.43,6.39-3,12.76-4.18,19.2-.51,2.77-.37,5.7-.19,8.54.15,2.4,1.19,4.46,3.65,5.23,1.02-.88,1.86-1.81,2.88-2.42,1.6-.96,3.3-.76,4.27.26,1,1.05,1.18,3.45.15,4.76-1.72,2.2-3.95,3.74-6.83,3.81-4.4.11-8.59-.97-12.6-2.69-4.94-2.12-9.46-4.92-13.3-8.74-.32-.32-.69-.59-1.09-.93-3.29,1.77-6.55,2.64-10.23,0,.82-.43,1.24-.73,1.7-.89,2.98-.99,4.41-3.27,4.99-6.15.14-.68-.14-1.54-.47-2.19-2.82-5.51-7.07-6.91-12.55-5.83-3.48.69-6.17,2.82-8.06,5.82-2.16,3.43-1.11,7.08,2.47,8.96.68.36,1.34.74,2.21,1.23-.32.59-.51,1.18-.9,1.58-4.18,4.26-9.47,3.45-12.44.47-3.72-3.73-4.35-8.27-2.69-13.09,2.45-7.12,7.75-11.24,14.83-13.06,4.9-1.26,9.82-1.12,14.37,1.56.19.11.42.13.91.27-.45-2.95-.87-5.75-1.32-8.53-2.57-15.95-5.82-31.77-9.2-47.56-.06-.3-.16-.6-.22-.9-.77-4.11-2.61-7.43-6.91-9.01.22-.37.31-.68.52-.83,2.95-2.08,3.43-5.04,2.79-8.26-2.47-12.51-5.03-25-7.53-37.5-1.36-6.82-2.63-13.66-4-20.47-.29-1.42-.79-2.83-1.36-4.17-.36-.83-.96-1.59-1.6-2.25-1.54-1.59-3.6-2.1-5.28-1.31-1.96.93-2.72,2.66-2.82,4.71-.08,1.63.98,2.99,2.4,3.23,1.23.21,1.83-.28,2.57-2.08.09-.21.19-.41.3-.61.03-.06.12-.08.19-.11,2.35,1.64,2.96,4.74,1.25,7.04-1.93,2.6-4.48,3.9-7.84,3.37-6.72-1.07-10.15-6.81-7.83-13.19.9-2.47,2.35-4.6,4.43-6.13,2.98-2.19,4.1-4.89,3.22-8.46-.1-.42-.01-.9-.01-1.64,4.09,4,8.98,3.82,13.79,2.97,6.38-1.13,12.68-2.72,19.03-4.07,2.71-.58,5.45-1.07,8.39-1.64.26,1.62.5,3.1.73,4.54-6.04,2.37-7.42,4.29-7.2,10.24.21,5.6,3.87,7.62,9.05,7.92-1.16,3.04-3.75,3.85-6.14,5.12.03.47.02,1,.11,1.51,2.74,14.46,5.49,28.93,8.24,43.39,2.37,12.5,4.68,25.01,7.13,37.49,1.56,7.95,3.32,15.86,5,23.78.14.66.36,1.3.86,1.96.25-1.5.52-2.99.75-4.49,2.14-13.51,4.29-27.02,6.41-40.53,2.24-14.2,4.45-28.4,6.68-42.6.6-3.82,1.3-7.62,2.93-11.18.26-.56.54-1.11.84-1.66,4.04-7.39,13.01-9.19,19.61-3.92.33.26.57.65,1.12,1.3-.8,0-1.21,0-1.61,0-1.11,0-1.77.61-1.93,1.63-.17,1.12-.39,2.31-.2,3.41,1.68,10.11,3.45,20.21,5.18,30.31,1.58,9.19,3.11,18.38,4.71,27.57,1.73,9.96,3.49,19.91,5.25,29.86.09.51.28,1,.77,1.5.6-3.08,1.21-6.16,1.79-9.25,3.36-17.92,6.72-35.85,10.07-53.78,1.22-6.53,2.43-13.07,3.64-19.6.89-4.78-.87-8.06-5.36-10-.26-.11-.5-.28-.9-.52,2.25-3.16,5.72-3.24,9.01-4.01.65-3.25,1.34-6.49,1.94-9.75.96-5.24,1.93-10.49,2.74-15.76.3-1.97.3-4.02.16-6.01-.17-2.52-.89-3.01-3.38-3.58-1.94-.45-3.87-1.05-5.71-1.82-1.83-.77-2.8-2.39-3.21-4.3-.34-1.55.39-3.23,1.67-4.03,1.09-.68,2.22-.65,2.99.09.84.79.91,1.73.19,2.92-.2.32-.48.59-.81.99,1.35.92,2.82.78,4.23.72,3.79-.17,7.2-1.64,10.61-3.14.84-.37,1.66-.76,2.7-1.24.16,2.1.27,4.13,2.93,4.25,1.94.09,3.7-1.06,4.3-2.87.56-1.67,0-2.76-2.19-4.34.12-.19.22-.42.38-.57,3.76-3.45,7.51-6.9,11.29-10.33,2.29-2.08,4.48-4.28,6.94-6.14,3.8-2.87,8.13-4.44,13-4.05,3.48.28,6.23,1.81,7.7,5.09,1.44,3.22,1.13,6.35-1.12,9.13-1.28,1.58-2.93,2.67-5.06,2.9-.26-2.7-.75-5.28-3.56-6.24-3.09-1.05-5.97-.28-8.38,1.91-3.27,2.97-4.14,6.82-2.6,10.98.26.7.53,1.4.77,2.05-.24.18-.35.34-.48.35-5.63.56-10.41,4.87-11.54,10.42-.56,2.76.09,4.48,2.73,7.05-1.59,2.18-3.99,2.26-6.56,2.41-.2,1.04-.38,2.08-.58,3.11-2.95,14.82-5.9,29.64-8.85,44.46-2.87,14.44-5.71,28.9-8.62,43.33-2.78,13.84-5.63,27.66-8.45,41.49-.45,2.19-.98,4.37-1.38,6.57-.99,5.52.14,10.75,2.61,15.67,1.1,2.2,3.07,3.43,5.91,3.12-.3,1.81-.56,3.37-.82,4.95-5.08.76-10,.95-14.87-.31-3.89-1.01-7.12-2.96-9.11-6.61-.14-.26-.36-.48-.8-1.06Z"/>
    <path class="cls-1" d="M548.83,332.9c5.7-14.42,11.41-28.85,17.14-43.34.9-.04,1.66-.11,2.41-.11,26.54.02,53.09.06,79.63.03,1.66,0,2.6.5,3.49,1.94,8.14,13.21,16.38,26.36,24.58,39.54,2.04,3.28,4.04,6.59,6.07,9.88.28.45.59.88.96,1.44.73-.76.43-1.56.43-2.25.02-11.6,0-23.21,0-34.81,0-2.4.06-4.8.05-7.19-.02-3.43-.93-4.66-4.18-5.79-.36-.12-.7-.29-1.11-.47v-2.16h69.33c0,2.58,0,5.1,0,7.62,0,2.47,0,4.95,0,7.73-1.02.05-1.97.1-3,.16-.21-1.13-.44-2.09-.55-3.06-.53-4.53-3.33-7.18-7.34-8.73-3.52-1.36-7.25-1.38-11.18-1.4-.08.74-.21,1.4-.21,2.06-.01,16.4,0,32.8-.03,49.2,0,2.04.88,3.39,2.66,4.21.9.42,1.86.73,2.94,1.15.05.59.1,1.25.17,2.13h-24.18v-2.18c.52-.18,1.02-.37,1.53-.52,2.14-.61,3.93-2.12,3.91-5.27-.09-12.69-.04-25.38-.04-38.06,0-4.09,0-8.18,0-12.44-.73-.07-1.32-.23-1.9-.18-2.84.27-5.75.29-8.49.97-4.64,1.15-8.39,4.95-8.48,10.56,0,.44-.16.88-.26,1.4h-2.96v-12.42c-2.85.94-3.73,1.97-3.79,4.52-.08,3.56-.08,7.12-.09,10.67,0,11.37.1,22.75-.06,34.12-.06,4.05,1.58,5.6,4.65,6.37.29.07.57.23.87.35v2.26c-1.56,0-3.01,0-4.47,0-3.71.01-7.43-.07-11.14.09-1.78.08-2.79-.51-3.72-2.02-6.65-10.8-13.4-21.54-20.11-32.3-3.69-5.9-7.37-11.81-11.06-17.71-.27-.44-.58-.85-1.16-1.67-.05.89-.09,1.31-.09,1.74-.05,14.08-.1,28.16-.15,42.24,0,.39,0,.77,0,1.16.05,3.44.95,4.66,4.2,5.74.29.1.56.23.95.39.04.68.07,1.35.12,2.2h-84.32c-.06-.63-.13-1.35-.21-2.19.79-.26,1.46-.42,2.08-.69,2-.87,3.28-2.26,3.27-4.59-.02-14.62-.02-29.24-.03-43.86,0-.06-.05-.13-.26-.61-7.17,17.42-13.72,34.75-20.7,51.97h-3.43c-6.83-17.22-13.64-34.43-20.46-51.63-.14.03-.28.05-.42.08,0,.42,0,.84,0,1.26-.05,13.85-.1,27.7-.14,41.54-.01,3.97.85,5.08,4.75,6.29.22.07.42.19.72.32v2.13h-13.6c-.06-.36-.16-.71-.16-1.07,0-.37.07-.75.11-1.05.22-.15.33-.28.47-.33,4.55-1.53,4.93-2.03,4.93-6.74,0-14.16,0-28.31-.01-42.47,0-4.85-.43-5.44-4.94-7.07-.14-.05-.26-.16-.46-.29-.03-.33-.1-.71-.1-1.09,0-.29.09-.59.17-1.01h18.67c5.75,14.48,11.49,28.93,17.23,43.38.17-.02.34-.04.5-.06ZM631.69,347.88c3.71-.11,5.47-2.13,5.4-5.6-.06-3.04-.08-6.09-.1-9.14-.04-4.97-.06-9.93-.09-14.9-.02-3.3-.04-6.61-.05-9.91,0-3.86.11-7.72-.02-11.57-.1-2.83-1.87-4.3-5.17-4.43v12.6h-2.79c-.23-2.8-.58-5.38-2.33-7.54-2.3-2.84-5.25-4.69-8.85-4.99-4.69-.39-9.41-.37-14.12-.5-.59-.02-1.19.08-1.87.13v24.23c3.09,0,6.02.13,8.93-.04,2.14-.13,4.31-.5,6.38-1.05,3.34-.89,5.58-2.92,5.81-6.63,0-.12.17-.22.34-.44.29,0,.67-.02,1.05,0,.44.03.87.09,1.27.13.41,3.58.28,17.2-.15,18.76h-2.52c-.19-4.2-2.84-6.13-6.36-7.1-1.85-.51-3.79-.79-5.71-.88-2.98-.14-5.97-.04-9.04-.04v29.45c3.25,0,6.33.06,9.4-.02,2.39-.06,4.8-.15,7.16-.5,5.71-.83,9.9-5.33,10.5-11.04.05-.44.08-.89.13-1.46.55-.05,1-.12,1.44-.12.37,0,.74.09,1.36.18v12.41ZM578.31,320.39c0,7.5-.01,15,0,22.5,0,2.61,1.16,4.24,3.39,4.95,2.09.67,4.74-.14,6.08-1.85.93-1.18.91-2.58.91-3.98,0-14.54,0-29.08,0-43.61,0-.62.02-1.24-.06-1.85-.37-2.91-3.4-4.96-6.28-4.29-2.65.62-4.03,2.32-4.04,5.16-.02,7.66,0,15.31,0,22.97Z"/>
    <path class="cls-1" d="M236.12,292.06v12.85h-2.87c-.08-.76-.11-1.45-.23-2.12-.91-5.37-4.69-9.27-10.21-10.32-5.51-1.05-11.07-.43-16.78-.58v24.34c3.18,0,6.25.09,9.31-.03,1.69-.07,3.38-.38,5.03-.75,3.77-.86,6.58-2.73,6.74-7.2h2.53c.45,1.54.61,14.68.18,18.77-.78.04-1.59.08-2.31.12-.19-.21-.35-.32-.36-.43-.32-3.79-2.75-5.68-6.07-6.76-2.89-.94-11.19-1.51-15.07-.84v29c.28.14.42.27.55.27,5.25-.12,10.52-.06,15.75-.45,3.9-.3,7.09-2.43,9.05-5.79,1.13-1.92,1.5-4.29,2.28-6.68h2.25v15.35c-16.1.14-32.23.01-48.49.07-.09-.51-.2-.86-.21-1.22-.01-.37.07-.75.12-1.24.62-.17,1.21-.31,1.79-.48,2.6-.76,3.84-2.34,3.91-5.06.05-1.93.01-3.87.01-5.8,0-12.69,0-25.38,0-38.06,0-4.74-.56-5.5-5.06-6.99-.21-.07-.41-.19-.66-.31v-2.11h70.93v2.24c-.29.11-.57.2-.84.33-1.8.82-2.21,1.58-1.56,3.48.96,2.77,2.04,5.5,3.1,8.23,3.54,9.05,7.09,18.1,10.65,27.15.27.69.58,1.36,1.03,2.39,1.31-3.2,2.5-6.04,3.65-8.89,3.61-8.95,7.21-17.91,10.81-26.86,1.26-3.13.83-4.39-2.08-6.07v-1.95h82.97c.03.76.06,1.42.09,2-.22.2-.32.36-.45.39-4.28,1.1-5.25,2.3-5.26,6.59,0,14.31,0,28.62.01,42.94,0,1.15-.03,2.4.38,3.42.85,2.08,2.57,3.35,4.85,3.42,5.19.16,10.38.09,15.42-1.35,5.6-1.6,9.75-4.88,11.83-10.49.65-1.75.85-1.78,3.46-1.14-1.52,5.08-3.05,10.15-4.6,15.32h-98.53v-2.22c.44-.16.86-.36,1.3-.47,3.23-.83,4.42-2.27,4.43-5.56.02-7.97,0-15.94,0-23.91,0-6.96.02-13.93-.01-20.89-.01-2.77-1.12-4.37-3.43-5.2-1.91-.69-4.02-.12-5.39,1.64-.7.9-1.27,1.95-1.7,3.01-2.86,7.09-5.66,14.2-8.48,21.3-4.1,10.33-8.2,20.66-12.3,30.99-.17.43-.37.84-.59,1.33h-2.97c-.75-1.76-1.55-3.58-2.29-5.43-6.31-15.71-12.61-31.42-18.92-47.12-.43-1.07-.86-2.16-1.44-3.16-1.08-1.84-2.65-2.95-5.28-2.95ZM341.91,347.86c3.47,0,5.33-1.62,5.4-4.51.08-3.32.02-6.65.02-9.98,0-11.91.01-23.82,0-35.73,0-3.55-1.76-5.32-5.47-5.3v12.78c-1.13-.05-1.93-.09-2.74-.12-.29-2.7-.53-5.16-2.09-7.24-2.31-3.07-5.36-5.03-9.13-5.35-4.69-.4-9.41-.37-14.12-.51-.59-.02-1.19.08-1.86.14v24.25c2.94,0,5.71.14,8.47-.04,2.3-.15,4.62-.51,6.84-1.09,3.34-.87,5.57-2.92,5.81-6.62,0-.12.17-.22.35-.45.73.03,1.54.07,2.31.11.41,3.55.28,17.22-.14,18.79h-2.51c-.21-2.48-1.06-4.5-3.2-5.71-1.07-.6-2.21-1.16-3.39-1.44-1.79-.43-3.64-.76-5.48-.84-2.98-.13-5.97-.04-9.05-.04v29.46c2.7,0,5.24.06,7.77-.02,2.85-.08,5.73-.11,8.55-.48,5.62-.73,9.68-4.79,10.65-10.36.12-.67.15-1.35.24-2.15h2.78v12.43Z"/>
    <path class="cls-1" d="M337.83,136.12c-.71.26-1.21.45-1.71.63-1.55.58-2.39,1.73-3.1,3.22-2.45,5.21.95,13.84,4.82,16.2,1.9,1.16,3.85,2.03,6.09,1.94,5.38-.21,9.8-2.17,13.14-6.64,3.47-4.65,3.69-9.81,3.14-15.2-.39-3.77-1.81-7.08-4.01-10.21-3.04-4.33-7.1-7.46-11.03-10.85-6.02-5.19-13.02-9.12-18.56-14.93-3.62-3.79-7.09-7.55-8.35-12.83-.25-1.05-.8-2.02-1.03-3.07-.21-.94-.19-1.93-.22-2.91-.02-.46.18-.93.11-1.38-.8-5.31,1.85-9.24,5.35-12.64,3.15-3.06,7.06-5,11.27-6.21,3.12-.89,6.26-1.74,9.44-2.35,2.18-.42,4.45-.52,6.68-.55,6.34-.08,12.69-.3,18.99.74,1.14.19,2.29.39,3.39.74,1.61.52,2.08,1.4,1.55,3.04-1.1,3.38-2.2,6.76-3.47,10.08-1.58,4.1-3.32,8.14-5.03,12.19-.59,1.39-.79,2.8-.46,4.59.61-.4,1.08-.7,1.54-1.02,2.41-1.64,5.39-1.46,7.21.44,1.14,1.18,1.2,2.4.21,3.71-2.37,3.13-7.74,4.66-11.55,3.28-5.03-1.81-7.11-5.03-6.53-10.35.25-2.29.65-4.54,1.36-6.78.77-2.4,1.1-4.98,1.34-7.5.2-2.15-1.12-3.85-2.97-4.58-5.18-2.04-10.4-2.55-15.16,1.81-.67.62-1.39,1.29-1.79,2.08-2.8,5.53-3.51,12.36.64,18.14,2.76,3.85,5.91,7.28,9.61,10.26,5.57,4.48,11.24,8.88,16.49,13.72,3.83,3.53,7.43,7.46,10.45,11.69,2.66,3.73,4.28,8.18,4.19,12.98-.04,2-.11,4-.35,5.98-.13,1.04-.6,2.06-.99,3.06-3.74,9.4-10.99,14.7-20.52,16.99-3.87.93-7.94,1.04-11.93,1.44-8.74.86-16.52-1.73-23.37-7.01-4.38-3.38-7.24-7.8-7.4-13.58-.01-.39-.07-.77-.12-1.15-1-6.91,2.51-11.99,9.33-13.38,2.94-.6,5.8-.34,8.68.61,2.68.89,3.92,2.77,4.65,5.57ZM363.44,67.06c.55,1.08.87,1.7,1.28,2.52.79-.34,1.48-.64,2.18-.94,0-.18-.02-.37-.03-.55-.99-.3-1.98-.59-3.44-1.03ZM329.51,73.46l.25-.42c-3.94-1.87-4.05-1.88-4.81-.41.74-.12,1.55-.46,2.26-.32.81.16,1.54.75,2.31,1.15ZM332.99,68.86c-.69-.43-1.47-.91-2.4-1.48.04.71.08,1.32.13,2.04.88-.22,1.68-.41,2.27-.56ZM368.85,65.72c-.9-1-1.66-.79-2.66-.02.99.49,1.74.84,2.66.02ZM338.8,98.87c1.37.85,2.24.91,3.11,0h-3.11ZM320.65,83.01c1.36.36,2.23.59,3.11.82-.8-.5-1.44-1.54-3.11-.82ZM340.14,102.76l-.04.53c.54-.1,1.07-.19,1.61-.29-.03-.15-.06-.3-.09-.46-.49.07-.98.14-1.48.22ZM365.73,130.79q-.55-1.23-1.81-.95c.68.36,1.11.58,1.81.95ZM331.12,75.05c.74.17,1.21.27,1.84.42-.37-1.23-.88-1.19-1.84-.42ZM356.32,115.14c-.12.27-.24.52-.32.79,0,.03.33.21.35.19.17-.22.3-.46.45-.69-.12-.08-.25-.15-.48-.29Z"/>
    <path class="cls-1" d="M300.87,167.1c-.22,1.34-.39,2.39-.55,3.42-1.89.58-64.27,1.03-69.57.51-.22-1.05-.46-2.15-.72-3.41,1.16-.26,2.21-.45,3.22-.75,2.16-.63,3.08-1.79,3.07-4.05-.01-9.67-.05-19.34-.12-29.01-.02-2.75-1.1-4.95-3.65-6.26-.26-.14-.49-.35-.9-.66.41-.34.71-.64,1.06-.85,2.52-1.52,3.46-3.84,3.44-6.66-.03-4.64-.07-9.28-.1-13.92-.03-4.56-.05-9.13-.07-13.69-.02-3.86-1.03-4.97-4.97-5.49-.3-.04-.6-.09-1.22-.19.16-1.2.32-2.36.52-3.79h63.57c-1.54,5.46-3.09,10.94-4.7,16.6-1.34.23-2.67.45-4.18.71.07-1.18.22-2.15.18-3.12-.06-1.63-.93-2.54-2.54-2.8-.3-.05-.62-.06-.93-.06-10.21,0-20.42,0-30.99,0,.41.46.58.75.83.93,1.97,1.35,2.67,3.23,2.63,5.58-.08,5.41-.02,10.83-.02,16.25,0,.84,0,1.69,0,2.73,4.92,1.11,9.68,2.53,14.69,1.39.95-.22,1.92-.66,2.7-1.24,1.66-1.23,1.57-3.27-.11-4.47-.55-.39-1.19-.66-2.07-1.14,2.08-1.31,4.02-1.51,6.04-.58,1.79.83,2.86,2.12,2.94,4.29.13,3.64-1.89,6.1-4.25,8.38-2.44,2.36-5.01,4.59-7.49,6.92-.89.84-1.67,1.8-2.62,2.83-2.54-3.02-5.28-5.64-9.62-6.15-.08,1.55-.21,2.85-.19,4.14.07,5.25.18,10.5.29,15.75.02.77.01,1.56.17,2.31.4,1.91,1.79,2.78,3.6,3.03q-.52,2.21-4.62,4.91c.79.07,1.36.16,1.92.16,4.02-.01,8.05.02,12.07-.11,1.19-.04,2.45-.37,3.54-.86,2.87-1.29,5.24-3.3,7.21-5.72,1.9-2.34,3.63-4.82,5.52-7.16,1.36-1.68,2.76-3.34,4.34-4.81,2.35-2.19,5.29-2.76,8.42-2.51.73.06,1.43.24,1.54,1.11.11.89-.06,1.8-1.07,2.06-3.55.92-4.68,3.75-5.42,6.84-.93,3.86-.6,7.71.7,11.4,1.38,3.91,3.67,7,8.47,7.23Z"/>
    <path class="cls-1" d="M460.2,240.44c0,1.22,0,2.15,0,3.07,0,8.82,0,17.64,0,26.45,0,4.74,1.28,6.44,5.89,7.84.29.09.58.18.97.3v3.24c-10.14.29-20.22.15-30.49.15v-3.38c1.09-.38,2.2-.68,3.24-1.14,2.39-1.05,3.8-2.85,3.89-5.54.02-.62.03-1.24.03-1.86,0-20.58,0-41.15,0-61.73,0-.08,0-.15,0-.23.17-3.91-.56-6.57-6.21-8.07-.29-.08-.58-.17-.99-.29v-3.17c.68-.08,1.33-.22,1.99-.22,12.61,0,25.22-.07,37.84.06,6.73.07,13.2,1.49,19.12,4.85,3.76,2.14,6.85,4.94,8.98,8.79,4.17,7.52,2.64,16.36-3.89,22.57-2.57,2.44-5.59,4.08-8.85,5.36-.64.25-1.3.46-2.24.8.94,1.87,1.82,3.63,2.72,5.37,4.55,8.77,9.15,17.52,13.64,26.32,1.94,3.8,4.52,6.78,8.75,8.11v3.22h-30.98v-3.21c.97-.39,1.93-.7,2.81-1.14,2.73-1.37,3.38-3.18,2-5.89-2.8-5.51-5.68-10.98-8.53-16.47-2.17-4.18-4.39-8.34-6.51-12.56-.6-1.19-1.33-1.67-2.68-1.63-3.38.1-6.77.03-10.5.03ZM460.32,236.97c4.77,0,9.25-.03,13.72,0,5.88.04,10.22-2.61,13.15-7.58,3.52-5.97,4.18-12.37,2.23-18.98-1.83-6.21-6.73-11.02-14.55-11.01-4.25,0-8.5-.04-12.75-.04-.58,0-1.17.13-1.8.21v37.4Z"/>
    <path class="cls-1" d="M354.32,281.39v-3.32c.51-.15,1.01-.3,1.51-.45,4.24-1.25,5.7-3.14,5.71-7.53.02-8.36,0-16.71,0-25.07,0-12.22,0-24.45,0-36.67,0-5.99-1.1-7.43-6.83-8.98-.07-.02-.12-.08-.35-.23v-3.17c.88-.04,1.63-.11,2.39-.11,12.23,0,24.45-.03,36.68.04,6.16.04,12.16,1.07,17.84,3.56,4.71,2.06,8.65,5.02,11.24,9.6,3.17,5.59,2.7,12.29-1.3,17.38-2.69,3.43-6.19,5.76-10.19,7.38-.64.26-1.29.5-1.93.77-.12.05-.19.23-.26.31,2.8,1.01,5.66,1.89,8.4,3.06,4.61,1.96,8.63,4.76,11.68,8.84,5.16,6.88,4.88,15.99-1.49,22.87-4.86,5.25-11.09,7.96-17.82,9.8-4.88,1.34-9.87,1.94-14.9,1.98-12.69.11-25.38.05-38.07.05-.69,0-1.37-.07-2.34-.12ZM378.11,277.85c.61.08.98.18,1.35.18,5.18-.04,10.36-.04,15.54-.16,3.29-.08,6.42-.96,9.34-2.46,7.14-3.65,11.16-9.43,11.28-17.54.12-8.18-3.75-14.15-10.86-18.05-3.02-1.66-6.3-2.61-9.74-2.7-5.25-.14-10.51-.11-15.77-.14-.36,0-.71.15-1.14.24v40.62ZM378.16,233.05c.36.1.57.21.79.21,4.72,0,9.44.07,14.16-.06,3.34-.09,6.32-1.32,8.89-3.5,2.8-2.39,4.59-5.43,5.52-8.94,1.35-5.05,1.14-10.02-1.8-14.51-3.03-4.63-7.6-6.66-13.02-6.8-4.33-.11-8.66-.07-13-.08-.51,0-1.02.15-1.55.23v33.45Z"/>
    <path class="cls-1" d="M683.11,281.52v-3.43c.84-.26,1.73-.47,2.57-.79,2.86-1.09,4.63-3.02,4.63-6.24,0-.93.02-1.86.02-2.79,0-19.88,0-39.77,0-59.65,0-.62-.01-1.24,0-1.86.03-3.21-.82-5.44-5.24-6.95-.58-.2-1.18-.33-1.93-.53v-3.3c.85-.04,1.61-.11,2.36-.11,12.23,0,24.46-.03,36.68.05,5.38.04,10.62.98,15.56,3.22,10.62,4.81,17.52,12.91,21.13,23.9,2.2,6.7,2.89,13.59,2.21,20.58-.93,9.69-4.14,18.48-10.84,25.76-6.45,7.02-14.44,10.99-23.94,11.78-3.31.28-6.64.32-9.96.33-10.06.04-20.12.02-30.18.02-.92,0-1.83,0-3.06,0ZM706.94,277.85c.58.07,1.03.18,1.48.18,4.49,0,8.98-.02,13.46-.06,4.48-.04,8.23-1.82,11.43-4.9,3.77-3.63,6.21-8.08,7.86-12.97,4.17-12.34,4.46-24.87,1.54-37.5-1.3-5.63-3.51-10.89-7.18-15.43-4.12-5.1-9.28-8.03-16.04-7.8-3.56.12-7.12,0-10.68,0-.59,0-1.19.1-1.87.16v78.33Z"/>
    <path class="cls-1" d="M601.83,199.3v-3.3c.93-.05,1.75-.14,2.58-.13,6.34.04,12.69.14,19.03.11,1.44,0,2.17.54,2.86,1.76,6.7,11.91,13.47,23.78,20.22,35.66,6.71,11.82,13.42,23.64,20.14,35.46.21.37.51.68,1.11,1.48,0-1.3,0-2.04,0-2.78,0-19.96,0-39.91,0-59.87,0-4.85-1.33-6.66-5.92-8.09-.22-.07-.44-.15-.82-.28v-3.3c5.64-.39,11.25,0,17.02.05v3.24c-.39.13-.87.31-1.37.46-3.85,1.15-5.48,3.29-5.48,7.25,0,10.91,0,21.81,0,32.72,0,9.9.14,19.8-.06,29.7-.1,5.16,2.02,7.55,6.93,8.64v3.22c-.7.06-1.3.14-1.91.14-6.19.04-12.38,0-18.57.12-1.73.04-2.64-.64-3.45-2.06-5.71-10.09-11.48-20.15-17.22-30.22-7.7-13.5-15.39-27-23.09-40.49-.36-.63-.78-1.22-1.18-1.83-.16.04-.33.08-.49.12,0,2.98,0,5.97,0,8.95.02,17.87.04,35.73.05,53.6,0,5.22,1.17,6.79,6.18,8.28.14.04.27.13.52.25v3.19c-5.64.16-11.23.25-17.01.1v-3.27c.13-.1.24-.23.37-.28,5.01-1.57,6.2-3.15,6.19-8.35-.03-20.65-.06-41.3-.1-61.96-.01-5-1.1-6.44-5.95-8.03-.15-.05-.28-.12-.58-.26Z"/>
    <path class="cls-1" d="M536.88,278.2v3.12h-14.82v-3.22c4.7-.26,6.76-3.49,8.18-7.39,1.61-4.43,3.19-8.86,4.79-13.29,3.65-10.09,7.32-20.18,10.96-30.28,3.14-8.72,6.26-17.45,9.39-26.18.21-.58.41-1.17.63-1.74q1.29-3.39,5.26-3.06c.8,2.09,1.68,4.29,2.49,6.51,4.48,12.32,8.95,24.65,13.41,36.98,3.7,10.23,7.38,20.47,11.08,30.71.45,1.23.86,2.51,1.54,3.61,1.33,2.17,3.08,3.87,5.86,4.02.37.02.72.23,1.17.38v2.95h-28.68v-2.94c.1-.09.2-.24.33-.29,2.88-1,3.53-2.04,3.16-4.99-.02-.15-.02-.31-.07-.46-2.03-5.9-4.07-11.8-6.12-17.74h-25.47c-.55,1.59-1.11,3.26-1.69,4.91-1.3,3.71-2.63,7.41-3.92,11.13-.25.73-.47,1.48-.6,2.23-.48,2.82.31,4.1,3.11,5.04ZM564.08,251.42c-3.84-10.44-7.58-20.61-11.4-31.01-1.63,2.98-10.9,29.34-10.95,31.01h22.35Z"/>
    <path class="cls-1" d="M127.72,350.71c-.04-.74-.07-1.4-.12-2.25.72-.21,1.37-.36,2-.58,2.19-.76,3.73-2.3,3.72-4.95-.08-15.16-.03-30.32-.04-45.48,0-2.69-1.09-4.17-3.59-5.02-.65-.22-1.3-.41-1.98-.62v-2.23c.79-.04,1.48-.11,2.16-.11,9.75,0,19.5-.12,29.25.06,9.43.17,17.49,3.6,23.54,11.04,3.81,4.69,5.79,10.22,6.41,16.15.78,7.44-.68,14.5-4.81,20.82-5.62,8.61-13.87,12.9-23.96,13.22-10.43.34-20.89.09-31.33.1-.37,0-.75-.08-1.25-.14ZM146.62,291.91c-.6,3.09-.44,54.74.14,56.46,3.93,0,7.87.1,11.81-.03,3.18-.11,6.01-1.28,8.44-3.41,2.5-2.18,4.33-4.84,5.63-7.86,3.51-8.13,4.15-16.57,2.6-25.23-.78-4.39-2.19-8.54-4.74-12.23-2.4-3.47-5.44-6.2-9.65-7.15-4.72-1.06-9.51-.42-14.23-.55Z"/>
    <path class="cls-1" d="M427.1,350.83c-5.65.08-11.06-.91-16.15-3.49-7.27-3.69-12.17-9.41-14.65-17.15-2.45-7.66-2.16-15.29,1.01-22.66,4.37-10.16,12.43-15.7,23.13-17.55,6.01-1.04,12.04-.79,17.91,1,12.14,3.7,19.46,13,21.16,25.3,1.05,7.6-.63,14.68-4.78,21.02-5.92,9.05-14.75,13-25.32,13.53-.77.04-1.55,0-2.32,0ZM408.17,320.81c.15,1.62.27,3.94.6,6.22.77,5.42,2.53,10.45,5.88,14.91,6.73,8.95,18.54,8.06,24.64.64,2.09-2.55,3.6-5.39,4.65-8.49,2.7-7.96,3.03-16.04,1.05-24.21-1.12-4.64-2.85-9-6.13-12.57-4.02-4.37-8.98-6.17-14.87-5.03-4.81.93-8.11,3.98-10.62,7.96-3.83,6.07-4.97,12.86-5.21,20.57Z"/>
    <path class="cls-1" d="M558.58,93.22c.68-.28,1.01-.53,1.35-.53,5.85-.02,11.69-.02,17.96-.02-.47.67-.66,1.18-1.02,1.41-1.21.79-1.52,1.84-1.23,3.2.13.6.16,1.22.18,1.83.1,2.31.39,4.57.91,6.85,1.1,4.8,1.88,9.66,2.85,14.49,1.12,5.58,2.3,11.15,3.5,16.91,1.58-1.27,0-2.62.32-3.79,2.82-.23,4.79,1.07,5.55,3.74.46,1.62.17,3.35-.75,4.63-.84,1.18-2.28,1.93-3.67,3.04.32,3.23,1.21,6.64,2.37,9.98.48,1.39,1.14,2.73,2.8,3.15.24.06.4.42.65.7-.78,1.11-1.86.7-2.76.67-2.16-.06-4.31-.34-6.47-.35-2.38,0-4.76.22-7.14.29-.62.02-1.25-.16-1.89-.24.07-.48.05-.73.12-.76,1.82-.72,2.1-2.3,2.14-3.94.02-1.22-.09-2.47-.29-3.68-.31-1.9-.8-3.78-1.09-5.68-.19-1.25-.84-1.9-2.02-2.21-3.05-.82-6.05-.9-9.1.14-2.92.99-4.55,3.21-5.5,5.87-.69,1.93-.92,4.04-1.24,6.09-.2,1.35-.05,2.66,1.57,3.2.15.05.2.37.3.57-1.93.85-11.81.94-13.86.15.03-.15,0-.38.09-.43,3.4-1.87,4.3-5.29,5.15-8.62,1.44-5.6,2.62-11.27,3.97-16.89.6-2.47,1.44-4.89,2.04-7.36,1-4.12,1.86-8.27,2.83-12.39.76-3.21,1.69-6.39,2.39-9.61.53-2.41.8-4.87,1.21-7.3.13-.78-.12-1.32-.78-1.77-.46-.31-.83-.75-1.45-1.33ZM558.27,139.52c2.34-.64,4.36-1.47,6.44-1.69,2.19-.22,4.43.15,6.69.26-1.88-9.87-3.73-19.55-5.57-29.23-2.51,10.18-5.01,20.3-7.56,30.65ZM575.03,127.84c.66-1.76.41-2.02-1.65-1.81.5.55,1.02,1.11,1.65,1.81ZM571.91,103.76c.02-.2.05-.4.07-.6-.78-.07-1.56-.13-2.34-.2-.02.16-.04.32-.06.48.78.11,1.55.21,2.33.32ZM572.83,105.71c-.03.22-.06.43-.09.65.65.29,1.3.85,2.35-.38-.96-.12-1.61-.19-2.26-.27ZM571.08,100.24c.07-.14.13-.27.2-.41-.48-.22-.96-.45-1.44-.67-.06.13-.13.26-.19.39.48.23.95.46,1.43.69ZM573.01,108.77c.04.2.08.4.12.6.46-.15.92-.3,1.38-.45-.04-.14-.08-.28-.12-.42-.46.09-.92.18-1.38.27Z"/>
    <path class="cls-1" d="M402.4,140.64c0,3.55-.03,7.17.02,10.78.02,1.23.25,2.45.35,3.68.13,1.61.47,3.05,2.33,3.55.29.08.49.49.82.85-2.04,1.45-4.18.26-6.18.64-1.93.36-4.01.17-5.99-.05-2-.23-4.1.5-6-.31,0-.35-.03-.48,0-.5,2.82-1.76,2.71-4.78,3.02-7.5.27-2.27.06-4.61.03-6.91-.04-3.01-.16-6.01-.16-9.02,0-5.79.13-11.59.11-17.38,0-3.94-.14-7.87-.26-11.81-.08-2.62-.2-5.23-.39-7.84-.13-1.8-.57-3.5-2.48-4.33-.14-.06-.15-.4-.29-.79.53-.15,1.01-.39,1.49-.4,1.78-.07,3.56-.1,5.33-.09,4.86.03,9.72.11,14.58.11,3.32,0,6.44.68,9.33,2.35,1.86,1.07,3.8,2.02,5.6,3.18,5.02,3.22,7.13,8.42,8.58,13.79.65,2.43.36,5.24-.03,7.81-.67,4.41-2.48,8.41-5.5,11.77-3.9,4.33-8.66,7.16-14.51,7.83-3.2.37-6.43.42-9.81.62ZM396.05,100.32h3.17c-1.08-.75-2.14-1.05-3.16,0-.93-.14-1.88-.37-2.71.24.04.16.07.32.11.48.86-.24,1.73-.48,2.59-.72ZM402.13,136.28c.71.08.95.16,1.16.13,6.35-.86,11.75-3.4,14.95-9.23,1.25-2.28,2.3-4.8,2.78-7.33.74-3.86-.05-7.68-1.5-11.34-1.82-4.57-5.28-7.57-9.49-9.74-2.4-1.23-5.03-1.85-7.91-1.24v38.75ZM426.54,103.95c-1.5,0-2.67-.08-3.82.03-.75.07-1.48.43-1.12,1.68,1.65-.18,3.43.31,4.94-1.71ZM394.98,97.14c.83-.4,1.65,1.73,2.39.11.45.51.9,1.02,1.48,1.67.41-.7.65-1.12.87-1.49-1.49-1.8-3.1-1.38-4.73-.29ZM424.5,118.4l-.02.53c.82.06,1.65.22,2.46.14.85-.08,1.54,1.32,2.47.18-1.37-2.1-3.26-.75-4.91-.86ZM397.17,103.53c-.53,3.18-2.12.66-3.21,1,1.42,1.45,2.21,1.51,4.29.35-.27-.34-.53-.67-1.08-1.35ZM397.71,132.37q-1.63-.42-1.8.93c.63-.33,1.22-.63,1.8-.93ZM419.39,131.58c.06.23.11.46.17.69l2.89-.92c-.05-.16-.1-.32-.14-.48-.97.24-1.95.48-2.92.71ZM393.35,128.65c.68.15,1.35.3,2.36.53-.71-1.3-1.47-1.15-2.36-.53ZM393.23,116.38c.93-.45,1.46-.7,2.33-1.11-1.24-.35-1.95-.52-2.33,1.11ZM394.95,107.27c.05-.15.11-.3.16-.45-.46-.15-.91-.34-1.39-.44-.12-.02-.29.26-.51.46.66.16,1.2.29,1.74.43ZM425.97,115.32c.04.19.07.37.11.56.81-.15,1.62-.3,2.44-.46-.04-.19-.08-.38-.12-.58-.81.16-1.62.31-2.43.47ZM392.64,114.03c1.12-.29,1.24-.71.65-1.3-.13-.13-.38-.12-.65-.2v1.5ZM430.1,115.71c-.11-.99-.46-1.82-1.91-1.58.76.63,1.34,1.1,1.91,1.58ZM398.71,118.03c0-.17.02-.34.03-.51-.52-.04-1.04-.07-1.78-.13.54,1.24,1.16.89,1.76.63ZM428.48,124.86c-.36-.24-.58-.38-.81-.53-.18.28-.35.55-.53.83.24.14.49.4.72.39.18-.01.34-.36.62-.69ZM398.99,150.54l-.32-.33c-.33.33-.66.67-.99,1,.1.1.19.2.29.29l1.03-.96Z"/>
    <path class="cls-1" d="M476.15,321.44c0,1.18,0,2.02,0,2.85,0,5.57.05,11.14-.02,16.71-.05,4.26.64,6.06,5.31,7.33.14.04.27.15.49.28v2.1h-24.02v-2.33c.75-.2,1.44-.33,2.07-.57,2.54-.99,3.52-2.66,3.51-4.86-.06-15.16-.08-30.32,0-45.48.02-2.76-1.62-4.42-3.84-5.1-.58-.18-1.15-.38-1.78-.59-.04-.45-.11-.82-.1-1.2,0-.3.1-.59.17-.97.57-.05,1.09-.15,1.62-.15,10.06,0,20.12-.08,30.17.06,5.8.08,11.33,1.46,16.29,4.63,2.39,1.52,4.25,3.52,5.62,6.02,3.04,5.53,1.09,10.99-2.62,14.56-4.39,4.22-9.94,5.86-15.82,6.33-4.61.37-9.27.28-13.9.38-.92.02-1.84,0-3.17,0ZM476.3,291.72v26.73c.35.11.56.24.77.24,3.79,0,7.58.11,11.35-.06,4.14-.19,7.32-2.21,9.52-5.73,2.11-3.37,2.68-7.07,2.05-10.91-.87-5.29-4.32-9-9.55-9.63-4.57-.56-9.23-.43-14.15-.62Z"/>
    <path class="cls-1" d="M658.24,158.84c7.69-20.92,15.35-41.78,23.08-62.8-.48-.07-.9-.18-1.32-.17-1.93.02-3.86.17-5.78.08-3.98-.18-6.14,2.2-5.58,6.2.43,3.12.9,6.26,1.04,9.4.07,1.65-.29,3.42-.89,4.97-.72,1.87-2.52,2.67-4.45,2.87-1.95.2-3.7-.32-4.92-1.99-.75-1.03-.84-2.19-.23-3.28.61-1.09,1.77-1.39,2.83-1.04.81.27,1.44,1.08,2.08,1.6.3-.94-.03-4-.6-5.71-1.53-4.61-3.04-9.24-4.48-13.88-.26-.83-.19-1.77-.3-3,2.41,0,4.55.02,6.69,0,3.25-.03,6.49-.12,9.74-.14,4.09-.03,8.18,0,12.28-.03,1.85-.02,3.69-.16,5.54-.2.48-.01.97.13,1.46.2-2.06,5.59-4.04,10.98-6.02,16.37-2.13,5.79-4.28,11.57-6.38,17.37-1.11,3.04-2.1,6.12-3.22,9.16-1.44,3.91-2.97,7.79-4.44,11.69-.65,1.73-1.25,3.47-1.9,5.2-.35.92-.75,1.83-1.12,2.75.07.11.15.35.23.35,3.36.13,6.8.61,9.74-1.69.61-.47,1.28-.94,1.69-1.56,2.08-3.19,3.68-6.58,3.94-10.48.09-1.38.24-2.77.54-4.11.43-1.9,2.06-2.5,4.96-1.83-3.02,7.78-1.49,15.62-.07,23.73h-34.13ZM667.87,144.58c-.79.2-1.35.33-2.41.6,1.25.48,1.89.63,2.41-.6Z"/>
    <path class="cls-1" d="M735.49,92c-.36,1.86-.52,3.24-.89,4.56-1.41,5.05-2.91,10.07-4.31,15.11-.26.92-.21,1.93-.33,3.19.83-.76,1.34-1.31,1.93-1.76.94-.72,1.91-.44,2.81.11.91.56,1.24,1.46.92,2.41-.28.84-.71,1.75-1.36,2.31-1.68,1.47-3.77,2.05-5.81,1.08-2.12-1-3.62-2.89-3.61-5.28.02-3.46.31-6.94.76-10.38.26-2.02.2-3.83-.93-5.55-.54-.82-1.2-1.38-2.23-1.44-2.16-.12-4.31-.33-6.48-.41-1.21-.04-1.62.5-1.54,1.75.66,10.33.42,20.66.3,31-.02,1.37.14,2.74.22,4.23,2.4.35,4.69.12,6.92-.42.54-.13.96-.87,1.36-1.4.54-.73.51-.75,2.1-.78-.16,3.36.45,6.74-.74,10.37-.48-.55-.75-.86-1.01-1.17-.24-.28-.42-.75-.71-.84-2.49-.75-4.96-1.68-7.95-1.25,0,1.47,0,2.82,0,4.17,0,.22.18.44.18.67-.05,3.45-.11,6.9-.18,10.34,0,.46-.12.92-.12,1.38,0,.88.5,1.22,1.35,1.15,1.84-.14,3.69-.26,5.53-.4,2.82-.22,4.58-2.05,6.08-4.18,1.96-2.78,2.88-5.94,3.16-9.31.1-1.15.24-2.3.38-3.45.33-2.89,1.54-3.61,4.56-2.6-.28,2.55-.45,5.14-.89,7.69-.73,4.28-.15,8.45.77,12.61.22,1.01.36,2.04.56,3.26h-36.1c.22-.59.28-1.23.53-1.32,1.95-.7,2.43-2.38,2.47-4.07.15-5.72.13-11.44.16-17.16.02-2.62.04-5.23.02-7.85-.05-4.78-.14-9.57-.2-14.35-.06-5-.09-10-.15-15,0-.62-.02-1.24-.14-1.84-.36-1.92-.64-2.31-2.96-4.43.98-1.03,2.27-.75,3.43-.8,2-.08,4-.09,6-.06,1.54.03,3.08.23,4.62.23,3.85-.01,7.71-.11,11.56-.15,3.14-.03,6.28,0,9.94,0ZM712.8,109.15c-1.23-.77-2.24-.27-3.37.05-.95.28-2.09-.71-3.23.03.91.68,1.68,1.26,2.49,1.88.87-1.09,2.18-1.06,3.5-.62.25-.56.43-.96.6-1.34ZM707.05,127.2c1.07,1.54,1.89-.03,2.77-.11q.77,1.41,2.38.5c-1.56-1.88-3.29-1.51-5.15-.4ZM727.9,154.83c1.12.29,2.22.65,3.36.82.26.04.61-.58.98-.96-2.79-1.03-3.1-1.05-4.34.13ZM711.17,133.89l-.15.37c-.36.08-.72.17-1.09.25,0,.15,0,.3,0,.44.97.14,1.95.29,3.1.46-.77-2.07-1.08-2.24-3.62-2.17.58.22,1.16.43,1.74.65ZM706.61,155.53c1.06.08,1.7.13,2.51.2-.24-.96.93-2.06-.42-2.47-.68.74-1.2,1.31-2.09,2.27ZM706.31,122.86c-.28.96-.43,1.48-.59,2.04.61.07,1.05.07,1.47.18.37.09.71.29,1.07.44.11-.14.21-.28.32-.43-.66-.66-1.33-1.31-2.26-2.23ZM706.67,132.11c.09.13.18.26.27.39.57-.39,1.25-.68,1.66-1.2.43-.53,1.42-.79,1.19-2.16-1.19,1.13-2.15,2.05-3.12,2.96ZM709.99,95.25c-2.28-1.04-2.82-.95-3.18.52,1.03-.17,2-.32,3.18-.52ZM726.24,95.94q.37,1.86,2.98.53c-1.16-.21-1.92-.34-2.98-.53ZM713.3,97.24c-.91-.66-1.39-1.01-1.95-1.42-.43.73-.73,1.23-1.21,2.06,1.09-.22,1.86-.38,3.17-.64ZM707.9,98.73c.07-.14.13-.28.2-.42-.75-.3-1.5-.6-2.67-1.07.61,1.85,1.69,1.3,2.47,1.49ZM712.21,103.95c-.71-1.79-.89-1.84-2.75-.88.87.28,1.65.53,2.75.88ZM712.44,149.93h-2.88c1.06.56,1.78,1.62,2.88,0ZM707.27,113.41c-1.42-.28-2.03-.12-1.75,1.26.56-.4,1.01-.72,1.75-1.26ZM728.09,103.13c.28,1.5.84,1.75,1.57,1.51.2-.06.25-.58.36-.89-.54-.17-1.07-.35-1.94-.63ZM707.06,116.94c.38-.49.63-.81,1.02-1.31h-1.83c.19.31.46.75.81,1.31ZM710.11,111.31q1.01.8,2.18.14c-.97-.06-1.57-.1-2.18-.14ZM711.59,130.61c-.16-.13-.33-.26-.49-.39-.44.54-.89,1.08-1.33,1.63.1.1.2.19.31.29.51-.51,1.01-1.02,1.52-1.53ZM708.52,102.71c-.02-.13-.04-.27-.06-.4-.8.09-1.6.18-2.4.27,0,.05,0,.09.01.14h2.45ZM706.18,146.05c-.04.08-.08.16-.13.25.21.17.39.39.63.49.17.07.4-.03.61-.06,0-.11,0-.23,0-.34l-1.1-.34ZM707.41,101.01l-.08-.32c-.44.11-.87.22-1.31.32.03.12.06.23.09.35l1.3-.35ZM706.39,136.19c.12-.05.24-.11.36-.16l-.57-1.24c-.11.05-.21.09-.32.14.18.42.35.84.53,1.26Z"/>
    <path class="cls-1" d="M473.57,93.05c-.35,1.78-.52,3.16-.89,4.47-1.41,5.05-2.91,10.07-4.31,15.12-.25.91-.2,1.9-.29,2.99.87-.7,1.46-1.32,2.17-1.7,1.62-.86,3.43.22,3.43,2.04,0,.66-.18,1.4-.51,1.97-1.5,2.55-5.77,3.21-7.91,1.17-1.48-1.41-2.6-3.08-2.4-5.3.29-3.3.64-6.6.86-9.91.08-1.21.05-2.48-.25-3.64-.48-1.87-1.68-3.06-3.79-3.1-1.85-.04-3.71-.23-5.56-.27-1.27-.03-1.62.44-1.59,1.69.12,6.48.26,12.95.32,19.43.05,5.24.01,10.47.01,15.82,2.54.43,4.83.16,7.06-.37.54-.13.99-.86,1.36-1.4.48-.69.93-1.25,2.11-.7-.06,3.26.42,6.63-.58,9.94-.35-.03-.59.01-.64-.07-2.2-3.36-5.7-2.46-8.83-3.09-.63,1.73-.38,3.17-.3,4.61.06.99.02,1.98,0,2.97-.02.92-.08,1.85-.09,2.77-.01,1.76.09,3.52-.02,5.27-.14,2.18.08,2.44,2.21,2.15.99-.14,2.01-.26,3-.18,3.52.3,5.85-1.51,7.72-4.2,1.94-2.8,2.87-5.95,3.16-9.32.11-1.23.25-2.46.4-3.69.31-2.61,1.46-3.27,4.43-2.36-.09,1.06-.18,2.19-.29,3.31-.27,2.99-.8,5.98-.75,8.97.05,2.74.73,5.48,1.12,8.22.14.96.27,1.91.43,3.05h-36.07c.23-.6.28-1.23.53-1.32,2.08-.74,2.44-2.55,2.5-4.3.17-5.33.17-10.67.21-16,.02-2.93-.02-5.85-.05-8.78-.06-4.78-.15-9.57-.2-14.35-.06-5-.08-10.01-.16-15.01-.01-.91-.22-1.83-.39-2.73-.26-1.35-.78-2.5-2.28-2.89-.16-.04-.25-.36-.42-.64,1.01-.99,2.29-.73,3.46-.77,2-.07,4-.08,6-.05,1.54.03,3.08.23,4.62.22,3.86-.01,7.71-.13,11.56-.15,3.14-.01,6.28.07,9.89.11ZM444.42,109.86c-.02.12-.03.23-.05.35.8.62,1.6,1.24,2.42,1.87,1.37-1.05,1.61-1.1,3.53-.69.18-.45.36-.91.54-1.37-1.21-.57-2.15-.24-3.23.07-.96.28-2.13-.14-3.2-.24ZM465.81,155.32c2.38,1.52,3.46,1.58,4.5.26-1.45-.29-2.71-1.54-4.5-.26ZM450.46,128.72c-2.41-1.95-2.91-1.99-5.22-.46.99,1.38,1.81-.21,2.7-.23.48,1.82,1.5,1.05,2.52.7ZM447.52,134.18c.45.47,1.62-.17,1.63.99-.4.1-.75.19-1.11.28,0,.15.01.29.02.44.97.13,1.94.27,3.1.42-.84-2.08-1.14-2.24-3.64-2.13ZM444.4,123.71c-.29,1.07-.43,1.6-.54,2.03.98.26,1.76.46,2.54.67.09-.13.17-.26.26-.39-.63-.64-1.25-1.28-2.26-2.31ZM447.01,154.28c-.77.58-1.29.92-1.73,1.34-.16.16-.14.51-.22.91.75.04,1.34.07,2.17.11-.37-.9.87-1.8-.22-2.36ZM447.96,130.56c-1.4.44-2.2,1.57-3.4,2.76,2.07-.2,2.59-1.65,3.4-2.76ZM444.81,96.72c1.18-.18,2.12-.33,3.19-.5-1.94-1.1-2.61-1.01-3.19.5ZM464.12,96.91c.27,1.18.35,1.94,1.36,1.57.5-.18.95-.53,1.91-1.08-1.28-.19-2.09-.31-3.26-.49ZM449.49,96.67c-.48.81-.78,1.32-1.28,2.14,1.1-.22,1.87-.38,3.04-.61-.74-.64-1.15-1-1.77-1.53ZM444,98.29c-.1.21-.2.41-.3.62.56.99,1.53.67,2.5.39-.73-.34-1.47-.67-2.2-1.01ZM450.26,104.84q-.78-1.76-2.75-.84c.9.28,1.66.51,2.75.84ZM450.58,150.83h-2.91c1.03.56,1.73,1.64,2.91,0ZM466.21,104.6c.4,1.13,1.03,1.24,1.99.75-.26-1.38-.91-1.42-1.99-.75ZM445.47,114.24q-1.77.13-1.68,1.32c.46-.36.86-.67,1.68-1.32ZM446.34,116.55h-2.54c.53.53.89.89,1.32,1.33.4-.44.64-.7,1.22-1.33ZM447.85,132.71c.94-.03,1.45-.52,1.4-1.57-.47.52-.93,1.05-1.4,1.57ZM446.65,103.63c-.02-.13-.03-.26-.05-.4-.82.09-1.64.19-2.46.28.01.1.02.2.03.3.82-.06,1.65-.12,2.47-.18ZM447.91,112.36q1.31.74,2.27,0h-2.27ZM444.13,101.91c.03.12.06.24.08.36.43-.11.85-.21,1.28-.32l-.08-.33c-.43.09-.86.19-1.29.28ZM444.53,137.1c.12-.06.23-.11.35-.17l-.61-1.2c-.1.05-.21.1-.31.15.19.4.39.81.58,1.21ZM444.29,146.97c-.05.11-.1.22-.14.33.39.17.77.34,1.16.51.05-.11.1-.23.15-.34-.39-.17-.77-.34-1.16-.5Z"/>
    <path class="cls-1" d="M503.78,139.34c1.25-2.85,4.14-3.92,7.1-2.82,2.07.76,3.65,2.12,4.25,4.27.82,2.95.95,6-.02,8.9-1.1,3.29-3.19,5.91-6.26,7.74-1.98,1.18-4.08,1.9-6.32,2.06-3.4.24-6.83.32-10.12-.75-4.99-1.62-8.95-4.61-11.12-9.47-.77-1.72-1.09-3.73-1.17-5.63-.14-3.63.1-7.26.07-10.9-.05-5.87-.25-11.74-.29-17.61-.02-2.77-.04-5.58.35-8.31.62-4.37,3.19-7.63,6.76-10.07,3.68-2.52,7.85-3.55,12.27-3.67,4.39-.12,8.77-.26,13.16-.37.45-.01.9.07,1.62.13-.1,1.35.03,2.65-.31,3.82-1.12,3.84-2.44,7.62-3.63,11.45-.55,1.76-1.01,3.56-1.41,5.36-.16.7-.03,1.47-.03,2.64.63-.66.95-1.04,1.32-1.38,1.08-1.01,2.81-1.1,3.78-.21,1.01.92.96,2.81-.11,3.98-2.5,2.73-7,2.32-9.05-.76-1.55-2.34-1.68-4.92-1.45-7.56.15-1.77.67-3.52.7-5.28.04-1.91-.22-3.84-.5-5.73-.21-1.42-1.31-2.01-2.65-2.16-3.07-.33-6.09,1.65-7.4,4.83-1.68,4.08-2.25,8.27-1.62,12.69.33,2.35.05,4.79.05,7.18,0,2.15-.01,4.29-.01,6.44,0,.31.05.62.05.92,0,4.54.04,9.09,0,13.63-.03,3.09.68,6.01,2.2,8.64,2.32,4.02,6.18,4.23,9.57,2.16,2.51-1.53,3.79-4.25,3.84-7.32.05-2.86-.78-5.34-3.59-6.83ZM483.33,110.85c1.83-.51.06-1.61.74-2.45h2.47c.01-.1.03-.2.05-.3-.88-.33-1.76-.67-2.67-1.01-.96,1.05-1.1,2.3-.59,3.76ZM510.48,95.94c-.75.07-1.51.14-2.26.22.85.74,1.65.96,2.26-.22ZM484.33,105.44c0,.18-.02.36-.02.54.6-.08,1.2-.16,1.79-.24-.02-.14-.04-.28-.06-.43l-1.71.13ZM485.83,151.85c.08.22.17.45.25.67.45-.21.89-.42,1.34-.62-.07-.17-.15-.34-.22-.52-.46.16-.91.31-1.37.47ZM507.29,100.37c0,.21,0,.42.01.63.69-.04,1.45.38,2.06-.13-.02-.2-.05-.4-.07-.6-.67.03-1.33.07-2,.1ZM509.05,98.14c0-.17.01-.35.02-.52-.84.06-1.69.12-2.53.18,0,.12,0,.23,0,.35h2.5ZM487.37,149.11c-.07.18-.15.36-.22.55.41.15.82.3,1.24.45.05-.13.1-.27.15-.4-.39-.2-.78-.4-1.17-.59Z"/>
    <path class="cls-1" d="M301.36,238.53c0-1.02,0-1.69,0-2.36,0-9.44.04-18.87-.04-28.31-.01-1.91-.39-3.83-.72-5.72-.41-2.33-1.92-3.61-4.23-4.01-.53-.09-1.06-.21-1.58-.37-.95-.28-.88-.91-.49-1.7h17.48c.32.91.45,1.55-.54,1.78-.15.04-.3.06-.45.1-4.52,1.24-5.63,2.52-5.67,7.36-.16,16.16-.23,32.31-.33,48.47,0,1,0,1.99,0,2.92-1.51.87-1.89-.31-2.41-1.08-4.07-6.02-8.13-12.05-12.18-18.08-6.08-9.05-12.14-18.11-18.21-27.17-.37-.56-.8-1.08-1.48-2-.08,1.02-.15,1.59-.15,2.17-.03,11.22-.08,22.43-.05,33.65,0,1.84.33,3.68.64,5.5.39,2.31,1.85,3.64,4.15,4.09.67.13,1.33.31,2.03.48v1.72c-.46.05-.84.12-1.21.12-4.95-.03-9.9-.07-14.85-.1-.15,0-.34.05-.46-.02-.41-.25-.79-.53-1.19-.81.28-.38.49-.89.87-1.12.44-.26,1.04-.27,1.56-.4,2.39-.59,4.04-1.9,4.34-4.5.19-1.68.48-3.37.48-5.06,0-13.3-.05-26.61-.1-39.91,0-2.51-2.38-5.47-4.83-6.1-.73-.19-1.47-.37-2.2-.55-.29-1.03-.08-1.65,1-1.64,3.79.03,7.58.04,11.37.21.59.03,1.29.78,1.69,1.36,2.32,3.38,4.55,6.81,6.83,10.21,6.73,10.08,13.47,20.16,20.21,30.23.08.12.23.2.74.62Z"/>
    <path class="cls-1" d="M631.94,159.18h-36.13c.36-.68.47-1.26.77-1.38,2.14-.86,2.37-2.82,2.41-4.6.12-5.78.01-11.57.01-17.36,0-5.17.03-10.34.02-15.51,0-3.32-.06-6.64-.1-9.96-.05-3.62-.01-7.25-.2-10.86-.07-1.43-.5-2.9-1.06-4.22-.34-.81-1.25-1.38-1.93-2.07,1.58-.79,15.77-1.01,18.02-.31.17.82-.35,1.05-1,1.22-.94.25-1.33.92-1.49,1.85-.45,2.66-1.03,5.28-.95,8.02.12,3.85,0,7.72.04,11.57.04,3.13.23,6.26.28,9.39.05,3.07.04,6.14,0,9.21-.05,5.07-.14,10.14-.21,15.21-.02,1.9,0,3.8,0,5.88.5.08,1,.24,1.5.23,1.24-.02,2.47-.2,3.7-.17,4.44.09,6.92-2.56,8.69-6.16,1.56-3.15,2.19-6.57,2.57-10.04.36-3.27,1.17-3.91,4.64-3.51-.46,3.93-1.32,7.86-1.27,11.79.06,3.87,1.04,7.72,1.65,11.79ZM606.56,106.66c-1.19.13-2.33-.18-3.67.53,1.6.48,2.81,1.03,3.46,2.38q1.1-1.4.22-2.9ZM607.07,97.94c.6-.85.92-1.3,1.49-2.1-.98-.13-1.6-.22-2.64-.36.45.96.68,1.47,1.14,2.46ZM600.92,103.05c.07.15.14.3.21.45,1.08-.43,2.17-.87,3.46-1.39-1.81-1.08-2.52.64-3.67.94ZM602.75,123.47q-.9-1.62-2.4-.58c.9.22,1.52.37,2.4.58ZM607.18,156.1c-.43-.64-.72-1.06-1.17-1.73-.33,1.23-.49,1.98,1.17,1.73ZM601.44,112.19c.76-.31,1.19-.49,1.74-.71-.42-.52-.69-.85-1.23-1.5-.2.87-.32,1.39-.51,2.22ZM605.65,141.74c-.02.15-.04.3-.06.45h1.72c0-.15-.01-.3-.02-.45h-1.65ZM601.66,138.07c-.19.4-.44.68-.38.86.06.19.43.42.63.4.17-.02.46-.4.43-.57-.04-.21-.35-.38-.68-.69ZM607.7,102.45c-.05-.21-.1-.42-.16-.62-.46.13-.92.26-1.38.4l.15.55c.46-.11.92-.21,1.39-.32ZM606.31,104.77c.02-.17.05-.34.07-.52h-1.23v.41c.38.03.77.07,1.15.1Z"/>
    <path class="cls-1" d="M520.1,93.3c.46-.25.77-.57,1.09-.57,5.82,0,11.64.03,17.59.05-.11,1.23-.83,1.44-1.5,1.83-.53.31-1.14.92-1.24,1.47-.43,2.5-.87,5.02-.95,7.54-.09,2.97.28,5.95.3,8.92.02,3.06-.16,6.12-.23,9.18-.04,1.7-.04,3.4-.04,5.1,0,3.21-.03,6.42.02,9.62.06,4.14.15,8.28.31,12.42.09,2.14.33,4.28.59,6.41.17,1.42.6,2.73,2.29,3.1.22.05.36.43.69.85-.6.16-.99.35-1.38.36-5.01.09-10.03.17-15.04.23-.59,0-1.17-.12-2.03-.21.32-.69.42-1.4.75-1.53,2.26-.91,2.36-2.94,2.45-4.83.15-3.16.12-6.33.1-9.5-.05-9.57-.15-19.14-.2-28.71-.02-4.78.05-9.57.04-14.35,0-1-.19-1.99-.33-2.99-.23-1.59-.66-3.03-2.53-3.46-.27-.06-.45-.54-.76-.94ZM527.79,106.85c-.06.19-.13.38-.19.57.94.35,1.89.69,3.12,1.14-.74-1.54-1.48-2.33-2.93-1.71ZM527.14,129.41c.01.21.03.43.04.64h2.76c-1.15-1.4-2.04-.11-2.8-.64ZM529.06,98.04c-.74-.72-1.49-1.01-2.31,0h2.31ZM528.87,119.51c-.02-.09-.04-.18-.06-.27-.53.1-1.07.2-1.6.31.03.13.06.26.09.39.53-.14,1.05-.28,1.58-.42ZM528.56,152.63v.51h1.19c0-.12.01-.24.02-.36l-1.2-.15Z"/>
    <path class="cls-1" d="M634.38,92.83c.36-.23.61-.53.86-.53,5.7-.02,11.41-.01,17.11.01.17,0,.34.26.75.59-.53.41-.92.87-1.42,1.06-.91.34-1.38.92-1.49,1.86-.28,2.36-.77,4.72-.83,7.09-.08,3.05.22,6.1.28,9.16.03,1.38-.15,2.77-.15,4.16,0,3.76.05,7.51.07,11.27,0,.92,0,1.84-.01,2.77-.06,4.9-.22,9.8-.16,14.7.03,2.83.33,5.67.66,8.49.24,2.04.31,4.31,3,4.68-.13,1.21-.75,1.07-1.39,1.06-3.94-.05-7.87-.07-11.81-.08-.85,0-1.69.15-2.54.19-.73.03-1.47,0-2.58,0,.41-.86.51-1.56.85-1.7,2.24-.93,2.35-2.94,2.44-4.84.15-3.16.12-6.34.1-9.5-.05-9.57-.15-19.15-.2-28.72-.02-4.79.05-9.57.04-14.36,0-1-.2-1.99-.34-2.99-.23-1.6-.7-3.01-2.56-3.45-.26-.06-.42-.55-.69-.92ZM641.99,106.47c-.05.16-.1.32-.14.48.94.36,1.88.72,2.89,1.11q-.85-1.93-2.75-1.59ZM644.05,129.17c-1.09-.73-1.88.05-2.68.1.8.54,1.6.87,2.68-.1ZM640.85,97.06q1.18.8,2.85,0h-2.85ZM641.43,119.09c.03.13.06.26.1.39.52-.15,1.05-.3,1.57-.45-.02-.09-.04-.18-.07-.27-.53.11-1.07.22-1.6.33ZM643.98,152.69c0-.12,0-.24,0-.36h-1.19c0,.12,0,.24,0,.36h1.19Z"/>
    <path class="cls-1" d="M257.23,197.58c-1.09.18-2.08.31-3.06.53-2.53.57-3.6,1.72-3.82,4.25-.19,2.15-.34,4.3-.35,6.46-.03,11.53-.03,23.06,0,34.58,0,2.08.16,4.16.36,6.23.23,2.47,1.05,3.38,3.46,4,.9.23,1.82.33,2.73.51,1.05.21.84.88.6,1.72h-22.07c-.05-.54-.09-.98-.14-1.56.99-.21,1.88-.41,2.77-.59,3.07-.59,3.97-1.53,4.23-4.59.11-1.31.16-2.63.16-3.94.01-12.84.02-25.69,0-38.53,0-1.47-.04-2.95-.22-4.4-.3-2.47-1.34-3.54-3.76-4.07-.98-.21-1.97-.36-2.98-.54-.45-1.08-.24-1.71.96-1.74,1.7-.04,3.4-.05,5.11-.04,4.8.02,9.6.06,14.39.1.9,0,2.03-.2,1.61,1.61Z"/>
  </g>
  <g>
    <path class="cls-1" d="M183.64,746.02l8.73-5.68c1.53-.79,2.6-1.82,3.22-3.08.61-1.26,1.15-2.13,1.61-2.6,1.68-1.26,2.87-2.76,3.56-4.5.69-1.74,1.41-3.55,2.18-5.44.76-2.21,1.07-4.18.92-5.92l-.69-4.73c-.31-1.89-1-3.55-2.07-4.97-1.23-1.74-2.53-3.12-3.91-4.14-1.38-1.03-2.91-1.93-4.59-2.72-.77-.32-1.53-.71-2.3-1.18-.77-.47-1.61-.63-2.53-.47,0,.79-.04,1.66-.12,2.6-.08.95-.11,1.81-.11,2.6.46,3.15.15,6.07-.92,8.76-.46,1.42-.96,2.84-1.49,4.26-.54,1.42-1.19,2.76-1.95,4.02-1.07,1.73-2.18,3.31-3.33,4.73s-2.41,2.68-3.79,3.79c-1.69,1.42-3.49,2.64-5.4,3.67-1.92,1.02-3.87,2.01-5.86,2.96-1.99,1.1-4.21,1.66-6.66,1.66-3.07.31-6.05.47-8.96.47s-5.9-.32-8.96-.95c-1.84-.32-3.68-.67-5.51-1.06-1.84-.4-3.6-1.15-5.28-2.25-.77-.47-1.57-.95-2.41-1.42-.84-.47-1.65-.87-2.41-1.18-2.61-1.26-4.98-2.64-7.12-4.14-2.15-1.5-3.98-3.43-5.51-5.8-.31-.32-.61-.63-.92-.95-.31-.32-.61-.63-.92-.95-1.23-1.26-2.34-2.69-3.33-4.26-1-1.58-1.88-3.24-2.64-4.97-.92-2.05-1.8-4.02-2.64-5.92-.84-1.89-1.65-3.87-2.41-5.92-2.15-5.84-3.52-11.52-4.13-17.04-.31-2.05-.57-4.06-.8-6.04-.23-1.97-.27-3.98-.11-6.04,0-.31-.08-.67-.23-1.07-.15-.39-.31-.75-.46-1.06,0-.47-.04-.91-.11-1.3-.08-.39-.12-.83-.12-1.3.15-1.89.27-3.82.35-5.8.08-1.97.27-4.06.57-6.27,0-.47-.04-1.14-.12-2.01-.08-.87-.04-1.78.12-2.72v-2.72c0-.87.15-1.69.46-2.49l2.76-13.49c.31-1.1.57-2.17.8-3.2.23-1.02.49-2.09.8-3.2,1.22-4.1,2.68-8.08,4.36-11.95,1.68-3.86,3.52-7.69,5.51-11.48.76-1.42,1.49-2.88,2.18-4.38.69-1.5,1.41-2.96,2.18-4.38.31-.79.69-1.46,1.15-2.01.46-.55.84-1.14,1.15-1.77.76-1.26,1.61-2.4,2.53-3.43.92-1.02,1.76-2.17,2.53-3.43,2.45-4.42,5.2-8.05,8.27-10.89,3.52-3.47,7.08-6.78,10.68-9.94,3.6-3.15,7.39-6.15,11.37-8.99l1.84-1.42,4.14-3.31c2.45-1.73,5.01-3.23,7.7-4.5,2.68-1.26,5.32-2.52,7.92-3.79,2.6-1.26,5.24-2.25,7.93-2.96,2.68-.71,5.47-1.22,8.38-1.54,2.91-.31,5.82-.43,8.73-.35,2.91.08,5.66.99,8.27,2.72.15.16.31.24.46.24,3.83,1.74,6.85,4.11,9.07,7.1,2.22,3,3.87,6.55,4.94,10.65.46,1.74.5,3.63.12,5.68-.38,2.05-1.07,3.99-2.07,5.8-1,1.82-2.26,3.39-3.79,4.73-1.53,1.34-3.29,2.25-5.28,2.72-3.22.95-6.66,1.03-10.34.24-7.66-1.42-12.56-5.68-14.7-12.78-.46-1.26-.84-2.6-1.15-4.02-.31-1.42-.31-2.92,0-4.5,0-.31-.04-.63-.12-.95-.08-.31-.27-.47-.57-.47h-.92c-.31,0-.61.16-.92.47-1.23,1.11-2.38,2.25-3.45,3.43-1.07,1.18-2.15,2.41-3.22,3.67-.92.79-1.61,1.66-2.07,2.6-.46.95-.84,2.05-1.15,3.31-.77,2.68-1.03,5.33-.8,7.93.23,2.6.65,5.25,1.26,7.93.15.79.69,1.82,1.61,3.08,7.5,8.68,16.77,13.49,27.8,14.44,7.81.63,14.85-1.34,21.13-5.92,2.6-1.73,4.97-3.71,7.12-5.92,2.14-2.21,4.36-4.42,6.66-6.63.76-.79,1.15-1.42,1.15-1.89.61-2.21,1.68-4.65,3.22-7.34.46-.95.69-1.97.69-3.08l.69-9.47c.31-4.73-.84-8.99-3.45-12.78-1.53-2.52-3.14-4.89-4.82-7.1-1.69-2.21-3.6-4.34-5.74-6.39-.46-.31-.92-.71-1.38-1.18-.46-.47-1-.87-1.61-1.18-3.68-2.05-7.43-3.79-11.26-5.21-3.83-1.42-7.89-2.37-12.17-2.84l-7.81-.95c-2.45-.31-4.82-.31-7.12,0-1.38.16-2.72.4-4.02.71-1.3.32-2.64.47-4.02.47-1.84,0-3.67.24-5.51.71-1.84.47-3.67,1.11-5.51,1.89-.92.32-1.88.59-2.87.83-1,.24-2.03.51-3.1.83-1.69.47-3.37.95-5.05,1.42-1.69.47-3.22,1.34-4.59,2.6-.77.47-1.69.87-2.76,1.18-1.23.32-2.3.71-3.22,1.18s-1.84,1.11-2.76,1.89c-2.76,1.74-5.51,3.55-8.27,5.44-2.76,1.89-5.59,3.71-8.5,5.44l-1.84,1.66-7.58,7.1-2.53,2.13-7.35,7.81-4.82,5.44c-1.38,1.74-2.72,3.55-4.02,5.44-1.3,1.89-2.64,3.79-4.02,5.68-2.15,2.84-4.02,5.8-5.63,8.88-1.61,3.08-3.33,6.12-5.17,9.11l-.69,1.66c-.77,1.42-1.46,2.84-2.07,4.26-.61,1.42-1.23,2.84-1.84,4.26-.61,1.42-1.23,2.84-1.84,4.26-.61,1.42-1.15,2.84-1.61,4.26-.77,2.21-1.49,4.5-2.18,6.86-.69,2.37-1.42,4.73-2.18,7.1-.31,1.26-.57,2.6-.8,4.02s-.5,2.76-.8,4.02l-.46,5.21c-.61,3.16-.92,6.31-.92,9.47v9.47c.15,3.47.38,6.91.69,10.3.31,3.39.84,6.75,1.61,10.06,1.99,10.1,5.59,19.88,10.8,29.35l3.45,6.15c.92,1.58,1.84,3.08,2.76,4.5s2.14,2.68,3.68,3.79l2.07,2.37c1.53,1.42,2.99,2.84,4.36,4.26,1.38,1.42,2.91,2.76,4.59,4.02,6.74,4.73,13.93,8.28,21.59,10.65,4.9,1.42,9.8,2.6,14.7,3.55,4.44,1.1,8.76,1.5,12.98,1.18,4.21-.32,8.54-.55,12.98-.71.31,0,.65-.04,1.03-.12.38-.08.72-.12,1.03-.12l10.57-2.6c2.76-.63,5.28-1.82,7.58-3.55ZM191.45,724.24c0,.16-.08.16-.23,0-.15,0-.23-.08-.23-.24l.69-1.66.92.47-1.15,1.42ZM189.84,717.61c.61-.16,1.3-.24,2.07-.24,1.07.16,1.76.12,2.07-.12.31-.24.92-.75,1.84-1.54.46-.47.92-.47,1.38,0,.31.79.38,1.34.23,1.66-.31.31-.57.59-.8.83-.23.24-.5.51-.8.83-.46.47-.88.59-1.26.36-.38-.24-.73-.44-1.03-.59h-3.68c-.15,0-.23-.08-.23-.24l-.23-.24c0-.47.15-.71.46-.71ZM185.7,583.64c-.15,0-.23.04-.23.12s-.08.12-.23.12v-.47h.46v.24ZM190.53,586.24h-.23l.46-.47c0,.16-.08.32-.23.47ZM212.35,584.82l-3.68-.47c-.15,0-.38-.16-.69-.47.31-.31.69-.47,1.15-.47.31,0,.53.04.69.12.15.08.31.12.46.12.92,0,1.61.08,2.07.24l.92.47-.92.47ZM234.63,563.05h.23c.15,0,.23.08.23.24h-.46v-.24ZM219.24,574.64c0,.16.04.28.12.36.08.08.11.2.11.35h-.69l-.23-.47c.15-.16.38-.24.69-.24ZM215.8,586.72c-.31-.31-.46-.63-.46-.95.15,0,.27-.04.35-.12.08-.08.19-.12.34-.12l1.84.71-2.07.47ZM216.03,582.45c-.15,0-.23-.24-.23-.71,0-.31.15-.47.46-.47.76.47,1.34.51,1.72.12.38-.39.88-.75,1.49-1.07-.61,2.05-1.76,2.76-3.45,2.13ZM222,585.77l-.46-.95c.15-.31.53-.63,1.15-.95l.69.71-1.38,1.18ZM226.48,578.9c-.08,0-.11.08-.11.24v.24c-.61,0-1.07-.08-1.38-.24l-.46-.95c.31,0,.5-.04.57-.12.08-.08.27-.12.57-.12l.92.71c0,.16-.04.24-.12.24ZM228.43,572.99c-.31-.31-.46-.63-.46-.95.15,0,.27-.04.35-.12.08-.08.19-.12.34-.12s.27.08.34.24c.08.16.27.32.57.47-.61.32-1,.47-1.15.47ZM227.51,569.2l-.23-.71c.61-1.1,1.53-1.5,2.76-1.18l.46.95-2.99.95ZM232.34,557.6c.15,0,.23.04.23.12s.08.12.23.12l-.23.24c-.15.16-.54.24-1.15.24l.69-.95c0,.16.08.24.23.24ZM230.27,553.1h.69l.92.47.23.24c0,.47-.08.71-.23.71l-1.61.47c-.46,0-.96.12-1.49.36-.54.24-.88-.04-1.03-.83-.15-.63.11-.98.8-1.06.69-.08,1.26-.2,1.72-.36ZM227.74,547.9l.69.71c-.31,0-.57.04-.8.12-.23.08-.5.12-.8.12s-.46-.16-.46-.47c.61-.31,1.07-.47,1.38-.47ZM227.74,550.26c0,.16.08.24.23.24l.46.24-1.38.71c-.15,0-.38-.16-.69-.47l1.38-.71ZM225.67,562.1c1.07-1.1,1.15-2.21.23-3.31,0-.31.08-.55.23-.71.46-.47.69-.47.69,0,.76.95,1.49,1.38,2.18,1.3.69-.08,1.41-.27,2.18-.59-.46,1.11-.88,1.86-1.26,2.25-.38.4-1.34,1.15-2.87,2.25-.15.16-.19.35-.11.59.08.24.11.51.11.83s-.08.47-.23.47h-.69c-.31-.47-.57-.98-.8-1.54-.23-.55-.11-1.06.34-1.54ZM223.38,543.16c.15,0,.23.08.23.24v.24h-.46c.15-.16.23-.31.23-.47ZM222.23,572.51c.15-.16.61-.24,1.38-.24.15.16.34.28.57.36.23.08.5.28.8.59.31.32.19.59-.34.83-.54.24-1.19.28-1.95.12-.31,0-.54-.08-.69-.24l-.69-.95c.31-.31.61-.47.92-.47ZM220.39,579.61c-.31.32-.54.47-.69.47l-1.15-.71-.69-.47.46-.47c.15,0,.27-.04.34-.12.08-.08.27-.12.57-.12.61,0,1.07.08,1.38.24-.15.16-.23.55-.23,1.18ZM132.87,555.47c.31-.16.92-.24,1.84-.24l.46.95c-.31,0-.57.04-.8.12-.23.08-.5.12-.8.12-.15,0-.31-.04-.46-.12-.15-.08-.38-.12-.69-.12.46-.47.61-.71.46-.71ZM106.46,576.3l.69-.47,3.22-1.18,3.22,1.89v.95c-.15.32-.31.47-.46.47s-.31.08-.46.24h-.46c-1.84-1.58-3.45-1.66-4.82-.24,0,.16-.15.16-.46,0-.31-.16-.54-.31-.69-.47-.15-.16-.08-.55.23-1.18ZM101.4,592.87c.31,0,.57.08.8.24.23.16.5.32.8.47l-.69,1.42-1.38.95c-.15,0-.38.16-.69.47l-.23-.24c.15,0,.31-.04.46-.12.15-.08.31-.12.46-.12-1.07-1.89-.92-2.92.46-3.08ZM96.35,593.82c.15,0,.23-.08.23-.24l.23.24c0,.16-.15.24-.46.24v-.24ZM73.84,667.67v-.24l.23-.24c0,.16.04.28.12.36.08.08.11.2.11.35-.15,0-.31-.08-.46-.24ZM89.46,605.65c0,.16.04.28.11.35.08.08.11.28.11.59l-.92.47c-.15-.16-.23-.31-.23-.47.15-.47.46-.79.92-.95ZM84.86,618.79c.15-.08.31-.12.46-.12l.69.71c-.46.16-1,.24-1.61.24l-.23-.71c.31,0,.53-.04.69-.12ZM86.7,655.12l1.15,1.66c-.46.47-.77.63-.92.47-.46,0-1-.31-1.61-.95.31-.16.53-.31.69-.47.15-.16.38-.39.69-.71ZM78.89,647.43c.15-.08.31-.12.46-.12s.23.24.23.71c-.15.16-.46.24-.92.24.15,0,0-.24-.46-.71.31,0,.53-.04.69-.12ZM77.51,664c-.31.08-.61.12-.92.12l-.23-.47,1.84-.71v.24c0,.32.08.55.23.71-.31,0-.61.04-.92.12ZM81.53,699.03c-.08.08-.19.12-.34.12l-.46-.71h.69c.31,0,.46.16.46.47-.15,0-.27.04-.34.12ZM80.96,674.53l.23-.24.23.24h-.46ZM82.11,661.51l-1.15.95c-.61,0-.92-.39-.92-1.18-.15-.31-.19-.59-.11-.83.08-.24.11-.51.11-.83h-.92l-2.3,1.42c-.31.16-.57.32-.8.47-.23.16-.42-.08-.57-.71-.15-.16-.11-.43.11-.83.23-.39.5-.59.8-.59.61-.16,1.53-.08,2.76.24l.69-1.42c1.22-.79,1.99-.55,2.3.71v2.6ZM82.57,646.6l1.15-.71c.31,0,.69-.04,1.15-.12.46-.08.69-.04.69.12.31.63.27.95-.11.95s-.73.08-1.03.24l-1.38.71-.46-.47v-.71ZM85.32,682.46c0-.08-.08-.12-.23-.12.15,0,.27-.04.35-.12.08-.08.19-.12.34-.12l.23.24c-.15,0-.31.08-.46.24-.15,0-.23-.04-.23-.12ZM86.01,696.55c-.15-.16-.23-.4-.23-.71,0-.47.23-.71.69-.71.31,0,.69.24,1.15.71l-.92,1.42c-.31-.32-.54-.55-.69-.71ZM87.62,707.67l-.46-.47h.46l.23.24-.23.24ZM88.54,671.1c-.31.4-.46.75-.46,1.06-.46.79-1,1.11-1.61.95l-3.22-1.66-.23-.47.46-.24c1.07.47,2.3,0,3.68-1.42h.69l.69.47c.31.47.31.91,0,1.3ZM88.88,641.39c-.23.16-.5.24-.8.24l-.69-.71c.31-.63.61-1.02.92-1.18.15,0,.69.32,1.61.95-.46.32-.8.55-1.03.71ZM89.57,632.04c-.08.08-.19.12-.34.12s-.27-.04-.34-.12c-.08-.08-.19-.12-.35-.12.31-.31.53-.47.69-.47s.38.16.69.47c-.15,0-.27.04-.34.12ZM89,610.62c-.31,0-.61-.16-.92-.47l1.38-.71.92.71c-.61.32-1.07.47-1.38.47ZM91.52,707.67h-.69v-.24h.69v.24ZM93.13,591.21h.23l.46.71c-.15,0-.27.04-.34.12-.08.08-.19.12-.35.12l-.46-.71.46-.24ZM93.13,616.3l.46-.24c.15.16.23.47.23.95,0,.16-.23.32-.69.47,0-.31-.04-.51-.11-.59-.08-.08-.04-.27.11-.59ZM95.89,719.03c-.15.16-.38.08-.69-.24l1.15-.95c.31.31.46.55.46.71-.31.31-.61.47-.92.47Z"/>
    <path class="cls-1" d="M248.87,559.02c.15.79.54,1.42,1.15,1.89.61.79,1.19,1.58,1.72,2.37.54.79,1.19,1.58,1.95,2.37,2.91,3.16,6.43,5.76,10.57,7.81,2.91,1.42,5.82,2.64,8.73,3.67,2.91,1.03,5.9,1.86,8.96,2.49,3.83.79,7.58,1.5,11.26,2.13,3.68.63,7.43.95,11.26.95,3.06.16,6.05.2,8.96.12,2.91-.08,5.82-.12,8.73-.12.61,0,1.15-.04,1.61-.12.46-.08.92-.12,1.38-.12l6.2-1.18c1.84-.31,3.71-.59,5.63-.83,1.91-.24,3.79-.59,5.63-1.06,1.22-.31,2.37-.67,3.45-1.07,1.07-.39,2.22-.59,3.45-.59.76,0,1.45-.08,2.07-.24.61-.16,1.3-.31,2.07-.47,4.13-.95,7.89-2.21,11.26-3.79,1.68-.79,2.76-1.02,3.22-.71.46.32,1.07,1.42,1.84,3.31.61,1.11.99,2.21,1.15,3.31.15,1.26.27,2.45.34,3.55.08,1.11.27,2.29.57,3.55.76,2.68,1.11,5.25,1.03,7.69-.08,2.45-.19,4.93-.34,7.46-.31,2.05-.73,3.95-1.26,5.68-.54,1.74-1.19,3.47-1.95,5.21l-.46.47-.46-.47c-.31-1.58-1.03-2.76-2.18-3.55-1.15-.79-2.11-1.73-2.87-2.84-.77-.95-1.69-1.69-2.76-2.25-1.07-.55-2.22-.98-3.45-1.3-2.61-.79-5.13-1.07-7.58-.83-2.45.24-4.9.75-7.35,1.54-1.69.32-3.22.95-4.59,1.89-1.38.95-2.84,1.82-4.36,2.6l-1.84,1.66c-2.3,2.69-4.02,5.6-5.17,8.76-1.15,3.16-2.03,6.47-2.64,9.94-.03.28-.04.55-.06.83-1.54-.03-2.75.56-3.61,1.77l-6.89,8.99-5.38,6.78c-1.01,0-2.02.06-3,.2-1.61.24-3.1.91-4.48,2.01-1.68,1.42-3.18,2.92-4.48,4.5-1.3,1.58-2.26,3.47-2.87,5.68-.46,1.42-.69,2.76-.69,4.02v2.85c-.42.51-.86,1.04-1.26,1.53-.84,1.03-1.8,1.93-2.87,2.72-1.53,1.26-2.95,2.53-4.25,3.79-1.3,1.26-2.57,2.6-3.79,4.02-1.53,1.74-3.3,3.2-5.28,4.38-1.99,1.18-4.06,2.17-6.2,2.96-2.15.79-3.22.08-3.22-2.13.15-1.26.27-2.52.34-3.79.08-1.26.34-2.52.8-3.79.92-2.37,1.8-4.73,2.64-7.1.84-2.37,1.87-4.65,3.1-6.86,1.68-2.84,3.37-5.68,5.05-8.52,1.68-2.84,3.37-5.68,5.05-8.52,1.53-2.68,3.25-5.21,5.17-7.57,1.91-2.37,3.71-4.81,5.4-7.34,1.38-1.89,2.72-3.75,4.02-5.56,1.3-1.81,2.79-3.59,4.48-5.33,1.68-1.73,3.22-3.51,4.59-5.33,1.38-1.81,2.91-3.59,4.59-5.33.61-.63,1.11-1.26,1.49-1.89.38-.63.8-1.26,1.26-1.89-.77-.79-1.61-1.1-2.53-.95-.92.16-1.76.24-2.53.24-.46,0-.88.04-1.26.12-.38.08-.73.12-1.03.12-2.3.16-4.59.28-6.89.35-2.3.08-4.59-.27-6.89-1.06-1.53-.47-2.84.08-3.91,1.66-.46.63-.88,1.26-1.26,1.89-.38.63-.73,1.26-1.03,1.89-1.69,2.53-3.45,4.97-5.28,7.34-1.84,2.37-3.45,4.89-4.82,7.57-.15.63-.61,1.18-1.38,1.66-1.38,1.26-2.61,3-3.68,5.21-.46,1.11-1.07,2.21-1.84,3.31-2.3,3.16-4.52,6.39-6.66,9.71-2.15,3.31-4.13,6.79-5.97,10.41-.61.95-1.19,1.89-1.72,2.84-.54.95-1.19,1.89-1.95,2.84-1.69,2.21-3.37,4.34-5.05,6.39-1.69,2.05-3.37,4.18-5.05,6.39-1.69,2.37-3.64,4.38-5.86,6.04-2.22,1.66-4.56,3.12-7.01,4.38-3.07,1.89-5.82,1.74-8.27-.47-1.22-1.1-2.14-2.45-2.76-4.02-.61-1.58-.76-3.23-.46-4.97.61-2.68,1.3-5.4,2.07-8.17.76-2.76,1.99-5.4,3.68-7.93.92-1.42,1.8-2.88,2.64-4.38.84-1.5,1.49-3.11,1.95-4.85.15-.31.34-.67.57-1.07.23-.39.5-.75.8-1.06,2.6-2.84,4.78-5.92,6.55-9.23,1.76-3.31,3.94-6.47,6.55-9.47.31-.31.46-.71.46-1.18.76-2.21,2.07-4.02,3.9-5.44.46-.31.84-.75,1.15-1.3.31-.55.61-.98.92-1.3l3.91-5.21c.92-1.26,1.84-2.49,2.76-3.67.92-1.18,1.76-2.4,2.53-3.67,1.07-1.26.69-2.05-1.15-2.37h-16.77c-2.61-.16-4.59.87-5.97,3.08l-1.15,1.42c-.92,2.21-2.38,4.26-4.36,6.15-.61.63-1,1.26-1.15,1.89-1.07,3-2.68,5.6-4.82,7.81-2.15,2.21-3.83,4.81-5.05,7.81-.15.32-.69.95-1.61,1.89s-1.53,1.74-1.84,2.37c-1.99,3.31-3.91,6.67-5.74,10.06-1.84,3.4-3.75,6.83-5.74,10.3-.46.79-.92,1.66-1.38,2.6-.46.95-.84,1.89-1.15,2.84-.46,2.21-.88,4.5-1.26,6.86-.38,2.37-.73,4.73-1.03,7.1-.46,3.63-.04,6.95,1.26,9.94,1.3,3,3.26,5.76,5.86,8.28.31.32.65.59,1.03.83.38.24.8.36,1.26.36,1.69.32,3.33.63,4.94.95s3.26.39,4.94.24c2.45-.16,4.86-.51,7.24-1.06,2.37-.55,4.55-1.69,6.55-3.43.76-.79,1.57-1.42,2.41-1.89.84-.47,1.72-.95,2.64-1.42,2.76-1.73,5.2-4.1,7.35-7.1l2.07-2.6c.15-.16.61-.47,1.38-.95v1.42c.15,1.42.23,2.88.23,4.38v4.62c.15.79.31,1.5.46,2.13.15.63.53,1.26,1.15,1.89,1.53,1.58,3.06,2.92,4.59,4.02,1.53,1.1,3.52,1.26,5.97.47h1.15c3.06.31,5.93-.12,8.61-1.3,2.68-1.18,5.09-2.8,7.24-4.85,3.06-2.68,6.01-5.36,8.84-8.05,2.46-2.33,4.82-4.8,7.11-7.37.65,6.8,3.58,12.03,8.86,15.66,3.07,2.21,6.28,3.87,9.65,4.97,3.37,1.1,7.05,1.42,11.03.95,1.38-.32,2.76-.63,4.14-.95,1.38-.31,2.68-.63,3.9-.95,3.06-.95,5.86-2.17,8.38-3.67,2.53-1.5,4.86-3.43,7.01-5.8,1.68-2.05,3.6-3.79,5.74-5.21,2.14-1.26,4.06-3.15,5.74-5.68.92-1.1,1.87-2.2,2.8-3.3-.24.84-.48,1.7-.74,2.59-.15.63-.23,1.26-.23,1.89s-.15,1.26-.46,1.89c-.92,2.69-1.18,5.29-.8,7.81.38,2.53,1.19,5.05,2.41,7.57.77,1.74,1.84,2.69,3.22,2.84,1.99.47,3.98.98,5.97,1.54,1.99.55,4.06.2,6.2-1.07.15-.16.38-.24.69-.24,2.91-.31,5.44-1.22,7.58-2.72,2.14-1.5,4.29-3.11,6.43-4.85,1.84-1.58,3.6-3.23,5.28-4.97,1.68-1.73,3.37-3.47,5.05-5.21,3.38-4,6.79-7.9,10.22-11.74-.27,1.39-.54,2.78-.81,4.16-.15.79-.19,1.54-.11,2.25.08.71.19,1.46.34,2.25,0,.47.08.99.23,1.54.15.55.23,1.15.23,1.78-.31,3.16.54,5.84,2.53,8.05.31.32.5.63.57.95.08.32.27.63.57.95,1.53,3,3.49,5.09,5.86,6.27,2.38,1.18,5.02,1.93,7.92,2.25,2.76-.32,5.4-.67,7.93-1.06,2.53-.39,5.01-1.22,7.47-2.49,4.75-2.37,9.22-5.09,13.44-8.17,4.21-3.08,8.08-6.66,11.6-10.77.76-.79,1.49-1.58,2.18-2.37.69-.79,1.34-1.58,1.95-2.37,1.99-2.52,3.94-4.97,5.86-7.34,1.91-2.37,3.71-4.81,5.4-7.34,1.38-1.89,2.56-3.82,3.56-5.8.99-1.97,2.1-3.98,3.33-6.04.31-.63.46-1.02.46-1.18.31-1.73.76-3.47,1.38-5.21.61-1.73,1.22-3.43,1.84-5.09.61-1.66,1.11-3.31,1.49-4.97.38-1.66.49-3.43.34-5.33,0-.16.04-.27.12-.35.08-.08.11-.2.11-.36.77-3.94.19-7.49-1.72-10.65-1.92-3.15-4.63-5.21-8.16-6.15-2.61-.79-5.21-1.26-7.81-1.42-2.61-.16-5.21.4-7.81,1.66-1.23.32-2.07.47-2.53.47-3.37.95-6.63,2.09-9.76,3.43-3.14,1.34-6.09,3.12-8.84,5.33-.61.47-1.23.91-1.84,1.3-.61.4-1.23.75-1.84,1.06-1.99.95-3.68,2.21-5.05,3.79-.46.63-1.3,1.42-2.53,2.37l-9.19,8.99c-.31.32-.61.67-.92,1.07-.31.4-.61.83-.92,1.3-.92,1.26-1.84,2.49-2.76,3.67-.92,1.18-1.91,2.41-2.99,3.67-1.22,1.42-2.3,2.96-3.22,4.62-.82,1.49-1.58,3.01-2.28,4.56l-10.12,12.84c-.46.63-1.3,1.42-2.53,2.37-.31.32-.65.63-1.03.95-.38.32-.73.71-1.03,1.18-1.07,1.74-2.3,3.2-3.68,4.38s-2.76,2.41-4.13,3.67c-3.68,3.16-7.28,6.15-10.8,8.99-1.22.95-2.6,1.66-4.13,2.13-1.53.47-2.45-.24-2.76-2.13v-2.13c0-.63.08-1.26.23-1.89.77-3.15,1.69-6.27,2.76-9.35,1.07-3.08,2.45-5.95,4.14-8.64.77-1.26,1.53-2.56,2.3-3.91.76-1.34,1.53-2.64,2.3-3.91.46-.79.84-1.5,1.15-2.13.31-.63.61-1.34.92-2.13.76-1.42,1.68-2.72,2.76-3.91,1.07-1.18,1.99-2.49,2.76-3.91.76-1.58,1.64-3.15,2.64-4.73.99-1.58,2.03-3.16,3.1-4.73,1.22-1.73,2.41-3.59,3.56-5.56,1.15-1.97,2.33-3.82,3.56-5.56.92-1.42,1.87-2.76,2.87-4.02.99-1.26,1.8-2.68,2.41-4.26.15-.47.34-.87.57-1.18.23-.31.5-.63.8-.95,1.07-1.42,2.14-2.8,3.22-4.14,1.07-1.34,2.07-2.72,2.99-4.14,1.38-1.89,3.06-2.84,5.05-2.84.76.16,1.45.28,2.07.35.61.08,1.3.12,2.07.12,1.53.32,2.6.4,3.22.24.76-.16,1.22-.59,1.38-1.3.15-.71,0-1.3-.46-1.78-.61-.63-1.46-1.1-2.53-1.42-.46-.16-.96-.2-1.49-.12-.54.08-1.03.12-1.49.12h-2.53l1.38-2.6,3.9-6.63c.31-.31.53-.75.69-1.3.15-.55.46-.98.92-1.3,1.38-1.1,2.45-2.44,3.22-4.02.76-1.58,1.68-3.08,2.76-4.5.92-1.58.61-2.21-.92-1.89-2.45,0-4.82.08-7.12.24-2.3.16-4.67,0-7.12-.47-2.15-.31-3.87-.04-5.17.83-1.3.87-2.49,2.09-3.56,3.67l-1.38,2.84-5.74,8.99c-.31.32-.65.67-1.03,1.06-.38.4-.65.83-.8,1.3-.77,2.21-1.8,3.51-3.1,3.91-1.3.4-2.87.35-4.71-.12-.77-.31-1.53-.43-2.3-.35-.77.08-1.53.2-2.3.35-1.53.32-2.15,1.11-1.84,2.37.61,1.42,1.45,2.13,2.53,2.13.92-.31,1.61-.47,2.07-.47.76,0,1.45-.08,2.07-.24.61-.16,1.22,0,1.84.47-.31.63-.57,1.26-.8,1.89-.23.63-.5,1.26-.8,1.89-.61.79-1.23,1.54-1.84,2.25-.61.71-1.15,1.46-1.61,2.25-.77,1.58-1.61,3.04-2.53,4.38-.92,1.34-1.92,2.8-2.99,4.38l-7.12,11.12c-.92,1.26-1.72,2.53-2.41,3.79-.69,1.26-1.64,2.45-2.87,3.55-.31.32-.57.75-.8,1.3-.23.55-.5,1.06-.8,1.54-.46.79-.88,1.5-1.26,2.13-.3.51-.58,1.08-.84,1.68-1.6,2.31-3.19,4.6-4.79,6.84-.92,1.26-1.8,2.45-2.64,3.55-.84,1.11-1.72,2.21-2.64,3.31-1.53,1.74-3.03,3.4-4.48,4.97-1.46,1.58-2.8,3.31-4.02,5.21-.15.32-.54.79-1.15,1.42-.46.32-.96.71-1.49,1.18-.54.47-.96.63-1.26.47-.77-.31-1.07-.79-.92-1.42.15-.63.23-1.26.23-1.89-.15-2.21-.42-4.26-.8-6.15-.38-1.89-1.19-3.71-2.41-5.44-.92-1.26-1.69-2.6-2.3-4.02-.61-1.42-1.3-2.84-2.07-4.26-1.23-2.84-2.3-5.76-3.22-8.76-.92-3-1.38-6.07-1.38-9.23-.31-4.1.23-7.81,1.61-11.12,1.68-4.58,4.98-7.34,9.88-8.28,2.3-.47,4.51-.2,6.66.83,2.14,1.03,3.75,2.57,4.82,4.62.76,1.42.46,1.98-.92,1.66-1.38,0-2.53.36-3.45,1.07-.92.71-1.76,1.54-2.53,2.49-.77,1.11-1.15,2.21-1.15,3.31s.15,2.21.46,3.31c.46,1.26,1.11,2.09,1.95,2.49.84.4,1.87.67,3.1.83.46,0,.92-.04,1.38-.12.46-.08.84-.04,1.15.12,3.37,0,5.43-1.42,6.2-4.26.46-1.58,1.11-2.96,1.95-4.14.84-1.18,1.64-2.4,2.41-3.67,8.57-12.31,10.49-25.8,5.74-40.48l-1.61-4.5c-.31-.79-.34-1.34-.12-1.66.23-.31.73-.63,1.49-.95l10.57-4.02c2.91-1.26,5.89-2.33,8.96-3.2,3.06-.87,5.89-2.17,8.5-3.91.31-.31.57-.47.8-.47s.5-.08.8-.24c2.6-.16,4.97-1.02,7.12-2.6l2.07-.71c3.98-1.26,7.81-2.8,11.49-4.62,3.67-1.81,7.5-3.35,11.48-4.62,1.53-.31,2.95-.79,4.25-1.42,1.3-.63,2.64-1.26,4.02-1.89,3.68-1.58,7.31-3.15,10.91-4.73,3.6-1.58,7.16-3.23,10.68-4.97,1.84-.79,3.71-1.54,5.63-2.25,1.91-.71,3.94-1.22,6.09-1.54.31-.16.69-.27,1.15-.36.46-.08.84-.27,1.15-.59,1.68-.47,3.41-.98,5.17-1.54,1.76-.55,3.48-1.14,5.17-1.77l7.81-2.37c2.14-.63,4.36-1.3,6.66-2.01,2.3-.71,4.52-1.22,6.66-1.54,2.3-.31,4.55-.75,6.78-1.3,2.22-.55,4.56-.91,7.01-1.07,3.22-.16,6.47-.43,9.76-.83,3.29-.39,6.55-.75,9.76-1.07,1.99.16,3.67.32,5.05.47,1.38.16,2.83.36,4.36.59,1.53.24,3.18.55,4.94.95,1.76.4,3.94.91,6.55,1.54,1.68.32,3.37.71,5.05,1.18,1.68.47,3.22,1.34,4.59,2.6.3.32.61.51.92.59.31.08.61.2.92.36,5.66,2.53,10.34,6.39,14.01,11.6,1.38,2.21,2.49,4.46,3.33,6.75.84,2.29,1.57,4.7,2.18,7.22.46,2.84.31,5.44-.46,7.81l-1.15,4.26c-1.84,6.47-5.59,11.21-11.26,14.2-2.76,1.58-5.28,1.89-7.58.95-.61-.31-1.23-.51-1.84-.59-.61-.08-1.23-.2-1.84-.36-2.45-.31-4.52-1.38-6.2-3.2-1.69-1.81-2.68-3.98-2.99-6.51-.46-3.63.69-6.59,3.45-8.88,2.76-2.29,6.05-2.96,9.88-2.01.46.32.95.63,1.49.95.53.32,1.03.16,1.49-.47.31-.47.46-1.02.46-1.66v-1.66c.15-1.42-.46-2.84-1.84-4.26-3.83-3.47-8.42-4.73-13.78-3.79-1.84.32-3.67,1.18-5.51,2.6-1.84,1.42-3.37,3.12-4.59,5.09-1.23,1.98-2.03,4.11-2.41,6.39-.38,2.29-.12,4.62.8,6.98.3.63.46,1.22.46,1.77s.08,1.07.23,1.54c.15,1.26.46,2.37.92,3.31.46.95,1.07,1.82,1.84,2.6,2.14,2.69,4.67,4.73,7.58,6.15,2.91,1.42,5.97,2.45,9.19,3.08,2.91.47,5.78.67,8.61.59,2.83-.08,5.7-.75,8.61-2.01,1.68-.79,3.29-1.5,4.82-2.13,1.53-.63,3.06-1.5,4.59-2.6,3.06-2.21,5.7-4.69,7.92-7.46,2.22-2.76,3.94-6.04,5.17-9.82,1.22-3.94,1.91-7.81,2.07-11.6.15-3.79-.16-7.65-.92-11.6l-1.15-2.37-1.61-2.84c-.77-2.21-1.84-4.02-3.22-5.44-1.38-1.42-2.91-2.76-4.59-4.02-1.84-1.58-3.71-2.96-5.63-4.14-1.92-1.18-3.94-2.4-6.09-3.67-2.76-1.58-5.55-2.92-8.38-4.02-2.84-1.1-5.86-1.66-9.07-1.66-.61,0-1.19-.08-1.72-.24-.54-.16-1.11-.24-1.72-.24-2.61-.31-5.21-.67-7.81-1.07-2.61-.39-5.28-.2-8.04.59-.46.16-.92.2-1.38.12-.46-.08-1-.12-1.61-.12-2.91-.16-5.82-.16-8.73,0-2.91.16-5.82.63-8.73,1.42l-6.66,1.18c-2.76.47-5.48.95-8.16,1.42-2.68.47-5.32,1.03-7.92,1.66-4.29.79-8.46,1.86-12.52,3.2-4.06,1.34-8.16,2.64-12.29,3.91l-6.43,1.89c-1.38.47-2.76,1.03-4.13,1.66-1.38.63-2.76,1.18-4.14,1.66-2.91.79-5.71,1.74-8.38,2.84-2.68,1.11-5.4,2.29-8.16,3.55-1.84.79-3.67,1.62-5.51,2.49-1.84.87-3.75,1.62-5.74,2.25-5.21,1.42-10.42,3.55-15.62,6.39-.92.63-1.84.95-2.76.95-1.53.32-2.99.75-4.36,1.3-1.38.55-2.76,1.22-4.13,2.01-1.99.95-3.94,1.82-5.86,2.6-1.92.79-3.94,1.5-6.09,2.13-1.38.32-2.76.75-4.13,1.3-1.38.55-2.76,1.15-4.14,1.77-1.53.63-2.99,1.26-4.36,1.89-1.38.63-2.91,1.03-4.59,1.18-.77.16-1.42.36-1.95.59-.54.24-1.11.51-1.72.83l-4.82,2.37c-1.69.47-3.3.95-4.82,1.42-1.53.47-3.14,1.03-4.82,1.66-.92.16-1.61-.24-2.07-1.18-.92-1.26-1.84-2.56-2.76-3.91-.92-1.34-1.76-2.64-2.53-3.91-1.23-2.21-2.84-4.1-4.82-5.68-1.99-1.58-3.75-3.47-5.28-5.68l-19.3-12.55c-.31-.31-.69-.51-1.15-.59-.46-.08-.84-.2-1.15-.35-2.15-.63-4.21-1.18-6.2-1.66-1.99-.47-3.98-1.1-5.97-1.89-6.89-2.37-13.93-3.55-21.13-3.55h-1.84c-.61,0-1.22-.08-1.84-.24-3.68-.63-7.35-.83-11.03-.59-3.67.24-7.27.67-10.8,1.3-2.45.16-4.9.79-7.35,1.89-2.6,1.11-5.13,2.25-7.58,3.43-2.45,1.18-4.75,2.88-6.89,5.09-3.37,3.47-5.74,7.5-7.12,12.07-.61,2.37-.57,4.66.12,6.86.69,2.21,1.26,4.42,1.72,6.63ZM270.46,647.78c0-.31.19-.63.57-.95.38-.31.73-.47,1.03-.47s.61.2.92.59c.31.4.69.75,1.15,1.06-.46.32-.84.59-1.15.83-.31.24-.61.35-.92.35s-.69-.08-1.15-.24c-.46-.16-.61-.55-.46-1.18ZM229.12,629.08v.24l-.23.24c0-.16-.04-.24-.12-.24s-.11-.08-.11-.24h.46ZM211.89,655.12c0,.32.15.63.46.95l-1.15.47-.46-.95c.46,0,.84-.16,1.15-.47ZM206.84,666.25h.23v.47h-.46c.15-.16.23-.31.23-.47ZM206.84,672.64c-.46-.47-.53-.71-.23-.71l1.38-1.89c.15-.16.38-.16.69,0,.15,0,.23.24.23.71l-1.61,1.89h-.46ZM207.87,677.02c-.08-.08-.11-.2-.11-.36.15-.16.38-.24.69-.24,0,.16.04.28.12.35.08.08.11.2.11.36-.31,0-.53.08-.69.24,0-.16-.04-.27-.12-.35ZM211.43,682.34l-2.07.71-1.15-.71c.46-.47.77-.71.92-.71.61-.31,1.3-.47,2.07-.47,0,.16.08.24.23.24l.23.24c0,.47-.08.71-.23.71ZM210.28,674.06l.46-.71.46.47c0,.16-.15.4-.46.71l-.46-.47ZM213.27,671.22c-.61.47-1.22.55-1.84.24-.31,0-.46-.16-.46-.47,0-1.73.84-2.44,2.53-2.13l.69.71c0,.63-.31,1.18-.92,1.66ZM213.5,658.67c-.61,1.11-1.61,1.58-2.99,1.42-.61,0-1.15-.08-1.61-.24-.31,0-.46-.24-.46-.71l.46-.47c1.38.47,2.68.16,3.91-.95.61-.31,1.07-.63,1.38-.95l-.69,1.89ZM215.79,650.15c0-.16-.04-.27-.11-.35-.08-.08-.12-.2-.12-.36s.23-.24.69-.24c0,.16.08.32.23.47-.31.32-.53.47-.69.47ZM253.24,675.48l-.69-.47.69-.71.46.24h.23l-.69.95ZM255.3,684.47l-.92-.71c.15,0,.27-.04.34-.12.08-.08.19-.12.35-.12s.38.16.69.47l-.46.47ZM256.22,676.43c-.15.16-.31.16-.46,0-.15-.16-.31-.24-.46-.24.15-.16.27-.31.35-.47.08-.16.27-.31.57-.47,0,.16.08.24.23.24s.23.04.23.12.08.12.23.12l-.69.71ZM264.72,659.62h-.92c.46-.47.61-.71.46-.71.15-.16.38-.08.69.24,0,.16-.08.32-.23.47ZM333.63,670.74c0,1.11-.08,2.13-.23,3.08-.15.95-.23,1.98-.23,3.08,0,.79-.27,1.7-.8,2.72-.54,1.03-1.19,2.01-1.95,2.96-.77.95-1.61,1.82-2.53,2.6-.92.79-1.69,1.26-2.3,1.42-.31.16-.84.24-1.61.24-1.53.32-2.95.28-4.25-.12-1.3-.39-2.56-.98-3.79-1.77-3.22-1.58-5.05-4.26-5.51-8.05-.15-.95-.27-1.85-.35-2.72-.08-.87-.11-1.69-.11-2.49.15-2.68.46-5.33.92-7.93.46-2.6,1.84-4.85,4.14-6.75.46-.47.84-1.1,1.15-1.89.31-1.73-.23-3.59-1.61-5.56-.26-.37-.53-.7-.81-1.01,1.86-2.62,3.72-5.24,5.63-7.87l4.14-4.97c.05-.07.09-.13.14-.19.12,1.3.28,2.59.54,3.86.76,3.71,1.76,7.38,2.99,11.01.92,2.69,1.87,5.44,2.87,8.28.99,2.84,2.03,5.6,3.1,8.28.31.63.46,1.26.46,1.89v1.89ZM420.69,659.38c-.31,0-.61-.16-.92-.47.31-.31.61-.47.92-.47s.54.04.69.12c.15.08.38.2.69.36l-1.38.47ZM422.18,666.48c.54.16.8.4.8.71-.15.47-.42.71-.8.71h-1.26c-.15-.16-.31-.24-.46-.24s-.38-.08-.69-.24v.24c-.61,0-1.53-.16-2.76-.47.31-.79.73-1.14,1.26-1.06.54.08,1.03.04,1.49-.12.46-.31.84-.31,1.15,0,.31.16.73.32,1.26.47ZM420.92,677.61c-.61.47-1.15.71-1.61.71s-.99-.08-1.61-.24c-.15,0-.38-.16-.69-.47l-.92-1.18.92-.47h1.15c.61.16,1.53.55,2.76,1.18v.47ZM423.68,671.93c-.31.32-.65.79-1.03,1.42-.38.63-.8.95-1.26.95-.76.16-1.53.2-2.3.12-.76-.08-1.38-.51-1.84-1.3-.15-.16-.19-.39-.11-.71.08-.31.19-.55.34-.71l5.28-.95c.31,0,.5.08.57.24.08.16.19.24.34.24v.71ZM423.9,655.6c-.31,0-.57-.04-.8-.12-.23-.08-.57-.12-1.03-.12.61-.63,1.07-1.02,1.38-1.18.31,0,.61.16.92.47,0,.32-.15.63-.46.95ZM429.19,686.84l-.46-.47,1.38-1.42.92,1.18-1.84.71ZM444.35,633.35c.92-1.1,1.76-2.29,2.53-3.55.76-1.26,1.68-2.44,2.76-3.55,1.22-1.26,2.53-2.37,3.9-3.31,1.38-.95,2.68-2.05,3.91-3.31,2.45-2.21,5.13-3.91,8.04-5.09,2.91-1.18,5.82-2.4,8.73-3.67,1.68-.79,3.41-1.07,5.17-.83,1.76.24,3.56.44,5.4.59,1.07.32,1.84,1.03,2.3,2.13.46.79.77,1.62.92,2.49.15.87.38,1.7.69,2.49.61,1.26.15,1.58-1.38.95-3.68-1.26-6.51-.39-8.5,2.6-1.53,2.05-1.61,4.18-.23,6.39l2.76,3.79c1.22,1.89,1.61,4.11,1.15,6.63-1.07,4.1-2.64,7.81-4.71,11.12-2.07,3.31-4.4,6.55-7.01,9.71-1.23,1.26-2.38,2.57-3.45,3.91-1.07,1.34-2.15,2.64-3.22,3.91-4.59,5.53-9.65,9.86-15.16,13.02-2.61,1.58-5.67,2.6-9.19,3.08-2.61.32-4.82-.36-6.66-2.01-1.84-1.66-2.91-3.91-3.22-6.75,0-1.1-.08-1.97-.23-2.6.31-2.68.69-5.36,1.15-8.05.46-2.68,1.07-5.36,1.84-8.05l1.38-2.6,1.61-3.31c1.53-5.84,4.44-11.2,8.73-16.1ZM419.08,590.98c.15,0,.23-.08.23-.24.31.32.46.55.46.71-.15,0-.38.16-.69.47,0-.16-.04-.27-.12-.35-.08-.08-.11-.2-.11-.36s.08-.24.23-.24ZM410.7,609.2c-.08.16-.19.24-.34.24-.15.16-.31.2-.46.12-.15-.08-.38-.04-.69.12-.31-.31-.69-.47-1.15-.47-.15-.16-.23-.31-.23-.47s.04-.27.12-.36c.08-.08.11-.2.11-.35h2.3c.15,0,.46.24.92.71-.31.16-.5.32-.57.47ZM407.83,599.5c.76-1.42,1.84-1.58,3.22-.47.31.16.46.36.46.59s.15.51.46.83l-1.61.47h-.69c-.15,0-.69-.16-1.61-.47-.15,0-.27-.12-.34-.35-.08-.24-.04-.43.11-.59ZM406.11,613.34c.08.08.27.12.57.12-.31.32-.54.59-.69.83-.15.24-.38.44-.69.59-.15.16-.54.08-1.15-.24v-.71l1.61-.71c.15,0,.27.04.35.12ZM405.3,609.2c0,.16.04.24.11.24s.12.08.12.24-.04.28-.12.36c-.08.08-.11.04-.11-.12-.15,0-.23-.04-.23-.12s-.08-.12-.23-.12c0-.31.15-.47.46-.47ZM403.81,606.72c.08-.08.19-.12.34-.12,0,.16.04.28.11.35.08.08.12.2.12.36-.15.16-.38.24-.69.24-.15,0-.23-.24-.23-.71.15,0,.27-.04.35-.12ZM403.46,617.49l-.23.47c-.61.32-1.03.28-1.26-.12-.23-.39-.5-.67-.8-.83,1.07-.31,1.84-.16,2.3.47ZM400.02,615.12h.23c.15,0,.69.16,1.61.47-.31.32-.61.79-.92,1.42l-.92-.71c-.31,0-.61-.16-.92-.47l.92-.71ZM370.16,674.3c-.31,0-.49-.12-.57-.35-.08-.24-.27-.43-.57-.59.31-.16.54-.31.69-.47.15-.16.38-.24.69-.24.15,0,.61.4,1.38,1.18-1.22.32-1.76.47-1.61.47ZM340.99,659.15l.69-.47v.47c0,.16.08.24.23.24l-.69.47-.23-.47v-.24ZM608.6,550.74c-.31.32-.77.24-1.38-.24-.61-.47-.92-.87-.92-1.18l.69-.47c.3.16.61.32.92.47.31.16.61.4.92.71,0,.47-.08.71-.23.71ZM608.14,538.07c.61-.39,1.3-.75,2.07-1.07.61-.47.92-.24.92.71.15,1.26.11,1.98-.12,2.13-.23.16-.96.4-2.18.71-.77.16-1.49.24-2.18.24s-1.42-.31-2.18-.95c-.31-.63-.46-1.02-.46-1.18.31-.31.69-.47,1.15-.47h.69c.92.32,1.68.28,2.3-.12ZM605.84,533.22c.61.95.53,1.42-.23,1.42-.61.16-1.23.16-1.84,0-.61-.16-1.23-.31-1.84-.47-.77-.31-1.15-.79-1.15-1.42-.15-.31,0-.75.46-1.3.46-.55.92-.83,1.38-.83,1.22-.31,2.3.55,3.22,2.6ZM600.56,525.88c.92-.31,1.61-.47,2.07-.47l.46.24v.24l-2.76.71-.23-.24.46-.47ZM268.51,550.26c.23-2.84,1.42-5.6,3.56-8.28,4.44-5.36,9.88-8.36,16.31-8.99,1.53-.16,3.07-.35,4.59-.59,1.53-.24,3.07-.51,4.59-.83.46,0,.88-.04,1.26-.12.38-.08.8-.12,1.26-.12v.24l12.17.95c5.51.47,11.26,1.82,17.23,4.02,1.22.32,2.37.79,3.45,1.42,1.07.63,2.22,1.11,3.45,1.42,2.3.79,4.4,1.89,6.32,3.31,1.91,1.42,3.87,2.76,5.86,4.02,1.22.79,2.3,1.62,3.22,2.49.92.87,1.84,1.86,2.76,2.96,1.22,1.26,2.45,2.64,3.68,4.14,1.22,1.5,2.45,2.96,3.68,4.38l1.38,1.66c1.22,2.05,1.76,3.24,1.61,3.55-.15.32-1.3.71-3.45,1.18-2.3.63-4.59,1.3-6.89,2.01s-4.59,1.46-6.89,2.25c-1.69.47-3.37.91-5.05,1.3-1.69.4-3.37.75-5.05,1.06-2.3.47-4.59.87-6.89,1.18-2.3.32-4.59.63-6.89.95-1.84.32-3.71.55-5.63.71-1.91.16-3.79.32-5.63.47h-.46c-3.37-.79-6.78-1.14-10.22-1.07-3.45.08-6.78-.59-9.99-2.01-2.45-1.1-4.9-2.21-7.35-3.31-2.45-1.1-4.9-2.29-7.35-3.55-1.68-.79-3.14-1.81-4.36-3.08-1.22-1.26-2.22-2.92-2.99-4.97-1.07-3-1.49-5.92-1.26-8.76ZM253.7,549.32h.92l1.38,1.66v.71c-.61.32-.92.55-.92.71l-1.84-1.42c-.31-.47-.15-1.02.46-1.66Z"/>
    <path class="cls-1" d="M609.97,605.77c-1.69.71-3.37,1.46-5.05,2.25-.31.16-.77.55-1.38,1.18-2.91,2.53-5.74,5.05-8.5,7.57-2.76,2.53-5.59,5.13-8.5,7.81l-1.15.71v-1.18c.76-1.73,1.18-3.51,1.26-5.33.08-1.81.11-3.59.11-5.33,0-4.57-1.99-7.57-5.97-8.99-2.61-.95-5.28-1.58-8.04-1.89-2.76-.31-5.44-.08-8.04.71-1.07.32-2.03.67-2.87,1.07-.84.4-1.72.83-2.64,1.3-.46.32-.92.59-1.38.83-.46.24-1,.44-1.61.59-1.38.47-2.64,1.11-3.79,1.89-1.15.79-2.26,1.58-3.33,2.37-.46.32-1.15.63-2.07.95l.92-1.89c1.22-.95,2.3-2.05,3.22-3.31l3.91-3.79c-.92-.79-1.84-1.02-2.76-.71-.92.32-1.84.55-2.76.71-2.61.32-5.21.51-7.81.59-2.61.08-5.21-.2-7.81-.83-1.07-.31-1.84-.36-2.3-.12-.46.24-1.07.83-1.84,1.77l-6.2,8.76c-.46.47-1,1.18-1.61,2.13l-12.86,19.17c-.3.63-.57,1.18-.8,1.66-.23.47-.49.95-.8,1.42-1.53,2.84-2.99,5.68-4.36,8.52-1.38,2.84-2.83,5.6-4.36,8.28l-12.86,24.38c-1.22,2.37-2.3,4.77-3.22,7.22-.92,2.45-1.84,4.85-2.76,7.22-.61,1.58-.23,2.37,1.15,2.37h16.08c1.07,0,1.76-.63,2.07-1.89.31-.95.54-1.93.69-2.96.15-1.02.46-2.01.92-2.96,1.23-2.52,2.49-4.97,3.79-7.34,1.3-2.37,2.57-4.81,3.79-7.34l.46-.47,2.99-4.97c.92-1.89,1.8-3.75,2.64-5.56.84-1.81,2.03-3.43,3.56-4.85.3-.16.46-.36.46-.59s.15-.51.46-.83c1.68-2.68,3.33-5.29,4.94-7.81,1.61-2.52,3.25-5.13,4.94-7.81,2.3-3.63,4.97-6.78,8.04-9.47,3.06-2.68,5.82-5.76,8.27-9.23l.69-.47,14.24-9.47c1.22-.79,2.45-1.22,3.67-1.3,1.22-.08,2.45-.04,3.68.12,1.22.16,2.22.87,2.99,2.13,1.22,1.74,1.38,3.47.46,5.21-.46,1.11-.96,2.13-1.49,3.08-.54.95-1.03,1.89-1.49,2.84-1.38,2.69-2.91,5.17-4.59,7.46-1.69,2.29-3.06,4.85-4.13,7.69l-.69,1.18c-2.3,3.16-4.52,6.43-6.66,9.82-2.15,3.4-3.91,7.06-5.28,11.01l-.69.95c-1.38,1.74-2.38,3.51-2.99,5.33-.61,1.82-1.23,3.75-1.84,5.8-.16.63-.31,1.26-.46,1.89-.15.63-.38,1.26-.69,1.89-1.07,2.53-1.38,4.89-.92,7.1.15.79.19,1.5.12,2.13-.08.63-.04,1.34.12,2.13.3,1.42.76,2.76,1.38,4.02.61,1.26,1.61,2.13,2.99,2.6,1.99.79,3.94,1.3,5.86,1.54,1.91.24,3.94-.04,6.09-.83.92-.32,1.49-.67,1.72-1.07.23-.39.19-1.06-.11-2.01-1.53-4.1-1.38-8.2.46-12.31,1.22-2.37,2.37-4.77,3.44-7.22,1.07-2.44,2.22-4.93,3.45-7.46.31-.47.57-.87.8-1.18.23-.31.5-.63.8-.95l4.82-7.57c.76-1.26,1.53-2.49,2.3-3.67.76-1.18,1.61-2.33,2.53-3.43,1.22-2.05,2.56-4.02,4.02-5.92,1.45-1.89,2.87-3.79,4.25-5.68l2.53-2.84c1.22-1.42,2.53-2.8,3.91-4.14,1.38-1.34,2.6-2.88,3.67-4.62.15-.63.69-1.26,1.61-1.89l13.55-10.18c.77-.63,1.61-1.1,2.53-1.42.92-.31,1.76-.63,2.53-.95,1.68-.63,3.6-.55,5.74.24,1.84.79,2.53,1.89,2.07,3.31-.31,1.26-.57,2.41-.8,3.43-.23,1.03-.57,2.09-1.03,3.2-.77,1.74-1.53,3.4-2.3,4.97-.77,1.58-1.69,3.08-2.76,4.5-1.84,3-3.71,6-5.63,8.99-1.92,3-3.64,6.08-5.17,9.23-.15.32-.31.55-.46.71-.15.16-.31.4-.46.71-1.23,1.74-2.41,3.51-3.56,5.33-1.15,1.82-2.18,3.67-3.1,5.56-2.15,5.05-3.83,10.14-5.05,15.27-1.23,5.13-1.99,10.38-2.3,15.74-.31,6,.84,11.6,3.45,16.81l2.07,5.21c.15.95-.16,1.5-.92,1.66-1.23.63-2.53,1.3-3.91,2.01-1.38.71-2.76,1.22-4.13,1.54-2.76.79-5.51,1.66-8.27,2.6-2.76.95-5.44,1.97-8.04,3.08-6.43,2.68-12.86,5.21-19.3,7.57-6.43,2.37-12.71,5.21-18.84,8.52-.31.31-.69.51-1.15.59-.46.08-.84.2-1.15.36-1.69.63-3.29,1.22-4.82,1.77-1.53.55-3.06,1.22-4.59,2.01l-5.97,2.37c-3.06,1.1-6.05,2.21-8.96,3.31-2.91,1.1-5.74,2.44-8.5,4.02-.3.31-.69.47-1.15.47s-.92.08-1.38.24l-4.36,1.18c-1.99.63-3.91,1.46-5.74,2.49-1.84,1.02-3.91,1.46-6.2,1.3-.3,0-.65.12-1.03.36-.38.24-.8.51-1.26.83-1.22.63-2.22,1.02-2.99,1.18-4.44,1.26-8.84,2.37-13.21,3.31-4.36.95-8.77,1.5-13.21,1.66-.76,0-1.38.08-1.84.24-3.67.95-7.39,1.5-11.14,1.66-3.75.16-7.54.08-11.37-.24-4.59-.32-9.15-1.03-13.67-2.13-4.51-1.11-8.99-2.21-13.44-3.31-.92-.32-1.53-.63-1.84-.95-2.3-1.42-4.51-2.92-6.66-4.5-2.14-1.58-4.06-3.55-5.74-5.92l-3.68-4.73c-.31-.32-.57-.71-.8-1.18-.23-.47-.42-.95-.57-1.42-.76-2.69-1.38-5.41-1.84-8.17-.46-2.76-.46-5.56,0-8.4.31-2.84.92-5.53,1.84-8.05.92-2.53,2.45-4.82,4.59-6.86,1.84-1.89,3.87-3.31,6.09-4.26,2.22-.95,4.71-1.03,7.47-.24.92.31,1.61.47,2.07.47,2.15-.16,3.87.27,5.17,1.3,1.3,1.02,2.57,2.25,3.79,3.67,1.23,1.73,1.84,3.94,1.84,6.63s-.61,4.89-1.84,6.63c-.76.95-1.84,1.73-3.22,2.37-3.06,1.1-5.82,1.18-8.27.24-1.22-.32-2.03-.36-2.41-.12-.38.24-.65,1.06-.8,2.49-.15,1.89.38,3.47,1.61,4.73,1.38,1.26,2.83,2.29,4.36,3.08,1.53.79,3.22,1.02,5.05.71,2.61-.16,5.21-.63,7.81-1.42,3.68-.95,6.13-3.47,7.35-7.57l1.15-5.21c.46-2.05.54-4.18.23-6.39-.31-2.21-.92-4.26-1.84-6.15-.92-1.89-2.1-3.59-3.56-5.09-1.45-1.5-3.02-2.64-4.71-3.43-2.14-.95-4.25-2.01-6.32-3.2-2.07-1.18-4.4-1.46-7.01-.83-.46,0-.76-.08-.92-.24-5.82-1.26-11.41-.4-16.77,2.6l-2.53,1.42c-9.19,4.42-15.01,11.44-17.46,21.07-.46,1.73-.8,3.43-1.03,5.09-.23,1.66-.5,3.35-.8,5.09-.15.79-.19,1.46-.12,2.01.08.55.19,1.22.35,2.01.31,1.42.69,2.84,1.15,4.26.46,1.42.84,2.92,1.15,4.5.46,3,1.69,5.52,3.67,7.57.92,1.26,1.92,2.37,2.99,3.31,1.07.95,2.22,1.89,3.45,2.84,1.07.95,2.18,1.81,3.33,2.6,1.15.79,2.26,1.66,3.33,2.6.92.79,1.8,1.46,2.64,2.01.84.55,1.8.98,2.87,1.3.77.16,1.42.35,1.95.59.54.24,1.19.51,1.95.83l11.72,3.79c.31.16.69.2,1.15.12.46-.08.92-.12,1.38-.12.77.16,1.57.24,2.41.24h2.64c1.99.16,3.94.27,5.86.36,1.92.08,3.87.12,5.86.12,4.59,0,9.19-.24,13.78-.71,2.45-.32,4.86-.63,7.24-.95,2.38-.32,4.71-.63,7.01-.95l5.28-1.18,5.05-.95c1.23-.32,2.41-.55,3.56-.71,1.15-.16,2.34-.4,3.56-.71l17.69-4.97c.55-.2,1.1-.37,1.65-.55v142.08c0,.27-.04,1.23-.11,2.9-.07,1.67-.22,3.43-.43,5.29-.22,1.87-.58,3.53-1.08,4.99-.51,1.47-1.19,2.2-2.06,2.2-1.59,0-2.53.53-2.82,1.6-.29.53-.36,1-.22,1.4h35.51c0-.4-.07-.86-.22-1.4-.29-.4-.61-.76-.97-1.1-.36-.33-.98-.5-1.84-.5s-1.55-.76-2.06-2.3c-.51-1.53-.9-3.23-1.19-5.09-.29-1.86-.47-3.59-.54-5.19-.07-1.6-.11-2.53-.11-2.79v-149.8c.42-.09.85-.18,1.28-.25.46,0,.88-.12,1.26-.36.38-.24.8-.51,1.26-.83l3.22-1.42c4.13-1.74,8.27-3.43,12.4-5.09,4.14-1.66,8.35-3.35,12.63-5.09,1.99-.79,3.98-1.58,5.97-2.37,1.99-.79,4.06-1.58,6.2-2.37,1.07-.47,2.1-.95,3.1-1.42.99-.47,2.03-.87,3.1-1.18,2.6-1.11,5.24-2.09,7.93-2.96,2.68-.87,5.32-1.93,7.92-3.2,2.3-1.11,4.67-2.09,7.12-2.96,2.45-.87,4.9-1.7,7.35-2.49,2.6-.79,5.09-1.62,7.47-2.49,2.37-.87,4.78-1.77,7.24-2.72,1.38-.47,2.26-.67,2.64-.59.38.08,1.11.67,2.18,1.78l.69.95c1.07,1.89,2.3,3.59,3.68,5.09,1.38,1.5,2.76,2.96,4.13,4.38,3.52,3.63,7.2,6.55,11.03,8.76,1.22.79,2.45,1.62,3.67,2.49,1.22.87,2.45,1.69,3.68,2.49l4.36,2.6c2.14.79,4.21,1.54,6.2,2.25,1.99.71,4.06,1.46,6.2,2.25.76.31,1.53.63,2.3.95.76.31,1.53.55,2.3.71l16.31,2.13c1.07.16,2.14.24,3.22.24s2.14.16,3.22.47c4.29.79,8.54.87,12.75.24,4.21-.63,8.38-1.66,12.52-3.08.61-.32,1.26-.47,1.95-.47s1.34-.16,1.95-.47c1.38-.32,2.76-.67,4.13-1.06,1.38-.4,2.68-.99,3.91-1.78,1.53-.79,3.02-1.7,4.48-2.72,1.45-1.03,2.95-1.93,4.48-2.72,2.45-1.58,4.36-3.71,5.74-6.39.76-1.74,1.45-3.87,2.07-6.39.92-3.63.46-7.1-1.38-10.41-1.07-1.89-2.15-3.67-3.22-5.33-1.07-1.66-2.61-3.04-4.59-4.14l-.23-.24c-1.23-1.42-2.61-2.53-4.13-3.31-1.53-.79-3.14-1.58-4.82-2.37-1.53-.63-3.02-1.22-4.48-1.77-1.46-.55-3.03-.99-4.71-1.3-2.15-.63-4.36-1.22-6.66-1.78-2.3-.55-4.59-.99-6.89-1.3-4.29-.63-8.54-.99-12.75-1.07-4.21-.08-8.46.04-12.75.36-1.53,0-3.02.08-4.48.24-1.46.16-2.95.24-4.48.24-1.69,0-3.37.08-5.05.24-1.69.16-3.37.39-5.05.71-4.59.79-9.19,1.73-13.78,2.84-4.59,1.1-9.11,2.37-13.55,3.79-1.38.47-2.22.08-2.53-1.18-.77-2.21-1.53-4.46-2.3-6.75-.77-2.29-1.23-4.77-1.38-7.46,0-2.52.08-4.97.23-7.34.15-2.37.53-4.73,1.15-7.1,1.53-6.63,4.36-12.94,8.5-18.94.92-1.42,1.8-2.88,2.64-4.38.84-1.5,1.64-3.04,2.41-4.62.31-.31.53-.67.69-1.06.15-.39.38-.75.69-1.07,1.38-1.26,2.49-2.68,3.33-4.26.84-1.58,1.64-3.16,2.41-4.73.92-2.05,1.91-4.06,2.99-6.04,1.07-1.97,2.07-3.98,2.99-6.04.61-1.42,1.18-2.88,1.72-4.38.53-1.5.95-3.04,1.26-4.62.92-3.31.76-6.55-.46-9.71-.92-3.47-2.99-5.68-6.2-6.63-5.67-1.73-11.03-1.73-16.08,0-1.69.63-3.37,1.3-5.05,2.01ZM543.81,615.83l-1.38,1.42-.23-.47v-.24c.46-.63.99-1.18,1.61-1.66v.95ZM570.23,639.5l-.23-.47h.46l-.23.47ZM369.23,746.96c-.15,0-.23.08-.23.24-.92-.32-1.61-.63-2.07-.95l-.23-.24.69-.71,1.84.95c.15,0,.23.16.23.47,0,.16-.08.24-.23.24ZM717.93,727.32h.46c-.15,0-.19.04-.12.12.08.08.04.12-.11.12h-.23v-.24ZM714.26,739.15h.46v.24h-.46v-.24ZM712.88,733.47c-.61.31-1,.47-1.15.47l-.92-.95,1.15-.71.92,1.18ZM710.58,728.26c.15-.16.53-.24,1.15-.24l.46.24h.23c0,.63-.16.95-.46.95-.15.16-.31.24-.46.24s-.38.08-.69.24c-.15,0-.23-.04-.23-.12s-.08-.12-.23-.12-.23-.08-.23-.24c0-.32.15-.63.46-.95ZM710.58,738.44c.3,0,.53.08.69.24l-.46.47c-.15,0-.27-.04-.34-.12-.08-.08-.19-.12-.34-.12l.46-.47ZM614.11,716.9c.15-.32.92-.63,2.3-.95,1.22-.47,2.53-.83,3.91-1.07,1.38-.24,2.68-.51,3.9-.83,2.45-.79,4.59-1.42,6.43-1.89.3-.32.69-.51,1.15-.59.46-.08.84-.2,1.15-.36,2.45-.47,4.82-.99,7.12-1.54,2.3-.55,4.59-.99,6.89-1.3,1.22-.32,2.41-.44,3.56-.35,1.15.08,2.33.12,3.56.12.61,0,1.15.04,1.61.12.46.08.92.12,1.38.12v-.47c3.06.31,6.09.51,9.07.59,2.99.08,6.01.2,9.07.35h.69c2.6.79,5.17,1.54,7.7,2.25,2.53.71,5.09,1.54,7.7,2.49,2.6,1.1,4.9,2.6,6.89,4.5,1.99,1.89,3.83,3.94,5.51,6.15.61.95.92,1.66.92,2.13.31,1.73.42,3.51.34,5.33-.08,1.81-.5,3.59-1.26,5.33-1.53,3.63-3.45,6.63-5.74,8.99-1.69,1.73-3.56,3.04-5.63,3.91-2.07.87-4.17,1.62-6.32,2.25l-3.22.47c-3.52,1.1-7.05,1.62-10.57,1.54-3.52-.08-7.05-.51-10.57-1.3-2.45-.63-4.86-1.18-7.24-1.66-2.38-.47-4.79-.95-7.24-1.42-1.84-.47-3.6-1.03-5.28-1.66-1.69-.63-3.22-1.66-4.59-3.08l-.92-.71c-3.07-1.58-5.71-3.59-7.93-6.04-2.22-2.45-4.48-4.93-6.78-7.46-1.07-1.11-1.92-2.33-2.53-3.67-.61-1.34-1.3-2.64-2.07-3.91-.46-.79-.84-1.46-1.15-2.01-.31-.55-.61-1.22-.92-2.01-.77-1.26-1.07-2.05-.92-2.37Z"/>
    <path class="cls-1" d="M440.1,883.85c-1.61-.27-3.04-.27-4.27,0-1.11.27-2.11.83-2.97,1.7-.87.87-1.3,2.43-1.3,4.69,0,1.6-.22,4.13-.65,7.59-.43,3.46-1.27,6.99-2.51,10.58-1.24,3.59-2.97,6.76-5.2,9.48-2.23,2.73-5.14,4.16-8.73,4.29h-27.05v-33.94c.49,0,1.52.03,3.07.1,1.55.07,3.16.23,4.83.5,1.67.27,3.16.63,4.46,1.1,1.3.47,1.95,1.1,1.95,1.9,0,1.33.43,2.13,1.3,2.4.49.13.99.2,1.49.2v-19.96c-.5,0-.99.07-1.49.2-.87.27-1.3,1.07-1.3,2.4,0,.8-.65,1.43-1.95,1.9-1.3.47-2.79.83-4.46,1.1-1.67.27-3.28.43-4.83.5-1.55.07-2.57.1-3.07.1v-71.87h6.11c2.97.13,25.71,1,26.83,2.6,1.11,1.6,1.73,3.63,1.86,6.09.12,2.46-.09,5.26-.65,8.38-.56,3.13-.96,6.26-1.21,9.38-.25,3.13-.19,6.12.19,8.98.37,2.86,1.55,5.22,3.53,7.09,1.36,1.47,2.91,2.26,4.64,2.4,1.73.13,3.28-.07,4.64-.6,1.61-.66,2.88-1.63,3.81-2.89.93-1.26,1.39-2.63,1.39-4.09,0-1.33-.44-2.46-1.3-3.39-.87-.93-1.86-1.4-2.97-1.4-1.24,0-2.29.47-3.16,1.4-.87.93-1.3,2.06-1.3,3.39v.4c-.99-.53-1.36-1.6-1.11-3.19.12-2.26.68-5.26,1.67-8.98.99-3.72,2.04-7.62,3.16-11.68,1.11-4.06,2.14-8.02,3.07-11.88.93-3.86,1.39-6.99,1.39-9.38h-75.11c-.12.53-.06,1.07.19,1.6.25.93,1.05,1.4,2.42,1.4.74,0,1.33.73,1.76,2.2.43,1.47.74,3.13.93,4.99.19,1.87.31,3.63.37,5.29.06,1.67.09,2.63.09,2.9v91.43c0,.27-.03,1.23-.09,2.9-.06,1.67-.19,3.43-.37,5.29-.19,1.87-.5,3.53-.93,4.99-.44,1.47-1.02,2.2-1.76,2.2-1.36,0-2.17.53-2.42,1.6-.25.53-.31,1-.19,1.4h77.2c-1.74-7.19-2.66-13.61-2.79-19.27-.13-5.66,0-10.41.37-14.27.49-4.52,1.3-8.58,2.41-12.18Z"/>
    <path class="cls-1" d="M566.61,924.93c-1.35,0-2.15.53-2.42,1.6-.14.53-.07,1,.2,1.4h32.9c0-.4-.14-.86-.4-1.4-.54-1.06-1.48-1.6-2.83-1.6-.81,0-1.61-.76-2.42-2.3-.81-1.53-1.48-3.26-2.02-5.19-.54-1.93-.98-3.69-1.31-5.29-.34-1.6-.5-2.46-.5-2.6l-1.82-9.98c3.36-.93,5.72-2.6,7.07-4.99,1.34-2.4,1.85-4.86,1.51-7.39-.34-2.53-1.45-4.76-3.33-6.69-1.89-1.93-4.44-2.9-7.67-2.9.81,1.2,1.41,2.33,1.82,3.39.27.93.37,1.93.3,2.99-.07,1.07-.71,2-1.92,2.79l-12.31-68.68c0-.13-.1-1-.3-2.6-.2-1.6-.37-3.33-.5-5.19-.14-1.86-.1-3.59.1-5.19.2-1.6.71-2.4,1.51-2.4s1.34-.13,1.61-.4c.27-.27.47-.6.61-1,.13-.53.13-1.06,0-1.6h-33.71c-.27.53-.34,1.07-.2,1.6.13.4.33.73.61,1,.27.27.81.4,1.61.4s1.28.77,1.41,2.3c.13,1.53.1,3.23-.1,5.09-.2,1.87-.47,3.63-.81,5.29-.34,1.67-.5,2.56-.5,2.7l-21.19,91.43c0,.27-.24,1.2-.71,2.79-.47,1.6-1.04,3.33-1.72,5.19-.67,1.87-1.45,3.56-2.32,5.09-.88,1.53-1.72,2.3-2.52,2.3-1.35,0-2.29.53-2.82,1.6-.27.53-.47,1-.61,1.4h25.84c.13-.4.13-.86,0-1.4-.14-.4-.34-.76-.61-1.1-.27-.33-.81-.5-1.61-.5-.67,0-1.08-.63-1.21-1.9-.14-1.26-.14-2.73,0-4.39.13-1.66.33-3.29.61-4.89.27-1.6.47-2.79.61-3.59.4-1.6,1.18-3.53,2.32-5.79,1.14-2.26,2.86-4.26,5.15-5.99,2.29-1.73,5.31-2.83,9.08-3.29,3.77-.46,8.48.23,14.13,2.1l2.22,12.38c0,.27.13,1.2.4,2.79.27,1.6.44,3.33.5,5.19.07,1.87,0,3.56-.2,5.09-.2,1.53-.71,2.3-1.51,2.3ZM552.48,886.8c-3.9.13-8.41,1.47-13.52,3.99l14.13-60.89,10.29,57.7c-3.36-.66-7-.93-10.9-.8Z"/>
    <path class="cls-1" d="M641.22,810.54c.28-1.86.63-3.62,1.05-5.29.42-1.66,1.12-2.5,2.1-2.5.84,0,1.43-.13,1.78-.4.35-.27.66-.6.94-1,.14-.53.21-1.06.21-1.6h-34.41c-.14.53-.07,1.07.21,1.6.28.93,1.19,1.4,2.73,1.4.84,0,1.5.77,1.99,2.3.49,1.53.84,3.23,1.05,5.09.21,1.87.35,3.63.42,5.29.07,1.67.1,2.56.1,2.7v91.43c0,.27-.04,1.2-.1,2.79-.07,1.6-.21,3.33-.42,5.19-.21,1.87-.56,3.56-1.05,5.09-.49,1.53-1.15,2.3-1.99,2.3-1.54,0-2.45.53-2.73,1.6-.28.53-.35,1-.21,1.4h34.41c0-.4-.07-.86-.21-1.4-.28-.4-.6-.76-.94-1.1-.35-.33-.95-.5-1.78-.5-.98,0-1.68-.8-2.1-2.4-.42-1.6-.77-3.32-1.05-5.19-.28-2.26-.49-4.86-.63-7.79v-91.24c.14-2.79.35-5.39.63-7.79Z"/>
    <path class="cls-1" d="M728.72,882.21c-1.82-.27-3.43-.27-4.83,0-1.26.27-2.38.83-3.36,1.7-.98.87-1.47,2.43-1.47,4.69,0,1.6-.25,4.13-.73,7.59-.49,3.46-1.44,6.99-2.83,10.58-1.4,3.59-3.36,6.76-5.88,9.48-2.52,2.73-5.81,4.16-9.86,4.29h-11.33v-102.62c0-.53.07-1.63.21-3.29.14-1.66.35-3.39.63-5.19.28-1.8.63-3.36,1.05-4.69.42-1.33,1.05-2,1.89-2,1.26,0,2.17-.46,2.73-1.4.28-.53.35-1.06.21-1.6h-34.41c-.14.53-.07,1.07.21,1.6.28.93,1.19,1.4,2.73,1.4.84,0,1.5.83,1.99,2.5.49,1.67.87,3.43,1.15,5.29.28,2.4.42,4.99.42,7.79v91.24c0,2.93-.14,5.52-.42,7.79-.28,1.87-.67,3.59-1.15,5.19-.49,1.6-1.15,2.4-1.99,2.4-1.54,0-2.45.53-2.73,1.6-.28.53-.35,1-.21,1.4h67.99c-1.96-7.19-3.01-13.61-3.15-19.27-.14-5.66,0-10.41.42-14.27.56-4.52,1.47-8.58,2.73-12.18Z"/>
    <path class="cls-1" d="M376.45,990.86c3.85-.17,7.39-.82,10.63-1.95,3.23-1.14,5.66-2.44,7.25-3.9,1.95-1.72,3.28-3.54,3.97-5.45.69-1.91.96-3.66.81-5.23-.18-1.96-1-3.51-2.43-4.63-1.44-1.12-3.09-1.5-4.95-1.14-1.86.36-3.34,1.33-4.43,2.91-1.09,1.58-1.55,3.33-1.39,5.27,0,.1.02.19.02.29-3.54.64-7.05-.89-10.52-4.53-3.47-3.65-7.06-8.42-10.74-14.3-3.69-5.88-7.52-12.33-11.49-19.34-3.98-7.01-8.17-13.71-12.55-20.12-4.39-6.41-9.04-11.96-13.94-16.71-4.91-4.75-10.2-7.83-15.94-9.35,6.96-2.36,13.35-6.1,19.15-11.2,5.79-5.09,10.69-11.3,14.68-18.55,3.99-7.25,6.86-15.41,8.63-24.36,1.77-8.96,2.09-18.41,1.05-28.22-1.8-17.03-7.4-30.49-16.16-40.96-8.78-10.52-19.23-18.3-31.23-24.86-10.35-5.45-20.86-9.19-31.84-11.02-10.99-1.83-21.39-2.13-31.83-.38-10.44,1.72-20.46,5.24-30.49,10.44-10.02,5.2-18.92,11.8-26.32,20.17-8.09,9.15-13.73,18.28-16.15,28.14-2.44,9.83-2.77,19.32-.88,28.38,1.88,9.05,5.48,17.28,10.65,24.41,5.16,7.14,10.71,12.11,16.41,14.92,5.33,2.73,11.54,4.72,18.56,5.85,7.02,1.13,13.3.41,18.81-2.01,3.86-1.65,7.2-4.08,10.04-7.22,2.84-3.14,4.9-6.65,6.21-10.48,1.31-3.84,1.71-7.92,1.23-12.26-.48-4.34-2.1-8.66-4.8-13.04-.78,2.38-2.38,4.83-4.82,7.32-2.44,2.49-5.54,4.37-9.3,5.58-3.76,1.22-7.96,1.61-12.59,1.12-4.63-.49-9.36-2.58-14.09-6.31-6.1-4.61-9.82-10.55-11.05-17.5-1.23-6.96-.64-13.85,1.62-20.7,2.25-6.84,5.76-13.17,10.3-19.14,4.54-5.97,9.57-10.65,15.03-14.09,8.15-4.87,16.01-8.03,23.92-9.43,7.9-1.4,15.45-1.38,22.96-.04,7.5,1.35,14.67,3.94,21.69,7.72,7.01,3.78,13.41,8.4,19.2,14.05,5.79,5.66,10.7,12.29,14.67,20.18,3.97,7.88,6.44,16.98,7.24,27.41.67,8.75.02,17.19-2.04,25.26-2.06,8.06-5.1,15.23-9.14,21.4-4.04,6.18-8.79,11.19-14.22,14.97-5.44,3.79-11.1,5.87-16.94,6.26-.8.05-1.59.1-2.39.15-.9-29.83-1.39-59.51-1.74-89.83,0-.18.02-1.45.07-3.81.05-2.35.22-4.86.5-7.52.28-2.66.67-5.09,1.18-7.3.51-2.2,1.22-3.34,2.13-3.39,1.37-.08,2.35-.82,2.93-2.19.29-.78.34-1.54.17-2.29-12.4.93-24.86.71-37.36-.42-.2.76-.16,1.54.11,2.34.23,1.38,1.2,2.14,2.89,2.27.92.07,1.6,1.18,2.06,3.32.46,2.15.76,4.56.9,7.24.14,2.69.21,5.21.22,7.59,0,2.38,0,3.75-.01,4.13-1.5,48.48-1.88,95.01.22,143.5.02.38.03,1.75.05,4.12.01,2.38-.05,4.9-.19,7.57-.14,2.67-.47,5.06-1,7.18-.53,2.11-1.34,3.18-2.45,3.18-2.04,0-3.2.75-3.47,2.3-.32.77-.37,1.45-.15,2.03,15.18.11,30.19-.63,45.1-2,.14-.58.02-1.24-.39-1.96-.82-1.45-2.04-2.1-3.68-1.96-1.09.09-2.02-.93-2.78-3.06-.76-2.13-1.39-4.5-1.9-7.11-.51-2.61-.86-5.04-1.06-7.29-.21-2.25-.31-3.55-.33-3.93-.69-14.25-1.25-28.36-1.72-42.42,2.52.59,5.49,2.7,8.95,6.32,3.45,3.61,7.1,8.14,10.97,13.6,3.86,5.46,7.92,11.39,12.18,17.79,4.26,6.4,8.41,12.71,12.46,18.94,4.04,6.23,7.9,12.02,11.57,17.36,3.67,5.34,7,9.5,9.99,12.47,3.6,3.83,7.45,6.41,11.56,7.75,4.11,1.33,8.09,1.92,11.94,1.75Z"/>
    <path class="cls-1" d="M707.92,964.54c0,1.12.91,2.06,2,2.06,1.09,0,2-.94,2-2.06,0-1.22-.91-2.06-2-2.06-1.09,0-2,.84-2,2.06Z"/>
    <path class="cls-1" d="M743.28,966.57c1.09,0,2-.94,2-2.06,0-1.22-.91-2.06-2-2.06-1.09,0-2,.84-2,2.06,0,1.12.91,2.06,2,2.06Z"/>
    <g>
      <path class="cls-1" d="M534.15,974.62c1.27-.56,2.09-.66,2.73-.66.45,0,.73.09.73.09,0,0-.45-.66-1.73-.65-.36,0-.82.09-1.45.28-.73.19-1.18.28-1.64.28-1,0-1.45-.47-2.73-.93-1-.28-2.27-.94-3.91-.93-1.18,0-2.63.38-4.36,1.41-3.27,2.06-7.36,6.28-7.81,6.28,0-.37,5.99-7.31,5.99-8.62v-.09c-.73-1.87-3.55-3.56-5.27-3.55-.36,0-.73.09-1,.28-2.54,1.59-4.9,6-7.35,9.56-.59.87-1.34,2-2.12,3.25-2.49,1.31-20.24,10.63-21.5,10.63-.45-.09-.91-.28-.91-1.03,0-1.12,1.27-3.47,5.81-8.9,0,0,8.63-.38,10.18-4.79.09-.37.18-.66.18-1.03,0-1.78-1.73-3.28-4.36-3.27-3.09,0-7.54,2.07-12.17,7.88-3.63,4.59-4.9,7.96-4.9,10.21,0,2.53,1.73,3.65,3.55,3.65.55,0,1.09-.09,1.64-.28,2.97-1.2,16.42-8.82,21.77-11.87-1.84,3.08-3.6,6.56-3.6,8.48,0,.37.09.65.18.84.55,1.22,1.82,1.78,3.09,1.78,1.18,0,2.36-.38,3.27-1.03,1.91-1.41,12.98-15.46,17.62-17.15,1.18-.47,2.27-.56,3.18-.57,2.27,0,4,.75,5.54.74.45,0,.91-.09,1.36-.28ZM493.98,975.12c.18-.09.36-.09.45-.09.55,0,.82.37.82.84,0,1.03-1.54,2.81-6,2.91,0,0,2.45-3,4.72-3.66Z"/>
      <path class="cls-1" d="M704.92,961.64c2.91-3.19,10.26-12.28,11.62-13.03,1.45-.84,2.27-1.13,2.27-1.13,0,0-4.28-4.68-8.19-4.68h-.18c-4,.1-6.17,5.53-9.63,9.56-3.45,4.12-9.08,12.74-11.17,15.46-2,2.81-5.45,10.21-5.45,10.21l-1.18,1.87c-.91-1.31-2.91-3.37-6.18-3.37-1.27,0-2.73.28-4.45,1.13-2.52,1.17-4.48,2.88-5.9,4.69-1.05.64-2.38,1.47-4,2.53-3.91,2.63-6.45,3.75-7.54,3.75-.18,0-.36-.09-.45-.19v-.09c0-.84,6.54-9.18,6.53-12.27,0-.19,0-.37-.09-.56-.64-1.22-1.64-1.97-3.09-1.96-1.64,0-3.73.85-6.45,2.81-5.18,3.84-9.99,7.59-9.99,7.59,0,0,7.08-8.25,7.08-10.31v-.19c-.36-.84-2-1.31-3.73-1.31-1.73,0-3.54.47-4.27,1.78,0,0-5.94,8.56-8.25,13.71-4.66,4.41-10.64,9.71-17.63,14.04,2.27-6.28,15.16-24.55,15.16-24.64v-.66c0-2.25-1.18-4.03-2.82-4.02-1,0-2.09.66-3.09,2.25,0,0-.64.94-1.63,2.34-1.54,1.22-3.27,2.63-5.09,4.03-.82-2.53-2.28-5.62-4.37-7.02l-.09-.09c-.91-.56-2-.93-3.36-.93-.82,0-1.64.09-2.64.38-3.44,1.03-6.3,4.53-8.19,8.16-3.72,2.27-10.87,6.47-12.8,6.47-.18,0-.27,0-.36-.09-.27-.19-.36-.56-.36-1.03,0-1.69,1-4.68.99-6.93,0-1.4-.37-2.53-1.55-2.81-.82-.28-1.73-.37-2.64-.37-2.82,0-6.09,1.41-11.08,4.97-6.27,4.31-16.08,9.1-17.72,9.1h-.18v-.09c0-1.22,16.8-21.93,18.16-23.62,2.81-3.09,5.63-6.56,10.62-12.28,3.81-4.31,5.36-4.69,6.36-4.69h.73c.36.09.73.09,1.09.09,1.18,0,2.09-.56,2.36-3,0-.28.09-.66.09-.94,0-2.62-1.19-5.43-3.28-5.43-.36,0-.82.09-1.18.28-3.18,1.31-10.08,6.75-15.53,14.15-3.47,4.71-13.12,17.14-19.95,26.29-3.61,2.52-11.6,7.92-13.83,7.92-.09,0-.18-.09-.27-.09-.27-.09-.46-.37-.46-.75,0-2.25,4.99-8.53,7.17-9.75.73-.37,1.18-.56,1.54-.56h.27c.09.28.18.47.18.75,0,.84-.73,1.69-1.63,2.06,0,0,.55.19,1.27.19.91,0,2.09-.28,2.45-1.78.18-.56.18-1.12.18-1.59,0-2.43-1.64-3.84-4-3.84-3,0-7.18,2.16-10.72,7.13-1.54,2.25-2.27,4.12-2.27,5.71,0,2.9,2.19,4.59,4.91,4.58h.27c2.69-.12,8.96-4.49,13.22-7.7-3.05,4.13-5.25,7.27-5.59,8.16-.18.56-.27,1.03-.27,1.5,0,2.15,1.64,3.93,3.28,3.93.18,0,.36-.09.55-.09,2.36-.56,24.25-14.63,26.71-16.22.45-.28.91-.47,1.27-.47,1,0,1.36,1.31,1.37,3.65,0,.75,0,1.59-.09,2.53-.09.66-.09,1.31-.09,1.87,0,2.72.64,4.03,2.64,4.03.64,0,1.36-.09,2.18-.38,2.91-.83,10.53-5.97,15.25-9.37-1.09,2.48-1.7,4.87-1.7,6.45v.19c0,3.84,2.73,5.15,4.64,5.15h.55c2-.38,9.27-6.1,13.81-9.94l2.18-1.78c.09.28.18.56.27.94-5.17,7.87-11.71,18.55-11.71,22.77,0,.66.18,1.22.55,1.5.36.19.73.28,1.18.28,4.64,0,15.71-9.99,23.8-17.98,0,.02,0,.05,0,.07,0,.28.09.56.27.66,1.64,1.22,3.36,1.31,3.91,1.31h.27s14.62-13.5,16.35-14.16h.18s.09,0,.09.09c0,.94-4.18,6.93-4.17,10.68,0,.84.18,1.5.64,2.06.36.37.82.47,1.45.47,3.36,0,10.38-4.38,14.93-7.56-.85,1.51-1.3,2.99-1.3,4.18,0,1.5.73,2.53,2.27,2.53,4.09,0,11.09-3.38,12.99-4.32-2.27,4.12-5.63,9.84-7.35,11.9-2.72,3.19-2.9,10.12-4.26,11.62-.18.19-.36.47-.36.66,0,.47.55.94,1.27.94,1.18,0,3-.94,4.72-4.03,3.45-5.9,22.6-35.33,26.05-38.61,3.45-3.28,2.72-4.22,5.63-7.4ZM605.42,989.73h-.09c-.18-.09-.27-.28-.27-.66,0-1.5,1.63-5.06,4.36-8.15,1.45-1.59,2.82-2.06,4-2.06.36,0,.73,0,1,.09.73.37,1.55,1.03,2.18,2.53-5.09,4.12-10.35,8.25-11.17,8.25ZM619.14,981.48c-.36.66-.82,1.31-1.27,1.97-.09-.19-.09-.47-.18-.75l1.45-1.22Z"/>
      <path class="cls-1" d="M858.64,998.22c-.91-.28-2-.28-3.09-.28-1.82,0-3.55.19-3.55.19l-47.8,1.07c6.45-8.06,12.8-16.4,14.25-19.4.73-1.41,1-2.62,1-3.84,0-3.93-3.1-6.65-4.46-7.58-.73-.47-1.45-.65-2.09-.65-1,0-1.82.47-2.09.66-.36.28-2.09,1.69-4.54,2.91-1.09.56-5.45,4.13-9.99,7.69-.82-2.53-2.28-5.62-4.37-7.02l-.09-.09c-.91-.56-2-.93-3.36-.93-.82,0-1.64.09-2.64.38-4.41,1.3-7.81,6.53-9.48,11.05-1.03.63-2.32,1.44-3.87,2.45-3.91,2.63-6.45,3.75-7.54,3.75-.18,0-.36-.09-.45-.19v-.09c0-.84,6.54-9.18,6.53-12.27,0-.19,0-.37-.09-.56-.64-1.22-1.64-1.97-3.09-1.96-1.64,0-3.73.85-6.45,2.81-5.18,3.84-9.99,7.59-9.99,7.59,0,0,7.08-8.25,7.08-10.31v-.19c-.37-.84-2-1.31-3.73-1.31-1.73,0-3.55.47-4.27,1.78,0,0-2.23,3.21-4.48,6.88l-.24.06s-17.17,12.19-18.44,12.66q-.09,0-.09-.09c0-1.03,11.98-16.03,12.89-17.06,1-1.12,1.73-1.78,1.73-1.78,0,0-1.37-3.75-4.09-3.74-.55,0-1.18.19-1.82.56,0,0-3.68,4.5-7.56,9.85l-9.33,3.84c-1.09-2.25-3.64-2.24-3.64-5.43v-.19c0-1.87.82-2.44,1.81-2.44,1.27,0,2.91,1.12,2.91,1.12,1.36-.84,2.45-3.37,2.45-5.43,0-1.41-.55-2.62-1.73-2.81h-.64c-3.09,0-8.54,2.54-9.45,7.22-.09.37-.09.75-.09,1.12,0,1.14.37,2.23.9,3.21-3.43,2.43-16.51,11.67-17.61,12.07q-.09,0-.09-.09c0-1.03,11.98-16.03,12.89-17.06,1-1.12,1.73-1.78,1.73-1.78,0,0-1.37-3.75-4.09-3.74-.54,0-1.18.19-1.82.56,0,0-16.43,20.06-16.43,25.86,0,.47.09.84.36,1.12.27.28.64.37,1.09.37,4.73,0,19.37-12.42,24.32-16.73,1.59,2.48,4.12,4.15,4.12,4.15,0,0-2.64.47-7,3.56-2.36,1.69-3.36,3.28-3.36,4.31,0,.75.64,1.22,1.55,1.22h.45c2.64-.38,11.18-1.13,11.81-7.03v-.75c0-.66-.09-1.22-.18-1.59l8.4-3.77c-4.11,5.74-8.21,12.2-8.21,15.1,0,.47.09.84.37,1.12s.64.37,1.09.37c4.71,0,19.22-12.29,24.24-16.66-2.04,3.41-3.89,6.94-3.89,8.5,0,.28.09.56.27.66,1.64,1.22,3.36,1.31,3.91,1.31h.27s14.62-13.5,16.35-14.16h.18s.09,0,.09.09c0,.94-4.17,6.93-4.17,10.68,0,.84.18,1.5.64,2.06.36.37.82.47,1.46.47,3.53,0,11.12-4.84,15.62-8.04-.46,1.5-.71,2.87-.71,3.91v.19c0,3.75,2.64,5.06,4.64,5.05h.55c2-.38,9.26-6.1,13.81-9.94l2.18-1.78c.18.66.36,1.31.55,2.15l.45-.19s-.18-.94-.55-2.34c4-3.28,8.45-6.84,10.9-8.25,1.63-.94,2.82-1.31,3.63-1.31.55,0,.91.19,1.09.56v.09c0,1.03-5.81,7.87-13.98,19.68-1.72,2.44-3.72,5.25-5.9,8.06l-2.54.1h-1.36c-3.45,0-10.45.29-22.99,1.43-19.72,1.89-32.9,2.46-51.62,10.53-18.62,8.07-28.88,22.13-28.87,34.58.01,12.36,7.02,20.13,16.38,21.81,1.36.28,2.91.37,4.45.37,8.73,0,18.81-3.67,20.99-4.51,2.54-.94,13.17-6.57,20.17-10.13,6.9-3.56,17.71-12.56,18.35-13.03.63-.56,2-1.88,2.91-2.25s2.82-2.25,5.18-4.03c2.36-1.78,6.08-6.56,7.08-7.87,1-1.31,2.09-1.97,2.91-2.53.82-.66,2.91-3.28,6.27-7.12,1.54-1.78,7.26-8.72,13.17-16.12,10.63-.2,24.54-.4,29.27-.59h1.36c6.82,0,8.09,1.4,10,2.14,1.27.56,5.36,1.12,9.09,1.12,2.27,0,4.45-.29,5.63-.85,1.55-.75,2.18-1.59,2.18-2.44,0-.75-.73-1.5-1.91-1.87ZM784.56,987.7h-.09c-.18-.09-.36-.37-.37-.75,0-1.5,1.72-4.96,4.45-8.06,1.36-1.5,2.72-2.06,3.81-2.06.36,0,.73.09,1.09.19.73.28,1.55.94,2.27,2.43-5.18,4.22-10.35,8.25-11.17,8.25ZM767.96,1029.3c-7.26,8.06-33.88,28.22-45.14,33.38-4.81,2.25-9.45,3.1-13.72,3.1-5.55,0-10.36-1.58-13.54-4.02-3.37-2.62-5.01-8.24-5.01-14.04,0-3.75.63-7.49,1.9-10.49,3.36-7.78,14.71-21.08,35.97-28.22,19.63-6.57,55.98-7.91,61.43-8.11h1.73c-8.17,10.59-18.07,22.3-23.61,28.4Z"/>
      <path class="cls-1" d="M458.1,1033.74l-.15.02c-.15.01-.72-.12-1.32-.79-.77-.86-1.96-3.08-1.22-8.38,1.32-9.35,12.52-37.28,27.08-59.77,13.8-21.47,16.9-24.06,16.96-24.12l.24-.2c.69-.73,1.24-2.38-.07-3.9-1.16-1.34-3.41-2.44-3.57-2.51-.17-.1-.65-.32-1.27-.15-.36.1-.87.36-1.27,1.07l-.1.22c-.28.71-3.94,6.9-9.09,14.29-4.78,7.15-25.96,35.36-30.5,40.1-.48.51-1.1,1.17-1.83,1.96-5.06,5.45-20.44,22.01-26.11,19.21-2.58-1.28-3.64-7.32-2.92-16.58.66-8.43,2.64-17.72,4.31-23.18,1.43-4.69,2.71-7.65,3.56-9.61,1.19-2.74,1.9-4.4.29-5.95-1.55-1.67-2-2.03-2.22-2.16-.29-.18-.97-.51-1.81-.29-.51.13-1.21.52-1.71,1.58-.79,1.43-1.34,4.3-1.48,5.1-.56,1.2-4.15,8.93-7.18,15.84-4,8.93-28.52,58.14-38.16,68.58-9.16,9.93-11.79,9.63-12.78,9.52h-.1c-.76-.2-1.37.16-1.64.63-.65,1.11.42,2.04,1.16,2.69l.23.22c.71.71,2,1.99,4.17,1.99.12,0,.25,0,.38-.01,3.49-.24,7.83-3.8,13.27-10.89,8.97-11.7,26.26-43.48,33.36-56.75-.33,6.37,0,15.6,4.06,19.97,2.14,2.27,5.13,4.88,9.34,4.89h.02c5.27,0,11.36-3.94,19.76-12.78,3.67-3.84,6.54-6.93,8.77-9.41-5.17,11.15-11.74,28.11-8.73,37,.11.27,2.72,6.52,11.18,8.45l.3.03c.47,0,1.11-.22,1.53-.81.48-.68.51-1.61.09-2.76-.99-2.74-3.71-2.48-4.88-2.36Z"/>
    </g>
  </g>
</svg>