<?xml version="1.0" encoding="UTF-8"?>
<svg id="Layer_1" data-name="Layer 1" xmlns="http://www.w3.org/2000/svg" version="1.1" viewBox="0 0 576 227">
  <defs>
    <style>
      .cls-1 {
        fill: #fef7e5;
        stroke-width: 0px;
      }
    </style>
  </defs>
  <g id="afIkmm.tif">
    <g>
      <path class="cls-1" d="M5.2,169.9c.6-.2,1.1-.4,1.7-.6.3.3.6.6.9.9,10-17.9,19.9-35.9,29.6-53.3-.7-2-1.2-3.6-1.7-5.2.3-.1.6-.2,1-.3.6,1,1.1,1.9,1.5,2.6,15-22.6,30-45.1,45-67.7.2,0,.4,0,.6,0,1.6,1.1,1,2.1.2,3.5-12.2,20.2-22.6,41.1-29.3,63.8-.1.4-.2.9-.4,1.7,1.5-.6,2.6-1.2,3.9-1.5.4,0,1.1.7,1.6,1.1h0c-1.9,1.1-3.8,2.2-5.5,3.5-.7.5-1.4,1.5-1.6,2.3-2.3,10.4-4.5,20.8-6.8,31.2,0,.4,0,.8-.3,1.1-.5.6-1.1,1.2-1.7,1.8-.3-.8-.9-1.6-.8-2.3.6-3.9,1.3-7.8,2.2-11.6,1.5-6.9,3.1-13.8,4.6-20.5-3.4-.7-6.8-1.3-10.7-2-2.1,3.6-4.3,7.7-6.7,11.7-7.1,12.2-14.2,24.4-21.4,36.6-.8,1.3-1.8,2.7-3,3.6-.7.5-2,.3-3.1.4,0-.2,0-.4,0-.6ZM67.6,73.7c-.2,0-.3-.2-.5-.3-8.8,14-17.5,28-26.7,42.7,3,.5,5.5,1,8,1.3,1.7.2,2.6-.8,3.2-2.6,2.7-8.3,5.5-16.5,8.6-24.6,2.1-5.6,4.9-11,7.4-16.5Z"/>
      <path class="cls-1" d="M230.9,126.6c-2.9,6.5-8.4,11.7-9.7,19.4,4.6,0,8.4-1.5,12-3.5.4-.2.5-1.2.7-1.8,1.5-4.8,3-9.7,4.5-14.5.3,0,.6.2.9.3-.7,2.5-1.5,5-2.2,7.6,6.2-14.1,12.5-28.1,16.5-43.5-1.4.5-2.4.8-3.4,1.1-.1-.2-.2-.4-.3-.6.6-.6,1.2-1.3,1.9-1.8,7.4-4.5,15.1-8,24-8,9.3,0,13.5,4.6,10.5,13.4-1.7,5.1-4.4,10.2-7.8,14.4-12.9,16.3-28.8,29.1-47.7,38-2.6,1.2-5.6,1.8-8.5,2.2-2.8.5-4.2-1-4-3.8,0-1.3.4-2.6.9-3.7,2.7-6,6.4-11.1,11.7-15.1ZM238.1,140c.2-.1.7-.4,1.2-.6,9-5.4,17.3-11.6,24.9-18.7,6.7-6.3,13.3-12.8,17.8-21,1.9-3.5,3.2-7.2,2.9-11.3-.2-2.3-1.2-3.8-3.4-4.4-1.4-.4-2.9-.7-4.3-.7-6.8-.3-13.1,1.5-19.1,4.6-1.9,1-3.4,1.8-3.4,4.4,0,1.9-.7,3.8-1.4,5.6-5,14.1-10.1,28.1-15.2,42.2Z"/>
      <path class="cls-1" d="M407.2,125.4c-3.7.4-7.2.7-10.8,1.1,0-.4,0-.7,0-1.1,6.3-1.7,12.6-3,19.3-1.6-1.8.5-3.7,1-5.5,1.5.2.1.4.2.7.3-1.6,3.2-2.9,6.7-4.8,9.7-6.4,9.7-10.2,20.5-13.5,31.4-.4,1.4.1,3-.1,4.5-.2,1.1-.9,2-1.4,3.2-2.5-1.6-2.4-3.8-1.8-5.6,2.6-7.8,5.5-15.5,8.2-23.3.1-.3.3-.6.6-1.4-1.8,1.2-3.2,2.2-4.8,3-5.6,2.9-11.5-.3-12.2-6.5-.6-6,.5-11.7,2.3-17.3,3.9-12,8.4-23.7,15.3-34.3,3.5-5.5,8.2-9.9,13.5-13.6.8-.6,1.7-1.1,2.7-1.4,1-.2,2.4-.4,3,0,.7.5.7,1.9,1,2.9-.2,0-.5.1-.7.2-.3-.7-.5-1.4-1-2.6-1.9,1.2-3.8,2.1-5.4,3.3-5.4,4.1-9.8,9.2-13,15.2-6.3,12-11.8,24.3-14.6,37.5-.7,3.2-.7,6.6-.5,9.9.3,4.2,4.4,6.4,8.1,4.4,4.5-2.4,8.4-5.6,10.8-10.3,1.5-3,3.1-6,4.7-9.1Z"/>
      <path class="cls-1" d="M58.3,160.2c.4-5.9,2.8-9.8,5.6-13.5.8-1,1-2.5,1.5-3.8,1.6-5,2.7-10.3,5-15,2.5-5,6.1-9.6,9.5-14.1,1.3-1.7,3.3-3.4,5.2-3.9,2.2-.6,4.8.1,7.1.5,0,0,.2,2-.1,2.8-4.3,9.2-8.6,18.4-12.9,27.6-2.5,5.2-4.8,10.5-7.6,15.6-1.4,2.5-3.4,4.8-5.7,6.6-1.3,1-3.8,1.5-5.2.9-1.4-.6-2-2.9-2.4-3.7ZM89.6,111.8c-7-.7-21.6,20.7-21,30.8,8.3-9.6,13.5-20.9,21-30.8ZM61.1,161.4c5.8-.9,17.3-19.9,18-28.2-2.1,2.9-4.2,6-6.5,8.8-1.1,1.4-2.6,3-4.2,3.4-1.9.4-2.6,1.3-3.2,2.8-.7,1.6-1.8,3.1-2.2,4.7-.8,2.6-1.2,5.4-1.9,8.5Z"/>
      <path class="cls-1" d="M211.1,136.6c-1.7-2.4.8-4.4,1.1-7-2,2.3-3.8,4.4-5.7,6.4-1.3,1.4-2.8,2.8-4.4,3.7-1.1.6-2.9,1-3.8.5-.8-.4-.7-2.3-1-3.5,0-.3,0-.7,0-1.5-1.1,1.9-1.9,3.5-2.9,4.8-.5.6-1.7,1.1-2.3.9-.6-.2-1.2-1.3-1.3-2.1-.1-1.3.1-2.7.2-3.5-.9.7-1.9,1.8-3.1,2.5-.8.4-2.2.6-3,.2-.7-.3-1.3-1.8-1.1-2.5,1.3-4.1,2.5-8.2,4.5-12,1.3-2.6,5.4-2.9,7.5-1,.5.5.5,1.8.3,2.7-.9,4.1-1.8,8.2-2.8,12.3.3.1.6.2.9.4,1.8-3.4,4-6.7,5.3-10.4,3.9-10.9,9-21.1,15.2-30.8.6-1,1.6-1.7,2.9-2.2-7.4,13.9-15.1,27.5-17.8,43.2l.7.5c1.9-1.8,3.8-3.6,5.6-5.5,2.3-2.5,4.3-5.3,6.6-7.8.8-.8,2.1-1.1,3.2-1.6.1,1.2.6,2.4.3,3.4-1.1,3.4-2.6,6.8-3.9,10.2l-1.1-.2ZM186.9,134.9c.2,0,.5.2.7.3,1.9-3.5,3.9-7.1,6-11-3.7.4-6.3,5.1-6.7,10.8Z"/>
      <path class="cls-1" d="M498.6,131.1q-7-1.5-8.2,1.7c0-1.2-.4-2.6.1-3.6.3-.7,1.8-.9,2.8-1.2.5-.2,1.1,0,1.7,0,4.7.4,4.8.4,6.2-4.1,2.6-8.3,5.1-16.6,7.2-25.1-14.5,15.1-22.4,33.2-25.5,53.7-.2,0-.5,0-.7,0,0-1.3-.4-2.7-.2-3.9,3.1-19.4,10.5-36.8,23.8-51.5.9-1,2.6-1.3,3.9-1.9.4,1.6,1.5,3.3,1.1,4.7-2.4,8.8-5.1,17.4-7.7,26.1-.3.9-.7,1.9-1,2.8,1.5.4,2.8.7,4.8,1.3-1.2.6-1.8,1.1-2.3,1-3.2-.4-4.2,1.6-5.1,4.1-1.4,4-3.1,7.8-4.8,11.7-.3.8-1.3,1.3-1.9,2-.1-.9-.6-2-.3-2.8,1.9-4.9,3.9-9.8,6-15Z"/>
      <path class="cls-1" d="M295.9,129.2c-2.4,3.2-4.8,6.4-7.3,9.7-.4.6-.8,1.3-1.4,1.7-1.1.8-2.3,1.4-3.5,2,0-1.3-.4-2.7,0-3.8,1.5-4.7,3.1-9.4,5-14,.6-1.6,2-2.9,3.4-4-2,5.4-3.9,10.8-5.9,16.2.2,0,.3.1.5.2,2.7-3.5,5.5-7.1,8.2-10.6.8-1.1,1.7-2.2,2.7-3.1.7-.6,1.7-.8,2.6-1.2.1,1,.5,2.1.3,3-.8,2.6-1.8,5.2-2.8,7.8-.3.8-.5,1.5-.4,2.5,2.4-2.6,4.7-5.2,7.1-7.8.9-1,1.8-2.1,2.9-2.9.9-.6,2.1-.9,3.1-1.3.2,1.2.7,2.5.4,3.5-.9,2.9-2.2,5.6-3.3,8.4-.4,1.1-.9,2.1-1.3,3.2.2.2.4.3.6.5.9-1.2,1.8-2.5,2.7-3.7.3.2.6.5.8.7-1.5,1.9-2.8,4-4.4,5.8-.4.5-1.9.7-2.4.4-.5-.4-.9-1.7-.7-2.4.6-2.1,1.5-4.1,2.3-6.1.7-1.6,1.4-3.2,2.4-5.4-.8.6-1.1.7-1.4,1-2.7,3-5.4,6.1-8.2,8.9-.8.7-2.2.7-3.4,1.1-.2-1.2-.8-2.4-.6-3.5.5-2.3,1.4-4.5,2.1-6.7-.1,0-.2-.1-.3-.2Z"/>
      <path class="cls-1" d="M536.3,113.7c8.9-1.3,17.7-2.6,26.5-3.9.1.3.2.6.4.9-1.1.6-2.2,1.4-3.3,1.6-5.4,1.1-10.8,2.4-16.3,2.8-6.4.5-10.2,3.1-12,9.5-2,6.9-5,13.6-7.6,20.3-.3.7-1.1,1.1-1.7,1.7-.2-.8-.8-1.7-.6-2.4,2.3-6.2,4.7-12.3,7.2-18.4,1.1-2.7,2.3-5.4,3.6-8.5-4.9,1-9.4,1.9-13.9,2.8,0-.2-.2-.4-.3-.6.7-.5,1.4-1.2,2.2-1.4,3.5-1,7.1-2,10.6-2.8,1.7-.4,2.8-1.2,3.5-3,1.4-3.6,3.1-7,4.7-10.5.2-.4.5-.6.8-.9l.7.3c-1.5,4.1-3,8.2-4.5,12.4Z"/>
      <path class="cls-1" d="M131.9,119.4c-2.9-1.7-6.8-1.3-7.6-5.5,2.8,1.1,5.4,2.2,8.5,3.5,5.4-16.1,10.7-31.8,16-47.4.4.1.8.2,1.3.4-1.1,3.8-2,7.7-3.2,11.5-1.2,3.9-2.5,7.9-3.8,11.8-1.3,3.9-2.6,7.8-3.9,11.7-1.3,3.9-2.6,7.8-4.3,12.6,4-.9,7.4-1.7,10.8-2.4,0,.2.2.5.3.7-3.7,1.4-7.5,2.8-12,4.4-1.7,4.7-3.6,10.5-5.7,16.1-.3.9-1.2,1.5-1.9,2.2-.1-1-.6-2.2-.3-3.1,1.9-5.6,3.9-11.1,5.9-16.6Z"/>
      <path class="cls-1" d="M149.4,135.5c-4.4-.2-5.4-1.2-5.4-5,0-6.1.3-12.1,6.8-15.8-.3.8-.5,1.4-.8,1.8-3,4.3-3.3,9.2-3.3,14.2,0,1.7.5,2.3,2.3,1.9.9-.2,2.1.1,3.1.2-.1,1.1,0,2.3-.5,3.3-.8,1.8-1.9,3.6-2.9,5.3-3.4,6.3-6.7,12.6-10.2,18.8-.8,1.5-1.8,3-3,4.3-.7.7-2,.7-3,1.1,0-1.1-.4-2.3,0-3.2,1.1-2.2,2.6-4.2,3.9-6.3,4.2-6.8,8.4-13.6,12.8-20.7Z"/>
      <path class="cls-1" d="M476.1,99.8c-4.8,10.9-9.6,21.8-14.4,32.5,4.2-1.1,12-9.6,14-15.2.3,0,.5,0,.8.1-.4,1.4-.4,3.1-1.1,4.3-3.3,5.7-7.4,10.5-13.7,13.9,4.4,3.2,6.1,10.1,13.7,8.3-1.4,2-3.7,2.9-5.8,1.9-1.9-.9-3.7-2.3-5.3-3.8-1.7-1.5-3.1-3.4-4.8-5.4-1.5,2.6-2.7,4.9-4.2,7-.4.7-1.5.9-2.2,1.4.2-.8.2-1.7.6-2.4.9-1.7,2-3.3,2.9-5,.4-.8.4-1.8.6-2.7.1-.5.3-1,.5-1.4,1.1-1.4,2.5-2.6,3.2-4.1,4.4-9.1,8.7-18.2,13-27.3.4-.9.9-1.7,1.3-2.6.3.1.7.3,1,.4Z"/>
      <path class="cls-1" d="M277.7,130.5c-2.6,1.9-4.7,3.5-6.9,4.9-1.3.9-2.6,1.9-4,2.3-1.4.4-3.4.7-4.3,0-.8-.7-1-3-.5-4.2,3.3-7.4,8.5-13.1,16.7-15.1,2.5-.6,3.3,0,3.1,2.3-5.5-1.1-15.8,7-17.5,15.5,2-1.1,3.6-2,5.1-3,3.1-2.2,6-4.5,9.1-6.6.7-.5,1.8-.3,2.7-.5,0,.9.5,1.9.2,2.8-.4,1.4-1.2,2.7-1.7,4-.1.4.4,1,.3,1.4-.2.6-.5,1.4-1,1.7-.7.4-1.6.6-2.4.6-.2,0-.7-1.1-.6-1.6.3-1.4.9-2.7,1.6-4.5Z"/>
      <path class="cls-1" d="M59.9,114.8c.7-1,1.5-2,2.2-2.9,1.1-1.3,2.3-2.1,3.5-1.2-1.4,2.2-3,4.1-3.9,6.3-2.8,6.7-3.9,13.8-3.8,22,1.2-1.6,2.2-2.5,2.7-3.5,3-6.1,5.9-12.2,8.9-18.2.4-.8.9-1.7,1.6-2.2.5-.3,1.5-.4,2,0,.4.3.7,1.4.5,1.8-4,7.4-8,14.8-12.2,22.1-.6,1.1-2.5,1.3-3.8,2-.6-1.3-1.6-2.7-1.6-4-.1-6.8,1.2-13.3,3.5-19.7.3-.8.4-1.7.6-2.6,0,0,0,0,0,0Z"/>
      <path class="cls-1" d="M170.9,133.1c-1.1,1.5-2.1,3.2-3.5,4.5-.6.6-1.9.6-2.9.9-.2-1-.7-2.1-.5-2.9.8-2.5,1.9-4.9,2.5-7.5-2.6,3.2-5.1,6.3-7.7,9.5-.9,1.1-1.8,2.2-2.8,3-.5.4-1.4.3-2.2.5-.1-.7-.5-1.4-.3-2,1.8-5.2,3.6-10.4,5.7-15.5.4-1.1,1.8-1.8,3.1-2.4-1.7,4.5-3.4,9.1-5.1,13.6.2.1.4.2.7.4,2.4-3,4.7-5.9,7.1-8.9,1.2-1.4,2.3-2.8,3.7-4.1.5-.5,1.6-.8,2.1-.5.5.3.8,1.5.6,2.1-.9,2.8-1.9,5.5-3,8.3-.3.9-.7,1.8-.8,3.1l2.9-2.4c.1.1.3.3.4.4Z"/>
      <path class="cls-1" d="M110.8,112.9c-.5,1.6-.7,3.4-1.5,4.9-3.1,6.2-6.2,12.5-9.6,18.6-1,1.9-2.3,4.5-5.2,3.6-2.9-.9-2.2-3.7-1.7-5.7,1.4-6.3,3.1-12.6,5-18.8.3-1.1,1.7-1.9,2.9-2.6-3.3,8-5.6,16.1-5.2,25,.7-.9,1.6-1.8,2.2-2.8,3.1-5.9,6-11.9,9.1-17.9.9-1.7,1.9-3.3,2.9-5,.4.2.7.4,1.1.6Z"/>
      <path class="cls-1" d="M336.1,129.1c-1-.9-1.9-2.2-2.9-2.2-.9,0-2.4,1-2.8,1.9-1.8,3.7-3.4,7.6-5,11.4.3.2.6.3.9.5,1.5-2.2,2.9-4.4,4.4-6.7.4-.6.7-1.4,1.2-1.8.7-.7,1.6-1.1,2.4-1.6.3,1,.8,2,.7,2.9-.3,2.5-.8,5-1.9,8-.7-.9-1.3-1.9-2-2.9-.9,1.2-1.9,2.8-3.3,4.1-.8.7-2.5,1.4-3.3,1-.8-.3-1.6-2.1-1.5-3.1.7-5.6,2.9-10.8,6.3-15.3,1.5-2,3.6-2,5.7-.9,2.2,1.2,2.1,3,1.2,4.7Z"/>
      <path class="cls-1" d="M423.8,117.8c-5.4,7.4-9.4,14.9-9.7,24,.3.2.6.5.8.7,1.2-.9,2.8-1.6,3.6-2.9,3.8-5.6,7.4-11.3,11.1-17,.7-1,1.3-2.1,2-3.1.3,0,.7.2,1,.3-.2,1.2,0,2.6-.6,3.6-3.7,6-7.5,12-11.6,17.7-1.5,2.1-3.9,4.3-6.8,2.8-2.8-1.5-1.5-4.4-1-6.7,1.3-6.2,4.1-11.8,7.8-16.8.8-1.1,2.2-1.7,3.3-2.6Z"/>
      <path class="cls-1" d="M123,107.8c-3.1,2.1-6,4.1-8.9,6.2,2.3,1.8,4.5,3.1,6.2,4.8,3.8,3.8,3.8,8.6.3,12.5-2.7,3-5.9,5.3-9.9,6.2-.7.2-1.6-.4-2.3-.7.4-.7.6-1.8,1.2-2.1,2-1.1,4.3-1.7,6.1-3,7.2-5,6.9-9.7-.7-14.2-.9-.5-1.9-.9-2.5-1.7-.5-.6-.8-1.7-.6-2.4.9-2.5,7.5-6.3,10.3-6.2.2,0,.4.3.9.6Z"/>
      <path class="cls-1" d="M436.6,122.3c2.1-2.5,6.2-3.4,8.7-2,1.9,1.1,2.9,3.5,1.5,5.4-2,2.8-4.2,5.6-6.7,7.9-2.8,2.6-6.1,4.6-9.3,7,3.6,1.8,7.3,1.3,11.1.1.1.3.2.7.4,1-1.7.7-3.4,2.1-5,2.1-3.2-.1-6.3-1-9.4-1.6-.5-.1-1.2-1.1-1.1-1.3.3-.6.9-1.2,1.6-1.7,4.3-3,8.6-5.9,12.8-9,1.6-1.2,2.7-3,3.8-4.7,1.5-2.5.5-4.1-2.4-4-1.9,0-3.8.5-5.7.8Z"/>
      <path class="cls-1" d="M351.7,136.1c-1.7,1.9-3.3,3.9-5.3,5.5-.9.7-2.7,1.2-3.7.8-.8-.3-1.5-2.1-1.3-3.2.3-2.9,1-5.7,1.8-8.5.3-.9,1.3-1.6,2-2.4.3.1.6.2.8.3-.8,3.7-1.6,7.5-2.4,11.2l.9.6c2.1-2.1,4.1-4.3,6.2-6.3,1.2-1.1,2.7-1.9,4-2.9,0,1.7.2,3.4.2,5.1,0,.7-.4,1.4-.5,2.1-.6,3.7-.4,3.9,3.1,4v.8c-1.5.1-3.1.7-4.5.3-1.7-.5-1.8-2.8-1.4-7.5Z"/>
      <path class="cls-1" d="M525.8,126.1c-.8.2-1.2.5-1.7.5-7.9,0-10.8,5.8-13.5,11.8-1,2.2-1.6,4.5-3.1,6.8-.1-.9-.6-1.9-.4-2.7,1.2-5.5,3.5-10.4,7-14.8,2.7-3.4,6.2-3.9,11.7-1.6Z"/>
      <path class="cls-1" d="M462,115.9c0,2.7-5.4,7.3-8,6.6-1.7-.5-1.7-1.7-1.2-3,.5-1.3.9-2.6,1.3-3.9.5-2,2.8-3.6,4.8-3.3,1.8.2,3.1,1.7,3.1,3.6ZM454.8,120c1.4-.9,2.6-1.6,3.6-2.4.6-.5.8-1.5,1.2-2.2-.5-.2-1.2-.8-1.6-.7-.9.4-2,.9-2.5,1.7-.5.8-.4,2-.7,3.7Z"/>
      <path class="cls-1" d="M454.3,123.9c-.5,1.3-.8,2.7-1.4,4-1.7,3.9-3.6,7.8-5.2,11.8-.7,1.7-.8,3.6-1.4,5.3-.2.5-1,.8-1.6,1.2-.3-.7-1-1.5-.8-2,2.1-7.3,5.9-13.9,9.4-20.5.3,0,.7.2,1,.3Z"/>
      <path class="cls-1" d="M318.6,123.8c-1.4,5.9-2.9,11.7-4.5,18.2,1-.7,1.3-.9,1.9-1.3-.1.8,0,1.4-.3,1.7-.6.7-1.5,1.3-2.2,2-.4-.9-1.3-2-1.2-2.8.6-3.4,1.5-6.8,2.5-10.1.8-2.7,1.9-5.4,2.9-8,.3.1.6.2.9.3Z"/>
      <path class="cls-1" d="M178.8,124.2c-1.4,4.5-2.7,8.9-4.1,13.4.1,0,.3.2.4.3,1-1.3,2-2.6,2.9-3.9.2.1.4.2.5.3-.9,1.8-1.7,3.7-2.8,5.4-.4.6-1.6.9-2.3.8-.5,0-1-1.2-1-1.9,0-.9.1-1.8.5-2.7,1.6-4,3.3-7.9,5-11.8.3,0,.6.1.9.2Z"/>
      <path class="cls-1" d="M564.7,76.2c.2,1.7.8,3.4.4,4.9-.9,3.6-2.2,7.1-3.7,10.5-.3.6-1.8.7-2.8,1,.3-.8.4-1.8.9-2.5,2.5-3.3,3.6-7.1,4.1-11.2.1-.9.1-1.8.2-2.7.3,0,.6,0,.9,0Z"/>
      <path class="cls-1" d="M559,74.7c.4,1.3,1.3,2.7,1,3.9-.9,3.7-2.3,7.2-3.6,10.8-.2.6-1.2,1.1-1.9,1.3-.3,0-1.2-.8-1.2-1.2,0-.7.5-1.4,1-2,3.1-3.6,4.1-7.9,3.9-12.6.3,0,.6-.2.9-.2Z"/>
      <path class="cls-1" d="M375.8,147.3c1.2,4.3.4,9.2,4.8,12,0,.3-.1.5-.2.8-1-.2-2.3,0-3-.6-2.6-2.1-3.5-8.8-1.7-12.2Z"/>
      <path class="cls-1" d="M371.7,148.7c.2.7.4,1.4.6,2.2,1,3.4,2.1,6.9,3,10.3.1.4-.2,1-.3,1.4-.5-.1-1-.2-1.4-.4-.2,0-.3-.5-.4-.7-.9-4.2-1.7-8.4-2.6-12.6l1.1-.2Z"/>
      <path class="cls-1" d="M184.1,108.9c-.2.8-.3,1.6-.7,3.3-1.1-1-1.9-1.7-2.7-2.4,1-.6,1.9-1.1,2.9-1.7.2.3.4.5.5.8Z"/>
    </g>
  </g>
</svg>