<?xml version="1.0" encoding="UTF-8"?>
<svg id="Layer_1" data-name="Layer 1" xmlns="http://www.w3.org/2000/svg" version="1.1" viewBox="0 0 133.4 26.3">
  <defs>
    <style>
      .cls-1 {
        fill: #fff2ea;
        fill-rule: evenodd;
        stroke-width: 0px;
      }
    </style>
  </defs>
  <path class="cls-1" d="M57.4,6.3c-.9,0-1.5,0-2.1.4-.9-.4-1.6-.4-2.1,0-.8-.5-1.7-.1-2.3.6,0,0,.8-.3,1.5-.1,0,0,.2,0,.2,0-.2.2-.3.5-.5.9.5-.6,1.5-.6,2.3-.7-.5.5-.8,1.2-1.1,2.2,1-1.3,3.7-.6,4.1-3.2Z"/>
  <path class="cls-1" d="M56.8,17.2c-.4.1-.6,0-.5-.5.3-.9,1.3-1.6,2.2-1.9-2.4-.2-3.7,2.6-3.5,4.5,1.7-1.2,4.3-1.2,4.6-5.4-.4.2-.8.3-1.2.5,1.3.4-.5,2.4-1.6,2.8Z"/>
  <path class="cls-1" d="M66.6,25.9c2.2-2.2.7-12.1,0-14.8-.7,2.8-2.2,12.6,0,14.8Z"/>
  <path class="cls-1" d="M63.9,19.5c1.1-.7,1.4-2.8,1.6-4.9-1.4,1.7-2.1,2.9-1.6,4.9Z"/>
  <path class="cls-1" d="M69.4,19.5c.6-2-.2-3.2-1.6-4.9.2,2.2.4,4.2,1.6,4.9Z"/>
  <path class="cls-1" d="M80.1,6.6c-.6-.3-1.3-.3-2.1,0-.5-.3-1.2-.4-2.1-.4.3,2.6,3,1.9,4.1,3.2-.3-.9-.7-1.7-1.1-2.2.8.1,1.8,0,2.3.7-.1-.4-.3-.7-.5-.9,0,0,.2,0,.2,0,.6-.2,1.5.1,1.5.1-.6-.7-1.5-1.1-2.3-.6Z"/>
  <path class="cls-1" d="M74.8,14.8c.8.3,1.9,1.1,2.2,1.9.1.4,0,.6-.5.5-1.1-.4-2.9-2.4-1.6-2.8-.4-.2-.8-.3-1.2-.5.3,4.2,2.9,4.2,4.6,5.4.2-1.9-1.1-4.7-3.5-4.5Z"/>
  <path class="cls-1" d="M130.3,4.2c.8.4,2,.5,3-.1-1-.8-3.1-1.5-3.8.3-.8-1.3-1.9-1.5-3.4-1.5,0,0,0,0,0,0h-53.7c-1.7-1.6-3.7-2.3-5.7-2.3-2,0-4,.7-5.8,2.3H7.2s0,0,0,0c-1.5,0-2.6.2-3.4,1.5C3.1,2.5.9,3.2,0,4c.9.6,2.2.6,3,.1.2,0,.4.4.4.7-1.2.6-.2,1.8.4,2.1.5-.2,1.8-1.3.5-2.1.7-1.1,1.9-1.2,3.3-1.2,0,0,0,0,0,0h52.7c-.4.4-.8.9-1.1,1.4H21.9c-1.1,0-2.3-.2-3.2.9-.6-.9-2.3-1.4-3.2-.3,0,0-.4-.7-1.5-.6-1.2,0-3.6,0-3.6,0,1.7.2,2.9.4,3.1,1.2.4-.7,1.5-.6,1.6,0,0,.4-.4.8-.9.4.1.5.6.9,1.1.9.8,0,1-.6,1.3-1.2.4-.9,1.5-.6,1.7.2,0,0-.9.8-.8,1.7,0,.6.7.9,1.3.8.5,0,1-.4,1-.9,0-.6-.9-1.1-1.4-.4.3-1.4,1.4-.4,1.7-1.5.1-.5,1.2-.4,1.7-.4h37.1c-.6,1.1-1,2.4-1.1,3.7,0,.2,0,.5,0,.7,0,.9.4,2.1,1.4,2.3.7.1,1.2-.1,1.2-.9,0-.9-1-1.2-1.8-.6-.2-.4-.2-1-.1-1.5.1-1.3.6-2.6,1.3-3.7h.8c1.1,0,2,.1,2.8.5.7.3,1.2.9,1.6,1.7.2.5.3,1.1.3,1.7,0,1.4-.4,3.5-2.1,3.6-.5,0-.8-.2-1-.4-.2-.2-.2-.4-.3-.7-.1-.7.2-1.4.8-1.7-.1.6.5,1.3,1.3.8.5-.3.7-.9.3-1.5-.5-.6-1.3-.5-1.9,0-.8.5-1.2,1.5-1.1,2.5,0,.4.2.7.4,1,.3.4.9.7,1.6.7,2.2,0,2.8-2.5,2.8-4.3,0-.7-.1-1.4-.3-1.9-.4-1-1-1.6-1.9-2.1-.8-.4-1.9-.6-3.1-.6h-.3c.4-.5.8-1,1.2-1.4h10.9c.5.4.9.9,1.2,1.4h-.3c-1.2,0-2.2.2-3.1.6-.9.4-1.5,1.1-1.9,2.1-.2.5-.3,1.2-.3,1.9,0,1.8.6,4.3,2.8,4.3.7,0,1.2-.3,1.6-.7.2-.3.4-.6.4-1,.2-1-.3-2-1.1-2.5-.6-.4-1.5-.5-1.9,0-.4.6-.2,1.2.3,1.5.8.4,1.4-.3,1.3-.8.6.4.9,1.1.8,1.7,0,.2-.1.5-.3.7-.2.3-.6.4-1,.4-1.7,0-2.1-2.2-2.1-3.6,0-.6.1-1.2.3-1.7.3-.8.8-1.3,1.6-1.7.7-.4,1.7-.5,2.8-.5h.8c.7,1.1,1.1,2.4,1.3,3.7,0,.5,0,1-.1,1.5-.7-.6-1.8-.3-1.8.6,0,.8.5,1,1.2.9,1.1-.2,1.4-1.4,1.4-2.3,0-.2,0-.5,0-.7-.1-1.3-.5-2.5-1.1-3.7h37.1c.5,0,1.5-.1,1.7.4.3,1,1.4,0,1.7,1.5-.5-.7-1.4-.2-1.4.4,0,.5.5.9,1,.9.6,0,1.3-.3,1.3-.8.1-.9-.8-1.7-.8-1.7.2-.7,1.4-1.1,1.7-.2.2.6.4,1.3,1.3,1.2.5,0,1-.4,1.1-.9-.6.4-1,0-.9-.4.1-.6,1.2-.7,1.6,0,.3-.8,1.4-.9,3.1-1.2,0,0-2.5,0-3.6,0-1.1,0-1.5.6-1.5.6-.9-1.1-2.7-.6-3.2.3-.9-1.1-2.1-.9-3.2-.9h-37.3c-.3-.5-.7-1-1.1-1.4h52.7s0,0,0,0c1.4,0,2.6,0,3.3,1.2-1.3.8,0,1.9.5,2.1.6-.3,1.6-1.5.4-2.1,0-.3.2-.6.4-.7ZM71.3,2.9h-9.2c2.9-2.2,6.3-2.2,9.2,0Z"/>
  <path class="cls-1" d="M67.6,5.5c0-.5-.4-1-1-1s-1,.4-1,1,.4,1,1,1,1-.4,1-1Z"/>
</svg>