<?xml version="1.0" encoding="UTF-8"?>
<svg id="Layer_1" data-name="Layer 1" xmlns="http://www.w3.org/2000/svg" version="1.1" viewBox="0 0 305.38 184.55">
  <defs>
    <style>
      .cls-1 {
        fill: #ea0029;
      }

      .cls-1, .cls-2, .cls-3 {
        stroke-width: 0px;
      }

      .cls-2 {
        fill: #8d1922;
      }

      .cls-3 {
        fill: #fef8e5;
      }
    </style>
  </defs>
  <g>
    <path class="cls-3" d="M43.13,168.04c-.41-.24-.86-.33-1.28-.47-.14-.05-.28,0-.38.1-.2.19-.38.4-.57.6-.47.51-.98.98-1.55,1.38-.46.32-.96.55-1.5.69-.24.06-.48.06-.72-.01-.21-.06-.35-.28-.29-.48.1-.37.21-.73.3-1.1.13-.55.11-1.1.08-1.66,0-.13-.09-.26-.17-.37-.12-.16-.29-.3-.42-.46-.41-.49-.63-1.06-.65-1.71-.02-.67.11-1.3.39-1.92.25-.54.57-1.03.9-1.51.15-.21.19-.43.08-.68-.42-1-.39-2.02-.14-3.06.26-1.07.79-1.99,1.55-2.78.14-.15.31-.28.48-.4.36-.25.77-.3,1.19-.18.09.03.16.12.23.17.07.21-.05.35-.12.5-.39.83-.55,1.71-.58,2.62-.04,1.19.08,2.36.42,3.49.49,1.61,1.4,2.93,2.85,3.83.12.07.24.12.4.01.96-4,2.59-7.79,4.28-11.55.1-.22.21-.44.31-.66.36-.8.42-.81-.53-1.13-.36-.12-.74-.2-1.11-.24-.6-.07-1.17.09-1.72.31-.29.11-.57.24-.86.35-.08.03-.16-.02-.15-.1.01-.38.03-.76.06-1.13.02-.34-.12-.61-.35-.84-.2-.19-.41-.37-.63-.54-.77-.64-1.53-1.31-2.22-2.04-.82-.85-1.57-1.76-2.19-2.77-.68-1.1-1.2-2.27-1.37-3.56-.28-2.16-.25-4.28.69-6.31,1.21-2.63,3.2-4.39,5.87-5.43,1.21-.47,2.46-.71,3.75-.79,2.2-.15,4.36.09,6.44.84,1.24.45,2.5.51,3.79.39.4-.04.73-.2,1.02-.47.22-.2.34-.44.27-.74-.04-.2-.06-.42-.13-.61-.19-.51-.49-.92-1.11-.94-.07,0-.15-.02-.19-.05-.04-.03-.07-.11-.07-.17,0-.06.03-.13.07-.19.36-.55.87-.86,1.5-1.03.65-.17,1.3-.22,1.94.03.26.1.51.22.74.37.73.48,1.06,1.18,1,2.04-.05.73-.2,1.44-.43,2.13-.3.89-.64,1.76-1.06,2.6-.6,1.21-1.21,2.41-1.85,3.61-1.01,1.9-2.05,3.77-3.06,5.67-.38.7-.71,1.42-1.06,2.14-.2.41-.17.47.2.78.51.42,1.02.83,1.53,1.25.88.74,1.72,1.51,2.52,2.33.56.57,1.09,1.17,1.54,1.82,1.02,1.46,1.55,3.08,1.56,4.87,0,1.01-.1,2.01-.33,2.99-.41,1.76-1.3,3.28-2.48,4.62-1.63,1.85-3.59,3.24-5.85,4.22-1.66.71-3.39,1.19-5.19,1.42-.17.02-.34.05-.51.08-.27.05-.35.19-.28.43.59,1.93,2.12,2.75,3.71,2.81.52.02,1.04,0,1.55,0,.07,0,.18.16.16.23-.02.07-.02.14-.05.2-.14.28-.26.57-.42.83-.4.66-.9,1.23-1.5,1.71-.72.59-1.52.96-2.46.99-.45.01-.9.02-1.35-.01-.71-.05-1.34-.33-1.9-.76-.93-.72-1.6-1.63-2-2.73-.25-.69-.43-1.39-.46-2.12-.02-.42-.04-.83-.06-1.25-.01-.17-.04-.34-.06-.51ZM50.25,130.98c-.17.01-.59.03-1,.08-1.53.2-2.72.96-3.57,2.25-.9,1.37-1.03,3.71.4,5.2.58.6,1.19,1.16,1.87,1.64.9.65,1.84,1.24,2.82,1.76.64.34,1.31.62,1.97.93.14.06.27.01.35-.13.26-.45.52-.9.76-1.36.94-1.82,1.86-3.63,2.79-5.45.11-.22.22-.43.32-.65.07-.16.07-.34-.01-.5-.06-.13-.12-.25-.19-.37-.8-1.37-1.95-2.31-3.43-2.88-.92-.35-1.88-.47-3.09-.52ZM55.02,158.52c0-.1-.04-.4-.07-.71-.09-.89-.45-1.66-1.05-2.32-.59-.64-1.24-1.21-1.94-1.72-.2-.14-.4-.27-.6-.4-.06-.04-.24,0-.28.07-.08.15-.16.3-.23.46-.84,2.09-1.63,4.19-2.3,6.34-.42,1.35-.8,2.72-1.02,4.13-.05.31-.08.62-.1.93-.02.2.12.34.3.34.17,0,.35,0,.52-.02,1.88-.24,3.52-.98,4.88-2.31,1.27-1.26,1.9-2.79,1.9-4.78Z"/>
    <path class="cls-3" d="M212.47,158.44c-.08-.26-.14-.46-.21-.66-.33-1.03-.29-2.05.07-3.06.29-.8.81-1.45,1.49-1.96.49-.36,1.02-.39,1.57-.15.2.09.3.31.21.51-.08.19-.2.37-.26.57-.13.43-.28.86-.32,1.31-.12,1.39-.01,2.76.36,4.12.81,2.93,3.42,6.2,7.58,7.13.75.17,1.5.25,2.27.23.56-.02,1.1-.12,1.62-.32,1.7-.63,2.75-1.85,3.08-3.62.21-1.13.19-2.27-.1-3.4-.18-.68-.47-1.3-.86-1.88-.49-.72-1.05-1.38-1.64-2.01-1-1.06-2.09-2.03-3.24-2.92-.49-.38-1.02-.72-1.57-1.01-.96-.51-1.96-.64-3.02-.33-.16.05-.34.07-.51.1-.1.02-.21-.08-.2-.18.02-.28.05-.55.08-.83.05-.48-.09-.89-.42-1.24-.29-.3-.58-.59-.88-.89-.91-.9-1.78-1.85-2.58-2.85-.69-.87-1.33-1.77-1.87-2.75-.57-1.04-1-2.14-1.14-3.32-.15-1.31-.23-2.62.09-3.93.41-1.66,1.21-3.09,2.42-4.29,1.43-1.43,3.16-2.35,5.12-2.83,1.83-.45,3.69-.54,5.57-.3,1.25.16,2.45.46,3.61.93.98.4,1.99.58,3.04.55.24,0,.48-.04.72-.07.55-.08.97-.38,1.23-.86.15-.27.24-.57.34-.86.04-.13.05-.27.08-.42.12,0,.24-.02.31.02.2.13.41.27.56.45.62.73.83,1.59.67,2.53-.04.26-.2.51-.31.76-.06.12-.16.23-.21.36-.03.09-.04.21,0,.3.07.16.18.29.28.44.31.47.48,1,.5,1.56.02.63.02,1.25-.21,1.85-.15.39-.36.75-.63,1.07-.2.24-.24.5-.16.78.1.37.17.75.14,1.13-.06.84-.38,1.54-1.09,2.03-.21.15-.43.22-.68.21-.17,0-.35,0-.52-.04-.54-.1-.65-.23-.54-.77.5-2.4-.1-4.54-1.58-6.44-1.14-1.46-2.68-2.27-4.5-2.55-.31-.05-.62-.09-.93-.12-.88-.08-1.73.03-2.55.35-1.11.43-1.98,1.17-2.46,2.27-.69,1.56-.61,3.1.4,4.53.4.57.88,1.07,1.38,1.55,1.14,1.08,2.39,2,3.66,2.91.14.1.29.18.44.27.47.29.97.36,1.5.25.44-.1.89-.15,1.31-.32.12-.05.27-.06.4-.09.04.08.11.14.1.19-.02.21-.08.41-.1.61-.03.24-.04.48-.06.72-.02.43.11.82.39,1.16.18.21.37.41.56.61,1.35,1.39,2.66,2.83,3.84,4.37.63.83,1.22,1.68,1.74,2.58.73,1.27,1.25,2.63,1.51,4.07.2,1.13.31,2.27.18,3.42-.08.69-.12,1.38-.26,2.06-.69,3.2-2.59,5.37-5.57,6.64-.89.38-1.84.58-2.81.7-3.52.44-8.25-.71-11.22-2.65-.23-.15-.46-.31-.7-.45-.2-.11-.4-.09-.58.04-.23.16-.44.34-.67.49-.52.35-1.07.63-1.69.77-.66.15-1.31.12-1.91-.23-.19-.11-.3-.33-.21-.53.32-.71.4-1.46.37-2.23,0-.29-.09-.54-.28-.76-.16-.19-.31-.37-.44-.58-.76-1.2-.77-2.41-.02-3.62.18-.29.42-.55.64-.82.08-.11.16-.22.28-.38Z"/>
    <path class="cls-3" d="M210.18,145.29c-.07.12-.08.15-.11.17-.9.89-1.36,1.99-1.54,3.22-.14.89-.25,1.78-.39,2.67-.26,1.65-.69,3.25-1.31,4.8-.48,1.2-1.1,2.31-1.92,3.32-1.68,2.07-3.87,3.21-6.51,3.46-2.56.25-5.05-.12-7.43-1.09-2.77-1.14-4.95-3.01-6.63-5.48-1.2-1.76-2-3.71-2.6-5.75-.32-1.1-.46-2.24-.63-3.37-.08-.55-.2-1.09-.33-1.63-.18-.72-.52-1.35-1.04-1.89-.1-.1-.19-.2-.27-.31-.03-.05-.03-.13,0-.19.02-.06.07-.12.12-.16.97-.85,1.37-1.97,1.53-3.21.13-1.03.32-2.05.64-3.04.97-3.02,2.65-5.54,5.25-7.42,1.75-1.26,3.69-2.01,5.83-2.31,1.95-.27,3.87-.14,5.76.37,2.86.77,5.1,2.44,6.79,4.84,1.09,1.55,1.82,3.26,2.31,5.08.32,1.2.57,2.43.67,3.67.04.45.11.9.21,1.33.21.89.56,1.71,1.17,2.41.14.16.27.31.43.49ZM199.85,137.92h0c0-.87,0-1.73,0-2.6,0-.28,0-.56-.02-.83-.06-.84-.23-1.65-.61-2.4-.76-1.53-1.98-2.45-3.68-2.73-.66-.11-1.31-.08-1.96.03-1.51.24-2.62,1.03-3.31,2.39-.43.85-.64,1.75-.64,2.7,0,1.94,0,3.88,0,5.82,0,1.28.47,2.36,1.42,3.23.13.12.26.23.37.36.03.04.02.15,0,.19-.09.1-.2.19-.3.28-.79.64-1.22,1.49-1.4,2.48-.05.3-.07.62-.07.93,0,2.25.01,4.5,0,6.76,0,.59.08,1.18.21,1.75.27,1.15.82,2.14,1.76,2.87,1.5,1.16,3.19,1.63,5.07,1.3,1.08-.19,1.91-.78,2.48-1.72.38-.63.59-1.33.66-2.06.04-.48.05-.97.05-1.45,0-2.08,0-4.16-.01-6.24,0-.24,0-.49,0-.73-.04-1.3-.49-2.43-1.41-3.37-.12-.12-.24-.25-.35-.38-.03-.04-.02-.15.02-.19.14-.15.3-.28.46-.42.68-.59,1.05-1.37,1.21-2.24.06-.3.05-.62.06-.93,0-.94,0-1.87,0-2.81Z"/>
    <path class="cls-3" d="M162.7,142.64c-.11.08-.21.17-.33.24-.66.41-1.01,1.04-1.21,1.75-.1.36-.16.74-.21,1.12-.18,1.56-.52,3.07-1.06,4.54-.62,1.67-1.51,3.19-2.73,4.5-1.6,1.71-3.55,2.86-5.79,3.51-1.43.42-2.91.64-4.4.66-1.07.01-2.14.01-3.21-.18-.55-.1-1.08-.21-1.62-.36-.27-.08-.53-.15-.78-.22-.54.19-1.07.36-1.62.45-1.02.16-2,.06-2.95-.32-.13-.05-.25-.12-.38-.17-.17-.07-.34-.06-.51,0-.19.08-.37.18-.57.26-1.23.52-2.44.37-3.62-.16-.22-.09-.41-.26-.58-.43-.15-.14-.24-.33-.27-.55,0-.08.1-.23.17-.23.28.01.55.03.83.04.45.01.89-.04,1.33-.18.58-.19,1.05-.51,1.43-.99.25-.31.41-.64.39-1.04,0-.1,0-.21,0-.31.03-2.94.06-5.89.08-8.83,0-.38-.03-.76-.06-1.14-.04-.51-.28-.93-.66-1.26-.29-.25-.6-.46-.91-.69-.11-.08-.23-.16-.32-.26-.03-.03-.02-.16,0-.18.19-.15.4-.28.59-.41.89-.61,1.34-1.46,1.39-2.54,0-.17,0-.35,0-.52.01-2.39.02-4.78.03-7.17,0-.07,0-.14,0-.21.1-1.15-.57-1.8-1.49-2.26-.4-.2-.85-.31-1.31-.3-.34.01-.69.05-1.03.09-.11.01-.22,0-.26-.11-.03-.09-.03-.21,0-.3.14-.38.42-.63.77-.81.89-.46,1.83-.63,2.82-.43.44.09.87.22,1.27.44.27.15.52.12.79,0,.25-.12.51-.22.77-.31.96-.31,1.93-.29,2.86.06.56.21,1.06.19,1.61.05,2.1-.53,4.24-.64,6.39-.42.79.08,1.59.13,2.37.3,1.29.27,2.54.67,3.71,1.28,1.86.97,3.31,2.37,4.39,4.16.77,1.29,1.3,2.68,1.66,4.13.21.84.39,1.68.48,2.55.03.31.11.61.16.92.11.68.47,1.22.99,1.65.16.13.33.25.48.39.05.04.06.12.09.2ZM151.35,142.45c.06-.27.3-.31.46-.43.6-.42.94-1.01,1.04-1.72.05-.38.06-.76.06-1.14,0-.31-.03-.62-.06-.93-.15-2-.75-3.87-1.76-5.6-.49-.85-1.13-1.57-1.9-2.19-.75-.59-1.58-1.01-2.51-1.19-1.06-.21-2.14-.18-3.21-.04-.2.03-.39.13-.57.22-.23.12-.36.32-.38.58-.02.35-.02.69-.02,1.04-.03,7.83-.06,15.66-.09,23.5,0,.24,0,.49,0,.73,0,.23.11.4.26.54.46.43,1,.74,1.62.89,1.5.37,2.96.18,4.36-.42.71-.3,1.31-.78,1.82-1.36.37-.42.68-.88.93-1.37.34-.65.59-1.33.78-2.03.24-.87.39-1.76.51-2.65.17-1.31.19-2.62.18-3.94,0-.17-.02-.35-.04-.52-.06-.58-.32-1.06-.77-1.42-.24-.19-.49-.37-.73-.55Z"/>
    <path class="cls-3" d="M65.3,137.39c-.15-.26-.27-.47-.38-.68-.56-1.09-.57-2.19-.07-3.3.06-.13.13-.24.2-.37.11-.2.1-.4,0-.59-.1-.18-.23-.35-.32-.54-.47-1.05-.61-2.13-.24-3.23.35-1.04,1.45-1.7,2.54-1.56.18.02.31.17.3.36-.02.35-.03.69.05,1.03.1.41.49.7.92.69.39,0,.75-.14,1.11-.26.79-.27,1.59-.49,2.4-.65.54-.11,1.09-.21,1.64-.27,1.12-.11,2.21.02,3.23.54.12.06.25.11.38.17.23.02.4-.11.58-.22.71-.41,1.47-.57,2.29-.55.53.02,1.03.14,1.51.35.25.11.5.24.7.34.27.03.45-.08.63-.18.75-.41,1.55-.55,2.4-.55,1.29,0,2.55.18,3.79.52.6.17,1.21.31,1.81.46.13.03.28.04.41.03.46-.02.86-.38.92-.84.04-.27.03-.55.04-.83,0-.13.14-.27.26-.28,1.36-.17,2.55.81,2.65,2.16.07.89-.08,1.73-.63,2.46-.06.08-.12.17-.17.26-.06.13-.08.27-.01.4.13.28.29.55.39.84.3.84.14,1.64-.25,2.41-.48.5-.44,1.03-.15,1.61.17.35.19.74.17,1.12-.05,1.07-.34,2.05-1.06,2.87-.45.52-1.01.83-1.71.88-.1,0-.21-.02-.31-.03-.14-.02-.25-.18-.21-.3.02-.07.03-.14.06-.2.28-.61.39-1.26.45-1.91.17-1.97-.07-3.87-.96-5.66-.53-1.08-1.26-1.99-2.25-2.67-1.4-.96-2.92-1.22-4.55-.74-.1.03-.2.07-.28.14-.08.06-.15.15-.17.24-.04.17-.04.34-.05.51-.01.94-.02,1.87-.04,2.81-.04,2.29-.08,4.57-.11,6.86,0,.41.02.83.07,1.24.07.61.39,1.11.87,1.49.27.22.56.41.84.61.28.2.28.3-.03.53-.11.08-.23.16-.34.24-.11.08-.22.17-.32.26-.69.59-1.04,1.36-1.13,2.26-.02.17-.01.35-.01.52-.05,3.19-.1,6.38-.15,9.56,0,.35,0,.69,0,1.04-.01.29.09.55.23.78.5.81,1.27,1.15,2.17,1.25.45.05.9.04,1.34-.11.13-.04.27-.06.4-.08.07-.01.19.13.18.21-.02.1-.02.21-.05.3-.15.36-.4.65-.72.87-1.11.75-2.32,1.07-3.65.73-.13-.03-.27-.05-.4-.1-.59-.24-.69-.24-1.34.17-.8.52-1.7.76-2.67.71-.49-.02-.95-.16-1.4-.35-.25-.1-.47-.07-.68.09-.11.08-.23.15-.34.23-1,.7-2.12.81-3.28.65-.42-.06-.8-.23-1.12-.51-.19-.16-.31-.36-.35-.62-.05-.3.08-.48.37-.46.94.07,1.77-.22,2.54-.75.34-.24.64-.53.89-.86.37-.48.57-1.01.56-1.63,0-1.52.02-3.05.03-4.57.02-1.94.03-3.88.04-5.82,0-.31,0-.62-.02-.94-.01-.62-.28-1.13-.71-1.56-.32-.32-.69-.57-1.07-.82-.08-.05-.12-.16-.19-.27.2-.16.39-.31.58-.46,1-.77,1.47-1.81,1.54-3.05,0-.17,0-.35.01-.52.02-3.15.05-6.31.07-9.46,0-.1,0-.21,0-.31.01-.85-.08-.9-.94-1.05-1.05-.18-2.07-.04-3.04.42-.73.35-1.36.83-1.91,1.41-.85.9-1.44,1.95-1.86,3.1-.58,1.59-.73,3.23-.7,4.91.02.91.14,1.79.45,2.65.06.17-.07.34-.25.38-.66.14-1.23-.02-1.73-.47-.5-.46-.82-1.03-1.02-1.67-.16-.53-.24-1.08-.19-1.64.07-.73.19-1.44.52-2.19Z"/>
    <path class="cls-3" d="M126.55,142.25c-.41.24-.8.46-1.18.69-.43.26-.73.63-.92,1.09-.12.3-.14.61-.14.92-.01.69-.02,1.39-.03,2.08-.02,1.32-.04,2.63-.05,3.95,0,.21,0,.42,0,.62-.02.4.12.75.37,1.06.17.22.37.42.55.62.09.1.2.19.21.34-.01.03-.02.07-.04.09-.68.59-1.34,1.2-2.03,1.77-2.09,1.72-4.43,2.97-7.07,3.57-1.9.44-3.83.58-5.78.41-1.07-.09-2.13-.23-3.17-.51-.77-.21-1.52-.48-2.23-.84-.65-.33-1.25-.74-1.78-1.25-1.21-1.15-1.83-2.58-1.95-4.24-.03-.38-.02-.76-.02-1.14,0-1.7.02-3.4.03-5.09,0-.28,0-.55,0-.83,0-.67-.27-1.21-.77-1.64-.26-.22-.55-.41-.83-.62-.11-.08-.23-.16-.32-.26-.03-.03-.01-.15.02-.18.21-.17.44-.33.66-.49.48-.36.83-.82,1.07-1.38.17-.39.23-.8.26-1.21.03-.31.03-.62.03-.94.02-2.43.04-4.85.06-7.28,0-.07,0-.14,0-.21.03-.46-.01-.9-.29-1.29-.33-.46-.73-.83-1.26-1.05-.36-.15-.72-.25-1.11-.24-.38.01-.76.04-1.14.06-.25.01-.36-.17-.27-.41.13-.34.35-.6.65-.79.76-.48,1.59-.67,2.48-.6.55.04,1.09.16,1.59.43.15.08.31.15.51.24.17-.07.36-.14.55-.23.35-.16.7-.28,1.08-.37.99-.23,1.93-.08,2.84.3.19.08.38.17.52.24.31.01.5-.14.72-.25,1.24-.64,2.48-.48,3.71.03.25.1.46.3.67.48.19.16.27.4.28.65,0,.08-.12.21-.2.2-.1,0-.21,0-.31-.03-.59-.17-1.18-.06-1.74.1-.77.22-1.35.7-1.72,1.41-.09.18-.14.39-.16.59-.03.31-.03.62-.04.93-.03,2.53-.06,5.06-.09,7.59,0,.14,0,.28,0,.42.02.81.34,1.48.99,1.97.3.23.62.44.93.66.08.06.08.21,0,.27-.11.08-.23.16-.34.24-.14.1-.29.18-.43.29-.73.56-1.14,1.29-1.19,2.21-.02.38-.01.76-.02,1.14-.02,1.49-.05,2.98-.06,4.47,0,.45.02.9.07,1.35.11,1.11.57,2.06,1.34,2.86,1.11,1.14,2.45,1.78,4.04,1.9,2.22.18,4.18-.46,5.87-1.89.32-.27.61-.57.87-.89.66-.8,1-1.73,1.01-2.78.02-2.22.02-4.44.03-6.65,0-.14,0-.28-.02-.42-.05-.51-.25-.94-.66-1.25-.39-.29-.8-.54-1.2-.81-.09-.06-.12-.21-.05-.26.08-.06.16-.13.25-.18.14-.1.3-.18.44-.28.17-.12.34-.25.48-.39.49-.48.79-1.05.8-1.75.02-.76.04-1.52.05-2.29.03-2.11.03-4.23.08-6.34.02-.65-.2-1.13-.67-1.54-.57-.5-1.22-.78-1.98-.78-.38,0-.76.07-1.14.1-.17.02-.34.03-.51.04-.07,0-.19-.12-.2-.21-.09-.42.07-.75.37-1.02.4-.37.9-.5,1.42-.56.53-.06,1.04.04,1.53.22.23.08.44.19.69.3.15-.06.31-.12.46-.19.9-.46,1.79-.46,2.68.03.12.07.25.12.4.18.24-.11.49-.23.75-.33.46-.18.93-.27,1.42-.22.46.05.88.19,1.23.51.3.27.45.61.4,1.02-.02.17-.19.3-.38.26-.48-.11-.96-.15-1.44-.15-1.05,0-1.86.47-2.47,1.3-.13.17-.21.36-.21.58,0,.28-.01.55-.01.83-.01,2.6-.03,5.2-.04,7.8,0,.21,0,.42,0,.62.02.67.3,1.21.86,1.57.38.24.78.46,1.16.69.08.05.11.15.19.25Z"/>
    <path class="cls-3" d="M173.54,159.38c-2.09.75-3.18.61-5.16-.39-.16.06-.35.14-.54.22-.69.3-1.38.39-2.13.24-.55-.11-1.09-.21-1.57-.49-.24-.14-.46-.31-.67-.49-.16-.14-.25-.33-.3-.53-.07-.25.08-.44.31-.36.47.16.95.18,1.44.13.83-.08,1.53-.42,2.03-1.11.19-.26.31-.54.32-.86,0-.24,0-.49,0-.73,0-2.95,0-5.89-.02-8.84,0-.38-.02-.76-.05-1.14-.03-.51-.25-.94-.61-1.29-.27-.26-.57-.5-.87-.74-.13-.11-.27-.21-.41-.32-.07-.06-.06-.22.03-.27.17-.11.35-.22.52-.33.87-.58,1.33-1.39,1.36-2.43,0-.21,0-.42,0-.62,0-2.5,0-4.99,0-7.49,0-.17,0-.35,0-.52.02-.48-.16-.87-.45-1.24-.66-.82-1.55-1.13-2.56-1.14-.27,0-.55.07-.82.11-.18.03-.31-.15-.26-.34.05-.21.14-.39.29-.54.19-.2.42-.36.68-.47,1.13-.52,2.27-.57,3.42-.1.19.08.38.17.57.26.2.09.4.09.6,0,.35-.14.7-.3,1.06-.41,1.04-.32,2.05-.17,3.04.25.22.09.44.2.67.3.26-.12.51-.23.75-.36.64-.32,1.32-.41,2.02-.31.66.09,1.3.23,1.85.62.26.18.48.4.59.71.02.06.03.13.05.2.02.09-.07.24-.14.24-.17,0-.34-.01-.51-.01-.35,0-.69-.03-1.04,0-1.05.1-1.8.65-2.29,1.57-.06.12-.1.26-.11.39-.02.24-.02.48-.02.73,0,2.63,0,5.27,0,7.9,0,.21,0,.42,0,.62,0,.81.31,1.48.92,2.01.31.27.65.51.98.77.12.1.13.27.01.34-.21.13-.41.26-.62.38-.63.38-1,.94-1.19,1.64-.05.2-.07.41-.09.61-.02.21,0,.42,0,.62,0,3.08,0,6.17,0,9.25,0,.07,0,.14,0,.21-.09.68.22,1.21.64,1.69.47.54,1.07.87,1.76,1.03.51.12,1.02.16,1.54.07.08-.01.2.11.19.21-.01.13-.02.28-.08.4-.12.26-.33.44-.58.58-.4.22-.82.36-1.28.4-.96.09-1.86-.07-2.71-.53-.21-.11-.43-.22-.62-.31Z"/>
    <path class="cls-1" d="M127.55,174.28c.25.18.51.35.75.54.51.41.78.96.82,1.62.03.52,0,1.03-.17,1.54-.31.87-.93,1.34-1.79,1.56-.1.03-.2.04-.31.04-1.38.07-2.76.08-4.14,0-.09,0-.13-.05-.11-.14,0-.03,0-.06.02-.09.02-.03.05-.05.08-.06.6-.15.84-.54.82-1.14-.01-.28,0-.55,0-.83,0-1.97,0-3.94,0-5.92,0-.31,0-.62-.04-.93-.04-.33-.22-.58-.55-.68-.1-.03-.21-.05-.29-.1-.1-.06-.08-.17-.03-.28.1-.01.2-.04.3-.04,1,0,2.01-.01,3.01-.02.49,0,.96.08,1.42.26.82.32,1.28.92,1.37,1.79.04.34.03.69.01,1.04-.04.58-.29,1.06-.75,1.42-.15.12-.37.17-.41.41ZM124.78,176.58s-.01,0-.02,0c0,.55,0,1.1,0,1.66,0,.14.02.27.05.41.03.15.13.25.27.28.51.13,1.03.11,1.53-.07.65-.22,1.02-.7,1.08-1.38.03-.41.04-.83,0-1.24-.05-.68-.43-1.16-1.07-1.4-.48-.19-.99-.29-1.52-.24-.18.02-.32.14-.33.33,0,.55,0,1.1,0,1.66ZM124.78,172.01s-.01,0-.02,0c0,.48,0,.97,0,1.45,0,.1.01.21.04.3.02.06.08.14.13.14.52.07,1.03.08,1.53-.09.54-.19.85-.58.97-1.12.1-.44.09-.9,0-1.34-.15-.71-.58-1.18-1.3-1.31-.34-.06-.69-.04-1.03-.05-.16,0-.32.17-.33.35,0,.55,0,1.1,0,1.65Z"/>
    <path class="cls-1" d="M171.41,179.39c-.02.06-.02.13-.05.18-.01.02-.06.04-.09.04-.9.04-1.79.07-2.69-.02-.03,0-.09-.04-.08-.05,0-.06,0-.15.05-.18.08-.06.18-.11.27-.14.29-.1.45-.3.47-.62,0-.14.03-.28.03-.41,0-.87,0-1.73.01-2.6,0-.07-.01-.14-.02-.21,0-.1-.17-.28-.26-.29-.17-.02-.34-.04-.52-.04-.76-.01-1.52-.02-2.28-.02-.18,0-.33.15-.33.33,0,1.04,0,2.08,0,3.12,0,.39.18.66.56.78.06.02.14.05.18.1.04.04.05.11.06.17,0,.02-.04.04-.07.06-.03.02-.06.04-.09.04-.87,0-1.73,0-2.59,0-.05,0-.11-.06-.16-.1-.06-.05,0-.16.14-.23.03-.02.06-.04.09-.04.4-.1.54-.41.58-.77.03-.27.04-.55.04-.83,0-1.97,0-3.95.01-5.92,0-.24,0-.49-.03-.73-.05-.41-.22-.72-.66-.84-.08-.02-.14-.12-.21-.19-.01-.01,0-.07.03-.1.02-.02.05-.05.08-.05.93-.04,1.86-.05,2.79.1.05,0,.08.09.11.15,0,.01-.03.06-.06.08-.02.02-.05.04-.08.05-.06.03-.13.04-.2.07-.32.12-.51.35-.52.7,0,.17-.02.35-.02.52,0,.83,0,1.66.01,2.49,0,.17.15.33.33.33.9.02,1.8.03,2.7.04.24,0,.37-.14.38-.39,0-.87,0-1.73,0-2.6,0-.14-.03-.28-.04-.41-.03-.26-.17-.44-.41-.56-.12-.06-.24-.14-.35-.21-.01,0,0-.07.01-.1,0-.03.03-.07.05-.07.93-.06,1.86-.04,2.79.06.02,0,.04.05.06.08.05.07.04.13-.04.17-.12.06-.25.1-.38.16-.2.09-.33.25-.36.47-.04.27-.09.55-.09.82-.01,2.04-.02,4.09-.02,6.13,0,.24.03.48.07.72.04.3.2.51.5.6.1.03.18.09.28.14Z"/>
    <path class="cls-1" d="M137.98,174.45c-.06.93-.1,1.69-.35,2.42-.26.77-.65,1.44-1.22,2.03-1.24,1.28-3.42,1.27-4.64-.09-.79-.88-1.22-1.92-1.37-3.08-.11-.83-.1-1.66,0-2.49.1-.84.35-1.63.81-2.34.19-.29.4-.56.64-.82,1.2-1.31,3.39-1.32,4.64.02.74.79,1.17,1.72,1.35,2.76.1.58.12,1.17.15,1.59ZM136.59,174.36c0-.13.02-.41,0-.68-.05-.72-.14-1.45-.38-2.14-.2-.57-.51-1.05-.99-1.43-.19-.15-.39-.28-.64-.33-.66-.13-1.23,0-1.71.49-.27.27-.49.58-.65.93-.19.41-.32.84-.39,1.28-.23,1.34-.23,2.68,0,4.03.08.44.21.87.4,1.28.18.38.43.7.74.99.6.57,1.69.57,2.28.04.31-.28.57-.6.76-.97.19-.37.32-.77.39-1.18.12-.72.24-1.43.18-2.31Z"/>
    <path class="cls-1" d="M193.99,175.68c.05.13.07.23.12.31.68.92,1.36,1.83,2.03,2.76.23.32.57.49.87.71.02.01.02.06,0,.08,0,.03-.03.08-.06.08-.48.12-.96.06-1.44.04-.12,0-.27-.1-.35-.19-.21-.23-.39-.48-.58-.73-.6-.81-1.19-1.62-1.78-2.43-.1-.14-.2-.28-.32-.41-.1-.1-.24-.12-.38-.08-.12.03-.17.13-.17.23-.01.8-.01,1.59-.01,2.39,0,.47.2.79.68.91.06.02.12.06.18.09.02.01.04.05.03.07,0,.03-.03.06-.06.08-.03.02-.06.04-.09.04-.9.06-1.79.07-2.69,0-.05,0-.1-.08-.14-.14,0,0,.03-.06.05-.08.06-.04.12-.06.18-.09.09-.04.19-.08.28-.13.15-.09.26-.24.29-.41.03-.2.05-.41.05-.62,0-1.87,0-3.74,0-5.61,0-.07,0-.14,0-.21.02-.51-.16-.87-.69-1.02-.05-.01-.07-.1-.1-.16-.04-.07.06-.14.22-.13,1.14.07,2.28.14,3.42.23.49.04.95.21,1.36.47.63.39.98.96.99,1.72,0,.1,0,.21,0,.31-.01.69-.34,1.18-.94,1.5-.15.08-.32.14-.48.2-.16.07-.31.13-.48.2ZM191.92,173.48s.01,0,.02,0c0,.42,0,.83,0,1.25,0,.1.02.21.05.3.02.06.08.12.14.13.63.11,1.24,0,1.8-.3.22-.12.38-.3.48-.53.15-.32.22-.65.18-1.01-.08-.7-.43-1.27-1.24-1.48-.27-.07-.54-.1-.82-.14-.1-.01-.2.02-.31.03-.11.02-.26.18-.27.29-.02.48-.03.97-.05,1.45Z"/>
    <path class="cls-1" d="M172.12,179.39c.06-.04.11-.09.18-.1.48-.13.64-.48.67-.93.01-.21.01-.42.01-.62,0-1.9,0-3.81,0-5.71,0-.24,0-.49-.02-.73-.04-.36-.18-.67-.56-.8-.13-.04-.24-.11-.37-.17.06-.07.09-.13.14-.17.02-.02.06-.04.09-.04,1.83.1,3.67.07,5.5.25.07,0,.13.03.2.04.12.03.19.12.19.22.01.52,0,1.03,0,1.55,0,.08-.07.12-.15.1-.06-.02-.13-.05-.16-.1-.05-.09-.06-.2-.09-.3-.13-.64-.56-.94-1.17-.98-.69-.05-1.38-.04-2.07-.06-.12,0-.26.14-.27.27-.01.24-.03.48-.03.72,0,.73,0,1.45,0,2.18,0,.2.13.35.3.35.62.01,1.24.02,1.87.02.31,0,.49-.19.63-.46.11-.21.08-.48.27-.66.02-.02.06-.02.09-.02.03,0,.07.01.1.03.02.02.04.06.04.09,0,.93,0,1.87,0,2.8,0,.08-.06.13-.14.12-.06,0-.14-.04-.16-.09-.08-.19-.14-.39-.2-.59-.09-.3-.31-.45-.6-.51-.24-.05-.48-.07-.72-.08-.38-.01-.76,0-1.14,0-.19,0-.32.14-.32.33,0,1.07,0,2.15,0,3.22,0,.03.01.07.02.1.02.13.13.27.26.29.83.17,1.66.12,2.48-.04.46-.09.79-.4,1.04-.8.17-.26.22-.59.49-.78.02-.01.07,0,.1.01.03.01.06.03.08.05.02.03.05.06.04.09-.13.61-.26,1.22-.39,1.82-.04.16-.21.31-.37.32-.14.01-.28.02-.41.02-1.66,0-3.32,0-4.98-.01-.13,0-.27-.03-.4-.08-.03-.01-.04-.11-.05-.17Z"/>
    <path class="cls-1" d="M144.94,173.75c0-.8,0-1.59,0-2.39,0-.31-.05-.62-.1-.92-.05-.29-.23-.49-.5-.62-.12-.06-.23-.14-.34-.22-.01,0,0-.06,0-.09,0-.03.02-.07.04-.09.02-.02.06-.03.1-.03.73,0,1.45,0,2.18.01.05,0,.11.06.16.1.07.05.02.17-.11.24-.06.03-.13.05-.19.08-.39.17-.58.48-.6.89-.02.38-.03.76-.04,1.14,0,1.21-.01,2.42,0,3.64,0,.63-.07,1.24-.16,1.86-.06.42-.2.81-.4,1.17-.42.74-1.04,1.2-1.9,1.28-.34.03-.69.04-1.03,0-.95-.08-1.61-.59-2.02-1.43-.28-.57-.39-1.18-.44-1.81-.03-.31-.02-.62-.02-.93,0-1.45,0-2.91,0-4.36,0-.31-.01-.62-.05-.93-.03-.25-.17-.45-.42-.55-.13-.05-.25-.1-.37-.18-.04-.02-.04-.11-.04-.17,0-.02.04-.04.07-.06.03-.02.06-.03.1-.03.9,0,1.8,0,2.7.02.05,0,.11.06.16.09.07.04,0,.19-.12.24-.06.03-.13.05-.2.07-.35.09-.5.36-.55.68-.03.17-.04.34-.04.52,0,1.8,0,3.6,0,5.4,0,.42.07.83.17,1.23.04.13.07.27.12.39.34.84,1.09,1.2,1.91,1.12.87-.08,1.49-.6,1.72-1.43.14-.5.22-1.01.22-1.54,0-.8,0-1.59,0-2.39h0Z"/>
    <path class="cls-1" d="M120.56,179.62c-.31,0-.62,0-.93,0-.13,0-.31.01-.36-.12-.06-.16.11-.22.23-.28.03-.02.06-.03.09-.05.18-.08.25-.25.23-.42-.02-.27-.06-.55-.13-.82-.11-.4-.24-.79-.37-1.19-.1-.3-.24-.42-.52-.42-.76,0-1.52.01-2.28.03-.23,0-.39.12-.46.35-.13.43-.27.86-.38,1.29-.05.2-.08.41-.09.61-.01.25.06.48.32.59.09.04.16.12.23.18.02.02.01.07,0,.1,0,.03-.03.06-.06.06-.13.03-.27.07-.4.06-.48,0-.96-.02-1.45-.04-.03,0-.08-.03-.09-.05-.01-.06-.03-.17,0-.18.48-.29.68-.77.84-1.27.42-1.28.84-2.56,1.26-3.85.46-1.42.91-2.83,1.37-4.25.05-.16.11-.33.19-.48.02-.05.1-.1.16-.11.05,0,.14.03.17.08.08.15.15.31.2.47.83,2.46,1.65,4.92,2.48,7.38.12.36.26.72.38,1.08.12.38.32.68.68.88.04.02.08.12.06.16-.01.05-.08.11-.13.13-.13.03-.27.04-.41.04-.28,0-.55,0-.83,0h0ZM116.53,175.58c.77.11,1.54.1,2.36-.01-.03-.17-.04-.3-.08-.43-.31-.98-.62-1.97-.93-2.95-.01-.03-.02-.07-.05-.09-.05-.04-.11-.1-.16-.1-.05,0-.13.05-.14.1-.35,1.08-.69,2.16-1.02,3.24-.02.06.01.13.03.24Z"/>
    <path class="cls-1" d="M150.9,174.46c0,.9,0,1.8,0,2.7,0,.21-.01.42,0,.62.02.34.02.7.1,1.03.1.4.56.35.82.56.02.01.01.06.01.1,0,.03-.01.06-.03.08-.02.02-.06.04-.09.04-.97.04-1.93.07-2.9-.02-.03,0-.08-.04-.08-.05,0-.06,0-.15.05-.18.08-.06.18-.12.27-.14.36-.08.5-.34.56-.66.04-.2.05-.41.06-.62.01-.24,0-.48,0-.73,0-1.94,0-3.88,0-5.82,0-.31-.01-.62-.02-.93,0-.13-.14-.27-.26-.29-.42-.07-.83-.04-1.23.06-.24.06-.44.21-.55.44-.09.19-.15.38-.22.58-.08.23-.15.46-.24.68,0,.02-.05.03-.08.02-.03,0-.08-.01-.09-.04-.03-.06-.08-.13-.07-.19.02-.66.04-1.31.07-1.97,0-.23.16-.36.41-.36,1.9.03,3.81.07,5.71.11.07,0,.14.02.21.02.1.01.27.18.28.28.01.69.02,1.38.02,2.07,0,.07-.06.12-.14.11-.06-.01-.15-.05-.16-.09-.11-.33-.19-.66-.31-.99-.14-.39-.44-.62-.84-.69-.31-.05-.62-.04-.93-.04-.19,0-.31.13-.31.33-.01.28-.02.55-.02.83,0,1.04,0,2.08,0,3.12h0Z"/>
    <path class="cls-1" d="M163.22,172.15c-.14.04-.26.06-.3-.05-.11-.29-.18-.59-.28-.89-.15-.49-.51-.73-.99-.79-.27-.03-.55-.03-.83-.03-.18,0-.29.13-.3.34,0,.17-.01.35-.01.52,0,2.18,0,4.36,0,6.54,0,.17.01.35,0,.52-.02.52.2.86.73.97.06.01.13.06.18.1.02.01.01.06,0,.1,0,.03-.01.06-.03.08-.02.02-.06.04-.09.04-.93,0-1.86,0-2.8,0-.09,0-.12-.05-.14-.12-.02-.08,0-.13.08-.16.1-.04.19-.09.28-.12.31-.09.43-.33.49-.61.04-.2.05-.41.06-.62,0-2.35,0-4.71,0-7.06,0-.1,0-.21-.03-.31-.03-.09-.07-.19-.19-.22-.48-.12-.96-.08-1.43.09-.24.08-.4.28-.48.52-.12.32-.22.65-.33.98-.03.08-.09.1-.17.07-.03,0-.05-.04-.07-.06-.02-.03-.04-.06-.04-.09.01-.66.03-1.31.05-1.97,0-.18.15-.31.34-.31.28,0,.55-.01.83,0,1.63.05,3.25.11,4.87.16.03,0,.07,0,.1,0,.27.03.46.07.46.43,0,.31.02.62.02.93,0,.34,0,.69,0,1.02Z"/>
    <path class="cls-1" d="M86.08,173.2c-.12.05-.24.06-.29-.05-.13-.28-.22-.58-.36-.86-.15-.32-.38-.57-.67-.78-.36-.25-.75-.34-1.18-.3-.52.05-.97.5-1.03,1.01-.05.47.06.9.42,1.23.23.21.47.41.72.59.39.28.81.54,1.19.83.3.23.6.48.86.75.85.86.77,2.25.33,3-.43.74-1.07,1.16-1.94,1.2-.42.02-.83-.02-1.23-.16-.26-.1-.52-.18-.79-.27-.13.1-.23.19-.34.27-.13.1-.27.04-.31-.11-.03-.13-.07-.27-.09-.41-.08-.62-.15-1.24-.21-1.86,0-.05.06-.11.11-.15.07-.05.13-.03.18.04.1.18.18.37.28.55.16.27.31.54.5.79.31.4.72.64,1.21.75.77.17,1.47-.26,1.64-1.04.16-.7-.02-1.3-.57-1.78-.21-.18-.43-.35-.65-.51-.37-.26-.74-.51-1.11-.77-.22-.16-.45-.33-.65-.52-.45-.42-.68-.95-.67-1.58,0-.35.03-.69.16-1.02.41-.99,1.28-1.6,2.5-1.4.2.03.4.11.6.17.36.13.67.08.94-.21.06-.06.15-.03.16.04.17.85.29,1.7.25,2.56Z"/>
    <path class="cls-1" d="M94.75,176.66c-.99-.1-1.95-.04-2.86,0-.21.14-.26.31-.31.47-.13.39-.25.79-.37,1.19-.16.59-.13.66.4,1.01.05.03.08.09.11.14.01.02,0,.08-.02.09-.06.03-.13.07-.19.07-.52,0-1.04,0-1.56,0-.13,0-.25-.1-.23-.16.03-.06.04-.13.09-.16.34-.22.54-.53.67-.9.19-.52.4-1.03.58-1.56.7-2.03,1.4-4.06,2.1-6.08.07-.19.17-.37.28-.54.02-.03.13-.03.18,0,.06.03.1.09.13.15.14.35.28.71.41,1.07.76,2.08,1.52,4.16,2.27,6.24.11.29.21.59.33.88.12.3.28.55.58.71.08.05.18.12.12.24-.03.05-.11.1-.16.1-.79,0-1.59,0-2.38-.02-.09,0-.12-.06-.1-.14,0-.03.01-.07.03-.08.17-.11.41-.14.51-.34.13-.27.02-.54-.06-.81-.15-.53-.33-1.05-.56-1.57ZM93.29,172.48c-.08.09-.17.15-.2.23-.33.95-.66,1.89-.98,2.84-.02.06-.02.14-.03.2-.01.09.08.23.16.22.66-.01,1.31-.02,1.97-.04.12,0,.23-.18.19-.31-.14-.46-.28-.93-.45-1.38-.22-.58-.36-1.19-.67-1.77Z"/>
    <path class="cls-1" d="M184.95,176.74c-.35,0-.69,0-1.04,0-.23,0-.4.09-.48.32-.14.39-.28.78-.4,1.18-.05.16-.07.34-.08.51-.02.23.08.4.28.51.09.05.18.1.27.16.02.01.05.06.04.07-.04.05-.09.13-.14.13-.62.06-1.24.11-1.85-.03-.03,0-.06-.04-.07-.07-.01-.02,0-.07.01-.08.07-.07.15-.14.23-.2.2-.14.36-.32.45-.55.21-.51.42-1.02.62-1.54.7-1.88,1.39-3.76,2.09-5.63.1-.26.21-.51.33-.76.02-.05.11-.1.17-.1.06,0,.13.06.16.12.12.25.23.5.32.76.77,2.03,1.54,4.07,2.31,6.11.07.19.15.38.22.58.17.5.42.94.89,1.22.02.01.03.06.02.08-.01.03-.04.05-.07.07-.03.02-.06.04-.09.04-.79,0-1.58,0-2.38-.01-.05,0-.12-.07-.14-.12-.01-.03.04-.11.09-.14.09-.05.2-.07.28-.12.12-.07.2-.2.19-.34-.01-.21-.02-.42-.08-.61-.12-.4-.27-.78-.42-1.17-.08-.22-.26-.31-.48-.32-.41-.01-.83-.03-1.24-.04,0,0,0-.02,0-.02ZM185,176.18c.17,0,.24,0,.31,0,.07,0,.14,0,.21,0,.14,0,.28,0,.41,0,.23,0,.34-.12.28-.31-.33-.94-.67-1.89-1.01-2.83-.02-.04-.11-.08-.17-.08-.05,0-.13.06-.15.11-.34.91-.67,1.81-1,2.72-.05.13.05.29.19.3.34.03.69.05.93.07Z"/>
    <path class="cls-1" d="M108.18,179.66c-.97-.02-1.93-.04-2.9-.07-.09,0-.13-.06-.1-.15,0-.03.01-.07.03-.08.12-.07.24-.14.37-.19.22-.08.34-.26.37-.46.05-.3.08-.62.08-.93,0-1.31,0-2.63,0-3.94,0-.66,0-1.31,0-1.97,0-.21,0-.42,0-.62-.02-.56-.17-1.03-.82-1.14-.03,0-.05-.05-.07-.08-.01-.03-.01-.06,0-.09,0-.03.01-.07.03-.1.02-.02.06-.03.1-.03.93-.05,1.86-.11,2.79-.05.03,0,.09.03.08.05,0,.06,0,.15-.04.18-.11.08-.24.13-.37.18-.29.12-.41.36-.43.65-.01.21-.02.41-.02.62,0,2.18,0,4.36,0,6.54,0,.94.06,1,.99,1,.38,0,.76-.01,1.14-.03.17,0,.35-.03.51-.07.5-.11.88-.39,1.12-.85.16-.3.33-.61.5-.9.02-.03.12-.02.18-.02.02,0,.04.05.05.08.01.03.03.07.02.1-.13.64-.26,1.29-.4,1.93-.06.26-.23.39-.53.4-.45,0-.9,0-1.35,0-.45,0-.9,0-1.35,0,0,0,0,.02,0,.02Z"/>
    <path class="cls-1" d="M98.09,179.39c.06-.04.11-.09.18-.1.42-.12.61-.42.65-.84.02-.21.02-.42.02-.62,0-1.97,0-3.95-.02-5.92,0-.31-.05-.62-.09-.93-.04-.26-.21-.43-.45-.52-.1-.04-.2-.06-.28-.11-.04-.02-.04-.11-.05-.17,0-.03.02-.07.05-.08.03-.02.06-.03.1-.03.9-.03,1.8-.05,2.7-.07.05,0,.11.06.13.11.04.07,0,.13-.08.16-.13.05-.26.1-.38.17-.2.1-.33.26-.35.48-.03.28-.05.55-.05.83,0,2.11,0,4.23.01,6.34,0,.21.02.42.06.62.02.09.11.17.19.22.09.05.2.07.3.07.62-.01,1.25-.01,1.87-.05.59-.04,1.05-.33,1.34-.86.17-.3.33-.61.51-.9.02-.03.12-.03.18-.02.02,0,.05.05.05.08-.03.24-.05.48-.1.71-.1.47-.21.94-.34,1.41-.04.14-.15.23-.3.25-.14.02-.28.03-.41.03-1.66,0-3.32,0-4.99,0-.13,0-.27-.03-.4-.07-.03-.01-.04-.11-.05-.17Z"/>
    <path class="cls-1" d="M72.47,172.1c-.27,0-.54-.02-.81,0-.68.07-1.17.39-1.35,1.09-.03.13-.09.25-.15.38-.01.03-.06.06-.08.05-.06-.02-.16-.05-.16-.08-.02-.45-.03-.9-.02-1.35,0-.45.08-.53.55-.56.93-.07,1.86-.14,2.8-.2.73-.05,1.45-.12,2.17-.17.28-.02.55,0,.83,0,.12,0,.22.09.23.17.08.58.12,1.17.03,1.75,0,.02-.05.03-.08.04-.08.04-.14.02-.17-.06-.09-.22-.18-.44-.27-.67-.13-.32-.38-.49-.7-.56-.38-.09-.76-.07-1.13,0-.17.03-.3.18-.31.36,0,.21-.01.42-.01.62,0,1.66,0,3.33,0,4.99,0,.1,0,.21,0,.31-.04.64.17,1.08.86,1.19.09.01.1.09.05.15-.02.03-.04.06-.06.08-.03.02-.07.03-.1.03-.9,0-1.8,0-2.7,0-.05,0-.11-.07-.16-.11-.07-.06-.02-.13.15-.19.1-.03.2-.05.3-.09.24-.1.39-.28.41-.55.02-.24.03-.48.03-.73,0-1.73,0-3.46,0-5.2,0-.24.04-.49-.14-.71Z"/>
    <path class="cls-1" d="M200.78,175.6c0,.76,0,1.52,0,2.28,0,.24.01.48.02.73.02.44.22.71.68.76.06,0,.13.05.18.08.02.01.03.05.03.08,0,.03-.01.07-.04.1-.02.02-.06.04-.09.04-.93.05-1.86.07-2.79-.02-.04,0-.08-.1-.11-.15,0-.01.04-.06.07-.07.09-.04.19-.07.29-.1.3-.09.45-.31.49-.61.03-.2.05-.41.05-.62,0-1.77,0-3.53,0-5.3,0-.1,0-.21-.03-.31-.03-.09-.1-.2-.17-.23-.51-.17-1.02-.15-1.53.02-.21.07-.34.23-.44.42-.12.24-.22.5-.34.75,0,.02-.06.04-.08.04-.05-.03-.12-.07-.15-.12-.03-.06-.04-.13-.04-.2.02-.45.05-.9.08-1.35.01-.19.16-.33.33-.33.1,0,.21,0,.31,0,1.83.14,3.66.27,5.48.41.34.03.47.17.5.54.02.24.03.48.03.73,0,.21-.02.41-.04.62,0,.02-.05.04-.07.05-.07.04-.14.04-.18-.04-.11-.25-.2-.51-.32-.76-.14-.29-.37-.5-.7-.56-.34-.06-.68-.12-1.02-.16-.23-.03-.38.13-.39.37-.01.83-.01,1.66-.02,2.49,0,.14,0,.28,0,.42h0Z"/>
    <path class="cls-1" d="M67.64,179.74c-.45-.03-.89-.05-1.34-.08-.02,0-.03-.06-.04-.09,0-.03,0-.07,0-.08.09-.05.18-.1.28-.12.4-.09.56-.36.6-.74.01-.17.01-.35.01-.52,0-1.55,0-3.11,0-4.66,0-.21,0-.42-.04-.62-.05-.29-.2-.51-.52-.56-.1-.01-.19-.06-.29-.09-.02,0-.06-.06-.05-.07.03-.06.06-.15.1-.15.96-.08,1.92-.15,2.89-.22.03,0,.08.03.08.04-.01.06-.02.14-.06.18-.04.05-.12.07-.18.09-.1.04-.2.05-.29.1-.19.1-.33.25-.36.47-.02.21-.04.41-.04.62,0,1.66,0,3.32,0,4.98,0,.21.02.41.03.62.02.23.17.37.37.46.09.04.2.06.3.08.1.02.18.05.22.15.03.08-.13.17-.34.17-.45,0-.9,0-1.35,0,0,.01,0,.02,0,.03Z"/>
    <path class="cls-1" d="M211.9,175.55c.06,1.27-1,2.82-2.82,2.84-1.58.01-2.9-1.18-2.9-2.88,0-1.7,1.31-2.9,2.89-2.89,1.8,0,2.92,1.53,2.84,2.93ZM208.89,177.98c.82,0,1.38-.24,1.82-.72.66-.72.94-1.76.47-2.78-.4-.89-1.09-1.42-2.09-1.43-1-.01-1.71.49-2.14,1.36-.41.83-.36,1.67.13,2.46.45.72,1.11,1.11,1.81,1.12Z"/>
    <path class="cls-1" d="M79.55,171.98c-.03.42-.1.79-.31,1.12-.18.3-.41.55-.68.77-.08.06-.17.1-.28.06-.08-.03-.07-.15.02-.26.18-.21.35-.42.52-.64.06-.08.09-.18.14-.28.1-.22,0-.41-.24-.44-.14-.02-.27-.01-.41-.04-.23-.04-.35-.21-.41-.42-.08-.29.06-.65.29-.82.49-.36,1.03,0,1.2.38.08.19.1.4.14.56Z"/>
    <path class="cls-1" d="M208.74,177.01c-.23,0-.44,0-.64,0-.11,0-.17-.1-.12-.21.21-.53.09-1.09.11-1.64.01-.38.05-.76-.13-1.12.06-.03.11-.1.17-.1.45,0,.89,0,1.34.01.42.02.88.56.59,1.07-.11.21-.27.39-.4.59-.02.2.13.31.22.45.17.26.35.5.52.76.05.07,0,.13-.09.16-.18.07-.36.03-.47-.11-.21-.27-.39-.56-.59-.84-.08-.11-.18-.2-.29-.28-.03-.02-.13.01-.18.05-.05.04-.08.12-.08.18,0,.24.02.48.04.72,0,.1,0,.19,0,.31ZM209.03,174.15c-.12-.01-.29.08-.31.19-.04.31-.07.62.02.92.02.07.14.14.23.16.13.03.28-.01.37-.13.24-.29.25-.64.05-.95-.08-.13-.2-.18-.37-.19Z"/>
  </g>
  <g>
    <g>
      <path class="cls-3" d="M139.6,25.93c-.11-.1-.15-.22-.14-.36,0-.13,0-.27.01-.4h-.04c.03.08.07.18.11.28.07.16.11.33.05.5,0,0,.02-.02.02-.02Z"/>
      <path class="cls-3" d="M139.46,25.17c-.07.01-.08.04-.03.09,0,0,.05-.03.04-.04,0-.02-.03-.04-.05-.06,0,0,.04,0,.04,0Z"/>
      <polygon class="cls-3" points="138.9 24.28 138.98 24.26 138.93 24.28 138.9 24.28"/>
    </g>
    <g>
      <path class="cls-3" d="M158.59,107.93c-.13-.14-.25-.29-.38-.43-.12-.14-.11-.29,0-.43h-.02c.51.24,1.04.31,1.61.23,1.84-.25,3.09-1.3,3.9-2.92.36-.72.55-1.49.62-2.29.13-1.36.01-2.69-.42-4-.62-1.89-1.5-3.65-2.73-5.22-1.15-1.47-2.56-2.62-4.22-3.46-2.15-1.09-4.41-1.81-6.79-2.16-1.51-.22-3.03-.3-4.56-.23-1.25.06-2.47.3-3.66.68-1.49.47-2.92,1.08-4.3,1.8-1.72.9-3.14,2.14-4.29,3.7-1.2,1.64-2.08,3.43-2.62,5.39-.41,1.49-.45,3.01-.1,4.52.25,1.07.74,2,1.51,2.8.86.89,1.92,1.34,3.14,1.42.34.02.68-.08,1.03-.1.08,0,.17.06.26.09-.12.21-.22.38-.33.56.05.1.09.19.13.29-.02-.01-.05-.03-.07-.04-.01,0-.02-.03-.02-.04.03.03.06.06.09.09.09-.1.17-.21.27-.3.25-.24.54-.45.74-.72.8-1.08,1.32-2.27,1.4-3.63.03-.55,0-1.11-.01-1.66,0-.28-.02-.55,0-.83.03-.34.49-.57.8-.42.03.02.06.03.09.05,1.81,1.08,3.2,2.53,3.98,4.52.79,2.04.62,4.01-.53,5.88-.59.97-1.42,1.69-2.41,2.23-1.05.57-2.16.93-3.33,1.13-.85.14-1.72.24-2.59.18-.55-.04-1.1-.09-1.65-.16-1.2-.15-2.4-.34-3.58-.64-1.87-.48-3.54-1.37-5.08-2.54-.8-.61-1.53-1.3-2.23-2.02-.39-.41-.69-.87-.91-1.38-.31-.7-.53-1.43-.65-2.18-.11-.68-.23-1.37-.22-2.07,0-.14-.02-.27-.04-.42-.07.03-.15.04-.16.06-.12.5-.27,1.01-.35,1.52-.12.75-.2,1.51-.27,2.27-.05.59.04,1.18.13,1.76.03.18-.03.34-.2.44-.18.11-.35.22-.53.32-2.54,1.39-5.22,2.37-8.09,2.85-1.92.32-3.85.46-5.8.37-1.01-.04-1.99-.25-2.94-.59-.62-.23-1.2-.54-1.74-.92-.89-.63-1.42-1.51-1.63-2.57-.13-.68-.19-1.37-.17-2.07,0-.1.02-.21.04-.31.06-.26.22-.45.47-.51.4-.09.82-.15,1.23-.2.21-.03.41.07.56.23.12.12.21.27.33.4.3.31.67.49,1.1.54.52.06,1.04.06,1.56-.03,2.57-.42,4.94-1.33,7.03-2.9,1.21-.9,2.21-1.99,3.03-3.25.75-1.16,1.43-2.37,2.07-3.6,1.63-3.13,3.15-6.33,4.55-9.57,1.93-4.45,3.82-8.91,5.72-13.37,4.78-11.25,9.55-22.51,14.32-33.76.51-1.21,1.02-2.43,1.53-3.64.12-.29.22-.58.37-.86.13-.24.3-.45.46-.68-.24-.36-.55-.64-.83-.94-.19-.2-.38-.4-.58-.6-.6-.58-.88-1.31-.99-2.12-.03-.24-.03-.48-.04-.73-.02-.66-.11-1.31-.3-1.95-.11-.37-.14-.75-.14-1.13,0-.66.23-1.22.7-1.68.17-.17.36-.32.53-.5.37-.41.45-.95.19-1.44-.15-.27-.34-.52-.52-.77-.16-.22-.36-.43-.51-.66-.31-.48-.45-1.01-.29-1.58.01-.06.09-.13.14-.13.09,0,.22,0,.28.05.1.09.18.21.22.34.21.57.6,1,1.08,1.36.19.14.38.3.56.46.67.6.76.75,1.05,1.66.07-.07.16-.12.19-.2.05-.13.08-.27.08-.4-.04-.75-.28-1.43-.81-1.98-.29-.3-.59-.58-.89-.88-.83-.84-1.04-2.11-.55-3.17.35-.75.93-1.19,1.72-1.37.13-.03.28-.03.41-.05.38-.06.51-.25.44-.66-.02-.14-.05-.27-.08-.41-.02-.1-.05-.2-.05-.31-.02-.25.02-.49.16-.7.33-.49.72-.93,1.22-1.26.03-.02.12.03.18.05.01,0,.02.07,0,.09-.21.27-.43.54-.64.81-.11.14-.18.3-.18.48,0,.34-.07.68.1,1.02.32.64.43,1.31.21,2.02-.02.06,0,.14,0,.21.01.17.36.44.54.4.06-.01.14-.05.17-.1.15-.23.28-.48.43-.71.15-.23.3-.47.47-.68.13-.16.31-.27.51-.33.09-.03.33.08.34.18.02.17.04.34.02.51-.04.31-.12.61-.15.92-.05.54.2.94.67,1.19.21.11.45.19.67.29.25.11.51.22.75.35.57.33.79.85.73,1.49-.03.31-.12.61-.15.92-.02.18.05.34.21.45.16.11.45.09.59-.04.1-.09.22-.19.28-.3.32-.57.64-1.15.95-1.73.12-.23.09-.47,0-.7-.09-.22-.18-.45-.26-.68-.01-.04.05-.1.08-.17.44.37.76.81.97,1.33.13.33.19.66.17,1.01-.03.48-.03.97-.03,1.45,0,.18.09.34.22.45.26.23.54.44.8.66.31.26.47.59.45,1-.01.24,0,.49-.04.73-.05.4.14.69.46.86.41.22.71.54,1.02.87.12.13.21.27.3.42.14.26.14.54-.03.79-.2.28-.42.55-.63.81q0,1.37-.83,2.59c-.06.09-.12.17-.17.26-.06.13-.08.26.03.39.35.41.3.9.27,1.38,0,.09-.09.19-.17.24-.14.09-.31.16-.47.22-.2.08-.34.23-.46.41-.24.34-.3.68-.14,1.07.35.83.69,1.66,1.03,2.5,2.81,6.82,5.59,13.65,8.43,20.46,3.3,7.89,6.65,15.76,9.98,23.64,1.13,2.68,2.26,5.36,3.41,8.03,1.1,2.58,2.35,5.09,3.57,7.62.66,1.38,1.49,2.66,2.43,3.87,1.26,1.61,2.78,2.88,4.66,3.73,1.36.61,2.74,1.16,4.22,1.43.31.06.62.08.93.12.39.04.75-.05,1.08-.28.31-.22.64-.42.97-.6.66-.34,1.34-.29,2.02-.06.28.09.46.3.52.6.15.74.07,1.45-.32,2.11-.37.63-.85,1.18-1.43,1.64-1.29,1.03-2.73,1.75-4.33,2.17-.88.23-1.77.33-2.68.31-1.04-.02-2.07-.09-3.11-.24-2.62-.39-5.14-1.12-7.57-2.15-.73-.31-1.44-.68-2.15-1.03-.09-.04-.18-.11-.26-.17-.11-.07-.17-.24-.12-.36.59-1.35.62-2.75.42-4.18-.12-.86-.24-1.72-.49-2.55-.02-.05-.09-.09-.14-.14-.13.22-.07.47-.09.7-.04.9-.18,1.79-.4,2.67-.15.57-.34,1.13-.63,1.65-.17.3-.34.61-.56.87-1.27,1.48-2.72,2.76-4.41,3.76-1.41.84-2.93,1.39-4.55,1.71-1.19.23-2.39.41-3.6.52-.82.08-1.66.07-2.49-.06-.75-.11-1.5-.24-2.23-.47-.63-.2-1.24-.45-1.81-.78-2.1-1.18-3.2-3-3.37-5.39-.07-.95.14-1.86.49-2.74.62-1.56,1.64-2.8,2.97-3.81.33-.25.68-.48,1.04-.69.36-.21.82.04.85.44.01.14.02.28.01.41,0,.28-.02.55-.04.83-.11,1.16.12,2.28.51,3.36.32.9.85,1.66,1.64,2.22.15.11.32.12.47.01-.02.02-.04.04-.06.06,0,.02,0,.04,0,.06.01-.04.03-.07.04-.11ZM150.29,83.35c.07,0,.14.01.2-.01.04-.02.06-.09.09-.14.1.03.2.02.27-.07.58-.83.62-1.91.09-2.72-.15-.23-.32-.45-.49-.67-.24-.33-.31-.69-.23-1.08.04-.17.09-.33.11-.5.03-.22-.08-.4-.29-.53-.02.35-.07.68-.22,1.01-.2.43-.14.88.08,1.3.18.33.39.66.57.99.15.27.29.55.42.83.09.19.09.4.02.61-.1.29-.21.58-.32.88-.11.05-.22.1-.33.14.08,0,.09,0,.03.05,0-.02-.01-.05-.02-.07ZM151.59,83.25s.04-.04.06-.06c.02.02.05.05.05.06-.02.07-.07.08-.13.01.08-.02.09,0,.03.03,0-.02,0-.04,0-.06ZM152.8,34.34s.03-.05.05-.07c.02.02.06.03.06.05,0,.08-.04.1-.12.06.08-.06.1-.05.06.03-.02-.02-.03-.05-.05-.07ZM141.68,22.88c.02.13.04.26.06.38.33.05.45.31.52.58.05.23.03.48.06.72.03.25.12.47.32.63.02.02.07.03.1.03.02,0,.07-.03.07-.05-.03-.2-.07-.4-.09-.6-.02-.24,0-.49-.03-.72-.02-.21-.14-.38-.29-.54-.2-.21-.41-.22-.64-.06q.11-.22-.09-.35c-.07-.07-.15-.15-.22-.22l-.02-.04s.05.02.05.02c.07.07.15.15.22.22ZM145.12,51.05c.06-.01.12-.03.18-.04,0,0-.18.04-.18.04,0,.06.02.13,0,.18-.04.09-.04.12.04.09,0,0-.02-.06-.02-.09,0-.06,0-.12,0-.18ZM149.47,77.37c-.28.01-.28.01-.33.23-.02.06-.02.13-.02.2l.04.03-.07-.04c.14,0,.22-.06.27-.19.03-.08.08-.16.13-.24,0-.08-.02-.15-.03-.23,0,.08.02.16.02.24ZM149.79,53.67c0,.18-.02.37.19.47-.03.38.13.69.33.99.01.02.06.02.09.03,0,.14-.03.28.01.4.14.39.29.78.46,1.16,2.37,5.46,4.74,10.92,7.11,16.38.91,2.1,1.82,4.19,2.73,6.28.1.22.18.45.26.68.02.05,0,.14-.05.18-.03.03-.13.05-.17.03-.68-.35-1.34-.72-2.02-1.06-1.07-.53-.83-.25-1.29-1.34-2.84-6.8-5.67-13.61-8.5-20.41-.55-1.31-1.09-2.62-1.64-3.93-.08-.19-.14-.39-.35-.52-.23.27-.31.61-.44.92-2.66,6.54-5.31,13.08-7.97,19.62-.7,1.73-1.39,3.47-2.11,5.19-.35.84-.16.65-1.02,1.24-.74.51-1.46,1.05-2.19,1.58-.19.14-.39.27-.63.44-.02-.15-.06-.26-.04-.34.08-.23.18-.45.28-.67,3.18-7.49,6.35-14.97,9.53-22.46.65-1.53,1.3-3.06,1.87-4.62.07-.2.15-.39.14-.6.06-.08.13-.15.17-.24.11-.24.2-.49.29-.75.02-.06.05-.12.07-.18.03-.08,0-.13-.06-.12-.02,0-.05.04-.04.06.02.09.05.18.07.27-.06,0-.15,0-.18.02-.21.28-.44.56-.29.95-.06,0-.16,0-.18.03-.17.34-.33.68-.48,1.03-3.88,9.14-7.77,18.29-11.64,27.44-.29.69-.64,1.29-1.22,1.77-.19.15-.35.34-.52.51-.67.7-1.3,1.44-1.83,2.26-.36.55-.7,1.11-.9,1.75,0,.03,0,.07.01.09.01.02.06.03.07.03.24-.16.36-.42.52-.63,3.12-4.21,7.3-6.69,12.41-7.68.58-.11,1.16-.17,1.75-.25.18-.03.32-.17.33-.34.02-.97.09-1.94-.11-2.9-.07-.32,0-.62.11-.91.04-.1.11-.18.16-.27.24-.43.42-.87.42-1.37,0-.21.07-.41.19-.58.08-.11.16-.22.24-.34.14-.21.2-.44.19-.69-.02-.31-.04-.62-.05-.93,0-.43.14-.82.44-1.13.04-.04.12-.05.18-.07.1.16.04.33.03.5,0,.17-.01.35,0,.52.02.26.18.44.38.59.08.05.26.04.28-.03.02-.07.05-.13.06-.2.07-.47.28-.84.68-1.12.26-.18.41-.47.54-.75.11-.23.17-.45.12-.7-.02-.1-.06-.2-.06-.3,0-.1.02-.2.06-.29.03-.07.24-.05.38.03.09.05.17.12.26.17.08.05.23,0,.26-.09.05-.16.11-.33.13-.5.03-.31.04-.62.06-.93.02-.36.15-.67.37-.95.04-.05.09-.11.15-.14.05-.03.12-.02.18-.01.02,0,.06.06.05.08-.16.45-.11.88.11,1.3.12.23.1.45.01.69-.08.23.03.4.3.47.12-.15.25-.31.4-.46.07-.07.17-.1.27-.14.08-.03.13.02.16.09.06.15-.04.26-.08.39-.14.41,0,.75.29,1.03.1.1.22.17.33.25.14.1.3.18.43.29.1.09.21.2.26.32.24.65.31,1.31-.17,1.87-.29.33-.39.72-.53,1.1-.05.14.05.26.16.35.07.05.14.05.17-.01.81-1.7.82-1.81,1.38-2.56-.02-.32-.04-.67-.05-1.01,0-.03.04-.08.06-.08.05.01.12.03.15.07.36.62.48,1.29.4,2-.05.43-.06.82.27,1.17.19.2.21.51.28.77.05.2.09.41.17.59.1.22.22.44.36.63.17.22.01.48.15.69.27.42.25.84.09,1.29-.13.36-.22.73-.3,1.1-.06.3-.08.62-.12.92-.02.13.08.3.2.32.1.02.2.04.31.05.93.08,1.85.28,2.75.53,4.31,1.22,7.83,3.61,10.52,7.2.19.25.37.5.57.74.03.03.12.02.18.02-.04.08-.06.16.05.2,0,0,.04-.05.04-.06-.03-.05-.07-.09-.11-.13,0-.37-.19-.66-.35-.96-.64-1.24-1.5-2.32-2.46-3.32-.89-.92-1.87-1.75-2.91-2.5-.26-.19-.47-.4-.58-.71-.06-.16-.13-.32-.2-.48-3.45-7.92-6.9-15.83-10.35-23.75-.15-.35-.31-.69-.48-1.03-.02-.04-.11-.06-.17-.08.01-.06.04-.13.03-.19-.04-.3-.19-.55-.37-.79-.02-.02-.06-.02-.09-.03.02-.19.05-.38-.19-.46-.01-.21,0-.42-.23-.54-.05-.05.07-.18-.09-.18.03.05.07.11.1.16.06.19.04.41.24.54ZM144.38,35.18c-.02.08.01.15.09.15.06,0,.13,0,.17-.04.04-.03,0-.1-.08-.11-.06,0-.13.01-.19.02,0-.03.01-.09,0-.1-.48-.37-.96-.74-1.44-1.1-.02-.01-.06,0-.08.02-.02.01-.04.06-.03.08.31.62.8.99,1.48,1.11.03,0,.07-.01.1-.02ZM142.71,27.1c-.03-.06-.05-.12-.08-.19-.02.02-.03.04-.05.06.05.03.1.07.16.1-.09.44-.2.86-.6,1.13-.05.04-.08.11-.12.17-.09.13-.06.25,0,.38.05.11.19.17.22.1.15-.27.33-.51.57-.7.1-.08.18-.23.19-.35,0-.27-.02-.54-.3-.71ZM146.24,75.55c.2.02.4.04.58.06.04-.06.07-.08.07-.12.07-.38,0-.75-.17-1.09-.14-.28-.29-.54-.43-.82-.16-.31-.27-.63-.28-.98,0-.14-.02-.27-.03-.41,0-.02-.05-.06-.05-.05-.05.04-.13.07-.14.12-.04.13-.08.27-.06.4.04.31.11.6.25.88.13.24.23.5.33.75.11.26.12.53.01.8-.06.16-.16.31-.08.49-.44-.17-.5-.15-.63.18-.06.16-.12.32-.2.47-.3.57-.37,1.17-.21,1.79,0,.04.07.06.12.11.02-.12.06-.22.06-.31.01-.71.24-1.34.65-1.91.08-.11.13-.23.19-.35ZM150.32,71.66c-.02.05-.05.11-.07.16-.04.09-.02.12.06.09,0,0-.02-.06-.01-.09,0-.06.02-.11.03-.17-.33-.14-.52-.44-.77-.66-.21-.19-.34-.45-.58-.77.05.7.18,1.26.52,1.76.37.53.39,1.08.15,1.66-.04.09-.03.2-.04.3-.25-.1-.46.05-.69.08-.07.13-.03.27.01.39.14.39.34.75.61,1.06.33.4.62.81.86,1.27.02.03.11.04.16.04.01,0,.04-.06.04-.09.07-.39-.06-.75-.26-1.07-.14-.23-.3-.46-.48-.67-.26-.31-.35-.66-.28-1.06.27-.22.43-.5.4-.87-.01-.2.02-.4,0-.6-.04-.34.12-.57.33-.79ZM150.19,26.03c.06-.02.14-.03.18-.08.15-.15.24-.34.24-.55,0-.27-.03-.55-.03-.82,0-.11.1-.16.21-.18.05.03.09.07.14.1v-.08s-.11.01-.16.02c.05-.1.05-.21-.03-.28-.18-.16-.36-.32-.57-.43-.35-.2-.59-.46-.64-.88,0-.02-.06-.04-.09-.04-.02,0-.05.03-.06.06-.12.39-.05.75.16,1.09.14.23.32.45.49.66.27.35.42.71.21,1.14-.04.08-.01.2-.02.3-.15-.01-.22.06-.21.21-.3.01-.6.02-.9.03-.01.21.05.37.15.51.23.3.45.62.73.86.44.39.86.79,1.15,1.31,0,.01.14,0,.16-.04.05-.08.1-.19.09-.28-.01-.32-.15-.6-.36-.84-.21-.23-.43-.45-.66-.65-.27-.25-.39-.55-.38-.92.14,0,.21-.07.21-.21ZM141.69,31.2c0,.06,0,.13,0,.19,0,.03,0,.07.02.09,0,.02.04.02.06.04.01-.06.04-.12.02-.17-.02-.05-.09-.09-.13-.13-.02-.2-.02-.41-.06-.61-.06-.27-.16-.53-.24-.79-.15-.49-.05-.96.2-1.39.12-.21.28-.39.4-.6.08-.15.13-.32.15-.48.02-.2.01-.41-.02-.62-.04-.24.19-.45.04-.71-.08.06-.19.11-.23.19-.15.28-.19.59-.2.9,0,.32-.09.61-.27.87-.06.09-.11.18-.17.26-.22.33-.28.7-.26,1.09.02.67.21,1.28.59,1.83.02.02.06.03.09.04ZM151.62,25.6s.08,0,.1-.01c.24-.23.48-.46.71-.68.02-.47.03-.91.05-1.35.16-.03.19-.15.18-.28,0-.05-.07-.09-.1-.14-.02.02-.04.05-.05.07-.04.12-.08.24,0,.37-.06-.03-.12-.06-.19-.08-.1-.02-.21-.04-.25-.15-.04-.09-.09-.19-.09-.29,0-.13.05-.27.08-.4.05-.2.24-.34.21-.57.06-.03.14-.04.16-.08.07-.18.13-.37.18-.55,0-.02-.02-.06-.04-.08-.01-.01-.06,0-.07,0-.16.21-.3.43-.21.72-.32.08-.48.35-.66.59-.19.27-.23.57-.08.87.04.09.08.19.13.28.27.45.25.91.07,1.38-.05.12-.07.26-.1.39-.13,0-.17.09-.18.2,0,.06.04.12.06.18.04-.03.1-.06.11-.1.01-.1,0-.2,0-.29ZM152.41,80.62c.14-.06.22-.16.23-.31.05-.49-.06-.96-.27-1.4-.25-.5-.1-.93.19-1.34.02-.03.12-.02.18-.03.06,0,.13-.01.2-.02.03-.39-.06-.73-.41-1.02-.21.44-.36.89-.63,1.29-.18.26-.18.58-.1.9.07.27.19.51.32.75.19.37.34.75.29,1.18.01.02.03.05.04.07,0,.02,0,.04,0,.06,0-.05-.02-.1-.03-.15ZM146.69,18.8c-.06.01-.15,0-.18.04-.13.15-.27.31-.37.49-.32.57-.23,1.25.2,1.71.24.25.48.49.71.73-.02-.07-.01-.08.03-.03-.02,0-.04,0-.07.01.07-.16.08-.33.04-.51-.03-.13-.04-.27-.05-.41,0-.08.11-.2.2-.2.1,0,.2.03.3.04.11.01.2-.09.17-.18-.1-.25-.2-.51-.32-.75-.03-.05-.11-.08-.17-.12-.04.17-.08.33-.14.49-.03.1-.24.2-.35.15-.09-.03-.19-.1-.23-.19-.1-.23-.08-.48-.02-.71.05-.2.14-.39.21-.58.05-.04.12-.06.14-.11.04-.07,0-.13-.08-.13-.02,0-.05.05-.05.08,0,.06.01.12.02.19ZM145.1,26.8c0-.07.01-.15.02-.22,0,.07-.02.15-.02.22.13.27.11.52,0,.8-.14.36-.34.68-.54,1-.27.44-.29.92-.13,1.4.03.08.14.14.25.23.02-.21.03-.38.05-.54.05-.7.37-1.25.88-1.71.25-.22.51-.35.84-.11.09.07.2-.01.21-.12.04-.28,0-.55-.13-.81-.14-.32-.35-.59-.57-.86-.29-.36-.48-.76-.52-1.22,0-.1-.04-.2-.07-.3-.07.04-.15.05-.18.1-.1.15-.14.32-.1.49.08.34.24.65.44.93.16.23.32.45.4.72.08.26-.08.61-.35.79-.08.05-.15.02-.16-.06-.02-.17-.03-.34-.04-.51-.02-.17-.12-.23-.28-.22ZM150.98,34.91c.07.01.15.05.2.03.65-.3.98-.84,1.08-1.53.07-.48-.12-.88-.44-1.23-.23-.25-.49-.49-.73-.74-.26-.27-.35-.59-.22-.95.04-.13.1-.26.11-.4.02-.25-.04-.48-.31-.64-.04.21-.05.42-.12.6-.07.19-.2.36-.29.55-.14.3-.12.61.06.89.17.26.36.5.56.75.21.27.45.53.65.8.28.37.27.78.04,1.16-.16.26-.38.49-.57.73v.04s-.03-.07-.03-.07ZM148.18,79.48c0,.08,0,.08-.03.02.02,0,.04.01.06.02-.27-.27-.51-.56-.66-.9-.19-.43-.22-.86.17-1.22.03-.02.05-.05.07-.07.3-.29.37-.65.29-1.03-.11-.57-.3-1.11-.71-1.55-.02-.02-.06-.02-.1-.03.09-.26-.08-.47-.12-.7,0-.06.03-.13.06-.19,0,0,.07,0,.09.03.51.47,1.01.93,1.34,1.56.01.02.06.04.09.05.02,0,.08-.02.08-.03,0-.31-.07-.6-.21-.89-.12-.25-.23-.5-.34-.75-.13-.29-.14-.6-.11-.92.02-.22.15-.38.29-.54.1-.11.24-.12.38-.12.06,0,.12-.04.18-.07,0-.19-.12-.32-.21-.46-.18-.26-.37-.5-.52-.78-.27-.51-.39-1.04-.09-1.58.03-.06.07-.12.1-.18.1-.23.09-.47.05-.71-.03-.16-.14-.22-.29-.23.02-.16.03-.33.05-.49.01-.1-.03-.14-.11-.09-.02.01-.02.06-.02.09.02.16.05.32.07.49.09.11.12.25.08.39-.05.16-.11.32-.2.47-.28.51-.31,1.04-.13,1.6.1.33.19.66.26,1,.07.34.04.69-.1,1.01-.03.06-.05.13-.09.18-.11.15-.26.22-.44.21-.15,0-.3-.18-.34-.34-.06-.31-.02-.61.09-.91.06-.16.09-.33.13-.49,0-.02-.03-.06-.05-.08-.01-.01-.06-.01-.07,0-.37.44-.56.92-.53,1.51.03.67.18,1.29.49,1.87.02.04.11.05.17.08,0,.1-.02.21,0,.3.08.26.19.51.27.77.12.42,0,.82-.18,1.19-.18.37-.57.47-.94.27-.31-.17-.41-.11-.45.23-.07.54.06,1.02.41,1.43.13.15.23.34.43.43.21,1.02.21,1.02-.08,2.03-.1.34-.17.67-.16,1.02,0,.1.03.2.06.3,0,.03.04.06.06.07.03,0,.09,0,.1-.03.19-.52.41-1.02.69-1.5.07-.12.13-.25.17-.38.06-.2.07-.42-.02-.61-.17-.38-.36-.74-.75-.96-.05-.2-.1-.4-.14-.6,0-.02.03-.06.06-.07.02-.01.07-.02.09-.01.21.22.4.46.62.67.18.17.39.28.65.23ZM148.5,78.69l.02-.03h0c-.06.22-.01.42.09.61.13.24.26.48.38.73.11.23.11.46.04.71-.1.34-.24.65-.46.92-.15.19-.32.36-.47.55-.47.59-.51,1.25-.34,1.96.03.11.2.22.33.19.8-.13,1.41-.52,1.72-1.31.09-.22.2-.44.08-.73-.11.18-.2.33-.3.49-.09.15-.23.25-.39.33-.23.1-.43.08-.57-.07-.13-.14-.14-.32-.09-.48.03-.13.1-.26.17-.37.11-.17.24-.34.36-.5.25-.35.35-.74.36-1.17,0-.5-.09-.96-.42-1.35-.11-.13-.21-.28-.32-.4-.04-.04-.12-.04-.18-.06ZM144.55,73.16c.05.08.04.09-.03.05.02-.01.05-.02.07-.04.04.24.07.47.12.71.13.56.06,1.1-.18,1.61-.1.22-.23.42-.34.64-.29.62-.32,1.26-.11,1.91.16.5.4.95.68,1.39.33.53.6,1.08.77,1.69.03.1.03.2.04.31.02.19-.22.38-.42.34-.21-.04-.38-.15-.54-.3-.36-.35-.56-.78-.65-1.27-.08-.41-.11-.82-.07-1.24.03-.35-.04-.69-.2-1-.03-.06-.16-.08-.28-.12-.06.55-.08,1.07-.05,1.58.07,1.06.39,2.03,1.11,2.84.44.49.92.94,1.45,1.32.16.12.33.07.48-.02.03,0-.18.06,0,.01-.09-.11-.14-.24-.14-.38.01-.38.02-.76.04-1.14.04-.78-.16-1.5-.59-2.16-.21-.32-.44-.62-.66-.93-.23-.34-.44-.7-.56-1.1-.09-.31-.11-.61,0-.91.09-.26.19-.52.29-.77.25-.59.28-1.2.26-1.83-.02-.48-.3-.83-.5-1.21ZM143.89,21.29c-.11-.17-.25-.33-.34-.51-.19-.39-.23-.78-.05-1.2.08-.19.12-.39.16-.59.02-.09-.05-.1-.14-.1-.19,0-.33-.09-.36-.29-.02-.1,0-.21-.03-.31-.01-.06-.07-.17-.08-.17-.09.02-.2.04-.26.11-.14.15-.26.32-.36.5-.14.24-.23.5-.19.78,0,.03.11.08.15.07.08-.02.15-.09.25-.15.02.13.05.23.05.33-.03.87.23,1.62.92,2.2.29.25.47.59.57.96.07.26.14.52.33.76.02-.27.04-.51.06-.74l-.02.02c.06.02.16.04.17.07.08.33.14.67.21,1.03.08-.05.2-.09.23-.17.16-.35.22-.73.14-1.11-.05-.24-.13-.47-.18-.7,0-.04.05-.1.1-.14.02-.02.07,0,.1.01.44.33.65.79.71,1.32.02.17,0,.35.03.52,0,.04.07.08.11.11.01,0,.06-.03.08-.05.35-.51.31-1.05.03-1.57-.13-.24-.32-.44-.5-.66-.31-.38-.55-.79-.6-1.29,0-.06-.06-.12-.09-.18-.03.05-.09.09-.1.14-.02.17-.02.34-.04.52,0,.13-.08.2-.18.21-.13.01-.2-.06-.25-.15-.07-.12-.12-.25-.14-.38-.04-.24,0-.48.08-.71.17-.49.33-.98.5-1.47.09-.23.11-.47.08-.71-.03-.2-.04-.41-.1-.61-.02-.08-.14-.13-.21-.2,0-.03,0-.06-.01-.09-.02-.08,0-.09.03,0,0,.02-.02.05-.03.08.16.8-.01,1.5-.54,2.13-.18.22-.25.48-.3.76-.07.38-.05.76.02,1.13.03.17.05.34-.05.5h.03ZM143.8,25.78s-.11-.14-.12.02c.05-.02.1-.04.15-.06-.12.16-.1.33-.03.49.2.46.08.89-.15,1.29-.13.24-.31.46-.47.68-.42.6-.44,1.23-.13,1.86.15.31.35.59.55.87.14.2.32.36.47.55.28.35.55.72.7,1.14.07.19.16.39.02.59-.1.15-.39.18-.68.09-.41-.14-.73-.39-.97-.74-.26-.38-.4-.8-.42-1.26,0-.24.02-.48,0-.73-.01-.17-.03-.35-.11-.5-.09-.18-.2-.37-.48-.32-.08.37-.05.75-.06,1.13-.03,1.07.36,1.95,1.14,2.68.69.64,1.47,1.14,2.33,1.54.03.01.07.03.1.02.05-.02.14-.06.15-.1.03-.52.05-1.03.07-1.55.02-.46-.1-.9-.37-1.27-.22-.31-.47-.59-.72-.88-.18-.21-.4-.38-.59-.59-.18-.21-.36-.42-.5-.66-.24-.38-.25-.79-.07-1.19.1-.22.23-.43.35-.63.18-.3.28-.64.33-.98.08-.57-.02-1.1-.49-1.5ZM149.26,24.88l.06-.04-.08.04c.08-.12.11-.26.01-.38-.13-.16-.27-.31-.41-.47-.16-.18-.34-.35-.49-.53-.32-.38-.42-1.03-.1-1.44.1-.13.19-.29.24-.45.07-.21,0-.4-.15-.57-.11-.13-.25-.07-.37-.07.12-.13.17-.27.14-.45-.01-.09-.05-.13-.12-.09-.02.01-.06.04-.06.06.01.16.03.32.05.48.17.11.2.28.14.45-.06.16-.15.31-.25.45-.33.46-.43.93-.13,1.45.18.3.27.64.32.98.05.32-.02.62-.18.9-.15.25-.54.37-.82.25-.23-.11-.36-.43-.26-.71.08-.23.2-.44.29-.66.05-.13.08-.26.1-.4,0-.02-.02-.08-.05-.08-.06-.01-.15-.03-.17,0-.14.19-.26.41-.41.59-.37.44-.4.95-.26,1.47.12.47.31.92.59,1.32.14.2.28.4.41.6.18.27.21.58.16.9-.09.54-.57.93-1.09.91-.23,0-.38-.14-.54-.28-.11-.1-.25-.04-.32.1-.03.06-.07.12-.09.19-.1.39-.03.76.24,1.07.21.23.45.43.66.66.31.32.42.71.33,1.15-.03.17-.09.33-.15.49-.06.16-.14.32-.2.48-.13.36-.2.73-.06,1.11,0,.02.05.04.07.04.03,0,.09,0,.09-.01.24-.5.51-.98.87-1.41.09-.1.16-.22.24-.34.18-.27.14-.54-.04-.77-.19-.24-.42-.45-.63-.68-.14-.15-.28-.31-.39-.48-.06-.11-.07-.25.1-.34.14.15.27.31.43.44.16.13.33.25.51.35.12.07.26.1.39.15.03,0,.07.01.09,0,.06-.05.06-.11,0-.17-.21-.23-.43-.45-.61-.7-.21-.29-.13-.69.15-.93.11-.09.22-.16.33-.24.21-.16.27-.39.26-.64,0-.36-.15-.67-.34-.96-.17-.26-.37-.5-.55-.75-.14-.2-.28-.4-.3-.65,0-.03.03-.06.05-.08.02-.02.07-.03.08-.02.31.22.61.45.92.66.32.22.59.47.79.81.07.11.17.21.29.36.02-.16.06-.26.04-.35-.08-.38-.26-.71-.49-1.02-.19-.25-.33-.52-.42-.83-.1-.35.07-.78.41-.98.23-.14.46-.14.65.09ZM105.14,107.95c.71,0,1.98-.15,2.54-.27,1.44-.31,2.75-.92,3.96-1.75,1.65-1.14,2.98-2.58,4.04-4.28.18-.29.33-.61.47-.92.34-.76.67-1.52,1.01-2.28,5.54-12.58,11.08-25.16,16.61-37.73,3.17-7.19,6.34-14.38,9.5-21.57.15-.35.31-.7.44-1.05.03-.07-.04-.19-.09-.27-.04-.06-.22.01-.26.1-.16.35-.32.69-.47,1.04-6.45,14.64-12.89,29.28-19.33,43.91-2.57,5.83-5.13,11.66-7.7,17.49-.2.44-.4.88-.67,1.29-.87,1.31-1.89,2.48-3.13,3.45-.65.52-1.35.97-2.1,1.34-1.55.77-3.19,1.14-4.92,1.08-1.04-.03-2.07-.19-3.06-.52-.39-.13-.79-.27-1.18-.39-.09-.03-.21-.03-.3-.01-.04,0-.08.09-.11.15-.01.03,0,.08.01.1.05.05.1.1.16.12,1.52.64,3.11.93,4.58,1ZM191.08,109.17c.33-.04.82-.06,1.29-.15.89-.18,1.72-.53,2.46-1.06.05-.04.11-.1.13-.16.02-.05.01-.14-.02-.17-.04-.04-.14-.08-.18-.06-.25.12-.49.25-.73.39-1.03.56-2.14.81-3.3.78-1.19-.03-2.33-.32-3.42-.8-1.05-.47-2.01-1.08-2.92-1.78-1.6-1.25-2.92-2.76-4.06-4.42-.47-.69-.88-1.41-1.21-2.17-1.12-2.57-2.25-5.14-3.37-7.71-7.61-17.34-15.21-34.68-22.82-52.02-.14-.32-.28-.63-.43-.94-.04-.09-.12-.16-.25-.12-.1.03-.16.15-.12.24.12.29.23.58.36.86,5.07,11.57,10.15,23.14,15.22,34.72,3.66,8.34,7.32,16.67,10.97,25.01.32.73.67,1.44,1.12,2.11.89,1.33,1.89,2.57,3.05,3.67,1.26,1.2,2.66,2.21,4.26,2.93,1.22.55,2.49.84,3.97.87ZM153.2,32.64c.04-.07.09-.12.1-.18.03-.24-.01-.48-.1-.71-.13-.33-.33-.6-.53-.88-.46-.66-.46-.86,0-1.48.1-.14.22-.27.31-.41.09-.15.16-.31.23-.46.08-.2.09-.4,0-.6-.1-.22-.21-.44-.29-.66-.06-.16-.05-.33.07-.48.03,0,.08,0,.1.01.43.28.87.56,1.3.83.02,0,.07,0,.07-.02.01-.06.04-.14,0-.18-.1-.14-.2-.28-.33-.4-.15-.14-.33-.25-.48-.4-.37-.35-.35-.61-.19-.92.08-.15.16-.31.23-.46.03-.06.02-.14.02-.2,0-.03-.01-.09-.03-.09-.05-.02-.13-.04-.16-.01-.29.29-.58.59-.93.82-.06.04-.1.09-.15.14-.38.39-.42.85-.13,1.32.07.12.17.22.25.33.22.31.21.65.08.99-.08.19-.21.36-.33.52-.14.2-.3.38-.43.58-.25.39-.23.78.03,1.16.06.08.12.17.2.24.44.37.7.84.92,1.36.04.09.11.16.18.26ZM148.6,30.31s-.05.06-.05.09c0,.1,0,.21.03.3.11.3.32.53.53.76.32.37.35.87.01,1.33-.14.19-.31.37-.49.53-.17.17-.38.3-.56.46-.36.32-.5.73-.47,1.21.01.17.06.34.1.51.02.11.2.22.32.21.48-.05.95-.16,1.39-.37.28-.14.53-.32.73-.56.27-.32.37-.65.33-1.19-.12.18-.22.32-.29.47-.24.46-.64.59-1.12.56-.31-.02-.48-.33-.32-.6.07-.12.14-.23.23-.33.16-.18.34-.34.51-.52.48-.51.48-1.49-.01-1.99-.27-.27-.52-.55-.79-.82-.02-.02-.06-.02-.09-.03ZM151.8,80.72c.08-.2.08-.41.02-.61-.09-.3-.21-.58-.33-.87-.08-.19-.18-.37-.27-.56-.17-.37-.17-.73.02-1.1.13-.24.27-.48.39-.73.2-.45.3-.91.06-1.39-.08-.15-.12-.32-.16-.49-.02-.1,0-.2,0-.3,0-.03.02-.09.04-.09.06-.02.15-.04.18-.01.29.24.57.49.86.74.07.06.13.06.17-.02-.04-.28-.22-.49-.38-.71-.15-.19-.29-.38-.42-.58-.09-.15-.11-.33-.06-.5.09-.3.19-.59.29-.88,0-.02-.01-.08-.03-.09-.06,0-.14-.03-.17,0-.25.28-.51.56-.74.86-.35.44-.38.95-.22,1.47.04.13.12.25.18.37.27.46.24.92.02,1.39-.13.28-.28.55-.43.82-.31.57-.32,1.14.06,1.66.35.48.58,1.01.8,1.55.01.03.06.04.1.06ZM154.03,32.72c.2-.37.29-.66.24-.98-.06-.34-.11-.69-.34-.97-.28-.33-.2-.63.03-.94.08-.11.17-.22.24-.32.27-.05.28.3.51.29.12-.3-.03-.54-.16-.78-.12-.2-.22-.44-.57-.49.01.48-.26.83-.59,1.15-.05.05-.09.11-.13.16-.18.25-.21.52-.08.79.09.19.19.38.32.53.35.39.47.84.44,1.34,0,.03.02.06.09.22ZM143.83,74.99c-.03.2-.03.37-.08.52-.08.19-.2.35-.3.53-.05.09-.11.18-.13.27-.02.1-.02.2,0,.3,0,.05.06.1.11.15.01.01.09-.01.09-.03.07-.32.33-.51.48-.78.19-.34.15-.65-.16-.96ZM144.04,82.57c0,.12-.04.22,0,.3.28.55.72.92,1.29,1.13.02,0,.06-.01.08-.04.01-.01.02-.06,0-.07-.45-.43-.9-.86-1.38-1.31ZM149.43,30.03s.07,0,.08-.03c.2-.27.3-.59.38-.91,0-.01-.04-.05-.07-.06-.03,0-.08,0-.09.02-.12.2-.25.39-.34.6-.04.08,0,.2,0,.29,0,.03.03.06.05.08Z"/>
      <path class="cls-3" d="M196.17,48.69c0,.07-.03.15,0,.2.52.73.67,1.59.78,2.45.18,1.41.31,2.82.45,4.23.11,1.1.22,2.2.33,3.31.08.83.16,1.65.22,2.48.1,1.14.18,2.28.28,3.42.1,1.21.22,2.41.32,3.62.09,1.03.18,2.07.26,3.1.09,1.07.18,2.14.28,3.21,0,.07.04.13.07.25.11-.37.08-.71.11-1.04.02-.28.03-.55.08-.83.1-.59.7-1.02,1.29-.93.72.11,1.43.25,2.14.38,1.67.31,3.33.62,5,.93,1.02.19,2.04.38,3.06.57.17.03.34.03.51.02.05,0,.12-.08.13-.13.02-.17.04-.34.03-.51-.08-1.35-.17-2.69-.26-4.04-.04-.66-.09-1.31-.13-1.97-.11-1.66-.22-3.32-.33-4.97-.01-.17-.03-.35-.04-.52-.08-1.56-.15-3.11-.26-4.67-.09-1.24-.22-2.48-.35-3.72-.07-.65-.18-1.3-.26-1.95-.13-1-.58-1.84-1.31-2.53-.2-.19-.4-.38-.6-.58-.07-.07-.12-.17-.17-.26-.07-.13-.03-.38.07-.49.2-.21.45-.33.71-.41.4-.12.8-.24,1.22-.25.35,0,.69-.03,1.04-.04.52-.02,1.04,0,1.52.23.06.03.14,0,.2,0,.01.03.02.06.04.08,0,0,.06,0,.06-.01,0-.08-.04-.1-.11-.05.12-.21,0-.4-.08-.59-.07-.18-.04-.34.1-.47.58-.55,1.15-1.11,1.75-1.63,1.02-.89,2.1-1.71,3.25-2.42,1.3-.81,2.67-1.47,4.16-1.85,1.99-.51,3.97-.53,5.95.07.47.14.91.33,1.34.56,1.66.93,2.59,2.35,2.9,4.21.05.27.07.55.1.83.07.74-.07,1.46-.41,2.11-.61,1.15-1.53,1.95-2.78,2.36-.47.15-.95.19-1.44.14-.99-.1-1.87-.48-2.61-1.17-.31-.29-.53-.63-.65-1.05-.09-.33,0-.64.3-.8.58-.32,1.16-.63,1.82-.74.2-.03.39-.13.58-.2.03-.01.04-.05.08-.11-.32-.11-.63-.22-.96-.33-.02-.19-.03-.36-.05-.54-.03-.3-.19-.52-.41-.69-.25-.2-.53-.34-.84-.4-1.15-.23-2.21-.05-3.12.72-.39.34-.77.71-1.11,1.09-1.04,1.17-1.94,2.44-2.76,3.77-.23.36-.34.75-.35,1.18-.03,1.53-.03,3.05.14,4.57.02.21.05.41.06.62.14,1.62.27,3.25.4,4.87.1,1.28.18,2.56.28,3.84.1,1.28.2,2.56.29,3.84.02.21.04.41.05.62.05,1.49.24,2.97.41,4.45.1.89.18,1.79.28,2.69.08.76.16,1.52.25,2.27.1.86.24,1.72.31,2.58.1,1.18.34,2.33.55,3.49.45,2.45.92,4.9,1.41,7.35.63,3.13,1.37,6.22,2.44,9.23.9,2.52,1.97,4.95,3.29,7.28.72,1.27,1.51,2.49,2.41,3.64.47.6.98,1.17,1.53,1.7.81.78,1.74,1.37,2.82,1.71.3.09.59.2.87.34.21.11.4.27.58.43.22.2.21.55,0,.74-.15.14-.31.27-.49.38-.83.53-1.73.87-2.68,1.08-1.86.41-3.65.18-5.39-.55-2.61-1.11-4.74-2.84-6.46-5.08-1.21-1.58-2.14-3.31-2.92-5.14-.87-2.05-1.5-4.17-2.03-6.32-.61-2.45-1.11-4.93-1.52-7.43-.37-2.29-.73-4.58-1.03-6.88-.25-1.85-.51-3.71-.75-5.56-.1-.79-.18-1.58-.27-2.38-.04-.37-.16-.5-.49-.56-.89-.16-1.77-.31-2.66-.46-1.67-.29-3.34-.59-5.01-.89-1.33-.24-2.66-.49-3.98-.72-.17-.03-.34-.02-.52-.02-.08,0-.2.12-.19.21.02.45.03.9.05,1.35.04.62.08,1.24.12,1.87.11,1.69.22,3.39.34,5.08.01.17.03.35.04.52.09,1.45.17,2.91.27,4.36.06.79.15,1.58.33,2.36.21.93.6,1.77,1.22,2.49.16.18.29.39.43.58.06.09.04.31-.04.39-.1.1-.19.21-.31.28-.27.16-.54.31-.83.44-2.92,1.27-5.85,2.53-8.83,3.64-.45.17-.92.29-1.39.42-.1.03-.2.02-.31.03-.12,0-.27-.18-.22-.29.14-.28.27-.56.43-.83.43-.71.88-1.41,1.3-2.13.48-.84.96-1.69,1.4-2.55.25-.49.45-1.01.64-1.53.2-.55.32-1.13.35-1.73.07-1.73.06-3.47-.14-5.19-.15-1.27-.3-2.55-.42-3.82-.11-1.14-.18-2.28-.28-3.42-.1-1.21-.21-2.42-.32-3.62-.08-.9-.16-1.79-.23-2.69-.1-1.17-.18-2.35-.27-3.52-.11-1.31-.22-2.62-.33-3.94-.01-.17-.03-.35-.05-.52-.14-1.76-.28-3.52-.4-5.29-.1-1.31-.16-2.63-.26-3.94-.15-1.87-.35-3.73-.74-5.56-.09-.44-.17-.88-.19-1.34-.06-1.18-.3-2.33-.56-3.48-.03-.15-.08-.32-.27-.38-.18.28-.08.7-.48.88-1.23-.83-2.55-1.5-3.95-2.03-.88-.33-1.78-.57-2.71-.71-.73-.11-1.45-.09-2.17.08-.73.17-1.37.49-1.9,1.02-1.57,1.57-2.57,3.43-2.87,5.64-.48,3.53.8,6.38,3.4,8.71.62.56,1.35.95,2.18,1.16.81.21,1.58.13,2.34-.16.39-.14.75-.35,1.12-.54.18-.09.35-.22.54-.31.22-.11.46-.14.71-.12.39.03.66.3.64.68-.03.41-.05.83-.14,1.24-.22,1.02-.55,2-1.06,2.92-.4.73-.9,1.4-1.53,1.96-.94.84-2.04,1.28-3.3,1.35-1.27.07-2.48-.2-3.63-.73-1.05-.48-1.97-1.15-2.81-1.94-1.61-1.53-2.78-3.36-3.6-5.41-.68-1.69-1.07-3.44-1.07-5.26,0-.76-.02-1.53.02-2.29.14-2.51.65-4.94,1.67-7.25.94-2.14,2.32-3.93,4.18-5.35,1.24-.94,2.61-1.56,4.14-1.84.78-.14,1.58-.18,2.38-.16,1.67.05,3.3.34,4.9.83,1.26.39,2.48.88,3.66,1.46,1,.49,1.98,1,2.97,1.49.84.41,1.69.8,2.54,1.18.67.3,1.36.5,2.08.65.55.12,1.1.14,1.65.07.81-.1,1.54-.43,2.13-1,.34-.34.64-.72.96-1.09.23-.26.44-.53.69-.77.35-.34.71-.29.95.11.12.21.25.42.33.65.69,1.8.69,3.6-.14,5.35-.76,1.6-2.02,2.61-3.75,3.02-1.2.29-2.4.27-3.61.1-.38-.05-.75-.15-1.13-.09,0,0-.02-.02-.02-.02h.04Z"/>
      <path class="cls-3" d="M286.21,57.33c.36,1.14.73,2.26,1.08,3.38.43,1.39.72,2.82.98,4.25.22,1.23.38,2.46.53,3.7.04.34.06.69.08,1.04.12,2.04.12,4.09-.02,6.13-.2,2.95-.64,5.85-1.62,8.65-.12.33-.24.65-.37.97-.97,2.49-2.59,4.48-4.72,6.08-1.64,1.23-3.48,2-5.51,2.26-.96.12-1.94.11-2.91.01-1.35-.14-2.66-.45-3.91-.99-.61-.26-1.19-.56-1.74-.92-.15-.09-.29-.19-.47-.19-.2.15-.27.39-.4.59-.77,1.17-1.85,1.83-3.24,2.01-1.09.14-2.14,0-3.16-.42-.78-.31-1.49-.74-2.14-1.26-1.26-1-2.32-2.18-3.13-3.58-.6-1.02-1.1-2.08-1.56-3.17-.63-1.47-1.19-2.96-1.72-4.46-.38-1.08-.83-2.13-1.43-3.11-.42-.68-.88-1.33-1.45-1.89-.34-.34-.71-.66-1.13-.91-.3-.18-.61-.32-.94-.42-.82-.24-.91-.18-.89.65.02,1.07.03,2.15.09,3.22.11,1.93.1,1.77,1.03,3.31.2.33.42.64.62.96.1.18.19.37.25.57.17.56-.06.73-.53.73-2.08-.03-4.16.02-6.23-.21-.14-.02-.28-.03-.41-.05-.26-.04-.41-.25-.37-.53.02-.14.03-.28.07-.41.37-1.17.44-2.38.43-3.6-.02-1.63-.05-3.26-.19-4.88-.02-.21-.04-.41-.05-.62-.09-1.7-.18-3.39-.28-5.09-.09-1.52-.21-3.04-.32-4.56-.02-.28-.05-.55-.05-.83,0-.9-.31-1.69-.83-2.42-.24-.34-.5-.66-.75-1-.08-.11-.14-.23-.21-.35-.04-.06.03-.23.11-.26.16-.06.32-.14.49-.16.69-.05,1.38-.07,2.07.1.1.02.21.03.31.06.57.17,1.15.25,1.74.07,1.38-.1,2.77-.12,4.15.02.79.08,1.58.21,2.36.35,2.28.43,4,1.66,5.13,3.69.5.91.94,1.86,1.1,2.9.22,1.42.17,2.83-.29,4.21-.22.67-.57,1.26-1.06,1.77-.6.63-1.27,1.17-2.07,1.55-.12.06-.24.13-.36.2-.08.04-.09.19-.03.27.04.06.08.11.12.17.11.14.22.27.33.4.88,1.13,1.59,2.35,2.1,3.69.9,2.37,2.07,4.61,3.42,6.76.52.82,1.09,1.6,1.74,2.33.61.69,1.35,1.18,2.22,1.48.07.02.13.05.19.07.93.31,1.84.27,2.73-.15.31-.15.36-.27.19-.56-1.32-2.17-2.35-4.48-3.28-6.83-.56-1.42-.95-2.9-1.26-4.39-.38-1.8-.67-3.61-.89-5.43-.2-1.62-.37-3.24-.31-4.87.06-1.59.14-3.18.3-4.77.13-1.21.28-2.41.49-3.6.34-1.88.85-3.71,1.67-5.45,1.02-2.17,2.45-4.01,4.38-5.45,1.31-.98,2.77-1.54,4.38-1.76,3.07-.41,5.92.27,8.6,1.75.82.46,1.56,1.03,2.23,1.69.15.15.29.3.44.44.11.1.25.13.38.08.61-.25,1.23-.47,1.86-.66,1.58-.47,3.18-.66,4.82-.55.98.07,1.91.32,2.78.77.94.48,1.72,1.15,2.37,1.99.86,1.12,1.39,2.39,1.72,3.75.06.27.08.55.08.83.02,1.79-.3,3.52-.89,5.2-.17.49-.39.96-.68,1.4-.08.11-.17.22-.26.32-.13.14-.44.11-.56-.05-.17-.23-.24-.49-.27-.77-.13-1.01-.45-1.96-.87-2.87-.27-.6-.62-1.16-1.08-1.65-.51-.54-1.11-.94-1.86-1.05-.14-.02-.27-.07-.41-.09-.94-.13-1.86-.16-2.77.17-.14.05-.23.15-.28.26ZM265.94,57.37c-.06.07-.12.11-.14.17-.21.59-.3,1.21-.4,1.82-.25,1.47-.32,2.96-.4,4.45-.14,2.5.02,4.99.23,7.48.13,1.48.3,2.96.53,4.44.26,1.68.6,3.34,1.06,4.97.68,2.4,1.84,4.55,3.36,6.51.47.61,1,1.15,1.62,1.6,1.2.88,2.55,1.2,4.02,1.03.24-.03.48-.09.72-.12.88-.13,1.65-.5,2.33-1.06.38-.31.71-.66,1.01-1.04.61-.76,1.09-1.61,1.48-2.5,1.01-2.31,1.57-4.73,1.67-7.25.1-2.57-.08-5.13-.25-7.69,0-.1-.03-.21-.03-.31-.1-1.1-.2-2.21-.32-3.31-.1-.93-.21-1.86-.35-2.78-.12-.82-.3-1.63-.44-2.45-.02-.13-.02-.27.08-.39.55-.67,1.14-1.3,1.84-1.82.45-.33.89-.66,1.34-.99.25-.18.51-.36.76-.55.02-.01.03-.08.02-.09-.05-.04-.11-.09-.16-.08-.17.03-.34.06-.5.12-1.6.57-3.16,1.24-4.64,2.07-1.09.61-2.2,1.18-3.33,1.7-1.23.56-2.48,1.07-3.78,1.44-.97.28-1.95.5-2.96.48-1.74-.03-3.04-.82-3.82-2.41-.11-.22-.18-.45-.26-.68-.2-.6-.24-1.22-.25-1.85,0-.3.07-.6-.04-.91ZM269.32,58.39c.08,0,.18-.02.28-.04.38-.05.74-.19,1.08-.34.69-.31,1.35-.69,1.99-1.1,1.72-1.09,3.35-2.33,4.94-3.6.08-.06.15-.14.23-.21.09-.08.1-.28.02-.38-.16-.18-.3-.38-.49-.53-.91-.78-1.96-1.29-3.11-1.58-2.02-.51-3.83-.08-5.42,1.26-.94.79-1.62,1.78-2.13,2.9-.07.16-.1.33-.05.51.21.7.47,1.37.88,1.98.21.32.47.6.78.82.29.21.62.29,1,.32ZM245.22,63.18c.06.17.13.36.2.55.2.52.34,1.05.4,1.6.12,1.1.22,2.2.22,3.31,0,.69.02,1.38.03,2.07,0,.21,0,.41.02.62.01.21.17.37.4.41.14.02.27.05.41.05.52.01,1.04.02,1.55.02.45,0,.89-.1,1.32-.22.9-.25,1.51-.81,1.78-1.71.05-.16.09-.33.12-.5.22-1.04.1-2.06-.17-3.07-.12-.47-.3-.92-.54-1.34-.41-.76-1.02-1.3-1.83-1.61-1.12-.42-2.27-.57-3.46-.44-.17.02-.34.07-.47.26Z"/>
      <path class="cls-3" d="M35.48,74.78c-.03.22-.07.42-.07.62,0,2.32-.01,4.65.12,6.97.03.59.07,1.18.07,1.77.01,1.15.12,2.29.24,3.42.12,1.07.37,2.11.84,3.09.12.25.23.5.33.76.09.24-.02.6-.25.74-.23.14-.48.27-.74.38-1.63.68-3.26,1.37-4.9,2.02-2.64,1.05-5.29,2.06-7.93,3.09-.29.11-.59.21-.88.31-.12.04-.3-.07-.32-.19-.08-.4-.03-.75.31-1.03.86-.71,1.63-1.5,2.33-2.37.9-1.11,1.64-2.31,2.13-3.67.32-.88.5-1.79.58-2.73.24-3.15.22-6.3.25-9.46,0-.24.01-.49,0-.73-.01-.32.14-.52.4-.68.26-.16.52-.34.78-.52.02-.02,0-.11-.01-.2-.52.03-1.03.05-1.55.12-.51.06-1.04.09-1.55.11-.21.01-.41-.01-.62-.03-.28-.02-.42-.2-.51-.45-.09-.26,0-.49.17-.67.11-.12.27-.22.42-.3.55-.3,1.1-.58,1.65-.88.18-.1.37-.2.54-.31.12-.08.2-.19.21-.34.01-.1.02-.21.02-.31.18-4.37.23-8.73.15-13.1-.02-1.42-.11-2.84-.21-4.26-.04-.62-.19-1.23-.29-1.84-.02-.1-.05-.2-.07-.3-.14-.59,0-1.1.45-1.51.08-.07.15-.15.22-.22,1.96-1.86,3.92-3.72,5.88-5.58.33-.31.67-.6,1.01-.89.1-.09.23-.15.35-.21.1-.05.3.02.36.12.12.18.16.39.13.6-.05.41-.1.83-.18,1.23-.18.92-.34,1.84-.44,2.77-.05.55-.13,1.1-.14,1.66-.06,3.99-.06,7.97.14,11.96.05,1.04.06,2.08.11,3.12.04.72.12,1.45.19,2.17,0,.04.1.09.16.09.06,0,.13-.03.19-.06.15-.09.29-.19.43-.29,2.99-2.17,5.67-4.66,7.89-7.64,1.5-2.01,2.74-4.16,3.64-6.51.4-1.04.72-2.1.91-3.19.22-1.24.28-2.48.06-3.72-.29-1.63-1.06-2.99-2.41-3.99-.99-.74-2.11-1.19-3.3-1.45-.68-.15-1.36-.23-2.06-.26-1.99-.08-3.94.16-5.88.56-3.16.66-6.23,1.61-9.27,2.68-4.67,1.64-9.24,3.55-13.74,5.62-.25.12-.5.23-.76.34-.27.11-.54-.01-.7-.29-.08-.14-.07-.38.03-.49.07-.07.14-.15.23-.21.14-.1.3-.18.45-.26,5.97-3.44,11.97-6.84,18.04-10.09,1.89-1.01,3.8-2.01,5.74-2.92,1.48-.69,3-1.24,4.59-1.63,2.24-.55,4.52-.67,6.81-.51.41.03.82.12,1.23.22.94.23,1.87.52,2.75.93,3.6,1.64,5.88,4.41,6.97,8.19.44,1.51.54,3.06.53,4.63-.01,1.58-.32,3.09-.82,4.58-1.03,3.08-2.55,5.91-4.45,8.54-1.18,1.63-2.48,3.16-3.91,4.59-.39.39-.76.81-1.15,1.2-.47.46-.93.93-1.44,1.36-2.45,2.08-5.12,3.79-8.14,4.93-.52.2-1.05.36-1.57.54-.26.09-.52.17-.81.27Z"/>
      <path class="cls-3" d="M20.13,116.97c-1.59,0-2.87-.04-4.14-.24-2.71-.43-5.22-1.34-7.44-3-1.87-1.4-2.91-3.3-3.28-5.59-.46-2.76.21-5.29,1.6-7.67.65-1.12,1.49-2.09,2.45-2.95,2.32-2.07,5-3.46,8.03-4.17.44-.1.89-.16,1.34-.15.57.02.89.63.61,1.14-.14.25-.35.43-.55.62-1.1,1.03-2.01,2.2-2.77,3.49-.53.9-.95,1.85-1.23,2.85-.22.77-.35,1.55-.34,2.36,0,.89.35,1.61.97,2.22.37.37.82.64,1.28.88.72.36,1.48.6,2.25.77,1.19.26,2.38.43,3.6.48,1.73.07,3.47.08,5.2-.03,2.56-.16,5.11-.41,7.61-1.04,2.22-.56,4.38-1.29,6.5-2.15,2.18-.89,4.32-1.88,6.43-2.91,1.84-.89,3.67-1.79,5.51-2.68.28-.14.57-.25.85-.4.52-.27.63-.17.95.24.95,1.24,1.97,2.42,3.05,3.54.1.1.07.28-.05.35-.06.03-.12.07-.18.1-2.09,1.02-4.08,2.2-6.09,3.37-4.79,2.81-9.78,5.2-15.01,7.08-2.81,1.01-5.68,1.77-8.59,2.4-1.46.31-2.92.58-4.4.78-1.48.19-2.96.34-4.15.3Z"/>
      <path class="cls-3" d="M245.19,91.6c.35.15.74.3,1.11.48,4.01,1.88,8.03,3.75,12.03,5.65,1.06.5,2.09,1.09,3.12,1.66,2.64,1.46,5.25,2.95,7.9,4.39,2.52,1.37,5.1,2.64,7.77,3.73,1.57.64,3.17,1.21,4.82,1.6,1.02.24,2.04.42,3.08.41.93,0,1.87,0,2.8-.07,1.18-.09,2.33-.33,3.43-.78.58-.24,1.13-.53,1.62-.92,1.16-.91,1.75-2.12,1.83-3.58.07-1.16-.19-2.27-.52-3.37-.53-1.74-1.4-3.31-2.58-4.71-.18-.21-.36-.42-.51-.65-.12-.18-.13-.4-.05-.6.09-.2.23-.35.46-.37.32-.03.62.03.92.12,1.63.45,3.07,1.26,4.36,2.34,1.79,1.49,3.13,3.32,4.03,5.47.41.96.64,1.97.76,3.01.14,1.18.11,2.35-.04,3.52-.21,1.52-.64,2.98-1.43,4.31-.25.42-.52.82-.82,1.2-.77.97-1.74,1.68-2.9,2.12-2.06.77-4.18,1.21-6.39,1.25-2.45.04-4.83-.34-7.18-.96-4.21-1.11-8.19-2.76-11.9-5.05-2.39-1.47-4.71-3.05-6.97-4.72-1.87-1.38-3.72-2.77-5.59-4.15-1.03-.76-2.1-1.47-3.2-2.12-2.69-1.58-5.37-3.17-8.06-4.74-1.08-.63-2.18-1.22-3.26-1.82-.15-.08-.3-.17-.45-.26-.08-.05-.14-.21-.09-.27.54-.71,1.1-1.42,1.75-2.04.02-.02.06-.03.13-.05Z"/>
      <path class="cls-3" d="M72.07,108.25c-1.37.03-2.68-.29-3.96-.75-.75-.27-1.48-.6-2.18-.97-2.9-1.55-5.47-3.51-7.64-5.99-.89-1.02-1.73-2.07-2.49-3.19-1.94-2.87-3.83-5.77-5.6-8.75-1.48-2.5-2.81-5.09-4.08-7.71-.93-1.93-1.84-3.88-2.75-5.82-.12-.25-.22-.51-.32-.76-.04-.11,0-.2.05-.29.02-.03.04-.06.07-.08,1.1-.86,1.99-1.92,2.86-3,.56-.7,1.11-1.41,1.68-2.12.08-.11.19-.2.3-.27.04-.02.16,0,.18.04.11.21.21.43.3.66.86,2.27,1.86,4.47,2.96,6.63,2.7,5.3,5.95,10.23,9.85,14.73.86,1,1.76,1.95,2.66,2.92,1.56,1.68,3.23,3.24,5.02,4.67.27.22.52.46.78.69,1.24,1.12,2.6,2.07,4.1,2.81,1.35.67,2.77,1.09,4.27,1.18.41.03.83,0,1.24,0,.21,0,.41.02.61.11.22.11.37.35.33.59-.06.42-.25.79-.49,1.14-.56.81-1.27,1.47-2.12,1.96-1.15.65-2.36,1.15-3.66,1.43-.65.14-1.3.15-1.96.17Z"/>
      <path class="cls-3" d="M108.92,51.52c.48.45,1.11.32,1.61.64.02.1.07.23.07.36-.07,2.15-.15,4.29-.22,6.44-.01.35-.04.69-.05,1.04-.08,4.61-.28,9.21-.33,13.82-.02,1.98.38,3.85,1.15,5.66.12.28.2.58.29.88.04.14-.13.36-.29.37-.14.01-.28.03-.41.03-2.39,0-4.78,0-7.17,0-.24,0-.48-.03-.72-.05-.09,0-.25-.2-.25-.3,0-.17,0-.35.05-.51.14-.43.27-.86.46-1.27.49-1.05.73-2.17.9-3.29.27-1.71.42-3.43.47-5.17.07-2.35.21-4.71.31-7.06,0-.21.02-.42.03-.62.09-2.67.18-5.33.27-8,.02-.66.04-1.32.05-1.97,0-.14-.14-.27-.27-.25-.41.08-.82.15-1.22.24-2.13.46-4.28.8-6.45,1.06-1.17.14-2.35.21-3.52.29-1.46.11-2.91,0-4.33-.34-.71-.17-1.39-.43-1.98-.88-1.14-.88-1.72-2.05-1.66-3.51.01-.35.11-.69.27-.99.56-1.07,1.44-1.76,2.62-2.04.2-.05.41-.04.62-.03.42.02.71.36.66.77-.02.17-.07.34-.11.5-.11.41-.14.82-.1,1.24.04.45.25.79.64,1.01.4.23.83.35,1.27.42.82.13,1.65.21,2.48.17,1.14-.05,2.28-.14,3.41-.32,1.47-.23,2.91-.61,4.35-1,2.8-.76,5.57-1.66,8.35-2.51,2.35-.72,4.7-1.43,7.07-2.06.87-.23,1.76-.38,2.66-.47,1.18-.13,2.35-.02,3.49.33,1.16.36,1.98,1.09,2.51,2.18.28.57.45,1.17.55,1.78.13.86.12,1.73.03,2.59-.03.28-.14.53-.31.76-.23.31-.75.34-1.01.06-.07-.08-.14-.16-.2-.24-.12-.17-.24-.34-.36-.51-.93-1.3-2.22-1.83-3.78-1.74-1.49.09-2.96.3-4.42.58-1.73.33-3.45.75-5.15,1.22-.27.07-.53.17-.79.25-.23.07-.46.14-.69.21-.26.08-.51.15-.83.25Z"/>
      <path class="cls-3" d="M88.87,89.24c-.54-.37-2.13-1.76-2.53-2.21-.04-.04-.03-.12-.05-.22.15-.07.3-.15.47-.2,2.84-.88,5.71-1.67,8.64-2.24,1.7-.33,3.42-.55,5.15-.63,1.46-.07,2.91.07,4.31.53.63.21,1.22.49,1.77.86,1.39.93,2.24,2.23,2.62,3.85.4,1.7.15,3.3-.71,4.81-.91,1.6-2.17,2.86-3.72,3.84-1.28.8-2.66,1.33-4.13,1.63-1.4.28-2.81.32-4.24.28-1.77-.06-3.4-.55-4.99-1.29-1.83-.86-3.5-1.97-5.07-3.23-1.08-.87-2.1-1.81-3.07-2.8-1.36-1.39-2.8-2.68-4.29-3.93-1.21-1.02-2.61-1.56-4.17-1.68-1.24-.1-2.49-.09-3.72.18-.44.1-.87.24-1.3.34-.17.04-.34.04-.51.04-.2,0-.37-.28-.28-.45.06-.12.12-.26.22-.35.26-.23.52-.46.81-.64,1.51-.93,3.12-1.66,4.84-2.09,1.77-.44,3.5-.32,5.2.35.97.38,1.87.89,2.73,1.48,1,.69,1.94,1.45,2.85,2.26.95.86,1.9,1.73,2.85,2.59,1.65,1.5,3.53,2.55,5.72,3,1.19.25,2.39.32,3.61.17,1.36-.17,2.64-.55,3.84-1.19.37-.19.71-.44,1.04-.68.31-.23.56-.52.75-.85.38-.7.41-1.27-.14-2.03-.21-.28-.48-.49-.78-.67-.54-.33-1.12-.53-1.74-.66-1.17-.25-2.34-.24-3.51-.11-2.56.27-5.04.9-7.49,1.66-.33.1-.66.2-.96.29Z"/>
      <path class="cls-3" d="M227.21,62.12c.33.72.33.72.39,1.5.13,1.63.11,3.25.14,4.88,0,.35.03.69.06,1.03,0,.03.13.09.16.07.12-.07.22-.16.33-.25.31-.27.61-.57.94-.81,1.93-1.41,4.19-.47,5.11.95.72,1.11.9,2.31.46,3.57-.22.63-.56,1.19-1.04,1.66-.13.12-.27.21-.45.22-.13.01-.31-.08-.33-.19-.03-.17-.07-.34-.07-.51.01-.42-.08-.83-.17-1.23-.07-.31-.21-.59-.4-.84-.15-.2-.34-.34-.58-.42-.2-.07-.4-.08-.61-.03-.35.09-.63.28-.89.51-.74.65-1.32,1.42-1.78,2.28-.12.22-.16.46-.14.7.03.59.06,1.18.12,1.76.07.72.18,1.44.28,2.16.02.18-.02.34-.16.47-.2.19-.4.38-.59.58-.04.04-.05.13-.03.19.02.05.09.1.15.1.34.03.69.07,1.04.05.59-.04,1.18.01,1.76.1.69.1,1.38.1,2.07.09.24,0,.48-.04.72-.09.57-.11,1.02-.41,1.37-.87.17-.22.31-.46.45-.7.29-.47.71-.74,1.23-.88.51-.13,1.03-.15,1.55-.13.13,0,.28.05.39.12.2.14.38.3.55.47.1.1.16.24.11.38-.34.98-.67,1.97-1.04,2.93-.17.45-.44.86-.69,1.27-.15.25-.39.39-.69.41-.31.02-.62.04-.93.04-1.8-.04-3.6-.1-5.4-.14-1.63-.04-3.25-.1-4.88-.12-.48,0-.96.07-1.45.11-.48.04-.96.08-1.45.11-.1,0-.21,0-.31-.01-.52-.04-.74-.44-.47-.87.13-.2.27-.4.42-.59.6-.73.88-1.56.86-2.5-.01-.38.02-.76,0-1.14-.11-1.83-.1-3.67-.26-5.5-.13-1.48-.19-2.97-.29-4.46-.07-1.11-.17-2.21-.25-3.32-.04-.52-.07-1.04-.1-1.55-.02-.35-.02-.69-.06-1.04-.1-.87-.31-1.7-.93-2.38-.19-.2-.33-.44-.47-.68-.07-.11-.09-.27-.09-.4,0-.08.09-.19.17-.23.08-.05.2-.06.3-.06.38,0,.76-.01,1.14,0,1.52.02,3.05.02,4.57.06,2.29.05,4.57.06,6.86-.02.52-.02,1.04-.02,1.56,0,.24,0,.48.05.71.11.39.1.67.35.85.71.09.19.17.38.24.58.27.83.66,1.6,1.12,2.34.05.09.11.18.16.27.11.21.28.42.23.67-.09.38-.31.7-.64.91-.14.09-.32.14-.49.16-.73.07-1.45-.04-2.16-.21-.44-.11-.82-.36-1.11-.73-.13-.16-.25-.33-.35-.51-.39-.68-1.01-1.03-1.75-1.19-.75-.16-1.51-.22-2.27-.13-.45.05-.9.08-1.34.16-.38.07-.75.09-1.13,0-.08-.02-.19.04-.28.07Z"/>
      <path class="cls-3" d="M94.09,80.77c-.59.01-1.18.03-1.77.03-.17,0-.34-.06-.5-.1-.11-.03-.22-.24-.18-.34.05-.16.09-.34.18-.48.18-.29.4-.57.6-.85.18-.25.38-.5.54-.77.55-.95.65-1.95.33-3-.21-.67-.51-1.29-.97-1.82-.36-.42-.74-.83-1.16-1.19-.63-.54-1.28-1.07-1.95-1.56-1.87-1.37-3.86-2.57-5.89-3.69-.09-.05-.18-.09-.28-.14-.11-.05-.31,0-.36.12-.15.35-.32.69-.45,1.05-.44,1.28-.72,2.6-.88,3.95-.12,1.03-.2,2.07-.18,3.11.04,1.6.18,3.18.44,4.76.08.47.26.93.38,1.4.05.2.06.41.07.61,0,.15-.17.34-.32.37-.14.02-.27.05-.41.06-1.18.08-2.35.03-3.53-.08-.07,0-.13-.03-.2-.05-.16-.04-.36-.29-.36-.47,0-.14,0-.29.05-.41.14-.32.27-.64.47-.92.5-.71.68-1.51.68-2.36,0-.69,0-1.39-.03-2.08-.06-1.63-.04-3.26.02-4.89.07-2.08.35-4.14.76-6.18.1-.47.19-.95.27-1.43.05-.31.05-.62.09-.93.09-.9-.27-1.62-.91-2.22-.25-.23-.55-.41-.83-.61-.14-.1-.29-.19-.43-.29-.07-.05-.07-.22,0-.27.09-.05.17-.13.26-.15.34-.07.68-.13,1.02-.17.83-.1,1.65-.18,2.48-.27.48-.05.96-.11,1.45-.14.52-.03,1.04-.03,1.55-.03.21,0,.39.23.34.43-.04.17-.09.33-.14.5-.11.33-.23.65-.35.98-.28.79-.09,1.5.37,2.16.3.43.68.79,1.12,1.08.52.34,1.05.67,1.6.96,1.94,1.05,3.66,2.37,5.2,3.94.44.44.83.93,1.24,1.39.07.08.23.06.26-.02.02-.07.05-.13.07-.2.1-.44.2-.88.28-1.32.21-1.12.41-2.25.61-3.37.14-.79.13-1.59.03-2.38-.08-.62-.1-1.25-.3-1.84-.14-.39-.27-.78-.44-1.16-.13-.28-.32-.53-.57-.74-.19-.16-.4-.26-.66-.27-.31-.01-.62.01-.92.13-.26.1-.52.2-.78.28-.21.06-.51-.14-.55-.37-.02-.13-.03-.28,0-.41.02-.13.08-.27.14-.39.4-.83.97-1.52,1.71-2.06.94-.68,1.98-.76,3.06-.36.46.17.87.42,1.24.75,1.12.98,1.77,2.21,1.91,3.69.12,1.28.06,2.56-.12,3.84-.24,1.72-.63,3.4-1.07,5.08-.59,2.25-.92,4.55-.95,6.88,0,.55.03,1.11.06,1.66.03.6.21,1.15.6,1.63.17.21.33.44.49.67.06.08.12.17.17.26.17.32-.03.77-.39.8-.62.07-1.24.12-1.86.17-.48.03-.97.04-1.45.05,0,0,0,0,0,0Z"/>
      <path class="cls-3" d="M76.56,63.35c-.12.18-.22.36-.34.53-.22.3-.51.45-.89.45-.14,0-.28,0-.42.01-.98.04-1.85-.22-2.55-.95-.21-.22-.47-.41-.72-.6-.69-.51-1.46-.78-2.32-.8-1.05-.03-2.08.08-3.09.32-.66.16-1.29.19-1.94-.01-.05-.02-.12.03-.21.06.22.52.57.95.89,1.44,0,.28,0,.59,0,.9-.03,1.45-.07,2.91-.09,4.36,0,.05.08.1.12.14.02.01.07,0,.09,0,.09-.06.17-.12.25-.18.28-.2.55-.43.84-.61.38-.23.78-.44,1.19-.64.61-.29,1.25-.39,1.92-.35,1.42.07,2.58.96,3.01,2.32.14.44.16.89.11,1.34-.12,1.08-.61,1.97-1.47,2.65-.17.13-.36.19-.58.2-.21.01-.43-.17-.42-.37,0-.21.02-.42.05-.62.13-.77-.5-1.5-1.13-1.65-.21-.05-.41-.07-.62-.02-.34.08-.66.22-.95.41-.99.67-1.79,1.52-2.41,2.54-.13.22-.19.45-.17.69.03.59.07,1.18.11,1.76.02.24.06.48.07.72.02.41.09.84.04,1.24-.06.4-.52.53-.73.85-.02.02-.01.07,0,.1,0,.03.03.06.05.07.07.02.13.04.2.04,1.45.01,2.91.02,4.36.03.52,0,1.03-.08,1.54-.19.5-.11.9-.34,1.21-.74.27-.36.54-.72.8-1.09.23-.33.55-.55.93-.63.74-.16,1.49-.32,2.26-.28.23.01.39.13.5.31.09.15.16.31.22.47.06.17.06.34,0,.51-.4,1-.79,2-1.31,2.94-.08.15-.18.3-.27.44-.35.57-.88.87-1.54.92-.97.07-1.94.14-2.9.18-.83.04-1.66.03-2.49.05-2.18.05-4.36.1-6.55.14-.52.01-1.03.06-1.54.18-.37.09-.75.12-1.13.14-.17.01-.34-.04-.5-.08-.12-.03-.16-.14-.17-.23-.01-.1,0-.21.03-.31.05-.13.11-.25.18-.37.61-.99.91-2.09,1.07-3.23.09-.65.15-1.31.17-1.97.11-2.49.23-4.99.35-7.48.03-.59.05-1.18.07-1.77.03-.87.06-1.73.1-2.6.03-.8-.03-1.59-.22-2.37-.18-.72-.5-1.36-1.03-1.89-.1-.09-.17-.21-.25-.32-.05-.06,0-.24.07-.27.15-.08.3-.18.47-.21.44-.09.89-.17,1.33-.21,1.17-.1,2.35-.18,3.52-.27,1.45-.11,2.9-.22,4.35-.32.38-.03.76-.04,1.14-.06.9-.05,1.8-.1,2.7-.14.55-.02,1.11-.03,1.66-.04.42-.01.73.19.95.53.13.2.26.41.37.62.13.24.26.49.38.74.41.8.81,1.6,1.27,2.5Z"/>
      <path class="cls-3" d="M239.55,89.32c-.02.1-.01.18-.05.22-.58.59-1.17,1.18-1.76,1.76-.14.13-.31.14-.48.08-.26-.09-.52-.18-.78-.28-1.73-.64-3.5-1.09-5.32-1.34-.86-.12-1.73-.13-2.59-.06-.59.05-1.15.23-1.65.56-.64.42-1.04,1.01-1.12,1.78-.05.46.04.89.24,1.31.23.48.56.87.97,1.2.44.34.93.6,1.46.78,1.56.54,3.12.53,4.69.07,1.31-.39,2.48-1.06,3.55-1.9.35-.28.7-.57,1.02-.88.78-.74,1.55-1.49,2.3-2.25.34-.34.66-.71.98-1.07.89-1.03,1.9-1.92,3.04-2.66.5-.32,1.01-.6,1.57-.8,1.22-.45,2.44-.45,3.64.1,1.08.49,2.05,1.16,2.93,1.95.23.21.44.44.54.75.08.23-.1.52-.35.52-.14,0-.28,0-.41-.03-.47-.09-.95-.18-1.42-.31-.57-.15-1.16-.18-1.75-.23-.82-.06-1.58.14-2.28.55-.87.51-1.63,1.17-2.28,1.94-.74.87-1.48,1.74-2.22,2.61-.45.53-.89,1.06-1.34,1.59-.78.93-1.57,1.85-2.44,2.7-.7.68-1.43,1.31-2.24,1.85-1.13.76-2.35,1.33-3.69,1.6-1.76.36-3.51.32-5.22-.29-.66-.23-1.26-.56-1.85-.94-.28-.18-.45-.43-.55-.73-.23-.76-.45-1.53-.66-2.29-.58-2.14-1.05-4.3-1.41-6.49-.21-1.3-.34-1.06.63-2.13,1.27-1.4,2.88-2.12,4.77-2.22,1.29-.06,2.56.07,3.82.33.88.18,1.75.42,2.6.7,1.58.5,3.13,1.1,4.68,1.71.16.06.3.16.45.23Z"/>
      <path class="cls-3" d="M78.98,89.53c.69.5,2.01,1.67,2.47,2.19.04.04.03.12.04.19-.3.25-.68.34-1.03.48-2.83,1.14-5.64,2.3-8.42,3.55-.73.32-1.45.66-2.17.99-.24.11-.47.08-.68-.09-.96-.8-1.91-1.6-2.79-2.5-.07-.07-.13-.16-.16-.26-.02-.05.02-.15.05-.17.15-.08.31-.15.47-.21,3.8-1.2,7.53-2.57,11.3-3.87.29-.1.59-.2.91-.32Z"/>
      <path class="cls-1" d="M150.98,98.91c-.1.12-.15.22-.23.28-.96.74-1.92,1.47-2.88,2.21-.08.06-.18.09-.3.14-.82-.44-1.57-.98-2.35-1.5-.23-.16-.4-.38-.54-.62-.25-.42-.42-.87-.51-1.35-.18-.92-.2-1.85-.17-2.79,0-.12.09-.27.18-.35.42-.36.86-.7,1.29-1.04.52-.4,1.04-.8,1.56-1.19.22-.17.44-.15.67,0,.38.24.77.47,1.13.74.88.66,1.49,1.54,1.9,2.54.13.31.16.67.18,1.02.04.65.04,1.31.06,1.93Z"/>
      <path class="cls-3" d="M286.41,106.98c-1.98.07-3.85-1.21-4.48-3.22-.38-1.24-.33-2.46.21-3.65.91-2,2.89-2.85,4.65-2.67,2.21.22,3.6,1.65,4.08,3.47.26.99.22,1.99-.11,2.97-.67,1.97-2.52,3.15-4.35,3.1ZM286.37,98.2c-1.01-.02-1.87.38-2.56,1.12-1.56,1.68-1.48,4.26.04,5.84,1.41,1.47,3.77,1.46,5.16-.12,1.39-1.58,1.42-4.02.03-5.62-.69-.8-1.57-1.24-2.66-1.23Z"/>
      <path class="cls-1" d="M151.01,94.43c-.55-.31-2.77-1.8-3.47-2.35-.01-.14-.04-.31-.05-.48-.03-.83-.05-1.66-.08-2.48,0-.1.01-.21.02-.31.01-.14.19-.24.3-.17.29.19.58.37.85.58,1.19.88,2.31,1.86,3.43,2.84.41.36.81.74,1.21,1.12.03.03,0,.12,0,.18,0,.03-.05.05-.08.06-.71.34-1.43.67-2.13,1Z"/>
      <path class="cls-2" d="M147.15,90.37c0,.48,0,.97,0,1.45,0,.22-.08.4-.26.54-.92.73-1.84,1.46-2.76,2.19-.18.14-.37.17-.58.08-.45-.18-.88-.4-1.34-.54-.92-.29-.84-.37-.25-.93,1.3-1.24,2.61-2.47,3.92-3.7.18-.17.36-.33.55-.48.16-.12.28-.36.51-.29.26.08.15.35.16.54.02.38,0,.76,0,1.14.02,0,.04,0,.05,0Z"/>
      <path class="cls-2" d="M147.56,103.73c0,.45,0,.9,0,1.35,0,.1-.03.21-.07.3-.02.04-.12.08-.18.07-.1-.03-.19-.08-.28-.14-1.46-1-2.82-2.12-4.15-3.29-.05-.05-.1-.1-.15-.14-.25-.25-.28-.55-.17-.86.11-.33.31-.62.59-.83.22-.16.46-.3.71-.43.08-.04.2-.01.3,0,.06.01.12.06.18.1.95.63,1.9,1.27,2.84,1.9.19.12.29.29.29.51,0,.48,0,.97,0,1.45h.08Z"/>
      <path class="cls-1" d="M147.82,103.65c0-.45,0-.9,0-1.35,0-.26.08-.47.3-.63.47-.36.93-.72,1.39-1.08.44-.34.87-.68,1.31-1.02.18-.14.38-.16.58-.07.22.1.43.21.65.32.19.1.32.26.42.45.28.49.24.91-.14,1.33-.05.05-.09.1-.14.15-1.19,1.16-2.4,2.29-3.67,3.36-.13.11-.28.2-.43.28-.03.01-.15-.06-.15-.1-.03-.38-.05-.76-.07-1.14,0-.17,0-.35,0-.52-.01,0-.03,0-.04,0Z"/>
      <path class="cls-1" d="M151.26,98.92c-.02-1.25-.05-2.53-.07-3.8,0-.1.04-.2.07-.32.34-.29.75-.47,1.16-.65.32-.15.9,0,1.15.28.04.05.08.12.1.18.02.06.03.14.03.2.06,1.62.08,3.25.01,4.87,0,.07-.01.14-.05.2-.03.05-.09.1-.15.11-.06.01-.14,0-.2-.02-.66-.22-1.28-.51-1.88-.87-.06-.03-.1-.09-.18-.17Z"/>
      <path class="cls-2" d="M142.37,94.55c.1.03.2.05.3.09,1.21.49,1.02.37,1.06,1.46.03.93.06,1.87.1,2.8.01.26-.06.47-.3.61-.56.34-1.12.69-1.73.93-.14.06-.29-.03-.31-.16,0-.03-.01-.07-.02-.1-.11-.96-.21-1.93-.23-2.9,0-.48-.05-.97-.06-1.45,0-.7.2-.97.89-1.21.1-.03.2-.05.3-.08Z"/>
      <polygon class="cls-3" points="158.21 107.06 158.16 107.09 158.19 107.05 158.21 107.06"/>
      <path class="cls-3" d="M286.36,104.66c-.7.06-1.25.04-1.8.03-.1,0-.21,0-.23-.12,0-.05.05-.12.1-.16.14-.11.28-.21.28-.41,0-1.28-.01-2.56-.02-3.84,0-.03-.02-.07-.04-.12-.1-.07-.21-.15-.32-.23-.02-.02-.05-.06-.04-.07.04-.05.08-.11.13-.14.06-.03.13-.04.2-.04.66,0,1.31-.02,1.97,0,.31.01.63.06.91.17.45.17.72.51.76,1.02.03.44-.08.82-.4,1.13-.15.15-.31.28-.49.44.05.12.07.26.15.36.38.53.78,1.06,1.17,1.59.06.08.08.18.1.28,0,.02-.01.08-.03.08-.34.11-.68.1-1.02.01-.09-.02-.19-.1-.24-.18-.18-.26-.34-.52-.5-.79-.17-.3-.33-.61-.51-.91-.05-.09-.13-.17-.21-.23-.05-.03-.13-.04-.19-.02-.06.02-.13.07-.15.12-.11.48-.08.96-.02,1.44.01.09.09.18.15.26.06.08.13.15.27.32ZM285.88,100.99s.03,0,.04,0c0,.27,0,.55,0,.82,0,.18.18.31.35.29.41-.05.66-.24.75-.58.08-.3.11-.6.05-.91-.1-.47-.37-.69-.87-.68-.12,0-.27.13-.28.25-.02.27-.03.55-.05.82Z"/>
    </g>
  </g>
</svg>