<?xml version="1.0" encoding="UTF-8"?>
<svg id="Layer_1" data-name="Layer 1" xmlns="http://www.w3.org/2000/svg" version="1.1" viewBox="0 0 305.4 184.6">
  <defs>
    <style>
      .cls-1 {
        fill: #ea0029;
      }

      .cls-1, .cls-2, .cls-3, .cls-4, .cls-5 {
        stroke-width: 0px;
      }

      .cls-2 {
        fill: none;
      }

      .cls-3 {
        fill: #8c1922;
      }

      .cls-4 {
        fill: #fef8e5;
      }

      .cls-5 {
        fill: #fff;
      }
    </style>
  </defs>
  <g>
    <path class="cls-2" d="M74.5,130.1c0-.2,0-.3,0-.5,0-.1-.1-.2-.2-.4-.8-1.4-1.9-2.3-3.4-2.9-.9-.4-1.9-.5-3.1-.5-.2,0-.6,0-1,0-1.5.2-2.7,1-3.6,2.2-.9,1.4-1,3.7.4,5.2.6.6,1.2,1.2,1.9,1.6.9.6,1.8,1.2,2.8,1.7.6.3,1.3.6,2,.9.1,0,.3,0,.3-.1.3-.4.5-.9.8-1.4.9-1.8,1.9-3.6,2.8-5.4.1-.2.2-.4.3-.6Z"/>
    <path class="cls-2" d="M216.9,143.1c0-1.3-.5-2.4-1.4-3.4-.1-.1-.2-.2-.3-.4,0,0,0-.2,0-.2.1-.1.3-.3.5-.4.7-.6,1-1.4,1.2-2.2,0-.3,0-.6,0-.9,0-.9,0-1.9,0-2.8h0c0-.9,0-1.7,0-2.6,0-.3,0-.6,0-.8,0-.8-.2-1.6-.6-2.4-.8-1.5-2-2.4-3.7-2.7-.7-.1-1.3,0-2,0-1.5.2-2.6,1-3.3,2.4-.4.8-.6,1.7-.6,2.7,0,1.9,0,3.9,0,5.8,0,1.3.5,2.4,1.4,3.2.1.1.3.2.4.4,0,0,0,.1,0,.2,0,.1-.2.2-.3.3-.8.6-1.2,1.5-1.4,2.5,0,.3,0,.6,0,.9,0,2.2,0,4.5,0,6.7,0,.6,0,1.2.2,1.7.3,1.1.8,2.1,1.8,2.9,1.5,1.2,3.2,1.6,5,1.3,1.1-.2,1.9-.8,2.5-1.7.4-.6.6-1.3.7-2.1,0-.5,0-1,0-1.4,0-2.1,0-4.1,0-6.2,0-.2,0-.5,0-.7Z"/>
    <path class="cls-2" d="M71.5,150.3c-.6-.6-1.2-1.2-1.9-1.7-.2-.1-.4-.3-.6-.4,0,0-.2,0-.3,0,0,.2-.2.3-.2.5-.8,2.1-1.6,4.2-2.3,6.3-.4,1.3-.8,2.7-1,4.1,0,.3,0,.6-.1.9,0,.2.1.3.3.3.2,0,.3,0,.5,0,1.9-.2,3.5-1,4.9-2.3,1.3-1.3,1.9-2.8,1.9-4.8,0,0,0-.4,0-.7,0-.9-.4-1.7-1-2.3Z"/>
    <path class="cls-2" d="M159.9,150.6c.5.4,1,.7,1.6.9,1.5.4,2.9.2,4.3-.4.7-.3,1.3-.8,1.8-1.4.4-.4.7-.9.9-1.4.3-.6.6-1.3.8-2,.2-.9.4-1.7.5-2.6.2-1.3.2-2.6.2-3.9,0-.2,0-.3,0-.5,0-.6-.3-1.1-.8-1.4-.2-.2-.5-.4-.7-.5,0-.3.3-.3.5-.4.6-.4.9-1,1-1.7,0-.4,0-.8,0-1.1,0-.3,0-.6,0-.9-.2-2-.7-3.9-1.8-5.6-.5-.8-1.1-1.6-1.9-2.2-.7-.6-1.6-1-2.5-1.2-1.1-.2-2.1-.2-3.2,0-.2,0-.4.1-.6.2-.2.1-.4.3-.4.6,0,.3,0,.7,0,1,0,7.8,0,15.6,0,23.4,0,.2,0,.5,0,.7,0,.2.1.4.3.5Z"/>
    <path class="cls-2" d="M286,102.2c-.1,0-.3.1-.3.3,0,.3,0,.5,0,.8,0,0,0,0,0,0,0,.3,0,.5,0,.8,0,.2.2.3.4.3.4,0,.7-.2.8-.6,0-.3.1-.6,0-.9,0-.5-.4-.7-.9-.7Z"/>
    <path class="cls-2" d="M267.5,59.7c.2.3.5.6.8.8.3.2.6.3,1,.3,0,0,.2,0,.3,0,.4,0,.7-.2,1.1-.3.7-.3,1.3-.7,2-1.1,1.7-1.1,3.3-2.3,4.9-3.6,0,0,.2-.1.2-.2,0,0,.1-.3,0-.4-.2-.2-.3-.4-.5-.5-.9-.8-2-1.3-3.1-1.6-2-.5-3.8,0-5.4,1.3-.9.8-1.6,1.8-2.1,2.9,0,.2,0,.3,0,.5.2.7.5,1.4.9,2Z"/>
    <path class="cls-2" d="M245.8,67.7c.1,1.1.2,2.2.2,3.3,0,.7,0,1.4,0,2.1,0,.2,0,.4,0,.6,0,.2.2.4.4.4.1,0,.3,0,.4,0,.5,0,1,0,1.5,0,.5,0,.9-.1,1.3-.2.9-.2,1.5-.8,1.8-1.7,0-.2,0-.3.1-.5.2-1,.1-2.1-.2-3.1-.1-.5-.3-.9-.5-1.3-.4-.8-1-1.3-1.8-1.6-1.1-.4-2.3-.6-3.4-.4-.2,0-.3,0-.5.3,0,.2.1.4.2.5.2.5.3,1,.4,1.6Z"/>
    <path class="cls-2" d="M266.7,83c.7,2.4,1.8,4.5,3.3,6.5.5.6,1,1.1,1.6,1.6,1.2.9,2.5,1.2,4,1,.2,0,.5,0,.7-.1.9-.1,1.6-.5,2.3-1.1.4-.3.7-.7,1-1,.6-.8,1.1-1.6,1.5-2.5,1-2.3,1.6-4.7,1.7-7.2.1-2.6,0-5.1-.3-7.7,0-.1,0-.2,0-.3-.1-1.1-.2-2.2-.3-3.3,0-.9-.2-1.9-.3-2.8-.1-.8-.3-1.6-.4-2.4,0-.1,0-.3,0-.4.5-.7,1.1-1.3,1.8-1.8.4-.3.9-.7,1.3-1,.2-.2.5-.4.8-.5,0,0,0,0,0,0,0,0-.1,0-.2,0-.2,0-.3,0-.5.1-1.6.6-3.1,1.2-4.6,2.1-1.1.6-2.2,1.2-3.3,1.7-1.2.6-2.5,1.1-3.8,1.4-1,.3-1.9.5-3,.5-1.7,0-3-.8-3.8-2.4-.1-.2-.2-.4-.3-.7-.2-.6-.2-1.2-.2-1.8,0-.3,0-.6,0-.9,0,0-.1.1-.1.2-.2.6-.3,1.2-.4,1.8-.2,1.5-.3,3-.4,4.4-.1,2.5,0,5,.2,7.4.1,1.5.3,3,.5,4.4.3,1.7.6,3.3,1.1,5Z"/>
    <path class="cls-2" d="M212.8,49.8c0,0,0,0,0,0,0,0,0,0,0,0,0,0,0,0,0,0Z"/>
    <path class="cls-4" d="M199.7,79.3c.2,0,.3,0,.5,0,1.3.2,2.6.5,4,.7,1.7.3,3.3.6,5,.9.9.2,1.8.3,2.6.5.3,0,.4.2.5.6,0,.8.2,1.6.3,2.4.2,1.8.5,3.7.7,5.5.3,2.3.7,4.6,1,6.9.4,2.5.9,5,1.5,7.4.5,2.1,1.2,4.3,2,6.3.8,1.8,1.7,3.5,2.9,5.1,1.7,2.2,3.8,4,6.4,5.1,1.7.7,3.5,1,5.4.6,1-.2,1.8-.6,2.7-1.1.2-.1.3-.2.5-.4.2-.2.2-.5,0-.7-.2-.2-.4-.3-.6-.4-.3-.1-.6-.2-.9-.3-1.1-.3-2-.9-2.8-1.7-.5-.5-1.1-1.1-1.5-1.7-.9-1.1-1.7-2.4-2.4-3.6-1.3-2.3-2.4-4.7-3.3-7.3-1.1-3-1.8-6.1-2.4-9.2-.5-2.4-1-4.9-1.4-7.3-.2-1.2-.5-2.3-.6-3.5,0-.9-.2-1.7-.3-2.6,0-.8-.2-1.5-.2-2.3,0-.9-.2-1.8-.3-2.7-.2-1.5-.3-2.9-.4-4.4,0-.2,0-.4,0-.6,0-1.3-.2-2.5-.3-3.8,0-1.3-.2-2.5-.3-3.8-.1-1.6-.3-3.2-.4-4.9,0-.2,0-.4,0-.6-.2-1.5-.2-3-.1-4.6,0-.4.1-.8.3-1.2.8-1.3,1.7-2.6,2.8-3.8.3-.4.7-.8,1.1-1.1.9-.8,2-1,3.1-.7.3,0,.6.2.8.4.2.2.4.4.4.7,0,.2,0,.3,0,.5.3.1.6.2,1,.3,0,0,0,0,0,.1-.2,0-.4.2-.6.2-.7.1-1.2.4-1.8.7-.3.2-.4.5-.3.8.1.4.3.8.6,1,.7.7,1.6,1.1,2.6,1.2.5,0,1,0,1.4-.1,1.2-.4,2.2-1.2,2.8-2.4.3-.7.5-1.4.4-2.1,0-.3,0-.6-.1-.8-.3-1.8-1.2-3.3-2.9-4.2-.4-.2-.9-.4-1.3-.6-2-.6-3.9-.6-5.9,0-1.5.4-2.9,1-4.1,1.8-1.1.7-2.2,1.5-3.2,2.4-.6.5-1.2,1.1-1.7,1.6-.1.1-.2.3,0,.5,0,.2.2.4,0,.6,0,0,0,0,0,0,0,0,0,0,0,0,0,0,0,0,0,0,0,0,0,0,0,0,0,0,0,0,0,0,0,0,0,0,0,0,0,0,0,0,0,0,0,0-.1,0-.2,0-.5-.2-1-.3-1.5-.2-.3,0-.7,0-1,0-.4,0-.8.1-1.2.3-.3,0-.5.2-.7.4-.1.1-.1.4,0,.5,0,0,0,.2.2.3.2.2.4.4.6.6.7.7,1.2,1.5,1.3,2.5,0,.6.2,1.3.3,1.9.1,1.2.3,2.5.3,3.7.1,1.5.2,3.1.3,4.6,0,.2,0,.3,0,.5.1,1.7.2,3.3.3,5,0,.7,0,1.3.1,2,0,1.3.2,2.7.3,4,0,.2,0,.3,0,.5,0,0,0,.1-.1.1-.2,0-.3,0-.5,0-1-.2-2-.4-3-.6-1.7-.3-3.3-.6-5-.9-.7-.1-1.4-.3-2.1-.4-.6,0-1.2.3-1.3.9,0,.3,0,.5,0,.8,0,.3,0,.7-.1,1,0-.1,0-.2,0-.2,0-1.1-.2-2.1-.3-3.2,0-1-.2-2.1-.3-3.1-.1-1.2-.2-2.4-.3-3.6,0-1.1-.2-2.3-.3-3.4,0-.8-.1-1.6-.2-2.5-.1-1.1-.2-2.2-.3-3.3-.1-1.4-.3-2.8-.4-4.2-.1-.9-.3-1.7-.8-2.4,0,0,0-.1,0-.2,0,0,0,0,0,0,0,0,0,0,0,0h0s0,0,0,0c.4,0,.7,0,1.1,0,1.2.2,2.4.2,3.6,0,1.7-.4,3-1.4,3.7-3,.8-1.7.8-3.5.1-5.3,0-.2-.2-.4-.3-.6-.2-.4-.6-.4-.9-.1-.2.2-.5.5-.7.8-.3.4-.6.7-1,1.1-.6.6-1.3.9-2.1,1-.5,0-1.1,0-1.6,0-.7-.2-1.4-.4-2.1-.7-.8-.4-1.7-.8-2.5-1.2-1-.5-2-1-3-1.5-1.2-.6-2.4-1.1-3.6-1.5-1.6-.5-3.2-.8-4.9-.8-.8,0-1.6,0-2.4.2-1.5.3-2.9.9-4.1,1.8-1.9,1.4-3.2,3.2-4.2,5.3-1,2.3-1.5,4.7-1.7,7.2,0,.8,0,1.5,0,2.3,0,1.8.4,3.6,1.1,5.2.8,2,2,3.9,3.6,5.4.8.8,1.8,1.5,2.8,1.9,1.1.5,2.3.8,3.6.7,1.3,0,2.3-.5,3.3-1.3.6-.6,1.1-1.2,1.5-1.9.5-.9.8-1.9,1.1-2.9,0-.4.1-.8.1-1.2,0-.4-.2-.6-.6-.7-.2,0-.5,0-.7.1-.2,0-.4.2-.5.3-.4.2-.7.4-1.1.5-.8.3-1.5.4-2.3.2-.8-.2-1.6-.6-2.2-1.2-2.6-2.3-3.9-5.2-3.4-8.7.3-2.2,1.3-4.1,2.9-5.6.5-.5,1.2-.8,1.9-1,.7-.2,1.4-.2,2.2,0,.9.1,1.8.4,2.7.7,1.4.5,2.7,1.2,3.9,2,.4-.2.3-.6.5-.9.2,0,.2.2.3.4.3,1.1.5,2.3.6,3.5,0,.5,0,.9.2,1.3.4,1.8.6,3.7.7,5.5.1,1.3.2,2.6.3,3.9.1,1.8.3,3.5.4,5.3,0,.2,0,.3,0,.5.1,1.3.2,2.6.3,3.9,0,1.2.2,2.3.3,3.5,0,.9.2,1.8.2,2.7.1,1.2.2,2.4.3,3.6,0,1.1.2,2.3.3,3.4.1,1.3.3,2.5.4,3.8.2,1.7.2,3.4.1,5.2,0,.6-.1,1.2-.3,1.7-.2.5-.4,1-.6,1.5-.4.9-.9,1.7-1.4,2.5-.4.7-.9,1.4-1.3,2.1-.2.3-.3.5-.4.8,0,.1,0,.3.2.3.1,0,.2,0,.3,0,.5-.1.9-.3,1.4-.4,3-1.1,5.9-2.4,8.8-3.6.3-.1.6-.3.8-.4.1,0,.2-.2.3-.3,0,0,.1-.3,0-.4-.1-.2-.3-.4-.4-.6-.6-.7-1-1.6-1.2-2.5-.2-.8-.3-1.6-.3-2.4-.1-1.4-.2-2.9-.3-4.3,0-.2,0-.3,0-.5-.1-1.7-.2-3.4-.3-5.1,0-.6,0-1.2-.1-1.9,0-.4,0-.9,0-1.3,0,0,.1-.2.2-.2Z"/>
    <path class="cls-4" d="M196.3,51.1s0,0,0,0c0,0,0,0,0,0,0,0,0,0,0,0h0Z"/>
    <path class="cls-4" d="M212.7,49.7s0,0,0,0c0,0,0,0,0,0,0,0,0,0,0,0,0,0,0,0,0,0Z"/>
    <path class="cls-4" d="M239.3,62c-.2,0-.3,0-.5.2,0,0-.1.2-.1.3,0,.1.1.2.2.4.2.3.5.7.7,1,.5.7.8,1.5.8,2.4,0,.3,0,.6,0,.8.1,1.5.2,3,.3,4.5.1,1.7.2,3.4.3,5.1,0,.2,0,.4,0,.6.1,1.6.2,3.2.2,4.9,0,1.2,0,2.4-.4,3.6,0,.1,0,.3,0,.4,0,.3.1.5.4.5.1,0,.3,0,.4,0,2.1.2,4.1.2,6.2.2.5,0,.7-.2.5-.7,0-.2-.1-.4-.2-.6-.2-.3-.4-.6-.6-1-.9-1.5-.9-1.4-1-3.3,0-1.1,0-2.1,0-3.2,0-.8,0-.9.9-.7.3,0,.6.2.9.4.4.2.8.6,1.1.9.6.6,1,1.2,1.4,1.9.6,1,1,2,1.4,3.1.5,1.5,1.1,3,1.7,4.4.5,1.1,1,2.1,1.6,3.2.8,1.4,1.9,2.6,3.1,3.6.7.5,1.4.9,2.1,1.3,1,.4,2.1.6,3.1.4,1.4-.2,2.5-.8,3.2-2,.1-.2.2-.4.4-.6.2,0,.3,0,.5.2.6.4,1.1.7,1.7.9,1.2.5,2.6.8,3.9,1,1,0,1.9.1,2.9,0,2-.3,3.9-1,5.5-2.3,2.1-1.6,3.7-3.6,4.7-6.1.1-.3.3-.6.4-1,1-2.8,1.4-5.7,1.6-8.6.1-2,.1-4.1,0-6.1,0-.3,0-.7,0-1-.1-1.2-.3-2.5-.5-3.7-.3-1.4-.5-2.8-1-4.2-.3-1.1-.7-2.2-1.1-3.4,0-.1.1-.2.3-.3.9-.3,1.8-.3,2.8-.2.1,0,.3,0,.4,0,.8.1,1.3.5,1.9,1,.5.5.8,1,1.1,1.6.4.9.7,1.9.9,2.9,0,.3,0,.5.3.8.1.2.4.2.6,0,0-.1.2-.2.3-.3.3-.4.5-.9.7-1.4.6-1.7.9-3.4.9-5.2,0-.3,0-.6,0-.8-.3-1.4-.9-2.6-1.7-3.7-.6-.8-1.4-1.5-2.4-2-.9-.4-1.8-.7-2.8-.8-1.6-.1-3.2,0-4.8.5-.6.2-1.2.4-1.8.7-.1,0-.3,0-.4,0-.2-.1-.3-.3-.4-.4-.7-.7-1.4-1.2-2.2-1.7-2.7-1.5-5.5-2.1-8.6-1.7-1.6.2-3.1.8-4.4,1.8-1.9,1.4-3.3,3.3-4.4,5.4-.8,1.7-1.3,3.5-1.7,5.4-.2,1.2-.4,2.4-.5,3.6-.2,1.6-.2,3.2-.3,4.8,0,1.6.1,3.2.3,4.9.2,1.8.5,3.6.9,5.4.3,1.5.7,3,1.3,4.4.9,2.3,1.9,4.6,3.3,6.8.2.3.1.4-.2.6-.9.4-1.8.5-2.7.2,0,0-.1,0-.2,0-.9-.3-1.6-.8-2.2-1.5-.6-.7-1.2-1.5-1.7-2.3-1.4-2.1-2.5-4.4-3.4-6.7-.5-1.3-1.2-2.6-2.1-3.7-.1-.1-.2-.3-.3-.4,0,0,0-.1-.1-.2,0,0,0-.2,0-.3.1,0,.2-.1.4-.2.8-.4,1.5-.9,2.1-1.5.5-.5.8-1.1,1.1-1.8.5-1.4.5-2.8.3-4.2-.2-1-.6-2-1.1-2.9-1.1-2-2.8-3.3-5.1-3.7-.8-.1-1.6-.3-2.4-.4-1.4-.1-2.8-.1-4.1,0-.6.2-1.2,0-1.7,0,0,0-.2,0-.3,0-.7-.2-1.4-.2-2.1-.1ZM266.6,57.2c.5-1.1,1.2-2.1,2.1-2.9,1.6-1.3,3.4-1.8,5.4-1.3,1.1.3,2.2.8,3.1,1.6.2.2.3.3.5.5,0,.1,0,.3,0,.4,0,0-.1.1-.2.2-1.6,1.3-3.2,2.5-4.9,3.6-.6.4-1.3.8-2,1.1-.3.2-.7.3-1.1.3-.1,0-.2,0-.3,0-.4,0-.7-.1-1-.3-.3-.2-.6-.5-.8-.8-.4-.6-.7-1.3-.9-2,0-.2,0-.3,0-.5ZM265.2,73.6c-.2-2.5-.4-5-.2-7.4,0-1.5.1-3,.4-4.4.1-.6.2-1.2.4-1.8,0,0,0,0,.1-.2.1.3,0,.6,0,.9,0,.6,0,1.2.2,1.8,0,.2.2.5.3.7.8,1.6,2.1,2.4,3.8,2.4,1,0,2-.2,3-.5,1.3-.4,2.5-.9,3.8-1.4,1.1-.5,2.2-1.1,3.3-1.7,1.5-.8,3-1.5,4.6-2.1.2,0,.3,0,.5-.1,0,0,.1,0,.2,0,0,0,0,0,0,0-.2.2-.5.4-.8.5-.4.3-.9.7-1.3,1-.7.5-1.3,1.1-1.8,1.8,0,.1-.1.3,0,.4.1.8.3,1.6.4,2.4.1.9.2,1.8.3,2.8.1,1.1.2,2.2.3,3.3,0,.1,0,.2,0,.3.2,2.5.4,5.1.3,7.7-.1,2.5-.7,4.9-1.7,7.2-.4.9-.9,1.7-1.5,2.5-.3.4-.6.7-1,1-.7.6-1.4.9-2.3,1.1-.2,0-.5,0-.7.1-1.5.2-2.8-.1-4-1-.6-.5-1.2-1-1.6-1.6-1.5-2-2.7-4.1-3.3-6.5-.5-1.6-.8-3.3-1.1-5-.2-1.5-.4-2.9-.5-4.4ZM245.7,65.3c1.2-.1,2.3,0,3.4.4.8.3,1.4.8,1.8,1.6.2.4.4.9.5,1.3.3,1,.4,2,.2,3.1,0,.2,0,.3-.1.5-.3.9-.9,1.5-1.8,1.7-.4.1-.9.2-1.3.2-.5,0-1,0-1.5,0-.1,0-.3,0-.4,0-.2,0-.4-.2-.4-.4,0-.2,0-.4,0-.6,0-.7,0-1.4,0-2.1,0-1.1-.1-2.2-.2-3.3,0-.6-.2-1.1-.4-1.6,0-.2-.1-.4-.2-.5.1-.2.3-.2.5-.3Z"/>
    <path class="cls-4" d="M36.3,77.1c.3,0,.5-.2.8-.3.5-.2,1-.3,1.6-.5,3-1.1,5.7-2.8,8.1-4.9.5-.4,1-.9,1.4-1.3.4-.4.8-.8,1.1-1.2,1.4-1.4,2.7-2.9,3.9-4.6,1.9-2.6,3.4-5.4,4.4-8.5.5-1.5.8-3,.8-4.6,0-1.6,0-3.1-.5-4.6-1.1-3.8-3.4-6.5-6.9-8.2-.9-.4-1.8-.7-2.7-.9-.4,0-.8-.2-1.2-.2-2.3-.2-4.5,0-6.8.5-1.6.4-3.1.9-4.6,1.6-1.9.9-3.8,1.9-5.7,2.9-6.1,3.2-12,6.6-18,10.1-.1,0-.3.2-.4.3,0,0-.2.1-.2.2-.1.1-.1.3,0,.5.2.3.4.4.7.3.3-.1.5-.2.8-.3,4.5-2.1,9-4,13.7-5.6,3-1.1,6.1-2,9.2-2.7,1.9-.4,3.9-.6,5.9-.6.7,0,1.4.1,2,.3,1.2.3,2.3.7,3.3,1.4,1.3,1,2.1,2.3,2.4,4,.2,1.2.2,2.5,0,3.7-.2,1.1-.5,2.1-.9,3.2-.9,2.3-2.1,4.5-3.6,6.5-2.2,3-4.9,5.4-7.9,7.6-.1.1-.3.2-.4.3,0,0-.1,0-.2,0,0,0-.2,0-.2,0,0-.7-.1-1.4-.2-2.2,0-1,0-2.1-.1-3.1-.2-4-.2-7.9-.1-11.9,0-.6,0-1.1.1-1.6,0-.9.3-1.8.4-2.8,0-.4.1-.8.2-1.2,0-.2,0-.4-.1-.6,0-.1-.3-.2-.4-.1-.1,0-.2.1-.4.2-.3.3-.7.6-1,.9-2,1.9-3.9,3.7-5.9,5.6,0,0-.1.1-.2.2-.5.4-.6.9-.5,1.5,0,.1,0,.2,0,.3.1.6.2,1.2.3,1.8,0,1.4.2,2.8.2,4.2,0,4.4,0,8.7-.2,13.1,0,.1,0,.2,0,.3,0,.1,0,.3-.2.3-.2.1-.4.2-.5.3-.5.3-1.1.6-1.6.9-.1,0-.3.2-.4.3-.2.2-.3.4-.2.7,0,.2.2.4.5.4.2,0,.4,0,.6,0,.5,0,1,0,1.5-.1.5,0,1,0,1.5-.1,0,0,0,.2,0,.2-.3.2-.5.4-.8.5-.3.2-.4.4-.4.7,0,.2,0,.5,0,.7,0,3.1,0,6.3-.3,9.4,0,.9-.3,1.8-.6,2.7-.5,1.3-1.2,2.5-2.1,3.7-.7.9-1.5,1.7-2.3,2.4-.3.3-.4.6-.3,1,0,.1.2.2.3.2.3-.1.6-.2.9-.3,2.6-1,5.3-2,7.9-3.1,1.6-.6,3.3-1.3,4.9-2,.3-.1.5-.2.7-.4.2-.1.3-.5.3-.7,0-.3-.2-.5-.3-.8-.5-1-.7-2-.8-3.1-.1-1.1-.2-2.3-.2-3.4,0-.6,0-1.2,0-1.8-.1-2.3-.1-4.6-.1-6.9,0-.2,0-.4,0-.6Z"/>
    <path class="cls-4" d="M73.9,136.5c1-1.9,2-3.8,3.1-5.6.6-1.2,1.2-2.4,1.8-3.6.4-.8.8-1.7,1.1-2.6.2-.7.4-1.4.4-2.1,0-.9-.3-1.6-1-2-.2-.1-.5-.3-.7-.4-.6-.2-1.3-.2-1.9,0-.6.2-1.1.5-1.5,1,0,0,0,.1,0,.2,0,0,0,.1,0,.2,0,0,.1,0,.2,0,.6,0,.9.4,1.1.9,0,.2,0,.4.1.6,0,.3,0,.5-.3.7-.3.3-.6.4-1,.5-1.3.1-2.5,0-3.8-.4-2.1-.8-4.2-1-6.4-.8-1.3,0-2.5.3-3.7.8-2.7,1-4.6,2.8-5.8,5.4-.9,2-1,4.1-.7,6.3.2,1.3.7,2.5,1.4,3.5.6,1,1.4,1.9,2.2,2.8.7.7,1.4,1.4,2.2,2,.2.2.4.3.6.5.2.2.4.5.3.8,0,.4,0,.8,0,1.1,0,0,0,.1.2.1.3-.1.6-.2.9-.3.6-.2,1.1-.4,1.7-.3.4,0,.8.1,1.1.2,1,.3.9.3.5,1.1,0,.2-.2.4-.3.7-1.7,3.7-3.3,7.5-4.3,11.5-.2.1-.3,0-.4,0-1.4-.9-2.4-2.2-2.8-3.8-.3-1.1-.5-2.3-.4-3.5,0-.9.2-1.8.6-2.6,0-.1.2-.3.1-.5,0,0-.1-.1-.2-.2-.4-.1-.8,0-1.2.2-.2.1-.3.2-.5.4-.8.8-1.3,1.7-1.5,2.8-.2,1-.3,2,.1,3,.1.3,0,.5,0,.7-.3.5-.7,1-.9,1.5-.3.6-.4,1.2-.4,1.9,0,.6.2,1.2.6,1.7.1.2.3.3.4.5,0,.1.2.2.2.4,0,.6,0,1.1,0,1.6,0,.4-.2.7-.3,1.1,0,.2,0,.4.3.5.2,0,.5,0,.7,0,.5-.1,1-.4,1.5-.7.6-.4,1.1-.9,1.5-1.4.2-.2.4-.4.6-.6,0,0,.2-.2.4-.1.4.1.9.2,1.3.5,0,.2,0,.3,0,.5,0,.4,0,.8,0,1.2,0,.7.2,1.4.5,2.1.4,1.1,1.1,2,2,2.7.6.4,1.2.7,1.9.8.4,0,.9,0,1.3,0,.9,0,1.7-.4,2.5-1,.6-.5,1.1-1.1,1.5-1.7.2-.3.3-.6.4-.8,0,0,0-.1,0-.2,0,0,0-.2-.2-.2-.5,0-1,0-1.5,0-1.6,0-3.1-.9-3.7-2.8,0-.2,0-.4.3-.4.2,0,.3,0,.5,0,1.8-.2,3.5-.7,5.2-1.4,2.3-1,4.2-2.4,5.8-4.2,1.2-1.3,2.1-2.8,2.5-4.6.2-1,.3-2,.3-3,0-1.8-.5-3.4-1.6-4.8-.5-.7-1-1.2-1.5-1.8-.8-.8-1.6-1.6-2.5-2.3-.5-.4-1-.8-1.5-1.2-.4-.3-.4-.4-.2-.8.3-.7.7-1.4,1.1-2.1ZM70.7,158c-1.4,1.3-3,2.1-4.9,2.3-.2,0-.3,0-.5,0-.2,0-.3-.1-.3-.3,0-.3,0-.6.1-.9.2-1.4.6-2.8,1-4.1.7-2.1,1.5-4.2,2.3-6.3,0-.2.1-.3.2-.5,0,0,.2-.1.3,0,.2.1.4.3.6.4.7.5,1.3,1.1,1.9,1.7.6.7,1,1.4,1,2.3,0,.3,0,.6,0,.7,0,2-.6,3.5-1.9,4.8ZM71.4,136.2c-.2.5-.5.9-.8,1.4,0,.1-.2.2-.3.1-.7-.3-1.3-.6-2-.9-1-.5-1.9-1.1-2.8-1.7-.7-.5-1.3-1-1.9-1.6-1.4-1.5-1.3-3.8-.4-5.2.8-1.3,2-2,3.6-2.2.4,0,.8,0,1,0,1.2,0,2.2.2,3.1.5,1.5.6,2.6,1.5,3.4,2.9,0,.1.1.2.2.4,0,.2,0,.3,0,.5,0,.2-.2.4-.3.6-.9,1.8-1.9,3.6-2.8,5.4Z"/>
    <path class="cls-4" d="M252.7,147.3c-.5-.9-1.1-1.7-1.7-2.6-1.2-1.5-2.5-3-3.8-4.4-.2-.2-.4-.4-.6-.6-.3-.3-.4-.7-.4-1.2,0-.2,0-.5,0-.7,0-.2,0-.4.1-.6,0,0,0-.1-.1-.2-.1,0-.3,0-.4,0-.4.2-.9.2-1.3.3-.5.1-1,0-1.5-.2-.1,0-.3-.2-.4-.3-1.3-.9-2.5-1.8-3.6-2.9-.5-.5-1-1-1.4-1.5-1-1.4-1.1-3-.4-4.5.5-1.1,1.3-1.8,2.5-2.3.8-.3,1.7-.4,2.5-.4.3,0,.6,0,.9.1,1.8.3,3.3,1.1,4.5,2.5,1.5,1.9,2.1,4,1.6,6.4-.1.5,0,.7.5.8.2,0,.3,0,.5,0,.2,0,.5,0,.7-.2.7-.5,1-1.2,1.1-2,0-.4,0-.8-.1-1.1,0-.3,0-.5.2-.8.3-.3.5-.7.6-1.1.2-.6.2-1.2.2-1.8,0-.6-.2-1.1-.5-1.6,0-.1-.2-.3-.3-.4,0,0,0-.2,0-.3,0-.1.1-.2.2-.4.1-.2.3-.5.3-.8.2-.9,0-1.8-.7-2.5-.2-.2-.4-.3-.6-.4,0,0-.2,0-.3,0,0,.1,0,.3,0,.4-.1.3-.2.6-.3.9-.3.5-.7.8-1.2.9-.2,0-.5,0-.7,0-1,0-2.1-.2-3-.6-1.2-.5-2.4-.8-3.6-.9-1.9-.2-3.7-.2-5.5.3-1.9.5-3.7,1.4-5.1,2.8-1.2,1.2-2,2.6-2.4,4.3-.3,1.3-.2,2.6,0,3.9.1,1.2.6,2.3,1.1,3.3.5,1,1.2,1.9,1.9,2.7.8,1,1.7,1.9,2.6,2.8.3.3.6.6.9.9.3.3.5.8.4,1.2,0,.3,0,.5,0,.8,0,.1.1.2.2.2.2,0,.3,0,.5-.1,1-.3,2-.2,3,.3.6.3,1.1.6,1.6,1,1.1.9,2.2,1.9,3.2,2.9.6.6,1.1,1.3,1.6,2,.4.6.7,1.2.9,1.9.3,1.1.3,2.3.1,3.4-.3,1.8-1.4,3-3.1,3.6-.5.2-1.1.3-1.6.3-.8,0-1.5,0-2.3-.2-4.1-.9-6.7-4.2-7.5-7.1-.4-1.4-.5-2.7-.4-4.1,0-.4.2-.9.3-1.3,0-.2.2-.4.3-.6,0-.2,0-.4-.2-.5-.5-.2-1.1-.2-1.6.2-.7.5-1.2,1.1-1.5,1.9-.4,1-.4,2,0,3,0,.2.1.4.2.7-.1.2-.2.3-.3.4-.2.3-.5.5-.6.8-.7,1.2-.7,2.4,0,3.6.1.2.3.4.4.6.2.2.3.5.3.8,0,.8,0,1.5-.4,2.2,0,.2,0,.4.2.5.6.4,1.2.4,1.9.2.6-.1,1.2-.4,1.7-.8.2-.2.4-.3.7-.5.2-.1.4-.2.6,0,.2.1.5.3.7.4,3,1.9,7.7,3.1,11.2,2.6,1-.1,1.9-.3,2.8-.7,3-1.3,4.9-3.4,5.5-6.6.1-.7.2-1.4.3-2.1.1-1.1,0-2.3-.2-3.4-.3-1.4-.8-2.8-1.5-4.1Z"/>
    <path class="cls-4" d="M225.1,146.2c.1-.9.2-1.8.4-2.7.2-1.2.6-2.3,1.5-3.2,0,0,0,0,.1-.2-.2-.2-.3-.3-.4-.5-.6-.7-1-1.5-1.2-2.4-.1-.4-.2-.9-.2-1.3-.1-1.2-.3-2.5-.7-3.7-.5-1.8-1.2-3.5-2.3-5.1-1.7-2.4-3.9-4.1-6.8-4.8-1.9-.5-3.8-.6-5.7-.4-2.1.3-4.1,1-5.8,2.3-2.6,1.9-4.3,4.4-5.2,7.4-.3,1-.5,2-.6,3-.2,1.2-.6,2.3-1.5,3.2,0,0-.1.1-.1.2,0,0,0,.1,0,.2,0,.1.2.2.3.3.5.5.9,1.2,1,1.9.1.5.2,1.1.3,1.6.2,1.1.3,2.3.6,3.4.6,2,1.4,4,2.6,5.7,1.7,2.5,3.8,4.3,6.6,5.5,2.4,1,4.8,1.3,7.4,1.1,2.6-.3,4.8-1.4,6.5-3.4.8-1,1.4-2.1,1.9-3.3.6-1.5,1.1-3.1,1.3-4.8ZM216.8,151.4c0,.7-.3,1.4-.7,2.1-.6.9-1.4,1.5-2.5,1.7-1.9.3-3.6-.1-5-1.3-.9-.7-1.5-1.7-1.8-2.9-.1-.6-.2-1.2-.2-1.7,0-2.2,0-4.5,0-6.7,0-.3,0-.6,0-.9.2-1,.6-1.8,1.4-2.5.1,0,.2-.2.3-.3,0,0,0-.2,0-.2-.1-.1-.2-.2-.4-.4-.9-.9-1.4-1.9-1.4-3.2,0-1.9,0-3.9,0-5.8,0-.9.2-1.8.6-2.7.7-1.4,1.8-2.1,3.3-2.4.7-.1,1.3-.1,2,0,1.7.3,2.9,1.2,3.7,2.7.4.7.5,1.6.6,2.4,0,.3,0,.6,0,.8,0,.9,0,1.7,0,2.6h0c0,.9,0,1.9,0,2.8,0,.3,0,.6,0,.9-.2.9-.5,1.6-1.2,2.2-.2.1-.3.3-.5.4,0,0,0,.1,0,.2.1.1.2.3.3.4.9.9,1.4,2.1,1.4,3.4,0,.2,0,.5,0,.7,0,2.1,0,4.1,0,6.2,0,.5,0,1,0,1.4Z"/>
    <path class="cls-4" d="M149,153c1.2.5,2.4.7,3.6.2.2,0,.4-.2.6-.3.2,0,.3,0,.5,0,.1,0,.2.1.4.2,1,.4,1.9.5,2.9.3.5,0,1.1-.3,1.6-.5.3,0,.5.1.8.2.5.2,1.1.3,1.6.4,1.1.2,2.1.2,3.2.2,1.5,0,3-.2,4.4-.7,2.2-.6,4.2-1.8,5.8-3.5,1.2-1.3,2.1-2.8,2.7-4.5.5-1.5.9-3,1.1-4.5,0-.4.1-.8.2-1.1.2-.7.5-1.3,1.2-1.7.1,0,.2-.2.3-.2,0,0,0-.2,0-.2-.2-.1-.3-.3-.5-.4-.5-.4-.9-1-1-1.6,0-.3-.1-.6-.2-.9,0-.9-.3-1.7-.5-2.5-.4-1.4-.9-2.8-1.7-4.1-1.1-1.8-2.5-3.2-4.4-4.1-1.2-.6-2.4-1-3.7-1.3-.8-.2-1.6-.2-2.4-.3-2.1-.2-4.3-.1-6.4.4-.5.1-1.1.2-1.6,0-.9-.3-1.9-.4-2.8,0-.3,0-.5.2-.8.3-.3.1-.5.2-.8,0-.4-.2-.8-.4-1.3-.4-1-.2-1.9,0-2.8.4-.3.2-.6.4-.8.8,0,0,0,.2,0,.3,0,0,.1.1.3.1.3,0,.7,0,1,0,.5,0,.9,0,1.3.3.9.5,1.6,1.1,1.5,2.3,0,0,0,.1,0,.2,0,2.4,0,4.8,0,7.1,0,.2,0,.3,0,.5,0,1.1-.5,1.9-1.4,2.5-.2.1-.4.3-.6.4,0,0,0,.2,0,.2,0,0,.2.2.3.3.3.2.6.4.9.7.4.3.6.7.7,1.3,0,.4,0,.8,0,1.1,0,2.9,0,5.9,0,8.8,0,.1,0,.2,0,.3,0,.4-.1.7-.4,1-.4.5-.8.8-1.4,1-.4.1-.9.2-1.3.2-.3,0-.5,0-.8,0,0,0-.2.1-.2.2,0,.2.1.4.3.5.2.2.4.3.6.4ZM159.8,125.9c0-.3,0-.7,0-1,0-.3.1-.5.4-.6.2,0,.4-.2.6-.2,1.1-.1,2.1-.2,3.2,0,.9.2,1.8.6,2.5,1.2.8.6,1.4,1.3,1.9,2.2,1,1.7,1.6,3.6,1.8,5.6,0,.3,0,.6,0,.9,0,.4,0,.8,0,1.1-.1.7-.4,1.3-1,1.7-.2.1-.4.2-.5.4.2.2.5.4.7.5.5.4.7.8.8,1.4,0,.2,0,.3,0,.5,0,1.3,0,2.6-.2,3.9-.1.9-.3,1.8-.5,2.6-.2.7-.4,1.4-.8,2-.3.5-.6.9-.9,1.4-.5.6-1.1,1-1.8,1.4-1.4.6-2.8.8-4.3.4-.6-.2-1.2-.5-1.6-.9-.2-.1-.3-.3-.3-.5,0-.2,0-.5,0-.7,0-7.8,0-15.6,0-23.4Z"/>
    <path class="cls-4" d="M59.3,105.2c.1,0,.2-.2,0-.4-1.1-1.1-2.1-2.3-3-3.5-.3-.4-.4-.5-.9-.2-.3.1-.6.3-.8.4-1.8.9-3.7,1.8-5.5,2.7-2.1,1-4.2,2-6.4,2.9-2.1.9-4.3,1.6-6.5,2.1-2.5.6-5,.9-7.6,1-1.7.1-3.4,0-5.2,0-1.2,0-2.4-.2-3.6-.5-.8-.2-1.5-.4-2.2-.8-.5-.2-.9-.5-1.3-.9-.6-.6-1-1.3-1-2.2,0-.8.1-1.6.3-2.3.3-1,.7-1.9,1.2-2.8.8-1.3,1.7-2.5,2.8-3.5.2-.2.4-.4.5-.6.3-.5,0-1.1-.6-1.1-.5,0-.9,0-1.3.1-3,.7-5.7,2.1-8,4.2-1,.9-1.8,1.8-2.4,2.9-1.4,2.4-2,4.9-1.6,7.6.4,2.3,1.4,4.2,3.3,5.6,2.2,1.7,4.7,2.6,7.4,3,1.3.2,2.5.2,4.1.2,1.2,0,2.7-.1,4.1-.3,1.5-.2,2.9-.5,4.4-.8,2.9-.6,5.8-1.4,8.6-2.4,5.2-1.9,10.2-4.3,15-7.1,2-1.2,4-2.3,6.1-3.4,0,0,.1,0,.2,0Z"/>
    <path class="cls-4" d="M300.6,104.6c-.9-2.1-2.2-4-4-5.4-1.3-1.1-2.7-1.9-4.3-2.3-.3,0-.6-.1-.9-.1-.2,0-.4.2-.5.4,0,.2,0,.4,0,.6.2.2.3.4.5.7,1.2,1.4,2,3,2.6,4.7.3,1.1.6,2.2.5,3.4,0,1.5-.7,2.7-1.8,3.6-.5.4-1,.7-1.6.9-1.1.4-2.2.7-3.4.8-.9,0-1.9,0-2.8,0-1,0-2.1-.2-3.1-.4-1.6-.4-3.2-1-4.8-1.6-2.7-1.1-5.2-2.3-7.7-3.7-2.6-1.4-5.2-2.9-7.9-4.4-1-.6-2-1.1-3.1-1.7-4-1.9-8-3.8-12-5.6-.4-.2-.8-.3-1.1-.5,0,0-.1,0-.1,0-.6.6-1.2,1.3-1.7,2,0,0,0,.2,0,.3.1,0,.3.2.4.3,1.1.6,2.2,1.2,3.3,1.8,2.7,1.6,5.3,3.2,8,4.7,1.1.6,2.2,1.4,3.2,2.1,1.9,1.4,3.7,2.8,5.6,4.1,2.3,1.7,4.6,3.2,6.9,4.7,3.7,2.3,7.7,3.9,11.9,5,2.3.6,4.7,1,7.2,1,2.2,0,4.3-.5,6.4-1.2,1.2-.4,2.1-1.1,2.9-2.1.3-.4.6-.8.8-1.2.8-1.3,1.2-2.8,1.4-4.3.2-1.2.2-2.3,0-3.5-.1-1-.4-2-.8-3Z"/>
    <path class="cls-4" d="M109,134.4c0,.7-.2,1.3-.4,1.9,0,0,0,.1,0,.2,0,.1,0,.3.2.3.1,0,.2,0,.3,0,.7,0,1.3-.4,1.7-.9.7-.8,1-1.8,1.1-2.9,0-.4,0-.8-.2-1.1-.3-.6-.3-1.1.1-1.6.4-.8.5-1.6.3-2.4-.1-.3-.3-.6-.4-.8,0-.1,0-.3,0-.4,0,0,.1-.2.2-.3.6-.7.7-1.6.6-2.4,0-1.4-1.3-2.3-2.6-2.2-.1,0-.3.2-.3.3,0,.3,0,.6,0,.8,0,.5-.5.8-.9.8-.1,0-.3,0-.4,0-.6-.1-1.2-.3-1.8-.5-1.2-.3-2.5-.5-3.8-.5-.8,0-1.6.1-2.4.5-.2,0-.4.2-.6.2-.2,0-.4-.2-.7-.3-.5-.2-1-.3-1.5-.3-.8,0-1.6.1-2.3.5-.2.1-.3.2-.6.2-.1,0-.3-.1-.4-.2-1-.5-2.1-.6-3.2-.5-.5,0-1.1.2-1.6.3-.8.2-1.6.4-2.4.6-.4.1-.7.2-1.1.3-.4,0-.8-.3-.9-.7,0-.3,0-.7,0-1,0-.2-.1-.3-.3-.4-1.1-.1-2.2.5-2.5,1.6-.4,1.1-.2,2.2.2,3.2,0,.2.2.4.3.5.1.2.1.4,0,.6,0,.1-.1.2-.2.4-.5,1.1-.5,2.2,0,3.3.1.2.2.4.4.7-.3.7-.4,1.5-.5,2.2,0,.6,0,1.1.2,1.6.2.6.5,1.2,1,1.7.5.5,1.1.6,1.7.5.2,0,.3-.2.3-.4-.3-.9-.4-1.7-.5-2.6,0-1.7.1-3.3.7-4.9.4-1.1,1-2.2,1.8-3.1.6-.6,1.2-1.1,1.9-1.4,1-.5,2-.6,3-.4.9.1.9.2.9,1,0,.1,0,.2,0,.3,0,3.1,0,6.3,0,9.4,0,.2,0,.3,0,.5,0,1.2-.5,2.3-1.5,3-.2.1-.4.3-.6.5,0,.1.1.2.2.3.4.2.7.5,1.1.8.4.4.7.9.7,1.6,0,.3,0,.6,0,.9,0,1.9,0,3.9,0,5.8,0,1.5,0,3,0,4.6,0,.6-.2,1.1-.6,1.6-.3.3-.5.6-.9.9-.8.5-1.6.8-2.5.7-.3,0-.4.2-.4.5,0,.3.2.5.3.6.3.3.7.5,1.1.5,1.2.2,2.3,0,3.3-.6.1,0,.2-.1.3-.2.2-.2.4-.2.7,0,.4.2.9.3,1.4.3,1,0,1.9-.2,2.7-.7.6-.4.7-.4,1.3-.2.1,0,.3,0,.4.1,1.3.3,2.5,0,3.6-.7.3-.2.6-.5.7-.9,0,0,0-.2,0-.3,0,0-.1-.2-.2-.2-.1,0-.3,0-.4,0-.4.1-.9.2-1.3.1-.9-.1-1.7-.4-2.2-1.2-.1-.2-.2-.5-.2-.8,0-.3,0-.7,0-1,0-3.2,0-6.4.1-9.5,0-.2,0-.3,0-.5,0-.9.4-1.7,1.1-2.3.1,0,.2-.2.3-.3.1,0,.2-.2.3-.2.3-.2.3-.3,0-.5-.3-.2-.6-.4-.8-.6-.5-.4-.8-.9-.9-1.5,0-.4,0-.8,0-1.2,0-2.3,0-4.6.1-6.8,0-.9,0-1.9,0-2.8,0-.2,0-.3,0-.5,0,0,0-.2.2-.2,0,0,.2-.1.3-.1,1.6-.5,3.1-.2,4.5.7,1,.7,1.7,1.6,2.2,2.7.9,1.8,1.1,3.7,1,5.6Z"/>
    <path class="cls-4" d="M80.6,105.2c-.2,0-.4-.1-.6-.1-.4,0-.8,0-1.2,0-1.5,0-2.9-.5-4.3-1.2-1.5-.7-2.8-1.7-4.1-2.8-.3-.2-.5-.5-.8-.7-1.8-1.4-3.4-3-5-4.6-.9-1-1.8-1.9-2.6-2.9-3.9-4.5-7.1-9.4-9.8-14.7-1.1-2.2-2.1-4.4-2.9-6.6,0-.2-.2-.4-.3-.7,0,0-.1,0-.2,0-.1,0-.2.2-.3.3-.6.7-1.1,1.4-1.7,2.1-.9,1.1-1.8,2.1-2.8,3,0,0,0,0,0,0,0,0,0,.2,0,.3.1.3.2.5.3.8.9,1.9,1.8,3.9,2.7,5.8,1.3,2.6,2.6,5.2,4.1,7.7,1.8,3,3.6,5.9,5.6,8.7.8,1.1,1.6,2.2,2.5,3.2,2.2,2.5,4.7,4.4,7.6,6,.7.4,1.4.7,2.2,1,1.3.5,2.6.8,3.9.7.7,0,1.3,0,2-.2,1.3-.3,2.5-.8,3.6-1.4.9-.5,1.6-1.1,2.1-1.9.2-.3.4-.7.5-1.1,0-.2-.1-.5-.3-.6Z"/>
    <path class="cls-4" d="M140.6,150.3c.7-.6,1.4-1.2,2-1.8,0,0,0,0,0,0,0-.2-.1-.2-.2-.3-.2-.2-.4-.4-.5-.6-.2-.3-.4-.7-.4-1.1,0-.2,0-.4,0-.6,0-1.3,0-2.6,0-3.9,0-.7,0-1.4,0-2.1,0-.3,0-.6.1-.9.2-.5.5-.8.9-1.1.4-.2.8-.5,1.2-.7,0-.1-.1-.2-.2-.3-.4-.2-.8-.4-1.2-.7-.6-.4-.8-.9-.9-1.6,0-.2,0-.4,0-.6,0-2.6,0-5.2,0-7.8,0-.3,0-.6,0-.8,0-.2,0-.4.2-.6.6-.8,1.4-1.3,2.5-1.3.5,0,1,0,1.4.1.2,0,.4,0,.4-.3,0-.4-.1-.7-.4-1-.3-.3-.8-.5-1.2-.5-.5,0-1,0-1.4.2-.3,0-.5.2-.7.3-.1,0-.3-.1-.4-.2-.9-.5-1.8-.5-2.7,0-.2,0-.3.1-.5.2-.2-.1-.5-.2-.7-.3-.5-.2-1-.3-1.5-.2-.5,0-1,.2-1.4.6-.3.3-.5.6-.4,1,0,0,.1.2.2.2.2,0,.3,0,.5,0,.4,0,.8,0,1.1,0,.8,0,1.4.3,2,.8.5.4.7.9.7,1.5,0,2.1,0,4.2,0,6.3,0,.8,0,1.5,0,2.3,0,.7-.3,1.3-.8,1.7-.1.1-.3.3-.5.4-.1.1-.3.2-.4.3,0,0-.2.1-.2.2,0,0,0,.2,0,.3.4.3.8.5,1.2.8.4.3.6.7.7,1.2,0,.1,0,.3,0,.4,0,2.2,0,4.4,0,6.6,0,1-.4,2-1,2.8-.3.3-.6.6-.9.9-1.7,1.4-3.6,2.1-5.8,1.9-1.6-.1-2.9-.8-4-1.9-.8-.8-1.2-1.7-1.3-2.8,0-.4,0-.9,0-1.3,0-1.5,0-3,0-4.5,0-.4,0-.8,0-1.1,0-.9.5-1.6,1.2-2.2.1-.1.3-.2.4-.3.1,0,.2-.2.3-.2,0,0,0-.2,0-.3-.3-.2-.6-.4-.9-.7-.6-.5-1-1.2-1-2,0-.1,0-.3,0-.4,0-2.5,0-5,0-7.6,0-.3,0-.6,0-.9,0-.2,0-.4.2-.6.4-.7.9-1.2,1.7-1.4.6-.2,1.1-.3,1.7-.1,0,0,.2,0,.3,0,0,0,.2-.1.2-.2,0-.3,0-.5-.3-.6-.2-.2-.4-.4-.7-.5-1.2-.5-2.5-.7-3.7,0-.2.1-.4.3-.7.3-.1,0-.3-.2-.5-.2-.9-.4-1.9-.5-2.8-.3-.4,0-.7.2-1.1.4-.2,0-.4.2-.5.2-.2,0-.4-.2-.5-.2-.5-.3-1-.4-1.6-.4-.9,0-1.7.1-2.5.6-.3.2-.5.4-.6.8,0,.2,0,.4.3.4.4,0,.8,0,1.1,0,.4,0,.8,0,1.1.2.5.2.9.6,1.3,1,.3.4.3.8.3,1.3,0,0,0,.1,0,.2,0,2.4,0,4.8,0,7.2,0,.3,0,.6,0,.9,0,.4,0,.8-.3,1.2-.2.5-.6,1-1.1,1.4-.2.2-.4.3-.7.5,0,0,0,.2,0,.2,0,0,.2.2.3.3.3.2.6.4.8.6.5.4.8,1,.8,1.6,0,.3,0,.6,0,.8,0,1.7,0,3.4,0,5.1,0,.4,0,.8,0,1.1.1,1.6.7,3.1,1.9,4.2.5.5,1.1.9,1.8,1.2.7.4,1.5.6,2.2.8,1,.3,2.1.4,3.2.5,1.9.2,3.9,0,5.8-.4,2.6-.6,5-1.8,7-3.6Z"/>
    <path class="cls-4" d="M111,53.5c.3,0,.5-.2.8-.3,1.7-.5,3.4-.9,5.1-1.2,1.5-.3,2.9-.5,4.4-.6,1.6,0,2.8.4,3.8,1.7.1.2.2.3.4.5,0,0,.1.2.2.2.3.3.8.2,1,0,.2-.2.3-.5.3-.8,0-.9,0-1.7,0-2.6,0-.6-.3-1.2-.5-1.8-.5-1.1-1.3-1.8-2.5-2.2-1.1-.4-2.3-.5-3.5-.3-.9,0-1.8.2-2.6.5-2.4.6-4.7,1.3-7,2.1-2.8.9-5.5,1.7-8.3,2.5-1.4.4-2.9.8-4.3,1-1.1.2-2.3.3-3.4.3-.8,0-1.7,0-2.5-.2-.4,0-.9-.2-1.3-.4-.4-.2-.6-.6-.6-1,0-.4,0-.8.1-1.2,0-.2,0-.3.1-.5,0-.4-.2-.7-.7-.8-.2,0-.4,0-.6,0-1.2.3-2,1-2.6,2-.2.3-.3.6-.3,1,0,1.5.5,2.6,1.7,3.5.6.4,1.3.7,2,.9,1.4.3,2.9.4,4.3.3,1.2,0,2.3-.2,3.5-.3,2.2-.3,4.3-.6,6.4-1.1.4,0,.8-.2,1.2-.2.1,0,.3.1.3.2,0,.7,0,1.3,0,2,0,2.7-.2,5.3-.3,8,0,.2,0,.4,0,.6-.1,2.3-.2,4.7-.3,7,0,1.7-.2,3.4-.5,5.1-.2,1.1-.4,2.2-.9,3.3-.2.4-.3.8-.5,1.3,0,.2,0,.3,0,.5,0,.1.2.3.2.3.2,0,.5,0,.7,0,2.4,0,4.8,0,7.1,0,.1,0,.3,0,.4,0,.2,0,.3-.2.3-.4,0-.3-.2-.6-.3-.9-.8-1.8-1.2-3.7-1.1-5.6,0-4.6.2-9.2.3-13.8,0-.3,0-.7,0-1,0-2.1.2-4.3.2-6.4,0-.1,0-.3,0-.4-.5-.3-1.1-.2-1.6-.6.3,0,.6-.2.8-.2.2,0,.5-.1.7-.2Z"/>
    <path class="cls-4" d="M70,89.5c.2,0,.3,0,.5,0,.4-.1.9-.2,1.3-.3,1.2-.3,2.5-.3,3.7-.2,1.5.1,3,.7,4.2,1.7,1.5,1.2,2.9,2.5,4.3,3.9,1,1,2,1.9,3.1,2.8,1.6,1.3,3.2,2.4,5,3.2,1.6.7,3.2,1.2,5,1.3,1.4,0,2.8,0,4.2-.3,1.5-.3,2.8-.8,4.1-1.6,1.5-1,2.8-2.2,3.7-3.8.9-1.5,1.1-3.1.7-4.8-.4-1.6-1.2-2.9-2.6-3.8-.5-.4-1.1-.6-1.8-.9-1.4-.5-2.8-.6-4.3-.5-1.7,0-3.4.3-5.1.6-2.9.6-5.8,1.4-8.6,2.2-.2,0-.3.1-.5.2,0,0,0,.2,0,.2.4.4,2,1.8,2.5,2.2.3,0,.6-.2,1-.3,2.4-.8,4.9-1.4,7.5-1.7,1.2-.1,2.3-.1,3.5.1.6.1,1.2.3,1.7.7.3.2.6.4.8.7.6.8.5,1.3.1,2-.2.3-.4.6-.7.9-.3.2-.7.5-1,.7-1.2.6-2.5,1-3.8,1.2-1.2.1-2.4,0-3.6-.2-2.2-.5-4.1-1.5-5.7-3-.9-.9-1.9-1.7-2.8-2.6-.9-.8-1.8-1.6-2.8-2.3-.9-.6-1.8-1.1-2.7-1.5-1.7-.7-3.4-.8-5.2-.3-1.7.4-3.3,1.2-4.8,2.1-.3.2-.6.4-.8.6,0,0-.2.2-.2.3,0,.2,0,.5.3.4Z"/>
    <path class="cls-4" d="M195.7,153.4c-.5,0-1,0-1.5,0-.7-.2-1.3-.5-1.8-1-.4-.5-.7-1-.6-1.7,0,0,0-.1,0-.2,0-3.1,0-6.1,0-9.2,0-.2,0-.4,0-.6,0-.2,0-.4,0-.6.2-.7.6-1.3,1.2-1.6.2-.1.4-.3.6-.4.1,0,.1-.2,0-.3-.3-.3-.7-.5-1-.8-.6-.5-.9-1.2-.9-2,0-.2,0-.4,0-.6,0-2.6,0-5.2,0-7.9,0-.2,0-.5,0-.7,0-.1,0-.3.1-.4.5-.9,1.2-1.5,2.3-1.6.3,0,.7,0,1,0,.2,0,.3,0,.5,0,0,0,.2-.1.1-.2,0,0,0-.1,0-.2-.1-.3-.3-.5-.6-.7-.6-.4-1.2-.5-1.8-.6-.7,0-1.4,0-2,.3-.2.1-.5.2-.8.4-.2-.1-.4-.2-.7-.3-1-.4-2-.6-3-.2-.4.1-.7.3-1.1.4-.2,0-.4,0-.6,0-.2,0-.4-.2-.6-.3-1.2-.5-2.3-.4-3.4,0-.3.1-.5.3-.7.5-.1.2-.2.3-.3.5,0,.2,0,.4.3.3.3,0,.5-.1.8-.1,1,0,1.9.3,2.6,1.1.3.4.5.8.5,1.2,0,.2,0,.3,0,.5,0,2.5,0,5,0,7.5,0,.2,0,.4,0,.6,0,1-.5,1.8-1.4,2.4-.2.1-.3.2-.5.3,0,0,0,.2,0,.3.1.1.3.2.4.3.3.2.6.5.9.7.4.3.6.8.6,1.3,0,.4,0,.8,0,1.1,0,2.9,0,5.9,0,8.8,0,.2,0,.5,0,.7,0,.3-.1.6-.3.9-.5.7-1.2,1-2,1.1-.5,0-1,0-1.4-.1-.2,0-.4.1-.3.4,0,.2.1.4.3.5.2.2.4.3.7.5.5.3,1,.4,1.6.5.7.1,1.4,0,2.1-.2.2,0,.4-.2.5-.2,2,1,3.1,1.1,5.1.4.2,0,.4.2.6.3.8.5,1.7.6,2.7.5.5,0,.9-.2,1.3-.4.2-.1.5-.3.6-.6,0-.1,0-.3,0-.4,0,0-.1-.2-.2-.2Z"/>
    <path class="cls-4" d="M228.7,64.4c.4,0,.9-.1,1.3-.2.8,0,1.5,0,2.3.1.7.2,1.4.5,1.7,1.2.1.2.2.3.4.5.3.4.7.6,1.1.7.7.2,1.4.3,2.2.2.2,0,.3,0,.5-.2.3-.2.5-.5.6-.9,0-.3-.1-.5-.2-.7,0,0-.1-.2-.2-.3-.4-.7-.8-1.5-1.1-2.3,0-.2-.1-.4-.2-.6-.2-.4-.5-.6-.8-.7-.2,0-.5-.1-.7-.1-.5,0-1,0-1.6,0-2.3,0-4.6,0-6.8,0-1.5,0-3,0-4.6,0-.4,0-.8,0-1.1,0-.1,0-.2,0-.3,0,0,0-.2.2-.2.2,0,.1,0,.3,0,.4.1.2.3.5.5.7.6.7.8,1.5.9,2.4,0,.3,0,.7,0,1,0,.5,0,1,.1,1.5,0,1.1.2,2.2.2,3.3,0,1.5.2,3,.3,4.4.2,1.8.2,3.7.3,5.5,0,.4,0,.8,0,1.1,0,.9-.3,1.8-.9,2.5-.2.2-.3.4-.4.6-.3.4,0,.8.5.9.1,0,.2,0,.3,0,.5,0,1,0,1.4-.1.5,0,1-.1,1.4-.1,1.6,0,3.2,0,4.9.1,1.8,0,3.6.1,5.4.1.3,0,.6,0,.9,0,.3,0,.5-.2.7-.4.3-.4.5-.8.7-1.3.4-1,.7-1.9,1-2.9,0-.1,0-.3-.1-.4-.2-.2-.4-.3-.5-.5-.1,0-.3-.1-.4-.1-.5,0-1,0-1.5.1-.5.1-.9.4-1.2.9-.1.2-.3.5-.4.7-.3.5-.8.8-1.4.9-.2,0-.5,0-.7,0-.7,0-1.4,0-2.1,0-.6,0-1.2-.1-1.8,0-.3,0-.7,0-1,0,0,0-.1,0-.1-.1,0,0,0-.1,0-.2.2-.2.4-.4.6-.6.1-.1.2-.3.2-.5,0-.7-.2-1.4-.3-2.2,0-.6,0-1.2-.1-1.8,0-.2,0-.5.1-.7.5-.9,1-1.6,1.8-2.3.3-.2.5-.4.9-.5.2,0,.4,0,.6,0,.2,0,.4.2.6.4.2.2.3.5.4.8,0,.4.2.8.2,1.2,0,.2,0,.3,0,.5,0,.1.2.2.3.2.2,0,.3,0,.5-.2.5-.5.8-1,1-1.6.4-1.3.3-2.5-.5-3.6-.9-1.4-3.2-2.4-5.1-.9-.3.2-.6.5-.9.8-.1,0-.2.2-.3.2,0,0-.2,0-.2,0,0-.3,0-.7,0-1,0-1.6,0-3.2-.1-4.9,0-.8,0-.8-.4-1.5,0,0,.2,0,.3,0,.4,0,.7,0,1.1,0Z"/>
    <path class="cls-4" d="M94.7,70.6c0,.4-.2.9-.3,1.3,0,0,0,.1,0,.2,0,0-.2,0-.3,0-.4-.5-.8-.9-1.2-1.4-1.5-1.6-3.3-2.9-5.2-3.9-.5-.3-1.1-.6-1.6-1-.4-.3-.8-.6-1.1-1.1-.5-.7-.7-1.4-.4-2.2.1-.3.2-.6.3-1,0-.2.1-.3.1-.5,0-.2-.1-.4-.3-.4-.5,0-1,0-1.5,0-.5,0-1,0-1.4.1-.8,0-1.6.2-2.5.3-.3,0-.7.1-1,.2,0,0-.2,0-.3.2,0,0,0,.2,0,.3.1,0,.3.2.4.3.3.2.6.4.8.6.6.6,1,1.3.9,2.2,0,.3,0,.6,0,.9,0,.5-.2,1-.3,1.4-.4,2-.7,4.1-.8,6.2,0,1.6,0,3.2,0,4.9,0,.7,0,1.4,0,2.1,0,.8-.2,1.6-.7,2.3-.2.3-.3.6-.5.9,0,.1,0,.3,0,.4,0,.2.2.4.4.5,0,0,.1,0,.2,0,1.2.1,2.3.2,3.5,0,.1,0,.3,0,.4,0,.1,0,.3-.2.3-.4,0-.2,0-.4,0-.6-.1-.5-.3-.9-.4-1.4-.3-1.6-.4-3.2-.4-4.7,0-1,0-2.1.2-3.1.2-1.3.4-2.7.9-3.9.1-.4.3-.7.4-1,0-.1.2-.2.4-.1,0,0,.2,0,.3.1,2,1.1,4,2.3,5.9,3.7.7.5,1.3,1,1.9,1.6.4.4.8.8,1.2,1.2.5.5.8,1.1,1,1.8.3,1,.2,2-.3,3-.2.3-.4.5-.5.8-.2.3-.4.6-.6.8,0,.1-.1.3-.2.5,0,.1,0,.3.2.3.2,0,.3,0,.5,0,.6,0,1.2,0,1.8,0h0c.5,0,1,0,1.4,0,.6,0,1.2,0,1.9-.2.4,0,.6-.5.4-.8,0,0-.1-.2-.2-.3-.2-.2-.3-.5-.5-.7-.4-.5-.6-1-.6-1.6,0-.6,0-1.1,0-1.7,0-2.3.4-4.6.9-6.9.4-1.7.8-3.3,1.1-5.1.2-1.3.2-2.5.1-3.8-.1-1.5-.8-2.7-1.9-3.7-.4-.3-.8-.6-1.2-.7-1.1-.4-2.1-.3-3,.4-.7.5-1.3,1.2-1.7,2,0,.1-.1.3-.1.4,0,.1,0,.3,0,.4,0,.2.3.4.5.4.3,0,.5-.2.8-.3.3-.1.6-.1.9-.1.3,0,.5.1.7.3.2.2.4.5.6.7.2.4.3.8.4,1.2.2.6.2,1.2.3,1.8,0,.8.1,1.6,0,2.4-.2,1.1-.4,2.2-.6,3.4Z"/>
    <path class="cls-4" d="M58.8,85.3c.2,0,.3,0,.5,0,.4,0,.8,0,1.1-.1.5-.1,1-.2,1.5-.2,2.2,0,4.3,0,6.5-.1.8,0,1.7,0,2.5,0s1.9-.1,2.9-.2c.7,0,1.2-.3,1.5-.9,0-.1.2-.3.3-.4.5-.9.9-1.9,1.3-2.9,0-.2,0-.3,0-.5,0-.2-.1-.3-.2-.5-.1-.2-.3-.3-.5-.3-.8,0-1.5.1-2.3.3-.4,0-.7.3-.9.6-.3.4-.5.7-.8,1.1-.3.4-.7.6-1.2.7-.5.1-1,.2-1.5.2-1.4,0-2.9,0-4.3,0,0,0-.1,0-.2,0,0,0,0,0,0,0,0,0,0,0,0,0,.2-.3.7-.5.7-.8,0-.4,0-.8,0-1.2,0-.2,0-.5,0-.7,0-.6,0-1.2-.1-1.8,0-.2,0-.5.2-.7.6-1,1.4-1.9,2.4-2.5.3-.2.6-.3.9-.4.2,0,.4,0,.6,0,.6.1,1.3.9,1.1,1.6,0,.2,0,.4,0,.6,0,.2.2.4.4.4.2,0,.4,0,.6-.2.9-.7,1.3-1.6,1.5-2.6,0-.4,0-.9-.1-1.3-.4-1.3-1.6-2.2-3-2.3-.7,0-1.3,0-1.9.4-.4.2-.8.4-1.2.6-.3.2-.6.4-.8.6,0,0-.2.1-.3.2,0,0,0,0,0,0,0,0-.1,0-.1-.1,0-1.4,0-2.9,0-4.3,0-.3,0-.6,0-.9-.3-.5-.7-.9-.9-1.4,0,0,.2,0,.2,0,.6.2,1.3.2,1.9,0,1-.2,2-.3,3.1-.3.9,0,1.6.3,2.3.8.2.2.5.4.7.6.7.7,1.6,1,2.5.9.1,0,.3,0,.4,0,.4,0,.7-.1.9-.4.1-.2.2-.3.3-.5-.5-.9-.9-1.7-1.3-2.5-.1-.2-.2-.5-.4-.7-.1-.2-.2-.4-.4-.6-.2-.3-.5-.5-.9-.5-.6,0-1.1,0-1.7,0-.9,0-1.8,0-2.7.1-.4,0-.8,0-1.1,0-1.4.1-2.9.2-4.3.3-1.2,0-2.3.2-3.5.3-.4,0-.9.1-1.3.2-.2,0-.3.1-.5.2,0,0-.1.2,0,.3,0,.1.2.2.2.3.5.5.9,1.2,1,1.9.2.8.3,1.6.2,2.4,0,.9,0,1.7,0,2.6,0,.6,0,1.2,0,1.8-.1,2.5-.2,5-.3,7.4,0,.7,0,1.3-.2,2-.2,1.1-.5,2.2-1.1,3.2,0,.1-.1.2-.2.4,0,0,0,.2,0,.3,0,0,0,.2.2.2Z"/>
    <path class="cls-4" d="M238.3,100.2c.9-.8,1.6-1.8,2.4-2.7.4-.5.9-1.1,1.3-1.6.7-.9,1.5-1.7,2.2-2.6.7-.8,1.4-1.4,2.3-1.9.7-.4,1.5-.6,2.3-.6.6,0,1.2,0,1.7.2.5.1.9.2,1.4.3.1,0,.3,0,.4,0,.2,0,.4-.3.4-.5-.1-.3-.3-.5-.5-.7-.9-.8-1.8-1.4-2.9-1.9-1.2-.5-2.4-.5-3.6,0-.6.2-1.1.5-1.6.8-1.1.7-2.1,1.6-3,2.6-.3.4-.6.7-1,1.1-.8.8-1.5,1.5-2.3,2.2-.3.3-.7.6-1,.9-1.1.8-2.2,1.5-3.5,1.9-1.6.5-3.1.5-4.7,0-.5-.2-1-.4-1.5-.8-.4-.3-.7-.7-1-1.2-.2-.4-.3-.8-.2-1.3,0-.8.5-1.4,1.1-1.8.5-.3,1.1-.5,1.6-.6.9,0,1.7,0,2.6,0,1.8.2,3.6.7,5.3,1.3.3,0,.5.2.8.3.2,0,.3,0,.5,0,.6-.6,1.2-1.2,1.8-1.8,0,0,0-.1,0-.2-.1,0-.3-.2-.4-.2-1.5-.6-3.1-1.2-4.7-1.7-.9-.3-1.7-.5-2.6-.7-1.3-.3-2.5-.4-3.8-.3-1.9,0-3.5.8-4.7,2.2-1,1.1-.8.8-.6,2.1.4,2.2.8,4.3,1.4,6.5.2.8.4,1.5.7,2.3,0,.3.3.5.5.7.6.4,1.2.7,1.8.9,1.7.6,3.4.6,5.2.3,1.3-.3,2.5-.8,3.7-1.6.8-.5,1.5-1.2,2.2-1.8Z"/>
    <path class="cls-4" d="M82.1,94c-.5-.5-1.8-1.7-2.5-2.2-.3.1-.6.2-.9.3-3.7,1.3-7.5,2.7-11.3,3.9-.2,0-.3.1-.5.2,0,0,0,.1,0,.2,0,0,0,.2.2.3.9.9,1.8,1.7,2.8,2.5.2.2.4.2.7,0,.7-.3,1.4-.7,2.2-1,2.8-1.2,5.6-2.4,8.4-3.5.3-.1.7-.2,1-.5,0,0,0-.2,0-.2Z"/>
    <path class="cls-1" d="M145.1,101.7c.1.2.3.5.5.6.8.5,1.5,1.1,2.3,1.5.1,0,.2,0,.3-.1,1-.7,1.9-1.5,2.9-2.2,0,0,.1-.2.2-.3,0-.6,0-1.3,0-1.9,0-.3,0-.7-.2-1-.4-1-1-1.9-1.9-2.5-.4-.3-.7-.5-1.1-.7-.2-.1-.4-.2-.7,0-.5.4-1,.8-1.6,1.2-.4.3-.9.7-1.3,1,0,0-.2.2-.2.3,0,.9,0,1.9.2,2.8,0,.5.3.9.5,1.3Z"/>
    <path class="cls-1" d="M147.9,94.4c.7.5,2.9,2,3.5,2.3.7-.3,1.4-.7,2.1-1,0,0,0,0,0,0,0,0,0-.2,0-.2-.4-.4-.8-.8-1.2-1.1-1.1-1-2.2-1.9-3.4-2.8-.3-.2-.6-.4-.9-.6-.1,0-.3,0-.3.2,0,.1,0,.2,0,.3,0,.8,0,1.6,0,2.5,0,.2,0,.3,0,.5Z"/>
    <path class="cls-3" d="M144.5,96.8c.9-.7,1.8-1.5,2.8-2.2.2-.1.3-.3.3-.5,0-.5,0-1,0-1.4h0c0-.4,0-.8,0-1.1,0-.2,0-.5-.2-.5-.2,0-.4.2-.5.3-.2.2-.4.3-.5.5-1.3,1.2-2.6,2.5-3.9,3.7-.6.6-.7.6.2.9.5.1.9.4,1.3.5.2,0,.4,0,.6,0Z"/>
    <path class="cls-3" d="M147.9,107.6c0,0,0-.2,0-.3,0-.4,0-.9,0-1.3,0,0,0,0,0,0,0-.5,0-1,0-1.4,0-.2-.1-.4-.3-.5-.9-.6-1.9-1.3-2.8-1.9,0,0-.1,0-.2-.1,0,0-.2,0-.3,0-.2.1-.5.3-.7.4-.3.2-.5.5-.6.8-.1.3,0,.6.2.9,0,0,0,0,.1.1,1.3,1.2,2.7,2.3,4.1,3.3,0,0,.2.1.3.1,0,0,.2,0,.2,0Z"/>
    <path class="cls-1" d="M149.9,102.8c-.5.4-.9.7-1.4,1.1-.2.2-.3.4-.3.6,0,.4,0,.9,0,1.3h0c0,.2,0,.3,0,.5,0,.4,0,.8,0,1.1,0,0,.1.1.2,0,.2,0,.3-.2.4-.3,1.3-1.1,2.5-2.2,3.7-3.3,0,0,0,0,.1-.1.4-.4.4-.8.1-1.3-.1-.2-.2-.3-.4-.4-.2-.1-.4-.2-.6-.3-.2,0-.4,0-.6,0-.4.3-.9.7-1.3,1Z"/>
    <path class="cls-1" d="M153.9,102.2c0,0,.1,0,.1-.1,0,0,0-.1,0-.2,0-1.6,0-3.2,0-4.9,0,0,0-.1,0-.2,0,0,0-.1,0-.2-.2-.3-.8-.4-1.1-.3-.4.2-.8.4-1.2.7,0,.1,0,.2,0,.3,0,1.3,0,2.5,0,3.8,0,0,.1.1.2.2.6.4,1.2.6,1.9.9,0,0,.1,0,.2,0Z"/>
    <path class="cls-3" d="M141.9,102.4s0,0,0,.1c0,.1.2.2.3.2.6-.2,1.2-.6,1.7-.9.2-.1.3-.3.3-.6,0-.9,0-1.9,0-2.8,0-1.1.1-1-1.1-1.5,0,0-.2,0-.3,0-.1,0-.2,0-.3,0-.7.2-.9.5-.9,1.2,0,.5,0,1,0,1.4,0,1,.1,1.9.2,2.9Z"/>
    <polygon class="cls-4" points="158.6 109.3 158.5 109.3 158.5 109.3 158.6 109.3"/>
    <g>
      <path class="cls-4" d="M144.9,25.5c0-.2,0-.3,0-.5,0,0,0-.1,0-.2,0,.1,0,.2,0,.3,0,.1,0,.2.1.3Z"/>
      <path class="cls-4" d="M144.9,25.5s0,0,0,0c0,0,0,0,0,0,0,0,0,0,0,0Z"/>
      <path class="cls-4" d="M144.8,24.8s0,0,0,0c0,0,0,0,0,0,0,0,0,0,0,0,0,0,0,0,0,0,0,0,0,0,0,0h0s0,0,0,0c0,0,0,0,0,0,0,0,0,0,0,0Z"/>
      <polygon class="cls-4" points="144.3 23.8 144.3 23.8 144.3 23.8 144.3 23.8"/>
    </g>
    <g>
      <path class="cls-2" d="M150.3,28.8c-.3,0-.6,0-.9,0,0,.2,0,.4.2.5.2.3.4.6.7.9.4.4.9.8,1.1,1.3,0,0,.1,0,.2,0,0,0,0-.2,0-.3,0-.3-.1-.6-.4-.8-.2-.2-.4-.4-.7-.7-.3-.2-.4-.5-.4-.9Z"/>
      <path class="cls-2" d="M151.3,27s0,0-.1,0c0,0,0,0,.1,0,0,0,0,0,0,0Z"/>
      <path class="cls-2" d="M150.4,28.8c.1,0,.2,0,.2-.2-.1,0-.2,0-.2.2Z"/>
      <path class="cls-2" d="M150.4,27.1c.3.3.4.7.2,1.1,0,0,0,.2,0,.3,0,0,.1,0,.2,0,.2-.1.2-.3.2-.5,0-.3,0-.5,0-.8s0-.2.2-.2c0,0,0-.2,0-.3-.2-.2-.4-.3-.6-.4-.3-.2-.6-.5-.6-.9,0,0,0,0,0,0,0,0,0,0,0,0-.1.4,0,.7.2,1.1.1.2.3.4.5.7Z"/>
      <path class="cls-2" d="M150.1,31.6c-.1.2-.2.4-.3.6,0,0,0,.2,0,.3,0,0,0,0,0,0,0,0,0,0,0,0,.2-.3.3-.6.4-.9,0,0,0,0,0,0,0,0,0,0,0,0Z"/>
      <path class="cls-2" d="M147.2,21.2c0,0,0-.1,0-.1,0,0,0,0,0,0,0,0,0,0,0,.1,0,0,0,0,.1,0Z"/>
      <path class="cls-2" d="M147.4,24.3c0-.2,0-.3,0-.5,0-.1,0-.3,0-.4,0,0,.1-.2.2-.2.1,0,.2,0,.3,0,.1,0,.2,0,.2-.2-.1-.3-.2-.5-.3-.8,0,0-.1,0-.2-.1,0,.2,0,.3-.1.5,0,.1-.2.2-.4.2,0,0-.2-.1-.2-.2-.1-.2,0-.5,0-.7,0-.2.1-.4.2-.6,0,0-.1,0-.1,0-.1.2-.3.3-.4.5-.3.6-.2,1.2.2,1.7.2.2.5.5.7.7Z"/>
      <path class="cls-2" d="M148.5,23.1c0,0,0-.1-.1,0,0,0,0,0,0,0,0,.2,0,.3,0,.5.1-.1.2-.3.1-.4Z"/>
      <path class="cls-2" d="M149.6,27.4h0s0,0,0,0c0,0,0,0,0,0Z"/>
      <path class="cls-2" d="M152,26.4c.3.4.3.9,0,1.4,0,.1,0,.2,0,.4,0,0,0,0,0,0,.2-.2.5-.5.7-.7,0-.5,0-.9,0-1.3,0,0-.1,0-.2,0-.1,0-.2,0-.2-.1,0,0,0-.2,0-.3,0-.1,0-.3,0-.4,0-.2.2-.3.2-.5-.3,0-.5.3-.6.6-.2.3-.2.6,0,.9,0,0,0,.2.1.3Z"/>
      <path class="cls-2" d="M151.4,37.4c0,0,.1,0,.2,0,.6-.3,1-.8,1.1-1.5,0-.5-.1-.9-.4-1.2-.2-.3-.5-.5-.7-.7-.3-.3-.3-.6-.2-.9,0-.1.1-.3.1-.4,0-.2,0-.5-.3-.6,0,.2,0,.4-.1.6,0,.2-.2.4-.3.5-.1.3-.1.6,0,.9.2.3.4.5.6.7.2.3.4.5.7.8.3.4.3.8,0,1.2-.2.3-.4.5-.5.7Z"/>
      <path class="cls-2" d="M152.8,28.4c-.4.4-.4.9-.1,1.3,0,.1.2.2.2.3.2.3.2.7,0,1,0,.2-.2.4-.3.5-.1.2-.3.4-.4.6-.3.4-.2.8,0,1.2,0,0,.1.2.2.2.4.4.7.8.9,1.3,0,0,.1.2.2.3,0,0,0-.1.1-.2,0-.2,0-.5-.1-.7-.1-.3-.3-.6-.5-.9-.5-.7-.5-.9,0-1.5.1-.1.2-.3.3-.4,0-.1.2-.3.2-.5,0-.2,0-.4,0-.6,0-.2-.2-.4-.3-.7,0-.2,0-.3,0-.5,0,0,0,0,.1,0,.4.3.9.6,1.3.8,0,0,0,0,0,0,0,0,0-.1,0-.2,0-.1-.2-.3-.3-.4-.1-.1-.3-.3-.5-.4-.4-.3-.3-.6-.2-.9,0-.2.2-.3.2-.5,0,0,0-.1,0-.2,0,0,0,0,0,0,0,0-.1,0-.2,0-.3.3-.6.6-.9.8,0,0-.1,0-.2.1Z"/>
      <path class="cls-2" d="M136.8,110.4s0,0,0,0c0,0,0,0,0,0h0Z"/>
      <path class="cls-2" d="M154.3,31.1c0,.5-.3.8-.6,1.1,0,0,0,.1-.1.2-.2.2-.2.5,0,.8,0,.2.2.4.3.5.3.4.5.8.4,1.3,0,0,0,0,0,.2.2-.4.3-.7.2-1,0-.3-.1-.7-.3-1-.3-.3-.2-.6,0-.9,0-.1.2-.2.2-.3.3,0,.3.3.5.3.1-.3,0-.5-.2-.8-.1-.2-.2-.4-.6-.5Z"/>
      <path class="cls-2" d="M152,28.4c0,0,0-.2,0-.3-.1,0-.2,0-.2.2,0,0,0,.1,0,.2,0,0,.1,0,.1-.1Z"/>
      <path class="cls-2" d="M152.8,24.6c0-.2.1-.4.2-.6,0,0,0,0,0,0,0,0,0,0,0,0-.2.2-.3.4-.2.7,0,0,.1,0,.1,0Z"/>
      <path class="cls-2" d="M152.9,25.7c0,.1,0,.2,0,.3.1,0,.2-.1.2-.3,0,0,0,0-.1-.1,0,0,0,0,0,0Z"/>
      <path class="cls-2" d="M158.9,110.2s0,0,0-.1c0,0,0,0,0,0,0,0,0,0,0,0Z"/>
      <path class="cls-2" d="M143.3,36.5s0,0,0,0c0,0,0,0,0,0,.3.6.8,1,1.5,1.1,0,0,0,0,0,0,0,0,0,0,0,0-.5-.4-1-.7-1.4-1.1Z"/>
      <path class="cls-2" d="M147.4,24.3s0,0,0,0c0,0,0,0,0,0,0,0,0,0,0,0Z"/>
      <path class="cls-2" d="M148.4,38.2c.5,0,.9-.2,1.4-.4.3-.1.5-.3.7-.6.3-.3.4-.6.3-1.2-.1.2-.2.3-.3.5-.2.5-.6.6-1.1.6-.3,0-.5-.3-.3-.6,0-.1.1-.2.2-.3.2-.2.3-.3.5-.5.5-.5.5-1.5,0-2-.3-.3-.5-.5-.8-.8,0,0,0,0,0,0,0,0,0,0,0,0,0,.1,0,.2,0,.3.1.3.3.5.5.8.3.4.3.9,0,1.3-.1.2-.3.4-.5.5-.2.2-.4.3-.6.5-.4.3-.5.7-.5,1.2,0,.2,0,.3.1.5,0,.1.2.2.3.2Z"/>
      <path class="cls-2" d="M144.8,37.7c0,0,0,.1,0,.1,0,0,.1,0,.2,0,0,0,0,0,0-.1,0,0-.1,0-.2,0Z"/>
      <path class="cls-2" d="M145.2,33.8c-.2-.2-.4-.4-.6-.6-.2-.2-.4-.4-.5-.7-.2-.4-.2-.8,0-1.2,0-.2.2-.4.3-.6.2-.3.3-.6.3-1,0-.6,0-1.1-.5-1.5,0,.1,0,.3,0,.4.2.5,0,.9-.1,1.3-.1.2-.3.5-.5.7-.4.6-.4,1.2-.1,1.9.1.3.4.6.6.9.1.2.3.4.5.5.3.3.5.7.7,1.1,0,.2.2.4,0,.6,0,.1-.4.2-.7,0-.4-.1-.7-.4-1-.7-.3-.4-.4-.8-.4-1.3,0-.2,0-.5,0-.7,0-.2,0-.3-.1-.5,0-.2-.2-.4-.5-.3,0,.4,0,.7,0,1.1,0,1.1.4,1.9,1.1,2.7.7.6,1.5,1.1,2.3,1.5,0,0,0,0,0,0,0,0,.1,0,.1,0,0-.5,0-1,0-1.5,0-.5-.1-.9-.4-1.3-.2-.3-.5-.6-.7-.9Z"/>
      <path class="cls-2" d="M167.8,89.3c-.6-1.2-1.5-2.3-2.5-3.3-.9-.9-1.9-1.7-2.9-2.5,0,0,0,0-.1,0-.3-.2-.9-.6-1.2-.9,0,0,0,0,0,0,0,0,0,0,0,0-.6-.3-1.3-.7-1.9-1-1.1-.5-.8-.2-1.3-1.3-2.8-6.8-5.6-13.6-8.5-20.3-.5-1.3-1.1-2.6-1.6-3.9,0-.2-.1-.4-.3-.5-.2.3-.3.6-.4.9-2.6,6.5-5.3,13-7.9,19.5-.7,1.7-1.4,3.5-2.1,5.2-.3.8-.2.6-1,1.2-.7.5-1.5,1-2.2,1.6,0,0-.1,0-.2.1,0,0,0,0,0,0,0,0-1.1,1-1.5,1.2,0,0,0,0,0,0-.2.2-.3.4-.6.6-.2.2-.3.3-.5.5-.7.7-1.3,1.4-1.8,2.2-.4.5-.7,1.1-.9,1.7,0,0,0,0,0,0,0,0,0,0,0,0,.2-.2.4-.4.5-.6,3.1-4.2,7.2-6.6,12.2-7.6,0,0,.2,0,.3,0,0,0,.1,0,.2,0,0,0,.1,0,.2,0,.3,0,.9-.2,1.5-.3.2,0,.5,0,.7-.1.5,0,1.2-.2,1.8-.2.4,0,.9,0,1.3-.1.1,0,.2,0,.3,0,.2,0,.3,0,.5,0,.2,0,.3,0,.5,0,.1,0,.2,0,.4,0,.1,0,.3,0,.4,0,.1,0,.2,0,.3,0,.3,0,.6,0,.8,0,.2,0,.3,0,.5,0,.6,0,1.2,0,1.8.1.2,0,.3,0,.5,0,.2,0,.5,0,.7,0,.8,0,1.4.2,1.9.3.9.2,1.3.3,1.3.3,0,0,0,0,0,0,0,0,.1,0,.2,0,4.3,1.2,7.8,3.6,10.5,7.2.2.2.4.5.6.7,0,0,0,0,.2,0,0-.4-.2-.6-.3-.9Z"/>
      <path class="cls-2" d="M168.3,90.5s0,0,0,0c0,0,0,0,0-.1,0,0,0,.1,0,.2Z"/>
      <path class="cls-2" d="M147.9,34.4c-.2-.2-.4-.5-.6-.7-.1-.2-.3-.3-.4-.5,0-.1,0-.3,0-.3.1.1.3.3.4.4.2.1.3.2.5.3.1,0,.3.1.4.1,0,0,0,0,0,0,0,0,0-.1,0-.2-.2-.2-.4-.4-.6-.7-.2-.3-.1-.7.2-.9.1,0,.2-.2.3-.2.2-.2.3-.4.3-.6,0-.4-.2-.7-.3-1-.2-.3-.4-.5-.6-.7-.1-.2-.3-.4-.3-.6,0,0,0,0,0,0,0,0,0,0,0,0,.3.2.6.4.9.7.3.2.6.5.8.8,0,.1.2.2.3.4,0-.2,0-.3,0-.4,0-.4-.3-.7-.5-1-.2-.2-.3-.5-.4-.8-.1-.4,0-.8.4-1,.2-.1.4-.1.6,0,0-.1,0-.2,0-.4-.1-.2-.3-.3-.4-.5-.2-.2-.3-.3-.5-.5-.3-.4-.4-1,0-1.4.1-.1.2-.3.2-.4,0-.2,0-.4-.1-.6-.1-.1-.2,0-.4,0,.2.1.2.3.1.5,0,.2-.2.3-.3.4-.3.5-.4.9-.1,1.4.2.3.3.6.3,1,0,.3,0,.6-.2.9-.1.3-.5.4-.8.2-.2-.1-.4-.4-.3-.7,0-.2.2-.4.3-.7,0-.1,0-.3.1-.4,0,0,0,0,0,0,0,0-.2,0-.2,0-.1.2-.3.4-.4.6-.4.4-.4.9-.3,1.5.1.5.3.9.6,1.3.1.2.3.4.4.6.2.3.2.6.2.9,0,.5-.6.9-1.1.9-.2,0-.4-.1-.5-.3-.1,0-.2,0-.3.1,0,0,0,.1,0,.2,0,.4,0,.8.2,1.1.2.2.4.4.7.7.3.3.4.7.3,1.1,0,.2,0,.3-.1.5,0,.2-.1.3-.2.5-.1.4-.2.7,0,1.1,0,0,0,0,0,0,0,0,0,0,0,0,.2-.5.5-1,.9-1.4,0-.1.2-.2.2-.3.2-.3.1-.5,0-.8Z"/>
      <path class="cls-2" d="M144.1,28.3s0,0,0,0c0,0,0,0,0,0Z"/>
      <path class="cls-2" d="M145,31.1c-.3.4-.3.9-.1,1.4,0,0,.1.1.2.2,0-.2,0-.4,0-.5,0-.7.4-1.2.9-1.7.2-.2.5-.4.8-.1,0,0,.2,0,.2-.1,0-.3,0-.5-.1-.8-.1-.3-.4-.6-.6-.9-.3-.4-.5-.8-.5-1.2,0-.1,0-.2,0-.3,0,0-.1,0-.2,0-.1.1-.1.3,0,.5,0,.3.2.6.4.9.2.2.3.5.4.7,0,.3,0,.6-.4.8,0,0-.1,0-.2,0,0-.2,0-.3,0-.5,0-.2-.1-.2-.3-.2,0,0,0-.1,0-.2,0,0,0,.1,0,.2.1.3.1.5,0,.8-.1.4-.3.7-.5,1Z"/>
      <path class="cls-2" d="M142.7,31.4c.1-.3.3-.5.6-.7,0,0,.2-.2.2-.3,0-.3,0-.5-.3-.7,0,.4-.2.8-.6,1.1,0,0,0,.1-.1.2,0,.1,0,.3,0,.4,0,.1.2.2.2,0Z"/>
      <path class="cls-2" d="M144.9,26.2c0-.3,0-.5,0-.7,0,0,.1,0,.2,0,0,.3.1.7.2,1,0,0,.2,0,.2-.2.2-.4.2-.7.1-1.1,0-.2-.1-.5-.2-.7,0,0,0-.1,0-.1,0,0,0,0,0,0,.4.3.7.8.7,1.3,0,.2,0,.3,0,.5,0,0,0,0,.1.1,0,0,0,0,0,0,.3-.5.3-1,0-1.6-.1-.2-.3-.4-.5-.7-.3-.4-.5-.8-.6-1.3,0,0,0-.1,0-.2,0,0,0,0,0,.1,0,.2,0,.3,0,.5,0,.1,0,.2-.2.2-.1,0-.2,0-.2-.1,0-.1-.1-.2-.1-.4,0-.2,0-.5,0-.7.2-.5.3-1,.5-1.5,0-.2.1-.5,0-.7,0-.2,0-.4,0-.6,0,0-.1-.1-.2-.2h0s0,0,0,0c.2.8,0,1.5-.5,2.1-.2.2-.2.5-.3.8,0,.4,0,.8,0,1.1,0,.2,0,.3,0,.5-.1-.2-.2-.3-.3-.5-.2-.4-.2-.8,0-1.2,0-.2.1-.4.2-.6,0,0,0-.1-.1,0-.2,0-.3,0-.4-.3,0-.1,0-.2,0-.3,0,0,0-.2,0-.2,0,0-.2,0-.3.1-.1.2-.3.3-.4.5-.1.2-.2.5-.2.8,0,0,.1,0,.2,0,0,0,.2,0,.3-.1,0,.1,0,.2,0,.3,0,.9.2,1.6.9,2.2.3.2.5.6.6,1,0,.3.1.5.3.8Z"/>
      <path class="cls-2" d="M142.7,26.4c0,.2,0,.5,0,.7,0,.2.1.5.3.6,0,0,0,0,0,0,0,0,0,0,0,0,0-.2,0-.4,0-.6,0-.2,0-.5,0-.7,0-.2-.1-.4-.3-.5-.2-.2-.4-.2-.6,0,0-.2.1-.2,0-.3v.3c.4,0,.5.3.6.6Z"/>
      <path class="cls-2" d="M142.5,29.3c0-.2.2-.4,0-.7,0,0-.2.1-.2.2-.1.3-.2.6-.2.9,0,.3,0,.6-.3.9,0,0-.1.2-.2.3-.2.3-.3.7-.3,1.1,0,.7.2,1.3.6,1.8,0,0,0,0,0,0,0-.2,0-.4,0-.6,0-.3-.2-.5-.2-.8-.1-.5,0-1,.2-1.4.1-.2.3-.4.4-.6,0-.1.1-.3.2-.5,0-.2,0-.4,0-.6Z"/>
      <path class="cls-2" d="M142.1,33.7c0,0,0,.1,0,.2,0,0,0,0,0,0,0,0,0,0,0,0,0,0,0-.1,0-.2,0,0,0,0-.1-.1Z"/>
      <path class="cls-2" d="M143.1,29.6s0,0,0-.1h0c0,0,0,.1.1.1Z"/>
      <path class="cls-4" d="M197.2,109.5c0-.3-.2-.5-.5-.6-.7-.2-1.4-.3-2,0-.3.2-.7.4-1,.6-.3.2-.7.3-1.1.3-.3,0-.6,0-.9-.1-1.5-.3-2.8-.8-4.2-1.4-1.9-.8-3.4-2.1-4.6-3.7-.9-1.2-1.8-2.5-2.4-3.9-1.2-2.5-2.5-5-3.6-7.6-1.1-2.7-2.3-5.3-3.4-8-3.3-7.8-6.7-15.7-9.9-23.6-2.8-6.8-5.6-13.6-8.4-20.4-.3-.8-.7-1.7-1-2.5-.2-.4-.1-.7.1-1.1.1-.2.3-.3.5-.4.2,0,.3-.1.5-.2,0,0,.2-.2.2-.2,0-.5,0-1-.3-1.4-.1-.1,0-.3,0-.4,0,0,.1-.2.2-.3q.8-1.2.8-2.6c.2-.3.4-.5.6-.8.2-.2.2-.5,0-.8,0-.2-.2-.3-.3-.4-.3-.3-.6-.7-1-.9-.3-.2-.5-.5-.5-.9,0-.2,0-.5,0-.7,0-.4-.1-.7-.5-1-.3-.2-.5-.4-.8-.7-.1-.1-.2-.3-.2-.5,0-.5,0-1,0-1.4,0-.4,0-.7-.2-1-.2-.5-.5-1-1-1.3,0,0,0,.1,0,.2,0,.2.2.4.3.7,0,.2.1.5,0,.7-.3.6-.6,1.2-.9,1.7,0,.1-.2.2-.3.3-.1.1-.4.1-.6,0-.2-.1-.2-.3-.2-.4,0-.3.1-.6.2-.9,0-.6-.2-1.2-.7-1.5-.2-.1-.5-.2-.7-.4-.2,0-.5-.2-.7-.3-.5-.2-.7-.6-.7-1.2,0-.3.1-.6.2-.9,0-.2,0-.3,0-.5,0,0-.2-.2-.3-.2-.2,0-.4.2-.5.3-.2.2-.3.4-.5.7-.1.2-.3.5-.4.7,0,0-.1,0-.2.1-.2,0-.5-.2-.5-.4,0,0,0-.1,0-.2.2-.7.1-1.4-.2-2-.2-.3-.1-.7,0-1,0-.2,0-.3.2-.5.2-.3.4-.5.6-.8,0,0,0,0,0,0,0,0-.1,0-.2,0-.5.3-.9.8-1.2,1.3-.1.2-.2.4-.2.7,0,.1,0,.2,0,.3,0,.1,0,.3,0,.4,0,.4,0,.6-.4.7-.1,0-.3,0-.4,0-.8.2-1.4.6-1.7,1.4-.5,1.1-.3,2.3.5,3.2.3.3.6.6.9.9.5.6.8,1.2.8,2,0,.1,0,.3,0,.4,0,0-.1.1-.2.2-.3-.9-.4-1-1-1.6-.2-.2-.4-.3-.6-.5-.5-.4-.9-.8-1.1-1.4,0-.1-.1-.2-.2-.3,0,0-.2,0-.3,0,0,0-.1,0-.1.1-.2.6,0,1.1.3,1.6.1.2.3.4.5.7.2.3.4.5.5.8.3.5.2,1-.2,1.4-.2.2-.4.3-.5.5-.5.5-.7,1-.7,1.7,0,.4,0,.8.1,1.1.2.6.3,1.3.3,1.9,0,.2,0,.5,0,.7.1.8.4,1.5,1,2.1.2.2.4.4.6.6.3.3.6.6.8.9,0,0,0,0,0,0,.4.2.8.6,1,.8,1.1.7,2.4,1,3.7,1-.3.4-2.2.2-2.9,0-.6-.2-1.6-.7-2.2-1,0,0,0,0-.1,0-.1.2-.2.5-.3.8-.5,1.2-1,2.4-1.5,3.6-4.8,11.2-9.5,22.4-14.3,33.6-1.9,4.4-3.8,8.9-5.7,13.3-1.4,3.2-2.9,6.4-4.5,9.5-.6,1.2-1.3,2.4-2.1,3.6-.8,1.3-1.8,2.3-3,3.2-2.1,1.6-4.4,2.5-7,2.9-.5,0-1,0-1.5,0-.4,0-.8-.2-1.1-.5-.1-.1-.2-.3-.3-.4-.1-.2-.3-.3-.6-.2-.4,0-.8.1-1.2.2-.2,0-.4.3-.5.5,0,.1,0,.2,0,.3,0,.7,0,1.4.2,2.1.2,1.1.7,1.9,1.6,2.6.5.4,1.1.7,1.7.9.9.3,1.9.5,2.9.6,1.9,0,3.9,0,5.8-.4,2.9-.5,5.5-1.5,8.1-2.8.2,0,.4-.2.5-.3.2-.1.2-.3.2-.4,0-.6-.2-1.2-.1-1.8,0-.8.1-1.5.3-2.3,0-.5.2-1,.3-1.5,0,0,0,0,.2,0,0,.2,0,.3,0,.4,0,.7.1,1.4.2,2.1.1.8.3,1.5.6,2.2.2.5.5,1,.9,1.4.7.7,1.4,1.4,2.2,2,1.5,1.2,3.2,2,5.1,2.5,1.2.3,2.4.5,3.6.6.5,0,1.1.1,1.6.2.9,0,1.7,0,2.6-.2,1.2-.2,2.3-.6,3.3-1.1,1-.5,1.8-1.3,2.4-2.2,1.1-1.9,1.3-3.8.5-5.9-.8-2-2.2-3.4-4-4.5,0,0,0,0,0,0-.3-.2-.8,0-.8.4,0,.3,0,.6,0,.8,0,.6,0,1.1,0,1.7,0,1.3-.6,2.5-1.4,3.6-.2.3-.5.5-.7.7,0,0-.2.2-.3.3,0,0,0-.2-.1-.3.1-.2.2-.4.3-.6,0,0-.2-.1-.3,0-.3,0-.7.1-1,.1-1.2,0-2.3-.5-3.1-1.4-.8-.8-1.3-1.7-1.5-2.8-.3-1.5-.3-3,0-4.5.5-1.9,1.4-3.7,2.6-5.4,1.1-1.6,2.6-2.8,4.3-3.7,1.4-.7,2.8-1.3,4.3-1.8,1.2-.4,2.4-.6,3.6-.7,1.5,0,3,0,4.5.2,2.4.3,4.6,1.1,6.8,2.2,1.7.8,3.1,2,4.2,3.5,1.2,1.6,2.1,3.3,2.7,5.2.4,1.3.5,2.6.4,4,0,.8-.3,1.6-.6,2.3-.8,1.6-2,2.7-3.9,2.9-.6,0-1.1,0-1.6-.2h0c-.1.2-.1.3,0,.4.1.1.2.3.4.4-.2,0-.3,0-.5,0-.8-.6-1.3-1.3-1.6-2.2-.4-1.1-.6-2.2-.5-3.3,0-.3,0-.6,0-.8,0-.1,0-.3,0-.4,0-.4-.5-.6-.9-.4-.4.2-.7.4-1,.7-1.3,1-2.3,2.2-3,3.8-.3.9-.6,1.8-.5,2.7.2,2.4,1.3,4.2,3.4,5.4.6.3,1.2.6,1.8.8.7.2,1.5.4,2.2.5.8.1,1.7.1,2.5,0,1.2-.1,2.4-.3,3.6-.5,1.6-.3,3.1-.9,4.5-1.7,1.7-1,3.1-2.3,4.4-3.7.2-.3.4-.6.6-.9.3-.5.5-1.1.6-1.6.2-.9.4-1.8.4-2.7,0-.2,0-.5,0-.7,0,0,.1,0,.1.1.3.8.4,1.7.5,2.5.2,1.4.2,2.8-.4,4.2,0,.1,0,.3.1.4,0,0,.2.1.3.2.7.3,1.4.7,2.1,1,2.4,1,4.9,1.7,7.5,2.1,1,.2,2.1.2,3.1.2.9,0,1.8,0,2.7-.3,1.6-.4,3-1.1,4.3-2.2.6-.5,1-1,1.4-1.6.4-.7.5-1.4.3-2.1ZM136.8,110.4h0s0,0,0,0c0,0,0,0,0,0ZM158.9,110.2s0,0,0,0c0,0,0,0,0,0,0,0,0,0,0,.1ZM155.1,32.3c-.2,0-.2-.3-.5-.3,0,0-.2.2-.2.3-.2.3-.3.6,0,.9.2.3.3.6.3,1,0,.3,0,.6-.2,1,0-.2,0-.2,0-.2,0-.5,0-.9-.4-1.3-.1-.2-.2-.3-.3-.5-.1-.3,0-.5,0-.8,0,0,0-.1.1-.2.3-.3.6-.7.6-1.1.3,0,.4.3.6.5.1.2.3.5.2.8ZM153.9,27.4s.1,0,.2,0c0,0,0,0,0,0,0,0,0,.1,0,.2,0,.2-.1.3-.2.5-.2.3-.2.6.2.9.1.1.3.3.5.4.1.1.2.3.3.4,0,0,0,.1,0,.2,0,0,0,0,0,0-.4-.3-.9-.6-1.3-.8,0,0,0,0-.1,0-.1.1-.1.3,0,.5,0,.2.2.4.3.7,0,.2,0,.4,0,.6,0,.2-.1.3-.2.5,0,.1-.2.3-.3.4-.4.6-.5.8,0,1.5.2.3.4.6.5.9,0,.2.1.5.1.7,0,0,0,.1-.1.2,0,0-.1-.2-.2-.3-.2-.5-.5-1-.9-1.3,0,0-.1-.2-.2-.2-.3-.4-.3-.8,0-1.2.1-.2.3-.4.4-.6.1-.2.2-.3.3-.5.1-.3.1-.7,0-1,0-.1-.2-.2-.2-.3-.3-.5-.2-.9.1-1.3,0,0,0-.1.2-.1.3-.2.6-.5.9-.8ZM151.9,35.5c-.2-.3-.4-.5-.7-.8-.2-.2-.4-.5-.6-.7-.2-.3-.2-.6,0-.9,0-.2.2-.4.3-.5,0-.2,0-.4.1-.6.3.2.3.4.3.6,0,.1,0,.3-.1.4-.1.4,0,.7.2.9.2.2.5.5.7.7.3.3.5.7.4,1.2,0,.7-.4,1.2-1.1,1.5,0,0,0,0-.2,0,.2-.2.4-.5.5-.7.2-.4.2-.8,0-1.2ZM151.8,28.3c0,0,0-.2.2-.2,0,0,0,.2,0,.3,0,0,0,0-.1.1,0,0,0-.1,0-.2ZM152.9,26.1c0-.1,0-.2,0-.3,0,0,0,0,0,0,0,0,0,0,.1.1,0,.1,0,.2-.2.3ZM152.9,23.9s0,0,0,0c0,0,0,0,0,0,0,.2-.1.4-.2.6,0,0,0,0-.1,0,0-.3,0-.5.2-.7ZM152,25.2c.2-.2.3-.5.6-.6,0,.2-.2.3-.2.5,0,.1,0,.3,0,.4,0,0,0,.2,0,.3,0,.1.1.1.2.1,0,0,.1,0,.2,0,0,.4,0,.9,0,1.3-.2.2-.5.5-.7.7,0,0,0,0,0,0,0-.1,0-.3,0-.4.2-.5.2-.9,0-1.4,0,0,0-.2-.1-.3-.1-.3-.1-.6,0-.9ZM151.4,30.3c.2.2.3.5.4.8,0,0,0,.2,0,.3,0,0-.2,0-.2,0-.3-.5-.7-.9-1.1-1.3-.3-.2-.5-.6-.7-.9-.1-.1-.2-.3-.2-.5.3,0,.6,0,.9,0,0,.4.1.6.4.9.2.2.4.4.7.7ZM150.3,31.6c0,.3-.2.6-.4.9,0,0,0,0,0,0,0,0,0,0,0,0,0,0,0-.2,0-.3,0-.2.2-.4.3-.6,0,0,0,0,0,0,0,0,0,0,0,0ZM150.4,28.8c0-.1,0-.2.2-.2,0,.1,0,.2-.2.2ZM151.3,27s0,0,0,0c0,0,0,0-.1,0,0,0,0,0,.1,0ZM149.7,25.4s0,0,0,0c0,0,0,0,0,0,0,.4.3.7.6.9.2.1.4.3.6.4,0,0,0,.2,0,.3-.1,0-.2,0-.2.2,0,.3,0,.5,0,.8,0,.2,0,.4-.2.5,0,0-.1,0-.2,0,0,0,0-.2,0-.3.2-.4,0-.8-.2-1.1-.2-.2-.3-.4-.5-.7-.2-.3-.3-.7-.2-1.1ZM149.6,27.4s0,0,0,0h0s0,0,0,0ZM148.4,23c0,0,.1,0,.1,0,0,.2,0,.3-.1.4,0-.2,0-.3,0-.5,0,0,0,0,0,0ZM147.1,21.1c0,0,.1,0,0,.1,0,0,0,0-.1,0,0,0,0,0,0-.1,0,0,0,0,0,0ZM146.5,21.9c0-.2.2-.3.4-.5,0,0,0,0,.1,0,0,.2-.1.4-.2.6,0,.2,0,.5,0,.7,0,0,.1.2.2.2.1,0,.3,0,.4-.2,0-.2,0-.3.1-.5,0,0,.1,0,.2.1.1.2.2.5.3.8,0,0,0,.2-.2.2-.1,0-.2,0-.3,0,0,0-.2.1-.2.2,0,.1,0,.3,0,.4,0,.2,0,.3,0,.5-.2-.2-.5-.5-.7-.7-.4-.5-.5-1.1-.2-1.7ZM147.4,24.3s0,0,0,0c0,0,0,0,0,0,0,0,0,0,0,0ZM144,24.5c-.7-.6-.9-1.3-.9-2.2,0,0,0-.2,0-.3,0,0-.2.1-.3.1,0,0-.1,0-.2,0,0-.3,0-.5.2-.8.1-.2.2-.3.4-.5,0,0,.2,0,.3-.1,0,0,0,.1,0,.2,0,0,0,.2,0,.3,0,.2.2.3.4.3,0,0,.2,0,.1,0,0,.2,0,.4-.2.6-.2.4-.1.8,0,1.2,0,.2.2.3.3.5,0-.2,0-.3,0-.5,0-.4,0-.7,0-1.1,0-.3.1-.5.3-.8.5-.6.7-1.3.5-2.1,0,0,0,0,0,0h0c0,0,.2.1.2.2,0,.2,0,.4,0,.6,0,.2,0,.5,0,.7-.2.5-.3,1-.5,1.5,0,.2-.1.5,0,.7,0,.1,0,.3.1.4,0,0,.1.2.2.1,0,0,.2,0,.2-.2,0-.2,0-.3,0-.5,0,0,0,0,0-.1,0,0,0,.1,0,.2,0,.5.3.9.6,1.3.2.2.4.4.5.7.3.5.3,1,0,1.6,0,0,0,0,0,0,0,0-.1,0-.1-.1,0-.2,0-.3,0-.5,0-.5-.3-1-.7-1.3,0,0,0,0,0,0,0,0-.1.1,0,.1,0,.2.1.5.2.7,0,.4,0,.8-.1,1.1,0,0-.2.1-.2.2,0-.4-.1-.7-.2-1,0,0,0,0-.2,0,0,.2,0,.5,0,.7-.2-.2-.3-.5-.3-.8,0-.4-.3-.7-.6-1ZM145.5,29.3c0,0,0-.1,0-.2,0,0,0,.1,0,.2.2,0,.3,0,.3.2,0,.2,0,.3,0,.5,0,0,0,.1.2,0,.3-.2.4-.5.4-.8,0-.3-.2-.5-.4-.7-.2-.3-.4-.6-.4-.9,0-.2,0-.3,0-.5,0,0,.1,0,.2,0,0,.1,0,.2,0,.3,0,.5.2.9.5,1.2.2.3.4.5.6.9.1.3.2.5.1.8,0,.1-.1.2-.2.1-.3-.2-.6-.1-.8.1-.5.5-.8,1-.9,1.7,0,.2,0,.3,0,.5-.1,0-.2-.1-.2-.2-.2-.5-.1-.9.1-1.4.2-.3.4-.6.5-1,.1-.3.1-.5,0-.8ZM144.2,28.3s0,0,0,0c0-.1,0,0,0,0ZM142.1,25.8v-.3c.1.1,0,.1,0,.3.2-.2.4-.1.6,0,.1.2.3.3.3.5,0,.2,0,.5,0,.7,0,.2,0,.4,0,.6,0,0,0,0,0,0,0,0,0,0,0,0-.2-.2-.3-.4-.3-.6,0-.2,0-.5,0-.7,0-.3-.2-.5-.5-.6ZM143.1,29.6s0,0-.1,0h0s0,0,0,0ZM142.2,34s0,0,0,0c0,0,0,0,0,0,0,0,0,0,0-.2,0,0,0,0,.1.1,0,0,0,.1,0,.2ZM142,31c-.2.4-.3.9-.2,1.4,0,.3.2.5.2.8,0,.2,0,.4,0,.6,0,0,0,0,0,0-.4-.5-.6-1.2-.6-1.8,0-.4,0-.8.3-1.1,0,0,.1-.2.2-.3.2-.3.3-.6.3-.9,0-.3,0-.6.2-.9,0,0,.1-.1.2-.2.1.3,0,.5,0,.7,0,.2,0,.4,0,.6,0,.2,0,.3-.2.5-.1.2-.3.4-.4.6ZM142.4,31.3c0-.1,0-.3,0-.4,0,0,0-.1.1-.2.4-.3.5-.7.6-1.1.3.2.3.4.3.7,0,.1,0,.3-.2.3-.2.2-.4.4-.6.7,0,0-.2,0-.2,0ZM144.7,37.7c-.7-.1-1.2-.5-1.5-1.1,0,0,0,0,0,0,0,0,0,0,0,0,.5.4,1,.7,1.4,1.1,0,0,0,0,0,0,0,0,0,0,0,0ZM145,37.8s-.1,0-.2,0c0,0,0,0,0-.1,0,0,.1,0,.2,0,0,0,.1,0,0,.1ZM146.2,37.5s0,0-.1,0c0,0,0,0,0,0-.8-.4-1.6-.9-2.3-1.5-.8-.7-1.2-1.6-1.1-2.7,0-.4,0-.8,0-1.1.3,0,.4.1.5.3,0,.1,0,.3.1.5,0,.2,0,.5,0,.7,0,.5.2.9.4,1.3.2.4.6.6,1,.7.3,0,.6,0,.7,0,.1-.2,0-.4,0-.6-.2-.4-.4-.8-.7-1.1-.2-.2-.3-.4-.5-.5-.2-.3-.4-.6-.6-.9-.3-.6-.3-1.3.1-1.9.2-.2.3-.4.5-.7.2-.4.3-.8.1-1.3,0-.1,0-.3,0-.4.5.4.6.9.5,1.5,0,.3-.1.7-.3,1-.1.2-.3.4-.3.6-.2.4-.2.8,0,1.2.1.2.3.4.5.7.2.2.4.4.6.6.3.3.5.6.7.9.3.4.4.8.4,1.3,0,.5,0,1,0,1.5ZM147.7,35.5c-.4.4-.6.9-.9,1.4,0,0,0,0,0,0,0,0,0,0,0,0-.1-.4,0-.7,0-1.1,0-.2.1-.3.2-.5,0-.2.1-.3.1-.5,0-.4,0-.8-.3-1.1-.2-.2-.5-.4-.7-.7-.3-.3-.3-.7-.2-1.1,0,0,0-.1,0-.2,0-.1.2-.2.3-.1.2.1.3.3.5.3.5,0,1-.4,1.1-.9,0-.3,0-.6-.2-.9-.1-.2-.3-.4-.4-.6-.3-.4-.5-.8-.6-1.3-.1-.5-.1-1,.3-1.5.2-.2.3-.4.4-.6,0,0,.1,0,.2,0,0,0,0,0,0,0,0,.1,0,.3-.1.4,0,.2-.2.4-.3.7-.1.3,0,.6.3.7.3.1.7,0,.8-.2.2-.3.2-.6.2-.9,0-.3-.1-.7-.3-1-.3-.5-.2-1,.1-1.4,0-.1.2-.3.3-.4,0-.2,0-.3-.1-.5.1,0,.2,0,.4,0,.1.2.2.4.1.6,0,.2-.1.3-.2.4-.3.4-.2,1.1,0,1.4.2.2.3.4.5.5.1.2.3.3.4.5,0,.1,0,.2,0,.4-.2-.2-.4-.2-.6,0-.3.2-.5.6-.4,1,0,.3.2.6.4.8.2.3.4.6.5,1,0,0,0,.2,0,.4-.1-.2-.2-.2-.3-.4-.2-.3-.5-.6-.8-.8-.3-.2-.6-.4-.9-.7,0,0,0,0,0,0,0,0,0,0,0,0,0,.3.2.5.3.6.2.3.4.5.6.7.2.3.3.6.3,1,0,.3,0,.5-.3.6-.1,0-.2.2-.3.2-.3.2-.4.6-.2.9.2.2.4.5.6.7,0,0,0,.1,0,.2,0,0,0,0,0,0-.1,0-.3,0-.4-.1-.2-.1-.4-.2-.5-.3-.2-.1-.3-.3-.4-.4-.2,0-.2.2,0,.3.1.2.2.3.4.5.2.2.4.4.6.7.2.2.2.5,0,.8,0,.1-.1.2-.2.3ZM148.1,38c0-.2,0-.3-.1-.5,0-.5.1-.9.5-1.2.2-.2.4-.3.6-.5.2-.2.3-.3.5-.5.3-.5.3-1,0-1.3-.2-.2-.4-.5-.5-.8,0,0,0-.2,0-.3,0,0,0,0,0,0,0,0,0,0,0,0,.3.3.5.5.8.8.5.5.5,1.5,0,2-.2.2-.3.3-.5.5,0,0-.2.2-.2.3-.2.3,0,.6.3.6.5,0,.9,0,1.1-.6,0-.1.2-.3.3-.5,0,.5,0,.9-.3,1.2-.2.2-.5.4-.7.6-.4.2-.9.3-1.4.4-.1,0-.3,0-.3-.2ZM167.5,89.5c-2.7-3.6-6.2-6-10.5-7.2,0,0-.1,0-.2,0,0,0,0,0,0,0,0,0-.4-.2-1.3-.3-.5-.1-1.1-.2-1.9-.3-.2,0-.5,0-.7,0-.2,0-.3,0-.5,0-.5,0-1.1,0-1.8-.1-.2,0-.3,0-.5,0-.3,0-.5,0-.8,0-.1,0-.2,0-.3,0-.1,0-.3,0-.4,0-.1,0-.2,0-.4,0-.2,0-.3,0-.5,0-.2,0-.3,0-.5,0-.1,0-.2,0-.3,0-.5,0-.9,0-1.3.1-.7,0-1.3.2-1.8.2-.2,0-.5,0-.7.1-.6.1-1.1.2-1.5.3,0,0-.1,0-.2,0,0,0-.1,0-.2,0,0,0-.2,0-.3,0-5,1-9.1,3.5-12.2,7.6-.2.2-.3.5-.5.6,0,0,0,0,0,0,0,0,0,0,0,0,.2-.6.5-1.2.9-1.7.5-.8,1.2-1.5,1.8-2.2.2-.2.3-.4.5-.5.2-.2.4-.4.6-.6,0,0,0,0,0,0,.4-.2,1.5-1.2,1.5-1.2,0,0,0,0,0,0,0,0,.1,0,.2-.1.7-.5,1.4-1.1,2.2-1.6.9-.6.7-.4,1-1.2.7-1.7,1.4-3.4,2.1-5.2,2.6-6.5,5.3-13,7.9-19.5.1-.3.2-.7.4-.9.2.1.3.3.3.5.5,1.3,1.1,2.6,1.6,3.9,2.8,6.8,5.6,13.6,8.5,20.3.5,1.1.2.8,1.3,1.3.7.3,1.3.7,1.9,1,0,0,0,0,0,0,0,0,0,0,0,0,.3.2.9.6,1.2.9,0,0,0,0,.1,0,1,.7,2,1.6,2.9,2.5,1,1,1.8,2.1,2.5,3.3.2.3.3.6.3.9,0,0-.1,0-.2,0-.2-.2-.4-.5-.6-.7ZM168.3,90.5c0,0,0-.1,0-.2,0,0,0,0,0,.1,0,0,0,0,0,0Z"/>
    </g>
    <path class="cls-5" d="M288.7,104.3c0,2.7-2,4.8-4.7,4.8s-4.7-2.1-4.7-4.8,2-4.8,4.7-4.8,4.7,2.1,4.7,4.8ZM280.3,104.3c0,2.2,1.6,4.1,3.7,4.1s3.7-1.9,3.7-4.1-1.6-4.1-3.7-4.1-3.7,1.9-3.7,4.1ZM281.8,101.7h2.6c.8,0,1.5.4,1.5,1.3s-.4,1.2-1.1,1.4l.8,1.1c.3.4.7.9.9,1.1v.2h-1.1c-.4,0-.8-1.2-1.5-2.3h-.5v1.4c0,.5,0,.6.6.6v.2h-2.3v-.2c.6,0,.6,0,.6-.6v-3.4c0-.5,0-.5-.6-.6v-.2ZM283.5,104.3h.5c.6,0,.9-.6.9-1.2s-.3-1.1-.8-1.1h-.5v2.3Z"/>
  </g>
  <g>
    <path class="cls-1" d="M226.1,172.9c-1.6,0-2.9-1.3-2.9-2.9s1.3-2.9,2.9-2.9,2.8,1.3,2.8,2.9-1.2,2.9-2.8,2.9ZM226.1,167.5c-1.4,0-2.4,1.2-2.4,2.5s1.1,2.5,2.4,2.5,2.4-1.2,2.4-2.5-1-2.5-2.4-2.5ZM224.8,168.5h1.5c.5,0,1,.2,1,.8s-.3.7-.7.9l.5.7c.2.3.5.6.6.7h0c0,0-.5,0-.5,0-.3,0-.5-.6-1-1.4h-.4v.9c0,.3,0,.3.4.3h0c0,.1-1.3.1-1.3.1h0c.4-.2.4-.2.4-.5v-2.1c0-.3,0-.3-.4-.4h0ZM225.7,170h.4c.4,0,.6-.3.6-.8s-.3-.6-.6-.6h-.3v1.4Z"/>
    <path class="cls-2" d="M108.9,170.6c.9,0,1.8,0,2.7,0-.4-1.3-.9-2.6-1.3-3.9-.4,1.3-.9,2.6-1.3,3.9Z"/>
    <path class="cls-2" d="M151.1,164.2c-.7,0-1.3.4-1.8,1.2-.5.8-.7,2-.7,3.6,0,1.6.2,2.8.7,3.6.5.8,1.1,1.2,1.8,1.2.7,0,1.3-.4,1.8-1.1.5-.8.7-2,.7-3.7,0-1.7-.2-2.9-.7-3.7-.5-.8-1.1-1.1-1.8-1.1Z"/>
    <path class="cls-2" d="M211.7,168c0-.7-.3-1.2-.8-1.5-.3-.2-.7-.3-1.2-.3-.3,0-.5,0-.6,0,0,0-.1.2-.1.4,0,1.1,0,2.1,0,3.2.8,0,1.4,0,1.8-.2.6-.3.9-.8.9-1.5Z"/>
    <path class="cls-2" d="M142.8,168.5c.4,0,.7,0,1-.3.5-.3.7-.9.7-1.6,0-.9-.3-1.5-.9-1.9-.3-.2-.8-.3-1.4-.3-.2,0-.4,0-.4,0,0,0,0,.2,0,.5,0,1.2,0,2.3,0,3.5.4,0,.7,0,1.1,0Z"/>
    <path class="cls-2" d="M142.3,169.1c-.2,0-.3,0-.3,0,0,0-.1,0-.2,0,0,1.3,0,2.6,0,3.9,0,.3,0,.4.2.5.1,0,.4.1.8.1.6,0,1.1-.2,1.5-.5.4-.3.6-.9.6-1.8,0-.9-.2-1.5-.7-1.8-.5-.3-1.1-.5-1.8-.5Z"/>
    <path class="cls-2" d="M133.3,170.2c.9,0,1.8,0,2.7,0-.4-1.4-.9-2.8-1.3-4.2-.4,1.4-.9,2.8-1.3,4.2Z"/>
    <path class="cls-2" d="M200.8,170.7c.9,0,1.8,0,2.7,0-.4-1.2-.9-2.5-1.3-3.7-.4,1.2-.9,2.4-1.3,3.7Z"/>
    <path class="cls-1" d="M82.9,174v.2c1.1,0,2.3,0,3.4,0,0,0,0-.1,0-.2-.5,0-.8-.1-.9-.2-.1-.1-.2-.4-.2-.9,0-1.8,0-3.5,0-5.3,0-.4,0-.7.2-.9.1-.1.4-.2.9-.3,0,0,0-.1,0-.2-1.1,0-2.3.2-3.4.3v.2c.5,0,.8,0,.9.2.1.1.2.4.2.8,0,1.7,0,3.5,0,5.2,0,.5,0,.7-.2.8-.1.1-.4.2-.9.2Z"/>
    <path class="cls-1" d="M88.5,174c0,0,0,.2,0,.2,1.1,0,2.3,0,3.4,0,0,0,0-.2,0-.2-.5,0-.8-.1-.9-.2-.1-.1-.2-.4-.2-.9,0-2.1,0-4.3,0-6.4.2,0,.4,0,.6,0,.7,0,1.1,0,1.3.2.2.2.4.6.5,1.3,0,0,.2,0,.3,0,0-.7,0-1.4,0-2.2-2.2.1-4.4.3-6.6.5,0,.7,0,1.4,0,2.1,0,0,.2,0,.3,0,.1-.7.3-1.1.5-1.3.2-.2.7-.3,1.3-.4.2,0,.4,0,.7,0,0,2.1,0,4.1,0,6.2,0,.5,0,.9-.2,1-.1.1-.4.2-.9.3Z"/>
    <path class="cls-1" d="M95,168.4c0,0,0,.2.1.2.3-.2.6-.5.9-.8.3-.4.4-.8.4-1.2,0-.3,0-.6-.3-.8-.2-.2-.4-.3-.7-.3-.2,0-.4.1-.5.3-.1.2-.2.3-.2.5,0,.2,0,.4.2.5.1.1.3.2.4.1,0,0,.2,0,.4,0,0,0,0,0,.1,0,0,0,0,0,0,.1,0,.3,0,.5-.3.8-.2.3-.4.5-.7.7Z"/>
    <path class="cls-1" d="M100.8,173.9c-.7,0-1.3-.3-1.7-.9-.3-.4-.5-.8-.7-1.4,0,0-.2,0-.3,0,.1.9.2,1.9.4,2.8,0,0,.2,0,.3,0,0-.1,0-.2,0-.3,0,0,.1-.1.3-.1,0,0,.3,0,.7.2.4.2.8.2,1.1.2.7,0,1.3-.2,1.8-.7.5-.5.7-1.1.7-1.8,0-.5-.1-1-.4-1.4-.3-.4-.7-.8-1.4-1.2-.3-.2-.7-.5-1-.7-.4-.3-.7-.5-.8-.7-.2-.2-.3-.5-.3-.9,0-.4.1-.7.4-.9.2-.2.5-.4.8-.4.4,0,.8.1,1.2.4.4.3.7.9.9,1.8,0,0,.2,0,.3,0,0-1-.2-1.9-.3-2.9,0,0-.2,0-.2,0,0,.1,0,.3-.1.3,0,0-.2.1-.3.1,0,0-.3,0-.6-.2-.4-.1-.7-.2-1-.2-.6,0-1.2.3-1.5.8-.4.5-.6,1-.6,1.7,0,.5.2,1,.5,1.4.2.2.4.4.7.6.3.2.7.5,1,.7.6.4.9.7,1.1.9.3.3.4.7.4,1.1,0,.5-.1.9-.4,1.1-.3.3-.6.4-1,.4Z"/>
    <path class="cls-1" d="M111.6,173.9c0,0,0,.2,0,.3,1,0,2,0,3,0,0,0,0-.2,0-.3-.3,0-.5-.1-.6-.3-.1-.1-.3-.5-.5-1-1-2.7-1.9-5.4-2.9-8,0,0-.2,0-.2,0-.8,2.4-1.6,4.7-2.4,7-.4,1-.6,1.7-.8,1.9-.1.2-.4.4-.7.4,0,0,0,.2,0,.3.8,0,1.5,0,2.3,0,0,0,0-.2,0-.3-.3,0-.5,0-.6-.1-.2,0-.2-.3-.2-.5,0-.1,0-.3,0-.5,0-.2.2-.8.5-1.7,1,0,2,0,3.1,0,.2.5.3.9.5,1.4,0,.2.1.4.2.6,0,.2,0,.3,0,.4,0,.2,0,.3-.1.4,0,0-.3,0-.7.1ZM108.9,170.6c.4-1.3.9-2.6,1.3-3.9.4,1.3.9,2.6,1.3,3.9-.9,0-1.8,0-2.7,0Z"/>
    <path class="cls-1" d="M118.1,164.8c0,0,0-.2,0-.3-1.1,0-2.2,0-3.3.1,0,0,0,.2,0,.3.4,0,.7.1.8.3.1.2.2.5.2,1,0,2.1,0,4.3,0,6.4,0,.5,0,.9-.2,1-.1.1-.4.2-.8.3,0,0,0,.2,0,.3,2.1,0,4.2,0,6.3,0,.2-.9.4-1.7.6-2.6,0,0-.2,0-.3,0-.3.9-.7,1.4-1.1,1.7-.4.2-1.1.3-2.1.3-.3,0-.4,0-.5,0,0,0-.2,0-.3,0-.1,0-.2,0-.3-.2,0,0,0-.2,0-.4,0-2.3,0-4.7,0-7,0-.5,0-.8.2-1,.1-.2.4-.2.9-.3Z"/>
    <path class="cls-1" d="M128.8,171.5c0,0-.2,0-.3,0-.3.9-.7,1.5-1.1,1.7-.4.2-1.1.3-2.1.3-.3,0-.4,0-.5,0,0,0-.2,0-.3,0-.1,0-.2,0-.3-.2,0,0,0-.2,0-.4,0-2.4,0-4.8,0-7.2,0-.5,0-.8.2-1,.1-.2.4-.3.9-.3,0,0,0-.2,0-.3-1.1,0-2.2,0-3.3.1,0,0,0,.2,0,.3.4,0,.7.1.8.3.1.2.2.5.2,1,0,2.2,0,4.4,0,6.6,0,.6,0,.9-.2,1-.1.1-.4.2-.8.3,0,0,0,.2,0,.3,2.1,0,4.2,0,6.3,0,.2-.9.4-1.7.6-2.6Z"/>
    <path class="cls-1" d="M136.1,173.9c0,0,0,.2,0,.3,1,0,2,0,3,0,0,0,0-.2,0-.3-.3,0-.5-.1-.6-.3-.1-.1-.3-.5-.5-1.1-1-2.9-1.9-5.8-2.9-8.7,0,0-.2,0-.2,0-.8,2.5-1.6,5-2.4,7.5-.4,1.1-.6,1.8-.8,2.1-.1.3-.4.4-.7.4,0,0,0,.2,0,.3.8,0,1.5,0,2.3,0,0,0,0-.2,0-.3-.3,0-.5,0-.6-.1-.2,0-.2-.3-.2-.5,0-.1,0-.3,0-.5,0-.2.2-.8.5-1.8,1,0,2,0,3.1,0,.2.5.3,1,.5,1.5,0,.2.1.4.2.6,0,.2,0,.3,0,.4,0,.2,0,.4-.1.4,0,0-.3.1-.7.1ZM133.3,170.2c.4-1.4.9-2.8,1.3-4.2.4,1.4.9,2.8,1.3,4.2-.9,0-1.8,0-2.7,0Z"/>
    <path class="cls-1" d="M139.4,173.9c0,0,0,.2,0,.3,1.3,0,2.5,0,3.8,0,.6,0,1.2-.1,1.6-.4.8-.5,1.3-1.3,1.3-2.5,0-.7-.2-1.3-.6-1.7-.4-.4-.8-.7-1.4-.9.4-.1.8-.3,1-.5.4-.4.6-.9.6-1.7,0-1-.3-1.7-.8-2.1-.5-.4-1.3-.6-2.2-.6-1.1,0-2.2,0-3.3,0,0,0,0,.2,0,.3.5,0,.8.1.9.3.1.2.2.5.2,1.1,0,2.3,0,4.6,0,6.9,0,.6,0,.9-.2,1.1-.1.2-.4.3-.9.3ZM144.8,171.4c0,.9-.2,1.5-.6,1.8-.4.3-.9.5-1.5.5-.4,0-.7,0-.8-.1-.1,0-.2-.3-.2-.5,0-1.3,0-2.6,0-3.9,0,0,.2,0,.2,0,0,0,.2,0,.3,0,.7,0,1.3.2,1.8.5.5.3.7.9.7,1.8ZM141.8,164.6c0,0,.2,0,.4,0,.6,0,1.1,0,1.4.3.6.3.9.9.9,1.9,0,.8-.2,1.3-.7,1.6-.3.2-.6.2-1,.3-.4,0-.7,0-1.1,0,0-1.2,0-2.3,0-3.5,0-.2,0-.4,0-.5Z"/>
    <path class="cls-1" d="M154.9,169c0-1.7-.4-3-1.2-4-.7-.9-1.6-1.4-2.6-1.4-1,0-1.9.5-2.6,1.4-.8,1-1.2,2.3-1.2,4,0,1.6.4,2.9,1.1,3.9.7,1,1.6,1.5,2.7,1.5,1,0,1.9-.4,2.6-1.3.8-1,1.2-2.3,1.2-4ZM152.9,172.7c-.5.8-1.1,1.1-1.8,1.1-.7,0-1.3-.4-1.8-1.2-.5-.8-.7-2-.7-3.6,0-1.6.2-2.9.7-3.6.5-.8,1.1-1.2,1.8-1.2.7,0,1.3.4,1.8,1.1.5.8.7,2,.7,3.7,0,1.7-.2,2.9-.7,3.7Z"/>
    <path class="cls-1" d="M156.9,172.7c.5,1.1,1.3,1.6,2.6,1.6,1.3,0,2.1-.6,2.6-1.7.2-.6.4-1.4.4-2.5,0-1.3,0-2.7,0-4,0-.8,0-1.3.2-1.5.1-.2.4-.4.9-.4,0,0,0-.2,0-.3-.9,0-1.8,0-2.7,0,0,0,0,.2,0,.3.4,0,.7.2.9.4.2.2.2.7.2,1.6,0,1.3,0,2.7,0,4,0,1,0,1.7-.3,2.2-.3.8-1,1.3-1.9,1.3-.9,0-1.5-.4-1.8-1.2-.2-.5-.2-1.1-.2-1.9,0-1.7,0-3.3,0-5,0-.6,0-.9.2-1.1.1-.2.4-.3.9-.3,0,0,0-.2,0-.3-1.1,0-2.2,0-3.3,0v.3c.4,0,.7.2.9.3.1.2.2.5.2,1.1,0,1.6,0,3.2,0,4.9,0,1,.1,1.7.4,2.3Z"/>
    <path class="cls-1" d="M168.5,164.7c.7,0,1.1.1,1.3.4.2.3.4.8.5,1.6,0,0,.2,0,.3,0,0-.9,0-1.7,0-2.6-2.2,0-4.4,0-6.6-.1,0,.9,0,1.7,0,2.6,0,0,.2,0,.3,0,.1-.8.3-1.4.5-1.6.2-.2.7-.4,1.3-.3.2,0,.4,0,.7,0,0,2.6,0,5.1,0,7.7,0,.7,0,1.1-.2,1.2-.1.2-.4.3-.9.3,0,0,0,.2,0,.3,1.1,0,2.3,0,3.4,0,0,0,0-.2,0-.3-.5,0-.8-.1-.9-.3-.1-.1-.2-.5-.2-1.1,0-2.6,0-5.2,0-7.8.2,0,.4,0,.6,0Z"/>
    <path class="cls-1" d="M178.1,164.9c.7,0,1.1.2,1.3.4.2.2.4.8.5,1.6,0,0,.2,0,.3,0,0-.8,0-1.7,0-2.5-2.2,0-4.4-.1-6.6-.2,0,.9,0,1.7,0,2.6,0,0,.2,0,.3,0,.1-.8.3-1.3.5-1.6.2-.2.7-.3,1.3-.3.2,0,.4,0,.7,0,0,2.5,0,5,0,7.5,0,.6,0,1.1-.2,1.2-.1.2-.4.3-.9.3,0,0,0,.2,0,.3,1.1,0,2.3,0,3.4,0,0,0,0-.2,0-.3-.5,0-.8-.1-.9-.3-.1-.1-.2-.5-.2-1.1,0-2.6,0-5.1,0-7.7.2,0,.4,0,.6,0Z"/>
    <path class="cls-1" d="M181.5,173.6c-.1.2-.4.3-.9.3,0,0,0,.2,0,.3,1.1,0,2.2,0,3.2,0,0,0,0-.2,0-.3-.4,0-.7-.1-.8-.3-.1-.2-.2-.5-.2-1,0-1,0-2,0-3,1.2,0,2.4,0,3.5,0,0,.9,0,1.9,0,2.8,0,.6,0,1-.2,1.2-.1.1-.4.3-.9.3,0,0,0,.2,0,.3,1.1,0,2.2,0,3.2,0,0,0,0-.2,0-.3-.4,0-.7-.1-.8-.3-.1-.1-.2-.5-.2-1,0-2.1,0-4.3,0-6.4,0-.5,0-.9.2-1,.1-.2.4-.2.8-.3,0,0,0-.2,0-.3-1.1,0-2.2,0-3.2-.1,0,0,0,.2,0,.3.4,0,.7.2.8.3.1.2.2.5.2,1,0,.9,0,1.9,0,2.8-1.2,0-2.4,0-3.5,0,0-1,0-1.9,0-2.9,0-.5,0-.9.2-1,.1-.2.4-.2.8-.3,0,0,0-.2,0-.3-1.1,0-2.2,0-3.2-.1,0,0,0,.2,0,.3.4,0,.7.2.8.3.1.2.2.5.2,1,0,2.1,0,4.3,0,6.4,0,.6,0,1-.2,1.2Z"/>
    <path class="cls-1" d="M195.8,171.8c-.1,0-.2,0-.3,0-.3.8-.6,1.3-1,1.5-.4.2-1,.3-1.7.3-.7,0-1.2,0-1.3,0-.1,0-.2-.2-.2-.5,0-1.2,0-2.4,0-3.5.6,0,1.2,0,1.8,0,.5,0,.8.1.9.3.1.2.2.5.3,1.1,0,0,.2,0,.3,0,0-1.1,0-2.2,0-3.2,0,0-.2,0-.3,0,0,.5-.2.9-.3,1.1-.1.2-.5.3-.9.2-.6,0-1.2,0-1.8,0,0-1.1,0-2.1,0-3.2,0-.2,0-.3,0-.4,0,0,.1,0,.3,0,.5,0,1.1,0,1.6,0,.7,0,1.1.1,1.3.3.2.2.3.6.4,1.2,0,0,.2,0,.3,0,0-.7,0-1.3,0-2-2.1-.1-4.1-.2-6.2-.3,0,0,0,.2,0,.3.4,0,.7.2.8.3.1.2.2.5.2,1,0,2.1,0,4.3,0,6.4,0,.5,0,.9-.2,1-.1.1-.4.2-.8.3,0,0,0,.2,0,.3,2.1,0,4.2,0,6.3,0,.2-.8.4-1.6.5-2.4Z"/>
    <path class="cls-1" d="M203.5,173.9c0,0,0,.2,0,.2,1,0,2,0,3,0,0,0,0-.2,0-.2-.3,0-.5-.1-.6-.2-.1-.1-.3-.4-.5-.9-1-2.5-1.9-5-2.9-7.6,0,0-.2,0-.2,0-.8,2.2-1.6,4.3-2.4,6.6-.4,1-.6,1.6-.8,1.8-.1.2-.4.4-.7.4,0,0,0,.2,0,.3.8,0,1.5,0,2.3,0,0,0,0-.2,0-.3-.3,0-.5,0-.6-.1-.2,0-.2-.2-.2-.5,0-.1,0-.3,0-.5,0-.2.2-.7.5-1.6,1,0,2,0,3.1,0,.2.4.3.9.5,1.3,0,.2.1.4.2.5,0,.2,0,.3,0,.3,0,.2,0,.3-.1.4,0,0-.3,0-.7.1ZM200.8,170.7c.4-1.2.9-2.5,1.3-3.7.4,1.3.9,2.5,1.3,3.7-.9,0-1.8,0-2.7,0Z"/>
    <path class="cls-1" d="M209.5,170.2c1,1.3,1.9,2.7,2.9,3.9.6,0,1.2,0,1.9,0,0,0,0-.2,0-.2-.2,0-.4,0-.6-.2-.1,0-.3-.2-.4-.4-.8-1.1-1.6-2.1-2.4-3.2.6,0,1.2-.3,1.5-.6.4-.3.6-.8.6-1.4,0-.9-.4-1.6-1.3-2-.4-.2-1-.3-1.7-.4-1.1,0-2.1-.1-3.2-.2,0,0,0,.2,0,.2.4,0,.7.2.8.3.1.1.2.5.2.9,0,1.9,0,3.7,0,5.6,0,.5,0,.9-.2,1-.1.1-.4.2-.8.3,0,0,0,.2,0,.2,1.1,0,2.2,0,3.2,0,0,0,0-.2,0-.2-.4,0-.7-.1-.9-.3-.1-.1-.2-.4-.2-.9,0-.8,0-1.7,0-2.5.2,0,.3,0,.5,0ZM209,166.6c0-.2,0-.3.1-.4,0,0,.3,0,.6,0,.5,0,.9.1,1.2.3.6.3.8.8.8,1.5,0,.8-.3,1.3-.9,1.5-.4.1-1,.2-1.8.2,0-1.1,0-2.1,0-3.2Z"/>
    <path class="cls-1" d="M216.5,173.7c-.1.1-.4.2-.9.2,0,0,0,.2,0,.2,1.1,0,2.3,0,3.4,0v-.2c-.5,0-.8-.1-.9-.2-.1-.1-.2-.4-.2-.9,0-2,0-4.1,0-6.1.2,0,.4,0,.6,0,.7,0,1.1.2,1.3.4.2.2.4.6.5,1.3,0,0,.2,0,.3,0,0-.7,0-1.3,0-2-2.2-.2-4.4-.3-6.6-.5,0,.7,0,1.4,0,2.1,0,0,.2,0,.3,0,.1-.7.3-1.1.5-1.3.2-.2.7-.2,1.3-.2.2,0,.4,0,.7,0,0,2,0,4,0,6,0,.5,0,.8-.2,1Z"/>
  </g>
</svg>