<?xml version="1.0" encoding="UTF-8"?>
<svg id="Layer_1" data-name="Layer 1" xmlns="http://www.w3.org/2000/svg" version="1.1" viewBox="0 0 134.3 21.2">
  <defs>
    <style>
      .cls-1 {
        fill: #fff2ea;
        stroke-width: 0px;
      }
    </style>
  </defs>
  <path class="cls-1" d="M133,5.9l-21.5-.5h-.9l-37.7-.9c0,0-.1,0-.2.1,0,.2-.2.5-.3.7v.3c.2.3.7.9.9,1.2,0,0,0,.1,0,.1h0v.3c0,0,0,.1.1.1l34.4-.8c-.5.5-.9,1.1-1.1,1.7-.7,2.2,1.5,4.6,3.7,4.1.7-.1.4-1.3-.3-1.1-.9.2-1.7-.5-2.1-1.2-.5-.9-.1-1.9.5-2.5,1.3-1.4,3.4-1.1,4.7.1,1.4,1.3,1.5,3.2.4,4.8-1.2,1.8-3.6,2.3-5.5,2.3-3.6,0-7-1.3-10.2-2.9.4,0,1,0,1.4-.3,0,0-.3-.2-.3-.3,0,0,.7,0,1.1-.5,0,0-.1-.2-.3-.2,0,0,1-.9,1.5-.7,0,0-.5-.8-1.9-.7,0,0,.1-.2.1-.4,0,0-.7-.3-1.2,0,0,0,.1-.3.1-.4,0,0-.3-.4-1.5.3,0,0,.1-.3.1-.5,0,0-.9,0-2,1.2-.3.3-.5.6-.6.9-3.6-1.6-7.2-2.7-11.1-2.4-7.2.5-13.6,5-16.6,11.5-2.9-6.5-9.3-11.1-16.6-11.5-4-.3-7.6.8-11.1,2.4-.1-.3-.3-.5-.6-.9-1.1-1.3-2-1.2-2-1.2,0,.2.1.5.1.5-1.1-.7-1.5-.3-1.5-.3,0,.1.1.4.1.4-.5-.3-1.2,0-1.2,0,0,.2.1.4.1.4-1.5-.2-1.9.7-1.9.7.5,0,1.5.7,1.5.7-.1,0-.3.2-.3.2.3.4,1.1.5,1.1.5,0,.2-.3.3-.3.3.4.3,1,.3,1.4.3-3.2,1.5-6.6,3-10.2,2.9-2,0-4.4-.6-5.5-2.3-1-1.5-.9-3.5.4-4.8,1.3-1.2,3.4-1.5,4.7-.1.7.7,1,1.7.5,2.5-.4.7-1.2,1.3-2.1,1.2-.7-.1-1.1,1-.3,1.1,2.2.4,4.4-1.9,3.7-4.1-.2-.7-.6-1.3-1.1-1.7l34.5.8c0,0,.1,0,.1-.1v-.2h0s0-.1,0-.2c.2-.3.7-.9.9-1.2v-.3c0-.2-.2-.5-.3-.7,0,0-.1-.1-.2-.1l-37.7.9h-.9L1.1,5.9q0,0,0,0l19.2.5c-1.3,1-2.1,2.7-2,4.4.3,2.2,2,3.9,4,4.6-.1,0-.3.1-.3.1,0,0,.1.3.6.3,0,0-1.1.4-1.5,1.1,0,0,.3,0,.5.1,0,0-.6.5-.7,1,0,0,.2.1.3,0,0,0-.4,1.3-.9,1.4,0,0,.8.5,2-.5,0,0,0,.3.1.4,0,0,.7,0,1.1-.6,0,0,0,.3,0,.4,0,0,.5.1,1.1-1,0,0,0,.3.1.5,0,0,.8-.5,1.1-2.1,0-.2,0-.5,0-.6,7.7,0,14.2-6.6,21.9-7,3.1-.1,6.1.5,8.8,1.7h-.1c-7.5-2.5-10.1,2.2-9.1,1.5,1.1-.9,2.5.7,3.8-.1s3.1-1.9,6.8-.1c-3.7-1.3-4.6.9-5.8.9,0,0,1,1.5,2.2.7s3-1.3,2.8-.3-1.5.3-3.6,1.7c-2.1,1.5-.5,3.4-4.3,3.5,5,2.2,6.6-1.8,7.8-3.2,1.1-1.4,2.6-.3.6.7-2,1.1-.7,2.2-2.1,3.4,1.6.1,1.6-.3,3.4-2.3,1-1.1,3.1.3,4,.8.6.3,1.1.7,1.7,1.1.3.3.7.5.9.9s.4.8.5,1.2c0,.3.3.4.5.5h0c.3,0,.5-.2.5-.5.1-.4.3-.9.5-1.2s.6-.6.9-.9c.5-.4,1.1-.8,1.7-1.1.9-.5,3-1.9,4-.8,1.8,2,1.8,2.4,3.4,2.3-1.5-1.2-.1-2.3-2.1-3.4-2-1.1-.5-2.2.6-.7,1.1,1.4,2.8,5.4,7.8,3.2-3.8-.2-2.1-2-4.3-3.5-2.1-1.5-3.4-.8-3.6-1.7-.2-1,1.5-.5,2.8.3,1.2.9,2.2-.7,2.2-.7-1.2,0-2.1-2.3-5.8-.9,3.6-1.7,5.4-.7,6.8.1s2.7-.7,3.8.1c.9.7-1.6-4-9.1-1.5h-.1c2.7-1.3,5.7-1.9,8.8-1.7,7.7.4,14.2,7,21.9,7,0,.2,0,.4,0,.6.3,1.7,1.1,2.1,1.1,2.1.1-.1.1-.5.1-.5.6,1.2,1.1,1,1.1,1,0,0,0-.4,0-.4.3.5,1.1.6,1.1.6.1-.1,0-.4,0-.4,1.2.9,2,.5,2,.5-.5-.2-.9-1.4-.9-1.4h.3c0-.5-.7-1-.7-1,.1-.1.5-.1.5-.1-.3-.7-1.5-1.1-1.5-1.1.5,0,.6-.3.6-.3,0,0-.2,0-.3-.1,2-.7,3.8-2.4,4-4.6.2-1.7-.7-3.4-1.9-4.4l19.4-.5q0,0,0,0h.3ZM24.9,16.6c-.1.8-.5,1-.5,1v-.2c-.3.5-.5.5-.5.5v-.2c-.1.3-.5.3-.5.3v-.2c-.5.5-.9.2-.9.2.2,0,.4-.7.4-.7h-.1c0-.3.3-.5.3-.5h-.2c.1-.3.7-.5.7-.5-.2,0-.3-.1-.3-.1,0,0,.4-.2.5-.3.1,0,.5,0,.7,0h.1c.3,0,.5,0,.7,0,0,.3-.1.7-.1.7h-.2ZM35.7,10.8s.1,0,.1-.1c0,0-.3,0-.5-.2,0,0,0-.1.1-.1,0,0-.5-.4-.7-.3,0,0,.2-.4.9-.3v-.2s.3-.1.6,0v-.2s.1-.2.7.1v-.3s.5,0,1,.6c0,0,.4.5.5.6,0,0-.6.3-.7.5-.1.1-.4.3-.6.3h-.6s0-.1.2-.3c0,0-.5.1-.9,0h-.2ZM59.3,11.9c.1,0,.2.1.3.2-.5-.1-.9-.2-1.1-.2h.9,0ZM58.1,12.6c.5-.1,1.2-.1,1.9-.1.1.1.3.2.4.3-.9-.1-1.7-.2-2.3-.1h0ZM57.1,14.1h0c.7-.9,2.7-.9,3.9-.9.1.1.3.2.4.3-1.3-.3-3.1-.3-4.3.5ZM59.9,14.1h0c.5,0,1.3,0,2,0,.2.2.3.3.5.5-.7-.3-1.5-.5-2.5-.5ZM60.5,14.9c.7-.2,1.7,0,2.6.4.2.2.4.5.6.7-1.3-.9-2.7-1.2-3.2-1.1h0ZM74.7,11.9h.9c-.2,0-.7.1-1.1.2.1,0,.2-.1.3-.2h0ZM70.2,16c.2-.3.4-.5.6-.7.9-.4,1.9-.6,2.6-.4-.5,0-1.9.2-3.2,1.1h0ZM74.1,14.1c-1.1,0-1.9.2-2.5.5.2-.2.3-.3.5-.5.7-.1,1.5-.1,2,0h0ZM76.9,14.1h0c-1.2-.8-2.9-.9-4.3-.5.1-.1.3-.2.4-.3,1.2,0,3.2,0,4,.9h0ZM75.8,12.6h0c-.5,0-1.5,0-2.3.1.1-.1.3-.2.4-.3.7,0,1.4,0,1.9.1h0ZM96.2,9.8c.5-.6,1-.6,1-.6v.3c.5-.3.7-.1.7-.1v.2c.3-.1.6,0,.6,0v.2c.7,0,.9.3.9.3-.2,0-.7.3-.7.3h.1c-.1.3-.5.3-.5.3,0,0,.1.1.1.1-.3.2-.9,0-.9,0,.2.1.2.3.2.3h-.6c-.1,0-.4-.2-.6-.3-.1-.1-.7-.5-.7-.5.2-.1.6-.6.6-.6h-.3ZM111.4,16.8h-.2s.3.2.3.5h-.1s.2.6.4.7c0,0-.4.2-.9-.2v.2s-.3,0-.5-.3v.2s-.3,0-.5-.5c0,0,0,.1,0,.2,0,0-.4-.2-.5-1,0,0,0-.5-.1-.7.3,0,.5,0,.7,0h.8c.1,0,.5.3.5.3,0,0,0,.1-.3.1,0,0,.5.2.7.5h-.1Z"/>
  <path class="cls-1" d="M69.4,11.6c-.4,0-.7,0-1.1-.2-.3,0-.6-.2-.8-.4h-.5c0,.1,0,0,0,0h-.4l-.8.4c-.3.1-.7.2-1.1.2h-.1c.6.4,1.2.5,1.7.6h.9c.3,0,.5,0,.8,0,.5,0,1.1-.2,1.7-.6h-.3Z"/>
  <path class="cls-1" d="M70.7,4.3v-.3c0-.3-.2-.6-.3-.7,0,0,0,0,0,0h-.1c-.1,0-.5.5-.7.9-.3.5-.5.8-.9.9-.3,0-.6,0-1.1.2-.1,0-.3,0-.4,0h-.1c-.1,0-.3,0-.4,0-.5-.1-.8-.1-1.1-.2-.3,0-.6-.3-.9-.9-.2-.5-.5-.9-.7-.9h-.2c0,.2-.2.4-.3.8v.3c0,.7.3,1.3,1,1.7h.1c.9.1,1.6.3,2.4.4h.1c.8,0,1.5-.3,2.4-.4h.1c.7-.4,1.1-1,1-1.7Z"/>
  <path class="cls-1" d="M71.8,6.1c0,0,0,.2-.1.3-.3.5-.5.9-.7,1.1-.2.3-.3,1.3-1.3,1.8-.8.3-1.8.5-2.3,1.2h0c.6.3,1.1.7,1.9.7.3,0,.6,0,.9-.3.5-.2.8-.4,1.1-.7s.5-.6.7-1.4c.1-.4.2-.7.3-1h0v-1h0c0-.3-.3-.5-.5-.9h-.1Z"/>
  <path class="cls-1" d="M67.5,8.6h-1.3c.3.1.5.3.7.4h.1c.3-.1.5-.3.7-.4h-.3Z"/>
  <path class="cls-1" d="M67.9.7c.7.3,1.4.9,1.9,1.8h.3c.5,0,.7.4.9.8,0,.3.1.5.2.7h0c.1-.3.1-.6.1-1s-.2-1-.5-1.1c-.5-.4-1.6-1.5-2.6-1.4-.1,0-.3,0-.4,0h0Z"/>
  <path class="cls-1" d="M69,7.7c0-.1.1-.3.3-.6,0-.2.1-.3.2-.5h0c-.8.1-1.5.3-2.4.4h-.1c-.9,0-1.6-.3-2.4-.4h0c0,.2.1.3.2.5,0,.3.2.5.3.6,0,0,0,0,0,0,.5.3.9.4,1.4.5h1.1c.5,0,.9-.1,1.4-.5h0Z"/>
  <path class="cls-1" d="M68.2,4.5s0,0,0,0h0c.3,0,.4-.1.5-.3,0,0,0-.2,0-.4,0-.4-.3-.9-1.6-1h-.5c-1.3.1-1.5.7-1.6,1,0,.1,0,.3,0,.4s.2.2.5.3h0s0,0,0,0c0-.3.2-.5.3-.7.1-.1.3-.3.5-.4,0,0,0,0,.1,0,0,0,.1,0,.3,0h.1c0,0,.1,0,.3,0h.1c.2,0,.3.2.5.4.1.2.2.4.3.7h0Z"/>
  <path class="cls-1" d="M67,3.7h-.1c-.2,0-.3.1-.5.3-.1.1-.2.3-.3.5h0c.2,0,.5.1.7.2h.1c.2,0,.5,0,.7-.1h0c0-.3-.1-.5-.3-.6-.1-.2-.3-.3-.5-.3h.1Z"/>
  <path class="cls-1" d="M64.6,2.8h0c0,.3.1.4.2.5h0c.2-.3.6-.6,1.3-.7h.1c.2,0,.4-.1.6-.2h.1c.2,0,.5.1.6.2h.1c.7.1,1.1.5,1.3.8h0c0-.2.1-.3.2-.5h0c-.9-1.4-1.7-1.9-2.4-2-.7,0-1.5.5-2.4,1.9h.3Z"/>
  <path class="cls-1" d="M62.3,5.3c.3.5.7,1.1.8,1.7h0c0,.1,0,.2,0,.3.2.3.3.9.6,1.3,0,0,0,0,.1,0,.3.3.8.4,1.4.6.7.2,1.2.4,1.5.8h0q0,0,0,0h0c.3-.4.7-.7,1.5-.9.6-.1,1.1-.3,1.4-.6,0,0,0,0,.1,0,.3-.4.4-.9.6-1.3,0,0,0,0,0-.1h0c.2-.7.5-1.3.8-1.8,0-.1.1-.3.2-.5,0-.3.1-.5.1-.7v-.3s0,0,0-.1h0v.2h0c-.1.9-.8,1.5-1.3,2.1-.8.9-.7,2.4-2.7,3h-.1c-.1,0-.3.1-.5.2h-.1c-.1,0-.3-.1-.5-.2h-.1c-2-.6-1.9-2.1-2.7-3.1-.5-.7-1.2-1.3-1.3-2h0v-.3h0s0,0,0,.1v.3c0,.2,0,.4.1.7,0,.1.1.3.2.5h0Z"/>
  <path class="cls-1" d="M61.5,7.9c0,.3.1.6.3,1,.2.7.4,1.1.7,1.4.3.2.7.4,1.1.7s.7.3.9.3c.7,0,1.3-.3,1.9-.6h0c-.5-.7-1.5-.9-2.3-1.3-1-.4-1.1-1.5-1.3-1.8-.1-.2-.4-.6-.7-1.1,0,0,0-.2-.1-.3h0c-.2.3-.4.5-.5.7h0v.9h0c0,.1,0,0,0,0Z"/>
  <path class="cls-1" d="M62.7,4.1c0-.3.1-.5.2-.7.1-.4.4-.9.9-.8h.3c.5-.9,1.3-1.5,1.9-1.8h0c-.1,0-.3,0-.4,0-1.1,0-2.1,1-2.6,1.4-.2.1-.4.7-.5,1.1,0,.3,0,.7.1,1h0Z"/>
  <path class="cls-1" d="M25.1,8.9c0-1-.8-1.8-1.8-1.8s-1.8.8-1.8,1.8.8,1.8,1.8,1.8,1.8-.8,1.8-1.8Z"/>
  <path class="cls-1" d="M110.8,7.1c-1,0-1.8.8-1.8,1.8s.8,1.8,1.8,1.8,1.8-.8,1.8-1.8-.8-1.8-1.8-1.8Z"/>
</svg>