<?xml version="1.0" encoding="UTF-8"?>
<svg id="Layer_1" data-name="Layer 1" xmlns="http://www.w3.org/2000/svg" version="1.1" viewBox="0 0 211.4 63.6">
  <defs>
    <style>
      .cls-1 {
        fill: #fef8e5;
        stroke-width: 0px;
      }
    </style>
  </defs>
  <path class="cls-1" d="M204.3,26.8l-32.1-.8c-.4,0-.9,0-1.3,0l-56.2-1.3c-.1,0-.2,0-.3.2-.1.3-.3.8-.4,1.1,0,.1,0,.3,0,.4.3.4,1,1.4,1.3,1.8,0,.1.1.2.1.2h0c0,.2,0,.3,0,.4s0,.2.2.2l51.4-1.2c-.8.7-1.4,1.6-1.7,2.6-1.1,3.3,2.2,6.8,5.5,6.1,1.1-.2.6-1.9-.5-1.7-1.4.3-2.5-.7-3.1-1.8-.7-1.3-.2-2.8.8-3.8,2-2.1,5.1-1.6,7,.2,2.1,2,2.2,4.8.6,7.1-1.8,2.7-5.3,3.5-8.2,3.5-5.4.1-10.4-2-15.2-4.4.6,0,1.5,0,2.1-.4,0,0-.4-.3-.5-.5,0,0,1.1,0,1.7-.7,0,0-.2-.3-.4-.3,0,0,1.5-1.3,2.2-1.1,0,0-.7-1.2-2.9-1,0,0,.2-.3.2-.6,0,0-1-.5-1.8,0,0,0,.2-.4.2-.6,0,0-.5-.6-2.2.4,0,0,.2-.5.2-.7,0,0-1.4,0-3,1.8-.4.5-.7.9-.9,1.3-5.3-2.4-10.7-4-16.6-3.6-10.8.7-20.3,7.5-24.7,17.2-4.4-9.7-13.9-16.5-24.7-17.2-5.9-.4-11.3,1.2-16.6,3.6-.2-.4-.5-.8-.9-1.3-1.6-1.9-3-1.8-3-1.8,0,.3.2.7.2.7-1.7-1-2.2-.4-2.2-.4,0,.2.2.6.2.6-.8-.5-1.8,0-1.8,0,0,.3.2.6.2.6-2.2-.3-2.9,1-2.9,1,.7-.1,2.2,1.1,2.2,1.1-.2,0-.4.3-.4.3.5.6,1.7.7,1.7.7,0,.3-.5.5-.5.5.6.4,1.5.4,2.1.4-4.8,2.3-9.8,4.5-15.2,4.4-3,0-6.5-.9-8.2-3.5-1.5-2.3-1.4-5.2.6-7.1,1.9-1.8,5-2.3,7-.2,1,1,1.5,2.5.8,3.8-.6,1.1-1.8,2-3.1,1.8-1.1-.2-1.6,1.5-.5,1.7,3.3.6,6.6-2.8,5.5-6.1-.3-1-.9-1.9-1.7-2.6l51.5,1.2c.1,0,.2,0,.2-.2s0-.2,0-.3h0c0,0,0-.2.1-.3.3-.5,1-1.4,1.3-1.8,0-.1,0-.3,0-.4-.1-.3-.3-.8-.4-1.1,0-.1-.2-.2-.3-.2l-56.3,1.3c-.5,0-.9,0-1.3,0l-32,.8c-.1,0-.1,0,0,0l28.7.7c-2,1.5-3.2,4-3,6.5.4,3.3,3,5.8,6,6.8-.2.1-.4.2-.5.2,0,0,.2.4.9.4,0,0-1.7.6-2.2,1.7,0,0,.5,0,.7.2,0,0-.9.7-1.1,1.5,0,0,.3.2.5,0,0,0-.6,1.9-1.3,2.1,0,0,1.2.7,3-.7,0,0,0,.4.2.6,0,0,1.1,0,1.6-.9,0,0,0,.4.1.6,0,0,.8.2,1.7-1.5,0,0,0,.5.2.7,0,0,1.2-.7,1.7-3.2,0-.3,0-.7.1-.9,11.5,0,21.2-9.9,32.7-10.5,4.6-.2,9.1.7,13.1,2.5,0,0-.1,0-.2,0-11.2-3.7-15,3.3-13.6,2.2,1.7-1.3,3.8,1,5.7-.2s4.7-2.8,10.1-.2c-5.5-2-6.8,1.4-8.6,1.3,0,0,1.5,2.3,3.3,1,1.8-1.3,4.5-2,4.2-.5-.3,1.5-2.2.4-5.3,2.6-3.2,2.2-.7,5-6.4,5.2,7.4,3.3,9.9-2.7,11.7-4.8,1.7-2.1,3.9-.4.9,1.1-3,1.6-1.1,3.3-3.2,5,2.4.2,2.4-.4,5.1-3.4,1.5-1.6,4.6.4,5.9,1.2.9.5,1.7,1.1,2.5,1.7.5.4,1,.8,1.4,1.3.4.5.6,1.2.8,1.8,0,.4.4.6.8.7h.1c.4,0,.8-.3.8-.7.2-.6.4-1.3.8-1.8.4-.5.9-.9,1.4-1.3.8-.6,1.6-1.2,2.5-1.7,1.3-.8,4.5-2.8,5.9-1.2,2.7,3,2.7,3.6,5.1,3.4-2.2-1.8-.2-3.5-3.2-5-3-1.6-.8-3.3.9-1.1,1.7,2.1,4.2,8.1,11.7,4.8-5.7-.3-3.2-3-6.4-5.2-3.2-2.2-5-1.2-5.4-2.6-.3-1.5,2.3-.7,4.2.5,1.8,1.3,3.3-1,3.3-1-1.8,0-3.1-3.4-8.6-1.3,5.4-2.5,8.1-1,10.1.2,2,1.2,4.1-1.1,5.7.2,1.4,1.1-2.4-6-13.6-2.2,0,0-.1,0-.2,0,4-1.9,8.5-2.8,13.1-2.5,11.5.6,21.2,10.5,32.7,10.5,0,.3,0,.6.1.9.4,2.5,1.6,3.2,1.6,3.2.2-.2.2-.7.2-.7.9,1.8,1.7,1.5,1.7,1.5,0-.1.1-.6.1-.6.5.8,1.6.9,1.6.9.2-.2.1-.6.1-.6,1.8,1.4,3,.7,3,.7-.7-.3-1.3-2.1-1.3-2.1.2,0,.5,0,.5,0-.1-.8-1.1-1.5-1.1-1.5.2-.2.7-.2.7-.2-.5-1.1-2.2-1.7-2.2-1.7.7,0,.9-.4.9-.4-.1,0-.3,0-.5-.2,3-1.1,5.7-3.6,6-6.8.3-2.6-1-5-2.9-6.5l28.9-.7c.1,0,.1,0,0,0h0ZM42.9,42.8c-.2,1.2-.8,1.5-.8,1.5,0,0,0-.3,0-.3-.4.8-.8.7-.8.7,0,0,0-.3,0-.3-.2.4-.8.4-.8.4,0-.1,0-.3,0-.3-.8.7-1.4.3-1.4.3.3-.1.6-1,.6-1,0,0-.2,0-.2,0,0-.4.5-.7.5-.7,0,0-.3,0-.3,0,.2-.5,1-.8,1-.8-.3,0-.4-.2-.4-.2.1,0,.6-.3.8-.5.2-.1.7,0,1,0,0,0,0,0,.2,0,.4,0,.7,0,1.1.1-.1.4-.2,1.1-.2,1.1h0ZM59.1,34.2s.2-.1.2-.2c0,0-.5,0-.8-.3,0,0,0-.2.2-.2,0,0-.7-.6-1-.5,0,0,.3-.6,1.4-.5,0,0,0-.1,0-.3,0,0,.5-.2.9,0,0,0,0-.2,0-.3,0,0,.2-.3,1,.2,0,0,0-.2,0-.4,0,0,.7,0,1.5.9,0,0,.6.7.8.9,0,0-.9.5-1.1.7-.2.2-.6.5-.9.5s-.8,0-.9,0c0,0,0-.2.3-.4,0,0-.8.2-1.3-.1h0ZM94.2,35.8c.2,0,.3.2.4.3-.7-.2-1.4-.3-1.7-.3.4,0,.8,0,1.3,0h0ZM92.5,36.8c.7-.2,1.8-.2,2.8-.2.2.2.4.3.6.5-1.3-.2-2.6-.3-3.4-.2h0ZM91,39.1s0,0,0,0c1.1-1.4,4.1-1.4,5.8-1.3.2.2.4.3.6.5-2-.5-4.6-.4-6.4.8ZM95.1,39s0,0,0,0c.8-.1,2-.1,3,0,.3.3.5.5.8.8-1-.4-2.2-.7-3.8-.8ZM96,40.2c1-.3,2.5,0,3.9.6.3.3.6.7.9,1.1-1.9-1.4-4.1-1.8-4.8-1.7h0ZM117.2,35.8c.4,0,.8,0,1.3,0-.3,0-1,.2-1.7.3.2,0,.3-.2.4-.3h0ZM110.6,41.9c.3-.4.6-.7.9-1.1,1.4-.6,2.9-.9,3.9-.6-.7,0-2.9.3-4.8,1.7h0ZM116.3,39c-1.6,0-2.9.3-3.8.8.3-.3.5-.5.8-.8,1.1-.2,2.2-.2,3,0,0,0,0,0,0,0ZM120.5,39s0,0,0,0c-1.8-1.2-4.4-1.3-6.4-.8.2-.2.4-.3.6-.5,1.8-.1,4.8-.1,5.9,1.3ZM118.9,36.8h0c-.8,0-2.2,0-3.4.2.2-.2.4-.3.6-.5,1,0,2.1,0,2.8.2h0ZM149.3,32.7c.8-.9,1.5-.9,1.5-.9,0,.1,0,.4,0,.4.8-.5,1-.2,1-.2,0,0,0,.3,0,.3.4-.2.9,0,.9,0,0,.1,0,.3,0,.3,1.1-.1,1.4.5,1.4.5-.3,0-1,.5-1,.5,0,0,.2.2.2.2-.2.3-.8.3-.8.3,0,.1.2.2.2.2-.5.3-1.3.1-1.3.1.3.2.3.4.3.4-.1,0-.7,0-.9,0-.2,0-.6-.3-.9-.5-.2-.2-1.1-.7-1.1-.7.3-.2.9-.9.9-.9h0ZM172,43.1s-.2,0-.3,0c0,0,.4.3.5.7,0,0-.2,0-.2,0,0,0,.3.9.6,1,0,0-.6.3-1.4-.3,0,0,0,.2,0,.3,0,0-.5,0-.8-.4,0,0,0,.2,0,.3,0,0-.4.1-.8-.7,0,0,0,.2-.1.3,0,0-.6-.3-.8-1.5,0,0,0-.7-.2-1.1.4,0,.7,0,1.1-.1,0,0,.1,0,.2,0,.3,0,.8,0,1,0,.2.1.7.5.8.5,0,0,0,.2-.4.2,0,0,.8.3,1,.8h0Z"/>
  <path class="cls-1" d="M109.3,35.3c-.6,0-1.1,0-1.6-.3-.4-.1-.9-.3-1.2-.6,0,0-.1,0-.2,0,0,0-.2,0-.3,0,0,0-.1,0-.2,0,0,0,0,.1,0,.2,0,0,0,0,0,0,0,0,0-.1,0-.2,0,0,0,0-.1,0,0,0-.2,0-.3,0,0,0-.1,0-.2,0-.4.2-.8.4-1.2.6-.5.2-1,.3-1.6.3,0,0-.2,0-.2,0,0,0,0,0,0,0,.9.6,1.8.8,2.5.9.4,0,.8,0,1.2,0,0,0,.2,0,.2,0,.4,0,.8.1,1.2,0,.8,0,1.6-.3,2.5-.9,0,0,0,0,0,0,0,0-.2,0-.2,0h0Z"/>
  <path class="cls-1" d="M111.2,24.5c0-.2,0-.3,0-.5-.1-.5-.3-.9-.4-1.1,0,0,0-.1-.1-.1,0,0-.2,0-.2,0-.2.1-.7.7-1,1.4-.4.8-.8,1.2-1.3,1.3-.5.1-.9.1-1.7.3-.2,0-.4.1-.6.1h-.2c-.2,0-.4,0-.6-.1-.7-.2-1.2-.2-1.7-.3-.5-.1-.9-.5-1.3-1.3-.3-.7-.8-1.3-1-1.4,0,0-.2,0-.2,0,0,0,0,0-.1.1-.1.2-.3.5-.4,1.1,0,.2,0,.4,0,.5,0,1.1.5,2,1.5,2.6,0,0,.1,0,.2,0,1.3.2,2.4.5,3.6.6h.2c1.2-.1,2.3-.5,3.6-.6,0,0,.2,0,.2,0,1-.6,1.6-1.5,1.5-2.6Z"/>
  <path class="cls-1" d="M112.9,27.1c0,.1-.1.3-.2.4-.4.8-.8,1.4-1,1.7-.3.4-.4,2-1.9,2.7-1.2.5-2.7.8-3.4,1.8,0,0,0,.1,0,.1.9.4,1.7,1,2.8.9.4,0,.9-.1,1.4-.4.7-.3,1.2-.6,1.7-1,.5-.4.8-.9,1.1-2.1.2-.6.3-1.1.4-1.5,0,0,0-.1,0-.2v-.8c0-.1,0-.3,0-.5h0c0,0,0-.1,0-.2-.1-.3-.4-.6-.7-1.1,0,0,0,0-.1,0h0Z"/>
  <path class="cls-1" d="M106.5,30.9c-.2,0-.5,0-.7,0h-.2c-.2,0-.5,0-.7,0-.1,0-.3,0-.4,0,0,0,0,0,0,0s0,0,0,0c.4.2.8.4,1.1.6,0,0,.1,0,.2,0,.4-.2.8-.4,1.1-.6,0,0,0,0,0,0,0,0,0,0,0,0-.1,0-.3,0-.4,0h0Z"/>
  <path class="cls-1" d="M107.1,19.1c1,.5,2.1,1.3,2.9,2.7,0,0,0,0,.2,0,0,0,.2,0,.3,0,.7,0,1,.6,1.3,1.2.1.4.2.8.3,1.1,0,0,0,0,0,0,.2-.4.2-.9.2-1.5,0-.8-.3-1.5-.7-1.7-.8-.6-2.4-2.2-3.9-2.1-.2,0-.4,0-.6.1,0,0,0,0,0,0h0Z"/>
  <path class="cls-1" d="M108.7,29.5c0-.2.2-.5.4-.9.1-.3.2-.5.3-.8,0,0,0,0,0,0-1.2.2-2.3.5-3.6.6h-.2c-1.3-.1-2.4-.5-3.6-.6,0,0,0,0,0,0,.1.3.2.5.3.8.1.4.3.7.4.9,0,0,0,.1.1.1.7.4,1.4.6,2.1.7.2,0,.4,0,.7,0h.2c.2,0,.4,0,.7,0,.7,0,1.4-.2,2.1-.7,0,0,.1-.1.1-.1h0Z"/>
  <path class="cls-1" d="M107.5,24.8c0,0,0,.1.1.1h.1c.4,0,.6-.2.7-.4,0-.1.1-.3.1-.6,0-.6-.5-1.4-2.4-1.5-.2,0-.3,0-.4,0s-.3,0-.4,0c-1.9.2-2.3,1-2.4,1.5,0,.2,0,.4.1.6.1.2.3.3.7.4h0c0,0,.1,0,.1-.1.1-.4.3-.7.5-1,.2-.2.4-.5.7-.6,0,0,.1,0,.2-.1.1,0,.2,0,.4-.1,0,0,.2,0,.2,0,.1,0,.2,0,.4.1,0,0,.1,0,.2,0,.3.1.5.3.7.6.2.3.3.6.5,1h0Z"/>
  <path class="cls-1" d="M105.8,23.6c0,0-.2,0-.2,0-.3,0-.5.2-.7.5-.2.2-.3.5-.4.8,0,0,0,.1,0,.1.3,0,.7.1,1,.2h.2c.3,0,.7-.1,1-.2,0,0,0,0,0-.1-.1-.3-.2-.6-.4-.8-.2-.3-.4-.4-.7-.5Z"/>
  <path class="cls-1" d="M102.1,22.2s0,.1,0,.2c.1.2.2.4.3.6,0,0,0,0,0,.1,0,0,0,0,0,0,.3-.5.9-1,1.9-1.2,0,0,.2,0,.2,0,.3-.1.6-.2.9-.3,0,0,.2,0,.2,0,.3,0,.7.2.9.3,0,0,.2,0,.2,0,1,.2,1.6.7,1.9,1.2,0,0,0,0,0,0,0,0,0,0,0-.1,0-.2.2-.4.3-.6,0,0,0-.1,0-.2-1.3-1.9-2.5-2.7-3.6-2.8-1.1,0-2.3.8-3.6,2.8h0Z"/>
  <path class="cls-1" d="M98.7,25.9c.4.8,1,1.7,1.2,2.5,0,0,0,.1,0,.2,0,0,0,.1.1.2.3.5.4,1.4.9,2,0,0,.1.1.2.1.5.4,1.2.6,2.1.9,1.1.3,1.8.6,2.2,1.2,0,0,0,0,0,.1,0,0,0,0,.1,0,0,0,0,0,0-.1.4-.5,1-.9,2.2-1.2.9-.2,1.6-.5,2.1-.9,0,0,.1-.1.2-.1.5-.6.6-1.4.9-2,0,0,0-.1.1-.2,0,0,0-.1,0-.2.3-.8.8-1.7,1.2-2.5.1-.2.2-.5.3-.7.1-.4.2-.7.2-1,0-.1,0-.2,0-.4,0,0,0-.1-.1-.2,0,0,0,0,0,0,0,0,0,0-.1,0,0,.1,0,.2,0,.3,0,0,0,.1,0,.2-.2,1.1-1.2,2-2,3-1.2,1.4-1,3.6-4,4.5,0,0,0,0,0,0,0,0-.1,0-.2,0-.2.1-.5.2-.7.3,0,0-.1,0-.2,0-.2,0-.4-.2-.7-.3,0,0-.1,0-.2,0h0c-3-.9-2.8-3.2-4-4.6-.8-1-1.8-1.9-2-3,0,0,0-.1,0-.2,0-.1,0-.2,0-.3,0,0,0,0-.1,0,0,0,0,0,0,0,0,0,0,.1-.1.2,0,.1,0,.2,0,.4,0,.3,0,.6.2,1,0,.2.2.4.3.7h0Z"/>
  <path class="cls-1" d="M97.6,29.8c0,.4.2.9.4,1.5.3,1.1.6,1.6,1.1,2.1.5.3,1,.6,1.7,1s1,.4,1.4.4c1.1,0,1.9-.5,2.8-.9,0,0,0,0,0-.1-.7-1-2.2-1.3-3.4-1.8-1.5-.6-1.6-2.3-1.9-2.7-.2-.3-.6-.9-1-1.7,0-.1-.1-.3-.2-.4,0,0,0,0-.1,0-.3.5-.6.8-.7,1.1,0,0,0,.1,0,.1h0c0,.2,0,.3,0,.5,0,.3,0,.5,0,.8,0,0,0,.2,0,.2h0Z"/>
  <path class="cls-1" d="M99.4,24.2c0-.4.2-.8.3-1.1.2-.6.6-1.3,1.3-1.2,0,0,.2,0,.3,0,0,0,.1,0,.2,0,.8-1.4,1.9-2.2,2.9-2.7,0,0,0,0,0,0-.2,0-.4-.1-.6-.1-1.6-.1-3.1,1.5-3.9,2.1-.3.2-.6,1-.7,1.7,0,.5,0,1.1.2,1.5,0,0,0,0,0,0h0Z"/>
  <path class="cls-1" d="M43.2,31.3c0-1.5-1.2-2.7-2.7-2.7s-2.7,1.2-2.7,2.7,1.2,2.7,2.7,2.7,2.7-1.2,2.7-2.7Z"/>
  <path class="cls-1" d="M171.1,28.6c-1.5,0-2.7,1.2-2.7,2.7s1.2,2.7,2.7,2.7,2.7-1.2,2.7-2.7-1.2-2.7-2.7-2.7Z"/>
</svg>