<?xml version="1.0" encoding="UTF-8"?>
<svg id="Layer_1" data-name="Layer 1" xmlns="http://www.w3.org/2000/svg" version="1.1" viewBox="0 0 211.41 63.56">
  <defs>
    <style>
      .cls-1 {
        fill: #e0d2c8;
        stroke-width: 0px;
      }
    </style>
  </defs>
  <path class="cls-1" d="M204.31,26.81l-32.13-.77c-.43-.06-.87-.07-1.3-.03l-56.22-1.34c-.12,0-.25.08-.29.19-.11.29-.28.76-.41,1.06-.05.11-.03.27.04.37.29.4.99,1.36,1.27,1.83.06.1.11.21.11.23,0,.01,0,.02,0,.04,0,.11.01.22.01.32,0,.12.1.21.22.21l51.41-1.22c-.77.7-1.37,1.58-1.71,2.59-1.09,3.31,2.17,6.77,5.48,6.13,1.09-.21.63-1.88-.46-1.67-1.37.27-2.49-.65-3.13-1.78-.74-1.32-.2-2.82.77-3.84,1.98-2.08,5.1-1.63,7.02.21,2.05,1.97,2.16,4.84.63,7.13-1.78,2.65-5.26,3.46-8.25,3.53-5.36.14-10.38-2.05-15.18-4.37.6.05,1.47.03,2.06-.38,0,0-.44-.27-.47-.54,0,0,1.15-.1,1.69-.71,0,0-.22-.32-.39-.34,0,0,1.5-1.26,2.22-1.14,0,0-.68-1.24-2.93-.96,0,0,.22-.3.2-.61,0,0-1-.53-1.84-.07,0,0,.17-.4.18-.56,0,0-.53-.6-2.22.43,0,0,.22-.47.19-.74,0,0-1.44-.05-3.04,1.83-.42.46-.7.9-.88,1.27-5.28-2.36-10.68-3.95-16.57-3.59-10.79.67-20.27,7.5-24.67,17.21-4.4-9.71-13.89-16.54-24.67-17.21-5.89-.37-11.29,1.22-16.57,3.59-.18-.37-.46-.81-.88-1.27-1.61-1.88-3.05-1.83-3.05-1.83-.03.27.19.74.19.74-1.69-1.02-2.22-.43-2.22-.43,0,.17.17.56.17.56-.84-.47-1.84.07-1.84.07-.02.31.2.61.2.61-2.25-.28-2.93.96-2.93.96.72-.12,2.22,1.14,2.22,1.14-.18.02-.39.34-.39.34.54.61,1.69.71,1.69.71-.03.27-.47.54-.47.54.59.4,1.47.42,2.07.38-4.8,2.32-9.82,4.51-15.18,4.37-2.99-.08-6.47-.88-8.25-3.53-1.53-2.29-1.42-5.16.63-7.13,1.92-1.84,5.04-2.29,7.01-.21.97,1.02,1.51,2.52.77,3.84-.64,1.13-1.76,2.04-3.13,1.78-1.09-.21-1.56,1.46-.46,1.67,3.31.64,6.57-2.82,5.48-6.13-.33-1-.94-1.89-1.71-2.59l51.53,1.22c.12,0,.22-.09.22-.21,0-.11,0-.21.01-.32,0-.01,0-.03,0-.04,0-.02.04-.13.11-.23.28-.47.98-1.43,1.27-1.83.07-.1.08-.26.04-.37-.12-.3-.3-.76-.41-1.06-.04-.11-.17-.2-.29-.19l-56.31,1.34c-.45-.04-.9-.03-1.34.03l-32,.76c-.12,0-.12.01,0,.01l28.74.68c-1.98,1.53-3.23,3.96-2.95,6.55.36,3.28,3.03,5.75,6.03,6.85-.21.13-.4.22-.5.19,0,0,.2.36.91.4,0,0-1.68.59-2.17,1.66,0,0,.52,0,.68.21,0,0-.94.68-1.08,1.48,0,0,.35.16.51.08,0,0-.63,1.86-1.3,2.13,0,0,1.22.7,3-.7,0,0-.03.37.15.62,0,0,1.13-.06,1.61-.9,0,0,.06.43.14.57,0,0,.76.24,1.67-1.52,0,0,.05.51.22.73,0,0,1.25-.7,1.65-3.15.07-.34.1-.66.11-.94,11.48,0,21.19-9.9,32.72-10.51,4.61-.25,9.11.66,13.14,2.51-.07-.02-.13-.05-.2-.07-11.22-3.74-15.02,3.31-13.6,2.24,1.65-1.29,3.78,1.04,5.74-.18,1.96-1.22,4.65-2.75,10.08-.22-5.51-2.04-6.76,1.41-8.58,1.34,0,0,1.51,2.29,3.34,1.01,1.82-1.27,4.46-2,4.15-.54-.32,1.46-2.17.4-5.35,2.62-3.18,2.22-.67,4.97-6.41,5.24,7.45,3.28,9.92-2.69,11.67-4.82,1.74-2.13,3.92-.43.91,1.13-3.01,1.56-1.06,3.29-3.22,5.03,2.41.15,2.37-.37,5.11-3.42,1.46-1.62,4.59.36,5.94,1.19.86.52,1.7,1.08,2.5,1.68.52.39,1.03.8,1.42,1.32.41.55.61,1.19.84,1.82.04.4.41.64.8.67.02,0,.05,0,.07,0s.05,0,.07,0c.39-.03.76-.27.8-.67.23-.64.43-1.28.84-1.82.39-.52.9-.93,1.42-1.32.8-.6,1.64-1.15,2.5-1.68,1.35-.83,4.49-2.82,5.94-1.19,2.74,3.05,2.71,3.57,5.11,3.42-2.17-1.75-.22-3.48-3.22-5.03-3.01-1.56-.83-3.26.91-1.13,1.74,2.13,4.22,8.1,11.67,4.82-5.74-.27-3.23-3.02-6.41-5.24-3.18-2.22-5.04-1.16-5.36-2.62-.31-1.46,2.33-.73,4.15.54,1.82,1.28,3.34-1.01,3.34-1.01-1.83.07-3.07-3.39-8.58-1.34,5.44-2.53,8.13-1,10.08.22,1.96,1.22,4.09-1.11,5.74.18,1.41,1.07-2.39-5.98-13.61-2.24-.06.02-.13.05-.2.07,4.03-1.85,8.52-2.76,13.14-2.51,11.54.61,21.24,10.51,32.72,10.51,0,.28.04.6.11.94.4,2.45,1.65,3.15,1.65,3.15.17-.22.22-.73.22-.73.91,1.75,1.67,1.52,1.67,1.52.08-.14.14-.57.14-.57.48.83,1.61.9,1.61.9.17-.25.14-.62.14-.62,1.78,1.4,3,.7,3,.7-.67-.27-1.3-2.13-1.3-2.13.16.08.51-.08.51-.08-.14-.8-1.08-1.48-1.08-1.48.16-.22.68-.21.68-.21-.49-1.07-2.18-1.66-2.18-1.66.71-.03.91-.4.91-.4-.1.03-.28-.06-.5-.19,2.99-1.11,5.67-3.58,6.03-6.85.28-2.58-.96-5.01-2.94-6.54l28.85-.68c.12,0,.12-.01,0-.01ZM42.87,42.82c-.18,1.19-.79,1.53-.79,1.53-.08-.1-.1-.34-.1-.34-.43.82-.79.71-.79.71-.04-.07-.07-.27-.07-.27-.22.39-.76.42-.76.42-.08-.12-.07-.29-.07-.29-.84.66-1.41.33-1.41.33.32-.13.61-1,.61-1-.07.04-.24-.04-.24-.04.07-.38.51-.7.51-.7-.08-.1-.32-.1-.32-.1.23-.51,1.02-.78,1.02-.78-.34-.02-.43-.19-.43-.19.14.04.6-.35.8-.47.21-.12.66-.1.97-.06.04,0,.1,0,.16.01.37.05.73.09,1.09.12-.12.39-.2,1.11-.2,1.11ZM59.06,34.21s.21-.13.22-.25c0,0-.54-.05-.8-.33,0,0,.1-.15.18-.16,0,0-.71-.59-1.04-.54,0,0,.32-.58,1.38-.45,0,0-.1-.14-.09-.28,0,0,.47-.25.87-.03,0,0-.08-.19-.08-.26,0,0,.25-.28,1.04.2,0,0-.1-.22-.09-.35,0,0,.7-.02,1.47.9,0,0,.57.73.85.93,0,0-.86.48-1.11.68-.24.2-.62.45-.86.45-.24,0-.83-.08-.93.02,0,0,0-.19.27-.38,0,0-.82.18-1.28-.13ZM94.23,35.85c.15.1.3.2.44.3-.74-.17-1.43-.3-1.7-.34.43,0,.85.02,1.26.05ZM92.49,36.81c.71-.16,1.82-.24,2.82-.21.21.15.41.3.61.46-1.26-.24-2.61-.26-3.43-.23,0,0,0-.01,0-.01ZM90.98,39.08s-.06-.02-.03-.04c1.11-1.41,4.1-1.41,5.85-1.28.19.16.39.33.58.5-2.03-.52-4.61-.39-6.4.82ZM95.12,39.02s-.06-.08,0-.09c.81-.14,1.99-.11,3.03.05.27.26.53.52.79.79-.96-.4-2.22-.71-3.82-.75ZM95.99,40.24c1.02-.33,2.48-.02,3.91.59.3.35.6.72.89,1.09-1.92-1.4-4.09-1.77-4.8-1.67ZM117.19,35.85c.41-.02.83-.04,1.26-.05-.27.05-.96.18-1.7.34.15-.1.29-.2.44-.3ZM110.63,41.91c.29-.37.58-.73.89-1.09,1.43-.61,2.9-.92,3.91-.59-.71-.1-2.88.27-4.8,1.67ZM116.3,39.02c-1.6.04-2.86.35-3.82.75.26-.27.52-.53.79-.79,1.05-.16,2.22-.18,3.03-.05.05,0,.04.08,0,.09ZM120.48,39.05s0,.05-.04.04c-1.78-1.21-4.37-1.34-6.4-.82.19-.17.38-.34.58-.5,1.75-.13,4.75-.13,5.86,1.28ZM118.93,36.81s0,.01,0,.01c-.82-.03-2.17-.01-3.43.23.2-.15.41-.31.61-.46,1-.03,2.11.05,2.82.21ZM149.31,32.65c.77-.92,1.47-.9,1.47-.9.01.13-.09.35-.09.35.79-.48,1.04-.2,1.04-.2,0,.08-.08.26-.08.26.4-.22.87.03.87.03,0,.14-.09.28-.09.28,1.06-.13,1.38.45,1.38.45-.34-.06-1.04.54-1.04.54.08,0,.18.16.18.16-.25.29-.8.33-.8.33.01.13.22.25.22.25-.46.31-1.28.13-1.28.13.28.19.27.38.27.38-.1-.1-.69-.01-.93-.02-.24,0-.61-.26-.86-.45-.24-.2-1.11-.68-1.11-.68.29-.2.85-.93.85-.93ZM171.97,43.07s-.24,0-.32.1c0,0,.44.32.51.7,0,0-.17.08-.24.04,0,0,.3.88.61,1,0,0-.58.33-1.41-.33,0,0,.01.17-.07.29,0,0-.53-.03-.76-.42,0,0-.03.2-.07.27,0,0-.36.11-.79-.71,0,0-.03.24-.1.34,0,0-.61-.34-.78-1.53,0,0-.08-.72-.2-1.11.36-.03.73-.07,1.09-.12.06,0,.12,0,.16-.01.31-.04.76-.06.97.06.21.12.67.5.8.47,0,0-.09.17-.43.19,0,0,.79.28,1.02.78Z"/>
  <path class="cls-1" d="M109.3,35.29c-.61.03-1.13-.09-1.59-.27-.44-.13-.86-.32-1.25-.56-.05-.03-.14-.08-.19-.1-.09-.04-.18-.08-.27-.1-.06-.02-.12.01-.15.07-.02.06-.05.12-.07.18-.02.05-.06.05-.08,0-.02-.06-.05-.12-.07-.18-.02-.05-.09-.09-.14-.07-.09.03-.18.06-.27.1-.06.02-.14.07-.19.1-.39.24-.81.42-1.25.56-.46.18-.98.3-1.59.27-.08,0-.16-.01-.24-.02-.06,0-.07,0-.01.04.91.57,1.75.83,2.54.88.4.03.8,0,1.18-.08.06-.01.15-.01.21,0,.38.08.78.11,1.18.08.78-.05,1.62-.31,2.54-.88.05-.03.04-.05-.02-.04-.08,0-.16.02-.24.02Z"/>
  <path class="cls-1" d="M111.15,24.49c-.01-.17-.04-.34-.08-.53-.12-.53-.26-.88-.38-1.06-.06-.08-.1-.13-.14-.15-.05-.04-.15-.04-.2,0-.22.13-.67.68-.99,1.41-.37.82-.79,1.19-1.29,1.33-.49.14-.95.12-1.66.34-.18.06-.38.1-.59.14-.06,0-.16,0-.21,0-.21-.04-.4-.08-.59-.14-.71-.23-1.17-.2-1.66-.34-.5-.14-.91-.51-1.29-1.33-.32-.72-.76-1.28-.99-1.41-.05-.03-.15-.03-.2,0-.03.03-.08.07-.13.15-.13.18-.27.53-.38,1.06-.04.18-.07.36-.08.53-.07,1.14.51,2.04,1.53,2.62.05.03.14.06.2.07,1.29.19,2.4.54,3.59.65.06,0,.16,0,.22,0,1.19-.11,2.3-.46,3.59-.65.06,0,.15-.04.2-.07,1.02-.58,1.6-1.48,1.53-2.62Z"/>
  <path class="cls-1" d="M112.94,27.11c-.07.14-.14.27-.2.4-.4.77-.77,1.36-.98,1.66-.31.35-.38,2.05-1.9,2.69-1.25.5-2.7.81-3.43,1.79-.03.05-.02.11.04.13.92.37,1.71.97,2.8.89.41-.03.87-.14,1.41-.41.66-.34,1.23-.62,1.69-.95.47-.41.79-.92,1.07-2.06.15-.62.3-1.09.4-1.47.02-.06.03-.15.03-.21,0-.25,0-.51,0-.78,0-.15,0-.3-.02-.45,0-.01,0-.02,0-.03,0-.02-.02-.08-.05-.13-.14-.28-.37-.63-.72-1.08-.04-.05-.09-.04-.11.01Z"/>
  <path class="cls-1" d="M106.53,30.94c-.24.01-.47.01-.7,0-.06,0-.16,0-.22,0-.23.02-.46.02-.69,0-.14,0-.27-.03-.41-.04-.06-.01-.09,0-.07,0,.01,0,.03.01.04.02.39.21.79.39,1.14.57.05.03.14.03.19,0,.36-.18.76-.37,1.14-.57.01,0,.03-.01.04-.02.02-.01,0-.01-.07,0-.14.02-.27.04-.41.04Z"/>
  <path class="cls-1" d="M107.06,19.09c1.01.48,2.11,1.27,2.94,2.7.03.05.1.07.15.05.09-.03.18-.05.27-.06.7,0,1.03.63,1.28,1.25.14.37.24.77.31,1.14.01.06.04.06.06,0,.17-.4.25-.94.21-1.47-.04-.79-.34-1.53-.66-1.74-.82-.6-2.36-2.2-3.93-2.08-.2.01-.4.05-.61.12-.06.02-.06.06,0,.08Z"/>
  <path class="cls-1" d="M108.74,29.53c.09-.19.22-.52.37-.87.11-.26.22-.53.35-.79.03-.05,0-.09-.06-.08-1.21.19-2.31.53-3.56.65-.06,0-.16,0-.22,0-1.26-.11-2.36-.45-3.56-.65-.06,0-.09.03-.06.08.13.26.24.53.35.79.14.35.28.68.37.87.02.05.09.12.14.15.7.42,1.42.61,2.11.66.22.01.44.01.65,0,.06,0,.16,0,.22,0,.21.02.43.02.66,0,.68-.04,1.4-.24,2.11-.66.05-.03.12-.1.14-.15Z"/>
  <path class="cls-1" d="M107.52,24.76c.02.06.08.11.14.11.04,0,.07,0,.11,0,.39-.03.56-.16.67-.35.08-.13.13-.34.12-.56-.05-.58-.49-1.37-2.37-1.53-.16-.01-.31-.01-.45-.01-.14,0-.29,0-.45.01-1.88.17-2.32.95-2.37,1.53-.01.22.04.43.12.56.11.19.28.32.67.35.03,0,.07,0,.1,0,.06,0,.12-.05.14-.11.13-.36.27-.72.48-1.02.16-.24.38-.45.66-.58.05-.03.14-.07.19-.1.11-.05.23-.09.36-.12.06-.01.16-.01.21,0,.13.03.25.07.36.12.05.02.14.07.19.09.27.13.49.34.65.58.2.3.35.65.48,1.02Z"/>
  <path class="cls-1" d="M105.84,23.6c-.06-.01-.16-.01-.21,0-.32.04-.51.2-.71.48-.15.22-.27.5-.39.83-.02.05.01.11.07.12.33.05.68.11,1.02.17.06,0,.15,0,.21,0,.34-.06.69-.12,1.03-.17.06,0,.09-.06.07-.12-.11-.32-.24-.61-.39-.83-.2-.28-.4-.44-.7-.48Z"/>
  <path class="cls-1" d="M102.1,22.25s-.03.13,0,.17c.13.17.19.37.29.57.02.04.04.08.05.12.02.05.06.06.09,0,.31-.53.92-1,1.93-1.21.06-.01.15-.04.21-.07.3-.13.62-.23.95-.31.06-.02.15-.02.21,0,.33.08.65.18.95.31.06.02.15.05.21.07,1.01.21,1.62.68,1.93,1.21.03.05.07.05.09,0,.02-.04.04-.08.05-.12.09-.2.16-.4.28-.57.04-.05.04-.12.01-.17-1.29-1.93-2.51-2.72-3.63-2.77-1.12.05-2.34.84-3.63,2.77Z"/>
  <path class="cls-1" d="M98.71,25.89c.41.83.97,1.74,1.24,2.54.02.06.06.14.09.19.05.08.1.15.14.2.34.54.45,1.37.94,1.97.04.05.11.11.16.14.51.35,1.2.6,2.14.85,1.13.28,1.76.65,2.16,1.19.03.04.05.07.08.11.03.05.09.05.12,0,.03-.04.05-.07.08-.11.41-.53,1.04-.91,2.16-1.19.95-.25,1.63-.5,2.14-.85.05-.04.12-.1.16-.14.49-.59.6-1.43.94-1.97.04-.05.08-.12.14-.2.03-.05.07-.14.09-.19.27-.81.83-1.71,1.24-2.54.11-.23.22-.46.3-.68.13-.36.21-.69.18-.98-.01-.13-.04-.25-.08-.36-.02-.05-.08-.13-.12-.17-.03-.02-.05-.04-.08-.07-.05-.03-.1-.01-.11.05-.01.1-.03.2-.06.29-.01.06-.03.15-.04.21-.17,1.11-1.15,2.01-1.97,3.04-1.18,1.36-1,3.64-4.01,4.52-.03,0-.06.02-.09.03-.05.01-.13.05-.18.07-.24.12-.46.23-.65.33-.05.03-.14.03-.19,0-.19-.1-.42-.21-.65-.33-.05-.03-.13-.06-.18-.07-.03-.01-.06-.02-.09-.03-3-.88-2.83-3.16-4.01-4.52-.83-1.02-1.8-1.93-1.97-3.04,0-.06-.03-.15-.04-.21-.02-.1-.04-.19-.06-.29,0-.06-.06-.08-.11-.05-.03.02-.06.04-.08.07-.05.04-.1.12-.12.17-.05.11-.07.23-.08.36-.03.29.05.62.18.98.08.22.18.44.3.68Z"/>
  <path class="cls-1" d="M97.63,29.79c.1.38.25.85.4,1.47.28,1.15.6,1.65,1.07,2.06.46.33,1.02.62,1.68.95.54.27,1,.38,1.41.41,1.09.08,1.88-.52,2.8-.89.06-.02.07-.08.04-.13-.73-.98-2.18-1.29-3.43-1.79-1.53-.64-1.59-2.34-1.91-2.69-.21-.3-.58-.88-.98-1.66-.07-.13-.14-.27-.2-.4-.03-.05-.08-.06-.11-.01-.35.45-.58.79-.72,1.08-.03.05-.05.11-.05.13,0,.01,0,.02,0,.03,0,.16-.01.31-.02.45,0,.28-.01.54,0,.78,0,.06.01.16.03.21Z"/>
  <path class="cls-1" d="M99.45,24.18c.07-.37.17-.77.31-1.14.24-.62.57-1.26,1.27-1.25.09,0,.18.03.27.06.06.02.12,0,.15-.05.83-1.43,1.93-2.22,2.94-2.7.05-.02.05-.06,0-.08-.21-.07-.41-.11-.61-.12-1.58-.12-3.11,1.48-3.93,2.08-.32.21-.63.95-.66,1.74-.04.54.04,1.08.21,1.47.02.06.05.05.06,0Z"/>
  <path class="cls-1" d="M43.21,31.3c0-1.49-1.21-2.71-2.7-2.71s-2.7,1.21-2.7,2.71,1.21,2.7,2.7,2.7,2.7-1.21,2.7-2.7Z"/>
  <path class="cls-1" d="M171.05,28.59c-1.49,0-2.71,1.21-2.71,2.71s1.21,2.7,2.71,2.7,2.7-1.21,2.7-2.7-1.21-2.71-2.7-2.71Z"/>
</svg>