<?xml version="1.0" encoding="UTF-8" standalone="no"?>
<svg
   id="Layer_1"
   data-name="Layer 1"
   version="1.1"
   viewBox="0 0 211.4 63.6"
   sodipodi:docname="WhiteRoseDivider2.svg"
   inkscape:version="1.3 (0e150ed6c4, 2023-07-21)"
   xmlns:inkscape="http://www.inkscape.org/namespaces/inkscape"
   xmlns:sodipodi="http://sodipodi.sourceforge.net/DTD/sodipodi-0.dtd"
   xmlns="http://www.w3.org/2000/svg"
   xmlns:svg="http://www.w3.org/2000/svg">
  <sodipodi:namedview
     id="namedview15"
     pagecolor="#505050"
     bordercolor="#ffffff"
     borderopacity="1"
     inkscape:showpageshadow="0"
     inkscape:pageopacity="0"
     inkscape:pagecheckerboard="1"
     inkscape:deskcolor="#505050"
     inkscape:zoom="8.3287414"
     inkscape:cx="88.368694"
     inkscape:cy="14.407939"
     inkscape:window-width="3440"
     inkscape:window-height="1397"
     inkscape:window-x="-9"
     inkscape:window-y="-9"
     inkscape:window-maximized="1"
     inkscape:current-layer="Layer_1" />
  <defs
     id="defs1">
    <style
       id="style1">&#10;      .cls-1 {&#10;        fill: #fef8e5;&#10;        stroke-width: 0px;&#10;      }&#10;    </style>
  </defs>
  <path
     class="cls-1"
     d="m 203.7906,9.4804824 -32.1,-0.8 c -0.4,0 -0.9,0 -1.3,0 l -56.2,-1.3 c -0.1,0 -0.2,0 -0.3,0.2 -0.1,0.3 -0.3,0.8 -0.4,1.1 0,0.1 0,0.3 0,0.4 0.3,0.4 1,1.3999996 1.3,1.7999996 0,0.1 0.1,0.2 0.1,0.2 v 0 c 0,0.2 0,0.3 0,0.4 0,0.1 0,0.2 0.2,0.2 l 51.4,-1.2 c -0.8,0.7 -1.4,1.6 -1.7,2.6 -1.1,3.3 2.2,6.8 5.5,6.1 1.1,-0.2 0.6,-1.9 -0.5,-1.7 -1.4,0.3 -2.5,-0.7 -3.1,-1.8 -0.7,-1.3 -0.2,-2.8 0.8,-3.8 2,-2.0999996 5.1,-1.6 7,0.2 2.1,2 2.2,4.8 0.6,7.1 -1.8,2.7 -5.3,3.5 -8.2,3.5 -5.4,0.1 -10.4,-2 -15.2,-4.4 0.6,0 1.5,0 2.1,-0.4 0,0 -0.4,-0.3 -0.5,-0.5 0,0 1.1,0 1.7,-0.7 0,0 -0.2,-0.3 -0.4,-0.3 0,0 1.5,-1.3 2.2,-1.1 0,0 -0.7,-1.2 -2.9,-1 0,0 0.2,-0.3 0.2,-0.6 0,0 -1,-0.5 -1.8,0 0,0 0.2,-0.4 0.2,-0.6 0,0 -0.5,-0.6 -2.2,0.4 0,0 0.2,-0.5 0.2,-0.7 0,0 -1.4,0 -3,1.8 -0.4,0.5 -0.7,0.9 -0.9,1.3 -5.3,-2.4 -10.7,-4 -16.6,-3.6 -10.8,0.7 -20.3,7.5 -24.7,17.2 -4.4,-9.7 -13.899998,-16.5 -24.699998,-17.2 -5.9,-0.4 -11.3,1.2 -16.6,3.6 -0.2,-0.4 -0.5,-0.8 -0.9,-1.3 -1.6,-1.9 -3,-1.8 -3,-1.8 0,0.3 0.2,0.7 0.2,0.7 -1.7,-1 -2.2,-0.4 -2.2,-0.4 0,0.2 0.2,0.6 0.2,0.6 -0.8,-0.5 -1.8,0 -1.8,0 0,0.3 0.2,0.6 0.2,0.6 -2.2,-0.3 -2.9,1 -2.9,1 0.7,-0.1 2.2,1.1 2.2,1.1 -0.2,0 -0.4,0.3 -0.4,0.3 0.5,0.6 1.7,0.7 1.7,0.7 0,0.3 -0.5,0.5 -0.5,0.5 0.6,0.4 1.5,0.4 2.1,0.4 -4.8,2.3 -9.8,4.5 -15.2,4.4 -3,0 -6.5,-0.9 -8.2,-3.5 -1.5,-2.3 -1.4,-5.2 0.6,-7.1 1.9,-1.8 5,-2.2999996 7,-0.2 1,1 1.5,2.5 0.8,3.8 -0.6,1.1 -1.8,2 -3.1,1.8 -1.1,-0.2 -1.6,1.5 -0.5,1.7 3.3,0.6 6.6,-2.8 5.5,-6.1 -0.3,-1 -0.9,-1.9 -1.7,-2.6 l 51.5,1.2 c 0.1,0 0.2,0 0.2,-0.2 0,-0.2 0,-0.2 0,-0.3 v 0 c 0,0 0,-0.2 0.1,-0.3 0.3,-0.5 1,-1.3999996 1.3,-1.7999996 0,-0.1 0,-0.3 0,-0.4 -0.1,-0.3 -0.3,-0.8 -0.4,-1.1 0,-0.1 -0.2,-0.2 -0.3,-0.2 l -56.3,1.3 c -0.5,0 -0.9,0 -1.3,0 l -31.9999996,0.8 c -0.1,0 -0.1,0 0,0 L 35.590602,10.180482 c -2,1.5 -3.2,4 -3,6.5 0.4,3.3 3,5.8 6,6.8 -0.2,0.1 -0.4,0.2 -0.5,0.2 0,0 0.2,0.4 0.9,0.4 0,0 -1.7,0.6 -2.2,1.7 0,0 0.5,0 0.7,0.2 0,0 -0.9,0.7 -1.1,1.5 0,0 0.3,0.2 0.5,0 0,0 -0.6,1.9 -1.3,2.1 0,0 1.2,0.7 3,-0.7 0,0 0,0.4 0.2,0.6 0,0 1.1,0 1.6,-0.9 0,0 0,0.4 0.1,0.6 0,0 0.8,0.2 1.7,-1.5 0,0 0,0.5 0.2,0.7 0,0 1.2,-0.7 1.7,-3.2 0,-0.3 0,-0.7 0.1,-0.9 11.5,0 21.2,-9.9 32.7,-10.5 4.6,-0.2 9.1,0.7 13.1,2.5 0,0 -0.1,0 -0.2,0 -11.2,-3.7 -15,3.3 -13.6,2.2 1.7,-1.3 3.8,1 5.7,-0.2 1.9,-1.2 4.7,-2.8 10.1,-0.2 -5.5,-2 -6.8,1.4 -8.6,1.3 0,0 1.5,2.3 3.3,1 1.8,-1.3 4.5,-2 4.2,-0.5 -0.3,1.5 -2.2,0.4 -5.3,2.6 -3.2,2.2 -0.7,5 -6.4,5.2 7.4,3.3 9.9,-2.7 11.7,-4.8 1.7,-2.1 3.9,-0.4 0.9,1.1 -3,1.6 -1.1,3.3 -3.2,5 2.4,0.2 2.4,-0.4 5.1,-3.4 1.5,-1.6 4.6,0.4 5.9,1.2 0.899998,0.5 1.699998,1.1 2.499998,1.7 0.5,0.4 1,0.8 1.4,1.3 0.4,0.5 0.6,1.2 0.8,1.8 0,0.4 0.4,0.6 0.8,0.7 h 0.1 c 0.4,0 0.8,-0.3 0.8,-0.7 0.2,-0.6 0.4,-1.3 0.8,-1.8 0.4,-0.5 0.9,-0.9 1.4,-1.3 0.8,-0.6 1.6,-1.2 2.5,-1.7 1.3,-0.8 4.5,-2.8 5.9,-1.2 2.7,3 2.7,3.6 5.1,3.4 -2.2,-1.8 -0.2,-3.5 -3.2,-5 -3,-1.6 -0.8,-3.3 0.9,-1.1 1.7,2.1 4.2,8.1 11.7,4.8 -5.7,-0.3 -3.2,-3 -6.4,-5.2 -3.2,-2.2 -5,-1.2 -5.4,-2.6 -0.3,-1.5 2.3,-0.7 4.2,0.5 1.8,1.3 3.3,-1 3.3,-1 -1.8,0 -3.1,-3.4 -8.6,-1.3 5.4,-2.5 8.1,-1 10.1,0.2 2,1.2 4.1,-1.1 5.7,0.2 1.4,1.1 -2.4,-6 -13.6,-2.2 0,0 -0.1,0 -0.2,0 4,-1.9 8.5,-2.8 13.1,-2.5 11.5,0.6 21.2,10.5 32.7,10.5 0,0.3 0,0.6 0.1,0.9 0.4,2.5 1.6,3.2 1.6,3.2 0.2,-0.2 0.2,-0.7 0.2,-0.7 0.9,1.8 1.7,1.5 1.7,1.5 0,-0.1 0.1,-0.6 0.1,-0.6 0.5,0.8 1.6,0.9 1.6,0.9 0.2,-0.2 0.1,-0.6 0.1,-0.6 1.8,1.4 3,0.7 3,0.7 -0.7,-0.3 -1.3,-2.1 -1.3,-2.1 0.2,0 0.5,0 0.5,0 -0.1,-0.8 -1.1,-1.5 -1.1,-1.5 0.2,-0.2 0.7,-0.2 0.7,-0.2 -0.5,-1.1 -2.2,-1.7 -2.2,-1.7 0.7,0 0.9,-0.4 0.9,-0.4 -0.1,0 -0.3,0 -0.5,-0.2 3,-1.1 5.7,-3.6 6,-6.8 0.3,-2.6 -1,-5 -2.9,-6.5 l 28.9,-0.6999996 c 0.1,0 0.1,0 0,0 v 0 z M 42.390602,25.480482 c -0.2,1.2 -0.8,1.5 -0.8,1.5 0,0 0,-0.3 0,-0.3 -0.4,0.8 -0.8,0.7 -0.8,0.7 0,0 0,-0.3 0,-0.3 -0.2,0.4 -0.8,0.4 -0.8,0.4 0,-0.1 0,-0.3 0,-0.3 -0.8,0.7 -1.4,0.3 -1.4,0.3 0.3,-0.1 0.6,-1 0.6,-1 0,0 -0.2,0 -0.2,0 0,-0.4 0.5,-0.7 0.5,-0.7 0,0 -0.3,0 -0.3,0 0.2,-0.5 1,-0.8 1,-0.8 -0.3,0 -0.4,-0.2 -0.4,-0.2 0.1,0 0.6,-0.3 0.8,-0.5 0.2,-0.1 0.7,0 1,0 0,0 0,0 0.2,0 0.4,0 0.7,0 1.1,0.1 -0.1,0.4 -0.2,1.1 -0.2,1.1 v 0 z m 16.2,-8.6 c 0,0 0.2,-0.1 0.2,-0.2 0,0 -0.5,0 -0.8,-0.3 0,0 0,-0.2 0.2,-0.2 0,0 -0.7,-0.6 -1,-0.5 0,0 0.3,-0.6 1.4,-0.5 0,0 0,-0.1 0,-0.3 0,0 0.5,-0.2 0.9,0 0,0 0,-0.2 0,-0.3 0,0 0.2,-0.3 1,0.2 0,0 0,-0.2 0,-0.4 0,0 0.7,0 1.5,0.9 0,0 0.6,0.7 0.8,0.9 0,0 -0.9,0.5 -1.1,0.7 -0.2,0.2 -0.6,0.5 -0.9,0.5 -0.3,0 -0.8,0 -0.9,0 0,0 0,-0.2 0.3,-0.4 0,0 -0.8,0.2 -1.3,-0.1 v 0 z m 35.1,1.6 c 0.2,0 0.3,0.2 0.4,0.3 -0.7,-0.2 -1.4,-0.3 -1.7,-0.3 0.4,0 0.8,0 1.3,0 z m -1.7,1 c 0.7,-0.2 1.8,-0.2 2.8,-0.2 0.2,0.2 0.4,0.3 0.6,0.5 -1.3,-0.2 -2.6,-0.3 -3.4,-0.2 v 0 z m -1.5,2.3 c 0,0 0,0 0,0 1.1,-1.4 4.1,-1.4 5.8,-1.3 0.2,0.2 0.4,0.3 0.6,0.5 -2,-0.5 -4.6,-0.4 -6.4,0.8 z m 4.1,-0.1 c 0,0 0,0 0,0 0.8,-0.1 2,-0.1 3,0 0.3,0.3 0.5,0.5 0.8,0.8 -1,-0.4 -2.2,-0.7 -3.8,-0.8 z m 0.9,1.2 c 1,-0.3 2.5,0 3.9,0.6 0.3,0.3 0.6,0.7 0.899998,1.1 -1.899998,-1.4 -4.099998,-1.8 -4.799998,-1.7 z m 21.199998,-4.4 c 0.4,0 0.8,0 1.3,0 -0.3,0 -1,0.2 -1.7,0.3 0.2,0 0.3,-0.2 0.4,-0.3 z m -6.6,6.1 c 0.3,-0.4 0.6,-0.7 0.9,-1.1 1.4,-0.6 2.9,-0.9 3.9,-0.6 -0.7,0 -2.9,0.3 -4.8,1.7 z m 5.7,-2.9 c -1.6,0 -2.9,0.3 -3.8,0.8 0.3,-0.3 0.5,-0.5 0.8,-0.8 1.1,-0.2 2.2,-0.2 3,0 z m 4.2,0 c 0,0 0,0 0,0 -1.8,-1.2 -4.4,-1.3 -6.4,-0.8 0.2,-0.2 0.4,-0.3 0.6,-0.5 1.8,-0.1 4.8,-0.1 5.9,1.3 z m -1.6,-2.2 v 0 c -0.8,0 -2.2,0 -3.4,0.2 0.2,-0.2 0.4,-0.3 0.6,-0.5 1,0 2.1,0 2.8,0.2 v 0 z m 30.4,-4.1 c 0.8,-0.9 1.5,-0.9 1.5,-0.9 0,0.1 0,0.4 0,0.4 0.8,-0.5 1,-0.2 1,-0.2 0,0 0,0.3 0,0.3 0.4,-0.2 0.9,0 0.9,0 0,0.1 0,0.3 0,0.3 1.1,-0.1 1.4,0.5 1.4,0.5 -0.3,0 -1,0.5 -1,0.5 0,0 0.2,0.2 0.2,0.2 -0.2,0.3 -0.8,0.3 -0.8,0.3 0,0.1 0.2,0.2 0.2,0.2 -0.5,0.3 -1.3,0.1 -1.3,0.1 0.3,0.2 0.3,0.4 0.3,0.4 -0.1,0 -0.7,0 -0.9,0 -0.2,0 -0.6,-0.3 -0.9,-0.5 -0.2,-0.2 -1.1,-0.7 -1.1,-0.7 0.3,-0.2 0.9,-0.9 0.9,-0.9 v 0 z m 22.7,10.4 c 0,0 -0.2,0 -0.3,0 0,0 0.4,0.3 0.5,0.7 0,0 -0.2,0 -0.2,0 0,0 0.3,0.9 0.6,1 0,0 -0.6,0.3 -1.4,-0.3 0,0 0,0.2 0,0.3 0,0 -0.5,0 -0.8,-0.4 0,0 0,0.2 0,0.3 0,0 -0.4,0.1 -0.8,-0.7 0,0 0,0.2 -0.1,0.3 0,0 -0.6,-0.3 -0.8,-1.5 0,0 0,-0.7 -0.2,-1.1 0.4,0 0.7,0 1.1,-0.1 0,0 0.1,0 0.2,0 0.3,0 0.8,0 1,0 0.2,0.1 0.7,0.5 0.8,0.5 0,0 0,0.2 -0.4,0.2 0,0 0.8,0.3 1,0.8 v 0 z"
     id="path1" />
  <path
     class="cls-1"
     d="m 108.7906,17.980482 c -0.6,0 -1.1,0 -1.6,-0.3 -0.4,-0.1 -0.9,-0.3 -1.2,-0.6 0,0 -0.1,0 -0.2,0 0,0 -0.2,0 -0.3,0 0,0 -0.1,0 -0.2,0 0,0 0,0.1 0,0.2 0,0 0,0 0,0 0,0 0,-0.1 0,-0.2 0,0 0,0 -0.1,0 0,0 -0.2,0 -0.3,0 0,0 -0.1,0 -0.2,0 -0.4,0.2 -0.8,0.4 -1.2,0.6 -0.5,0.2 -1,0.3 -1.6,0.3 0,0 -0.2,0 -0.2,0 0,0 0,0 0,0 0.9,0.6 1.8,0.8 2.5,0.9 0.4,0 0.8,0 1.2,0 0,0 0.2,0 0.2,0 0.4,0 0.8,0.1 1.2,0 0.8,0 1.6,-0.3 2.5,-0.9 0,0 0,0 0,0 0,0 -0.2,0 -0.2,0 v 0 z"
     id="path2" />
  <path
     class="cls-1"
     d="m 110.6906,7.1804824 c 0,-0.2 0,-0.3 0,-0.5 -0.1,-0.5 -0.3,-0.9 -0.4,-1.1 0,0 0,-0.1 -0.1,-0.1 0,0 -0.2,0 -0.2,0 -0.2,0.1 -0.7,0.7 -1,1.4 -0.4,0.8 -0.8,1.2 -1.3,1.3 -0.5,0.1 -0.9,0.1 -1.7,0.3 -0.2,0 -0.4,0.1 -0.6,0.1 h -0.2 c -0.2,0 -0.4,0 -0.6,-0.1 -0.7,-0.2 -1.2,-0.2 -1.7,-0.3 -0.5,-0.1 -0.9,-0.5 -1.3,-1.3 -0.3,-0.7 -0.8,-1.3 -1,-1.4 0,0 -0.2,0 -0.2,0 0,0 0,0 -0.1,0.1 -0.1,0.2 -0.299998,0.5 -0.399998,1.1 0,0.2 0,0.4 0,0.5 0,1.1 0.499998,2 1.499998,2.6 0,0 0.1,0 0.2,0 1.3,0.2 2.4,0.4999996 3.6,0.5999996 h 0.2 c 1.2,-0.1 2.3,-0.4999996 3.6,-0.5999996 0,0 0.2,0 0.2,0 1,-0.6 1.6,-1.5 1.5,-2.6 z"
     id="path3" />
  <path
     class="cls-1"
     d="m 112.3906,9.7804824 c 0,0.1 -0.1,0.2999996 -0.2,0.3999996 -0.4,0.8 -0.8,1.4 -1,1.7 -0.3,0.4 -0.4,2 -1.9,2.7 -1.2,0.5 -2.7,0.8 -3.4,1.8 0,0 0,0.1 0,0.1 0.9,0.4 1.7,1 2.8,0.9 0.4,0 0.9,-0.1 1.4,-0.4 0.7,-0.3 1.2,-0.6 1.7,-1 0.5,-0.4 0.8,-0.9 1.1,-2.1 0.2,-0.6 0.3,-1.1 0.4,-1.5 0,0 0,-0.1 0,-0.2 v -0.8 c 0,-0.1 0,-0.3 0,-0.5 v 0 c 0,0 0,-0.1 0,-0.2 -0.1,-0.3 -0.4,-0.6 -0.7,-1.0999996 0,0 0,0 -0.1,0 v 0 z"
     id="path4" />
  <path
     class="cls-1"
     d="m 105.9906,13.580482 c -0.2,0 -0.5,0 -0.7,0 h -0.2 c -0.2,0 -0.5,0 -0.7,0 -0.1,0 -0.3,0 -0.4,0 0,0 0,0 0,0 0,0 0,0 0,0 0.4,0.2 0.8,0.4 1.1,0.6 0,0 0.1,0 0.2,0 0.4,-0.2 0.8,-0.4 1.1,-0.6 0,0 0,0 0,0 0,0 0,0 0,0 -0.1,0 -0.3,0 -0.4,0 z"
     id="path5" />
  <path
     class="cls-1"
     d="m 106.5906,1.7804824 c 1,0.5 2.1,1.3 2.9,2.7 0,0 0,0 0.2,0 0,0 0.2,0 0.3,0 0.7,0 1,0.6 1.3,1.2 0.1,0.4 0.2,0.8 0.3,1.1 0,0 0,0 0,0 0.2,-0.4 0.2,-0.9 0.2,-1.5 0,-0.8 -0.3,-1.5 -0.7,-1.7 -0.8,-0.6 -2.4,-2.2 -3.9,-2.1 -0.2,0 -0.4,0 -0.6,0.1 0,0 0,0 0,0 v 0 z"
     id="path6" />
  <path
     class="cls-1"
     d="m 108.1906,12.180482 c 0,-0.2 0.2,-0.5 0.4,-0.9 0.1,-0.3 0.2,-0.5 0.3,-0.8 0,0 0,0 0,0 -1.2,0.2 -2.3,0.5 -3.6,0.6 h -0.2 c -1.3,-0.1 -2.4,-0.5 -3.6,-0.6 0,0 0,0 0,0 0.1,0.3 0.2,0.5 0.3,0.8 0.1,0.4 0.3,0.7 0.4,0.9 0,0 0,0.1 0.1,0.1 0.7,0.4 1.4,0.6 2.1,0.7 0.2,0 0.4,0 0.7,0 h 0.2 c 0.2,0 0.4,0 0.7,0 0.7,0 1.4,-0.2 2.1,-0.7 0,0 0.1,-0.1 0.1,-0.1 z"
     id="path7" />
  <path
     class="cls-1"
     d="m 106.9906,7.4804824 c 0,0 0,0.1 0.1,0.1 h 0.1 c 0.4,0 0.6,-0.2 0.7,-0.4 0,-0.1 0.1,-0.3 0.1,-0.6 0,-0.6 -0.5,-1.4 -2.4,-1.5 -0.2,0 -0.3,0 -0.4,0 -0.1,0 -0.3,0 -0.4,0 -1.9,0.2 -2.3,1 -2.4,1.5 0,0.2 0,0.4 0.1,0.6 0.1,0.2 0.3,0.3 0.7,0.4 v 0 c 0,0 0.1,0 0.1,-0.1 0.1,-0.4 0.3,-0.7 0.5,-1 0.2,-0.2 0.4,-0.5 0.7,-0.6 0,0 0.1,0 0.2,-0.1 0.1,0 0.2,0 0.4,-0.1 0,0 0.2,0 0.2,0 0.1,0 0.2,0 0.4,0.1 0,0 0.1,0 0.2,0 0.3,0.1 0.5,0.3 0.7,0.6 0.2,0.3 0.3,0.6 0.5,1 v 0 z"
     id="path8" />
  <path
     class="cls-1"
     d="m 105.2906,6.2804824 c 0,0 -0.2,0 -0.2,0 -0.3,0 -0.5,0.2 -0.7,0.5 -0.2,0.2 -0.3,0.5 -0.4,0.8 0,0 0,0.1 0,0.1 0.3,0 0.7,0.1 1,0.2 h 0.2 c 0.3,0 0.7,-0.1 1,-0.2 0,0 0,0 0,-0.1 -0.1,-0.3 -0.2,-0.6 -0.4,-0.8 -0.2,-0.3 -0.4,-0.4 -0.7,-0.5 z"
     id="path9" />
  <path
     class="cls-1"
     d="m 101.5906,4.8804824 c 0,0 0,0.1 0,0.2 0.1,0.2 0.2,0.4 0.3,0.6 0,0 0,0 0,0.1 0,0 0,0 0,0 0.3,-0.5 0.9,-1 1.9,-1.2 0,0 0.2,0 0.2,0 0.3,-0.1 0.6,-0.2 0.9,-0.3 0,0 0.2,0 0.2,0 0.3,0 0.7,0.2 0.9,0.3 0,0 0.2,0 0.2,0 1,0.2 1.6,0.7 1.9,1.2 0,0 0,0 0,0 0,0 0,0 0,-0.1 0,-0.2 0.2,-0.4 0.3,-0.6 0,0 0,-0.1 0,-0.2 -1.3,-1.9 -2.5,-2.7 -3.6,-2.8 -1.1,0 -2.3,0.8 -3.6,2.8 v 0 z"
     id="path10" />
  <path
     class="cls-1"
     d="m 98.190602,8.5804824 c 0.4,0.8 1,1.6999996 1.2,2.4999996 0,0 0,0.1 0,0.2 0,0 0,0.1 0.1,0.2 0.3,0.5 0.4,1.4 0.899998,2 0,0 0.1,0.1 0.2,0.1 0.5,0.4 1.2,0.6 2.1,0.9 1.1,0.3 1.8,0.6 2.2,1.2 0,0 0,0 0,0.1 0,0 0,0 0.1,0 0,0 0,0 0,-0.1 0.4,-0.5 1,-0.9 2.2,-1.2 0.9,-0.2 1.6,-0.5 2.1,-0.9 0,0 0.1,-0.1 0.2,-0.1 0.5,-0.6 0.6,-1.4 0.9,-2 0,0 0,-0.1 0.1,-0.2 0,0 0,-0.1 0,-0.2 0.3,-0.8 0.8,-1.6999996 1.2,-2.4999996 0.1,-0.2 0.2,-0.5 0.3,-0.7 0.1,-0.4 0.2,-0.7 0.2,-1 0,-0.1 0,-0.2 0,-0.4 0,0 0,-0.1 -0.1,-0.2 0,0 0,0 0,0 0,0 0,0 -0.1,0 0,0.1 0,0.2 0,0.3 0,0 0,0.1 0,0.2 -0.2,1.1 -1.2,2 -2,3 -1.2,1.3999996 -1,3.5999996 -4,4.4999996 0,0 0,0 0,0 0,0 -0.1,0 -0.2,0 -0.2,0.1 -0.5,0.2 -0.7,0.3 0,0 -0.1,0 -0.2,0 -0.2,0 -0.4,-0.2 -0.7,-0.3 0,0 -0.1,0 -0.2,0 v 0 c -3,-0.9 -2.8,-3.2 -3.999998,-4.5999996 -0.8,-1 -1.8,-1.9 -2,-3 0,0 0,-0.1 0,-0.2 0,-0.1 0,-0.2 0,-0.3 0,0 0,0 -0.1,0 0,0 0,0 0,0 0,0 0,0.1 -0.1,0.2 0,0.1 0,0.2 0,0.4 0,0.3 0,0.6 0.2,1 0,0.2 0.2,0.4 0.3,0.7 v 0 z"
     id="path11" />
  <path
     class="cls-1"
     d="m 97.090602,12.480482 c 0,0.4 0.2,0.9 0.4,1.5 0.3,1.1 0.6,1.6 1.1,2.1 0.5,0.3 1,0.6 1.699998,1 0.7,0.4 1,0.4 1.4,0.4 1.1,0 1.9,-0.5 2.8,-0.9 0,0 0,0 0,-0.1 -0.7,-1 -2.2,-1.3 -3.4,-1.8 -1.499998,-0.6 -1.599998,-2.3 -1.899998,-2.7 -0.2,-0.3 -0.6,-0.9 -1,-1.7 0,-0.1 -0.1,-0.2999996 -0.2,-0.3999996 0,0 0,0 -0.1,0 -0.3,0.4999996 -0.6,0.7999996 -0.7,1.0999996 0,0 0,0.1 0,0.1 v 0 c 0,0.2 0,0.3 0,0.5 0,0.3 0,0.5 0,0.8 0,0 0,0.2 0,0.2 v 0 z"
     id="path12" />
  <path
     class="cls-1"
     d="m 98.890602,6.8804824 c 0,-0.4 0.2,-0.8 0.3,-1.1 0.2,-0.6 0.6,-1.3 1.299998,-1.2 0,0 0.2,0 0.3,0 0,0 0.1,0 0.2,0 0.8,-1.4 1.9,-2.2 2.9,-2.7 0,0 0,0 0,0 -0.2,0 -0.4,-0.1 -0.6,-0.1 -1.6,-0.1 -3.1,1.5 -3.899998,2.1 -0.3,0.2 -0.6,1 -0.7,1.7 0,0.5 0,1.1 0.2,1.5 0,0 0,0 0,0 v 0 z"
     id="path13" />
  <path
     class="cls-1"
     d="m 42.690602,13.980482 c 0,-1.5 -1.2,-2.7 -2.7,-2.7 -1.5,0 -2.7,1.2 -2.7,2.7 0,1.5 1.2,2.7 2.7,2.7 1.5,0 2.7,-1.2 2.7,-2.7 z"
     id="path14" />
  <path
     class="cls-1"
     d="m 170.5906,11.280482 c -1.5,0 -2.7,1.2 -2.7,2.7 0,1.5 1.2,2.7 2.7,2.7 1.5,0 2.7,-1.2 2.7,-2.7 0,-1.5 -1.2,-2.7 -2.7,-2.7 z"
     id="path15" />
</svg>
