<?xml version="1.0" encoding="UTF-8"?>
<svg id="Layer_1" data-name="Layer 1" xmlns="http://www.w3.org/2000/svg" version="1.1" viewBox="0 0 459.1 50.9">
  <defs>
    <style>
      .cls-1 {
        fill: none;
      }

      .cls-1, .cls-2 {
        stroke-width: 0px;
      }

      .cls-2 {
        fill: #ff2600;
      }
    </style>
  </defs>
  <path class="cls-2" d="M441.8,36c-4.9,0-8.6-3.9-8.6-8.6s3.8-8.7,8.6-8.7,8.5,3.9,8.5,8.7-3.7,8.6-8.5,8.6ZM441.8,19.8c-4.1,0-7.2,3.6-7.2,7.6s3.2,7.6,7.2,7.6,7.1-3.5,7.1-7.6-3.1-7.6-7.1-7.6ZM437.7,22.6h4.4c1.5,0,2.9.7,2.9,2.3s-.9,2.3-2,2.6l1.4,2c.7.9,1.4,1.8,1.9,2.1v.2h-1.6c-.8,0-1.4-1.7-3-4.1h-1.2v2.7c0,.9,0,.9,1.2,1v.4h-4.1v-.4c1.2-.1,1.2-.1,1.2-1.1v-6.3c0-1,0-1-1.2-1.1v-.4ZM440.5,27.4h1.1c1.2,0,1.7-1,1.7-2.3s-.8-1.9-1.7-1.9h-1v4.2Z"/>
  <path class="cls-1" d="M88.6,29c2.7,0,5.4-.1,8-.2-1.3-3.9-2.7-7.8-4-11.6-1.3,4-2.7,7.9-4,11.8Z"/>
  <path class="cls-1" d="M215.9,9.8c-2.1,0-3.9,1.2-5.3,3.5-1.5,2.4-2.2,6-2.2,10.9,0,4.9.7,8.6,2.2,10.9,1.4,2.4,3.2,3.5,5.3,3.5,2.1,0,3.8-1.1,5.3-3.4,1.5-2.3,2.2-6,2.2-11,0-5.1-.7-8.8-2.2-11.1-1.5-2.3-3.2-3.4-5.3-3.4Z"/>
  <path class="cls-1" d="M398.3,21.4c0-2.2-.8-3.7-2.5-4.6-.9-.5-2.1-.8-3.5-.9-1,0-1.6,0-1.8.1-.2.1-.3.5-.3,1.1,0,3.2,0,6.3,0,9.5,2.5,0,4.3-.2,5.4-.7,1.9-.8,2.8-2.3,2.8-4.5Z"/>
  <path class="cls-1" d="M190.8,22.7c1.2,0,2.1-.3,2.9-.8,1.5-.9,2.2-2.6,2.2-4.9,0-2.8-.9-4.7-2.6-5.6-.9-.5-2.4-.8-4.3-.8-.7,0-1.2,0-1.4.3-.2.2-.3.6-.3,1.4,0,3.5,0,7,0,10.5,1.1,0,2.2,0,3.3,0Z"/>
  <path class="cls-1" d="M189.2,24.6c-.5,0-.9,0-1,0-.1,0-.4,0-.7,0,0,3.9,0,7.7,0,11.6,0,.8.2,1.3.5,1.6.3.2,1.1.4,2.4.4,1.8,0,3.3-.5,4.5-1.4,1.2-.9,1.8-2.7,1.8-5.3,0-2.6-.7-4.4-2.1-5.4-1.4-1-3.2-1.4-5.4-1.4Z"/>
  <path class="cls-1" d="M162.2,28c2.7,0,5.4,0,8,0-1.3-4.2-2.7-8.5-4-12.7-1.3,4.3-2.7,8.5-4,12.7Z"/>
  <path class="cls-1" d="M365.4,29.4c2.7,0,5.4.1,8,.2-1.3-3.7-2.7-7.5-4-11.2-1.4,3.7-2.7,7.3-4.1,11.1Z"/>
  <path class="cls-2" d="M10.6,39.3v.7c3.5,0,6.9,0,10.4,0,0-.2,0-.4,0-.7-1.4,0-2.3-.3-2.8-.6-.4-.3-.6-1.2-.6-2.6,0-5.3,0-10.6,0-15.9,0-1.3.2-2.2.6-2.6.4-.4,1.3-.7,2.8-.9,0-.2,0-.4,0-.7-3.4.3-6.9.5-10.4.8v.7c1.4,0,2.3.1,2.8.5.4.3.6,1.2.6,2.5,0,5.3,0,10.5,0,15.8,0,1.4-.2,2.2-.6,2.5-.4.3-1.3.5-2.8.7Z"/>
  <path class="cls-2" d="M27.2,39.2c0,.2,0,.5,0,.7,3.4,0,6.8,0,10.2,0,0-.2,0-.5,0-.7-1.4-.1-2.3-.3-2.8-.7-.4-.3-.6-1.2-.6-2.7,0-6.4,0-12.8,0-19.2.6,0,1.3,0,1.9-.1,2-.1,3.4,0,4,.7.6.6,1.2,1.9,1.6,3.9.3,0,.6,0,.8,0,0-2.2-.1-4.3-.2-6.5-6.6.4-13.2.9-19.8,1.4,0,2.1-.1,4.1-.2,6.2.3,0,.6,0,.9,0,.4-2,.9-3.3,1.6-3.9.7-.6,2-1,4-1.1.7,0,1.3,0,2-.1,0,6.2,0,12.4,0,18.6,0,1.6-.2,2.6-.5,3-.4.4-1.3.7-2.8.8Z"/>
  <path class="cls-2" d="M46.9,22.4c.1.2.2.5.3.7,1-.5,1.9-1.4,2.7-2.5.8-1.1,1.2-2.4,1.2-3.7,0-1-.3-1.8-.8-2.5-.5-.6-1.2-.9-2-.9-.8,0-1.3.3-1.6.8-.3.5-.5,1-.5,1.5,0,.7.2,1.2.6,1.5.4.3.8.5,1.3.4.1,0,.5,0,1.2-.2.1,0,.2,0,.3,0,0,0,.1.2.1.4,0,.8-.3,1.6-.8,2.3-.6.8-1.2,1.4-2,2Z"/>
  <path class="cls-2" d="M64.2,38.9c-2.1,0-3.8-.9-5.2-2.8-.8-1.1-1.5-2.5-2.1-4.2-.3,0-.5,0-.8,0,.4,2.8.7,5.6,1.1,8.4.3,0,.5,0,.8,0,0-.3.1-.6.3-.9.1-.3.4-.4.8-.4.2,0,.8.2,2,.7,1.2.5,2.3.7,3.4.7,2.2,0,3.9-.7,5.3-2.2,1.4-1.4,2.1-3.2,2.1-5.4,0-1.6-.4-3-1.2-4.1-.8-1.1-2.2-2.4-4.1-3.7-1-.7-2.1-1.4-3.1-2.1-1.2-.8-2-1.5-2.5-2.2-.5-.7-.8-1.6-.8-2.6,0-1.1.4-2.1,1.1-2.7.7-.7,1.5-1.1,2.5-1.1,1.2,0,2.5.4,3.7,1.3,1.3,1,2.2,2.8,2.8,5.3.3,0,.6,0,.8,0-.3-2.9-.5-5.8-.8-8.7-.2,0-.5,0-.7,0,0,.4-.2.8-.4,1-.2.2-.5.4-.9.4-.2,0-.8-.2-1.9-.6-1.1-.4-2.1-.6-2.9-.5-1.9.1-3.5.9-4.7,2.3-1.2,1.4-1.8,3.1-1.8,5.1,0,1.5.5,2.9,1.5,4.1.5.6,1.3,1.3,2.2,1.9,1,.7,2,1.4,3,2.1,1.7,1.2,2.8,2.1,3.4,2.7.8,1,1.2,2.1,1.2,3.4,0,1.5-.4,2.6-1.2,3.4-.8.8-1.8,1.2-2.9,1.2Z"/>
  <path class="cls-2" d="M96.9,39c0,.3,0,.5,0,.8,3,0,5.9,0,8.9,0,0-.3,0-.5,0-.8-.8-.1-1.4-.4-1.8-.8-.3-.4-.8-1.4-1.4-3-2.9-8.1-5.9-16.2-8.8-24.1-.2,0-.5,0-.7,0-2.4,7.1-4.8,14.1-7.3,21-1.1,3.1-1.9,5-2.3,5.7-.5.7-1.1,1.1-2,1.2,0,.3,0,.5,0,.8,2.3,0,4.6,0,6.9,0,0-.3,0-.5,0-.8-.8,0-1.4-.2-1.7-.4-.5-.3-.7-.8-.7-1.5,0-.4,0-.8.3-1.4.2-.6.7-2.3,1.6-5.1,3.1,0,6.2,0,9.2-.1.5,1.4.9,2.7,1.4,4.1.2.6.4,1.1.5,1.7.1.5.2.9.2,1.1,0,.6-.1,1-.4,1.2-.3.2-1,.3-2,.4ZM88.6,29c1.3-3.9,2.7-7.8,4-11.8,1.3,3.9,2.7,7.7,4,11.6-2.7,0-5.4,0-8,.2Z"/>
  <path class="cls-2" d="M116.6,11.5c0-.3,0-.5,0-.8-3.3.1-6.6.3-9.9.4,0,.3,0,.5,0,.8,1.3,0,2.1.3,2.5.8.4.5.6,1.5.6,3,0,6.5,0,12.9,0,19.4,0,1.6-.2,2.7-.6,3.1-.4.4-1.2.7-2.5.9,0,.3,0,.5,0,.8,6.3,0,12.6,0,18.8,0,.6-2.6,1.1-5.1,1.7-7.7-.3,0-.6,0-.9,0-1,2.7-2.1,4.4-3.2,5-1.1.7-3.2,1-6.3,1-.8,0-1.3,0-1.6,0-.3,0-.6,0-.8,0-.4,0-.7-.2-.9-.5-.1-.3-.2-.7-.2-1.1,0-7,0-14,0-21.1,0-1.5.2-2.4.7-2.9.4-.5,1.3-.8,2.6-.9Z"/>
  <path class="cls-2" d="M148.7,31.9c-.3,0-.6,0-.9,0-1,2.7-2.1,4.5-3.2,5.1-1.1.7-3.2,1-6.3,1-.8,0-1.3,0-1.6,0-.3,0-.6,0-.8,0-.4,0-.7-.3-.9-.5-.1-.3-.2-.7-.2-1.2,0-7.2,0-14.4,0-21.6,0-1.5.2-2.5.7-2.9.4-.5,1.3-.8,2.6-.9,0-.3,0-.6,0-.8-3.3,0-6.6.2-9.9.3,0,.3,0,.6,0,.8,1.3,0,2.1.4,2.5.8.4.5.6,1.5.6,3.1,0,6.6,0,13.3,0,19.9,0,1.7-.2,2.7-.6,3.1-.4.4-1.2.7-2.5.9,0,.3,0,.6,0,.8,6.3,0,12.6,0,18.8,0,.6-2.6,1.1-5.3,1.7-7.9Z"/>
  <path class="cls-2" d="M170.5,38.9c0,.3,0,.6,0,.9,3,0,5.9,0,8.9,0,0-.3,0-.6,0-.9-.8-.1-1.4-.4-1.8-.8-.3-.4-.8-1.5-1.4-3.2-2.9-8.8-5.8-17.5-8.8-26.1-.2,0-.5,0-.7,0-2.4,7.6-4.8,15.2-7.3,22.7-1.1,3.4-1.9,5.4-2.3,6.2-.5.8-1.1,1.2-2,1.3,0,.3,0,.6,0,.9,2.3,0,4.6,0,6.9,0,0-.3,0-.6,0-.9-.8,0-1.4-.2-1.7-.4-.5-.3-.7-.8-.7-1.6,0-.4,0-.9.3-1.6.2-.7.7-2.5,1.6-5.5,3.1,0,6.2,0,9.2,0,.5,1.5.9,3,1.4,4.4.2.6.4,1.2.5,1.8.1.6.2,1,.2,1.2,0,.7-.1,1.1-.4,1.3-.3.2-1,.3-2,.4ZM162.2,28c1.3-4.2,2.7-8.5,4-12.7,1.3,4.2,2.7,8.4,4,12.7-2.7,0-5.4,0-8,0Z"/>
  <path class="cls-2" d="M180.6,38.9c0,.3,0,.6,0,.9,3.8,0,7.6,0,11.4,0,1.9,0,3.6-.4,4.9-1.1,2.5-1.4,3.8-3.9,3.8-7.5,0-2.2-.6-3.9-1.7-5.1-1.1-1.2-2.5-2.1-4.1-2.6,1.3-.4,2.3-1,2.9-1.6,1.2-1.1,1.7-2.8,1.7-5,0-2.9-.8-5-2.5-6.2-1.6-1.2-3.9-1.8-6.7-1.7-3.3,0-6.5,0-9.8.1,0,.3,0,.6,0,.9,1.4,0,2.3.3,2.7.8.4.5.6,1.6.6,3.3,0,6.9,0,13.8,0,20.7,0,1.7-.2,2.8-.6,3.3-.4.5-1.3.8-2.7.9ZM196.7,31.4c0,2.6-.6,4.4-1.8,5.3-1.2.9-2.7,1.4-4.5,1.4-1.2,0-2-.1-2.4-.4-.3-.2-.5-.8-.5-1.6,0-3.9,0-7.7,0-11.6.3,0,.5,0,.7,0,.1,0,.5,0,1,0,2.2,0,4,.5,5.4,1.4,1.4,1,2.1,2.7,2.1,5.4ZM187.7,10.9c.2-.2.6-.3,1.4-.3,1.9,0,3.4.2,4.3.8,1.7,1,2.6,2.8,2.6,5.6,0,2.4-.7,4-2.2,4.9-.8.5-1.8.7-2.9.8-1.1,0-2.2,0-3.3,0,0-3.5,0-7,0-10.5,0-.7,0-1.2.3-1.4Z"/>
  <path class="cls-2" d="M227.3,24.3c0-5-1.2-9-3.5-12-2.2-2.8-4.8-4.2-8-4.2-3.1,0-5.8,1.4-8,4.2-2.3,3-3.5,7-3.5,12,0,4.8,1.1,8.6,3.3,11.7,2.2,3,4.9,4.5,8.2,4.5,3.1,0,5.7-1.3,7.9-4,2.4-3,3.6-7,3.6-12.1ZM221.2,35.3c-1.5,2.3-3.2,3.4-5.3,3.4-2.1,0-3.9-1.2-5.3-3.5-1.4-2.4-2.2-6-2.2-10.9,0-4.9.7-8.6,2.2-10.9,1.5-2.4,3.2-3.5,5.3-3.5,2,0,3.8,1.1,5.3,3.4,1.5,2.3,2.2,6,2.2,11.1,0,5-.7,8.7-2.2,11Z"/>
  <path class="cls-2" d="M233.4,35.5c1.4,3.3,3.9,4.9,7.7,4.9,3.8,0,6.4-1.7,7.8-5,.7-1.8,1.1-4.3,1.1-7.5,0-4,0-8.1,0-12.1,0-2.4.2-4,.6-4.7.4-.7,1.3-1.1,2.7-1.3,0-.3,0-.6,0-.9-2.7,0-5.4,0-8.1,0,0,.3,0,.6,0,.9,1.3.2,2.1.6,2.6,1.2.5.6.7,2.2.7,4.8,0,4,0,8.1,0,12.1,0,3-.3,5.2-.8,6.6-1,2.5-2.9,3.8-5.8,3.8-2.6,0-4.4-1.3-5.3-3.7-.5-1.4-.8-3.3-.8-5.7,0-5,0-10,0-14.9,0-1.7.2-2.8.6-3.3.4-.5,1.3-.8,2.6-.9,0-.3,0-.6,0-.9-3.3,0-6.6,0-9.9,0v.9c1.3.1,2.2.5,2.6.9.4.5.6,1.6.6,3.3,0,4.9,0,9.7,0,14.6,0,2.9.4,5.2,1.1,7Z"/>
  <path class="cls-2" d="M268.2,11.2c2,0,3.4.4,4,1.2.6.8,1.2,2.4,1.6,4.8.3,0,.6,0,.8,0,0-2.6-.1-5.2-.2-7.8-6.6-.1-13.2-.3-19.8-.3,0,2.6-.1,5.3-.2,7.9.3,0,.6,0,.9,0,.4-2.5.9-4.1,1.6-4.8.7-.7,2-1.1,4-1.1.7,0,1.3,0,2,0,0,7.7,0,15.4,0,23.1,0,2-.2,3.2-.6,3.7-.4.5-1.3.8-2.8,1,0,.3,0,.6,0,.9,3.4,0,6.8,0,10.2,0,0-.3,0-.6,0-.9-1.4-.1-2.3-.4-2.8-.8-.4-.4-.6-1.5-.6-3.3,0-7.9,0-15.8,0-23.6.7,0,1.3,0,2,0Z"/>
  <path class="cls-2" d="M297.2,11.8c2,0,3.4.5,4,1.2.6.7,1.1,2.3,1.6,4.7.3,0,.6,0,.8,0,0-2.5-.1-5.1-.2-7.6-6.6-.2-13.2-.4-19.8-.6,0,2.6-.1,5.2-.2,7.8.3,0,.6,0,.9,0,.4-2.4.9-4,1.6-4.7.7-.7,2-1,4-1,.7,0,1.3,0,2,0,0,7.6,0,15.1,0,22.7,0,2-.2,3.2-.6,3.7-.4.5-1.3.8-2.8.9,0,.3,0,.6,0,.8,3.4,0,6.8,0,10.2,0,0-.3,0-.6,0-.8-1.4-.1-2.3-.4-2.8-.8-.4-.4-.6-1.5-.6-3.2,0-7.7,0-15.4,0-23.1.7,0,1.3,0,2,0Z"/>
  <path class="cls-2" d="M307.4,38c-.3.5-1.2.8-2.6,1,0,.3,0,.6,0,.8,3.2,0,6.5,0,9.7,0,0-.3,0-.5,0-.8-1.3-.1-2.1-.4-2.5-.9-.4-.5-.6-1.5-.6-3.1,0-3.1,0-6.1,0-9.2,3.5,0,7.1.1,10.6.2,0,2.8,0,5.7,0,8.5,0,1.9-.2,3.1-.5,3.5-.3.5-1.2.8-2.6.9,0,.3,0,.5,0,.8,3.2,0,6.5,0,9.7,0,0-.3,0-.5,0-.8-1.3-.1-2.1-.4-2.5-.9-.4-.4-.6-1.5-.6-3,0-6.5,0-12.9,0-19.4,0-1.6.2-2.6.6-3,.4-.5,1.2-.7,2.5-.8,0-.3,0-.5,0-.8-3.2-.1-6.5-.3-9.7-.4,0,.3,0,.5,0,.8,1.3.2,2.1.5,2.5,1,.4.5.6,1.5.6,3.1,0,2.8,0,5.7,0,8.5-3.5,0-7.1-.1-10.6-.2,0-2.9,0-5.8,0-8.7,0-1.6.2-2.6.6-3.1.4-.5,1.2-.7,2.5-.8,0-.3,0-.5,0-.8-3.2-.1-6.5-.2-9.7-.3,0,.3,0,.6,0,.8,1.3.2,2.1.5,2.5,1,.4.5.6,1.5.6,3.1,0,6.4,0,12.9,0,19.3,0,1.9-.2,3.1-.5,3.6Z"/>
  <path class="cls-2" d="M350.5,32.7c-.3,0-.7,0-1,0-.9,2.4-1.9,3.9-3.1,4.5-1.1.6-2.9.9-5.3.9-2.2,0-3.5,0-3.9-.2-.4-.2-.7-.7-.7-1.5,0-3.5,0-7.1,0-10.6,1.8,0,3.6,0,5.4.1,1.5,0,2.4.3,2.8.9.4.5.7,1.6,1,3.3.3,0,.5,0,.8,0,0-3.3,0-6.5,0-9.8-.3,0-.5,0-.8,0-.3,1.6-.6,2.7-1,3.2-.4.5-1.4.8-2.9.7-1.8,0-3.6,0-5.4-.1,0-3.2,0-6.4,0-9.6,0-.6,0-.9.2-1.1.1-.2.4-.3,1-.3,1.6,0,3.2.1,4.8.2,2.1,0,3.4.4,4,1,.6.6,1,1.8,1.3,3.7.3,0,.6,0,.9,0,0-2,0-4-.1-6-6.2-.3-12.4-.6-18.6-.8,0,.3,0,.5,0,.8,1.3.2,2.1.5,2.5,1,.4.5.6,1.5.6,3,0,6.4,0,12.8,0,19.2,0,1.6-.2,2.6-.6,3-.4.4-1.2.7-2.5.8,0,.3,0,.5,0,.8,6.3,0,12.6,0,18.9,0,.5-2.4,1.1-4.7,1.6-7.1Z"/>
  <path class="cls-2" d="M373.6,39.1c0,.2,0,.5,0,.7,3,0,5.9,0,8.9,0,0-.2,0-.5,0-.7-.8-.1-1.4-.4-1.8-.7-.3-.4-.8-1.3-1.4-2.8-2.9-7.5-5.8-15.2-8.7-23-.2,0-.5,0-.7,0-2.4,6.5-4.9,13.1-7.3,19.7-1.1,3-1.9,4.9-2.3,5.5-.5.7-1.1,1.1-2,1.2,0,.3,0,.5,0,.8,2.3,0,4.6,0,6.9,0,0-.3,0-.5,0-.8-.8,0-1.4-.2-1.7-.4-.5-.3-.7-.7-.7-1.4,0-.3,0-.8.3-1.4.2-.6.7-2.2,1.6-4.9,3.1,0,6.2.1,9.2.2.5,1.3.9,2.6,1.4,3.9.2.5.4,1.1.5,1.6.1.5.2.8.2,1,0,.6-.1.9-.4,1.1-.3.1-1,.3-2,.4ZM365.4,29.4c1.4-3.7,2.7-7.4,4.1-11.1,1.3,3.8,2.7,7.5,4,11.2-2.7,0-5.4-.1-8-.2Z"/>
  <path class="cls-2" d="M391.6,28c2.9,4,5.8,8,8.7,11.9,1.9,0,3.8,0,5.6,0,0-.2,0-.5,0-.7-.7,0-1.3-.2-1.7-.5-.4-.3-.9-.7-1.3-1.3-2.4-3.2-4.8-6.4-7.2-9.7,1.9-.3,3.5-.9,4.6-1.8,1.1-1,1.7-2.4,1.7-4.2,0-2.8-1.3-4.8-3.8-6-1.3-.6-3-1-5-1.2-3.2-.2-6.5-.4-9.7-.6,0,.2,0,.5,0,.7,1.3.2,2.1.5,2.5,1,.4.4.6,1.4.6,2.7,0,5.6,0,11.3,0,16.9,0,1.6-.2,2.6-.5,3.1-.3.4-1.2.7-2.5.9,0,.2,0,.5,0,.7,3.2,0,6.5,0,9.7,0,0-.2,0-.5,0-.7-1.3-.1-2.2-.4-2.6-.8-.4-.4-.6-1.3-.6-2.7,0-2.5,0-5.1,0-7.6.5,0,1,0,1.5,0ZM390.1,17.1c0-.6.1-.9.3-1.1.2-.1.8-.2,1.8-.1,1.5,0,2.6.4,3.5.9,1.7.9,2.5,2.5,2.5,4.6,0,2.3-.9,3.8-2.8,4.5-1.1.4-2.9.7-5.4.7,0-3.2,0-6.3,0-9.5Z"/>
  <path class="cls-2" d="M412.6,38.5c-.4.4-1.3.6-2.8.7,0,.2,0,.5,0,.7,3.4,0,6.8,0,10.2,0v-.7c-1.4-.1-2.3-.3-2.8-.7-.4-.3-.6-1.2-.6-2.6,0-6.1,0-12.3,0-18.4.6,0,1.3,0,1.9.1,2,.1,3.4.5,4,1.1.6.6,1.2,1.9,1.6,3.8.3,0,.6,0,.8,0,0-2-.1-4-.2-6-6.6-.5-13.2-1-19.8-1.5,0,2.1-.1,4.2-.2,6.3.3,0,.6,0,.9,0,.4-2,.9-3.2,1.6-3.8.7-.5,2-.8,4-.6.7,0,1.3,0,2,.1,0,6.1,0,12.1,0,18.2,0,1.6-.2,2.5-.5,2.9Z"/>
</svg>