<?xml version="1.0" encoding="UTF-8"?>
<svg id="Layer_1" data-name="Layer 1" xmlns="http://www.w3.org/2000/svg" version="1.1" viewBox="0 0 305.4 184.6">
  <defs>
    <style>
      .cls-1 {
        fill: #fdf7e4;
      }

      .cls-1, .cls-2, .cls-3, .cls-4 {
        stroke-width: 0px;
      }

      .cls-2 {
        fill: none;
      }

      .cls-3 {
        fill: #ff2600;
      }

      .cls-4 {
        fill: #a81500;
      }
    </style>
  </defs>
  <g>
    <path class="cls-2" d="M284.1,98c-.1,0-.3,0-.3.2v.8h0v.8c0,.2.2.3.3.3.4,0,.6-.2.7-.6,0-.3.1-.6,0-.9,0-.5-.4-.7-.8-.7h0Z"/>
    <path class="cls-2" d="M265.9,56.4c.2.3.5.6.8.8s.6.3,1,.3h.3c.4,0,.7-.2,1.1-.3.7-.3,1.3-.7,1.9-1.1,1.7-1.1,3.3-2.3,4.8-3.5,0,0,.1,0,.2-.2v-.4c-.2-.2-.3-.4-.5-.5-.9-.8-1.9-1.3-3-1.5-2-.5-3.7,0-5.3,1.2-.9.8-1.6,1.7-2.1,2.8v.5c.2.7.5,1.3.9,1.9h0Z"/>
    <path class="cls-2" d="M244.7,64.3c.1,1.1.2,2.1.2,3.2v2.6c0,.2.2.4.4.4h1.9c.4,0,.9,0,1.3-.2.9-.2,1.5-.8,1.7-1.7,0-.2,0-.3.1-.5.2-1,0-2-.2-3-.1-.5-.3-.9-.5-1.3-.4-.7-1-1.3-1.8-1.6-1.1-.4-2.2-.6-3.4-.4-.2,0-.3,0-.5.3,0,.2.1.3.2.5.2.5.3,1,.4,1.6h.2Z"/>
    <path class="cls-2" d="M265.2,79.2c.7,2.3,1.8,4.4,3.3,6.3.5.6,1,1.1,1.6,1.6,1.2.9,2.5,1.2,3.9,1,.2,0,.5,0,.7,0,.9,0,1.6-.5,2.3-1,.4-.3.7-.6,1-1,.6-.7,1.1-1.6,1.4-2.4,1-2.3,1.5-4.6,1.6-7.1s0-5-.2-7.5v-.3c-.1-1.1-.2-2.2-.3-3.2,0-.9-.2-1.8-.3-2.7-.1-.8-.3-1.6-.4-2.4v-.4c.5-.7,1.1-1.3,1.8-1.8.4-.3.9-.6,1.3-1,.2-.2.5-.4.7-.5h-.2c-.2,0-.3,0-.5,0-1.6.6-3.1,1.2-4.5,2-1.1.6-2.1,1.1-3.2,1.7-1.2.5-2.4,1-3.7,1.4-.9.3-1.9.5-2.9.5-1.7,0-3-.8-3.7-2.3-.1-.2-.2-.4-.3-.7-.2-.6-.2-1.2-.2-1.8v-.9s-.1,0-.1.2c-.2.6-.3,1.2-.4,1.8-.2,1.4-.3,2.9-.4,4.3-.1,2.4,0,4.9.2,7.3.1,1.4.3,2.9.5,4.3.3,1.6.6,3.3,1,4.8v-.2Z"/>
    <path class="cls-2" d="M212.4,46.7h0Z"/>
    <path class="cls-1" d="M199.6,75.7h.5c1.3.2,2.6.5,3.9.7,1.6.3,3.3.6,4.9.9.9.2,1.7.3,2.6.5.3,0,.4.2.5.5,0,.8.2,1.5.3,2.3.2,1.8.5,3.6.7,5.4.3,2.2.6,4.5,1,6.7.4,2.4.9,4.8,1.5,7.2.5,2.1,1.1,4.2,2,6.2.8,1.8,1.7,3.5,2.8,5,1.7,2.2,3.8,3.9,6.3,5,1.7.7,3.4.9,5.2.5.9-.2,1.8-.5,2.6-1.1.2,0,.3-.2.5-.4.2-.2.2-.5,0-.7s-.4-.3-.6-.4c-.3,0-.6-.2-.8-.3-1.1-.3-2-.9-2.7-1.7-.5-.5-1-1.1-1.5-1.7-.9-1.1-1.6-2.3-2.3-3.5-1.3-2.3-2.3-4.6-3.2-7.1-1-2.9-1.8-6-2.4-9-.5-2.4-.9-4.8-1.4-7.2-.2-1.1-.4-2.3-.5-3.4,0-.8-.2-1.7-.3-2.5,0-.7-.2-1.5-.2-2.2s-.2-1.7-.3-2.6c-.2-1.4-.3-2.9-.4-4.3v-.6c0-1.2-.2-2.5-.3-3.7,0-1.2-.2-2.5-.3-3.7-.1-1.6-.3-3.2-.4-4.7v-.6c-.2-1.5-.2-3-.1-4.5,0-.4.1-.8.3-1.1.8-1.3,1.7-2.5,2.7-3.7.3-.4.7-.7,1.1-1.1.9-.8,1.9-.9,3-.7.3,0,.6.2.8.4s.4.4.4.7v.5c.3,0,.6.2.9.3h0c-.2,0-.4.3-.6.3-.6,0-1.2.4-1.8.7-.3.2-.4.5-.3.8.1.4.3.7.6,1,.7.7,1.6,1,2.5,1.1.5,0,.9,0,1.4,0,1.2-.4,2.1-1.2,2.7-2.3.3-.6.5-1.3.4-2.1v-.8c-.3-1.8-1.2-3.2-2.8-4.1-.4-.2-.8-.4-1.3-.5-1.9-.6-3.9-.6-5.8,0-1.5.4-2.8,1-4.1,1.8-1.1.7-2.2,1.5-3.2,2.4-.6.5-1.1,1.1-1.7,1.6-.1,0-.2.3,0,.5,0,.2.2.4,0,.6h-.2c-.5-.2-1-.2-1.5-.2h-1c-.4,0-.8,0-1.2.2-.3,0-.5.2-.7.4,0,0-.1.3,0,.5,0,0,0,.2.2.3.2.2.4.4.6.6.7.7,1.1,1.5,1.3,2.5,0,.6.2,1.3.3,1.9.1,1.2.3,2.4.3,3.6.1,1.5.2,3,.3,4.5v.5c.1,1.6.2,3.2.3,4.8,0,.6,0,1.3.1,1.9,0,1.3.2,2.6.3,3.9v.5s0,0-.1,0h-.5c-1-.2-2-.4-3-.6-1.6-.3-3.2-.6-4.9-.9-.7,0-1.4-.3-2.1-.4-.6,0-1.2.3-1.3.9v.8c0,.3,0,.7-.1,1v-.2c0-1-.2-2.1-.3-3.1,0-1-.2-2-.3-3-.1-1.2-.2-2.4-.3-3.5,0-1.1-.2-2.2-.3-3.3,0-.8-.1-1.6-.2-2.4-.1-1.1-.2-2.1-.3-3.2-.1-1.4-.3-2.8-.4-4.1-.1-.8-.3-1.7-.8-2.4v-.2h1.1c1.2.2,2.4.2,3.5,0,1.7-.4,2.9-1.4,3.7-2.9.8-1.7.8-3.5.1-5.2,0-.2-.2-.4-.3-.6-.2-.4-.6-.4-.9,0-.2.2-.5.5-.7.8-.3.4-.6.7-.9,1.1-.6.6-1.3.9-2.1,1h-1.6c-.7-.2-1.4-.3-2-.6-.8-.4-1.7-.8-2.5-1.2s-1.9-1-2.9-1.4c-1.2-.6-2.3-1-3.6-1.4-1.6-.5-3.1-.8-4.8-.8s-1.6,0-2.3.2c-1.5.3-2.8.9-4,1.8-1.8,1.4-3.2,3.1-4.1,5.2-1,2.3-1.5,4.6-1.6,7.1v2.2c0,1.8.4,3.5,1,5.1.8,2,1.9,3.8,3.5,5.3.8.8,1.7,1.4,2.7,1.9,1.1.5,2.3.8,3.5.7,1.2,0,2.3-.5,3.2-1.3.6-.5,1.1-1.2,1.5-1.9.5-.9.8-1.9,1-2.8,0-.4.1-.8.1-1.2s-.2-.6-.6-.7c-.2,0-.5,0-.7,0-.2,0-.3.2-.5.3-.4.2-.7.4-1.1.5-.7.3-1.5.4-2.3.2s-1.5-.6-2.1-1.1c-2.5-2.3-3.8-5.1-3.3-8.5.3-2.2,1.3-4,2.8-5.5s1.1-.8,1.8-1,1.4-.2,2.1,0c.9,0,1.8.4,2.6.7,1.4.5,2.7,1.2,3.9,2,.4-.2.3-.6.5-.9.2,0,.2.2.3.4.3,1.1.5,2.2.5,3.4s0,.9.2,1.3c.4,1.8.6,3.6.7,5.4.1,1.3.2,2.6.3,3.8.1,1.7.3,3.4.4,5.2v.5c.1,1.3.2,2.6.3,3.8,0,1.1.2,2.3.3,3.4,0,.9.2,1.8.2,2.6.1,1.2.2,2.4.3,3.5,0,1.1.2,2.2.3,3.3.1,1.2.3,2.5.4,3.7.2,1.7.2,3.4.1,5.1,0,.6-.1,1.1-.3,1.7-.2.5-.4,1-.6,1.5-.4.8-.9,1.7-1.4,2.5-.4.7-.8,1.4-1.3,2.1-.2.3-.3.5-.4.8,0,0,0,.3.2.3h.3c.5,0,.9-.3,1.4-.4,2.9-1.1,5.8-2.3,8.6-3.5.3,0,.5-.3.8-.4.1,0,.2-.2.3-.3,0,0,.1-.3,0-.4-.1-.2-.3-.4-.4-.6-.6-.7-1-1.5-1.2-2.4-.2-.8-.3-1.5-.3-2.3-.1-1.4-.2-2.8-.3-4.2v-.5c-.1-1.7-.2-3.3-.3-5,0-.6,0-1.2-.1-1.8v-1.3s.1-.2.2-.2l-.2-.7Z"/>
    <path class="cls-1" d="M196.3,48.1h0Z"/>
    <path class="cls-1" d="M212.3,46.7h0Z"/>
    <path class="cls-1" d="M238.3,58.6c-.2,0-.3,0-.5.2,0,0-.1.2-.1.3s.1.2.2.3c.2.3.5.6.7,1,.5.7.8,1.5.8,2.4v.8c.1,1.5.2,3,.3,4.4.1,1.7.2,3.3.3,5v.6c.1,1.6.2,3.2.2,4.8s0,2.4-.4,3.5v.4c0,.3.1.5.4.5h.4c2,.2,4,.2,6.1.2s.7-.2.5-.7c0-.2-.1-.4-.2-.6-.2-.3-.4-.6-.6-.9-.9-1.5-.9-1.3-1-3.2v-3.1c0-.8,0-.9.9-.6.3,0,.6.2.9.4.4.2.8.6,1.1.9.6.6,1,1.2,1.4,1.8.6,1,1,2,1.4,3,.5,1.5,1.1,2.9,1.7,4.3.5,1.1.9,2.1,1.5,3.1.8,1.4,1.8,2.5,3.1,3.5.6.5,1.3.9,2.1,1.2,1,.4,2,.5,3.1.4,1.4-.2,2.4-.8,3.2-2,.1-.2.2-.4.4-.6.2,0,.3,0,.5.2.5.3,1.1.6,1.7.9,1.2.5,2.5.8,3.8,1,.9,0,1.9,0,2.8,0,2-.3,3.8-1,5.4-2.2,2.1-1.6,3.7-3.5,4.6-5.9.1-.3.2-.6.4-.9,1-2.7,1.4-5.6,1.6-8.4.1-2,.1-4,0-6v-1c-.1-1.2-.3-2.4-.5-3.6-.3-1.4-.5-2.8-1-4.1-.3-1.1-.7-2.2-1-3.3,0,0,.1-.2.3-.3.9-.3,1.8-.3,2.7-.2h.4c.7,0,1.3.5,1.8,1,.4.5.8,1,1,1.6.4.9.7,1.8.8,2.8,0,.3,0,.5.3.8.1.2.4.2.5,0,0,0,.2-.2.3-.3.3-.4.5-.9.7-1.4.6-1.6.9-3.3.9-5.1v-.8c-.3-1.3-.8-2.6-1.7-3.7-.6-.8-1.4-1.5-2.3-1.9s-1.8-.7-2.7-.7c-1.6,0-3.2,0-4.7.5-.6.2-1.2.4-1.8.6h-.4c-.1,0-.3-.3-.4-.4-.7-.6-1.4-1.2-2.2-1.6-2.6-1.4-5.4-2.1-8.4-1.7-1.6.2-3,.8-4.3,1.7-1.9,1.4-3.3,3.2-4.3,5.3-.8,1.7-1.3,3.5-1.6,5.3-.2,1.2-.4,2.3-.5,3.5-.2,1.5-.2,3.1-.3,4.7,0,1.6.1,3.2.3,4.7.2,1.8.5,3.5.9,5.3.3,1.5.7,2.9,1.2,4.3.9,2.3,1.9,4.5,3.2,6.7.2.3.1.4-.2.5-.9.4-1.8.5-2.7,0h-.2c-.8-.3-1.6-.8-2.2-1.4-.6-.7-1.2-1.5-1.7-2.3-1.3-2.1-2.5-4.3-3.3-6.6-.5-1.3-1.2-2.5-2-3.6-.1,0-.2-.3-.3-.4,0,0,0,0-.1-.2v-.3c.1,0,.2,0,.4-.2.8-.4,1.4-.9,2-1.5.5-.5.8-1.1,1-1.7.4-1.3.5-2.7.3-4.1-.2-1-.6-1.9-1.1-2.8-1.1-2-2.8-3.2-5-3.6-.8,0-1.5-.3-2.3-.3-1.3,0-2.7,0-4,0-.6.2-1.1,0-1.7,0h-.3c-.7-.2-1.3,0-2,0l-.5-.3ZM265.1,54c.5-1.1,1.2-2.1,2.1-2.8,1.5-1.3,3.3-1.7,5.3-1.2,1.1.3,2.1.8,3,1.5.2.2.3.3.5.5v.4s-.1,0-.2.2c-1.6,1.2-3.1,2.4-4.8,3.5-.6.4-1.3.8-1.9,1.1-.3.2-.7.3-1.1.3h-.3c-.4,0-.7,0-1-.3s-.6-.5-.8-.8c-.4-.6-.7-1.2-.9-1.9v-.5h0ZM263.7,70.1c-.2-2.4-.4-4.9-.2-7.3,0-1.4.1-2.9.4-4.3.1-.6.2-1.2.4-1.8v-.2c.2.3.1.6.1.9,0,.6,0,1.2.2,1.8,0,.2.1.5.3.7.8,1.5,2,2.3,3.7,2.3s1.9-.2,2.9-.5c1.3-.4,2.5-.9,3.7-1.4,1.1-.5,2.2-1.1,3.2-1.7,1.4-.8,3-1.5,4.5-2,.2,0,.3,0,.5,0h.2c-.2.2-.5.4-.7.5-.4.3-.9.6-1.3,1-.7.5-1.3,1.1-1.8,1.8,0,0-.1.2,0,.4.1.8.3,1.6.4,2.4.1.9.2,1.8.3,2.7.1,1.1.2,2.2.3,3.2v.3c.2,2.5.3,5,.2,7.5,0,2.5-.6,4.8-1.6,7.1-.4.9-.8,1.7-1.4,2.4-.3.4-.6.7-1,1-.7.5-1.4.9-2.3,1-.2,0-.5,0-.7,0-1.4.2-2.7,0-3.9-1-.6-.4-1.1-1-1.6-1.6-1.5-1.9-2.6-4-3.3-6.3-.4-1.6-.8-3.2-1-4.8-.2-1.4-.4-2.9-.5-4.3v.2ZM244.6,61.9c1.2,0,2.3,0,3.4.4.8.3,1.4.8,1.8,1.6.2.4.4.9.5,1.3.3,1,.4,2,.2,3,0,.2,0,.3-.1.5-.3.9-.9,1.4-1.7,1.7-.4,0-.8.2-1.3.2h-1.9c-.2,0-.4-.2-.4-.4v-2.6c0-1.1-.1-2.2-.2-3.2,0-.5-.2-1.1-.4-1.6,0-.2-.1-.4-.2-.5.1-.2.3-.2.5-.3h-.2Z"/>
    <path class="cls-1" d="M39.7,73.5c.3,0,.5-.2.8-.3.5-.2,1-.3,1.5-.5,2.9-1.1,5.5-2.8,7.9-4.8.5-.4.9-.9,1.4-1.3.4-.4.7-.8,1.1-1.2,1.4-1.4,2.7-2.9,3.8-4.5,1.8-2.6,3.3-5.3,4.3-8.3s.8-2.9.8-4.5,0-3-.5-4.5c-1.1-3.7-3.3-6.4-6.8-8-.9-.4-1.8-.7-2.7-.9-.4,0-.8-.2-1.2-.2-2.2-.2-4.5,0-6.6.5-1.5.4-3,.9-4.5,1.6-1.9.9-3.7,1.9-5.6,2.8-5.9,3.2-11.8,6.5-17.6,9.8-.1,0-.3.2-.4.3,0,0-.2,0-.2.2s-.1.3,0,.5c.2.3.4.4.7.3.3,0,.5-.2.7-.3,4.4-2,8.8-3.9,13.4-5.5,3-1,6-2,9-2.6,1.9-.4,3.8-.6,5.7-.5.7,0,1.3,0,2,.3,1.2.3,2.3.7,3.2,1.4,1.3,1,2.1,2.3,2.3,3.9.2,1.2.2,2.4,0,3.6-.2,1.1-.5,2.1-.9,3.1-.9,2.3-2.1,4.4-3.6,6.3-2.2,2.9-4.8,5.3-7.7,7.4,0,0-.3.2-.4.3h-.4c0-.7,0-1.4-.2-2.1,0-1,0-2,0-3-.2-3.9-.2-7.8,0-11.7,0-.5,0-1.1,0-1.6,0-.9.2-1.8.4-2.7,0-.4,0-.8.2-1.2,0-.2,0-.4,0-.6,0,0-.3-.2-.4,0,0,0-.2,0-.3.2-.3.3-.7.6-1,.9-1.9,1.8-3.8,3.6-5.7,5.4,0,0-.1,0-.2.2-.4.4-.6.9-.4,1.5v.3c.1.6.2,1.2.3,1.8,0,1.4.2,2.8.2,4.2,0,4.3,0,8.5-.1,12.8v.3c0,0,0,.3-.2.3-.2,0-.3.2-.5.3-.5.3-1.1.6-1.6.9-.1,0-.3.2-.4.3-.2.2-.3.4-.2.7,0,.2.2.4.5.4h.6c.5,0,1,0,1.5,0,.5,0,1,0,1.5,0v.2c-.2.2-.5.3-.8.5-.2.2-.4.4-.4.7v.7c0,3.1,0,6.1-.2,9.2,0,.9-.2,1.8-.6,2.7-.5,1.3-1.2,2.5-2.1,3.6-.7.8-1.4,1.6-2.3,2.3-.3.3-.4.6-.3,1,0,0,.2.2.3.2.3,0,.6-.2.9-.3,2.6-1,5.2-2,7.7-3,1.6-.6,3.2-1.3,4.8-2,.2,0,.5-.2.7-.4.2,0,.3-.5.2-.7,0-.3-.2-.5-.3-.7-.5-1-.7-2-.8-3,0-1.1-.2-2.2-.2-3.3v-1.7c0-2.3,0-4.5,0-6.8v-.6l.2-.3Z"/>
    <path class="cls-1" d="M62.2,100.9c0,0,0-.2,0-.3-1.1-1.1-2.1-2.2-3-3.5-.3-.4-.4-.5-.9-.2-.3,0-.6.3-.8.4-1.8.9-3.6,1.7-5.4,2.6-2.1,1-4.1,2-6.3,2.8-2.1.8-4.2,1.6-6.3,2.1-2.4.6-4.9.9-7.4,1-1.7,0-3.4,0-5.1,0s-2.4-.2-3.5-.5c-.8-.2-1.5-.4-2.2-.8-.5-.2-.9-.5-1.2-.9-.6-.6-.9-1.3-.9-2.2s.1-1.5.3-2.3c.3-1,.7-1.9,1.2-2.8.7-1.3,1.6-2.4,2.7-3.4.2-.2.4-.4.5-.6.3-.5,0-1.1-.6-1.1s-.9,0-1.3,0c-3,.7-5.6,2.1-7.8,4.1-.9.8-1.8,1.8-2.4,2.9-1.4,2.3-2,4.8-1.6,7.5.4,2.2,1.4,4.1,3.2,5.4,2.2,1.6,4.6,2.5,7.2,2.9,1.2.2,2.5.2,4,.2s2.6,0,4-.3c1.4-.2,2.9-.5,4.3-.8,2.8-.6,5.6-1.4,8.4-2.3,5.1-1.8,10-4.2,14.6-6.9,2-1.1,3.9-2.3,5.9-3.3h.2l.2.2Z"/>
    <path class="cls-1" d="M298.3,100.4c-.9-2.1-2.2-3.9-3.9-5.3-1.3-1-2.7-1.8-4.3-2.3-.3,0-.6,0-.9,0s-.4.2-.4.4v.6c.1.2.3.4.5.6,1.1,1.4,2,2.9,2.5,4.6.3,1.1.6,2.2.5,3.3,0,1.4-.7,2.6-1.8,3.5-.5.4-1,.7-1.6.9-1.1.4-2.2.7-3.3.8h-2.7c-1,0-2-.2-3-.4-1.6-.4-3.2-.9-4.7-1.6-2.6-1.1-5.1-2.3-7.6-3.6-2.6-1.4-5.1-2.9-7.7-4.3-1-.6-2-1.1-3-1.6-3.9-1.9-7.8-3.7-11.7-5.5-.4-.2-.7-.3-1.1-.5h-.1c-.6.6-1.2,1.3-1.7,2v.3c.1,0,.3.2.4.3,1.1.6,2.1,1.2,3.2,1.8,2.6,1.5,5.2,3.1,7.9,4.6,1.1.6,2.1,1.3,3.1,2.1,1.8,1.3,3.6,2.7,5.4,4,2.2,1.6,4.5,3.2,6.8,4.6,3.6,2.2,7.5,3.8,11.6,4.9,2.3.6,4.6,1,7,.9,2.2,0,4.2-.5,6.2-1.2,1.1-.4,2.1-1.1,2.8-2.1.3-.4.6-.8.8-1.2.8-1.3,1.2-2.7,1.4-4.2.2-1.1.2-2.3,0-3.4-.1-1-.3-2-.7-2.9h.1Z"/>
    <path class="cls-1" d="M83.1,101c-.2,0-.4,0-.6,0h-1.2c-1.5,0-2.9-.5-4.2-1.2-1.5-.7-2.8-1.6-4-2.7-.3-.2-.5-.5-.8-.7-1.7-1.4-3.4-2.9-4.9-4.5-.9-.9-1.8-1.9-2.6-2.8-3.8-4.4-7-9.2-9.6-14.4-1.1-2.1-2-4.3-2.9-6.5,0-.2-.2-.4-.3-.6h-.2c0,0-.2.2-.3.3-.5.7-1.1,1.4-1.6,2.1-.8,1.1-1.7,2.1-2.8,2.9h0v.3c0,.2.2.5.3.7.9,1.9,1.8,3.8,2.7,5.7,1.2,2.6,2.5,5.1,4,7.5,1.7,2.9,3.6,5.7,5.5,8.5.7,1.1,1.6,2.1,2.4,3.1,2.1,2.4,4.6,4.3,7.5,5.8.7.4,1.4.7,2.1.9,1.2.4,2.5.8,3.9.7.6,0,1.3,0,1.9-.2,1.3-.3,2.4-.8,3.6-1.4.8-.5,1.5-1.1,2.1-1.9.2-.3.4-.7.5-1.1,0-.2,0-.5-.3-.6l-.2.2Z"/>
    <path class="cls-1" d="M112.8,50.4c.3,0,.5-.2.8-.2,1.7-.5,3.3-.9,5-1.2,1.4-.3,2.9-.5,4.3-.6,1.5,0,2.8.4,3.7,1.7,0,.2.2.3.4.5,0,0,0,.2.2.2.3.3.8.2,1,0,.2-.2.3-.5.3-.7v-2.5c0-.6-.3-1.2-.5-1.7-.5-1.1-1.3-1.8-2.4-2.1s-2.3-.4-3.4-.3c-.9,0-1.7.2-2.6.5-2.3.6-4.6,1.3-6.9,2-2.7.8-5.4,1.7-8.1,2.4-1.4.4-2.8.7-4.2,1-1.1.2-2.2.3-3.3.3s-1.6,0-2.4-.2c-.4,0-.9-.2-1.2-.4-.4-.2-.6-.6-.6-1v-1.2c0-.2,0-.3,0-.5,0-.4-.2-.7-.6-.7h-.6c-1.1.3-2,.9-2.5,2-.2.3-.2.6-.3,1,0,1.4.5,2.6,1.6,3.4.6.4,1.2.7,1.9.9,1.4.3,2.8.4,4.2.3,1.1,0,2.3,0,3.4-.3,2.1-.3,4.2-.6,6.3-1,.4,0,.8-.2,1.2-.2s.3,0,.3.2v1.9c0,2.6-.2,5.2-.3,7.8v.6c0,2.3-.2,4.6-.3,6.9,0,1.7-.2,3.4-.5,5-.2,1.1-.4,2.2-.9,3.2-.2.4-.3.8-.4,1.2v.5s0,.3.2.3h8.1c.2,0,.3-.2.3-.4,0-.3-.2-.6-.3-.9-.8-1.8-1.1-3.6-1.1-5.5,0-4.5.2-9,.3-13.5v-1c0-2.1,0-4.2.2-6.3v-.3c-.5-.3-1.1-.2-1.6-.6.3,0,.6-.2.8-.2s.5,0,.7-.2h-.3Z"/>
    <path class="cls-1" d="M72.7,85.5h.5c.4,0,.8-.2,1.3-.3,1.2-.3,2.4-.3,3.6-.2,1.5,0,2.9.7,4.1,1.6,1.4,1.2,2.9,2.5,4.2,3.8.9,1,1.9,1.9,3,2.7,1.5,1.2,3.2,2.3,4.9,3.2,1.5.7,3.1,1.2,4.9,1.3,1.4,0,2.8,0,4.1-.3,1.4-.3,2.8-.8,4-1.6,1.5-1,2.7-2.2,3.6-3.7.8-1.5,1.1-3,.7-4.7-.4-1.6-1.2-2.8-2.6-3.8-.5-.4-1.1-.6-1.7-.8-1.4-.4-2.8-.6-4.2-.5-1.7,0-3.4.3-5,.6-2.8.6-5.6,1.3-8.4,2.2-.2,0-.3,0-.5.2v.2c.4.4,1.9,1.8,2.5,2.2.3,0,.6-.2.9-.3,2.4-.7,4.8-1.4,7.3-1.6,1.1,0,2.3,0,3.4,0,.6,0,1.2.3,1.7.6.3.2.6.4.8.7.5.7.5,1.3,0,2-.2.3-.4.6-.7.8-.3.2-.7.5-1,.7-1.2.6-2.4,1-3.7,1.2-1.2,0-2.4,0-3.5-.2-2.1-.4-4-1.5-5.6-2.9-.9-.8-1.8-1.7-2.8-2.5-.9-.8-1.8-1.5-2.8-2.2-.8-.6-1.7-1.1-2.7-1.4-1.7-.7-3.3-.8-5.1-.3-1.7.4-3.2,1.1-4.7,2-.3.2-.5.4-.8.6,0,0-.2.2-.2.3,0,.2,0,.4.3.4h0Z"/>
    <path class="cls-1" d="M228,61.1c.4,0,.9,0,1.3-.2.7,0,1.5,0,2.2,0,.7.2,1.3.5,1.7,1.2,0,.2.2.3.3.5.3.4.7.6,1.1.7.7.2,1.4.3,2.1.2.2,0,.3,0,.5-.2.3-.2.5-.5.6-.9,0-.2-.1-.4-.2-.7,0,0-.1-.2-.2-.3-.4-.7-.8-1.5-1.1-2.3,0-.2-.1-.4-.2-.6-.2-.4-.4-.6-.8-.7-.2,0-.5,0-.7,0h-14.1s-.2,0-.2.2v.4c.1.2.3.5.5.7.6.7.8,1.5.9,2.3v2.5c0,1.1.2,2.2.2,3.2s.1,2.9.3,4.3c.2,1.8.2,3.6.3,5.4v1.1c0,.9-.3,1.7-.8,2.4-.1.2-.3.4-.4.6-.3.4,0,.8.5.8h.3c.5,0,.9,0,1.4,0,.5,0,.9,0,1.4,0,1.6,0,3.2,0,4.8,0,1.8,0,3.5,0,5.3,0h.9c.3,0,.5-.2.7-.4.2-.4.5-.8.7-1.2.4-.9.7-1.9,1-2.9,0,0,0-.3-.1-.4l-.5-.5c-.1,0-.3,0-.4,0-.5,0-1,0-1.5,0s-.9.4-1.2.9c-.1.2-.3.5-.4.7-.3.4-.8.7-1.3.9h-2.7c-.6,0-1.1,0-1.7,0h-1s-.1,0-.1,0v-.2c.2-.2.4-.4.6-.6s.2-.3.2-.5c0-.7-.2-1.4-.3-2.1,0-.6,0-1.1-.1-1.7,0-.2,0-.5.1-.7.5-.8,1-1.6,1.7-2.2.3-.2.5-.4.9-.5h.6c.2,0,.4.2.6.4.2.2.3.5.4.8,0,.4.2.8.2,1.2v.5c0,0,.2.2.3.2.2,0,.3,0,.4-.2.5-.5.8-1,1-1.6.4-1.2.3-2.4-.4-3.5-.9-1.4-3.1-2.3-5-.9-.3.2-.6.5-.9.8-.1,0-.2.2-.3.2h-.2v-1c0-1.6,0-3.2-.1-4.8q0-.8-.4-1.5h1.4v.3Z"/>
    <path class="cls-1" d="M96.9,67.1c0,.4-.2.9-.3,1.3v.2h-.3c-.4-.5-.8-.9-1.2-1.4-1.5-1.5-3.2-2.8-5.1-3.8-.5-.3-1.1-.6-1.6-.9-.4-.3-.8-.6-1.1-1-.5-.6-.6-1.3-.4-2.1,0-.3.2-.6.3-1,0-.2,0-.3,0-.5s0-.4-.3-.4h-1.5c-.5,0-.9,0-1.4,0-.8,0-1.6.2-2.4.3-.3,0-.7,0-1,.2,0,0-.2,0-.3,0v.3c0,0,.3.2.4.3.3.2.6.4.8.6.6.6,1,1.3.9,2.2v.9c0,.5-.2.9-.3,1.4-.4,2-.7,4-.7,6v6.8c0,.8-.2,1.6-.7,2.3-.2.3-.3.6-.5.9v.4c0,.2.2.4.3.5h.2c1.1,0,2.3.2,3.4,0h.4c0,0,.3-.2.3-.4v-.6c0-.5-.3-.9-.4-1.4-.2-1.5-.4-3.1-.4-4.6s0-2,.2-3c.2-1.3.4-2.6.9-3.8,0-.3.3-.7.4-1,0,0,.2-.2.4,0,0,0,.2,0,.3,0,2,1.1,3.9,2.3,5.7,3.6.7.5,1.3,1,1.9,1.5.4.4.8.8,1.1,1.2.4.5.7,1.1.9,1.8.3,1,.2,2-.3,2.9-.2.3-.3.5-.5.7-.2.3-.4.5-.6.8,0,0,0,.3-.2.5,0,0,0,.3.2.3h3.6c.6,0,1.2,0,1.8-.2.3,0,.5-.5.4-.8,0,0,0-.2-.2-.3-.2-.2-.3-.4-.5-.7-.4-.5-.6-1-.6-1.6v-1.6c0-2.3.4-4.5.9-6.7.4-1.6.8-3.3,1-4.9.2-1.2.2-2.5,0-3.7,0-1.4-.8-2.6-1.9-3.6-.4-.3-.8-.6-1.2-.7-1.1-.4-2.1-.3-3,.3-.7.5-1.3,1.2-1.7,2,0,0,0,.2,0,.4v.4c0,.2.3.4.5.4.3,0,.5-.2.8-.3s.6,0,.9,0,.5,0,.6.3c.2.2.4.4.6.7.2.4.3.8.4,1.1.2.6.2,1.2.3,1.8,0,.8,0,1.6,0,2.3-.2,1.1-.4,2.2-.6,3.3h.3Z"/>
    <path class="cls-1" d="M61.7,81.5h.5c.4,0,.7,0,1.1,0,.5,0,1-.2,1.5-.2,2.1,0,4.3,0,6.4,0h2.4c.8,0,1.9,0,2.8-.2.6,0,1.2-.3,1.5-.9,0,0,.2-.3.3-.4.5-.9.9-1.9,1.3-2.9v-.5c0-.2,0-.3-.2-.5s-.3-.3-.5-.3c-.8,0-1.5,0-2.2.3-.4,0-.7.3-.9.6-.3.4-.5.7-.8,1.1s-.7.6-1.2.7-1,.2-1.5.2h-4.5c.2-.3.7-.4.7-.8v-1.9c0-.6,0-1.1,0-1.7,0-.2,0-.5.2-.7.6-1,1.4-1.8,2.4-2.5.3-.2.6-.3.9-.4h.6c.6,0,1.2.9,1.1,1.6v.6c0,.2.2.4.4.4s.4,0,.6-.2c.8-.7,1.3-1.5,1.4-2.6,0-.4,0-.9,0-1.3-.4-1.3-1.6-2.2-2.9-2.3-.7,0-1.3,0-1.9.3-.4.2-.8.4-1.2.6-.3.2-.5.4-.8.6,0,0-.2,0-.2.2h0s0,0,0,0v-5.2c-.3-.5-.7-.9-.9-1.4h.2c.6.2,1.2.2,1.9,0,1-.2,2-.3,3-.3s1.6.3,2.3.8c.2.2.5.4.7.6.7.7,1.5,1,2.5.9h.4c.4,0,.7,0,.9-.4,0-.2.2-.3.3-.5-.4-.9-.8-1.7-1.2-2.4,0-.2-.2-.5-.4-.7,0-.2-.2-.4-.4-.6-.2-.3-.5-.5-.9-.5h-1.6c-.9,0-1.8,0-2.6,0h-1.1c-1.4,0-2.8.2-4.2.3-1.1,0-2.3.2-3.4.3-.4,0-.9,0-1.3.2-.2,0-.3,0-.5.2,0,0,0,.2,0,.3,0,0,.2.2.2.3.5.5.8,1.1,1,1.8.2.8.2,1.5.2,2.3v4.2c0,2.4-.2,4.9-.3,7.3,0,.6,0,1.3-.2,1.9-.2,1.1-.4,2.2-1,3.1,0,0,0,.2-.2.4v.3s0,.2.2.2h-.6Z"/>
    <path class="cls-1" d="M237.3,96.1c.8-.8,1.6-1.7,2.4-2.6.4-.5.9-1,1.3-1.5.7-.8,1.4-1.7,2.2-2.5.6-.8,1.4-1.4,2.2-1.9.7-.4,1.4-.6,2.2-.5.6,0,1.1,0,1.7.2.5,0,.9.2,1.4.3h.4c.2,0,.4-.3.3-.5,0-.3-.3-.5-.5-.7-.9-.8-1.8-1.4-2.9-1.9-1.2-.5-2.4-.5-3.5,0-.5.2-1,.5-1.5.8-1.1.7-2.1,1.6-3,2.6-.3.4-.6.7-1,1l-2.2,2.2c-.3.3-.7.6-1,.9-1,.8-2.2,1.5-3.5,1.9-1.5.5-3.1.5-4.6,0-.5-.2-1-.4-1.4-.8-.4-.3-.7-.7-.9-1.2-.2-.4-.3-.8-.2-1.3,0-.8.5-1.3,1.1-1.7.5-.3,1-.5,1.6-.5h2.5c1.8.2,3.5.7,5.2,1.3.3,0,.5.2.8.3h.5c.6-.6,1.2-1.1,1.7-1.7v-.2c-.1,0-.3-.2-.4-.2-1.5-.6-3-1.2-4.6-1.7-.8-.3-1.7-.5-2.5-.7-1.2-.3-2.5-.4-3.7-.3-1.8,0-3.4.8-4.6,2.2-.9,1-.8.8-.6,2.1.3,2.1.8,4.2,1.4,6.3.2.7.4,1.5.6,2.2,0,.3.3.5.5.7.6.4,1.2.7,1.8.9,1.7.6,3.4.6,5.1.3,1.3-.3,2.5-.8,3.6-1.6.8-.5,1.5-1.1,2.2-1.8v-.4Z"/>
    <path class="cls-1" d="M84.5,90c-.4-.5-1.7-1.7-2.4-2.1-.3,0-.6.2-.9.3-3.7,1.3-7.3,2.6-11,3.8-.2,0-.3,0-.5.2v.2s0,.2.2.2c.8.9,1.8,1.7,2.7,2.4.2.2.4.2.7,0,.7-.3,1.4-.7,2.1-1,2.7-1.2,5.5-2.3,8.2-3.5.3,0,.7-.2,1-.5v-.2.2Z"/>
    <path class="cls-3" d="M146.2,97.5c.1.2.3.5.5.6.8.5,1.5,1,2.3,1.5.1,0,.2,0,.3,0,.9-.7,1.9-1.4,2.8-2.1,0,0,.1-.2.2-.3v-1.9c0-.3,0-.7-.2-1-.4-1-1-1.8-1.8-2.5-.3-.3-.7-.5-1.1-.7-.2,0-.4-.2-.7,0-.5.4-1,.8-1.5,1.2-.4.3-.8.7-1.3,1,0,0-.2.2-.2.3,0,.9,0,1.8.2,2.7,0,.5.3.9.5,1.3Z"/>
    <path class="cls-3" d="M148.9,90.3c.7.5,2.8,2,3.4,2.3.7-.3,1.4-.6,2.1-1h0v-.2c-.4-.4-.8-.7-1.2-1.1-1.1-1-2.2-1.9-3.3-2.8-.3-.2-.6-.4-.8-.6-.1,0-.3,0-.3.2v3.2h.1Z"/>
    <path class="cls-4" d="M145.6,92.7c.9-.7,1.8-1.4,2.7-2.1.2,0,.2-.3.2-.5v-1.4h0v-1.1c0-.2,0-.4-.2-.5-.2,0-3.6,3.2-4.8,4.4-.6.5-.7.6.2.9.4,0,.9.4,1.3.5.2,0,.6-.2.6-.2Z"/>
    <path class="cls-4" d="M148.9,103.3v-1.6h0v-1.4c0-.2-.1-.4-.3-.5-.9-.6-1.8-1.2-2.8-1.9h-.5c-.2,0-.5.3-.7.4-.3.2-.5.5-.6.8s0,.6.2.8h.1c1.3,1.2,2.6,2.3,4,3.3,0,0,.2,0,.3,0h.3Z"/>
    <path class="cls-3" d="M151.1,98.7c-.5.4-.9.7-1.4,1.1-.2.2-.3.4-.3.6v1.3h0v1.6s.1,0,.1,0c.1,0,.3-.2.4-.3,1.2-1,2.4-2.1,3.6-3.3h.1c.4-.5.4-.9.1-1.4-.1-.2-.2-.3-.4-.4l-.6-.3c-.2,0-1.6,1.1-1.6,1.1Z"/>
    <path class="cls-3" d="M154.9,97.7v-5.2c-.2-.3-.8-.4-1.1-.3-.4.2-.8.4-1.1.6v4s.1,0,.2.2c.6.3,1.2.6,1.8.8h.2s0,0,0,0Z"/>
    <path class="cls-4" d="M143,98.2h0c0,0,.2.2.3.2.6-.2,1.1-.6,1.7-.9.2,0,.3-.3.3-.6v-2.7c0-1.1-1.2-1.4-1.3-1.4h-.3c-.7.2-.9.5-.9,1.2v1.4c0,.9.1,1.9.2,2.8Z"/>
    <polygon class="cls-1" points="159.3 104.9 159.3 104.9 159.3 105 159.3 104.9"/>
    <g>
      <path class="cls-1" d="M146,22.9v-.7.3c0,.1,0,.2.1.3h-.1Z"/>
      <path class="cls-1" d="M146,22.9h0Z"/>
      <path class="cls-1" d="M145.9,22.3h0Z"/>
      <polygon class="cls-1" points="145.4 21.3 145.4 21.3 145.3 21.3 145.4 21.3"/>
    </g>
    <g>
      <path class="cls-2" d="M151.3,26.2h-.9c0,.2,0,.4.1.5.2.3.4.6.7.8.4.4.8.8,1.1,1.3h.2v-.3c0-.3-.1-.6-.3-.8-.2-.2-.4-.4-.6-.6-.3-.2-.4-.5-.4-.9h0Z"/>
      <path class="cls-2" d="M152.2,24.4h-.1.1Z"/>
      <path class="cls-2" d="M151.3,26.2c.1,0,.2,0,.2-.2-.1,0-.2,0-.2.2Z"/>
      <path class="cls-2" d="M151.3,24.6c.3.3.4.7.2,1.1v.3h.2c.2-.1.2-.3.2-.5v-.8c0-.3,0-.1.2-.2v-.3c-.2-.2-.4-.3-.6-.4-.3-.2-.6-.5-.6-.9h0c-.1.4,0,.7.2,1.1.1.2.3.4.5.6h-.3Z"/>
      <path class="cls-2" d="M151.1,28.9c-.1.2-.2.4-.3.6v.3h0c.2-.3.3-.6.4-.9h0Z"/>
      <path class="cls-2" d="M148.2,18.8h0q0-.1,0,0h.1-.1Z"/>
      <path class="cls-2" d="M148.4,21.8v-.9s.1-.2.2-.2h.3c.1,0,.2,0,.2-.2s-.2-.5-.3-.7c0,0-.1,0-.2-.1,0,.2,0,.3-.1.5,0,.1-.2.2-.3.1,0,0-.2-.1-.2-.2-.1-.2,0-.5,0-.7s.1-.4.2-.5h-.1c-.1.2-.3.3-.4.5-.3.6-.2,1.2.2,1.7.2.2.4.5.7.7h-.2Z"/>
      <path class="cls-2" d="M149.5,20.6s0-.1-.1,0h0v.5c.1-.1.2-.3.1-.4h0Z"/>
      <path class="cls-2" d="M150.6,24.8h0Z"/>
      <path class="cls-2" d="M153,23.8c.3.4.2.9,0,1.3v.4h0c.2-.2.5-.5.7-.7v-1.3h-.2s-.2,0-.2-.1v-.7c0-.2.2-.3.2-.5-.3,0-.5.3-.6.6-.2.3-.2.6,0,.9,0,0,0,.2.1.3v-.2Z"/>
      <path class="cls-2" d="M152.3,34.6h.1c.6-.3,1-.8,1.1-1.5,0-.5-.1-.9-.4-1.2-.2-.2-.5-.5-.7-.7-.3-.3-.3-.6-.2-.9,0-.1,0-.3.1-.4,0-.2,0-.5-.3-.6,0,.2,0,.4-.1.6,0,.2-.2.4-.3.5-.1.3-.1.6,0,.9.2.2.4.5.5.7.2.3.4.5.6.8.3.4.3.8,0,1.1-.2.2-.4.5-.5.7h0Z"/>
      <path class="cls-2" d="M153.7,25.8c-.4.4-.4.8-.1,1.3,0,.1.2.2.2.3.2.3.2.6,0,1,0,.2-.2.3-.3.5s-.3.4-.4.6c-.2.4-.2.8,0,1.1,0,0,.1.2.2.2.4.4.7.8.9,1.3,0,0,.1.2.2.3v-.9c-.1-.3-.3-.6-.5-.9-.5-.6-.4-.8,0-1.4,0-.1.2-.3.3-.4,0-.1.2-.3.2-.5v-.6c0-.2-.2-.4-.3-.6v-.5h0c.4.3.8.5,1.3.8h0v-.2c0-.1-.2-.3-.3-.4s-.3-.2-.5-.4c-.4-.3-.3-.6-.2-.9,0-.1.2-.3.2-.5v-.2h-.2c-.3.3-.6.6-.9.8,0,0-.1,0-.1.1h.3Z"/>
      <path class="cls-2" d="M138.1,106h0Z"/>
      <path class="cls-2" d="M155.2,28.4c0,.5-.2.8-.6,1.1,0,0,0,.1-.1.2-.2.2-.2.5,0,.8,0,.2.2.4.3.5.3.4.5.8.4,1.3v.2c.2-.4.3-.6.2-1,0-.3-.1-.7-.3-.9-.3-.3-.2-.6,0-.9,0-.1.2-.2.2-.3.3,0,.3.3.5.3.1-.3,0-.5-.2-.8-.1-.2-.2-.4-.6-.5h.2Z"/>
      <path class="cls-2" d="M152.9,25.8v-.3q-.1,0-.2.2v.2h.2Z"/>
      <path class="cls-2" d="M153.7,22c0-.2.1-.4.2-.5h0c-.2.2-.3.4-.2.7h.1v-.2Z"/>
      <path class="cls-2" d="M153.8,23.2v.3c.1,0,.2-.1.2-.3h0c0-.1-.2,0-.2,0Z"/>
      <path class="cls-2" d="M159.7,105.9h0c0,0,0,0,0,0Z"/>
      <path class="cls-2" d="M144.4,33.7h0c.3.6.8,1,1.4,1.1h0c-.5-.4-.9-.7-1.4-1.1Z"/>
      <path class="cls-2" d="M148.5,21.8h0Z"/>
      <path class="cls-2" d="M149.4,35.4c.5,0,.9-.2,1.4-.4.3,0,.5-.3.7-.5.3-.3.4-.6.3-1.2-.1.2-.2.3-.3.5-.2.5-.6.6-1.1.5-.3,0-.5-.3-.3-.6,0,0,.1-.2.2-.3.2-.2.3-.3.5-.5.5-.5.5-1.5,0-1.9-.3-.3-.5-.5-.8-.8h0v.3c.1.3.3.5.5.7.3.4.3.8,0,1.3-.1.2-.3.4-.5.5-.2.2-.4.3-.5.5-.3.3-.5.7-.5,1.2v.5c0,0,.2.2.3.2h.1Z"/>
      <path class="cls-2" d="M145.9,34.9h0c0,0,.1,0,.2,0h0c0,0-.1,0-.2,0Z"/>
      <path class="cls-2" d="M146.2,31.1c-.2-.2-.4-.4-.6-.6-.2-.2-.3-.4-.5-.6-.2-.4-.2-.8,0-1.2,0-.2.2-.4.3-.6.2-.3.3-.6.3-1,0-.6,0-1.1-.5-1.5v.4c.2.5,0,.9-.1,1.3-.1.2-.3.4-.5.7-.4.6-.4,1.2-.1,1.8.1.3.3.6.5.8.1.2.3.4.5.5.3.3.5.7.7,1.1,0,.2.2.4,0,.6,0,0-.4.2-.7,0-.4,0-.7-.4-.9-.7-.3-.4-.4-.8-.4-1.2v-.7c0-.2,0-.3-.1-.5,0-.2-.2-.4-.5-.3v1.1c0,1,.4,1.9,1.1,2.6.7.6,1.4,1.1,2.3,1.5h.1v-1.5c0-.5-.1-.9-.4-1.2-.2-.3-.5-.6-.7-.9h.2Z"/>
      <path class="cls-2" d="M168.4,85.4c-.6-1.2-1.5-2.3-2.4-3.2-.9-.9-1.8-1.7-2.8-2.4h0c-.3-.2-.9-.6-1.2-.8h0c-.6-.3-1.3-.7-1.9-1-1-.5-.8-.2-1.3-1.3-2.8-6.6-5.5-13.3-8.3-19.9-.5-1.3-1.1-2.6-1.6-3.8,0-.2-.1-.4-.3-.5-.2.3-.3.6-.4.9-2.6,6.4-5.2,12.8-7.8,19.1-.7,1.7-1.4,3.4-2.1,5.1-.3.8-.2.6-1,1.2-.7.5-1.4,1-2.1,1.5,0,0-.1,0-.2,0h0s-1,1-1.4,1.2h0c-.2.2-.3.4-.6.6-.2,0-.3.3-.5.5-.7.7-1.3,1.4-1.8,2.2-.4.5-.7,1.1-.9,1.7h0c.2-.2.3-.4.5-.6,3-4.1,7-6.5,12-7.5h.6c.3,0,.8-.2,1.5-.3.2,0,.4,0,.7,0,.5,0,1.1-.2,1.8-.2s.9,0,1.3,0h3.6c.6,0,1.2,0,1.7,0h1.2c.8,0,1.4.2,1.9.3.9.2,1.3.3,1.3.3h.2c4.2,1.2,7.6,3.5,10.3,7,.2.2.4.5.6.7h.2c0-.3-.2-.6-.3-.9h-.5Z"/>
      <path class="cls-2" d="M168.8,86.5h0c0,0,0,0,0,0h0Z"/>
      <path class="cls-2" d="M148.9,31.6c-.2-.2-.4-.4-.6-.7-.1-.1-.3-.3-.4-.5v-.3c.1.1.3.3.4.4.2.1.3.2.5.3.1,0,.2,0,.4.1h0v-.2c-.2-.2-.4-.4-.6-.7-.2-.3-.1-.7.1-.9.1,0,.2-.2.3-.2.2-.2.3-.4.3-.6,0-.4-.1-.7-.3-.9-.2-.3-.4-.5-.5-.7s-.3-.4-.3-.6h0c.3.2.6.4.9.6.3.2.6.5.8.8,0,.1.2.2.3.4v-.3c0-.4-.3-.7-.5-1-.2-.2-.3-.5-.4-.8,0-.3,0-.8.4-1s.4-.1.6,0v-.4c-.1-.2-.3-.3-.4-.5-.2-.2-.3-.3-.5-.5-.3-.4-.4-1,0-1.4.1-.1.2-.3.2-.4,0-.2,0-.4-.1-.6-.1-.1-.2,0-.4,0,.2.1.2.3.1.4,0,.2-.1.3-.2.4-.3.4-.4.9-.1,1.4.2.3.3.6.3,1s0,.6-.2.9c-.1.2-.5.4-.8.2-.2-.1-.4-.4-.3-.7,0-.2.2-.4.3-.6,0-.1,0-.3.1-.4h-.2c-.1.2-.3.4-.4.6-.4.4-.4.9-.3,1.4.1.5.3.9.6,1.3.1.2.3.4.4.6.2.3.2.6.2.9,0,.5-.6.9-1.1.9s-.4-.1-.5-.3c-.1,0-.2,0-.3.1v.2c0,.4,0,.7.2,1,.2.2.4.4.6.6.3.3.4.7.3,1.1,0,.2,0,.3-.1.5,0,.2-.1.3-.2.5-.1.4-.2.7,0,1.1h0c.2-.5.5-1,.8-1.4,0,0,.2-.2.2-.3.2-.3.1-.5,0-.8h.4Z"/>
      <path class="cls-2" d="M145.2,25.7h0Z"/>
      <path class="cls-2" d="M146,28.5c-.3.4-.3.9-.1,1.4,0,0,.1.1.2.2v-.5c0-.7.4-1.2.9-1.7.2-.2.5-.3.8-.1,0,0,.2,0,.2-.1,0-.3,0-.5-.1-.8s-.3-.6-.6-.8c-.3-.3-.5-.7-.5-1.2v-.3h-.2c-.1.1-.1.3,0,.5,0,.3.2.6.4.9.2.2.3.4.4.7,0,.2,0,.6-.3.8h-.2v-.5c0-.2-.1-.2-.3-.2v-.2.2c.1.3.1.5,0,.8s-.3.7-.5,1h0Z"/>
      <path class="cls-2" d="M143.8,28.7c.1-.3.3-.5.6-.7,0,0,.2-.2.2-.3,0-.3,0-.5-.3-.7,0,.4-.2.8-.6,1.1,0,0,0,.1-.1.2v.4c0,.1.2.2.2,0h0Z"/>
      <path class="cls-2" d="M146,23.7v-.7h.1c0,.3.1.7.2,1,0,0,.2,0,.2-.2.2-.3.2-.7.1-1.1,0-.2-.1-.5-.2-.7h0c.4.2.6.7.7,1.2v.5h.1c.3-.4.3-.9,0-1.4-.1-.2-.3-.4-.5-.6-.3-.4-.5-.8-.6-1.3v-.2h0v.6c0,.1,0,.2-.2.2s-.2,0-.2-.1-.1-.2-.1-.4v-.7c.2-.5.3-1,.5-1.4,0-.2.1-.5,0-.7v-.6s-.1-.1-.2-.2h0c.2.8,0,1.5-.5,2.1-.2.2-.2.5-.3.7v1.6c-.1-.2-.2-.3-.3-.5-.2-.4-.2-.8,0-1.2,0-.2.1-.4.2-.6h-.1c-.2,0-.3,0-.4-.3v-.5s-.2,0-.3.1-.3.3-.4.5c-.1.2-.2.5-.2.8h.1s.1,0,.2-.1v.3c0,.9.2,1.6.9,2.1.3.2.5.6.6.9,0,.3.1.5.3.7l.3.2Z"/>
      <path class="cls-2" d="M143.8,23.8v.7c0,.2.1.5.3.6h0v-1.3c0-.2-.1-.4-.3-.5-.2-.2-.4-.2-.6,0v-.3.3c.4,0,.5.3.6.6h0Z"/>
      <path class="cls-2" d="M143.6,26.6c0-.2.2-.4,0-.7,0,0-.2.1-.2.2-.1.3-.2.6-.2.9s0,.6-.3.9c0,0-.1.2-.2.3-.2.3-.3.7-.3,1.1,0,.6.2,1.2.6,1.8h0v-.6c0-.3-.2-.5-.2-.8-.1-.5,0-.9.2-1.4.1-.2.3-.4.4-.6,0-.1.1-.3.1-.5v-.6h0Z"/>
      <path class="cls-2" d="M143.2,31h0c0,.1,0,0,0-.1h-.1c0-.1.1.1.1.1Z"/>
      <path class="cls-2" d="M144.2,26.9h0c0-.1,0,0,.1,0h-.1Z"/>
      <path class="cls-1" d="M197.1,105.1c0-.3-.2-.5-.5-.6-.7-.2-1.3-.3-2,0-.3.2-.6.4-.9.6-.3.2-.7.3-1.1.3s-.6,0-.9,0c-1.4-.3-2.8-.8-4.1-1.4-1.8-.8-3.3-2.1-4.5-3.6-.9-1.2-1.7-2.4-2.4-3.8-1.2-2.5-2.4-4.9-3.5-7.4-1.1-2.6-2.2-5.2-3.3-7.8-3.2-7.7-6.5-15.4-9.7-23-2.8-6.6-5.5-13.3-8.2-19.9-.3-.8-.7-1.6-1-2.4-.2-.4,0-.7.1-1,.1-.2.2-.3.4-.4.2,0,.3,0,.5-.2l.2-.2c0-.5,0-.9-.3-1.3-.1,0,0-.3,0-.4,0,0,.1-.2.2-.3.5-.8.8-1.6.8-2.5.2-.3.4-.5.6-.8.2-.2.2-.5,0-.8,0-.1-.2-.3-.3-.4-.3-.3-.6-.6-1-.9-.3-.2-.5-.4-.4-.8v-.7c0-.4-.1-.7-.4-1-.3-.2-.5-.4-.8-.6-.1-.1-.2-.3-.2-.4v-1.4c0-.3,0-.7-.2-1-.2-.5-.5-.9-.9-1.3v.2c0,.2.2.4.3.7,0,.2.1.5,0,.7-.3.6-.6,1.1-.9,1.7,0,.1-.2.2-.3.3-.1.1-.4.1-.6,0-.2-.1-.2-.3-.2-.4,0-.3.1-.6.1-.9,0-.6-.2-1.1-.7-1.5-.2-.1-.5-.2-.7-.3-.2,0-.4-.2-.7-.3-.5-.2-.7-.6-.7-1.2s.1-.6.1-.9v-.5s-.2-.2-.3-.2c-.2,0-.4.2-.5.3-.2.2-.3.4-.5.7-.1.2-.3.5-.4.7,0,0-.1,0-.2.1-.2,0-.5-.2-.5-.4v-.2c.2-.7.1-1.3-.2-2-.2-.3,0-.7,0-1s0-.3.2-.5c.2-.3.4-.5.6-.8h-.2c-.5.3-.9.7-1.2,1.2-.1.2-.2.4-.2.7v.7c0,.4,0,.6-.4.6h-.4c-.8.2-1.3.6-1.7,1.3-.5,1-.3,2.3.5,3.1.3.3.6.6.9.9.5.5.7,1.2.8,1.9v.4s-.1.1-.2.2c-.3-.9-.4-1-1-1.6-.2-.2-.4-.3-.6-.4-.5-.4-.8-.8-1.1-1.3,0-.1-.1-.2-.2-.3h-.3s-.1,0-.1.1c-.2.6,0,1.1.3,1.5.1.2.3.4.5.6s.4.5.5.8c.3.5.2,1-.2,1.4-.2.2-.3.3-.5.5-.5.4-.7,1-.7,1.6s0,.7.1,1.1c.2.6.3,1.3.3,1.9v.7c.1.8.4,1.5,1,2.1.2.2.4.4.6.6.3.3.6.6.8.9h0c.4.2.8.6,1,.7,1.1.7,2.3,1,3.6,1-.3.4-2.2.2-2.8,0s-1.5-.7-2.1-1h-.1c-.1.2-.2.5-.3.7-.5,1.2-1,2.4-1.5,3.5-4.7,11-9.3,21.9-14,32.9-1.8,4.3-3.7,8.7-5.6,13-1.4,3.2-2.8,6.3-4.4,9.3-.6,1.2-1.3,2.4-2,3.5-.8,1.2-1.8,2.3-3,3.2-2,1.5-4.4,2.4-6.9,2.8h-1.5c-.4,0-.8-.2-1.1-.5,0,0-.2-.3-.3-.4,0-.2-.3-.2-.5-.2-.4,0-.8,0-1.2.2-.2,0-.4.2-.5.5v.3c0,.7,0,1.4.2,2,.2,1,.7,1.9,1.6,2.5.5.4,1.1.7,1.7.9.9.3,1.9.5,2.9.6,1.9,0,3.8,0,5.6-.4,2.8-.5,5.4-1.4,7.9-2.8.2,0,.3-.2.5-.3.2,0,.2-.3.2-.4,0-.6-.2-1.1,0-1.7,0-.7,0-1.5.3-2.2,0-.5.2-1,.3-1.5h.2v.4c0,.7,0,1.3.2,2s.3,1.4.6,2.1c.2.5.5.9.9,1.3.7.7,1.4,1.4,2.2,2,1.5,1.1,3.1,2,4.9,2.5,1.1.3,2.3.5,3.5.6.5,0,1.1,0,1.6.2.8,0,1.7,0,2.5-.2,1.1-.2,2.2-.5,3.2-1.1,1-.5,1.8-1.2,2.4-2.2,1.1-1.8,1.3-3.7.5-5.7-.8-1.9-2.1-3.3-3.9-4.4h0c-.3,0-.8,0-.8.4v2.4c0,1.3-.6,2.5-1.4,3.5-.2.3-.5.5-.7.7l-.3.3s0-.2-.1-.3c.1-.2.2-.3.3-.6h-.3c-.3,0-.7,0-1,0-1.2,0-2.2-.5-3.1-1.4-.7-.8-1.2-1.7-1.5-2.7-.3-1.5-.3-3,0-4.4.5-1.9,1.4-3.7,2.5-5.3,1.1-1.5,2.5-2.7,4.2-3.6,1.3-.7,2.7-1.3,4.2-1.8,1.2-.4,2.3-.6,3.6-.7,1.5,0,3,0,4.4.2,2.3.3,4.5,1,6.6,2.1,1.6.8,3,1.9,4.1,3.4,1.2,1.5,2.1,3.2,2.7,5.1.4,1.3.5,2.6.4,3.9,0,.8-.3,1.5-.6,2.2-.8,1.6-2,2.6-3.8,2.8-.6,0-1.1,0-1.6-.2h0c-.1.2-.1.3,0,.4s.2.3.4.4h-.4c-.8-.5-1.3-1.3-1.6-2.2-.4-1.1-.6-2.1-.5-3.3v-1.2c0-.4-.5-.6-.8-.4s-.7.4-1,.7c-1.3,1-2.3,2.2-2.9,3.7-.3.9-.5,1.8-.5,2.7.2,2.3,1.2,4.1,3.3,5.3.6.3,1.2.6,1.8.8.7.2,1.4.3,2.2.5.8,0,1.6,0,2.4,0,1.2,0,2.3-.3,3.5-.5,1.6-.3,3.1-.8,4.4-1.7,1.6-1,3.1-2.2,4.3-3.7.2-.3.4-.6.5-.8.3-.5.5-1,.6-1.6.2-.9.4-1.7.4-2.6v-.7s.1,0,.1,0c.3.8.4,1.6.5,2.5.2,1.4.2,2.8-.4,4.1,0,0,0,.3.1.4,0,0,.2,0,.3.2.7.3,1.4.7,2.1,1,2.4,1,4.8,1.7,7.4,2.1,1,.2,2,.2,3,.2s1.8,0,2.6-.3c1.6-.4,3-1.1,4.2-2.1.6-.4,1-1,1.4-1.6s.5-1.3.3-2.1h.4ZM138.1,106h0ZM159.7,105.9h0c0,0,0,0,0,0ZM155.9,29.6c-.2,0-.2-.3-.5-.3,0,0-.2.2-.2.3-.2.3-.3.6,0,.9.2.3.3.6.3.9s0,.6-.2,1v-.2c0-.5,0-.9-.4-1.3-.1-.1-.2-.3-.3-.5-.1-.3,0-.5,0-.8,0,0,0-.1.1-.2.3-.3.6-.7.6-1.1.3,0,.4.3.6.5.1.2.3.5.2.8h-.2ZM154.8,24.9h.2v.2c0,.2-.1.3-.2.5-.2.3-.2.6.2.9.1.1.3.2.5.4.1.1.2.3.3.4v.2h0c-.4-.3-.8-.5-1.3-.8h0c-.1.1-.1.3,0,.5,0,.2.2.4.3.6v.6c0,.2-.1.3-.2.5,0,.1-.2.3-.3.4-.4.6-.4.8,0,1.4.2.3.4.5.5.9,0,.2.1.5,0,.7v.2s-.1-.2-.2-.3c-.2-.5-.5-1-.9-1.3,0,0-.1-.1-.2-.2-.3-.4-.3-.8,0-1.1.1-.2.3-.4.4-.6.1-.2.2-.3.3-.5.1-.3.1-.7,0-1,0-.1-.2-.2-.2-.3-.3-.5-.2-.9.1-1.3,0,0,0-.1.1-.1.3-.2.6-.5.9-.8h-.3ZM152.8,32.8c-.2-.3-.4-.5-.6-.8-.2-.2-.4-.5-.5-.7-.2-.3-.2-.6,0-.9,0-.2.2-.3.3-.5,0-.2,0-.4.1-.6.3.2.3.4.3.6s0,.3-.1.4c-.1.4,0,.7.2.9.2.2.5.5.7.7.3.3.5.7.4,1.2,0,.7-.4,1.2-1.1,1.5h-.1c.2-.2.4-.4.5-.7.2-.4.2-.8,0-1.1h0ZM152.8,25.7s0-.2.2-.2v.3h-.1v-.2h0ZM153.8,23.5v-.3h0c0,.2,0,.3-.2.4h.2ZM153.8,21.4h0c0,.2-.1.4-.2.5h-.1c0-.3,0-.5.2-.7v.2ZM152.9,22.7c.2-.2.3-.5.6-.6,0,.2-.2.3-.2.5v.7c0,.1.1.1.2.1h.2v1.3c-.2.2-.5.4-.7.7h0v-.4c.2-.5.2-.9,0-1.3,0,0,0-.2-.1-.3-.1-.3-.1-.6,0-.9v.2ZM152.3,27.7c.2.2.3.5.3.8v.3h-.2c-.3-.5-.7-.9-1.1-1.3-.3-.2-.5-.5-.7-.8,0-.1-.2-.3-.1-.5h.9c0,.3.1.6.4.9.2.2.4.4.6.6h0ZM151.2,28.9c0,.3-.2.6-.4.9h0v-.3c0-.2.2-.4.3-.6h0ZM151.3,26.2c0-.1,0-.2.2-.2,0,.1,0,.2-.2.2ZM152.2,24.4h.1-.1ZM150.7,22.9h0c0,.4.3.7.6.9.2.1.4.3.6.4v.3s-.2,0-.2.2v.8c0,.2,0,.4-.2.5h-.2v-.3c.2-.4,0-.8-.2-1.1-.2-.2-.3-.4-.5-.6-.2-.3-.3-.7-.2-1.1h.3ZM150.6,24.8h0ZM149.4,20.5h.1c0,.2,0,.3-.1.4v-.5h0ZM148.1,18.7s.1,0,0,.1h-.1c0-.1.1-.1.1-.1ZM147.6,19.4c0-.2.2-.3.4-.5h.1c0,.2-.1.4-.2.5v.7s.1.1.2.2c.1,0,.3,0,.3-.1,0-.2,0-.3.1-.5,0,0,.1,0,.2.1.1.2.2.5.3.7,0,0,0,.2-.2.2h-.3s-.2.1-.2.2v.9c-.2-.2-.4-.5-.7-.7-.4-.4-.5-1.1-.2-1.7h.2ZM148.5,21.8h0ZM145.1,22c-.7-.6-.9-1.3-.9-2.1v-.3h-.2c0,.1-.1.1-.1.1,0-.3,0-.5.2-.8.1-.2.2-.3.4-.5,0,0,.2,0,.3-.1v.5c0,.2.2.3.4.3,0,0,.2,0,.1,0,0,.2,0,.4-.2.6-.2.4-.1.8,0,1.2,0,.2.2.3.3.5v-1.6c0-.3.1-.5.3-.7.5-.6.7-1.3.5-2.1h0s.2.1.2.2v1.3c-.2.5-.3,1-.5,1.4,0,.2-.1.5,0,.7,0,.1,0,.3.1.4,0,0,.1.2.2.1,0,0,.2,0,.2-.2v-.5h0c0-.1,0,0,0,.1,0,.5.3.9.6,1.3.2.2.4.4.5.6.3.5.3,1,0,1.5h0s-.1,0-.1-.1v-.5c0-.5-.3-1-.7-1.3h0s-.1,0,0,.1c0,.2.1.5.2.7,0,.4,0,.7-.1,1.1,0,0-.1.1-.2.2,0-.4-.1-.7-.2-1h-.1v.7c-.2-.2-.3-.5-.3-.7,0-.4-.3-.7-.6-.9l-.3-.2ZM146.6,26.7v-.2.2c.2,0,.3,0,.3.2v.5s0,.1.2,0c.3-.2.4-.5.3-.8,0-.3-.2-.5-.4-.7-.2-.3-.4-.6-.4-.9v-.5h.2v.3c0,.5.2.8.5,1.2.2.3.4.5.6.8.1.3.2.5.1.8,0,.1-.1.2-.2.1-.3-.2-.6-.1-.8.1-.5.4-.8,1-.9,1.7v.5c-.1,0-.2-.1-.2-.2-.2-.5-.1-.9.1-1.4.2-.3.4-.6.5-1,.1-.3.1-.5,0-.8h0ZM145.3,25.7h0c0-.1,0,0,0,0ZM143.3,23.3v-.3.3c.2-.2.4-.1.6,0,.1.1.3.3.3.5v1.3h0c-.2-.2-.3-.4-.3-.6v-.7c0-.3-.2-.5-.5-.6h-.1ZM144.2,26.9h-.1.1ZM143.3,31.3h0q0-.1.1,0v.2-.2ZM143.1,28.3c-.2.4-.3.9-.2,1.4,0,.3.2.5.2.8v.6h0c-.4-.5-.6-1.1-.6-1.8s0-.7.3-1.1c0,0,.1-.2.2-.3.2-.3.3-.5.3-.9s0-.6.2-.9c0,0,.1-.1.2-.2.1.3,0,.5,0,.7v.6c0,.2,0,.3-.1.5s-.3.4-.4.6h0ZM143.6,28.6v-.4s0-.1.1-.2c.4-.3.5-.6.6-1.1.2.2.3.4.3.7s0,.3-.2.3c-.2.2-.4.4-.6.7h-.2ZM145.8,34.9c-.7,0-1.1-.5-1.4-1.1h0c.5.4.9.7,1.4,1.1h0ZM146.1,35h-.2c0,0,.1,0,.2,0,0,0,.1,0,0,0ZM147.2,34.7h-.1c-.8-.4-1.6-.9-2.3-1.5-.8-.7-1.1-1.6-1.1-2.6v-1.1c.3,0,.4.1.5.3,0,.1,0,.3.1.5v.7c0,.4.2.9.4,1.2.2.3.5.6.9.7h.7c.1-.2,0-.4,0-.6-.2-.4-.4-.8-.7-1.1-.1-.2-.3-.3-.5-.5-.2-.3-.4-.5-.5-.8-.3-.6-.3-1.2.1-1.8.2-.2.3-.4.5-.7.2-.4.3-.8.1-1.3v-.4c.5.4.5.9.5,1.5s-.1.7-.3,1c-.1.2-.2.4-.3.6-.2.4-.2.8,0,1.2.1.2.3.4.5.6s.4.4.6.6c.2.3.5.6.7.9.3.4.4.8.4,1.2v1.5h-.2ZM148.7,32.7c-.4.4-.6.9-.8,1.4h0c-.1-.4,0-.7,0-1.1s.1-.3.2-.5c0-.2.1-.3.1-.5,0-.4,0-.8-.3-1.1-.2-.2-.4-.4-.6-.6-.3-.3-.3-.7-.2-1v-.2c0-.1.2-.2.3-.1.2.1.3.3.5.3.5,0,1-.4,1.1-.9,0-.3,0-.6-.2-.9-.1-.2-.3-.4-.4-.6-.3-.4-.5-.8-.6-1.3s0-1,.3-1.4c.1-.2.3-.4.4-.6h.2c0,.1,0,.3-.1.4,0,.2-.2.4-.3.6,0,.3,0,.6.3.7s.7,0,.8-.2c.2-.3.2-.6.2-.9s-.1-.7-.3-1c-.3-.5-.2-1,.1-1.4,0-.1.2-.3.2-.4,0-.2,0-.3-.1-.4h.4c.1.2.2.4.1.6,0,.2-.1.3-.2.4-.3.4-.2,1,0,1.4.2.2.3.3.5.5.1.1.3.3.4.5v.4c-.2-.2-.4-.2-.6,0-.3.2-.5.6-.4,1,0,.3.2.6.4.8.2.3.4.6.5,1v.3c-.1-.1-.2-.2-.3-.4-.2-.3-.5-.6-.8-.8-.3-.2-.6-.4-.9-.6h0c0,.2.2.4.3.6.2.2.4.5.5.7.2.3.3.6.3.9s0,.5-.3.6c-.1,0-.2.2-.3.2-.3.2-.4.6-.1.9.2.2.4.5.6.7v.2h0c-.1,0-.3,0-.4-.1-.2,0-.3-.2-.5-.3-.2-.1-.3-.3-.4-.4-.2,0-.2.2,0,.3.1.2.2.3.4.5s.4.4.6.7c.2.2.2.5,0,.8,0,0-.1.2-.2.3h-.4ZM149.1,35.2v-.5c0-.5.1-.9.5-1.2.2-.2.4-.3.5-.5.2-.2.3-.3.5-.5.3-.5.3-.9,0-1.3-.2-.2-.4-.5-.5-.7v-.3h0c.3.3.5.5.8.8.5.5.5,1.4,0,1.9-.2.2-.3.3-.5.5,0,0-.2.2-.2.3-.1.3,0,.6.3.6.5,0,.9,0,1.1-.5,0,0,.2-.3.3-.5,0,.5,0,.9-.3,1.2-.2.2-.4.4-.7.5-.4.2-.9.3-1.4.4-.1,0-.3,0-.3-.2h-.1ZM168.1,85.6c-2.6-3.5-6.1-5.8-10.3-7h-.2s-.4-.2-1.3-.3c-.5,0-1.1-.2-1.9-.3h-1.2c-.5,0-1.1,0-1.7,0h-3.6c-.4,0-.9,0-1.3,0-.6,0-1.2,0-1.8.2-.2,0-.5,0-.7,0-.6,0-1.1.2-1.5.3h-.6c-4.9,1-8.9,3.4-12,7.5-.2.2-.3.5-.5.6h0c.2-.6.5-1.2.9-1.7.5-.8,1.1-1.5,1.8-2.2s.3-.4.5-.5c.2-.2.4-.4.6-.6h0c.4-.2,1.4-1.2,1.4-1.2h0s.1,0,.2,0c.7-.5,1.4-1,2.1-1.5.8-.6.7-.4,1-1.2.7-1.7,1.4-3.4,2.1-5.1,2.6-6.4,5.2-12.8,7.8-19.1.1-.3.2-.6.4-.9.2,0,.3.3.3.5.5,1.3,1.1,2.6,1.6,3.8,2.8,6.6,5.5,13.3,8.3,19.9.4,1.1.2.8,1.3,1.3.6.3,1.3.7,1.9,1h0c.3.2.9.6,1.2.8h0c1,.7,2,1.5,2.8,2.4.9,1,1.8,2,2.4,3.2.2.3.3.6.3.9h-.2c-.2-.2-.4-.5-.6-.7h.5ZM168.8,86.5v-.2h0v.2Z"/>
    </g>
    <path class="cls-1" d="M286.7,100.1c0,2.6-2,4.7-4.6,4.7s-4.6-2.1-4.6-4.7,2-4.7,4.6-4.7,4.6,2.1,4.6,4.7ZM278.5,100.1c0,2.2,1.6,4,3.6,4s3.6-1.8,3.6-4-1.6-4-3.6-4-3.6,1.8-3.6,4ZM280,97.5h2.5c.8,0,1.5.4,1.5,1.3s-.4,1.2-1,1.4l.8,1.1c.3.4.7.9.9,1.1v.2h-1.1c-.4,0-.8-1.1-1.5-2.2h-.5v1.4c0,.5,0,.6.6.6v.2h-2.3v-.2q.6,0,.6-.6v-3.4q0-.5-.6-.6v-.2h.1ZM281.6,100h.4c.6,0,.8-.6.8-1.2s-.3-1-.8-1h-.5v2.2h.1Z"/>
  </g>
  <g>
    <path class="cls-2" d="M216.1,139.3c0-1.3-.5-2.4-1.4-3.3-.1-.1-.2-.2-.3-.4v-.2l.4-.4c.7-.6,1-1.3,1.2-2.2v-3.6h0v-3.3c0-.8-.2-1.6-.6-2.3-.7-1.5-1.9-2.4-3.6-2.7-.6,0-1.3,0-1.9,0-1.5.2-2.6,1-3.2,2.3-.4.8-.6,1.7-.6,2.6v5.7c0,1.2.5,2.3,1.4,3.1.1.1.3.2.4.4v.2c0,.1-.2.2-.3.3-.8.6-1.2,1.5-1.4,2.4v7.5c0,.6,0,1.1.2,1.7.3,1.1.8,2.1,1.7,2.8,1.5,1.1,3.1,1.6,4.9,1.3,1.1-.2,1.9-.8,2.4-1.7.4-.6.6-1.3.6-2v-8.2h.1Z"/>
    <path class="cls-2" d="M73.8,146.3c-.6-.6-1.2-1.2-1.9-1.7-.2-.1-.4-.3-.6-.4h-.3c0,.1-.2.3-.2.5-.8,2-1.6,4.1-2.2,6.2-.4,1.3-.8,2.7-1,4v.9c0,.2,0,.3.3.3h.5c1.8-.2,3.4-1,4.8-2.3,1.2-1.2,1.8-2.7,1.9-4.7v-.7c0-.9-.4-1.6-1-2.3l-.3.2Z"/>
    <path class="cls-2" d="M160.4,146.7c.5.4,1,.7,1.6.9,1.5.4,2.9.2,4.3-.4.7-.3,1.3-.8,1.8-1.3s.7-.9.9-1.3c.3-.6.6-1.3.8-2,.2-.8.4-1.7.5-2.6.2-1.3.2-2.6.2-3.8v-.5c0-.6-.3-1-.8-1.4-.2-.2-.5-.4-.7-.5,0-.3.3-.3.4-.4.6-.4.9-1,1-1.7v-2c-.1-2-.7-3.8-1.7-5.5-.5-.8-1.1-1.5-1.8-2.1s-1.5-1-2.4-1.2c-1-.2-2.1-.2-3.1,0-.2,0-.4,0-.6.2-.2,0-.4.3-.4.6v24.6c0,.2.1.4.3.5h-.3Z"/>
    <path class="cls-1" d="M76.2,132.9c1-1.8,2-3.7,3-5.5.6-1.2,1.2-2.3,1.8-3.5.4-.8.7-1.7,1-2.5.2-.7.4-1.4.4-2.1s-.3-1.5-1-2c-.2,0-.5-.3-.7-.4-.6-.2-1.3-.2-1.9,0s-1.1.5-1.5,1v.4h.2c.6,0,.9.4,1.1.9,0,.2,0,.4,0,.6,0,.3,0,.5-.3.7-.3.3-.6.4-1,.5-1.3,0-2.5,0-3.7-.4-2-.7-4.1-1-6.3-.8-1.2,0-2.5.3-3.7.8-2.6,1-4.5,2.7-5.7,5.3-.9,2-.9,4.1-.7,6.2.2,1.3.7,2.4,1.3,3.5.6,1,1.3,1.9,2.1,2.7.7.7,1.4,1.4,2.2,2,.2.2.4.3.6.5.2.2.4.5.3.8v1.1s0,.1.2.1c.3-.1.6-.2.8-.3.5-.2,1.1-.4,1.7-.3.4,0,.7.1,1.1.2q.9.3.5,1.1c0,.2-.2.4-.3.6-1.6,3.7-3.2,7.4-4.2,11.3-.2.1-.3,0-.4,0-1.4-.9-2.3-2.2-2.8-3.7-.3-1.1-.4-2.2-.4-3.4s.2-1.7.6-2.6c0-.1.2-.3,0-.5,0,0,0-.1-.2-.2-.4-.1-.8,0-1.2.2-.2.1-.3.2-.5.4-.7.8-1.3,1.7-1.5,2.7s-.3,2,0,3c0,.2,0,.5,0,.7-.3.5-.6,1-.9,1.5-.3.6-.4,1.2-.4,1.9s.2,1.2.6,1.7c0,.2.3.3.4.4,0,.1.2.2.2.4v1.6c0,.4-.2.7-.3,1.1,0,.2,0,.4.3.5h.7c.5-.1,1-.4,1.5-.7.6-.4,1-.9,1.5-1.3.2-.2.4-.4.6-.6,0,0,.2-.1.4-.1.4.1.8.2,1.2.5v1.7c0,.7.2,1.4.5,2.1.4,1.1,1,2,1.9,2.7.5.4,1.2.7,1.9.7h1.3c.9,0,1.7-.4,2.4-1,.6-.5,1.1-1,1.5-1.7.2-.3.3-.5.4-.8v-.2s0-.2-.2-.2h-1.5c-1.5,0-3-.9-3.6-2.7,0-.2,0-.4.3-.4h.5c1.8-.2,3.4-.7,5.1-1.4,2.2-.9,4.1-2.3,5.7-4.1,1.2-1.3,2-2.8,2.4-4.5.2-1,.3-1.9.3-2.9,0-1.7-.5-3.3-1.5-4.7-.4-.6-1-1.2-1.5-1.8-.8-.8-1.6-1.6-2.5-2.3-.5-.4-1-.8-1.5-1.2-.4-.3-.4-.4-.2-.8.3-.7.7-1.4,1-2.1l.3-.4ZM73.1,154c-1.3,1.3-2.9,2-4.8,2.3h-.5c-.2,0-.3-.1-.3-.3v-.9c.2-1.4.6-2.7,1-4,.7-2.1,1.4-4.1,2.2-6.2,0-.2,0-.3.2-.5,0,0,.2-.1.3,0,.2.1.4.3.6.4.7.5,1.3,1.1,1.9,1.7.6.6.9,1.4,1,2.3v.7c0,1.9-.6,3.4-1.9,4.7l.3-.2ZM73.8,132.6c-.2.4-.5.9-.7,1.3,0,.1-.2.2-.3.1-.6-.3-1.3-.6-1.9-.9-1-.5-1.9-1.1-2.7-1.7-.7-.5-1.3-1-1.8-1.6-1.4-1.5-1.3-3.7-.4-5.1.8-1.3,2-2,3.5-2.2h1c1.2,0,2.1.2,3,.5,1.4.6,2.6,1.5,3.3,2.8,0,0,0,.2.2.4v.5c0,.2-.2.4-.3.6-.9,1.8-1.8,3.5-2.7,5.3h-.2Z"/>
    <path class="cls-1" d="M251.2,143.4c-.5-.9-1.1-1.7-1.7-2.5-1.1-1.5-2.4-2.9-3.7-4.3-.2-.2-.4-.4-.5-.6-.3-.3-.4-.7-.4-1.1v-.7c0-.2,0-.4.1-.6v-.2h-.4c-.4.2-.8.2-1.3.3s-1,0-1.5-.2c-.1,0-.3-.2-.4-.3-1.2-.9-2.5-1.8-3.6-2.8-.5-.5-1-1-1.3-1.5-1-1.4-1.1-2.9-.4-4.4.5-1.1,1.3-1.8,2.4-2.2.8-.3,1.6-.4,2.5-.3.3,0,.6,0,.9,0,1.8.3,3.3,1.1,4.4,2.5,1.4,1.9,2,3.9,1.5,6.3-.1.5,0,.7.5.8h.5c.2,0,.5,0,.7-.2.7-.5,1-1.2,1.1-2,0-.4,0-.7-.1-1.1,0-.3,0-.5.2-.8.3-.3.5-.7.6-1,.2-.6.2-1.2.2-1.8s-.2-1.1-.5-1.5c0,0-.2-.3-.3-.4v-.3c0,0,.1-.2.2-.3.1-.2.3-.5.3-.7.2-.9,0-1.7-.7-2.5-.1-.2-.4-.3-.5-.4h-.3v.4c0,.3-.2.6-.3.8-.3.5-.7.8-1.2.8h-.7c-1,0-2-.2-3-.5-1.1-.5-2.3-.7-3.5-.9-1.8-.2-3.6-.2-5.4.3-1.9.5-3.6,1.4-5,2.8-1.2,1.2-2,2.6-2.4,4.2-.3,1.3-.2,2.6,0,3.8.1,1.2.5,2.2,1.1,3.2.5.9,1.1,1.8,1.8,2.7.8,1,1.6,1.9,2.5,2.8l.9.9c.3.3.5.7.4,1.2v.8s0,.2.2.2h.5c1-.3,2-.2,2.9.3.5.3,1,.6,1.5,1,1.1.9,2.2,1.8,3.2,2.8s1.1,1.3,1.6,2c.4.6.7,1.2.8,1.8.3,1.1.3,2.2.1,3.3-.3,1.7-1.3,2.9-3,3.5-.5.2-1,.3-1.6.3s-1.5,0-2.2-.2c-4.1-.9-6.6-4.1-7.4-6.9-.4-1.3-.5-2.7-.3-4,0-.4.2-.9.3-1.3,0-.2.2-.4.3-.6,0-.2,0-.4-.2-.5-.5-.2-1.1-.2-1.5.2-.7.5-1.2,1.1-1.5,1.9-.4,1-.4,2,0,3,0,.2.1.4.2.6-.1.2-.2.3-.3.4-.2.3-.4.5-.6.8-.7,1.2-.7,2.4,0,3.5.1.2.3.4.4.6.2.2.3.5.3.7,0,.8,0,1.5-.4,2.2,0,.2,0,.4.2.5.6.3,1.2.4,1.9.2.6-.1,1.1-.4,1.6-.8.2-.2.4-.3.7-.5.2-.1.4-.1.6,0,.2.1.5.3.7.4,2.9,1.9,7.5,3,10.9,2.6.9-.1,1.9-.3,2.7-.7,2.9-1.2,4.7-3.4,5.4-6.5.1-.7.2-1.3.3-2,.1-1.1,0-2.2-.2-3.3-.2-1.4-.8-2.7-1.5-4h-.3Z"/>
    <path class="cls-1" d="M224.2,142.3c.1-.9.2-1.7.4-2.6.2-1.2.6-2.3,1.5-3.1v-.2c0-.2-.2-.3-.3-.5-.6-.7-.9-1.5-1.1-2.3,0-.4-.2-.9-.2-1.3-.1-1.2-.3-2.4-.7-3.6-.5-1.8-1.2-3.4-2.3-5-1.7-2.3-3.8-4-6.6-4.7-1.8-.5-3.7-.6-5.6-.4-2.1.3-4,1-5.7,2.2-2.5,1.8-4.2,4.3-5.1,7.2-.3,1-.5,2-.6,3-.2,1.2-.5,2.3-1.5,3.1,0,0,0,.1-.1.2v.2c0,.1.2.2.3.3.5.5.8,1.1,1,1.8.1.5.2,1.1.3,1.6.2,1.1.3,2.2.6,3.3.6,2,1.4,3.9,2.5,5.6,1.6,2.4,3.8,4.2,6.5,5.3,2.3,1,4.7,1.3,7.2,1.1,2.6-.2,4.7-1.4,6.3-3.4s1.4-2.1,1.9-3.2c.6-1.5,1-3.1,1.3-4.7h0ZM216.1,147.5c0,.7-.3,1.4-.6,2-.6.9-1.4,1.5-2.4,1.7-1.8.3-3.5-.1-4.9-1.3-.9-.7-1.5-1.7-1.7-2.8-.1-.6-.2-1.1-.2-1.7v-7.5c.2-1,.6-1.8,1.4-2.4.1,0,.2-.2.3-.3v-.2l-.4-.4c-.9-.8-1.4-1.9-1.4-3.1v-5.7c0-.9.2-1.8.6-2.6.7-1.3,1.8-2.1,3.2-2.3.6,0,1.3,0,1.9,0,1.7.3,2.8,1.2,3.6,2.7.4.7.5,1.5.6,2.3v3.3h0v3.6c-.2.9-.5,1.6-1.2,2.2-.2.1-.3.3-.4.4v.2c.1.1.2.3.3.4.9.9,1.3,2,1.4,3.3v8.2h-.1Z"/>
    <path class="cls-1" d="M149.7,149.1c1.2.5,2.3.7,3.5.2.2,0,.4-.2.6-.3h.5c.1,0,.2.1.4.2.9.4,1.9.5,2.9.3.5,0,1-.3,1.6-.4.2,0,.5.1.8.2.5.1,1,.3,1.6.4,1,.2,2.1.2,3.1.2,1.5,0,2.9-.2,4.3-.6,2.2-.6,4.1-1.8,5.6-3.4,1.2-1.3,2.1-2.8,2.7-4.4.5-1.4.9-2.9,1-4.4,0-.4.1-.7.2-1.1.2-.7.5-1.3,1.2-1.7.1,0,.2-.2.3-.2v-.2c-.2-.1-.3-.3-.5-.4-.5-.4-.9-.9-1-1.6,0-.3-.1-.6-.2-.9,0-.8-.3-1.7-.5-2.5-.4-1.4-.9-2.8-1.6-4-1-1.8-2.5-3.1-4.3-4.1-1.1-.6-2.4-1-3.6-1.3-.8-.2-1.5-.2-2.3-.3-2.1-.2-4.2,0-6.2.4-.5,0-1,.2-1.6,0-.9-.3-1.9-.4-2.8,0-.3,0-.5.2-.7.3-.3,0-.5.2-.8,0-.4-.2-.8-.3-1.2-.4-1-.2-1.9,0-2.7.4-.3.2-.6.4-.7.8v.3s.1,0,.2,0h1c.4,0,.9,0,1.3.3.9.5,1.5,1.1,1.4,2.2v7.7c0,1-.5,1.9-1.4,2.5-.2.1-.4.3-.6.4v.2l.3.3c.3.2.6.4.9.7.4.3.6.7.6,1.2v10c0,.4-.1.7-.4,1-.4.5-.8.8-1.4,1-.4.1-.9.2-1.3.2h-.8s-.2.1-.2.2c0,.2.1.4.3.5.2.2.4.3.6.4v-.4ZM160.2,122.5v-1c0-.3.1-.5.4-.6.2,0,.4-.2.6-.2,1,0,2.1-.2,3.1,0,.9.2,1.7.6,2.4,1.2s1.4,1.3,1.8,2.1c1,1.7,1.6,3.5,1.7,5.5v2c0,.7-.4,1.3-1,1.7-.2.1-.4.2-.4.4.2.2.5.3.7.5.4.4.7.8.8,1.4v.5c0,1.3,0,2.6-.2,3.8-.1.9-.3,1.7-.5,2.6-.2.7-.4,1.3-.8,2-.3.5-.6.9-.9,1.3-.5.6-1.1,1-1.8,1.3-1.4.6-2.8.8-4.3.4-.6-.2-1.1-.4-1.6-.9-.2-.1-.3-.3-.3-.5v-23.6h.3Z"/>
    <path class="cls-1" d="M110.6,130.8c0,.6-.2,1.3-.4,1.9v.2c0,.1,0,.3.2.3h.3c.7,0,1.2-.3,1.7-.9.7-.8,1-1.8,1-2.8s0-.8-.2-1.1c-.3-.6-.3-1.1,0-1.6.4-.8.5-1.5.2-2.3,0-.3-.3-.5-.4-.8v-.4s0-.2.2-.3c.5-.7.7-1.5.6-2.4,0-1.3-1.3-2.3-2.6-2.1,0,0-.3.2-.3.3v.8c0,.5-.4.8-.9.8h-.4c-.6,0-1.2-.3-1.8-.4-1.2-.3-2.4-.5-3.7-.5s-1.6,0-2.3.5c-.2,0-.4.2-.6.2s-.4-.2-.7-.3c-.5-.2-1-.3-1.5-.3-.8,0-1.5,0-2.2.5-.2,0-.3.2-.6.2s-.2,0-.4-.2c-1-.5-2.1-.6-3.2-.5-.5,0-1.1.2-1.6.3-.8.2-1.6.4-2.3.6-.3,0-.7.2-1.1.3-.4,0-.8-.3-.9-.7v-1c0-.2,0-.3-.3-.4-1.1,0-2.1.5-2.5,1.5-.4,1.1-.2,2.1.2,3.2,0,.2.2.3.3.5,0,.2,0,.4,0,.6,0,0,0,.2-.2.4-.5,1.1-.5,2.2,0,3.2,0,.2.2.4.4.7-.3.7-.4,1.4-.5,2.1,0,.5,0,1.1.2,1.6.2.6.5,1.2,1,1.6.5.4,1,.6,1.7.5.2,0,.3-.2.2-.4-.3-.8-.4-1.7-.4-2.6,0-1.6,0-3.2.7-4.8.4-1.1,1-2.1,1.8-3,.5-.6,1.2-1,1.9-1.4.9-.5,1.9-.6,3-.4.8,0,.9.2.9,1v10c0,1.2-.5,2.2-1.5,3-.2.1-.4.3-.6.4,0,.1,0,.2.2.3.4.2.7.5,1,.8.4.4.7.9.7,1.5v11.1c0,.6-.2,1.1-.5,1.6-.2.3-.5.6-.9.8-.7.5-1.6.8-2.5.7-.3,0-.4.2-.4.4s.2.4.3.6c.3.3.7.4,1.1.5,1.1.2,2.2,0,3.2-.6,0,0,.2-.1.3-.2.2-.2.4-.2.7,0,.4.2.9.3,1.4.3.9,0,1.8-.2,2.6-.7.6-.4.7-.4,1.3-.2h.4c1.3.3,2.5,0,3.6-.7.3-.2.6-.5.7-.8v-.3s0-.2-.2-.2h-.4c-.4.1-.9.2-1.3.1-.9,0-1.6-.4-2.1-1.2,0-.2-.2-.5-.2-.8v-1c0-3.1,0-6.2,0-9.3v-.5c0-.9.4-1.6,1.1-2.2,0,0,.2-.2.3-.3,0,0,.2-.2.3-.2.3-.2.3-.3,0-.5s-.6-.4-.8-.6c-.5-.4-.8-.9-.8-1.5v-1.2c0-2.2,0-4.5,0-6.7v-3.2s0-.2.2-.2c0,0,.2,0,.3,0,1.6-.5,3.1-.2,4.4.7,1,.7,1.7,1.6,2.2,2.6.9,1.7,1.1,3.6.9,5.5h.2Z"/>
    <path class="cls-1" d="M141.5,146.3c.7-.6,1.3-1.2,2-1.7h0c0-.2-.1-.2-.2-.3-.2-.2-.4-.4-.5-.6-.2-.3-.4-.6-.4-1v-6.5c0-.3,0-.6.1-.9.2-.5.5-.8.9-1.1.4-.2.8-.4,1.2-.7,0,0-.1-.2-.2-.2-.4-.2-.8-.4-1.1-.7-.6-.4-.8-.9-.8-1.5v-9c0-.2,0-.4.2-.6.6-.8,1.4-1.3,2.4-1.3s.9,0,1.4,0c.2,0,.3,0,.4-.2,0-.4,0-.7-.4-1-.3-.3-.8-.4-1.2-.5-.5,0-.9,0-1.4.2-.2,0-.5.2-.7.3-.1,0-.3,0-.4-.2-.9-.5-1.7-.5-2.6,0-.1,0-.3,0-.4.2-.2,0-.5-.2-.7-.3-.5-.2-1-.3-1.5-.2-.5,0-1,.2-1.4.5-.3.3-.4.6-.4,1,0,0,.1.2.2.2h1.6c.7,0,1.4.3,1.9.8.5.4.7.9.7,1.5v8.4c0,.7-.3,1.2-.8,1.7s-.3.3-.5.4c-.1,0-.3.2-.4.3,0,0-.2.1-.2.2v.3c.4.3.8.5,1.2.8s.6.7.6,1.2v6.9c0,1-.3,1.9-1,2.7-.3.3-.5.6-.8.9-1.7,1.4-3.6,2-5.7,1.8-1.5-.1-2.9-.7-3.9-1.9-.8-.8-1.2-1.7-1.3-2.8v-6.8c0-.9.4-1.6,1.2-2.2.1-.1.3-.2.4-.3.1,0,.2-.2.3-.2v-.3c-.3-.2-.6-.4-.9-.6-.6-.5-.9-1.1-1-1.9v-8.7c0-.2,0-.4.2-.6.4-.7.9-1.2,1.7-1.4.6-.2,1.1-.3,1.7,0h.3s.2,0,.2-.2c0-.2,0-.5-.3-.6-.2-.2-.4-.4-.7-.5-1.2-.5-2.4-.7-3.6,0-.2,0-.4.3-.7.2,0,0-.3-.2-.5-.2-.9-.4-1.8-.5-2.8-.3-.4,0-.7.2-1,.4-.2,0-.4.2-.5.2-.2,0-.3-.2-.5-.2-.5-.3-1-.4-1.6-.4-.9,0-1.7,0-2.4.6-.3.2-.5.4-.6.8,0,.2,0,.4.3.4h1.1c.4,0,.7,0,1.1.2.5.2.9.6,1.2,1,.3.4.3.8.3,1.3v8.2c0,.4,0,.8-.3,1.2-.2.5-.6,1-1,1.3-.2.2-.4.3-.6.5v.2l.3.3c.3.2.6.4.8.6.5.4.8.9.8,1.6v6.9c0,1.6.7,3,1.9,4.1.5.5,1.1.9,1.7,1.2.7.4,1.4.6,2.2.8,1,.3,2,.4,3.1.5,1.9.2,3.8,0,5.6-.4,2.6-.6,4.9-1.8,6.9-3.5l-.2-.4Z"/>
    <path class="cls-1" d="M195.4,149.4h-1.5c-.7-.2-1.3-.5-1.7-1s-.7-1-.6-1.7v-10.4c.2-.7.6-1.2,1.2-1.6.2-.1.4-.2.6-.4.1,0,.1-.2,0-.3-.3-.2-.6-.5-1-.8-.6-.5-.9-1.2-.9-2v-9c0,0,0-.3.1-.4.5-.9,1.2-1.4,2.2-1.5h1.5s.2,0,.1-.2v-.2c-.1-.3-.3-.5-.6-.7-.5-.4-1.2-.5-1.8-.6-.7,0-1.3,0-2,.3-.2,0-.5.2-.7.3-.2,0-.4-.2-.7-.3-1-.4-1.9-.6-3-.2-.4,0-.7.3-1,.4h-.6c-.2,0-.4-.2-.6-.3-1.1-.5-2.2-.4-3.3,0-.2,0-.5.3-.7.5-.1.2-.2.3-.3.5,0,.2,0,.4.3.3.3,0,.5,0,.8,0,1,0,1.9.3,2.5,1.1.3.4.5.7.4,1.2v8.4c0,1-.5,1.8-1.3,2.4-.2.1-.3.2-.5.3v.3c.1.1.3.2.4.3.3.2.6.5.8.7.4.3.6.8.6,1.3v10.4c0,.3-.1.6-.3.8-.5.7-1.2,1-2,1.1-.5,0-.9,0-1.4-.1-.2,0-.4.1-.3.4,0,.2.1.4.3.5.2.2.4.3.7.5.5.3,1,.4,1.5.5.7.1,1.4,0,2.1-.2.2,0,.4-.2.5-.2,1.9,1,3,1.1,5,.4.2,0,.4.2.6.3.8.5,1.7.6,2.6.5.4,0,.9-.2,1.2-.4.2-.1.4-.3.6-.6v-.4s-.1-.2-.2-.2h.4Z"/>
  </g>
</svg>