<?xml version="1.0" encoding="UTF-8"?>
<svg id="Layer_1" data-name="Layer 1" xmlns="http://www.w3.org/2000/svg" version="1.1" viewBox="0 0 27 25.8">
  <defs>
    <style>
      .cls-1 {
        fill: #222a31;
      }

      .cls-1, .cls-2 {
        stroke-width: 0px;
      }

      .cls-2 {
        fill: #ffed22;
      }
    </style>
  </defs>
  <path class="cls-2" d="M23.4,142.9c0-.1.1-.3.1-.5,0-.4-.3-.8-.8-.8h0c.1-.2.2-.4.3-.7.1-.3,0-.7-.3-.9-.1-.1-.3-.2-.5-.2s-.3,0-.4.1c-.6.4-1.3.7-2.1.9-.9-.8-2.1-1.3-3.4-1.3-2.8,0-5.1,2.3-5.1,5.1s0,0,0,0c-2.9-.4-5.5-1.9-7.3-4.1-.2-.2-.4-.3-.6-.3h0c-.3,0-.5.2-.6.4-.5.8-.7,1.7-.7,2.6s.2,1.6.5,2.3h-.2c-.2.1-.4.4-.4.7h0c0,1.5.6,2.9,1.7,3.8-.2.2-.2.5,0,.7.4,1.4,1.4,2.5,2.7,3.1-1,.5-2.1.7-3.3.7s-.6,0-.9,0h0c-.3,0-.6.2-.8.5-.1.4,0,.7.3.9,2.1,1.3,4.5,2.1,7,2.1,4.9,0,8-2.3,9.7-4.3,2.1-2.4,3.4-5.6,3.4-8.8s0-.1,0-.2c.8-.6,1.4-1.3,2-2.2l-.2.4ZM20.6,144.6v.6c0,5.7-4.3,12.2-12.2,12.2s-4.7-.7-6.6-1.9h1c2,0,3.9-.7,5.3-1.8-1.9,0-3.5-1.3-4-3h.8c.4,0,.8,0,1.1-.2-2-.4-3.5-2.1-3.5-4.2h0c.6.3,1.2.5,1.9.5-1.2-.8-1.9-2.1-1.9-3.6s.2-1.5.6-2.2c2.1,2.6,5.3,4.3,8.9,4.5,0-.3-.1-.6-.1-1,0-2.4,1.9-4.3,4.3-4.3s2.4.5,3.1,1.4c1-.2,1.9-.6,2.7-1-.3,1-1,1.8-1.9,2.4.9-.1,1.7-.3,2.5-.7-.6.9-1.3,1.6-2.1,2.2h0Z"/>
  <path class="cls-2" d="M23.6,168.5h0s-.1,0-.2-.1c-.3-.2-.7-.2-1.1-.2H1.7c-1.3,0-2.4,1.1-2.4,2.4v11.8c0,1.3,1.1,2.4,2.4,2.4h20.6c1.3,0,2.4-1.1,2.4-2.4v-11.8c0-.9-.5-1.6-1.1-2h0ZM23.9,182.3c0,.2,0,.5-.2.7-2.8-2.8-6.1-5.9-7.2-7,2.7-2.5,5.8-5.8,6.7-6.7.4.3.6.7.6,1.2v11.8h0ZM22.6,168.9c-1.1,1.2-4.2,4.3-6.7,6.7,0,0-.1,0-.2.1h0c-1,.9-1.9,1.7-2.6,2.2-.8.6-1.2.4-1.9,0-2.4-1.5-8.1-7.4-9.6-9h-.1c0-.1,21.3-.1,21.3-.1,0,0-.1,0-.2.1ZM.8,169.2c.8.8,4,4.3,6.8,6.8l-7.3,6.9c0-.2-.2-.4-.2-.7v-11.8c0-.5.3-1,.6-1.3h0ZM.8,183.6l7.3-7c1,.9,1.9,1.6,2.6,2,.5.3.9.6,1.4.6s.8-.1,1.3-.5c.7-.5,1.6-1.2,2.5-2.1,1,1,4.7,4.5,7.2,7-.3.2-.6.3-.9.3H1.7c-.4,0-.7-.1-.9-.3Z"/>
  <g>
    <path class="cls-1" d="M22,20.2h0c-.1,0-.2,0-.4,0-.1,0-.3.1-.4.2h-.2c0,0-.2.2-.2.2h0c-2.6,1-5.2,1.6-7.7,1.7,0,0-.2,0-.3,0h0c-3.9,0-7.1-1.8-10.3-3.6-.1,0-.2,0-.3,0s-.3,0-.4.2c-.1.1-.2.2-.2.4,0,.2.1.4.3.5,3,2.6,6.3,5.1,10.8,5.1,0,0,.2,0,.3,0,2.8,0,6-1,8.5-2.6h0c.3-.2.7-.4,1-.7.2-.1.3-.4.3-.6,0-.4-.4-.7-.7-.7Z"/>
    <path class="cls-1" d="M24.2,19c0,0,.1,0,.1,0,0,0,0,0,0,0,0,0,0,0,0,.1,0,.3-.1.7-.3,1.2-.1.5-.3.9-.4,1.2,0,0,0,.1,0,.2,0,.1,0,.3.2.4.1,0,.2.1.4.1h0c.2,0,.3,0,.4-.2,1.2-1,1.6-2.7,1.6-3.7v-.2s0,0,0,0c0-.2,0-.4-.2-.6h0s0,0,0,0c-.1-.1-.2-.2-.3-.2-.3-.1-.8-.2-1.4-.2-.4,0-.9,0-1.3.1h0s-.5.1-.5.1h0s-.3,0-.3,0h0c-.3.1-.6.3-.8.5-.2.1-.3.3-.3.5,0,.1,0,.3.2.4.1,0,.2.1.4.1s0,0,0,0h0s0,0,0,0c.2,0,.6,0,.9-.1.3,0,.7,0,1,0,0,0,0,0,0,0,.2,0,.4,0,.5,0Z"/>
    <path class="cls-1" d="M10.4,18.2c.8,0,1.5-.1,2.2-.3,1-.3,1.8-.9,2.8-1.9.6.8.7,1.2,1.7,2,.1,0,.2,0,.4,0s.3,0,.4-.1c.6-.5,1.7-1.5,2.3-2,.3-.2.2-.5,0-.8-.6-.7-1.2-1.4-1.2-2.8v-4.7c0-2,.2-3.8-1.3-5.2-1.2-1.1-3.1-1.5-4.6-1.5h-.6c-2.7.2-5.5,1.3-6.2,4.6-.1.4.2.6.4.6l2.9.4c.3,0,.5-.3.5-.6.3-1.2,1.2-1.7,2.3-1.8h.2c.6,0,1.3.3,1.7.8.4.6.4,1.5.4,2.2v.4c-.7,0-1.5.1-2.3.2-1.2.2-2.4.4-3.4.8-1.9.8-3.3,2.5-3.3,4.9s2,4.7,4.5,4.7ZM12.6,10.2c.7-.2,1.5-.2,2.3-.2v.6c0,1.2,0,2.2-.6,3.2-.4.7-1,1.2-1.7,1.4-.1,0-.3,0-.4,0-1.2,0-1.8-.9-1.8-2.2s1-2.5,2.3-2.8Z"/>
  </g>
</svg>