<?xml version="1.0" encoding="UTF-8"?>
<svg id="Layer_1" data-name="Layer 1" xmlns="http://www.w3.org/2000/svg" version="1.1" viewBox="0 0 27 25.8">
  <defs>
    <style>
      .cls-1 {
        fill: #ffed22;
        stroke-width: 0px;
      }
    </style>
  </defs>
  <path class="cls-1" d="M15.7,5.9c.2,0,.4-.2.8-.2.8,0,1.6.2,1.6.2,0,0,.1,0,.2,0,.1,0,.3,0,.4-.1.2-.1.3-.3.4-.5l.6-3.4c0-.4-.2-.8-.5-.9,0,0-1.4-.5-4.4-.5s-3.2.6-4.2,2c-.9,1.2-.9,3-.9,3.9v1.4h-1.5c-.4,0-.8.4-.8.8v3.3c0,.4.4.8.8.8h1.5v10.7c0,.4.4.8.8.8h4.3c.4,0,.8-.4.8-.8v-10.7h2.6c.4,0,.8-.3.8-.7l.3-3.3s0,0,0,0c0-.4-.4-.8-.8-.8h-2.9v-1.8c0-.2,0-.2.1-.3ZM18.1,12.1h-3.4v11.5h-4.3v-11.5h-2.3v-3.3h2.3v-2.2c0-1,0-2.5.7-3.4.8-1,1.8-1.7,3.6-1.7,2.9,0,4.1.4,4.1.4l-.6,3.4s-1-.3-1.8-.3-1.7.3-1.7,1.2v2.6h3.7l-.3,3.3Z"/>
</svg>