<?xml version="1.0" encoding="UTF-8"?>
<svg id="Layer_1" data-name="Layer 1" xmlns="http://www.w3.org/2000/svg" version="1.1" viewBox="0 0 4.8 4.8">
  <defs>
    <style>
      .cls-1 {
        fill: #222a31;
        stroke-width: 0px;
      }
    </style>
  </defs>
  <path class="cls-1" d="M3.8.1H1C.5.1.1.5.1,1v2.8c0,.5.4.9.9.9h2.8c.5,0,.9-.4.9-.9V1c0-.5-.4-.9-.9-.9ZM2.4,3.4c-.5,0-.9-.4-.9-.9s.4-.9.9-.9.9.4.9.9-.4.9-.9.9ZM3.9,1.2c-.1,0-.3-.1-.3-.3s.1-.3.3-.3.3.1.3.3-.1.3-.3.3Z"/>
  <path class="cls-1" d="M2.4,1.9c-.3,0-.6.3-.6.6s.3.6.6.6.6-.3.6-.6-.3-.6-.6-.6Z"/>
</svg>