<?xml version="1.0" encoding="UTF-8"?>
<svg id="Layer_1" data-name="Layer 1" xmlns="http://www.w3.org/2000/svg" version="1.1" viewBox="0 0 4.8 4.8">
  <defs>
    <style>
      .cls-1 {
        fill: #ffed22;
        stroke-width: 0px;
      }
    </style>
  </defs>
  <path class="cls-1" d="M4.6,3.6V1C4.6.5,4.2,0,3.6,0H1C.5,0,0,.5,0,1v2.6C0,4.2.5,4.6,1,4.6h2.6c.6,0,1-.5,1-1ZM1,4.4c-.5,0-.8-.4-.8-.8V1C.2.6.6.2,1,.2h2.6c.5,0,.8.4.8.8v2.6c0,.5-.4.8-.8.8H1Z"/>
  <path class="cls-1" d="M3.6.7c-.1,0-.2.1-.2.2s.1.2.2.2.2-.1.2-.2-.1-.2-.2-.2Z"/>
  <path class="cls-1" d="M2.2,1.5c-.5,0-.8.4-.8.8s.4.8.8.8.8-.4.8-.8-.4-.8-.8-.8ZM2.2,2.9c-.3,0-.6-.3-.6-.6s.3-.6.6-.6.6.3.6.6-.3.6-.6.6Z"/>
</svg>