<?xml version="1.0" encoding="UTF-8"?>
<svg id="Layer_1" data-name="Layer 1" xmlns="http://www.w3.org/2000/svg" version="1.1" viewBox="0 0 27 25.8">
  <defs>
    <style>
      .cls-1 {
        fill: #ffed22;
        stroke-width: 0px;
      }

      .cls-2 {
        display: none;
      }
    </style>
  </defs>
  <g class="cls-2">
    <path class="cls-1" d="M23.4,142.9c0-.1.1-.3.1-.5,0-.4-.3-.8-.8-.8h0c.1-.2.2-.4.3-.7.1-.3,0-.7-.3-.9-.1-.1-.3-.2-.5-.2s-.3,0-.4.1c-.6.4-1.3.7-2.1.9-.9-.8-2.1-1.3-3.4-1.3-2.8,0-5.1,2.3-5.1,5.1s0,0,0,0c-2.9-.4-5.5-1.9-7.3-4.1-.2-.2-.4-.3-.6-.3h0c-.3,0-.5.2-.6.4-.5.8-.7,1.7-.7,2.6s.2,1.6.5,2.3h-.2c-.2.1-.4.4-.4.7h0c0,1.5.6,2.9,1.7,3.8-.2.2-.2.5,0,.7.4,1.4,1.4,2.5,2.7,3.1-1,.5-2.1.7-3.3.7s-.6,0-.9,0h0c-.3,0-.6.2-.8.5-.1.4,0,.7.3.9,2.1,1.3,4.5,2.1,7,2.1,4.9,0,8-2.3,9.7-4.3,2.1-2.4,3.4-5.6,3.4-8.8s0-.1,0-.2c.8-.6,1.4-1.3,2-2.2l-.2.4ZM20.6,144.6v.6c0,5.7-4.3,12.2-12.2,12.2s-4.7-.7-6.6-1.9h1c2,0,3.9-.7,5.3-1.8-1.9,0-3.5-1.3-4-3h.8c.4,0,.8,0,1.1-.2-2-.4-3.5-2.1-3.5-4.2h0c.6.3,1.2.5,1.9.5-1.2-.8-1.9-2.1-1.9-3.6s.2-1.5.6-2.2c2.1,2.6,5.3,4.3,8.9,4.5,0-.3-.1-.6-.1-1,0-2.4,1.9-4.3,4.3-4.3s2.4.5,3.1,1.4c1-.2,1.9-.6,2.7-1-.3,1-1,1.8-1.9,2.4.9-.1,1.7-.3,2.5-.7-.6.9-1.3,1.6-2.1,2.2h0Z"/>
  </g>
  <g class="cls-2">
    <path class="cls-1" d="M1,123c2.7,2.3,5.9,4.8,10.3,4.8h.3c2.7,0,5.8-1,8.1-2.5h0c.3-.2.6-.4.8-.6,0,.2.2.4.3.5.2.2.5.3.9.3s0,0,0,0c.3,0,.6,0,.9-.3h0c1.3-1.2,1.7-3,1.7-3.9h0v-.2c0-.4-.1-.7-.3-.9h0c-.2-.2-.4-.3-.6-.4h0c-.4-.2-.9-.2-1.5-.2h-1.8c0,0-.2,0-.2,0l-.2.2c-.3,0-.5.3-.8.5h0c-.5.4-.6.8-.6,1.1s.1.7.4.9h-.1c-2.3.9-4.6,1.4-6.7,1.5h-.2c-3.3,0-5.9-1.5-8.8-3.1h-.2c-.2-.2-.4-.3-.7-.3s-.7,0-.9.4c-.3.2-.4.6-.4.9s.2.8.5,1.1h-.2ZM19.2,121c.2-.2.5-.3.8-.4h.6c.4,0,.8,0,1.2,0s.9,0,1.2.2c0,0,.2,0,.3.2h0c0,0,.1.3.2.5h0c0,.9-.4,2.5-1.4,3.4-.1,0-.2,0-.4,0h0c-.1,0-.2,0-.3,0,0,0-.1-.2-.1-.3v-.2c.1-.3.3-.7.4-1.1s.2-.8.2-1.1h0q0,0-.1,0h-.5c-.2,0,0,0,0,0h-.9c-.3,0-.6,0-.8,0h0c-.1,0-.2,0-.3,0-.1,0-.2-.2-.2-.3,0-.2.1-.4.3-.5l-.2-.2ZM18.7,123.2h.4c.1,0,.2-.2.3-.2h.3c.3,0,.7.3.7.6s-.1.4-.3.5c-.3.2-.6.4-.9.6h0c-2.3,1.4-5.1,2.3-7.7,2.3h-.2c-4,0-7-2.2-9.8-4.6-.1,0-.2-.3-.2-.4s0-.3.2-.4c0,0,.2,0,.4,0h.3c2.9,1.6,5.8,3.3,9.3,3.3h.2c2.3,0,4.7-.6,7-1.5h0Z"/>
    <path class="cls-1" d="M4.3,116.8c0,1.6.5,2.9,1.4,3.8.9.8,2.1,1.3,3.5,1.3s1.4,0,2.1-.3h0c.8-.2,1.5-.7,2.2-1.3.3.3.6.7,1.2,1.2,0,0,.1,0,.2,0,.2,0,.4,0,.6,0,.3,0,.6,0,.8-.3h0c.5-.4,1.6-1.3,2.1-1.8.5-.4.6-1.1.2-1.7h-.1c-.4-.7-.8-1.1-.8-2v-4.8c0-1.7,0-3.5-1.4-4.8-1.6-1.5-4-1.6-4.7-1.6h-.6c-3.5.2-5.8,2-6.3,4.8,0,.4,0,.7,0,.9.2.3.5.5.8.6h0l2.7.3h0c-.3,0-.6.2-.8.3-2.2.9-3.4,2.8-3.4,5.2h.2ZM11.2,111.6c.7,0,1.4,0,2-.2v-.4c0-.7,0-1.4-.3-2-.3-.5-1-.7-1.5-.7h-.2c-1,0-1.8.6-2,1.7,0,.2-.2.5-.5.5l-2.7-.3c-.2,0-.5-.2-.4-.6.6-3,3.1-4,5.6-4.2h.6c1.3,0,3,.4,4.1,1.4,1.3,1.2,1.2,2.9,1.2,4.7v4.3c0,1.3.5,1.9,1,2.5.1.2.2.5,0,.7-.5.5-1.5,1.3-2.1,1.8-.1,0-.2,0-.3,0h-.3c-.9-.8-1-1.1-1.6-1.8-.9,1-1.7,1.5-2.6,1.8-.6,0-1.2.2-1.9.2-2.3,0-4.1-1.4-4.1-4.2s1.2-3.8,3-4.5c.9-.4,2-.6,3.1-.8h0Z"/>
    <path class="cls-1" d="M10.8,118.3h.4c.6,0,1.2-.6,1.5-1.2.6-1,.5-1.8.5-2.9v-.6c-.7,0-1.4,0-2,.2-1.1.3-2,1-2,2.6s.6,2,1.7,2h0Z"/>
  </g>
  <g class="cls-2">
    <path class="cls-1" d="M23.6,168.5h0s-.1,0-.2-.1c-.3-.2-.7-.2-1.1-.2H1.7c-1.3,0-2.4,1.1-2.4,2.4v11.8c0,1.3,1.1,2.4,2.4,2.4h20.6c1.3,0,2.4-1.1,2.4-2.4v-11.8c0-.9-.5-1.6-1.1-2h0ZM23.9,182.3c0,.2,0,.5-.2.7-2.8-2.8-6.1-5.9-7.2-7,2.7-2.5,5.8-5.8,6.7-6.7.4.3.6.7.6,1.2v11.8h0ZM22.6,168.9c-1.1,1.2-4.2,4.3-6.7,6.7,0,0-.1,0-.2.1h0c-1,.9-1.9,1.7-2.6,2.2-.8.6-1.2.4-1.9,0-2.4-1.5-8.1-7.4-9.6-9h-.1c0-.1,21.3-.1,21.3-.1,0,0-.1,0-.2.1ZM.8,169.2c.8.8,4,4.3,6.8,6.8l-7.3,6.9c0-.2-.2-.4-.2-.7v-11.8c0-.5.3-1,.6-1.3h0ZM.8,183.6l7.3-7c1,.9,1.9,1.6,2.6,2,.5.3.9.6,1.4.6s.8-.1,1.3-.5c.7-.5,1.6-1.2,2.5-2.1,1,1,4.7,4.5,7.2,7-.3.2-.6.3-.9.3H1.7c-.4,0-.7-.1-.9-.3Z"/>
  </g>
  <g>
    <path class="cls-1" d="M23.7,21.2v-7c0-3.9-2.1-6.3-5.5-6.3s-2.2.4-2.8.8c-.1-.3-.4-.5-.8-.5h-4c-.2,0-.4,0-.6.2-.2-.1-.4-.2-.6-.2h-4c-.5,0-.9.4-.9.9v12.1c0,.5.4.9.9.9h4c.2,0,.4,0,.6-.2.2.2.4.2.6.2h4c.5,0,.9-.4.9-.9v-6.8c0-.4,0-.6,0-.7.1-.4.5-.9,1.3-.9s1.2,0,1.2,1.9v6.5c0,.5.4.9.9.9h4c.5,0,.9-.4.9-.9ZM16.7,12c-1.1,0-1.8.8-2.1,1.5-.1.3-.1.6-.1,1v6.8h-4s0-11,0-12.1h4v1.7c.5-.8,1.5-2,3.6-2s4.6,1.7,4.6,5.5v7h-4v-6.5c0-1.6-.6-2.7-2-2.7ZM9.3,21.2h-4v-12.1h4v12.1Z"/>
    <path class="cls-1" d="M14.5,10.8h0s0,0,0,0h0Z"/>
    <path class="cls-1" d="M7.3,7.9c1.6,0,2.9-1.3,2.9-2.9s-1.3-2.9-2.9-2.9-2.9,1.3-2.9,2.9,1.3,2.9,2.9,2.9ZM7.3,2.9c1.1,0,2.1.9,2.1,2.1s-.9,2.1-2.1,2.1-2.1-.9-2.1-2.1.9-2.1,2.1-2.1Z"/>
  </g>
</svg>