<?xml version="1.0" encoding="UTF-8"?>
<svg id="Layer_1" data-name="Layer 1" xmlns="http://www.w3.org/2000/svg" version="1.1" viewBox="0 0 27 25.8">
  <defs>
    <style>
      .cls-1 {
        fill: #222a31;
        stroke-width: 0px;
      }
    </style>
  </defs>
  <path class="cls-1" d="M15.1,16.3c-.5.4-1,.6-1.4.6s-1-.3-1.5-.6c-.7-.4-1.7-1.2-2.7-2.2l-7.8,7.5c.3.2.6.3,1,.3h22c.4,0,.7-.1,1-.3-2.8-2.7-6.6-6.5-7.7-7.5-1,.9-2,1.7-2.7,2.2Z"/>
  <path class="cls-1" d="M1.6,6.2c-.4.3-.7.8-.7,1.4v12.6c0,.3,0,.5.2.7l7.7-7.4c-3-2.7-6.4-6.4-7.2-7.3Z"/>
  <path class="cls-1" d="M18.5,13.4c1.2,1.1,4.6,4.5,7.7,7.4.1-.2.2-.5.2-.7V7.6c0-.5-.2-1-.6-1.3-1,1-4.3,4.5-7.2,7.2Z"/>
  <path class="cls-1" d="M2.6,5.8c0,0-.1,0-.2,0,1.6,1.7,7.7,8.1,10.2,9.6.7.5,1.1.7,2,0,.7-.5,1.7-1.4,2.8-2.3,0,0,0,0,0,0,0,0,.1-.1.2-.2,2.8-2.5,6-5.9,7.2-7.2,0,0-.2,0-.3,0H2.6Z"/>
  <path class="cls-1" d="M2.6,5.8h22c0,0,.2,0,.3,0,0,0,.1-.1.2-.2H2.3c0,0,0,.1.1.2,0,0,.1,0,.2,0Z"/>
</svg>