<?xml version="1.0" encoding="UTF-8"?>
<svg id="Layer_1" data-name="Layer 1" xmlns="http://www.w3.org/2000/svg" version="1.1" viewBox="0 0 27 25.8">
  <defs>
    <style>
      .cls-1 {
        fill: #ffed22;
        stroke-width: 0px;
      }
    </style>
  </defs>
  <path class="cls-1" d="M24.7,5.3s0,0,0,0c0,0-.1,0-.2-.1-.3-.2-.7-.2-1.1-.2H2.8c-1.3,0-2.4,1.1-2.4,2.4v11.8c0,1.3,1.1,2.4,2.4,2.4h20.6c1.3,0,2.4-1.1,2.4-2.4V7.3c0-.9-.5-1.6-1.1-2ZM25,19.1c0,.2,0,.5-.2.7-2.8-2.8-6.1-5.9-7.2-7,2.7-2.5,5.8-5.8,6.7-6.7.4.3.6.7.6,1.2v11.8ZM23.6,5.7c-1.1,1.2-4.2,4.3-6.7,6.7,0,0-.1,0-.2.1,0,0,0,0,0,0-1,.9-1.9,1.7-2.6,2.2-.8.6-1.2.4-1.9,0-2.4-1.5-8.1-7.4-9.6-9,0,0,0,0-.1-.1h21.3c0,0-.1,0-.2.1ZM1.8,6c.8.8,4,4.3,6.8,6.8l-7.3,6.9c0-.2-.2-.4-.2-.7V7.3c0-.5.3-1,.6-1.3ZM1.9,20.4l7.3-7c1,.9,1.9,1.6,2.6,2,.5.3.9.6,1.4.6s.8-.1,1.3-.5c.7-.5,1.6-1.2,2.5-2.1,1,1,4.7,4.5,7.2,7-.3.2-.6.3-.9.3H2.8c-.4,0-.7-.1-.9-.3Z"/>
</svg>