<?xml version="1.0" encoding="UTF-8"?>
<svg id="Layer_1" data-name="Layer 1" xmlns="http://www.w3.org/2000/svg" version="1.1" viewBox="0 0 27 25.8">
  <defs>
    <style>
      .cls-1 {
        fill: #ffed22;
        stroke-width: 0px;
      }
    </style>
  </defs>
  <path class="cls-1" d="M26.4,6.6c.1-.2.2-.3.2-.5,0-.5-.4-.9-.9-.9,0,0,0,0,0,0,0,0,0,0,0,0,.1-.2.2-.5.3-.8.1-.4,0-.8-.3-1-.2-.1-.4-.2-.6-.2-.2,0-.3,0-.5.1-.7.4-1.5.8-2.4,1-1.1-.9-2.5-1.5-3.9-1.5-3.2,0-5.9,2.6-5.9,5.9s0,0,0,.1c-3.3-.4-6.3-2.1-8.4-4.7-.2-.2-.4-.3-.7-.3,0,0,0,0,0,0-.3,0-.6.2-.7.5-.5.9-.8,1.9-.8,2.9s.2,1.8.6,2.6c0,0-.1,0-.2,0-.3.2-.5.5-.5.8h0c0,1.8.7,3.3,1.9,4.4-.2.2-.3.6-.2.9.5,1.6,1.7,2.9,3.1,3.5-1.2.5-2.4.8-3.8.8s-.7,0-1.1,0c0,0,0,0-.1,0-.4,0-.7.2-.9.6-.1.4,0,.9.4,1.1,2.4,1.5,5.2,2.4,8.1,2.4,5.6,0,9.2-2.7,11.1-4.9,2.4-2.8,3.8-6.4,3.8-10.1s0-.1,0-.2c.9-.7,1.6-1.5,2.3-2.5ZM23.2,8.6c0,.2,0,.4,0,.6,0,6.5-5,14-14,14s-5.4-.8-7.6-2.2c.4,0,.8,0,1.2,0,2.3,0,4.4-.8,6.1-2.1-2.2,0-4-1.5-4.6-3.4.3,0,.6,0,.9,0,.4,0,.9,0,1.3-.2-2.3-.5-4-2.4-4-4.8h0c.7.3,1.4.5,2.2.6-1.3-.9-2.2-2.4-2.2-4.1s.2-1.8.7-2.5c2.4,3,6.1,5,10.2,5.2,0-.4-.1-.7-.1-1.1,0-2.7,2.2-4.9,4.9-4.9s2.7.6,3.6,1.6c1.1-.2,2.2-.6,3.1-1.2-.4,1.2-1.2,2.1-2.2,2.7,1-.1,1.9-.4,2.8-.8-.7,1-1.5,1.9-2.5,2.6Z"/>
</svg>