<?xml version="1.0" encoding="UTF-8"?>
<svg id="Layer_1" data-name="Layer 1" xmlns="http://www.w3.org/2000/svg" version="1.1" viewBox="0 0 27 25.8">
  <defs>
    <style>
      .cls-1 {
        fill: #222a31;
        stroke-width: 0px;
      }
    </style>
  </defs>
  <path class="cls-1" d="M25.6,3.3c-1,.6-2.1,1-3.3,1.2-.9-1-2.3-1.6-3.8-1.6-2.8,0-5.2,2.3-5.2,5.2s0,.8.1,1.2c-4.3-.2-8.1-2.3-10.6-5.4-.4.8-.7,1.6-.7,2.6,0,1.8.9,3.4,2.3,4.3-.8,0-1.6-.3-2.3-.6h0c0,2.6,1.8,4.6,4.1,5.1-.4.1-.9.2-1.4.2s-.7,0-1,0c.7,2,2.6,3.5,4.8,3.6-1.8,1.4-4,2.2-6.4,2.2s-.8,0-1.2,0c2.3,1.5,5,2.3,7.9,2.3,9.5,0,14.7-7.9,14.7-14.7s0-.4,0-.7c1-.7,1.9-1.6,2.6-2.7-.9.4-1.9.7-3,.8,1.1-.6,1.9-1.6,2.3-2.9Z"/>
</svg>