<?xml version="1.0" encoding="UTF-8"?>
<svg id="Layer_1" data-name="Layer 1" xmlns="http://www.w3.org/2000/svg" version="1.1" viewBox="0 0 27 21.2">
  <defs>
    <style>
      .cls-1 {
        fill: #ffed22;
        stroke-width: 0px;
      }
    </style>
  </defs>
  <path class="cls-1" d="M25.7,3.7c-.6-1.1-1.8-2.5-4.3-2.5H5.8s-1.2,0-2.4.6c-1.1.6-2.5,1.8-2.5,4.3v8.5s0,1.2.6,2.4c.6,1.1,1.8,2.5,4.3,2.5h15.6s1.2,0,2.4-.6c1.1-.6,2.5-1.8,2.5-4.3V6.2s0-1.2-.6-2.4ZM25.5,14.7c0,4.1-4.1,4.1-4.1,4.1H5.8c-4.1,0-4.1-4.1-4.1-4.1V6.2C1.7,2,5.8,2,5.8,2h15.6c4.1,0,4.1,4.1,4.1,4.1v8.5Z"/>
  <path class="cls-1" d="M18.5,9.5l-6.5-3.4c-.2,0-.3-.1-.5-.1h0c-.6,0-1.1.5-1.1,1.1v6.7c0,.6.5,1.1,1.1,1.1s.4,0,.5-.1l6.5-3.4c.4-.2.6-.5.6-.9,0-.4-.2-.7-.6-.9ZM11.2,13.8v-6.7c0-.1.1-.3.3-.3,0,0,0,0,.1,0l6.5,3.4c.2,0,.2.3,0,.4l-6.5,3.4s0,0-.1,0c-.2,0-.3-.1-.3-.3Z"/>
</svg>