<?xml version="1.0" encoding="UTF-8"?>
<svg id="Layer_1" data-name="Layer 1" xmlns="http://www.w3.org/2000/svg" version="1.1" viewBox="0 0 27 21.2">
  <defs>
    <style>
      .cls-1 {
        fill: #222a31;
        stroke-width: 0px;
      }
    </style>
  </defs>
  <path class="cls-1" d="M22.1,1.9H5.5S1.1,1.9,1.1,6.3v9.1s0,4.4,4.4,4.4h16.7s4.4,0,4.4-4.4V6.3s0-4.4-4.4-4.4ZM19,11.9l-6.9,3.6c-.2,0-.4.1-.5.1-.6,0-1.2-.5-1.2-1.1v-7.2c0-.6.5-1.1,1.2-1.1h0c.2,0,.4,0,.5.1l6.9,3.6c.4.2.6.6.6,1,0,.4-.2.8-.6,1Z"/>
  <path class="cls-1" d="M18.6,10.6l-6.9-3.6c0,0-.1,0-.2,0-.2,0-.3.1-.3.3v7.2c0,.2.1.3.3.3s.1,0,.2,0l6.9-3.6c.2-.1.2-.4,0-.5Z"/>
</svg>