<?xml version="1.0" encoding="UTF-8"?>
<svg id="Layer_1" data-name="Layer 1" xmlns="http://www.w3.org/2000/svg" version="1.1" viewBox="0 0 27.3 27.3">
  <defs>
    <style>
      .cls-1 {
        fill: #fef8e5;
        stroke-width: 0px;
      }
    </style>
  </defs>
  <g id="_3jeEP7.tif" data-name="3jeEP7.tif">
    <g>
      <path class="cls-1" d="M27,3.2c0,.4-.1.8-.2,1.2-.3,1.6-1,3-2,4.3-1.5,2.1-3.4,3.9-5.3,5.6-.5.4-1,.8-1.6,1.3-1.1-.8-2.2-1.7-3.3-2.5.3-.2.6-.4.8-.6,2.5-2,4.9-4,7.1-6.3,1.5-1.6,2.8-3.2,3.7-5.2,0-.2.1-.3.3-.5,0,.4.2.8.3,1.2,0,.3,0,.5.1.8v.9Z"/>
      <path class="cls-1" d="M1.1.3c1.5,3.3,3.8,5.7,6.4,8.1,2.8,2.6,5.9,4.9,8.9,7.3.8.7,1.7,1.3,2.5,2,.5-.5.9-1.2,1-2.1.3,0,.7,0,1.1,0,0,.4,0,.7-.2,1.1-.3.9-.8,1.6-1.5,2.3-.6.6-1.1,1.2-1.3,2-.8,2.5,1.4,5.2,4,5,1.2-.1,2-.8,2.7-1.7.5-.7.9-1.5,1.2-2.3,0,0,0-.2,0-.3.3,0,.6.2,1,.3-.4,1.3-.9,2.4-1.8,3.4-.5.6-1.1,1-1.7,1.3-1.7.7-3.7.4-5-1-1.4-1.4-1.9-3-1.4-4.9,0-.2,0-.2-.2-.3-1.9-1.3-3.9-2.5-5.7-3.8-2.3-1.6-4.5-3.4-6.4-5.5-1.4-1.6-2.7-3.2-3.4-5.3-.6-1.7-.8-3.4-.3-5.1,0,0,0-.2.1-.3Z"/>
      <path class="cls-1" d="M.8,21.7c.3-.1.6-.2,1-.3,0,.2.2.5.2.7.3.8.7,1.6,1.2,2.2,1.6,1.9,4.1,1.9,5.7,0,1.3-1.6,1.2-3.5-.1-5.1-.3-.3-.6-.7-.9-1-.6-.7-1-1.5-1.1-2.4,0-.1,0-.2,0-.4.4,0,.7,0,1,0,0,.8.4,1.5.9,2.1.4-.3.7-.6,1.1-.8,1,.7,2,1.4,3,2.1,0,0,0,0,.1,0-.7.4-1.3.8-2,1.2-.2.1-.3.2-.2.5.7,2.7-1.3,5.7-4.1,6.1-1.9.2-3.3-.6-4.3-2-.7-.9-1.1-1.9-1.5-3Z"/>
      <path class="cls-1" d="M20,19.5c0,0,.1,0,.2,0,1.5.7,2.8,1.7,3.9,3,.2.2.2.4,0,.6-.8,1-.6,1-1.7.4-1.2-.7-2.2-1.6-3.1-2.7-.1-.2-.2-.3,0-.5.2-.2.3-.5.5-.7,0,0,.1,0,.1-.1Z"/>
      <path class="cls-1" d="M8.5,20.6c0,0,0,.1-.1.2-1,1.3-2.2,2.4-3.8,3.1-.2,0-.3,0-.5-.1-.2-.2-.3-.4-.5-.6-.2-.2-.2-.4,0-.6.7-.9,1.5-1.6,2.4-2.2.4-.3.9-.5,1.4-.8.2-.1.3,0,.5.1.2.3.3.5.5.7,0,0,0,0,0,.2Z"/>
    </g>
  </g>
</svg>