<?xml version="1.0" encoding="UTF-8"?>
<svg id="Layer_1" data-name="Layer 1" xmlns="http://www.w3.org/2000/svg" version="1.1" viewBox="0 0 27.3 27.3">
  <defs>
    <style>
      .cls-1 {
        fill: #fef8e5;
        stroke-width: 0px;
      }
    </style>
  </defs>
  <g id="_16WSij.tif" data-name="16WSij.tif">
    <path class="cls-1" d="M5.8,13.7c1.4-1.8,3.1-3.4,4.6-5.2.7-.8,1.4-1.6,2-2.5,1.1-1.7,1.6-3.5.2-5.4,2,.9,3.5,2.4,4.5,4.2,1.8,3.2,1.7,6.6.7,10-.3.8-.6,1.7-1,2.7,1.4-1.1,2-2.5,2.5-4.1.6,1,1.1,1.9,1.5,2.8,1.1,2.6,1.1,5.2-.5,7.6-.7,1.1-1.8,1.9-2.7,2.9h-.3c.4-1.2,0-3.1-.8-3.7-.5.8-1.1,1.7-1.7,2.5,0-1.1-.1-2-.3-2.9-.4-2.3-1.9-4.3-1.7-6.7-3.1,1.5-5.3,5.9-3.6,10.8-.8-.6-1.5-1.1-2.2-1.7-1.5-1.2-5.7-5.6-1.2-11.3Z"/>
  </g>
</svg>