<?xml version="1.0" encoding="UTF-8"?>
<svg id="Layer_1" data-name="Layer 1" xmlns="http://www.w3.org/2000/svg" version="1.1" viewBox="0 0 27.3 27.3">
  <defs>
    <style>
      .cls-1 {
        fill: #fef8e5;
        stroke-width: 0px;
      }
    </style>
  </defs>
  <g id="Z17XZ3.tif">
    <g>
      <path class="cls-1" d="M12.1.9c.3.1.5.4.5.8,0,.9,0,1.8,0,2.6,0,0,0,.2.1.2.8.5,1.6.9,2.3,1.4.2.1.4.4.3.7,0,.2-.2.4-.5.4-.5,0-1,0-1.5,0-.4,0-.8,0-1.1,0-.3,0-.4.2-.5.4-.3.5-.7,1.1-1,1.6,0,.2-.2.3-.3.5-.2.3-.4.4-.7.3-.3,0-.5-.3-.5-.6,0-.8,0-1.6,0-2.4,0-.1,0-.3,0-.4,0,0,0-.1-.1-.1-.8-.5-1.6-1-2.4-1.5-.2-.1-.3-.4-.3-.7,0-.3.3-.5.6-.5.3,0,.6,0,.8,0,.5,0,1,0,1.5,0,.2,0,.3,0,.5,0,0,0,.1,0,.2-.1.3-.5.6-1,.9-1.5.1-.2.3-.5.4-.7.1-.2.3-.3.5-.4,0,0,.2,0,.3,0ZM10.4,7.1s0,0,0,0c0,0,0,0,.1-.1.1-.2.3-.5.4-.7.1-.2.3-.3.6-.3.3,0,.6,0,.8,0,0,0,.1,0,.2,0-.3-.2-.5-.3-.7-.4-.3-.2-.5-.4-.5-.8,0-.3,0-.6,0-.8,0,0,0,0-.1,0,0,0,0,.1,0,.2-.1.2-.3.5-.4.7-.1.2-.3.3-.5.3-.3,0-.7,0-1,0,0,0,0,0,0,0,0,0,0,0,0,0,.2.1.4.2.5.3.4.2.6.5.5.9,0,.1,0,.3,0,.4,0,.1,0,.3,0,.4Z"/>
      <path class="cls-1" d="M2.6,11c.1-.2.2-.4.3-.6.4-.5,1.3-.4,1.6.4.1.4,0,.8-.3,1-.4.3-.9.3-1.2.1-.3-.2-.4-.4-.5-.7,0,0,0-.2,0-.3Z"/>
      <path class="cls-1" d="M7.7,23.9c0-.7,0-1.3,0-2,0-.6,0-1.1,0-1.7,0-.1,0-.2-.2-.3-.6-.4-1.3-.8-1.9-1.2-.8-.5-1.6-1-2.4-1.4-.2-.1-.4-.3-.4-.5,0-.4.2-.7.6-.7,0,0,.1,0,.2,0,1,0,1.9,0,2.9,0,.6,0,1.1,0,1.7,0,.2,0,.3,0,.5,0,0,0,.2,0,.2-.2.4-.6.8-1.3,1.2-1.9.5-.7.9-1.5,1.4-2.2,0-.1.1-.2.2-.3.2-.2.4-.3.7-.2.2,0,.4.3.4.6,0,.8,0,1.6,0,2.5,0,.5,0,1,0,1.5,0,.4,0,.8,0,1.1,0,.2,0,.3.2.4,1,.6,1.9,1.2,2.9,1.8.5.3.9.6,1.4.8.3.2.4.4.4.7-.1.4-.4.5-.7.5-.2,0-.4,0-.6,0-.8,0-1.6,0-2.4,0-.7,0-1.4,0-2.1,0-.2,0-.3,0-.3.2-.5.8-1,1.7-1.5,2.5-.4.6-.8,1.3-1.2,1.9-.1.2-.4.3-.6.3-.3,0-.5-.3-.5-.6,0-.5,0-1,0-1.5,0,0,0,0,0,0ZM5.6,17.2h0c0,.1,0,.2.2.2.9.5,1.7,1,2.6,1.5.4.2.5.5.5.9,0,.8,0,1.7,0,2.5,0,.2,0,.5,0,.7,0,0,.1-.1.1-.2.5-.9,1.1-1.8,1.6-2.6.1-.2.3-.4.6-.5.2,0,.5,0,.7,0,.8,0,1.7,0,2.5,0,0,0,.2,0,.2,0,0,0,0,0,0,0-.1,0-.3-.2-.4-.3-.8-.5-1.7-1-2.5-1.5-.2-.1-.3-.3-.3-.5,0-.7,0-1.3,0-2,0-.5,0-1,0-1.5,0,0,0,0,0-.1,0,.1-.1.3-.2.4-.5.9-1,1.7-1.6,2.6-.1.2-.3.4-.6.4-.5,0-.9,0-1.4,0-.6,0-1.2,0-1.8,0,0,0-.1,0-.2,0Z"/>
      <path class="cls-1" d="M25.1,13.5c0,.4-.3.6-.6.6-.3,0-.7,0-1,.1-.3,0-.6,0-1,.1-.3,0-.5,0-.8,0-.2,0-.3.2-.4.3-.5.7-1.1,1.4-1.6,2.1-.1.2-.3.3-.6.3-.3,0-.5-.2-.5-.5,0-.6-.2-1.3-.2-1.9,0-.3,0-.7-.1-1,0,0,0-.2-.2-.3-.8-.6-1.5-1.1-2.3-1.7-.2-.2-.3-.4-.2-.6,0-.2.2-.4.5-.5.4,0,.8-.1,1.1-.2.6,0,1.1-.2,1.7-.2.4,0,.5-.3.7-.6.5-.6,1-1.3,1.4-1.9.2-.2.4-.3.6-.2.3,0,.4.3.5.6,0,.5.2,1.1.2,1.6,0,.3,0,.6,0,.9,0,.3,0,.5.3.7.7.5,1.5,1.1,2.2,1.7.1,0,.2.3.3.4ZM21,9.9c0,0-.1.1-.2.2-.3.3-.5.7-.8,1-.1.2-.2.4-.5.4-.6,0-1.2.2-1.8.3,0,0,0,.1.1.2.4.3.8.6,1.1.9.2.2.3.4.3.6,0,.5.1,1,.2,1.6,0,0,.2,0,.2-.1.3-.3.5-.7.8-1,.1-.2.3-.4.6-.4.5,0,1-.1,1.4-.2,0,0,.2,0,.3-.1-.5-.3-.9-.7-1.3-1-.1,0-.2-.2-.2-.3,0-.3-.1-.7-.2-1,0-.3,0-.6-.1-.9Z"/>
      <path class="cls-1" d="M19.3,4c0-.7.6-1.3,1.3-1.3.6,0,1.3.6,1.3,1.3,0,.7-.6,1.3-1.4,1.3-.6,0-1.4-.6-1.3-1.4Z"/>
    </g>
  </g>
</svg>