<?xml version="1.0" encoding="UTF-8"?>
<svg id="Layer_1" data-name="Layer 1" xmlns="http://www.w3.org/2000/svg" version="1.1" viewBox="0 0 27.3 27.3">
  <defs>
    <style>
      .cls-1 {
        fill: #fef8e5;
        stroke-width: 0px;
      }
    </style>
  </defs>
  <g id="raUyrc.tif">
    <path class="cls-1" d="M26.1,13.5c0,6.8-5.4,12.4-12.5,12.5-7.1,0-12.5-5.7-12.5-12.5,0-6.9,5.6-12.4,12.5-12.4,6.9,0,12.5,5.6,12.5,12.5ZM14.1,18.5s0,0,0,0c1.6,0,3.3.2,4.8.7.1,0,.1,0,.2-.1.5-1.6.7-3.3.8-5,0,0,0,0,0-.1h-5.8v4.5ZM14.1,8.5v4.5h5.8c0,0,0,0,0-.1,0-1.7-.3-3.3-.8-5,0-.1,0-.1-.2,0-1.4.4-2.7.6-4.1.6-.3,0-.5,0-.8,0ZM7.4,13.9c0,0,0,.1,0,.2,0,.5,0,.9,0,1.4.1,1.2.3,2.4.7,3.5,0,.1,0,.1.2.1.4,0,.8-.2,1.2-.3,1-.2,2-.3,3.1-.4.2,0,.4,0,.6,0v-4.5h-5.8ZM13.2,8.5c-1.7,0-3.4-.3-5-.7-.5,1.7-.8,3.5-.8,5.2h5.8v-4.5ZM25.2,13c-.1-2.5-1-4.8-2.5-6.8-.9.5-1.8.9-2.8,1.3.6,1.8.8,3.6.9,5.5h4.4ZM7.4,7.6c-1-.3-1.9-.7-2.8-1.3-1.6,2-2.4,4.2-2.5,6.7h4.4c0-1.9.3-3.7.9-5.5ZM6.5,14H2.1c.1,2.5,1,4.8,2.5,6.7.9-.5,1.8-.9,2.8-1.2-.3-.9-.5-1.8-.6-2.7-.1-.9-.2-1.8-.3-2.8ZM22.7,20.7c1.6-2,2.4-4.2,2.5-6.8h-4.4c0,1.9-.3,3.7-.9,5.5,1,.3,1.9.7,2.8,1.3ZM14.1,1.9v5.7c1.6,0,3.2-.2,4.8-.7,0-.2-.2-.4-.2-.6-.5-1.1-1.1-2.2-2-3.1-.7-.7-1.5-1.2-2.5-1.3ZM14.1,19.4v5.7c.4,0,.8-.2,1.2-.4.9-.4,1.5-1.1,2.1-1.9.5-.7.9-1.4,1.2-2.2,0-.2.2-.4.2-.6-1.6-.4-3.1-.6-4.7-.7ZM13.2,7.6V1.9c-.1,0-.3,0-.4,0-.9.2-1.6.8-2.3,1.4-.8.9-1.4,1.9-1.9,3.1,0,.1-.1.3-.2.5,1,.3,3.7.7,4.7.7ZM8.5,20c0,0,0,.2,0,.2.3.8.7,1.6,1.2,2.3.6.9,1.3,1.6,2.2,2.1.4.2.8.3,1.2.4v-5.7c-1.6,0-3.2.2-4.7.7ZM7.6,6.7c.6-1.6,1.4-3.1,2.7-4.3-2,.6-3.7,1.7-5.2,3.2.8.5,1.6.8,2.5,1.1ZM22.1,5.6c-.8-1.1-4.2-3.2-5.2-3.2,1.3,1.2,2.1,2.7,2.7,4.3.9-.3,1.7-.6,2.4-1.1ZM10.3,24.6c-1.3-1.2-2.1-2.7-2.7-4.3-.9.3-1.7.6-2.4,1.1.7,1.1,3.8,3,5.1,3.2ZM19.7,20.3c-.3.8-.7,1.6-1.1,2.3-.4.7-1,1.4-1.6,2,2-.6,3.7-1.7,5.1-3.2-.8-.5-1.6-.8-2.4-1.1Z"/>
  </g>
</svg>