<?xml version="1.0" encoding="UTF-8"?>
<svg id="Layer_1" data-name="Layer 1" xmlns="http://www.w3.org/2000/svg" version="1.1" viewBox="0 0 27.3 27.3">
  <defs>
    <style>
      .cls-1 {
        fill: #fef8e5;
        stroke-width: 0px;
      }
    </style>
  </defs>
  <g id="xWuF1b.tif">
    <path class="cls-1" d="M25.8,12.8v.8s0,0,0,0c0,.4,0,.9-.1,1.3,0,.6-.2,1.1-.4,1.7-.7,2.3-1.9,4.2-3.7,5.8-1,.9-2.2,1.6-3.4,2.1-1.1.4-2.3.7-3.5.8-.8,0-1.5,0-2.3-.1-.8-.1-1.5-.3-2.3-.6-1.3-.5-2.5-1.2-3.6-2.1-1.2-1-2.2-2.3-3-3.7-.8-1.6-1.3-3.4-1.4-5.2,0-1.1,0-2.2.3-3.3.4-1.7,1.1-3.2,2.1-4.5.9-1.2,2-2.2,3.3-3,1.6-1,3.3-1.6,5.2-1.7.9,0,1.7,0,2.6,0,.9.1,1.7.4,2.5.7,2,.8,3.6,2,5,3.7,1,1.3,1.8,2.8,2.2,4.4.2.9.4,1.7.4,2.6,0,0,0,.2,0,.3ZM7.9,13.8s0,0,0,0c0,.4.2.8.3,1.2.3,1,.7,2,1.2,3,0,0,0,0,0,0,.6,0,1.2-.1,1.9-.2,1.2-.2,2.4-.5,3.5-1,0,0,0,0,.1,0-.6-1.4-1.3-2.8-1.9-4.1-1.7.6-3.4,1-5.2,1.1ZM18.4,9.5c-1.3,1.2-2.7,2.1-4.2,2.8.6,1.4,1.3,2.7,1.9,4.1,0,0,0,0,0,0,.4-.2.7-.4,1.1-.5,1.1-.6,2.1-1.3,3-2.1,0,0,0,0,0,0-.4-1.4-.9-2.7-1.6-3.9,0,0,0-.2-.2-.3ZM15.5,17.9c-1.7.7-3.5,1.1-5.4,1.3,0,0,0,0,0,0,.3.4.6.8.9,1.1.6.7,1.3,1.4,2.1,2,0,0,0,0,0,0,.2,0,.4,0,.6,0,1-.2,2-.4,3-.8,0,0,.2,0,.3-.1-.5-1.2-1.1-2.3-1.6-3.5ZM15,5.6c-.9.9-1.8,1.6-2.9,2.1.5,1.2,1.1,2.3,1.6,3.5,1.5-.7,2.9-1.6,4.1-2.7-.8-1.1-1.7-2.1-2.8-2.9ZM21.1,12.8s0,0,0,0c1.1-1.2,1.9-2.5,2.5-4,0,0,0,0,0,0-.5-1-1.1-2-1.8-2.8-.1-.1-.2-.3-.4-.4-.3.6-.6,1.2-1,1.7-.4.5-.8,1-1.2,1.5.8,1.3,1.4,2.7,1.9,4.1ZM3.2,13.3s0,0,0,0c0,.6,0,1.2.2,1.8.1.8.4,1.6.7,2.4,0,.1.1.2.2.2.6.1,1.3.2,1.9.3.5,0,.9,0,1.4,0,.2,0,.4,0,.6,0,0,0,0,0,0,0-.3-.6-.5-1.2-.7-1.8-.3-.8-.5-1.6-.7-2.5,0,0,0,0,0,0-.4,0-.7,0-1.1,0-.7,0-1.4-.2-2.1-.4-.1,0-.2,0-.4,0ZM7.7,8.9s0,0,0,0c0,.3,0,.7,0,1,0,.9,0,1.8.1,2.7,0,0,0,0,0,0,.1,0,.2,0,.3,0,.6,0,1.2-.1,1.8-.2.8-.1,1.7-.4,2.5-.7,0,0,.2,0,.3-.1-.5-1.2-1.1-2.3-1.6-3.5-1.1.4-2.2.7-3.4.7ZM16.5,17.5c.5,1.2,1.1,2.3,1.6,3.5,0,0,0,0,0,0,.2,0,.4-.2.6-.3.7-.4,1.4-.9,2-1.4,0,0,0,0,0,0,0-.6,0-1.3,0-1.9,0-.7-.1-1.3-.2-2,0-.1,0-.2,0-.3-1.2,1-2.5,1.8-3.9,2.5ZM21.9,18.1s0,0,0,0c0,0,0,0,0,0,1.1-1.1,1.9-2.4,2.5-3.9,0-.1,0-.2,0-.3,0-.4,0-.7,0-1.1,0-.7-.1-1.5-.3-2.2,0-.1,0-.2,0-.3,0,0,0,0,0,0-.7,1.4-1.6,2.6-2.7,3.7,0,0,0,0,0,0,.3,1.2.4,2.4.5,3.7,0,.1,0,.2,0,.3ZM18.6,7.7c.8-.9,1.5-1.9,2-3-1.1-.9-2.2-1.5-3.5-1.9-.4.7-.8,1.4-1.3,2.1,1.1,1,1.4,1.1,2.8,2.9ZM11.5,22.5s0,0,0,0c0,0-.2-.2-.3-.2-.9-.8-1.7-1.8-2.3-2.9,0,0-.1-.2-.2-.1,0,0,0,0,0,0-.7,0-1.5,0-2.2,0-.4,0-.8,0-1.3-.2-.1,0-.2,0-.4,0,0,0,0,0,0,0,0,0,0,0,0,0,.6,1.1,1.4,2,2.4,2.8,0,0,0,0,0,0,.7.2,1.3.4,2,.5.5,0,1,.1,1.5.1.2,0,.5,0,.7,0ZM4.4,8.2s0,0,0,0c-.6,1.2-.9,2.5-1.1,3.8,0,0,0,0,0,0,1,.3,2.1.5,3.2.5,0,0,0,0,.1,0,0-.6-.1-1.3-.1-1.9,0-.6,0-1.3,0-1.9-.8-.1-1.5-.3-2.2-.6ZM14.1,5c-1.2-.7-2.5-1.2-3.9-1.5.5,1.1,1,2.2,1.5,3.3.9-.5,1.7-1.1,2.4-1.8ZM9.1,4c-.6,1.2-1,2.5-1.3,3.8.9,0,1.8-.2,2.7-.6-.5-1.1-1-2.1-1.5-3.2ZM14.8,4.1c.4-.5.8-1.1,1.1-1.7-1.6-.3-3.1-.3-4.7.1,1.3.3,2.5.9,3.6,1.6ZM6.7,7.7c.2-1.2.6-2.4,1-3.5-.6.4-1.1.9-1.6,1.4-.5.5-.9,1.1-1.3,1.6.6.2,1.2.4,1.8.5ZM17.6,22.4c-.9.4-1.9.7-2.8.9,0,0,0,0,0,0,.5.3,1,.5,1.6.6,0,0,0,0,0,0,.5-.1.9-.3,1.4-.4,0,0,.2,0,.2,0-.2-.3-.3-.7-.5-1ZM20.6,20.8c-.7.5-1.3.9-2,1.2.1.3.3.6.4,1,0,0,0,0,0,0,.4-.3.9-.5,1.3-.9,0,0,0,0,0,0,0-.2.1-.5.2-.7,0-.2,0-.4.1-.6ZM14.1,24.3s0,0,0,0c-.4-.2-.7-.4-1.1-.6,0,0,0,0,0,0-.2,0-.5,0-.7,0-.5,0-1,0-1.5,0-.1,0-.2,0-.3,0,1.2.5,2.5.7,3.8.6ZM21.8,20.7c.7-.8,1.3-1.7,1.8-2.6,0,0,0,0,0,0-.5.6-1,1.1-1.6,1.7,0,0,0,0,0,0,0,0,0,.2,0,.3,0,.2,0,.4,0,.6Z"/>
  </g>
</svg>